<?xml version="1.0" encoding="utf-8"?>
<!-- Generator: Adobe Illustrator 16.0.0, SVG Export Plug-In . SVG Version: 6.00 Build 0)  -->
<!DOCTYPE svg PUBLIC "-//W3C//DTD SVG 1.1//EN" "http://www.w3.org/Graphics/SVG/1.1/DTD/svg11.dtd">
<svg version="1.1" xmlns="http://www.w3.org/2000/svg" xmlns:xlink="http://www.w3.org/1999/xlink" x="0px" y="0px" width="500px"
	 height="403.341px" viewBox="0 0 500 403.341" enable-background="new 0 0 500 403.341" xml:space="preserve">
<g id="Background">
	<g>
		<g>
			<rect x="0" y="-96.658" fill="#4AA2DA" width="500" height="500"/>
		</g>
	</g>
	<g>
		<g>
			<rect x="0" y="312.519" fill="#267EBA" width="500" height="90.822"/>
		</g>
	</g>
	<g>
		<ellipse fill="#0068A1" cx="194.496" cy="339.118" rx="18.786" ry="2.933"/>
		<ellipse fill="#0068A1" cx="90.99" cy="342.82" rx="35.109" ry="3.052"/>
		<ellipse fill="#0068A1" cx="180" cy="356.442" rx="39.312" ry="3.6"/>
		<ellipse fill="#0068A1" cx="154.444" cy="356.593" rx="39.312" ry="3.6"/>
	</g>
</g>
<g id="Object">
	<g>
		<g>
			<g>
				<polygon fill="#3396CC" points="500.375,276.226 499.594,276.226 499.594,269.83 491.477,269.83 491.477,273.87 487.36,273.87 
					487.36,278.838 483.593,278.838 483.593,271.401 479.711,271.401 479.711,254.458 478.299,254.458 478.299,250.113 
					473.947,250.113 473.947,254.458 470.535,254.458 470.535,260.099 450.359,260.099 450.359,239.958 442.769,232.719 
					438.512,232.719 438.512,231.486 429.583,231.486 429.583,232.719 422.537,232.719 422.537,231.261 420.657,231.261 
					420.657,232.719 417.945,232.719 417.945,245.512 412.179,245.512 412.179,254.344 397.311,254.344 397.311,180.656 
					368.896,180.656 368.896,263.835 358.06,263.835 358.06,207.472 352.062,207.472 352.062,204.331 337.447,204.331 
					337.447,207.472 331.706,207.472 331.706,261.844 326.176,256.57 323.236,256.57 323.236,181.25 320.573,181.25 
					320.573,179.948 314.513,179.948 314.513,181.25 308.536,181.25 308.536,179.859 296.623,179.861 296.737,181.282 
					294.096,181.282 294.389,275.16 289.362,268.786 289.398,160.591 287.508,160.591 287.508,158.422 275.322,158.422 
					275.322,160.704 264.552,160.681 264.552,158.212 252.96,158.212 252.96,160.681 250.571,160.681 250.571,260.976 
					245.829,260.976 245.829,193.222 240.708,193.222 240.708,192.212 225.89,192.212 225.89,193.222 220.877,193.222 
					220.877,240.288 218.524,240.288 218.524,222.508 217.434,222.508 217.434,221.238 207.629,221.244 207.629,222.583 
					206.327,222.552 206.327,251.479 205.485,251.479 205.485,209.38 202.053,209.38 202.053,203.321 188.406,203.321 
					180.171,211.175 180.171,237.932 174.261,237.932 172.026,235.799 172.026,194.898 170.089,194.873 167.093,189.101 
					151.963,189.071 148.697,194.589 146.613,194.562 146.613,234.515 143.39,234.515 143.39,246.522 141.227,246.522 
					141.227,276.033 134.521,276.033 134.521,262.568 131.463,262.568 131.463,252.693 123.697,252.693 123.697,236.311 
					120.992,236.311 120.992,234.403 115.345,229.017 115.345,225.314 102.638,225.314 102.638,229.129 97.932,233.618 
					97.932,236.198 94.638,236.198 94.638,293.425 93.46,293.425 93.46,296.456 92.285,296.456 92.285,269.076 89.579,266.832 
					86.637,259.763 78.99,259.763 74.872,265.934 72.519,265.934 61.813,265.947 61.813,282.622 57.931,282.622 57.931,291.487 
					54.166,291.487 54.166,285.09 50.048,285.09 50.048,281.051 41.93,281.051 41.93,287.447 38.753,287.447 38.753,289.355 
					35.577,289.355 35.577,290.588 27.576,290.588 27.576,288.345 26.752,288.345 26.752,283.327 18.281,283.327 18.281,288.345 
					11.222,288.345 11.222,290.925 7.105,290.925 7.105,285.203 2.517,285.203 2.517,289.355 0,289.355 0,312.419 500.375,312.419 
									"/>
			</g>
			<g>
				<g>
					<g>
						<path fill="#DDB28A" d="M149.733,227.527c-0.06-0.494,0.36-0.951,0.939-1.021l0,0c0.578-0.072,1.097,0.271,1.158,0.765
							l0.503,4.097c0.061,0.494-0.359,0.952-0.938,1.023l0,0c-0.579,0.07-1.098-0.272-1.159-0.766L149.733,227.527z"/>
						<path fill="#DDB28A" d="M144.949,234.775c-1.889-2.423-1.262-4.776,0.628-6.25c1.889-1.475,4.326-1.51,6.214,0.912
							c1.889,2.424,2.518,6.387,0.627,7.859C150.529,238.771,146.838,237.197,144.949,234.775z"/>
						<path fill="#DDB28A" d="M145.215,228.355c-0.306-0.393-0.181-1.002,0.279-1.36l0,0c0.46-0.359,1.081-0.331,1.386,0.062
							l2.539,3.254c0.305,0.393,0.181,1.001-0.279,1.359l0,0c-0.459,0.359-1.081,0.332-1.387-0.061L145.215,228.355z"/>
						<path fill="#DDB28A" d="M147.129,227.374c-0.306-0.392-0.181-1.001,0.279-1.36l0,0c0.46-0.358,1.081-0.33,1.387,0.062
							l2.538,3.255c0.307,0.393,0.182,1.001-0.278,1.359l0,0c-0.46,0.358-1.081,0.332-1.386-0.061L147.129,227.374z"/>
						<path fill="#DDB28A" d="M143.85,229.931c-0.305-0.392-0.181-1.002,0.279-1.36l0,0c0.461-0.358,1.081-0.331,1.387,0.062
							l2.538,3.254c0.306,0.393,0.181,1.002-0.279,1.36l0,0c-0.459,0.358-1.081,0.332-1.387-0.062L143.85,229.931z"/>
						<path fill="#DDB28A" d="M142.364,231.46c-0.306-0.393-0.181-1.002,0.279-1.359l0,0c0.459-0.359,1.08-0.332,1.386,0.061
							l2.539,3.256c0.305,0.392,0.181,1-0.279,1.358l0,0c-0.46,0.358-1.081,0.331-1.387-0.062L142.364,231.46z"/>
					</g>
				</g>
				<path fill="#2D3756" d="M195.442,259.339c-1.23-1.631-3.696-2.336-5.515-2.859c-2.849-0.82-5.576-1.822-8.359-2.871
					c-3.459-1.303-6.92-2.605-10.38-3.908l-17.568-18.067l-4.656,6.171c2.289,2.459,4.578,4.918,6.867,7.377
					c1.916,2.057,3.831,4.113,5.747,6.172c2.495,2.678,4.825,5.635,8.041,7.496c3.302,1.911,7.051,2.977,10.528,4.515
					c2.336,1.033,4.86,2.603,7.34,3.246c2.178,0.564,5.12,0.591,6.928-0.921c1.493-1.248,2.301-3.639,1.495-5.544
					C195.786,259.853,195.628,259.586,195.442,259.339z"/>
				<g>
					<g>
						<g>
							<path fill="#DDB28A" d="M178.297,208.496c-0.063-0.513,0.374-0.989,0.976-1.063l0,0c0.602-0.074,1.14,0.282,1.203,0.795
								l0.523,4.26c0.063,0.512-0.374,0.988-0.976,1.063l0,0c-0.602,0.073-1.141-0.283-1.204-0.797L178.297,208.496z"/>
							<path fill="#DDB28A" d="M173.324,216.029c-1.964-2.519-1.312-4.965,0.653-6.496c1.963-1.532,4.496-1.569,6.459,0.949
								c1.964,2.518,2.616,6.637,0.651,8.168C179.124,220.183,175.288,218.546,173.324,216.029z"/>
							<path fill="#DDB28A" d="M173.6,209.355c-0.317-0.407-0.187-1.04,0.291-1.413l0,0c0.478-0.372,1.123-0.345,1.44,0.063
								l2.639,3.383c0.318,0.407,0.189,1.041-0.29,1.414l0,0c-0.477,0.373-1.123,0.344-1.441-0.064L173.6,209.355z"/>
							<path fill="#DDB28A" d="M175.59,208.335c-0.318-0.407-0.188-1.04,0.289-1.412l0,0c0.479-0.373,1.124-0.345,1.442,0.063
								l2.638,3.383c0.318,0.407,0.188,1.041-0.29,1.414l0,0c-0.479,0.371-1.124,0.344-1.442-0.064L175.59,208.335z"/>
							<path fill="#DDB28A" d="M172.182,210.994c-0.319-0.406-0.188-1.041,0.289-1.413l0,0c0.479-0.373,1.124-0.345,1.441,0.063
								l2.639,3.383c0.318,0.408,0.188,1.041-0.29,1.414l0,0c-0.478,0.372-1.123,0.344-1.442-0.063L172.182,210.994z"/>
							<path fill="#DDB28A" d="M170.637,212.583c-0.317-0.408-0.188-1.041,0.291-1.412l0,0c0.479-0.375,1.122-0.346,1.44,0.063
								l2.639,3.383c0.317,0.408,0.188,1.04-0.29,1.413l0,0c-0.478,0.372-1.123,0.345-1.441-0.063L170.637,212.583z"/>
						</g>
						<path fill="#2D3756" d="M223.352,240.624c-1.229-1.628-3.691-2.333-5.508-2.856c-2.846-0.82-5.569-1.82-8.349-2.866
							c-3.456-1.302-6.912-2.604-10.368-3.904l-17.547-18.045l-4.651,6.164c2.286,2.456,4.573,4.911,6.86,7.367
							c1.912,2.055,3.825,4.108,5.738,6.163c2.491,2.676,4.818,5.629,8.031,7.488c3.298,1.908,7.043,2.973,10.515,4.508
							c2.333,1.031,4.854,2.602,7.331,3.243c2.175,0.563,5.113,0.589,6.919-0.921c1.491-1.246,2.298-3.634,1.494-5.537
							C223.695,241.137,223.538,240.87,223.352,240.624z"/>
					</g>
					<g>
						<g>
							<path fill="#512016" d="M188.783,315.755l-2.476,8.445l-17.863-5.551c0,0-1.005-2.289,2.106-4.438
								c3.112-2.149,7.585,1.647,12.346-2.508L188.783,315.755z"/>
							<path fill="#28110E" d="M186.936,322.06l-0.629,2.141l-17.863-5.551c0,0-0.436-1.043,0.218-2.377
								C174.732,318.265,180.816,320.219,186.936,322.06z"/>
						</g>
						<polygon fill="#222B4A" points="180.683,313.15 189.921,317.427 211.605,270.097 200.269,264.847 						"/>
					</g>
				</g>
				<g>
					<path fill="#DDB28A" d="M125,213.837c0.061-0.494-0.36-0.951-0.938-1.022l0,0c-0.579-0.071-1.097,0.271-1.158,0.765
						l-0.503,4.097c-0.061,0.494,0.359,0.953,0.939,1.023l0,0c0.579,0.071,1.097-0.272,1.158-0.765L125,213.837z"/>
					<path fill="#DDB28A" d="M129.784,221.084c1.89-2.423,1.263-4.776-0.627-6.25c-1.889-1.474-4.325-1.509-6.215,0.914
						c-1.889,2.422-2.517,6.386-0.627,7.858C124.205,225.082,127.896,223.507,129.784,221.084z"/>
					<path fill="#DDB28A" d="M129.519,214.664c0.306-0.391,0.181-1-0.279-1.358l0,0c-0.46-0.358-1.08-0.332-1.386,0.06l-2.539,3.256
						c-0.306,0.392-0.181,1.001,0.278,1.359l0,0c0.46,0.359,1.081,0.331,1.387-0.061L129.519,214.664z"/>
					<path fill="#DDB28A" d="M127.604,213.683c0.306-0.393,0.181-1-0.278-1.359l0,0c-0.46-0.359-1.082-0.332-1.387,0.061
						l-2.539,3.255c-0.306,0.392-0.182,1.001,0.279,1.36l0,0c0.459,0.357,1.08,0.331,1.386-0.062L127.604,213.683z"/>
					<path fill="#DDB28A" d="M130.884,216.241c0.306-0.392,0.181-1.001-0.279-1.359l0,0c-0.46-0.358-1.081-0.331-1.386,0.061
						l-2.539,3.255c-0.307,0.392-0.182,1,0.278,1.359l0,0c0.459,0.359,1.081,0.332,1.387-0.061L130.884,216.241z"/>
					<path fill="#DDB28A" d="M132.37,217.77c0.306-0.392,0.181-1.001-0.278-1.359l0,0c-0.461-0.358-1.081-0.331-1.387,0.062
						l-2.538,3.254c-0.306,0.393-0.182,1,0.278,1.359l0,0c0.46,0.359,1.081,0.332,1.387-0.061L132.37,217.77z"/>
				</g>
				<path fill="#2D3756" d="M79.626,246.672c1.23-1.632,3.695-2.337,5.515-2.86c2.85-0.82,5.576-1.822,8.358-2.871
					c3.46-1.303,6.921-2.605,10.381-3.908l17.568-18.067l4.656,6.171c-2.289,2.459-4.579,4.918-6.868,7.377
					c-1.915,2.057-3.831,4.113-5.747,6.172c-2.494,2.678-4.824,5.635-8.04,7.496c-3.302,1.911-7.052,2.977-10.528,4.514
					c-2.336,1.033-4.861,2.604-7.341,3.247c-2.177,0.564-5.119,0.589-6.927-0.921c-1.493-1.248-2.301-3.639-1.496-5.545
					C79.283,247.185,79.441,246.917,79.626,246.672z"/>
				<g>
					<path fill="#512016" d="M162.449,335.984l-2.2,8.533l-18.059-4.969c0,0-1.08-2.258,1.963-4.512
						c3.043-2.251,7.644,1.401,12.272-2.912L162.449,335.984z"/>
					<path fill="#28110E" d="M160.807,342.354l-0.558,2.163l-18.059-4.969c0,0-0.47-1.029,0.141-2.387
						C148.471,338.957,154.624,340.712,160.807,342.354z"/>
				</g>
				<g>
					<polygon fill="#222B4A" points="153.641,333.38 162.536,337.15 185.603,290.313 172.276,284.664 					"/>
				</g>
				<path fill="#2D3756" d="M176.773,257.751l-9.967,31.641l15.292,7.421c0,0,10.048-30.9,8.883-41.44L176.773,257.751z"/>
				<path fill="#D6D6D6" d="M180.262,256.644c0,0-7.381,20.922-7.716,27.411c-0.049,0.952,6.519,3.66,7.222,3.979
					c3.404,1.538,13.126,6.321,16,2.419c1.199-1.629,0.528-4.402,0.602-6.363c0.083-2.205,0.18-4.41,0.29-6.614
					c0.094-1.868,0.985-19.281,1.224-19.276C197.881,258.199,180.262,256.644,180.262,256.644z"/>
				<g>
					<g>
						<rect x="216.067" y="-84.726" fill="#FFFFFF" width="1.421" height="115.972"/>
					</g>
					<g>
						<g>
							<defs>
								<filter id="Adobe_OpacityMaskFilter" filterUnits="userSpaceOnUse" x="193.853" y="32.275" width="45.851" height="45.852">
									<feFlood  style="flood-color:white;flood-opacity:1" result="back"/>
									<feBlend  in="SourceGraphic" in2="back" mode="normal"/>
								</filter>
							</defs>
							<mask maskUnits="userSpaceOnUse" x="193.853" y="32.275" width="45.851" height="45.852" id="SVGID_1_">
								<g filter="url(#Adobe_OpacityMaskFilter)">
									
										<image overflow="visible" width="208" height="208" xlink:href="C0040500.jpg"  transform="matrix(0.24 0 0 0.24 191.8525 30.2749)">
									</image>
								</g>
							</mask>
							<g mask="url(#SVGID_1_)">
								<defs>
									
										<filter id="Adobe_OpacityMaskFilter_1_" filterUnits="userSpaceOnUse" x="193.853" y="32.275" width="45.851" height="45.852">
										<feFlood  style="flood-color:white;flood-opacity:1" result="back"/>
										<feBlend  in="SourceGraphic" in2="back" mode="normal"/>
									</filter>
								</defs>
								<mask maskUnits="userSpaceOnUse" x="193.853" y="32.275" width="45.851" height="45.852" id="SVGID_1_">
									<g filter="url(#Adobe_OpacityMaskFilter_1_)">
										
											<image overflow="visible" width="208" height="208" xlink:href="C0040503.jpg"  transform="matrix(0.24 0 0 0.24 191.8525 30.2749)">
										</image>
									</g>
								</mask>
								<g>
									<circle fill="#FDF8F0" cx="216.778" cy="55.2" r="22.925"/>
								</g>
							</g>
						</g>
						<g>
							<g>
								<g>
									<path fill="#686B6B" d="M221.441,35.985c0.438,0,0.792-0.355,0.792-0.792c0-0.437-0.354-0.793-0.792-0.793h-9.261
										c-0.437,0-0.792,0.355-0.792,0.793c0,0.437,0.355,0.792,0.792,0.792H221.441z"/>
								</g>
								<g>
									<path fill="#444038" d="M220.805,34.4c0.438,0,0.792-0.355,0.792-0.793c0-0.437-0.355-0.792-0.792-0.792h-7.989
										c-0.437,0-0.792,0.355-0.792,0.792c0,0.438,0.355,0.793,0.792,0.793H220.805z"/>
								</g>
								<g>
									<path fill="#686B6B" d="M220.17,32.831c0.436,0,0.792-0.355,0.792-0.792c0-0.437-0.356-0.793-0.792-0.793h-6.719
										c-0.437,0-0.792,0.356-0.792,0.792c0,0.437,0.355,0.792,0.792,0.792H220.17z"/>
								</g>
								<polygon fill-rule="evenodd" clip-rule="evenodd" fill="#444038" points="214.753,30.145 213.577,31.246 216.862,31.246 
									220.147,31.246 218.969,30.145 								"/>
								<path fill-rule="evenodd" clip-rule="evenodd" fill="#FFF1CB" d="M221.024,35.985h-8.493c-0.908,0-1.563,0.827-1.563,1.7
									c0,2.372-0.587,4.123-2.164,5.89c-0.965,1.081-2.023,1.953-2.794,3.21c-1.096,1.782-1.364,3.918-1.364,5.973
									c0,6.768,5.246,12.615,12.132,12.615c6.885,0,12.131-5.848,12.131-12.615c0-2.055-0.268-4.191-1.362-5.973
									c-0.772-1.258-1.831-2.129-2.796-3.21c-1.576-1.767-2.163-3.518-2.163-5.89C222.588,36.812,221.932,35.985,221.024,35.985z"
									/>
								<path fill-rule="evenodd" clip-rule="evenodd" fill="#FFFBF1" d="M216.635,63.221c-5.55-3.791-5.842-10.008-5.842-10.008
									s-4.702,0.076-4.419,0.091c0.284,0.015-0.407,3.343,2.448,6.899C211.678,63.76,216.635,63.221,216.635,63.221z"/>
							</g>
							<g>
								<path fill="#FBBA8C" d="M218.71,36.258c0.184,0,0.349,0.127,0.388,0.315c0.023,0.111,0.213,1.113-0.28,1.792
									c-0.233,0.322-0.585,0.517-1.018,0.565c-0.044,0.005-4.456,0.535-4.192,4.152c0.016,0.218-0.147,0.407-0.366,0.424
									c-0.214,0.012-0.407-0.148-0.423-0.367c-0.254-3.496,3.091-4.797,4.895-4.997c0.213-0.023,0.36-0.1,0.463-0.242
									c0.247-0.336,0.188-0.958,0.146-1.168c-0.043-0.214,0.095-0.423,0.309-0.467C218.658,36.26,218.685,36.258,218.71,36.258z"
									/>
								<path fill="#FBBA8C" d="M214.399,36.272c0.027,0,0.053,0.003,0.08,0.008c0.214,0.043,0.353,0.252,0.311,0.465
									c-0.042,0.211-0.094,0.832,0.154,1.167c0.104,0.14,0.251,0.216,0.465,0.238c1.805,0.187,5.16,1.465,4.928,4.963
									c-0.015,0.218-0.2,0.381-0.42,0.369c-0.218-0.014-0.384-0.203-0.369-0.421c0.239-3.619-4.176-4.118-4.221-4.123
									c-0.433-0.045-0.787-0.238-1.022-0.558c-0.497-0.676-0.314-1.679-0.292-1.791C214.05,36.402,214.215,36.272,214.399,36.272z
									"/>
								<path fill="#FBBA8C" d="M217.922,41.454c0.08,0,0.231,0.03,0.353,0.239c0.211,0.364,0.242,1.129-0.054,1.645
									c-0.034,0.058-0.071,0.113-0.111,0.163c0.023,0.021,0.043,0.031,0.06,0.032c0.072,0.005,0.131-0.017,0.182-0.065
									c0.175-0.162,0.223-0.571,0.226-0.701c0.002-0.107,0.09-0.193,0.197-0.193l1.177-0.004c0.109,0,0.198,0.088,0.198,0.197
									s-0.088,0.198-0.197,0.199l-0.996,0.003c-0.029,0.223-0.109,0.579-0.336,0.79c-0.129,0.12-0.293,0.178-0.471,0.17
									c-0.137-0.007-0.248-0.068-0.338-0.163c-0.183,0.11-0.397,0.167-0.642,0.167h0c-0.109,0-0.199-0.088-0.198-0.197
									c-0.001-0.109,0.087-0.199,0.196-0.199h0.001h0c0.17-0.001,0.317-0.038,0.44-0.111c-0.13-0.336-0.165-0.766-0.158-1.054
									C217.466,41.781,217.634,41.455,217.922,41.454z M217.915,43.068c0.025-0.053,0.046-0.109,0.064-0.17
									c0.134-0.446,0.034-0.881-0.051-1.017C217.844,42.055,217.804,42.606,217.915,43.068z"/>
								<path fill="#FBBA8C" d="M215.56,41.462c0.289-0.001,0.458,0.324,0.477,0.914c0.009,0.288-0.024,0.718-0.151,1.054
									c0.123,0.073,0.271,0.109,0.441,0.109h0.001l0,0c0.11-0.001,0.199,0.087,0.199,0.197c0,0.109-0.087,0.198-0.197,0.199h0
									c-0.243,0-0.459-0.055-0.643-0.163c-0.089,0.096-0.201,0.157-0.337,0.165c-0.18,0.009-0.342-0.047-0.473-0.167
									c-0.228-0.209-0.311-0.565-0.342-0.788l-0.995,0.003c-0.109,0-0.199-0.088-0.199-0.197s0.088-0.198,0.198-0.198l1.176-0.004
									c0.107-0.001,0.195,0.084,0.198,0.191c0.004,0.131,0.056,0.54,0.231,0.7c0.051,0.047,0.109,0.069,0.182,0.063
									c0.017,0,0.037-0.012,0.059-0.033c-0.039-0.05-0.077-0.104-0.11-0.162c-0.3-0.514-0.275-1.279-0.066-1.644
									C215.328,41.494,215.48,41.462,215.56,41.462z M215.578,43.077c0.108-0.463,0.064-1.015-0.021-1.187
									c-0.083,0.137-0.18,0.572-0.044,1.018C215.531,42.968,215.552,43.024,215.578,43.077z"/>
								<path fill="#FBBA8C" d="M216.742,41.781c0.385-0.002,0.562,0.603,0.564,1.166c0.002,0.563-0.171,1.169-0.556,1.171
									c-0.385,0.001-0.563-0.604-0.564-1.167C216.184,42.388,216.357,41.782,216.742,41.781z M216.721,42.172h-0.002H216.721z
									 M216.748,43.705c0.062-0.079,0.164-0.339,0.162-0.757c-0.001-0.417-0.104-0.677-0.167-0.755
									c-0.061,0.079-0.163,0.339-0.162,0.756C216.583,43.367,216.687,43.626,216.748,43.705z"/>
							</g>
						</g>
					</g>
				</g>
				<path fill="#F1F2F2" d="M177.852,344.661V29.938h-5.921v16.176h-42.202V29.938h-5.923v314.723h5.923v-16.843h42.202v16.843
					H177.852z M129.729,52.407h42.202v16.657h-42.202V52.407z M129.729,75.358h42.202v16.658h-42.202V75.358z M129.729,98.309
					h42.202v16.658h-42.202V98.309z M129.729,121.26h42.202v16.657h-42.202V121.26z M129.729,144.21h42.202v16.659h-42.202V144.21z
					 M129.729,167.161h42.202v16.659h-42.202V167.161z M129.729,190.113h42.202v16.657h-42.202V190.113z M129.729,213.062h42.202
					v16.66h-42.202V213.062z M129.729,236.013h42.202v16.658h-42.202V236.013z M129.729,258.966h42.202v16.656h-42.202V258.966z
					 M129.729,281.917h42.202v16.657h-42.202V281.917z M129.729,321.524v-16.657h42.202v16.657H129.729z"/>
				<g>
					<path fill="#F6C89A" d="M163.482,52.136c0,0,3.312-1.388,5.544-4.34l-5.723,1.79L163.482,52.136z"/>
					<path fill="#F6C89A" d="M167.607,46.088c0.469-0.264,1.1-0.032,1.409,0.518l0,0c0.31,0.549,0.181,1.209-0.288,1.473
						l-3.892,2.192c-0.469,0.264-1.1,0.033-1.409-0.518l0,0c-0.31-0.55-0.181-1.21,0.288-1.474L167.607,46.088z"/>
					<path fill="#F8CDA5" d="M164.918,41.908c0.267-0.467,0.927-0.593,1.475-0.281l0,0c0.549,0.313,0.777,0.944,0.511,1.412
						l-2.209,3.881c-0.267,0.468-0.927,0.594-1.476,0.282l0,0c-0.548-0.313-0.777-0.945-0.51-1.413L164.918,41.908z"/>
					<path fill="#F8CDA5" d="M166.688,43.418c0.266-0.467,0.927-0.594,1.475-0.281l0,0c0.548,0.313,0.777,0.945,0.511,1.413
						l-2.21,3.881c-0.267,0.468-0.927,0.594-1.477,0.281l0,0c-0.548-0.312-0.776-0.944-0.51-1.412L166.688,43.418z"/>
					<path fill="#F8CDA5" d="M162.778,41.191c0.266-0.467,0.927-0.592,1.475-0.281l0,0c0.549,0.313,0.777,0.945,0.511,1.412
						l-2.21,3.881c-0.266,0.467-0.927,0.593-1.476,0.282l0,0c-0.548-0.313-0.776-0.945-0.511-1.413L162.778,41.191z"/>
					<path fill="#1F2020" d="M115.281,75.205c0,0-12.86-4.72-8.582-22.936c3.87-16.477,24.278-13.301,25.928-9.437
						C134.276,46.696,115.281,75.205,115.281,75.205z"/>
					<path fill="#F8CDA5" d="M160.635,40.335c0.266-0.467,0.927-0.594,1.475-0.281l0,0c0.549,0.312,0.777,0.944,0.511,1.412
						l-2.21,3.881c-0.267,0.468-0.927,0.594-1.476,0.281l0,0c-0.548-0.312-0.777-0.944-0.51-1.412L160.635,40.335z"/>
					<path fill="#F6C89A" d="M158.384,44.288c1.645-2.889,4.258-3.231,6.512-1.948c2.252,1.283,3.292,3.706,1.647,6.595
						c-1.644,2.888-5.352,5.149-7.604,3.866C156.686,51.518,156.74,47.176,158.384,44.288z"/>
					<path fill="#434D72" d="M162.949,52.284c-1.662-0.758-7.141-3.256-7.141-3.256l-11.817,20.694l-12.01,11.858
						c-1.784,0.351-3.654,0.252-5.493,0.077c-0.645-0.062-6.82-0.603-6.825-0.508c0,0.002-1.635,42.361-1.635,42.361l20.345,1.607
						c0,0,3.077-20.896,1.891-32.989c-0.047-0.484,9.916-14.065,10.401-14.771C151.924,75.522,162.949,52.284,162.949,52.284z"/>
					<g>
						<path fill="#5C2517" d="M130.401,173.95l0.828,9.542l20.25-2.084c0,0,1.563-2.228-1.294-5.188
							c-2.858-2.961-8.445,0.129-12.632-5.326L130.401,173.95z"/>
						<path fill="#3D1911" d="M131.018,181.074l0.211,2.418l20.25-2.084c0,0,0.688-1.02,0.278-2.584
							C144.852,179.646,137.942,180.423,131.018,181.074z"/>
					</g>
					<g>
						<path fill="#5C2517" d="M112.154,151.604l-9.035,3.183l7.074,19.088c0,0,2.547,0.959,4.7-2.548s-2.233-8.146,2.004-13.563
							L112.154,151.604z"/>
						<path fill="#3D1911" d="M105.41,153.978l-2.29,0.809l7.073,19.088c0,0,1.159,0.412,2.571-0.375
							C110.246,167.019,107.768,160.521,105.41,153.978z"/>
					</g>
					<path fill="#222B4A" d="M134.9,115.934c-0.362,0.038,5.747,27.066,5.747,27.066c-2.663,2.167-23.582,17.779-23.582,17.779
						c-0.003-0.006-5.667-10.31-5.667-10.31l16.188-11.127l-6.582-22.016C121.003,117.326,134.888,115.935,134.9,115.934z"/>
					<polygon fill="#2D3756" points="107.915,117.175 125.507,149.584 129.58,173.994 140.416,173.616 136.988,144.949 
						122.943,110.303 					"/>
					<g>
						<path fill="#3C515A" d="M126.907,78.385c-1.526,0.205-4.377,1.157-4.969,5.381c0,0,3.576-2.245,5.589,0.035
							c-0.277-0.487-0.448-1.045-0.471-1.645L126.907,78.385z"/>
					</g>
					<path fill="#D6D6D6" d="M133.476,81.162c0,0,6.057,16.063,0.688,34.672c0,0-5.286,2.781-18.008,1.124l-3.049-33.824
						L133.476,81.162z"/>
					<path fill="#434D72" d="M117.776,80.049c-2.424,0.557-4.648,0.385-6.069,0.155c-0.049-0.012-0.096-0.028-0.146-0.04
						l-4.141,13.792c-0.16,2.338-2.984,30.947-2.993,30.949l15.387,0.021C119.815,124.925,124.18,90.58,117.776,80.049z"/>
					<path fill="#222B4A" d="M118.486,81.309l-3.735,5.681l3.431,11.051l-1.785,3.12l4.218,16.267c0,0,0.042-0.094,0.099-0.229
						C121.509,108.673,122.682,89.725,118.486,81.309z"/>
					<path fill="#434D72" d="M135.094,114.998c2.148-6.217,5.648-19.504,1.567-31.505l-1.396-2.951l-2.848,0.371l-0.145-0.155
						c0.012,0.058,0.02,0.113,0.032,0.171l-0.352,0.045l0.662,1.797c0,0,0.086,0.357,0.224,1.001
						c2.141,11.722,2.017,22.25,1.828,31.151L135.094,114.998z"/>
					<path fill="#222B4A" d="M132.272,80.757l4.646,4.964l-1.504,11.473l2.289,2.771l-2.764,12.896c0,0-0.718,3.215-0.797,3.091
						C134.353,106.061,135.154,94.233,132.272,80.757z"/>
					<g>
						<path fill="#F7BC91" d="M124.808,85.879L124.808,85.879c-2.001,0.079-3.687-1.479-3.765-3.479l-0.363-9.194l7.244-0.285
							l0.362,9.193C128.366,84.116,126.808,85.801,124.808,85.879z"/>
						<path fill="#D8996F" d="M120.991,81.086c1.17,0.382,2.394,0.567,3.648,0.518c1.255-0.049,2.459-0.33,3.596-0.804l-0.253-6.394
							l-7.243,0.286L120.991,81.086z"/>
					</g>
					<polygon fill="#B42226" points="125.166,88.074 126.212,86.268 126.39,85.806 123.244,85.933 123.457,86.379 124.391,87.878 
											"/>
					<g>
						<path fill="#B5B5B6" d="M128.27,82.756c0.937-0.596,1.755-0.973,1.755-0.973c-0.862,4.522-4.498,4.134-4.498,4.134
							c0.002-0.046,0.008-0.092,0.014-0.139C126.979,85.429,128.066,84.227,128.27,82.756z"/>
						<path fill="#B5B5B6" d="M121.124,83.045c-0.983-0.518-1.829-0.827-1.829-0.827c1.226,4.437,4.818,3.756,4.818,3.756
							c-0.006-0.046-0.016-0.092-0.025-0.138C122.627,85.606,121.445,84.495,121.124,83.045z"/>
					</g>
					<g>
						<path fill="#FFFFFF" d="M120.899,78.629c-1.527,0.205-4.377,1.157-4.97,5.38c0,0,3.577-2.245,5.589,0.035
							c-0.276-0.487-0.447-1.045-0.47-1.645L120.899,78.629z"/>
						<path fill="#FFFFFF" d="M128.135,78.335c1.539,0.081,4.456,0.798,5.389,4.96c0,0-3.747-1.948-5.568,0.488
							c0.237-0.509,0.362-1.079,0.336-1.678L128.135,78.335z"/>
					</g>
					<path fill="#B42226" d="M124.294,87.45c0,0,3.605,11.45-15.772,18.184l-2.359,6.333l7.918-2.394c0,0,12.233-9.36,11.101-21.597
						L124.294,87.45z"/>
					<g>
						<g>
							<g>
								<path fill="#1A1A1A" d="M45.891,108.303l-6.918,5.845c-1.613,1.363-1.816,3.775-0.454,5.388l17.84,21.116
									c1.363,1.613,3.775,1.815,5.388,0.452l6.918-5.845l-16.083-9.51L45.891,108.303z"/>
							</g>
							<path fill="#1A1A1A" d="M75.402,124.563l-17.839-21.116c-1.363-1.613-3.775-1.815-5.389-0.453l-5.517,4.661l6.69,17.446
								l16.084,9.509l5.517-4.66C76.562,128.588,76.765,126.176,75.402,124.563z"/>
						</g>
						<path fill="#1A1A1A" d="M62.975,110.631l2.464-2.082c0.465-0.392,1.16-0.333,1.553,0.13l4.825,5.712
							c0.393,0.464,0.334,1.161-0.13,1.553l-2.463,2.082l1.385,1.64l2.463-2.082c1.368-1.156,1.541-3.209,0.385-4.578l-4.826-5.712
							c-1.155-1.368-3.209-1.541-4.578-0.385l-2.462,2.082L62.975,110.631z"/>
					</g>
					<path fill="#434D72" d="M112.219,80.189l-16.956,3.012l-22.117,20.68l6.59,5.367l16.405-16.177l13.444-1.521
						C109.586,91.551,118.001,87.381,112.219,80.189"/>
					<g>
						<path fill="#F6C89A" d="M70.031,104.382c-2.651,2.006-2.651,4.642-1.086,6.709c1.564,2.068,4.101,2.785,6.751,0.779
							c2.651-2.006,4.413-5.974,2.848-8.042C76.979,101.761,72.681,102.377,70.031,104.382z"/>
						<path fill="#F6C89A" d="M78.474,108.42c0,0-0.947,3.464-3.584,6.06l1.032-5.907L78.474,108.42z"/>
						<path fill="#F6C89A" d="M73.617,115.593c-0.09,0.531,0.343,1.046,0.964,1.151l0,0c0.623,0.105,0.662-0.335,0.752-0.866
							l0.744-4.404c0.089-0.531-0.342-1.047-0.965-1.152l0,0c-0.623-0.104-1.199,0.241-1.29,0.771L73.617,115.593z"/>
						<path fill="#F6C89A" d="M68.518,111.169c-0.429,0.324-0.468,0.996-0.087,1.499l0,0c0.38,0.503,1.037,0.647,1.465,0.323
							l3.563-2.695c0.429-0.324,0.469-0.996,0.088-1.499l0,0c-0.38-0.503-1.038-0.648-1.467-0.323L68.518,111.169z"/>
						<path fill="#F6C89A" d="M70.245,112.728c-0.429,0.325-0.468,0.996-0.088,1.5l0,0c0.381,0.503,1.039,0.648,1.467,0.324
							l3.562-2.695c0.43-0.325,0.468-0.997,0.087-1.5l0,0c-0.38-0.503-1.037-0.648-1.465-0.323L70.245,112.728z"/>
						<path fill="#F6C89A" d="M67.53,109.14c-0.428,0.325-0.467,0.997-0.087,1.5l0,0c0.381,0.503,1.038,0.647,1.467,0.323
							l3.562-2.695c0.429-0.324,0.469-0.996,0.087-1.499l0,0c-0.381-0.503-1.037-0.648-1.467-0.324L67.53,109.14z"/>
						<path fill="#F6C89A" d="M66.404,107.126c-0.429,0.325-0.468,0.996-0.087,1.499l0,0c0.38,0.504,1.037,0.648,1.466,0.323
							l3.561-2.695c0.429-0.325,0.468-0.995,0.088-1.499l0,0c-0.38-0.503-1.038-0.648-1.466-0.323L66.404,107.126z"/>
					</g>
					<g>
						<path fill="#F7BC91" d="M110.062,54.979c-3.554,0.65-4.293,3.499-3.823,7.125c0.464,3.58,2.902,6.245,5.548,6.175
							L110.062,54.979z"/>
						<path fill="#FDCFAF" d="M110.353,57.219c-0.028-0.194-1.673,0.78-1.84,0.914c-0.715,0.571-1.112,1.474-1.182,2.373
							c-0.146,1.887,0.969,3.85,2.527,4.871c0.485,0.317,1.031,0.555,1.604,0.652c0.003,0,0.034,0.003,0.035,0.009
							c-0.001-0.003-0.688-5.303-0.997-7.683C110.413,57.675,110.356,57.233,110.353,57.219z"/>
						<g>
							<path fill="#EAAE86" d="M110.458,58.032c-0.14-0.004-1.118,0.472-1.204,0.521c-1.027,0.589-1.725,1.57-1.818,2.765
								c-0.014,0.174-0.013,0.349-0.005,0.524c-0.095-0.441-0.133-0.89-0.099-1.336c0.053-0.689,0.318-1.35,0.754-1.886
								c0.471-0.581,1.084-0.988,1.768-1.257c0.064-0.024,0.5-0.143,0.5-0.143"/>
						</g>
					</g>
					<g>
						<path fill="#F7BC91" d="M137.057,54.076c3.609,0.171,4.721,2.897,4.737,6.553c0.016,3.61-2.044,6.575-4.677,6.858
							L137.057,54.076z"/>
						<path fill="#FDCFAF" d="M137.066,56.336c0.002-0.196,1.762,0.55,1.945,0.66c0.785,0.472,1.298,1.313,1.487,2.195
							c0.396,1.852-0.448,3.945-1.857,5.164c-0.438,0.379-0.947,0.687-1.503,0.859c-0.003,0.001-0.033,0.007-0.033,0.013
							c0-0.003-0.024-5.347-0.035-7.747C137.068,56.795,137.066,56.351,137.066,56.336z"/>
						<g>
							<path fill="#EAAE86" d="M137.071,57.155c0.138-0.023,1.17,0.319,1.262,0.356c1.097,0.448,1.92,1.327,2.17,2.499
								c0.037,0.171,0.059,0.344,0.075,0.518c0.036-0.449,0.014-0.9-0.08-1.337c-0.144-0.676-0.495-1.295-0.999-1.769
								c-0.544-0.512-1.205-0.834-1.919-1.01c-0.066-0.017-0.514-0.076-0.514-0.076"/>
						</g>
					</g>
					<path fill="#F7BC91" d="M110.441,65.62c0.052,7.886,6.565,14.233,14.547,14.178c7.982-0.056,14.411-6.493,14.359-14.379
						c-0.051-7.886-3.466-22.263-14.6-22.185C113.037,43.314,110.389,57.734,110.441,65.62z"/>
					<path fill="#EAAE86" d="M137.961,65.749c-0.106-4.144-0.388-8.125-1.556-10.751l1.1,2.444c1.293,2.205,1.821,4.936,1.842,7.977
						c0.054,7.886-6.542,14.324-14.731,14.379C132.039,79.747,138.16,73.455,137.961,65.749z"/>
					<path fill="#EAAE86" d="M112.452,57.16c-0.627,1.892-0.671,6.393-0.656,8.771c0.051,7.709,5.957,13.917,13.192,13.867
						c-7.982,0.055-14.495-6.292-14.547-14.178c-0.015-2.239,0.196-4.312,0.769-6.136L112.452,57.16z"/>
					<path fill="#1F2020" d="M111.265,54.143c0.816-6.213,2.174-11.804,8.104-13.431V40.66c1.224-0.308,2.588-0.499,4.114-0.56
						c0.021,0,0.042-0.002,0.062-0.002c0.263-0.009,0.529-0.017,0.802-0.019c0.009,0,0.018,0.001,0.027,0
						c0.008,0,0.017,0,0.026-0.001c0.272-0.001,0.539,0.002,0.801,0.01c0.021,0.001,0.042,0.001,0.063,0.002
						c1.525,0.043,2.893,0.219,4.121,0.513v0.052c5.948,1.561,8.685,6.183,9.57,12.387c0.278,1.032,1.143,4.767,0.577,9.455
						c-0.039,0.318-0.485,0.359-0.578,0.052l-1.555-5.392c-0.542-0.052-3.529-9.496-3.529-9.496s-0.12,0.062-0.338,0.167
						c-1.882,2.952-6.731,7.671-18.314,6.947c0,0,4.163-0.103,11.661-4.223c-2.878,1.417-9.38,3.122-13.004,2.156l-2.499,10.939
						c-0.09,0.308-0.538,0.272-0.579-0.046C110.175,58.922,110.999,55.177,111.265,54.143z"/>
					<path fill="#1F2020" d="M127.731,75.225l-0.004-0.014c0,0,1.859,2.439,3.277,1.37c0,0-0.541,1.994-2.464,1.745l0.002,0.009
						c-1.558,1.159-3.004-0.32-3.004-0.32C127.283,78.253,127.724,75.279,127.731,75.225z"/>
					<g>
						
							<ellipse transform="matrix(0.999 -0.0441 0.0441 0.999 -2.5689 5.3791)" fill="#D8996F" cx="120.612" cy="60.905" rx="2.469" ry="2.735"/>
						
							<ellipse transform="matrix(0.999 -0.0443 0.0443 0.999 -2.5517 5.4015)" fill="#010101" cx="120.583" cy="60.267" rx="2.469" ry="2.736"/>
						<circle fill="#FFFFFF" cx="121.181" cy="59.499" r="0.99"/>
						
							<ellipse transform="matrix(0.999 -0.0441 0.0441 0.999 -2.534 5.9437)" fill="#D8996F" cx="133.424" cy="60.394" rx="2.469" ry="2.735"/>
						
							<ellipse transform="matrix(0.999 -0.0443 0.0443 0.999 -2.5165 5.9686)" fill="#010101" cx="133.395" cy="59.756" rx="2.469" ry="2.735"/>
						<circle fill="#FFFFFF" cx="133.993" cy="58.989" r="0.99"/>
						<path fill="#F58670" d="M127.156,60.827c0,0-0.378,3.318,1.16,3.052c2.977-0.516,2.954,5.972-1.527,3.533
							c-1.689-0.92-1.104-6.548-1.104-6.548L127.156,60.827z"/>
						<path fill="#422314" d="M116.189,56.967c0.002-0.005,0.066-0.119,0.212-0.292l0.052-0.058
							c1.259-1.423,3.301-1.865,5.122-1.623c0.158,0.021,0.309,0.058,0.442,0.089c0.044,0.011,0.086,0.021,0.132,0.031l0.021,0.006
							c0.167,0.041,0.322,0.08,0.455,0.134c0.118,0.043,0.22,0.085,0.308,0.122l0.043,0.018c0.193,0.081,0.301,0.137,0.305,0.139
							c0,0,0.454,0.235,0.461,0.239c-0.134-0.07-1.409,0.073-1.768,0.093c-0.696,0.039-1.39,0.124-2.075,0.252
							c-1.372,0.257-2.709,0.69-3.97,1.289C116.023,57.355,116.132,57.07,116.189,56.967z"/>
						<path fill="#422314" d="M137.497,56.275c-0.003-0.005-0.071-0.117-0.222-0.285l-0.053-0.058
							c-1.304-1.382-3.358-1.761-5.17-1.462c-0.158,0.026-0.308,0.067-0.439,0.103c-0.043,0.012-0.086,0.023-0.131,0.035
							l-0.021,0.006c-0.165,0.046-0.319,0.09-0.45,0.149c-0.116,0.047-0.217,0.093-0.303,0.131l-0.043,0.02
							c-0.19,0.087-0.296,0.146-0.301,0.148c0,0-0.445,0.25-0.452,0.254c0.131-0.073,1.409,0.029,1.769,0.038
							c0.698,0.018,1.394,0.081,2.083,0.188c1.378,0.213,2.73,0.604,4.007,1.164C137.674,56.659,137.557,56.376,137.497,56.275z"/>
					</g>
					<g>
						<g>
							<path fill="#1F2020" d="M133.733,75.111c0.475-0.465,1.008-0.882,1.604-1.23c-0.833-2.12-1.688-3.545-2.409-3.958
								c-0.653-0.375-4.623-0.955-5.962-0.693l-0.032,0.006l-0.033,0.001c-1.375,0.029-5.118,1.449-5.676,1.954
								c-0.825,0.749-1.496,3.313-1.804,6.884c0.635,0.343,1.303,0.644,1.996,0.893c0.051-3.29,0.449-5.287,1.186-5.938
								c0.613-0.543,2.13-1.109,4.511-1.684l0.048-0.012l0.049,0.002c2.448,0.05,4.052,0.278,4.767,0.677
								C132.586,72.35,133.173,73.398,133.733,75.111z"/>
						</g>
					</g>
					<g>
						<path fill="#DD6C5E" d="M127.575,75.307c2.133-0.29,3.531-1.798,3.552-1.822c0.14-0.155,0.128-0.394-0.026-0.535
							c-0.155-0.141-0.395-0.127-0.535,0.025c-0.121,0.133-2.989,3.203-6.747,0.559c-0.17-0.121-0.407-0.079-0.527,0.092
							c-0.121,0.171-0.08,0.407,0.092,0.528C124.937,75.248,126.373,75.471,127.575,75.307z"/>
					</g>
					<path fill="#1F2020" d="M126.408,77.914c-0.076,0.016-0.15,0.031-0.225,0.046c-0.089,0.017-0.178,0.031-0.266,0.046
						c-0.096,0.014-0.189,0.026-0.282,0.038c-0.066,0.008-0.133,0.016-0.197,0.022c-0.047,0.004-0.091,0.003-0.137,0.007v0.004
						c-0.091,0.004-0.185,0.013-0.273,0.013c-0.013,0-0.025,0-0.037,0c-0.006,0-0.012,0.001-0.018,0.001
						c-0.005,0-0.01,0-0.015-0.001c-0.006,0.001-0.011,0.001-0.016,0.001c-0.007,0-0.013-0.001-0.019-0.001
						c-0.012,0.001-0.025,0.001-0.037,0.001c-0.087,0.001-0.183-0.006-0.273-0.01v-0.003c-0.046-0.003-0.09-0.002-0.137-0.006
						c-0.065-0.004-0.133-0.013-0.198-0.02c-0.094-0.01-0.187-0.021-0.284-0.035c-0.087-0.012-0.176-0.027-0.266-0.042
						c-0.073-0.013-0.15-0.027-0.225-0.043c-12.65-2.72-11.819-15.151-11.595-17.026h-1.341c0,0-0.563,3.275,0.021,6.678
						c0.022,0.155,0.055,0.308,0.083,0.462c0.005,0.026,0.01,0.053,0.017,0.08c1.245,6.68,7.178,11.723,14.293,11.674
						c7.736-0.055,14.012-6.103,14.346-13.653C137.25,71.877,132.959,76.503,126.408,77.914z"/>
				</g>
				<g>
					<path fill="#422314" d="M68.16,213.275c0,0-12.4,9.723,2.277,26.43L68.16,213.275z"/>
					<g>
						<path fill="#F9A464" d="M91.338,242.019v-0.006C91.38,242.017,91.375,242.018,91.338,242.019z"/>
						<path fill="#F9A464" d="M78.784,245.923l0.002,0.004C78.756,245.948,78.752,245.949,78.784,245.923z"/>
					</g>
					<path fill="#F9A464" d="M85.049,243.977v-0.005C85.091,243.976,85.086,243.976,85.049,243.977z"/>
					<path fill="#F9A464" d="M85.074,243.964l0.003,0.004C85.046,243.99,85.042,243.99,85.074,243.964z"/>
					<path fill="#F9A464" d="M91.338,242.019v-0.006C91.38,242.017,91.375,242.018,91.338,242.019z"/>
					<path fill="#F9A464" d="M78.784,245.923l0.002,0.004C78.756,245.948,78.752,245.949,78.784,245.923z"/>
					<g>
						<path fill="#F7BC91" d="M87.056,250.34L87.056,250.34c2.001-0.626,3.117-2.756,2.49-4.757l-2.875-9.197l-7.247,2.266
							l2.876,9.197C82.925,249.851,85.054,250.966,87.056,250.34z"/>
						<path fill="#D8996F" d="M89.135,244.269c-1.021,0.788-2.161,1.401-3.417,1.793c-1.255,0.394-2.542,0.54-3.831,0.473l-2-6.396
							l7.248-2.266L89.135,244.269z"/>
					</g>
					<g>
						<path fill="#F7BC91" d="M65.467,224.859c-3.256,1.207-3.482,4.027-2.434,7.381c1.035,3.313,3.787,5.43,6.28,4.923
							L65.467,224.859z"/>
						<path fill="#FDCFAF" d="M66.115,226.933c-0.06-0.18-1.454,1.016-1.59,1.17c-0.582,0.66-0.808,1.58-0.723,2.443
							c0.176,1.811,1.558,3.482,3.202,4.189c0.513,0.221,1.068,0.354,1.627,0.351c0.003,0,0.032-0.003,0.034,0.002
							c-0.002-0.003-1.534-4.905-2.222-7.106C66.247,227.355,66.12,226.945,66.115,226.933z"/>
						<g>
							<path fill="#EAAE86" d="M66.349,227.683c-0.133,0.02-0.979,0.633-1.053,0.694c-0.875,0.729-1.373,1.774-1.26,2.921
								c0.016,0.166,0.045,0.332,0.082,0.496c-0.164-0.4-0.274-0.82-0.316-1.248c-0.065-0.662,0.075-1.33,0.399-1.91
								c0.35-0.629,0.862-1.116,1.465-1.485c0.055-0.034,0.449-0.218,0.449-0.218"/>
						</g>
					</g>
					<g>
						<path fill="#F7BC91" d="M67.881,235.052c2.261,7.234,10.185,11.195,17.698,8.846c7.512-2.348,11.769-10.117,9.507-17.352
							c-2.262-7.234-9.517-19.467-19.994-16.19C64.07,213.802,65.619,227.819,67.881,235.052z"/>
						<path fill="#EAAE86" d="M93.66,236.324c1.163-2.933,1.043-6.087,0.252-9.086c-1.006-3.814-2.941-7.373-5.57-10.312
							c-0.466-0.521-4.296-4.929-4.917-4.339c0,0,0.459-0.432,1.699-0.654c5.044,3.361,8.519,10.001,9.961,14.614
							c0.799,2.551,0.771,5.165,0.089,7.589c-0.226,0.803-0.525,1.583-0.892,2.334c-0.021,0.044-0.042,0.088-0.064,0.132
							c-0.35,0.698-0.761,1.367-1.224,2.003c-0.079,0.108-0.159,0.215-0.242,0.322c-0.135,0.176-0.271,0.35-0.416,0.52
							c-0.204,0.238-0.414,0.471-0.634,0.695c-0.124,0.128-0.253,0.25-0.382,0.374c-0.173,0.165-0.351,0.327-0.532,0.483
							c-0.11,0.096-0.219,0.193-0.333,0.287c-0.284,0.23-0.579,0.449-0.882,0.66c-0.105,0.072-0.213,0.143-0.321,0.213
							c-0.285,0.186-0.577,0.365-0.876,0.533c-0.061,0.033-0.119,0.07-0.179,0.102c-0.358,0.195-0.732,0.371-1.111,0.537
							c-0.097,0.041-0.192,0.082-0.288,0.12c-0.396,0.164-0.8,0.316-1.217,0.446C89.261,242.748,92.241,239.901,93.66,236.324z"/>
						<path fill="#EAAE86" d="M67.403,226.697c-0.061,1.92,1.161,6.07,1.842,8.252c2.211,7.072,9.523,11.078,16.333,8.949
							c-7.513,2.35-15.437-1.611-17.698-8.846c-0.643-2.053-1.025-4.019-0.997-5.861L67.403,226.697z"/>
					</g>
					<path fill="#422314" d="M70.109,211.861l-0.014-0.045c1.046-0.6,2.254-1.143,3.639-1.621c0.019-0.008,0.038-0.015,0.057-0.021
						c0.109-0.037,0.224-0.072,0.335-0.109l0-0.002c0.107-0.035,0.21-0.07,0.32-0.105c0.008-0.002,0.016-0.004,0.024-0.006
						c0.007-0.003,0.015-0.006,0.023-0.008c0.005-0.002,0.01-0.004,0.015-0.006c0.006,0,0.011-0.002,0.015-0.004
						c0.008-0.002,0.016-0.005,0.024-0.008c0.008-0.002,0.017-0.006,0.023-0.008c0.109-0.033,0.215-0.063,0.323-0.095l0.001,0.002
						c0.112-0.033,0.227-0.068,0.338-0.101c0.02-0.005,0.04-0.01,0.059-0.016c1.413-0.393,2.714-0.631,3.917-0.729l0.013,0.043
						c3.237-0.203,10.286,2.336,11.606,8.789c-1.324-1.874-4.055-4.537-4.055-4.537s-17.163,2.964-18.046,6.344
						c-0.884,3.379,0.586,13.092,0.586,13.092c-0.003,0.283-3.419-2.765-4.692-7.761C63.788,219.529,65.074,214.887,70.109,211.861z
						"/>
					<g>
						<path fill="#422314" d="M75.922,214.397l-8.853,5.167c0.003-0.049,0.005-0.097,0.008-0.144
							c0.108-1.526-0.832-3.308-0.323-4.751c1.899-5.385,1.247-8.04,0.747-8.225c0.854,0.236,1.696,0.622,2.39,1.182
							c0.47,0.381,1.407,1.311,1.311,2c0,0,0.922-1.28-0.551-3.324c0,0,4.908,2.096,5.223,4.877
							C75.955,211.906,75.994,213.05,75.922,214.397z"/>
						<path fill="#422314" d="M83.456,209.929l-7.64,4.459c-0.771-0.668-1.383-1.277-1.772-1.723
							c-1.844-2.106-0.086-7.146-0.086-7.146c0.518,2.466,2.084,2.647,2.084,2.647c-0.575-0.395-0.631-1.712-0.594-2.316
							c0.053-0.889,0.334-1.771,0.735-2.562c-0.201,0.494,0.779,3.806,6.039,6.029C82.649,209.5,83.058,209.707,83.456,209.929z"/>
					</g>
					<path fill="#422314" d="M66.785,219.088c0.016,0.056,0.037,0.112,0.065,0.165c0.143,0.275,0.45,0.42,0.746,0.51
						c0.97,0.291,2.012,0.18,3.014,0.035c4.738-0.681,9.972-1.744,14.042-4.389c1.533-0.994,3.566-3.333,0.842-4.13
						c-2.471-0.722-5.515,0.046-7.885,0.784c-2.267,0.707-4.449,1.751-6.495,2.948C70.237,215.527,66.376,217.607,66.785,219.088z"
						/>
					<g>
						<path fill="#1C1C1C" d="M72.445,225.949c0-0.006,0.026-0.109,0.102-0.281l0.028-0.059c0.679-1.42,2.205-2.238,3.71-2.459
							c0.131-0.02,0.259-0.025,0.373-0.029c0.037-0.002,0.074-0.004,0.112-0.006l0.018-0.002c0.142-0.004,0.275-0.009,0.394,0.004
							c0.103,0.008,0.194,0.02,0.272,0.027l0.039,0.006c0.172,0.02,0.271,0.039,0.274,0.039c0,0,0.415,0.086,0.422,0.086
							c-0.123-0.024-1.105,0.38-1.387,0.479c-0.546,0.189-1.079,0.414-1.595,0.673c-1.034,0.517-2.001,1.167-2.868,1.931
							C72.401,226.294,72.423,226.042,72.445,225.949z"/>
					</g>
					<g>
						<g>
							
								<ellipse transform="matrix(0.9048 -0.4258 0.4258 0.9048 -90.126 55.2018)" fill="#D8996F" cx="78.397" cy="229.169" rx="2.197" ry="2.435"/>
							
								<ellipse transform="matrix(0.9047 -0.426 0.426 0.9047 -89.9669 55.085)" fill="#010101" cx="78.154" cy="228.655" rx="2.198" ry="2.435"/>
							<circle fill="#FFFFFF" cx="78.381" cy="227.82" r="0.882"/>
						</g>
						<g>
							
								<ellipse transform="matrix(0.9048 -0.4258 0.4258 0.9048 -87.1089 58.9662)" fill="#D8996F" cx="88.354" cy="224.347" rx="2.197" ry="2.435"/>
							
								<ellipse transform="matrix(0.9047 -0.4261 0.4261 0.9047 -86.9792 58.8845)" fill="#010101" cx="88.112" cy="223.833" rx="2.198" ry="2.434"/>
							<circle fill="#FFFFFF" cx="88.339" cy="222.997" r="0.882"/>
						</g>
						<path fill="#F58670" d="M83.21,225.335c0,0,0.828,2.855,2,2.108c2.269-1.444,4.476,3.892-0.042,3.426
							c-1.704-0.175-3.155-4.999-3.155-4.999L83.21,225.335z"/>
						<g>
							<path fill="#1C1C1C" d="M88.36,219.058c-0.003-0.002-0.101-0.049-0.282-0.099l-0.062-0.015
								c-1.529-0.375-3.129,0.285-4.255,1.309c-0.097,0.09-0.184,0.186-0.259,0.27c-0.025,0.027-0.049,0.055-0.075,0.084
								l-0.012,0.014c-0.094,0.105-0.182,0.206-0.247,0.306c-0.06,0.085-0.108,0.162-0.151,0.228l-0.021,0.033
								c-0.094,0.146-0.142,0.235-0.143,0.238c0,0-0.198,0.375-0.201,0.381c0.059-0.111,0.994-0.615,1.248-0.771
								c0.493-0.302,1.006-0.571,1.533-0.807c1.055-0.472,2.17-0.807,3.311-0.993C88.656,219.246,88.447,219.102,88.36,219.058z"/>
						</g>
						<g>
							<path fill="#992220" d="M88.776,232.71c0,0-4.41,2.753-7.799,0.916c0,0,0.233,5.941,5.594,4.508
								C89.958,237.23,88.776,232.71,88.776,232.71z"/>
							<path fill="#F15737" d="M88.506,236.628c-0.354,0.673-0.95,1.242-1.935,1.506c-1.216,0.326-2.167,0.27-2.913-0.008
								c-0.217-0.087-0.422-0.189-0.616-0.307c-0.005-0.002-0.009-0.005-0.014-0.008c-0.002-0.001-0.004-0.002-0.006-0.004
								c-0.617-0.398-1.048-0.971-1.351-1.563C84.219,234.308,87.206,235.739,88.506,236.628z"/>
							<path fill="#FFFFFF" d="M88.776,232.71L88.776,232.71c0,0,0.01,0.039,0.025,0.109c-0.421,0.286-0.854,1.658-2.02,2.09
								c-0.738,0.273-1.535,0.363-2.318,0.319c-0.487-0.026-0.982-0.042-1.453-0.183c-0.358-0.109-0.82-0.677-1.098-1.031
								C85.124,234.99,88.775,232.71,88.776,232.71z"/>
							<g>
								<path fill="#DD6C5E" d="M86.644,238.404c-1.603,0.428-2.934,0.264-3.955-0.488c-1.854-1.366-1.986-4.159-1.99-4.277
									c-0.003-0.1,0.047-0.195,0.131-0.248c0.085-0.053,0.192-0.056,0.28-0.008c3.205,1.736,7.476-0.881,7.519-0.908
									c0.076-0.047,0.168-0.055,0.25-0.022c0.083,0.032,0.144,0.103,0.167,0.188c0.012,0.046,1.091,4.324-1.884,5.586
									C87.001,238.294,86.829,238.355,86.644,238.404z M81.306,234.093c0.119,0.818,0.504,2.484,1.716,3.375
									c0.878,0.646,2.048,0.779,3.478,0.396c2.579-0.689,2.276-3.672,2.084-4.722C87.519,233.726,84.188,235.312,81.306,234.093z"
									/>
							</g>
						</g>
					</g>
					<path fill="#2D3756" d="M98.296,245.083l9.967,31.641l-15.291,7.421c0,0-10.048-30.9-8.885-41.44L98.296,245.083z"/>
					<g>
						<g>
							<path fill="#5C2517" d="M102.425,322.911l-0.209,8.81l18.729,0.143c0,0,1.656-1.879-0.659-4.875
								c-2.313-2.996-7.736-0.736-11.012-6.148L102.425,322.911z"/>
							<path fill="#3D1911" d="M102.269,329.486l-0.052,2.234l18.729,0.143c0,0,0.733-0.863,0.517-2.335
								C115.065,329.581,108.667,329.593,102.269,329.486z"/>
						</g>
						<polygon fill="#222B4A" points="88.04,280.349 100.02,301.251 101.625,322.976 111.043,322.332 111.043,295.573 
							101.751,271.8 						"/>
						<path fill="#D6D6D6" d="M94.807,243.976c0,0,7.381,20.922,7.717,27.411c0.048,0.952-6.518,3.66-7.222,3.979
							c-3.404,1.538-13.126,6.32-16,2.419c-1.2-1.628-0.528-4.402-0.602-6.363c-0.082-2.206-0.18-4.41-0.291-6.615
							c-0.093-1.868-0.984-19.28-1.223-19.274C77.188,245.531,94.807,243.976,94.807,243.976z"/>
					</g>
					<path fill="#2D3756" d="M77.876,246.103c0.132-0.287,0.297-0.551,0.49-0.791c0.016-0.02,0.037-0.034,0.052-0.053l14.919,2.916
						l0.767,2.745c-3.85,1.995-8.033,4.165-8.033,4.165c-2.194,0.498-5.105-1.831-6.866-3.395
						C77.749,250.398,77.015,247.983,77.876,246.103z"/>
					<g>
						<g>
							<path fill="#512016" d="M68.26,317.742l-3.314,8.166l17.466,6.764c0,0,2.213-1.172,1.109-4.793
								c-1.104-3.622-6.974-3.428-8.122-9.648L68.26,317.742z"/>
							<path fill="#28110E" d="M65.786,323.836l-0.839,2.071l17.465,6.764c0,0,0.991-0.549,1.309-2.002
								C77.72,328.455,71.731,326.201,65.786,323.836z"/>
						</g>
						<g>
							<polygon fill="#2D3756" points="76.694,321.447 67.568,317.742 85.232,268.656 99.468,274.435 							"/>
						</g>
					</g>
					<path fill="#434D72" d="M93.337,247.792l9.137,32.71l-24.966,4.957c0,0-2.672-30.511,0.145-40.732L93.337,247.792z"/>
					<path fill="#2D3756" d="M78.349,247.13c0.132-0.287,0.297-0.549,0.49-0.79c0.015-0.02,0.036-0.034,0.051-0.053l14.918,2.916
						l0.768,2.745c-3.85,1.995-8.034,4.166-8.034,4.166c-2.193,0.498-5.105-1.832-6.865-3.396
						C78.222,251.425,77.486,249.011,78.349,247.13z"/>
					<g>
						<path fill="#D9B087" d="M123.854,213.333c0.162-0.472-0.155-1.006-0.707-1.195l0,0c-0.551-0.189-1.129,0.038-1.291,0.51
							l-1.34,3.903c-0.161,0.47,0.155,1.006,0.707,1.195l0,0c0.552,0.188,1.131-0.038,1.292-0.51L123.854,213.333z"/>
						<path fill="#F6C89A" d="M127.036,221.414c2.351-1.979,2.223-4.412,0.679-6.245c-1.544-1.833-3.92-2.371-6.27-0.392
							c-2.35,1.979-3.783,5.727-2.24,7.559C120.75,224.167,124.687,223.392,127.036,221.414z"/>
						<path fill="#F6C89A" d="M128.104,215.077c0.38-0.319,0.384-0.942,0.008-1.388l0,0c-0.376-0.447-0.989-0.548-1.369-0.228
							l-3.156,2.659c-0.381,0.32-0.386,0.941-0.009,1.387l0,0c0.375,0.447,0.989,0.549,1.37,0.229L128.104,215.077z"/>
						<path fill="#F6C89A" d="M126.435,213.721c0.38-0.319,0.384-0.941,0.008-1.388l0,0c-0.376-0.447-0.989-0.549-1.37-0.229
							l-3.156,2.66c-0.38,0.32-0.384,0.941-0.008,1.388l0,0c0.375,0.446,0.988,0.548,1.37,0.228L126.435,213.721z"/>
						<path fill="#F6C89A" d="M129.114,216.902c0.379-0.32,0.384-0.942,0.008-1.388l0,0c-0.376-0.446-0.989-0.548-1.37-0.229
							l-3.156,2.66c-0.381,0.319-0.385,0.941-0.009,1.388l0,0c0.376,0.445,0.989,0.549,1.371,0.228L129.114,216.902z"/>
						<path fill="#F6C89A" d="M130.251,218.705c0.381-0.319,0.384-0.941,0.008-1.387l0,0c-0.376-0.446-0.988-0.549-1.369-0.229
							l-3.157,2.66c-0.38,0.32-0.384,0.941-0.008,1.388l0,0c0.375,0.446,0.988,0.549,1.369,0.228L130.251,218.705z"/>
					</g>
					<path fill="#434D72" d="M77.653,244.726c1.231-1.631,3.696-2.336,5.515-2.859c2.85-0.821,5.576-1.823,8.36-2.871
						c3.459-1.303,6.92-2.606,10.38-3.909l17.568-18.067l4.657,6.172l-18.626,20.004l-19.859,11.068
						c-2.178,0.564-5.157-1.678-6.965-3.188c-1.493-1.248-2.301-3.641-1.496-5.544C77.31,245.24,77.467,244.972,77.653,244.726z"/>
				</g>
				<g>
					<g>
						<path fill="#5C2517" d="M202.708,321.476l-2.476,8.447l-17.864-5.551c0,0-1.004-2.289,2.107-4.438
							c3.112-2.149,7.585,1.647,12.346-2.507L202.708,321.476z"/>
						<path fill="#3D1911" d="M200.859,327.783l-0.627,2.141l-17.864-5.551c0,0-0.436-1.043,0.218-2.378
							C188.657,323.986,194.74,325.941,200.859,327.783z"/>
					</g>
					<g>
						<g>
							<g>
								<path fill="#3C2518" d="M234.533,230.55c0.538-1.67-0.381-3.461-2.052-3.997c-1.587-0.511-3.279,0.294-3.906,1.808
									c-1.161,0.172-2.182,0.977-2.565,2.168c-0.537,1.672,0.381,3.461,2.052,3.998c1.586,0.511,3.279-0.294,3.905-1.809
									C233.128,232.548,234.15,231.742,234.533,230.55z"/>
							</g>
							<g>
								<path fill="#3C515A" d="M219.485,235.154c-1.526-0.34-4.577-0.429-6.62,3.391c0,0,4.195-0.89,5.316,1.988
									c-0.094-0.562-0.061-1.152,0.126-1.732L219.485,235.154z"/>
							</g>
							<g>
								<path fill="#F7BC91" d="M214.863,241.564L214.863,241.564c-1.935-0.625-2.997-2.699-2.373-4.633l2.871-8.893l7.005,2.262
									l-2.871,8.891C218.871,241.126,216.797,242.188,214.863,241.564z"/>
								<path fill="#D8996F" d="M212.901,235.658c0.982,0.775,2.083,1.379,3.297,1.771c1.212,0.391,2.459,0.545,3.709,0.491
									l1.996-6.183l-7.006-2.262L212.901,235.658z"/>
							</g>
							<g>
								<path fill="#F7BC91" d="M236.818,217.759c3.146,1.198,3.339,3.936,2.292,7.177c-1.034,3.201-3.719,5.229-6.132,4.716
									L236.818,217.759z"/>
								<path fill="#FDCFAF" d="M236.171,219.763c0.059-0.174,1.399,0.998,1.53,1.148c0.559,0.645,0.769,1.539,0.681,2.375
									c-0.188,1.754-1.542,3.363-3.144,4.033c-0.498,0.209-1.038,0.334-1.58,0.325c-0.003,0.001-0.032-0.003-0.034,0.003
									c0.001-0.004,1.531-4.742,2.219-6.871C236.039,220.17,236.166,219.775,236.171,219.763z"/>
								<g>
									<path fill="#EAAE86" d="M235.937,220.49c0.128,0.02,0.944,0.621,1.013,0.681c0.842,0.716,1.315,1.733,1.197,2.843
										c-0.018,0.162-0.048,0.322-0.084,0.48c0.162-0.388,0.273-0.793,0.318-1.207c0.067-0.641-0.063-1.291-0.371-1.855
										c-0.333-0.611-0.826-1.09-1.407-1.452c-0.054-0.034-0.433-0.216-0.433-0.216"/>
								</g>
							</g>
							<path fill="#F7BC91" d="M233.907,227.488c-2.258,6.992-9.974,10.762-17.236,8.416c-7.262-2.344-11.319-9.913-9.061-16.905
								c2.257-6.993,9.399-18.786,19.527-15.518C237.791,206.921,236.164,220.494,233.907,227.488z"/>
							<path fill="#EAAE86" d="M208.749,219.68c1.256-3.652,2.622-7.11,4.396-9.118l-1.663,1.863
								c-1.767,1.598-3.001,3.877-3.872,6.573c-2.258,6.992,1.799,14.562,9.061,16.905
								C210.089,233.779,206.414,226.472,208.749,219.68z"/>
							<path fill="#EAAE86" d="M234.444,219.392c0.042,1.861-1.179,5.873-1.859,7.982c-2.207,6.836-9.332,10.654-15.914,8.529
								c7.262,2.346,14.978-1.424,17.236-8.416c0.64-1.986,1.03-3.888,1.018-5.674L234.444,219.392z"/>
							<path fill="#EAAE86" d="M227.137,203.481c-9.163-2.958-15.881,6.413-18.75,13.403c0.105,0.033,0.229,0.01,0.307-0.104
								l2.667-4.018c1.027-0.261,1.9-1.022,2.249-2.104c0.107-0.336,0.153-0.675,0.149-1.009c0.786-0.165,1.493-0.624,1.96-1.296
								c0.246,0.169,0.52,0.307,0.819,0.403c1.67,0.536,3.46-0.382,3.997-2.054c0.027-0.084,0.049-0.17,0.069-0.255
								c0.384,0.567,0.951,1.017,1.654,1.243c0.312,0.1,0.627,0.148,0.938,0.152c0.188,1.139,0.987,2.135,2.161,2.513
								c1.211,0.39,2.484,0.01,3.298-0.864c-0.073,1.404,0.795,2.736,2.197,3.188c0.73,0.234,1.482,0.191,2.144-0.072
								c0,0.008,0,0.015,0,0.023c0.089,1.081,0.748,1.952,1.361,2.543l-0.016,0.624c-0.026,0.067-0.055,0.134-0.077,0.204
								c-0.218,0.678-0.193,1.373,0.021,1.998l-0.188,7.404c-0.005,0.198,0.174,0.304,0.333,0.272
								C236.345,218.373,236.934,206.643,227.137,203.481z"/>
							<path fill="#3C2518" d="M240.641,216.938c0.426-1.327-0.067-2.726-1.124-3.516c0.449-0.374,0.804-0.872,0.996-1.47
								c0.331-1.031,0.107-2.106-0.504-2.906c0.113-0.195,0.209-0.404,0.281-0.627c0.414-1.287-0.04-2.643-1.031-3.444
								c0.065-0.134,0.124-0.271,0.171-0.417c0.537-1.671-0.382-3.461-2.053-3.998c-0.763-0.245-1.549-0.184-2.231,0.111
								c-0.291-0.968-1.036-1.78-2.069-2.112c-1.22-0.392-2.501-0.005-3.315,0.881c0.172-1.478-0.714-2.918-2.183-3.391
								c-0.184-0.058-0.37-0.097-0.554-0.122c-0.327-0.298-0.719-0.533-1.167-0.678c-1.432-0.461-2.951,0.151-3.693,1.389
								c-0.072-0.028-0.143-0.058-0.218-0.082c-1.332-0.428-2.737,0.07-3.525,1.137c-0.146-0.074-0.296-0.141-0.457-0.191
								c-1.67-0.537-3.46,0.381-3.997,2.053c-0.056,0.17-0.091,0.342-0.116,0.514c-1.494-0.197-2.961,0.69-3.438,2.176
								c-0.233,0.725-0.192,1.473,0.067,2.13c-0.024,0.062-0.05,0.122-0.07,0.187c-0.108,0.334-0.155,0.674-0.151,1.008
								c-1.081,0.227-2.013,1.01-2.375,2.135c-0.502,1.563,0.269,3.23,1.737,3.879c-0.424,1.152-0.824,2.49-1.102,3.982
								c-0.056,0.293,0.33,0.455,0.499,0.207l2.668-4.018c1.025-0.26,1.899-1.023,2.248-2.104c0.107-0.335,0.154-0.675,0.15-1.009
								c0.786-0.164,1.493-0.623,1.959-1.295c0.247,0.168,0.521,0.307,0.819,0.402c1.671,0.537,3.46-0.382,3.998-2.053
								c0.027-0.084,0.049-0.17,0.068-0.256c0.385,0.568,0.952,1.017,1.654,1.243c0.312,0.1,0.627,0.149,0.938,0.152
								c0.188,1.14,0.988,2.136,2.162,2.513c1.212,0.39,2.484,0.01,3.298-0.863c-0.072,1.404,0.796,2.736,2.198,3.187
								c0.73,0.235,1.482,0.191,2.143-0.071c0.001,0.008,0.001,0.014,0.001,0.021c0.09,1.082,0.749,1.953,1.361,2.545l-0.016,0.623
								c-0.027,0.068-0.055,0.135-0.078,0.204c-0.218,0.679-0.193,1.374,0.021,1.998l-0.187,7.403
								c-0.008,0.299,0.399,0.393,0.526,0.123c0.958-2.039,1.51-3.961,1.828-5.49C238.409,219.474,240.117,218.564,240.641,216.938z
								"/>
						</g>
						<g>
							
								<ellipse transform="matrix(-0.9396 -0.3422 0.3422 -0.9396 359.5021 506.9753)" fill="#D8996F" cx="224.476" cy="221.773" rx="2.3" ry="2.549"/>
							
								<ellipse transform="matrix(-0.9393 -0.343 0.343 -0.9393 359.861 506.0695)" fill="#010101" cx="224.679" cy="221.214" rx="2.301" ry="2.549"/>
							<circle fill="#FFFFFF" cx="224.363" cy="220.365" r="0.923"/>
						</g>
						<g>
							
								<ellipse transform="matrix(-0.9396 -0.3423 0.3423 -0.9396 339.8635 495.3512)" fill="#D8996F" cx="213.64" cy="217.687" rx="2.3" ry="2.549"/>
							
								<ellipse transform="matrix(-0.9395 -0.3426 0.3426 -0.9395 340.3615 494.3772)" fill="#010101" cx="213.845" cy="217.127" rx="2.3" ry="2.549"/>
							<circle fill="#FFFFFF" cx="213.528" cy="216.278" r="0.922"/>
						</g>
						<path fill="#F58670" d="M219.095,218.23c0,0-0.593,3.055-1.885,2.387c-2.501-1.291-4.299,4.48,0.366,3.568
							c1.76-0.344,2.817-5.509,2.817-5.509L219.095,218.23z"/>
						<g>
							<path fill="#3C2518" d="M230.375,217.854c-0.002-0.005-0.038-0.112-0.134-0.284l-0.035-0.059
								c-0.842-1.416-2.509-2.123-4.099-2.213c-0.138-0.007-0.273,0-0.391,0.004c-0.04,0.002-0.078,0.004-0.117,0.006l-0.019,0.001
								c-0.149,0.009-0.288,0.016-0.41,0.04c-0.106,0.018-0.201,0.037-0.281,0.055l-0.04,0.009
								c-0.177,0.037-0.278,0.066-0.282,0.068c0,0-0.424,0.127-0.431,0.13c0.125-0.038,1.188,0.289,1.491,0.365
								c0.586,0.146,1.163,0.331,1.726,0.553c1.126,0.441,2.195,1.026,3.171,1.74C230.452,218.21,230.406,217.951,230.375,217.854z"
								/>
							<path fill="#3C2518" d="M213.134,212.175c0.004-0.002,0.101-0.061,0.285-0.131l0.064-0.021
								c1.559-0.536,3.288,0.003,4.558,0.963c0.111,0.083,0.209,0.175,0.296,0.255c0.028,0.027,0.056,0.053,0.087,0.081l0.013,0.013
								c0.108,0.102,0.208,0.198,0.286,0.297c0.07,0.082,0.129,0.158,0.18,0.223l0.025,0.032c0.112,0.144,0.169,0.231,0.172,0.235
								c0,0,0.241,0.371,0.245,0.378c-0.071-0.11-1.093-0.548-1.374-0.686c-0.542-0.269-1.102-0.501-1.674-0.696
								c-1.145-0.392-2.339-0.637-3.546-0.723C212.844,212.398,213.048,212.228,213.134,212.175z"/>
						</g>
						<g>
							<path fill="#992220" d="M213.991,226.445c0,0,4.855,2.453,8.215,0.219c0,0,0.317,6.214-5.406,5.227
								C213.185,231.265,213.991,226.445,213.991,226.445z"/>
							<path fill="#F15737" d="M214.642,230.502c0.432,0.669,1.107,1.206,2.158,1.388c1.298,0.225,2.285,0.077,3.036-0.283
								c0.217-0.111,0.422-0.237,0.613-0.377c0.004-0.004,0.009-0.007,0.014-0.01c0.001-0.002,0.003-0.004,0.006-0.006
								c0.605-0.473,1.001-1.109,1.26-1.756C218.891,227.679,215.913,229.454,214.642,230.502z"/>
							<path fill="#FFFFFF" d="M213.99,226.445L213.99,226.445c0,0-0.007,0.041-0.017,0.115c0.466,0.259,1.047,1.648,2.304,1.988
								c0.795,0.216,1.633,0.234,2.445,0.114c0.505-0.074,1.02-0.136,1.497-0.329c0.364-0.146,0.791-0.782,1.048-1.178
								C218.012,228.476,213.991,226.445,213.99,226.445z"/>
							<g>
								<path fill="#DD6C5E" d="M216.193,232.042c-3.219-1.037-2.499-5.598-2.49-5.646c0.015-0.092,0.073-0.171,0.156-0.212
									c0.083-0.043,0.18-0.043,0.263-0.001c0.047,0.024,4.746,2.349,7.922,0.237c0.088-0.059,0.199-0.066,0.293-0.018
									c0.093,0.046,0.155,0.141,0.16,0.244c0.006,0.123,0.133,3.048-1.67,4.647c-0.993,0.881-2.365,1.178-4.077,0.882
									C216.553,232.143,216.367,232.097,216.193,232.042z M214.231,226.876c-0.102,1.113-0.135,4.25,2.619,4.727
									c1.526,0.264,2.734,0.014,3.587-0.742c1.179-1.043,1.422-2.816,1.47-3.681C219.018,228.722,215.396,227.384,214.231,226.876
									z"/>
							</g>
						</g>
					</g>
					<path fill="#2D3756" d="M204.705,239.039l-9.954,31.601l15.271,7.412c0,0,10.036-30.862,8.874-41.39L204.705,239.039z"/>
					<path fill="#2D3756" d="M202.427,323.16l-9.19-4.197c0.184-0.613,0.366-1.225,0.549-1.839
						c1.93-6.47,8.381-30.771,10.827-38.968c0.79-2.646,1.58-5.293,2.369-7.939c0.109-0.367,0.2-0.746,0.33-1.105
						c0.437-1.213,1.259-1.279,2.529-1.59c3.648-0.898,7.535-0.834,11.146,0.214c0.701,0.204,1.415,0.455,1.948,0.955
						c3.375,3.159-0.726,8.858-2.181,12.036C216.292,290.478,205.067,317.169,202.427,323.16z"/>
					<g>
						<path fill="#D9B087" d="M179.35,207.08c-0.167-0.489,0.162-1.045,0.734-1.241l0,0c0.574-0.197,1.174,0.04,1.342,0.528
							l1.392,4.059c0.168,0.488-0.16,1.045-0.733,1.242l0,0c-0.574,0.196-1.175-0.041-1.343-0.529L179.35,207.08z"/>
						<path fill="#F6C89A" d="M176.044,215.478c-2.443-2.057-2.311-4.585-0.707-6.49c1.605-1.905,4.075-2.465,6.517-0.408
							c2.442,2.058,3.932,5.952,2.328,7.857S178.485,217.536,176.044,215.478z"/>
						<path fill="#F6C89A" d="M174.933,208.892c-0.395-0.333-0.399-0.979-0.008-1.442l0,0c0.391-0.464,1.027-0.569,1.423-0.237
							l3.281,2.764c0.396,0.334,0.4,0.98,0.009,1.443l0,0c-0.39,0.464-1.028,0.569-1.423,0.236L174.933,208.892z"/>
						<path fill="#F6C89A" d="M176.668,207.484c-0.396-0.334-0.4-0.979-0.009-1.443l0,0c0.391-0.463,1.028-0.569,1.423-0.236
							l3.281,2.764c0.396,0.332,0.399,0.979,0.008,1.443l0,0c-0.39,0.464-1.027,0.569-1.422,0.236L176.668,207.484z"/>
						<path fill="#F6C89A" d="M173.884,210.79c-0.396-0.333-0.399-0.979-0.009-1.443l0,0c0.391-0.464,1.028-0.569,1.424-0.237
							l3.281,2.766c0.396,0.332,0.399,0.979,0.009,1.441l0,0c-0.391,0.464-1.028,0.57-1.423,0.237L173.884,210.79z"/>
						<path fill="#F6C89A" d="M172.701,212.664c-0.395-0.332-0.399-0.979-0.008-1.441l0,0c0.391-0.464,1.027-0.57,1.422-0.237
							l3.282,2.765c0.396,0.332,0.4,0.978,0.009,1.441l0,0c-0.39,0.464-1.028,0.57-1.423,0.237L172.701,212.664z"/>
					</g>
					<path fill="#D6D6D6" d="M208.191,237.931c0,0-7.372,20.896-7.707,27.378c-0.049,0.95,6.51,3.655,7.212,3.973
						c3.401,1.536,13.109,6.313,15.98,2.417c1.198-1.628,0.527-4.396,0.6-6.357c0.083-2.201,0.181-4.403,0.291-6.604
						c0.093-1.866,0.982-19.258,1.222-19.252C225.787,239.484,208.191,237.931,208.191,237.931z"/>
					<path fill="#434D72" d="M209.658,241.742l-9.125,32.67l23.065,6.681c0,0,4.538-32.202,1.725-42.413L209.658,241.742z"/>
					<path fill="#2D3756" d="M224.697,241.014c-0.132-0.288-0.297-0.55-0.49-0.79c-0.015-0.02-0.036-0.034-0.051-0.053l-14.9,2.912
						l-0.766,2.742c3.845,1.992,8.023,4.16,8.023,4.16c2.192,0.498,5.099-1.828,6.858-3.391
						C224.824,245.303,225.559,242.891,224.697,241.014z"/>
					<path fill="#222B4A" d="M210.336,239.393l2.707,4.073l-4.388,9.494l1.229,3.008l-5.859,10.384c0,0-1.893,2.585-1.928,2.458
						L210.336,239.393z"/>
					<path fill="#434D72" d="M225.323,238.679c-1.229-1.627-3.691-2.332-5.507-2.855c-2.846-0.819-5.57-1.819-8.349-2.867
						c-3.456-1.301-6.912-2.602-10.367-3.904l-17.547-18.043l-4.651,6.163l18.604,19.979l19.834,11.053
						c2.174,0.564,5.15-1.674,6.955-3.183c1.491-1.247,2.298-3.636,1.494-5.537C225.666,239.193,225.509,238.925,225.323,238.679z"
						/>
				</g>
				<g>
					<g>
						<path fill="#1C1C1C" d="M202.76,219.976c-7.381-4.629-11.303-2.283-12.955-0.527c-4.518,2.018-8.212,6.237-9.631,11.719
							c-2.349,9.078,2.426,18.166,10.667,20.298c8.24,2.132,17.955-2.896,20.304-11.972
							C213.147,231.757,208.842,223.417,202.76,219.976z"/>
						<g>
							<g>
								<path fill="#F7BC91" d="M208.469,237.409c3.284,1.038,3.643,3.821,2.766,7.194c-0.866,3.33-3.489,5.561-5.984,5.179
									L208.469,237.409z"/>
								<path fill="#FDCFAF" d="M207.926,239.494c0.05-0.182,1.488,0.937,1.631,1.083c0.608,0.625,0.876,1.526,0.835,2.385
									c-0.087,1.804-1.376,3.526-2.972,4.306c-0.496,0.242-1.041,0.402-1.594,0.426c-0.004,0-0.034-0.001-0.034,0.004
									c0-0.004,1.283-4.934,1.859-7.148C207.815,239.917,207.922,239.507,207.926,239.494z"/>
								<g>
									<path fill="#EAAE86" d="M207.731,240.25c0.133,0.012,1,0.58,1.076,0.636c0.902,0.681,1.445,1.691,1.39,2.833
										c-0.008,0.166-0.03,0.331-0.057,0.495c0.142-0.405,0.233-0.826,0.253-1.252c0.032-0.657-0.139-1.314-0.488-1.874
										c-0.376-0.604-0.907-1.063-1.522-1.398c-0.057-0.032-0.455-0.195-0.455-0.195"/>
								</g>
							</g>
						</g>
						<g>
							<path fill="#3C515A" d="M192.651,255.058c-1.58-0.255-4.701-0.166-6.56,3.855c0,0,4.231-1.156,5.547,1.717
								c-0.129-0.567-0.131-1.174,0.027-1.777L192.651,255.058z"/>
						</g>
						<g>
							<path fill="#F7BC91" d="M188.309,261.88L188.309,261.88c-2.013-0.524-3.22-2.581-2.697-4.594l2.407-9.251l7.288,1.896
								l-2.406,9.252C192.377,261.195,190.321,262.402,188.309,261.88z"/>
							<path fill="#D8996F" d="M185.956,255.964c1.049,0.732,2.209,1.285,3.472,1.613c1.262,0.328,2.544,0.411,3.817,0.282
								l1.672-6.433l-7.288-1.896L185.956,255.964z"/>
						</g>
						<g>
							<path fill="#F7BC91" d="M206.933,246.376c-1.892,7.277-9.551,11.582-17.106,9.617s-12.147-9.457-10.255-16.732
								c1.892-7.275,8.489-19.744,19.028-17.004C209.683,225.14,208.825,239.101,206.933,246.376z"/>
						</g>
						<path fill="#EAAE86" d="M180.775,239.891c1.067-3.806,2.258-7.418,3.951-9.573l-1.588,2.002
							c-1.709,1.736-2.836,4.137-3.566,6.941c-1.893,7.275,2.699,14.768,10.255,16.732
							C182.977,254.212,178.791,246.966,180.775,239.891z"/>
						<path fill="#EAAE86" d="M207.003,238.077c0.152,1.898-0.857,6.069-1.428,8.264c-1.85,7.112-8.9,11.435-15.749,9.653
							c7.556,1.965,15.214-2.34,17.106-9.617c0.537-2.064,0.822-4.03,0.704-5.854L207.003,238.077z"/>
						<g>
							<path fill="#EAAE86" d="M190.501,225.146c0,0-8.062,8.563-7.92,14.263c0,0-1.273-2.053-0.833-4.954
								C182.189,231.55,184.651,222.278,190.501,225.146z"/>
							<path fill="#EAAE86" d="M205.526,226.08c-6.726-6.449-16.936-5.922-17.192,0.476c0,0,7.684-2.659,9.126,1.499
								c1.442,4.16-0.664,12.295,4.763,12.591c0,0-1.401-1.07-1.33-4.592c0,0,1.659,4.185,4.64,5.251
								c-0.178,1.424-0.526,2.729-1.128,3.753c0,0,1.901-1.065,2.968-3.531c0.002-0.001,0.003-0.001,0.005-0.001
								C207.378,241.525,212.252,232.53,205.526,226.08z"/>
							<path fill="#1C1C1C" d="M201.778,238.412c-0.001-0.004-0.026-0.109-0.103-0.281l-0.028-0.059
								c-0.679-1.42-2.206-2.236-3.709-2.459c-0.131-0.02-0.26-0.025-0.373-0.029c-0.037-0.002-0.074-0.003-0.113-0.006h-0.018
								c-0.141-0.006-0.274-0.01-0.393,0.003c-0.104,0.009-0.195,0.019-0.272,0.028l-0.039,0.004
								c-0.171,0.021-0.27,0.04-0.274,0.041c0,0-0.415,0.084-0.421,0.085c0.122-0.024,1.104,0.38,1.387,0.478
								c0.545,0.189,1.079,0.416,1.596,0.674c1.033,0.517,2,1.166,2.867,1.93C201.82,238.759,201.799,238.505,201.778,238.412z"/>
						</g>
						<path fill="#1C1C1C" d="M190.79,224.029c0,0-8.087,8.664-7.96,14.418c0,0-1.268-2.068-0.819-5
							C182.458,230.515,184.944,221.148,190.79,224.029z"/>
						<g>
							<g>
								
									<ellipse transform="matrix(-0.9047 -0.4261 0.4261 -0.9047 270.0185 543.676)" fill="#D8996F" cx="195.826" cy="241.633" rx="2.198" ry="2.435"/>
								
									<ellipse transform="matrix(-0.9047 -0.4261 0.4261 -0.9047 270.701 542.7993)" fill="#010101" cx="196.069" cy="241.119" rx="2.198" ry="2.435"/>
								<circle fill="#FFFFFF" cx="195.841" cy="240.283" r="0.882"/>
							</g>
							<g>
								
									<ellipse transform="matrix(-0.9047 -0.4261 0.4261 -0.9047 253.1085 530.2483)" fill="#D8996F" cx="185.869" cy="236.811" rx="2.198" ry="2.434"/>
								
									<ellipse transform="matrix(-0.9048 -0.4258 0.4258 -0.9048 253.907 529.344)" fill="#010101" cx="186.111" cy="236.296" rx="2.197" ry="2.435"/>
								<circle fill="#FFFFFF" cx="185.883" cy="235.46" r="0.882"/>
							</g>
							<path fill="#F58670" d="M191.013,237.798c0,0-0.829,2.855-2,2.109c-2.268-1.445-4.476,3.891,0.041,3.426
								c1.705-0.175,3.155-5,3.155-5L191.013,237.798z"/>
							<g>
								<path fill="#1C1C1C" d="M185.862,231.523c0.005-0.002,0.102-0.05,0.283-0.1l0.063-0.016c1.529-0.375,3.128,0.287,4.254,1.31
									c0.098,0.089,0.185,0.185,0.259,0.27c0.025,0.027,0.05,0.056,0.076,0.084l0.012,0.013c0.093,0.106,0.182,0.207,0.246,0.308
									c0.059,0.084,0.109,0.161,0.152,0.228l0.021,0.032c0.093,0.146,0.14,0.235,0.143,0.239c0,0,0.198,0.373,0.201,0.379
									c-0.058-0.109-0.994-0.615-1.248-0.77c-0.493-0.301-1.004-0.571-1.532-0.807c-1.055-0.471-2.171-0.807-3.311-0.993
									C185.567,231.708,185.775,231.566,185.862,231.523z"/>
							</g>
							<g>
								<path fill="#992220" d="M185.446,245.174c0,0,4.409,2.753,7.8,0.916c0,0-0.235,5.94-5.596,4.509
									C184.265,249.693,185.446,245.174,185.446,245.174z"/>
								<path fill="#F15737" d="M185.716,249.091c0.354,0.675,0.95,1.244,1.934,1.508c1.216,0.324,2.168,0.269,2.913-0.009
									c0.218-0.087,0.423-0.19,0.617-0.306c0.004-0.004,0.008-0.006,0.012-0.009c0.002-0.001,0.005-0.003,0.007-0.004
									c0.617-0.399,1.048-0.97,1.35-1.563C190.004,246.772,187.017,248.203,185.716,249.091z"/>
								<path fill="#FFFFFF" d="M185.446,245.174L185.446,245.174c0,0-0.01,0.039-0.025,0.108c0.421,0.287,0.854,1.658,2.021,2.091
									c0.738,0.274,1.534,0.364,2.317,0.319c0.487-0.027,0.983-0.042,1.452-0.184c0.359-0.107,0.821-0.676,1.099-1.03
									C189.099,247.453,185.447,245.174,185.446,245.174z"/>
								<g>
									<path fill="#DD6C5E" d="M187.062,250.69c-2.975-1.263-1.896-5.54-1.884-5.586c0.022-0.086,0.084-0.155,0.167-0.188
										c0.083-0.033,0.174-0.025,0.25,0.021c0.042,0.027,4.313,2.646,7.519,0.909c0.088-0.048,0.195-0.046,0.28,0.009
										c0.084,0.053,0.134,0.146,0.13,0.246c-0.005,0.119-0.135,2.912-1.99,4.278c-1.02,0.752-2.351,0.917-3.955,0.487
										C187.395,250.818,187.221,250.757,187.062,250.69z M185.639,245.607c-0.192,1.051-0.495,4.032,2.083,4.723
										c1.431,0.382,2.601,0.248,3.479-0.396c1.212-0.893,1.598-2.558,1.715-3.375
										C190.034,247.775,186.704,246.191,185.639,245.607z"/>
								</g>
							</g>
						</g>
					</g>
					<path fill="#1C1C1C" d="M205.823,224.934c-6.714-6.495-16.933-5.938-17.205,0.522c0,0,7.694-2.703,9.128,1.492
						c1.432,4.195-0.694,12.412,4.735,12.699c0,0-1.4-1.078-1.319-4.633c0,0,1.024,2.605,2.91,4.241
						c-0.664,3.2-0.597,6.463-1.737,7.562c0,0,5.533-1.813,6.297-8.812C209.599,234.846,210.34,229.304,205.823,224.934z"/>
					<g>
						<path fill="#D9B087" d="M150.747,226.165c-0.162-0.47,0.154-1.005,0.707-1.194l0,0c0.552-0.189,1.129,0.039,1.292,0.51
							l1.339,3.904c0.162,0.47-0.154,1.004-0.706,1.194l0,0c-0.553,0.189-1.131-0.039-1.292-0.51L150.747,226.165z"/>
						<path fill="#F6C89A" d="M147.565,234.246c-2.35-1.979-2.223-4.412-0.679-6.244c1.543-1.833,3.918-2.373,6.269-0.394
							c2.349,1.979,3.783,5.727,2.239,7.56C153.852,237.001,149.915,236.224,147.565,234.246z"/>
						<path fill="#F6C89A" d="M146.497,227.909c-0.381-0.32-0.384-0.942-0.008-1.388l0,0c0.375-0.446,0.988-0.548,1.368-0.229
							l3.157,2.66c0.38,0.32,0.385,0.941,0.009,1.389l0,0c-0.376,0.445-0.989,0.547-1.37,0.227L146.497,227.909z"/>
						<path fill="#F6C89A" d="M148.167,226.553c-0.38-0.32-0.384-0.942-0.009-1.388l0,0c0.375-0.445,0.989-0.548,1.369-0.228
							l3.158,2.659c0.38,0.32,0.384,0.941,0.008,1.389l0,0c-0.376,0.445-0.989,0.547-1.37,0.227L148.167,226.553z"/>
						<path fill="#F6C89A" d="M145.487,229.734c-0.38-0.32-0.384-0.941-0.008-1.388l0,0c0.376-0.446,0.989-0.548,1.369-0.228
							l3.158,2.658c0.38,0.321,0.384,0.942,0.008,1.389l0,0c-0.375,0.445-0.988,0.549-1.369,0.229L145.487,229.734z"/>
						<path fill="#F6C89A" d="M144.351,231.538c-0.381-0.321-0.384-0.941-0.009-1.388l0,0c0.376-0.447,0.99-0.549,1.37-0.228
							l3.157,2.659c0.381,0.32,0.385,0.941,0.009,1.388l0,0c-0.375,0.446-0.988,0.548-1.369,0.229L144.351,231.538z"/>
					</g>
					<g>
						<g>
							<path fill="#5C2517" d="M191.285,335.016l-0.209,8.81l18.729,0.143c0,0,1.656-1.878-0.658-4.874
								c-2.314-2.997-7.736-0.737-11.014-6.149L191.285,335.016z"/>
							<path fill="#3D1911" d="M191.129,341.593l-0.053,2.232l18.729,0.143c0,0,0.733-0.861,0.516-2.335
								C203.923,341.686,197.524,341.699,191.129,341.593z"/>
						</g>
						<polygon fill="#2D3756" points="176.898,292.455 189.336,314.027 190.483,335.083 200.257,334.515 200.358,308.349 
							191.571,286.27 						"/>
					</g>
					<path fill="#434D72" d="M181.732,260.459l-9.137,32.71l24.966,4.957c0,0,2.672-30.511-0.145-40.732L181.732,260.459z"/>
					<path fill="#2D3756" d="M196.767,259.96c-0.132-0.287-0.297-0.55-0.49-0.791c-0.017-0.02-0.036-0.033-0.052-0.053
						l-14.918,2.916l-0.768,2.746c3.851,1.995,8.033,4.166,8.033,4.166c2.194,0.497,5.105-1.832,6.866-3.396
						C196.894,264.255,197.629,261.841,196.767,259.96z"/>
					<path fill="#434D72" d="M197.417,257.394c-1.231-1.631-3.696-2.336-5.515-2.859c-2.85-0.821-5.576-1.823-8.358-2.871
						c-3.46-1.303-6.921-2.606-10.381-3.908l-17.568-18.068l-4.657,6.172l18.626,20.004l19.859,11.068
						c2.177,0.564,5.157-1.678,6.965-3.188c1.493-1.248,2.301-3.639,1.496-5.545C197.76,257.908,197.602,257.64,197.417,257.394z"/>
				</g>
			</g>
		</g>
	</g>
</g>
<g id="Designed_By_Freepik">
</g>
</svg>
