<?xml version="1.0" encoding="utf-8"?>
<!-- Generator: Adobe Illustrator 16.0.0, SVG Export Plug-In . SVG Version: 6.00 Build 0)  -->
<!DOCTYPE svg PUBLIC "-//W3C//DTD SVG 1.1//EN" "http://www.w3.org/Graphics/SVG/1.1/DTD/svg11.dtd">
<svg version="1.1" xmlns="http://www.w3.org/2000/svg" xmlns:xlink="http://www.w3.org/1999/xlink" x="0px" y="0px" width="495px"
	 height="371.318px" viewBox="0 0 495 371.318" enable-background="new 0 0 495 371.318" xml:space="preserve">
<g id="Layer_4">
	<rect x="-1.56" y="-102.242" fill="#F26722" width="498.375" height="500"/>
	<rect x="-1.561" y="306.836" fill="#CD5527" width="498.375" height="90.922"/>
</g>
<g id="Background" display="none">
	<g display="inline">
		<g>
			<rect x="-5.56" y="-102.242" fill="#4AA2DA" width="500" height="500"/>
		</g>
	</g>
	<g display="inline">
		<g>
			<rect x="-5.56" y="306.936" fill="#267EBA" width="500" height="90.822"/>
		</g>
	</g>
	<g display="inline">
		<ellipse fill="#0068A1" cx="188.936" cy="333.534" rx="18.786" ry="2.933"/>
		<ellipse fill="#0068A1" cx="85.43" cy="337.236" rx="35.109" ry="3.052"/>
		<ellipse fill="#0068A1" cx="174.44" cy="350.858" rx="39.312" ry="3.6"/>
		<ellipse fill="#0068A1" cx="148.884" cy="351.01" rx="39.312" ry="3.6"/>
	</g>
</g>
<g id="Object">
	<g>
		<g>
			<polygon fill="#B35228" points="498.815,270.643 498.034,270.643 498.034,264.246 489.917,264.246 489.917,268.286 
				485.8,268.286 485.8,273.255 482.033,273.255 482.033,265.817 478.151,265.817 478.151,248.874 476.739,248.874 476.739,244.529 
				472.387,244.529 472.387,248.874 468.975,248.874 468.975,254.516 448.799,254.516 448.799,234.374 441.209,227.136 
				436.952,227.136 436.952,225.902 428.023,225.902 428.023,227.136 420.977,227.136 420.977,225.678 419.097,225.678 
				419.097,227.136 416.385,227.136 416.385,239.929 410.619,239.929 410.619,248.761 395.751,248.761 395.751,175.072 
				367.336,175.072 367.336,258.252 356.5,258.252 356.5,201.889 350.502,201.889 350.502,198.747 335.887,198.747 335.887,201.889 
				330.146,201.889 330.146,256.261 324.616,250.986 321.676,250.986 321.676,175.666 319.013,175.666 319.013,174.364 
				312.953,174.364 312.953,175.666 306.976,175.666 306.976,174.275 295.063,174.277 295.177,175.698 292.536,175.698 
				292.829,269.576 287.802,263.202 287.838,155.008 285.948,155.008 285.948,152.839 273.762,152.839 273.762,155.12 
				262.992,155.098 262.992,152.629 251.4,152.629 251.4,155.098 249.011,155.098 249.011,255.393 244.269,255.393 244.269,187.639 
				239.147,187.639 239.147,186.629 224.33,186.629 224.33,187.639 219.317,187.639 219.317,234.704 216.964,234.704 
				216.964,216.925 215.874,216.925 215.874,215.654 206.069,215.66 206.069,216.999 204.767,216.969 204.767,245.896 
				203.925,245.896 203.925,203.797 200.493,203.797 200.493,197.737 186.846,197.737 178.611,205.592 178.611,232.349 
				172.701,232.349 170.466,230.216 170.466,189.314 168.529,189.289 165.533,183.518 150.403,183.487 147.137,189.006 
				145.053,188.979 145.053,228.932 141.83,228.932 141.83,240.938 139.667,240.938 139.667,270.449 132.961,270.449 
				132.961,256.984 129.903,256.984 129.903,247.109 122.137,247.109 122.137,230.728 119.432,230.728 119.432,228.819 
				113.785,223.434 113.785,219.73 101.078,219.73 101.078,223.546 96.372,228.034 96.372,230.614 93.078,230.614 93.078,287.842 
				91.9,287.842 91.9,290.872 90.725,290.872 90.725,263.492 88.019,261.248 85.077,254.18 77.43,254.18 73.312,260.351 
				70.959,260.351 60.252,260.363 60.252,277.038 56.371,277.038 56.371,285.903 52.605,285.903 52.605,279.507 48.488,279.507 
				48.488,275.468 40.37,275.468 40.37,281.863 37.193,281.863 37.193,283.771 34.017,283.771 34.017,285.005 26.016,285.005 
				26.016,282.762 25.192,282.762 25.192,277.743 16.721,277.743 16.721,282.762 9.662,282.762 9.662,285.342 5.545,285.342 
				5.545,279.619 0.957,279.619 0.957,283.771 -1.56,283.771 -1.56,306.836 498.815,306.836 			"/>
		</g>
		<g>
			<g>
				<g>
					<path fill="#DDB28A" d="M148.759,227.366c-0.063-0.521,0.38-1.004,0.991-1.079l0,0c0.61-0.075,1.158,0.287,1.222,0.808
						l0.531,4.324c0.063,0.521-0.379,1.005-0.991,1.08l0,0c-0.611,0.074-1.159-0.287-1.223-0.809L148.759,227.366z"/>
					<path fill="#DDB28A" d="M143.708,235.017c-1.994-2.558-1.332-5.042,0.663-6.598c1.994-1.556,4.566-1.594,6.56,0.964
						c1.994,2.558,2.657,6.741,0.662,8.296C149.598,239.234,145.702,237.573,143.708,235.017z"/>
					<path fill="#DDB28A" d="M143.989,228.239c-0.323-0.414-0.191-1.057,0.294-1.436l0,0c0.486-0.379,1.141-0.35,1.463,0.064
						l2.68,3.436c0.322,0.414,0.191,1.057-0.294,1.436l0,0c-0.485,0.378-1.141,0.35-1.464-0.064L143.989,228.239z"/>
					<path fill="#DDB28A" d="M146.009,227.204c-0.323-0.414-0.191-1.057,0.294-1.436l0,0c0.486-0.379,1.141-0.35,1.464,0.064
						l2.679,3.436c0.323,0.414,0.191,1.057-0.294,1.436l0,0c-0.486,0.378-1.141,0.35-1.463-0.064L146.009,227.204z"/>
					<path fill="#DDB28A" d="M142.548,229.903c-0.322-0.413-0.191-1.057,0.294-1.436l0,0c0.486-0.378,1.141-0.35,1.464,0.064
						l2.679,3.436c0.323,0.414,0.191,1.057-0.294,1.436l0,0c-0.485,0.378-1.141,0.351-1.464-0.064L142.548,229.903z"/>
					<path fill="#DDB28A" d="M140.98,231.518c-0.323-0.414-0.191-1.057,0.294-1.435l0,0c0.485-0.379,1.14-0.351,1.463,0.063
						l2.68,3.437c0.322,0.414,0.191,1.056-0.294,1.435l0,0c-0.486,0.379-1.141,0.35-1.464-0.064L140.98,231.518z"/>
				</g>
			</g>
			<path fill="#2D3756" d="M197.008,260.946c-1.298-1.721-3.901-2.466-5.821-3.019c-3.008-0.866-5.886-1.924-8.824-3.03
				c-3.651-1.375-7.305-2.751-10.957-4.126L152.861,231.7l-4.915,6.515c2.416,2.596,4.833,5.19,7.249,7.786
				c2.022,2.172,4.044,4.343,6.066,6.515c2.634,2.827,5.093,5.949,8.488,7.913c3.486,2.018,7.443,3.143,11.113,4.766
				c2.466,1.091,5.13,2.748,7.749,3.427c2.299,0.596,5.404,0.623,7.313-0.973c1.576-1.317,2.429-3.841,1.578-5.852
				C197.371,261.489,197.205,261.207,197.008,260.946z"/>
			<g>
				<g>
					<g>
						<path fill="#DDB28A" d="M178.91,207.276c-0.066-0.541,0.395-1.044,1.03-1.121l0,0c0.635-0.078,1.204,0.298,1.27,0.839
							l0.552,4.496c0.066,0.541-0.395,1.044-1.03,1.122l0,0c-0.635,0.077-1.204-0.299-1.271-0.841L178.91,207.276z"/>
						<path fill="#DDB28A" d="M173.661,215.229c-2.074-2.658-1.385-5.24,0.689-6.857c2.073-1.617,4.746-1.656,6.818,1.002
							c2.073,2.658,2.761,7.006,0.688,8.623C179.782,219.613,175.733,217.887,173.661,215.229z"/>
						<path fill="#DDB28A" d="M173.952,208.184c-0.335-0.43-0.197-1.098,0.307-1.491l0,0c0.504-0.394,1.185-0.363,1.52,0.066
							l2.786,3.571c0.336,0.43,0.199,1.099-0.306,1.492l0,0c-0.504,0.394-1.186,0.363-1.521-0.067L173.952,208.184z"/>
						<path fill="#DDB28A" d="M176.052,207.107c-0.335-0.43-0.199-1.098,0.305-1.49l0,0c0.505-0.395,1.187-0.364,1.522,0.065
							l2.785,3.571c0.336,0.43,0.198,1.099-0.306,1.492l0,0c-0.505,0.393-1.186,0.363-1.522-0.067L176.052,207.107z"/>
						<path fill="#DDB28A" d="M172.455,209.914c-0.336-0.43-0.199-1.099,0.305-1.492l0,0c0.505-0.394,1.187-0.363,1.521,0.066
							l2.786,3.571c0.335,0.431,0.199,1.099-0.306,1.492l0,0c-0.504,0.394-1.186,0.364-1.522-0.066L172.455,209.914z"/>
						<path fill="#DDB28A" d="M170.824,211.592c-0.335-0.431-0.198-1.099,0.307-1.491l0,0c0.505-0.395,1.185-0.364,1.521,0.066
							l2.786,3.571c0.335,0.431,0.198,1.098-0.306,1.491l0,0c-0.504,0.394-1.186,0.364-1.521-0.066L170.824,211.592z"/>
					</g>
					<path fill="#2D3756" d="M226.469,241.19c-1.298-1.719-3.896-2.463-5.814-3.016c-3.004-0.865-5.879-1.921-8.813-3.025
						c-3.648-1.374-7.296-2.748-10.944-4.121l-18.522-19.048l-4.91,6.507c2.414,2.592,4.828,5.184,7.242,7.776
						c2.019,2.169,4.038,4.337,6.057,6.506c2.629,2.824,5.086,5.941,8.478,7.904c3.481,2.015,7.434,3.138,11.099,4.759
						c2.462,1.089,5.124,2.745,7.738,3.423c2.295,0.595,5.397,0.622,7.303-0.972c1.574-1.315,2.426-3.836,1.577-5.845
						C226.831,241.732,226.665,241.45,226.469,241.19z"/>
				</g>
				<g>
					<g>
						<path fill="#512016" d="M189.978,320.498l-2.613,8.915l-18.856-5.859c0,0-1.061-2.417,2.224-4.685
							c3.285-2.269,8.006,1.739,13.032-2.646L189.978,320.498z"/>
						<path fill="#28110E" d="M188.029,327.153l-0.664,2.26l-18.856-5.859c0,0-0.459-1.101,0.23-2.51
							C175.147,323.146,181.569,325.21,188.029,327.153z"/>
					</g>
					<polygon fill="#222B4A" points="181.428,317.747 191.18,322.263 214.069,272.303 202.103,266.761 					"/>
				</g>
			</g>
			<g>
				<path fill="#DDB28A" d="M122.65,212.915c0.064-0.521-0.38-1.004-0.991-1.079l0,0c-0.611-0.075-1.158,0.286-1.222,0.808
					l-0.531,4.324c-0.064,0.521,0.379,1.006,0.991,1.08l0,0c0.611,0.075,1.158-0.287,1.222-0.808L122.65,212.915z"/>
				<path fill="#DDB28A" d="M127.701,220.565c1.995-2.558,1.333-5.042-0.663-6.598c-1.994-1.556-4.565-1.593-6.56,0.965
					c-1.994,2.557-2.657,6.74-0.662,8.296C121.811,224.784,125.707,223.123,127.701,220.565z"/>
				<path fill="#DDB28A" d="M127.42,213.788c0.323-0.413,0.191-1.057-0.295-1.435l0,0c-0.486-0.379-1.14-0.351-1.463,0.063
					l-2.68,3.436c-0.323,0.414-0.191,1.058,0.294,1.436l0,0c0.486,0.379,1.141,0.35,1.464-0.064L127.42,213.788z"/>
				<path fill="#DDB28A" d="M125.4,212.753c0.323-0.414,0.191-1.057-0.294-1.436l0,0c-0.485-0.379-1.142-0.35-1.464,0.064
					l-2.68,3.436c-0.323,0.414-0.191,1.057,0.295,1.436l0,0c0.485,0.378,1.14,0.35,1.463-0.064L125.4,212.753z"/>
				<path fill="#DDB28A" d="M128.861,215.452c0.323-0.413,0.191-1.057-0.294-1.435l0,0c-0.485-0.379-1.141-0.35-1.463,0.063
					l-2.68,3.436c-0.324,0.414-0.192,1.057,0.294,1.436l0,0c0.485,0.379,1.141,0.351,1.464-0.064L128.861,215.452z"/>
				<path fill="#DDB28A" d="M130.43,217.066c0.323-0.413,0.191-1.057-0.294-1.435l0,0c-0.486-0.379-1.141-0.35-1.464,0.064
					l-2.679,3.436c-0.323,0.414-0.192,1.056,0.293,1.435l0,0c0.486,0.379,1.141,0.351,1.464-0.063L130.43,217.066z"/>
			</g>
			<path fill="#2D3756" d="M74.755,247.575c1.299-1.722,3.901-2.467,5.822-3.02c3.009-0.866,5.886-1.924,8.823-3.03
				c3.653-1.375,7.306-2.751,10.958-4.126l18.545-19.071l4.915,6.515c-2.416,2.596-4.833,5.19-7.25,7.786
				c-2.021,2.171-4.043,4.343-6.066,6.515c-2.632,2.827-5.092,5.948-8.487,7.913c-3.486,2.018-7.444,3.143-11.113,4.765
				c-2.466,1.091-5.131,2.749-7.749,3.428c-2.298,0.596-5.404,0.622-7.312-0.973c-1.576-1.317-2.429-3.841-1.579-5.853
				C74.393,248.117,74.559,247.834,74.755,247.575z"/>
			<g>
				<path fill="#512016" d="M162.181,341.851l-2.322,9.008l-19.063-5.245c0,0-1.14-2.384,2.072-4.762
					c3.213-2.377,8.069,1.479,12.954-3.074L162.181,341.851z"/>
				<path fill="#28110E" d="M160.448,348.575l-0.589,2.283l-19.063-5.245c0,0-0.496-1.087,0.149-2.52
					C147.426,344.988,153.92,346.842,160.448,348.575z"/>
			</g>
			<g>
				<polygon fill="#222B4A" points="152.883,339.103 162.272,343.082 186.622,293.642 172.554,287.679 				"/>
			</g>
			<path fill="#2D3756" d="M177.301,259.271l-10.521,33.398l16.142,7.834c0,0,10.606-32.618,9.377-43.743L177.301,259.271z"/>
			<path fill="#D6D6D6" d="M180.984,258.101c0,0-7.792,22.086-8.146,28.936c-0.052,1.005,6.881,3.863,7.624,4.199
				c3.593,1.624,13.856,6.673,16.889,2.554c1.266-1.72,0.558-4.646,0.635-6.718c0.087-2.327,0.19-4.654,0.306-6.981
				c0.099-1.972,1.04-20.353,1.292-20.348C199.582,259.742,180.984,258.101,180.984,258.101z"/>
			<g>
				<g>
					<rect x="218.961" y="-46.285" fill="#FFFFFF" width="1.134" height="92.57"/>
				</g>
				<g>
					<g>
						<defs>
							<filter id="Adobe_OpacityMaskFilter" filterUnits="userSpaceOnUse" x="201.229" y="47.105" width="36.599" height="36.599">
								<feFlood  style="flood-color:white;flood-opacity:1" result="back"/>
								<feBlend  in="SourceGraphic" in2="back" mode="normal"/>
							</filter>
						</defs>
						<mask maskUnits="userSpaceOnUse" x="201.229" y="47.105" width="36.599" height="36.599" id="SVGID_1_">
							<g filter="url(#Adobe_OpacityMaskFilter)">
								
									<image overflow="visible" width="170" height="170" xlink:href="AD20DE1.jpg"  transform="matrix(0.24 0 0 0.24 199.2295 45.1055)">
								</image>
							</g>
						</mask>
						<g mask="url(#SVGID_1_)">
							<defs>
								
									<filter id="Adobe_OpacityMaskFilter_1_" filterUnits="userSpaceOnUse" x="201.229" y="47.105" width="36.599" height="36.599">
									<feFlood  style="flood-color:white;flood-opacity:1" result="back"/>
									<feBlend  in="SourceGraphic" in2="back" mode="normal"/>
								</filter>
							</defs>
							<mask maskUnits="userSpaceOnUse" x="201.229" y="47.105" width="36.599" height="36.599" id="SVGID_1_">
								<g filter="url(#Adobe_OpacityMaskFilter_1_)">
									
										<image overflow="visible" width="170" height="170" xlink:href="AD20DEF.jpg"  transform="matrix(0.24 0 0 0.24 199.2295 45.1055)">
									</image>
								</g>
							</mask>
							<g>
								<circle fill="#FDF8F0" cx="219.529" cy="65.405" r="18.3"/>
							</g>
						</g>
					</g>
					<g>
						<g>
							<g>
								<path fill="#686B6B" d="M223.251,50.067c0.349,0,0.632-0.284,0.632-0.633c0-0.348-0.283-0.633-0.632-0.633h-7.393
									c-0.349,0-0.632,0.284-0.632,0.633c0,0.349,0.283,0.633,0.632,0.633H223.251z"/>
							</g>
							<g>
								<path fill="#444038" d="M222.744,48.802c0.349,0,0.632-0.283,0.632-0.633c0-0.349-0.284-0.632-0.632-0.632h-6.377
									c-0.349,0-0.632,0.284-0.632,0.632c0,0.35,0.284,0.633,0.632,0.633H222.744z"/>
							</g>
							<g>
								<path fill="#686B6B" d="M222.237,47.549c0.348,0,0.632-0.283,0.632-0.632c0-0.349-0.284-0.633-0.632-0.633h-5.363
									c-0.348,0-0.632,0.284-0.632,0.632c0,0.349,0.284,0.632,0.632,0.632H222.237z"/>
							</g>
							<polygon fill-rule="evenodd" clip-rule="evenodd" fill="#444038" points="217.913,45.405 216.974,46.285 219.596,46.285 
								222.219,46.285 221.278,45.405 							"/>
							<path fill-rule="evenodd" clip-rule="evenodd" fill="#FFF1CB" d="M222.918,50.067h-6.779c-0.725,0-1.248,0.66-1.248,1.357
								c0,1.893-0.469,3.291-1.728,4.701c-0.771,0.863-1.615,1.559-2.23,2.563c-0.874,1.422-1.088,3.127-1.088,4.768
								c0,5.402,4.188,10.07,9.684,10.07c5.496,0,9.683-4.668,9.683-10.07c0-1.64-0.214-3.345-1.087-4.768
								c-0.617-1.004-1.461-1.7-2.231-2.563c-1.258-1.41-1.727-2.808-1.727-4.701C224.167,50.727,223.643,50.067,222.918,50.067z"/>
							<path fill-rule="evenodd" clip-rule="evenodd" fill="#FFFBF1" d="M219.416,71.807c-4.43-3.025-4.664-7.988-4.664-7.988
								s-3.753,0.061-3.528,0.073c0.227,0.012-0.325,2.668,1.954,5.507C215.458,72.237,219.416,71.807,219.416,71.807z"/>
						</g>
						<g>
							<path fill="#FBBA8C" d="M221.072,50.285c0.147,0,0.279,0.102,0.31,0.251c0.019,0.089,0.171,0.889-0.223,1.431
								c-0.186,0.257-0.467,0.413-0.813,0.451c-0.036,0.004-3.557,0.427-3.347,3.314c0.013,0.174-0.118,0.325-0.292,0.338
								c-0.171,0.01-0.325-0.118-0.338-0.292c-0.203-2.791,2.467-3.83,3.908-3.989c0.17-0.019,0.287-0.08,0.37-0.193
								c0.197-0.269,0.151-0.764,0.117-0.933c-0.034-0.171,0.076-0.337,0.246-0.373C221.03,50.287,221.051,50.285,221.072,50.285z"
								/>
							<path fill="#FBBA8C" d="M217.63,50.296c0.021,0,0.042,0.002,0.064,0.006c0.171,0.035,0.282,0.201,0.248,0.372
								c-0.033,0.169-0.075,0.665,0.123,0.932c0.083,0.112,0.201,0.172,0.371,0.19c1.441,0.149,4.119,1.17,3.934,3.962
								c-0.012,0.174-0.16,0.304-0.336,0.294c-0.174-0.012-0.306-0.162-0.294-0.336c0.19-2.889-3.333-3.287-3.369-3.292
								c-0.345-0.036-0.628-0.189-0.816-0.445c-0.396-0.539-0.25-1.34-0.232-1.429C217.352,50.4,217.483,50.296,217.63,50.296z"/>
							<path fill="#FBBA8C" d="M220.442,54.432c0.063,0,0.185,0.024,0.282,0.191c0.168,0.29,0.193,0.901-0.043,1.313
								c-0.027,0.046-0.057,0.09-0.088,0.13c0.018,0.017,0.034,0.025,0.048,0.025c0.058,0.004,0.104-0.013,0.145-0.052
								c0.14-0.129,0.178-0.456,0.18-0.559c0.002-0.086,0.072-0.154,0.157-0.154l0.939-0.003c0.087,0,0.159,0.07,0.159,0.157
								s-0.07,0.158-0.157,0.159l-0.795,0.002c-0.023,0.178-0.087,0.462-0.269,0.63c-0.104,0.096-0.234,0.142-0.376,0.136
								c-0.109-0.006-0.198-0.054-0.27-0.13c-0.146,0.088-0.318,0.133-0.513,0.133h0c-0.087,0-0.159-0.07-0.158-0.157
								c-0.001-0.087,0.069-0.158,0.156-0.158h0.001h0c0.136-0.001,0.253-0.03,0.352-0.089c-0.104-0.268-0.131-0.612-0.126-0.841
								C220.079,54.693,220.212,54.433,220.442,54.432z M220.437,55.721c0.02-0.042,0.037-0.087,0.051-0.136
								c0.107-0.356,0.027-0.703-0.041-0.812C220.38,54.912,220.349,55.352,220.437,55.721z"/>
							<path fill="#FBBA8C" d="M218.557,54.439c0.23-0.001,0.365,0.258,0.38,0.729c0.007,0.229-0.02,0.573-0.12,0.842
								c0.098,0.058,0.216,0.087,0.352,0.087h0.001l0,0c0.088,0,0.158,0.07,0.158,0.157c0.001,0.087-0.069,0.158-0.157,0.159h0
								c-0.194,0-0.367-0.043-0.513-0.13c-0.071,0.076-0.16,0.125-0.269,0.132c-0.143,0.007-0.273-0.038-0.377-0.133
								c-0.182-0.167-0.248-0.451-0.273-0.628l-0.794,0.003c-0.087,0-0.159-0.07-0.159-0.158s0.07-0.158,0.158-0.158l0.939-0.003
								c0.085-0.001,0.156,0.067,0.159,0.152c0.003,0.104,0.044,0.432,0.185,0.559c0.041,0.038,0.087,0.055,0.145,0.05
								c0.013,0,0.029-0.009,0.047-0.026c-0.032-0.04-0.062-0.083-0.088-0.129c-0.239-0.41-0.22-1.021-0.053-1.313
								C218.372,54.464,218.493,54.439,218.557,54.439z M218.571,55.728c0.086-0.37,0.051-0.81-0.017-0.947
								c-0.066,0.109-0.144,0.457-0.035,0.812C218.534,55.641,218.551,55.686,218.571,55.728z"/>
							<path fill="#FBBA8C" d="M219.5,54.693c0.307-0.001,0.448,0.481,0.45,0.931s-0.137,0.933-0.444,0.934
								c-0.308,0.001-0.449-0.481-0.45-0.931C219.055,55.178,219.193,54.694,219.5,54.693z M219.484,55.005h-0.002H219.484z
								 M219.505,56.229c0.049-0.063,0.13-0.271,0.129-0.604c-0.001-0.333-0.083-0.54-0.133-0.603
								c-0.049,0.063-0.13,0.27-0.129,0.604C219.374,55.959,219.457,56.167,219.505,56.229z"/>
						</g>
					</g>
				</g>
			</g>
			<path fill="#F1F2F2" d="M178.44,351.01V18.795h-6.25V35.87h-44.547V18.795h-6.252V351.01h6.252v-17.778h44.547v17.778H178.44z
				 M127.642,42.513h44.547v17.583h-44.547V42.513z M127.642,66.739h44.547v17.583h-44.547V66.739z M127.642,90.965h44.547v17.583
				h-44.547V90.965z M127.642,115.192h44.547v17.583h-44.547V115.192z M127.642,139.418h44.547v17.585h-44.547V139.418z
				 M127.642,163.645h44.547v17.585h-44.547V163.645z M127.642,187.872h44.547v17.583h-44.547V187.872z M127.642,212.098h44.547
				v17.585h-44.547V212.098z M127.642,236.324h44.547v17.584h-44.547V236.324z M127.642,260.553h44.547v17.582h-44.547V260.553z
				 M127.642,284.778h44.547v17.583h-44.547V284.778z M127.642,326.587v-17.583h44.547v17.583H127.642z"/>
			<g>
				<path fill="#F6C89A" d="M163.272,42.227c0,0,3.496-1.465,5.853-4.581l-6.041,1.889L163.272,42.227z"/>
				<path fill="#F6C89A" d="M167.626,35.842c0.496-0.278,1.161-0.034,1.487,0.547l0,0c0.327,0.58,0.191,1.276-0.304,1.555
					l-4.108,2.313c-0.495,0.279-1.161,0.035-1.488-0.546l0,0c-0.327-0.581-0.19-1.277,0.304-1.556L167.626,35.842z"/>
				<path fill="#F8CDA5" d="M164.787,31.43c0.281-0.493,0.979-0.626,1.557-0.296l0,0c0.579,0.33,0.82,0.997,0.539,1.49l-2.333,4.097
					c-0.282,0.494-0.978,0.627-1.558,0.297l0,0c-0.579-0.33-0.82-0.998-0.538-1.491L164.787,31.43z"/>
				<path fill="#F8CDA5" d="M166.655,33.024c0.281-0.493,0.979-0.626,1.557-0.297l0,0c0.579,0.33,0.821,0.998,0.54,1.491
					l-2.333,4.097c-0.282,0.494-0.979,0.626-1.559,0.297l0,0c-0.578-0.33-0.82-0.997-0.538-1.491L166.655,33.024z"/>
				<path fill="#F8CDA5" d="M162.528,30.673c0.281-0.493,0.979-0.625,1.557-0.296l0,0c0.58,0.33,0.82,0.998,0.54,1.491l-2.333,4.097
					c-0.281,0.494-0.979,0.626-1.558,0.297l0,0c-0.579-0.33-0.82-0.998-0.539-1.491L162.528,30.673z"/>
				<path fill="#1F2020" d="M112.392,66.577c0,0-13.575-4.982-9.059-24.21c4.085-17.393,25.628-14.04,27.369-9.961
					C132.442,36.484,112.392,66.577,112.392,66.577z"/>
				<path fill="#F8CDA5" d="M160.266,29.77c0.281-0.493,0.979-0.626,1.557-0.297l0,0c0.58,0.33,0.82,0.997,0.54,1.491l-2.333,4.097
					c-0.282,0.494-0.979,0.627-1.558,0.297l0,0c-0.578-0.329-0.82-0.997-0.538-1.491L160.266,29.77z"/>
				<path fill="#F6C89A" d="M157.89,33.942c1.737-3.049,4.495-3.41,6.875-2.056c2.377,1.354,3.475,3.911,1.738,6.961
					c-1.735,3.049-5.649,5.436-8.027,4.081C156.097,41.574,156.154,36.991,157.89,33.942z"/>
				<path fill="#434D72" d="M162.708,42.383c-1.754-0.8-7.538-3.438-7.538-3.438l-12.474,21.845l-12.678,12.517
					c-1.883,0.371-3.857,0.266-5.798,0.082c-0.681-0.065-7.199-0.636-7.205-0.536c0,0.002-1.727,44.716-1.727,44.716l21.476,1.696
					c0,0,3.248-22.057,1.997-34.822c-0.05-0.511,10.466-14.847,10.979-15.592C151.071,66.913,162.708,42.383,162.708,42.383z"/>
				<g>
					<path fill="#5C2517" d="M128.352,170.811l0.874,10.073l21.375-2.2c0,0,1.65-2.352-1.366-5.477
						c-3.017-3.125-8.915,0.137-13.334-5.622L128.352,170.811z"/>
					<path fill="#3D1911" d="M129.003,178.33l0.223,2.554l21.375-2.2c0,0,0.727-1.076,0.293-2.729
						C143.606,176.823,136.312,177.645,129.003,178.33z"/>
				</g>
				<g>
					<path fill="#5C2517" d="M109.091,147.223l-9.537,3.359l7.467,20.149c0,0,2.688,1.012,4.961-2.689
						c2.273-3.702-2.357-8.599,2.115-14.316L109.091,147.223z"/>
					<path fill="#3D1911" d="M101.972,149.729l-2.417,0.853l7.466,20.149c0,0,1.223,0.436,2.714-0.396
						C107.077,163.494,104.46,156.636,101.972,149.729z"/>
				</g>
				<path fill="#222B4A" d="M133.101,109.57c-0.382,0.04,6.066,28.57,6.066,28.57c-2.811,2.287-24.893,18.768-24.893,18.768
					c-0.003-0.006-5.982-10.883-5.982-10.883l17.087-11.746l-6.948-23.24C118.432,111.04,133.088,109.571,133.101,109.57z"/>
				<polygon fill="#2D3756" points="104.615,110.881 123.186,145.091 127.484,170.856 138.923,170.458 135.305,140.198 
					120.479,103.627 				"/>
				<g>
					<path fill="#3C515A" d="M124.663,69.935c-1.611,0.216-4.62,1.221-5.245,5.68c0,0,3.774-2.37,5.899,0.037
						c-0.293-0.514-0.473-1.104-0.498-1.736L124.663,69.935z"/>
				</g>
				<path fill="#D6D6D6" d="M131.597,72.866c0,0,6.393,16.956,0.726,36.599c0,0-5.58,2.936-19.009,1.187l-3.218-35.704
					L131.597,72.866z"/>
				<path fill="#434D72" d="M115.025,71.691c-2.559,0.587-4.906,0.406-6.406,0.164c-0.052-0.013-0.102-0.03-0.154-0.042
					l-4.371,14.558c-0.169,2.468-3.149,32.667-3.159,32.669l16.242,0.022C117.177,119.061,121.785,82.808,115.025,71.691z"/>
				<path fill="#222B4A" d="M115.775,73.021l-3.942,5.997l3.621,11.665l-1.884,3.293l4.453,17.171c0,0,0.044-0.099,0.104-0.243
					C118.965,101.906,120.203,81.905,115.775,73.021z"/>
				<path fill="#434D72" d="M133.305,108.582c2.268-6.563,5.962-20.588,1.655-33.256l-1.473-3.115l-3.007,0.391l-0.153-0.163
					c0.013,0.061,0.021,0.119,0.034,0.18l-0.371,0.047l0.698,1.897c0,0,0.091,0.376,0.237,1.057
					c2.259,12.374,2.129,23.486,1.93,32.882L133.305,108.582z"/>
				<path fill="#222B4A" d="M130.327,72.439l4.904,5.24l-1.588,12.11l2.416,2.925l-2.917,13.613c0,0-0.758,3.394-0.841,3.263
					C132.523,99.148,133.369,86.664,130.327,72.439z"/>
				<g>
					<path fill="#F7BC91" d="M122.448,77.846L122.448,77.846c-2.112,0.083-3.891-1.561-3.974-3.672l-0.383-9.705l7.646-0.301
						l0.382,9.704C126.203,75.984,124.559,77.763,122.448,77.846z"/>
					<path fill="#D8996F" d="M118.419,72.786c1.235,0.403,2.526,0.599,3.851,0.547c1.325-0.052,2.596-0.349,3.796-0.848
						l-0.267-6.749l-7.646,0.301L118.419,72.786z"/>
				</g>
				<polygon fill="#B42226" points="122.825,80.162 123.93,78.256 124.117,77.768 120.796,77.902 121.022,78.374 122.008,79.955 
									"/>
				<g>
					<path fill="#B5B5B6" d="M126.102,74.548c0.989-0.629,1.853-1.027,1.853-1.027c-0.91,4.773-4.748,4.364-4.748,4.364
						c0.002-0.048,0.008-0.098,0.015-0.146C124.739,77.37,125.887,76.101,126.102,74.548z"/>
					<path fill="#B5B5B6" d="M118.559,74.854c-1.038-0.546-1.931-0.873-1.931-0.873c1.294,4.684,5.086,3.965,5.086,3.965
						c-0.006-0.049-0.016-0.097-0.026-0.145C120.146,77.557,118.898,76.384,118.559,74.854z"/>
				</g>
				<g>
					<path fill="#FFFFFF" d="M118.321,70.192c-1.611,0.216-4.62,1.221-5.246,5.68c0,0,3.775-2.37,5.899,0.037
						c-0.292-0.515-0.472-1.104-0.497-1.736L118.321,70.192z"/>
					<path fill="#FFFFFF" d="M125.96,69.882c1.624,0.085,4.704,0.843,5.688,5.236c0,0-3.955-2.057-5.877,0.515
						c0.25-0.537,0.382-1.139,0.355-1.771L125.96,69.882z"/>
				</g>
				<path fill="#B42226" d="M121.905,79.503c0,0,3.806,12.087-16.648,19.195l-2.491,6.685l8.358-2.526
					c0,0,12.913-9.88,11.718-22.797L121.905,79.503z"/>
				<g>
					<g>
						<g>
							<path fill="#1A1A1A" d="M39.145,101.515l-7.302,6.17c-1.703,1.439-1.917,3.985-0.479,5.688l18.832,22.29
								c1.438,1.703,3.985,1.917,5.687,0.478l7.303-6.17l-16.978-10.039L39.145,101.515z"/>
						</g>
						<path fill="#1A1A1A" d="M70.296,118.679L51.465,96.39c-1.439-1.703-3.985-1.916-5.688-0.478l-5.823,4.92l7.062,18.416
							l16.979,10.038l5.823-4.919C71.52,122.928,71.734,120.381,70.296,118.679z"/>
					</g>
					<path fill="#1A1A1A" d="M57.178,103.973l2.601-2.197c0.491-0.414,1.225-0.352,1.64,0.138l5.093,6.029
						c0.415,0.49,0.352,1.225-0.138,1.639l-2.601,2.197l1.462,1.731l2.6-2.197c1.444-1.221,1.626-3.388,0.406-4.833l-5.094-6.029
						c-1.22-1.443-3.387-1.626-4.832-0.406l-2.6,2.197L57.178,103.973z"/>
				</g>
				<path fill="#434D72" d="M109.159,71.839l-17.898,3.18l-23.346,21.83l6.957,5.665l17.317-17.076l14.191-1.605
					C106.38,83.832,115.262,79.431,109.159,71.839"/>
				<g>
					<path fill="#F6C89A" d="M64.626,97.377c-2.798,2.117-2.799,4.9-1.147,7.083c1.651,2.183,4.329,2.939,7.127,0.822
						c2.799-2.117,4.658-6.306,3.006-8.489C71.96,94.61,67.424,95.26,64.626,97.377z"/>
					<path fill="#F6C89A" d="M73.538,101.639c0,0-1,3.657-3.783,6.397l1.09-6.235L73.538,101.639z"/>
					<path fill="#F6C89A" d="M68.411,109.211c-0.095,0.56,0.362,1.104,1.018,1.215l0,0c0.657,0.111,0.699-0.354,0.794-0.915
						l0.785-4.648c0.094-0.561-0.361-1.105-1.018-1.216l0,0c-0.657-0.11-1.266,0.254-1.361,0.814L68.411,109.211z"/>
					<path fill="#F6C89A" d="M63.029,104.541c-0.453,0.342-0.494,1.051-0.092,1.583l0,0c0.401,0.531,1.094,0.684,1.547,0.341
						l3.76-2.845c0.453-0.342,0.495-1.051,0.093-1.583l0,0c-0.401-0.531-1.095-0.684-1.549-0.341L63.029,104.541z"/>
					<path fill="#F6C89A" d="M64.853,106.187c-0.453,0.343-0.494,1.051-0.093,1.583l0,0c0.402,0.531,1.096,0.684,1.549,0.342
						l3.759-2.845c0.454-0.342,0.494-1.052,0.092-1.583l0,0c-0.401-0.531-1.094-0.684-1.547-0.341L64.853,106.187z"/>
					<path fill="#F6C89A" d="M61.986,102.398c-0.452,0.343-0.494,1.052-0.092,1.583l0,0c0.402,0.531,1.095,0.684,1.548,0.341
						l3.76-2.845c0.453-0.342,0.495-1.051,0.092-1.583l0,0c-0.402-0.531-1.095-0.684-1.548-0.341L61.986,102.398z"/>
					<path fill="#F6C89A" d="M60.797,100.273c-0.453,0.343-0.494,1.052-0.092,1.583l0,0c0.401,0.532,1.094,0.684,1.548,0.341
						l3.759-2.845c0.453-0.343,0.494-1.051,0.093-1.583l0,0c-0.402-0.531-1.095-0.684-1.548-0.341L60.797,100.273z"/>
				</g>
				<g>
					<path fill="#F7BC91" d="M106.882,45.227c-3.752,0.686-4.532,3.693-4.035,7.521c0.49,3.779,3.063,6.592,5.856,6.519
						L106.882,45.227z"/>
					<path fill="#FDCFAF" d="M107.189,47.592c-0.03-0.205-1.766,0.823-1.942,0.964c-0.755,0.603-1.174,1.556-1.248,2.505
						c-0.154,1.992,1.023,4.064,2.668,5.142c0.512,0.335,1.088,0.586,1.693,0.688c0.004,0,0.036,0.003,0.037,0.009
						c-0.001-0.003-0.727-5.598-1.052-8.11C107.252,48.074,107.192,47.607,107.189,47.592z"/>
					<g>
						<path fill="#EAAE86" d="M107.3,48.45c-0.148-0.005-1.18,0.498-1.271,0.55c-1.084,0.622-1.821,1.658-1.919,2.919
							c-0.015,0.184-0.014,0.369-0.006,0.553c-0.1-0.465-0.141-0.939-0.104-1.41c0.056-0.728,0.336-1.425,0.796-1.991
							c0.498-0.613,1.144-1.043,1.866-1.327c0.067-0.026,0.527-0.151,0.527-0.151"/>
					</g>
				</g>
				<g>
					<path fill="#F7BC91" d="M135.377,44.275c3.81,0.181,4.983,3.058,5,6.917c0.017,3.811-2.158,6.941-4.938,7.24L135.377,44.275z"
						/>
					<path fill="#FDCFAF" d="M135.388,46.66c0.002-0.208,1.86,0.581,2.053,0.697c0.828,0.498,1.371,1.386,1.57,2.317
						c0.417,1.954-0.473,4.164-1.96,5.451c-0.462,0.4-1,0.725-1.586,0.907c-0.003,0.001-0.035,0.008-0.035,0.014
						c0-0.003-0.025-5.644-0.037-8.178C135.389,47.145,135.387,46.675,135.388,46.66z"/>
					<g>
						<path fill="#EAAE86" d="M135.393,47.525c0.146-0.025,1.235,0.336,1.332,0.376c1.158,0.473,2.026,1.4,2.291,2.638
							c0.039,0.18,0.063,0.363,0.079,0.547c0.039-0.474,0.015-0.95-0.084-1.412c-0.152-0.713-0.522-1.367-1.054-1.868
							c-0.574-0.541-1.272-0.88-2.026-1.066c-0.069-0.017-0.542-0.08-0.542-0.08"/>
					</g>
				</g>
				<path fill="#F7BC91" d="M107.282,56.459c0.055,8.324,6.93,15.025,15.356,14.966c8.426-0.059,15.212-6.854,15.157-15.178
					c-0.054-8.324-3.659-23.5-15.411-23.418C110.022,32.915,107.227,48.136,107.282,56.459z"/>
				<path fill="#EAAE86" d="M136.333,56.596c-0.113-4.375-0.41-8.576-1.643-11.349l1.162,2.58c1.365,2.328,1.922,5.21,1.944,8.42
					c0.057,8.324-6.905,15.12-15.549,15.178C130.081,71.373,136.542,64.73,136.333,56.596z"/>
				<path fill="#EAAE86" d="M109.405,47.529c-0.662,1.998-0.709,6.748-0.692,9.259c0.054,8.137,6.288,14.69,13.926,14.638
					c-8.426,0.059-15.301-6.642-15.356-14.966c-0.016-2.363,0.207-4.551,0.812-6.477L109.405,47.529z"/>
				<path fill="#1F2020" d="M108.152,44.345c0.861-6.559,2.294-12.459,8.554-14.177v-0.055c1.292-0.325,2.732-0.526,4.343-0.59
					c0.022,0,0.044-0.002,0.066-0.003c0.277-0.01,0.558-0.018,0.846-0.02c0.01,0,0.019,0.001,0.028,0c0.009,0,0.018,0,0.028-0.001
					c0.287-0.001,0.569,0.003,0.846,0.01c0.023,0.001,0.044,0.001,0.066,0.002c1.61,0.045,3.054,0.23,4.35,0.541v0.055
					c6.278,1.647,9.168,6.527,10.102,13.075c0.293,1.089,1.207,5.032,0.608,9.98c-0.041,0.336-0.512,0.379-0.61,0.055l-1.642-5.691
					c-0.572-0.055-3.725-10.023-3.725-10.023s-0.127,0.065-0.357,0.177c-1.987,3.116-7.105,8.098-19.332,7.333
					c0,0,4.395-0.108,12.31-4.458c-3.039,1.496-9.902,3.296-13.727,2.276l-2.638,11.547c-0.095,0.325-0.567,0.287-0.611-0.048
					C107.002,49.39,107.871,45.437,108.152,44.345z"/>
				<path fill="#1F2020" d="M125.533,66.599l-0.004-0.015c0,0,1.962,2.575,3.459,1.446c0,0-0.571,2.105-2.601,1.842l0.002,0.01
					c-1.645,1.223-3.17-0.338-3.17-0.338C125.061,69.796,125.525,66.656,125.533,66.599z"/>
				<g>
					
						<ellipse transform="matrix(0.999 -0.0442 0.0442 0.999 -2.1614 5.2699)" fill="#D8996F" cx="118.019" cy="51.483" rx="2.606" ry="2.887"/>
					
						<ellipse transform="matrix(0.999 -0.0444 0.0444 0.999 -2.1398 5.2894)" fill="#010101" cx="117.988" cy="50.81" rx="2.606" ry="2.887"/>
					<circle fill="#FFFFFF" cx="118.619" cy="49.999" r="1.045"/>
					
						<ellipse transform="matrix(0.999 -0.0442 0.0442 0.999 -2.124 5.8664)" fill="#D8996F" cx="131.543" cy="50.944" rx="2.606" ry="2.887"/>
					
						<ellipse transform="matrix(0.999 -0.0442 0.0442 0.999 -2.0946 5.8655)" fill="#010101" cx="131.513" cy="50.271" rx="2.606" ry="2.887"/>
					<circle fill="#FFFFFF" cx="132.144" cy="49.46" r="1.045"/>
					<path fill="#F58670" d="M124.926,51.401c0,0-0.4,3.502,1.224,3.222c3.142-0.544,3.118,6.304-1.612,3.729
						c-1.784-0.971-1.166-6.912-1.166-6.912L124.926,51.401z"/>
					<path fill="#422314" d="M113.35,47.327c0.002-0.005,0.07-0.125,0.224-0.309l0.055-0.061c1.33-1.502,3.485-1.969,5.407-1.713
						c0.167,0.022,0.326,0.061,0.467,0.094c0.047,0.011,0.091,0.022,0.14,0.033l0.022,0.006c0.176,0.043,0.34,0.084,0.48,0.142
						c0.124,0.045,0.232,0.09,0.325,0.128l0.045,0.019c0.204,0.085,0.318,0.144,0.322,0.146c0,0,0.479,0.249,0.486,0.253
						c-0.142-0.074-1.487,0.077-1.866,0.098c-0.735,0.042-1.467,0.131-2.19,0.267c-1.448,0.271-2.86,0.728-4.191,1.36
						C113.175,47.736,113.29,47.435,113.35,47.327z"/>
					<path fill="#422314" d="M135.842,46.596c-0.003-0.005-0.075-0.124-0.234-0.301l-0.057-0.061
						c-1.376-1.459-3.544-1.859-5.458-1.543c-0.167,0.028-0.325,0.071-0.464,0.109c-0.046,0.013-0.091,0.024-0.139,0.037
						l-0.022,0.006c-0.173,0.049-0.336,0.095-0.475,0.157c-0.123,0.049-0.229,0.098-0.32,0.139l-0.046,0.021
						c-0.201,0.092-0.313,0.154-0.317,0.156c0,0-0.47,0.264-0.478,0.268c0.138-0.078,1.488,0.03,1.868,0.04
						c0.736,0.019,1.471,0.085,2.198,0.198c1.455,0.226,2.882,0.638,4.23,1.229C136.029,47,135.905,46.703,135.842,46.596z"/>
				</g>
				<g>
					<g>
						<path fill="#1F2020" d="M131.869,66.479c0.501-0.491,1.064-0.931,1.694-1.299c-0.879-2.238-1.781-3.742-2.542-4.179
							c-0.69-0.396-4.879-1.008-6.294-0.731l-0.034,0.007l-0.035,0.001c-1.452,0.031-5.403,1.529-5.991,2.063
							c-0.871,0.79-1.579,3.497-1.905,7.267c0.67,0.362,1.376,0.679,2.106,0.942c0.054-3.473,0.474-5.581,1.252-6.269
							c0.647-0.573,2.249-1.171,4.762-1.777l0.05-0.012l0.052,0.002c2.584,0.053,4.277,0.293,5.032,0.714
							C130.658,63.564,131.278,64.671,131.869,66.479z"/>
					</g>
				</g>
				<g>
					<path fill="#DD6C5E" d="M125.368,66.686c2.251-0.306,3.727-1.898,3.75-1.923c0.148-0.164,0.135-0.416-0.028-0.564
						c-0.164-0.148-0.417-0.135-0.565,0.027c-0.128,0.14-3.156,3.381-7.122,0.589c-0.18-0.127-0.43-0.083-0.557,0.097
						c-0.127,0.181-0.084,0.43,0.097,0.557C122.584,66.623,124.099,66.858,125.368,66.686z"/>
				</g>
				<path fill="#1F2020" d="M124.137,69.438c-0.081,0.017-0.159,0.033-0.237,0.049c-0.094,0.018-0.188,0.033-0.281,0.048
					c-0.101,0.015-0.2,0.028-0.298,0.04c-0.07,0.008-0.14,0.017-0.208,0.023c-0.049,0.005-0.096,0.004-0.145,0.008v0.004
					c-0.096,0.005-0.195,0.014-0.288,0.014c-0.014,0-0.026,0-0.039,0c-0.006,0-0.012,0.001-0.019,0.001
					c-0.005,0-0.011,0-0.016-0.001c-0.006,0.001-0.011,0.001-0.016,0.001c-0.007,0-0.014-0.001-0.02-0.001
					c-0.013,0.001-0.026,0.001-0.039,0.001c-0.092,0.001-0.192-0.006-0.289-0.011v-0.004c-0.049-0.003-0.095-0.002-0.144-0.006
					c-0.069-0.005-0.14-0.014-0.209-0.021c-0.099-0.011-0.197-0.022-0.3-0.037c-0.092-0.013-0.186-0.028-0.281-0.045
					c-0.077-0.014-0.158-0.029-0.237-0.046c-13.354-2.872-12.476-15.993-12.239-17.973h-1.415c0,0-0.594,3.457,0.022,7.049
					c0.024,0.164,0.058,0.325,0.087,0.488c0.006,0.027,0.011,0.056,0.018,0.084c1.314,7.051,7.577,12.374,15.087,12.322
					c8.167-0.058,14.791-6.441,15.143-14.412C135.582,63.065,131.052,67.948,124.137,69.438z"/>
			</g>
			<g>
				<path fill="#422314" d="M62.651,212.321c0,0-13.089,10.263,2.403,27.898L62.651,212.321z"/>
				<g>
					<path fill="#F9A464" d="M87.118,242.663v-0.006C87.162,242.661,87.157,242.662,87.118,242.663z"/>
					<path fill="#F9A464" d="M73.866,246.784l0.002,0.004C73.836,246.811,73.832,246.812,73.866,246.784z"/>
				</g>
				<path fill="#F9A464" d="M80.479,244.73v-0.006C80.523,244.729,80.518,244.729,80.479,244.73z"/>
				<path fill="#F9A464" d="M80.505,244.717l0.003,0.004C80.476,244.743,80.471,244.744,80.505,244.717z"/>
				<path fill="#F9A464" d="M87.118,242.663v-0.006C87.162,242.661,87.157,242.662,87.118,242.663z"/>
				<path fill="#F9A464" d="M73.866,246.784l0.002,0.004C73.836,246.811,73.832,246.812,73.866,246.784z"/>
				<g>
					<path fill="#F7BC91" d="M82.597,251.447L82.597,251.447c2.113-0.66,3.29-2.909,2.629-5.021l-3.036-9.709l-7.65,2.392
						l3.036,9.709C78.237,250.931,80.484,252.107,82.597,251.447z"/>
					<path fill="#D8996F" d="M84.792,245.038c-1.078,0.832-2.281,1.479-3.607,1.894c-1.325,0.415-2.683,0.569-4.043,0.498
						l-2.111-6.752l7.651-2.392L84.792,245.038z"/>
				</g>
				<g>
					<path fill="#F7BC91" d="M59.809,224.55c-3.437,1.274-3.676,4.251-2.569,7.791c1.093,3.496,3.998,5.73,6.629,5.196
						L59.809,224.55z"/>
					<path fill="#FDCFAF" d="M60.493,226.738c-0.063-0.189-1.535,1.073-1.678,1.235c-0.614,0.697-0.853,1.669-0.764,2.579
						c0.186,1.911,1.645,3.677,3.38,4.423c0.541,0.232,1.127,0.374,1.718,0.37c0.003,0,0.034-0.003,0.036,0.002
						c-0.002-0.003-1.619-5.178-2.346-7.502C60.632,227.184,60.498,226.752,60.493,226.738z"/>
					<g>
						<path fill="#EAAE86" d="M60.74,227.531c-0.141,0.021-1.034,0.668-1.111,0.732c-0.923,0.771-1.449,1.873-1.33,3.083
							c0.017,0.176,0.048,0.351,0.086,0.523c-0.173-0.423-0.29-0.865-0.333-1.317c-0.068-0.698,0.08-1.404,0.421-2.017
							c0.369-0.663,0.91-1.178,1.546-1.567c0.059-0.036,0.474-0.23,0.474-0.23"/>
					</g>
				</g>
				<g>
					<path fill="#F7BC91" d="M62.356,235.31c2.387,7.637,10.751,11.817,18.682,9.338c7.93-2.479,12.423-10.68,10.035-18.316
						c-2.387-7.637-10.045-20.549-21.105-17.091C58.334,212.878,59.969,227.674,62.356,235.31z"/>
					<path fill="#EAAE86" d="M89.568,236.651c1.228-3.096,1.101-6.425,0.266-9.591c-1.062-4.026-3.104-7.783-5.879-10.885
						c-0.492-0.55-4.535-5.203-5.19-4.579c0,0,0.485-0.457,1.793-0.691c5.324,3.548,8.993,10.557,10.515,15.427
						c0.843,2.692,0.814,5.452,0.094,8.011c-0.238,0.847-0.554,1.671-0.941,2.464c-0.022,0.046-0.045,0.093-0.068,0.139
						c-0.369,0.736-0.803,1.443-1.292,2.114c-0.083,0.114-0.168,0.228-0.256,0.34c-0.143,0.186-0.287,0.37-0.438,0.549
						c-0.215,0.252-0.437,0.497-0.669,0.734c-0.131,0.135-0.268,0.264-0.404,0.395c-0.182,0.174-0.37,0.345-0.562,0.51
						c-0.117,0.102-0.231,0.205-0.352,0.303c-0.299,0.243-0.611,0.475-0.931,0.697c-0.111,0.077-0.226,0.15-0.339,0.225
						c-0.301,0.196-0.609,0.386-0.925,0.563c-0.064,0.035-0.125,0.074-0.189,0.108c-0.378,0.205-0.773,0.392-1.173,0.566
						c-0.102,0.043-0.203,0.086-0.304,0.127c-0.418,0.173-0.844,0.334-1.284,0.472C84.925,243.432,88.071,240.428,89.568,236.651z"
						/>
					<path fill="#EAAE86" d="M61.853,226.49c-0.064,2.025,1.225,6.407,1.945,8.71c2.334,7.465,10.053,11.694,17.241,9.447
						c-7.93,2.479-16.294-1.701-18.682-9.338c-0.678-2.167-1.082-4.242-1.052-6.187L61.853,226.49z"/>
				</g>
				<path fill="#422314" d="M64.708,210.829l-0.014-0.047c1.104-0.634,2.379-1.207,3.841-1.712c0.02-0.008,0.04-0.016,0.06-0.022
					c0.115-0.039,0.236-0.077,0.354-0.115l0-0.002c0.113-0.037,0.222-0.075,0.338-0.111c0.008-0.002,0.017-0.005,0.025-0.007
					c0.008-0.003,0.016-0.006,0.024-0.009c0.006-0.001,0.011-0.003,0.016-0.005c0.006-0.001,0.011-0.003,0.016-0.005
					c0.008-0.002,0.017-0.005,0.025-0.008c0.009-0.002,0.018-0.006,0.025-0.008c0.115-0.036,0.227-0.066,0.341-0.101l0.001,0.002
					c0.119-0.035,0.239-0.072,0.356-0.105c0.021-0.006,0.042-0.011,0.062-0.017c1.491-0.415,2.865-0.666,4.135-0.77l0.013,0.045
					c3.417-0.214,10.858,2.466,12.251,9.278c-1.397-1.979-4.28-4.79-4.28-4.79s-18.117,3.129-19.049,6.696
					c-0.934,3.566,0.619,13.82,0.619,13.82c-0.004,0.298-3.61-2.919-4.954-8.192C58.037,218.924,59.394,214.023,64.708,210.829z"/>
				<g>
					<path fill="#422314" d="M70.845,213.506l-9.345,5.455c0.003-0.052,0.005-0.103,0.009-0.152
						c0.114-1.611-0.878-3.491-0.341-5.015c2.005-5.685,1.316-8.487,0.789-8.683c0.902,0.25,1.791,0.657,2.522,1.248
						c0.497,0.401,1.485,1.383,1.383,2.11c0,0,0.974-1.351-0.582-3.509c0,0,5.181,2.213,5.513,5.148
						C70.88,210.876,70.92,212.085,70.845,213.506z"/>
					<path fill="#422314" d="M78.797,208.79l-8.064,4.707c-0.813-0.706-1.46-1.349-1.871-1.818
						c-1.946-2.224-0.091-7.543-0.091-7.543c0.547,2.604,2.2,2.794,2.2,2.794c-0.606-0.415-0.666-1.807-0.627-2.444
						c0.056-0.938,0.353-1.869,0.776-2.704c-0.212,0.521,0.822,4.018,6.375,6.364C77.946,208.336,78.377,208.555,78.797,208.79z"/>
				</g>
				<path fill="#422314" d="M61.2,218.458c0.016,0.06,0.039,0.118,0.069,0.175c0.15,0.29,0.475,0.443,0.787,0.537
					c1.024,0.308,2.124,0.19,3.182,0.038c5.001-0.719,10.526-1.842,14.823-4.633c1.618-1.05,3.765-3.519,0.889-4.359
					c-2.608-0.763-5.821,0.049-8.323,0.828c-2.393,0.745-4.697,1.848-6.855,3.111C64.844,214.698,60.769,216.895,61.2,218.458z"/>
				<g>
					<path fill="#1C1C1C" d="M67.174,225.7c0-0.006,0.028-0.116,0.108-0.298l0.03-0.062c0.717-1.499,2.327-2.362,3.916-2.596
						c0.138-0.021,0.273-0.026,0.394-0.031c0.039-0.002,0.078-0.004,0.118-0.006l0.019-0.001c0.15-0.005,0.291-0.01,0.416,0.004
						c0.109,0.008,0.205,0.02,0.287,0.028l0.041,0.006c0.181,0.021,0.285,0.042,0.29,0.042c0,0,0.438,0.09,0.445,0.091
						c-0.129-0.026-1.167,0.4-1.464,0.504c-0.576,0.2-1.139,0.438-1.684,0.711c-1.091,0.546-2.112,1.231-3.027,2.038
						C67.128,226.065,67.152,225.799,67.174,225.7z"/>
				</g>
				<g>
					<g>
						
							<ellipse transform="matrix(0.9047 -0.426 0.426 0.9047 -90.6055 53.1279)" fill="#D8996F" cx="73.457" cy="229.1" rx="2.32" ry="2.57"/>
						
							<ellipse transform="matrix(0.9047 -0.426 0.426 0.9047 -90.3986 52.9671)" fill="#010101" cx="73.201" cy="228.557" rx="2.32" ry="2.57"/>
						<circle fill="#FFFFFF" cx="73.441" cy="227.675" r="0.93"/>
					</g>
					<g>
						
							<ellipse transform="matrix(0.9047 -0.426 0.426 0.9047 -87.4354 57.1208)" fill="#D8996F" cx="83.968" cy="224.01" rx="2.32" ry="2.57"/>
						
							<ellipse transform="matrix(0.9047 -0.426 0.426 0.9047 -87.2131 56.9447)" fill="#010101" cx="83.712" cy="223.466" rx="2.32" ry="2.57"/>
						<circle fill="#FFFFFF" cx="83.952" cy="222.584" r="0.931"/>
					</g>
					<path fill="#F58670" d="M78.538,225.052c0,0,0.875,3.015,2.111,2.227c2.395-1.525,4.725,4.107-0.044,3.616
						c-1.798-0.185-3.331-5.277-3.331-5.277L78.538,225.052z"/>
					<g>
						<path fill="#1C1C1C" d="M83.974,218.427c-0.004-0.002-0.107-0.052-0.298-0.104l-0.065-0.016
							c-1.614-0.396-3.303,0.302-4.491,1.382c-0.103,0.094-0.194,0.195-0.274,0.284c-0.026,0.029-0.052,0.058-0.079,0.088
							l-0.013,0.015c-0.099,0.112-0.192,0.218-0.26,0.323c-0.063,0.089-0.115,0.171-0.16,0.24l-0.022,0.035
							c-0.099,0.154-0.149,0.248-0.151,0.251c0,0-0.209,0.396-0.212,0.402c0.062-0.117,1.049-0.649,1.317-0.813
							c0.521-0.318,1.062-0.603,1.618-0.852c1.114-0.497,2.291-0.852,3.495-1.048C84.286,218.624,84.065,218.473,83.974,218.427z"/>
					</g>
					<g>
						<path fill="#992220" d="M84.414,232.838c0,0-4.655,2.905-8.232,0.967c0,0,0.247,6.271,5.905,4.758
							C85.661,237.607,84.414,232.838,84.414,232.838z"/>
						<path fill="#F15737" d="M84.128,236.973c-0.374,0.711-1.003,1.313-2.042,1.59c-1.283,0.344-2.288,0.285-3.075-0.009
							c-0.229-0.091-0.445-0.199-0.65-0.322c-0.005-0.003-0.01-0.006-0.014-0.009c-0.002-0.001-0.004-0.003-0.006-0.004
							c-0.651-0.421-1.106-1.024-1.426-1.649C79.603,234.523,82.756,236.034,84.128,236.973z"/>
						<path fill="#FFFFFF" d="M84.414,232.838L84.414,232.838c0,0,0.01,0.041,0.026,0.114c-0.445,0.303-0.902,1.751-2.132,2.207
							c-0.779,0.289-1.621,0.384-2.447,0.337c-0.514-0.028-1.037-0.044-1.534-0.193c-0.378-0.114-0.866-0.714-1.159-1.089
							C80.558,235.243,84.413,232.838,84.414,232.838z"/>
						<g>
							<path fill="#DD6C5E" d="M82.162,238.847c-1.692,0.452-3.097,0.279-4.174-0.515c-1.958-1.442-2.096-4.391-2.101-4.516
								c-0.004-0.105,0.049-0.205,0.138-0.262c0.09-0.056,0.203-0.059,0.295-0.009c3.383,1.833,7.892-0.93,7.937-0.958
								c0.08-0.05,0.178-0.058,0.264-0.023c0.087,0.034,0.152,0.108,0.176,0.198c0.012,0.049,1.151,4.564-1.989,5.897
								C82.54,238.731,82.357,238.795,82.162,238.847z M76.528,234.298c0.125,0.863,0.532,2.621,1.811,3.563
								c0.927,0.682,2.162,0.822,3.671,0.418c2.722-0.728,2.402-3.876,2.2-4.984C83.086,233.91,79.57,235.583,76.528,234.298z"/>
						</g>
					</g>
				</g>
				<path fill="#2D3756" d="M94.463,245.898l10.521,33.398l-16.141,7.834c0,0-10.607-32.618-9.379-43.743L94.463,245.898z"/>
				<g>
					<g>
						<path fill="#5C2517" d="M98.821,328.051l-0.221,9.3l19.77,0.15c0,0,1.748-1.983-0.695-5.146
							c-2.442-3.163-8.166-0.776-11.625-6.49L98.821,328.051z"/>
						<path fill="#3D1911" d="M98.656,334.992l-0.055,2.357l19.77,0.151c0,0,0.773-0.911,0.545-2.465
							C112.163,335.092,105.409,335.105,98.656,334.992z"/>
					</g>
					<polygon fill="#222B4A" points="83.636,283.124 96.282,305.188 97.976,328.12 107.917,327.439 107.917,299.193 98.109,274.101 
											"/>
					<path fill="#D6D6D6" d="M90.779,244.729c0,0,7.792,22.086,8.146,28.936c0.051,1.005-6.88,3.863-7.624,4.199
						c-3.593,1.624-13.856,6.672-16.889,2.554c-1.267-1.719-0.558-4.646-0.635-6.718c-0.086-2.328-0.19-4.654-0.307-6.981
						c-0.099-1.973-1.039-20.353-1.291-20.347C72.182,246.37,90.779,244.729,90.779,244.729z"/>
				</g>
				<path fill="#2D3756" d="M72.908,246.975c0.139-0.304,0.313-0.581,0.518-0.835c0.017-0.021,0.039-0.036,0.055-0.056l15.748,3.077
					l0.81,2.898c-4.064,2.106-8.479,4.396-8.479,4.396c-2.316,0.526-5.389-1.933-7.248-3.584
					C72.773,251.508,71.998,248.959,72.908,246.975z"/>
				<g>
					<g>
						<path fill="#512016" d="M62.757,322.595l-3.499,8.619l18.437,7.14c0,0,2.336-1.236,1.171-5.059
							c-1.165-3.823-7.362-3.618-8.574-10.186L62.757,322.595z"/>
						<path fill="#28110E" d="M60.146,329.028l-0.886,2.186l18.436,7.14c0,0,1.046-0.578,1.382-2.112
							C72.742,333.902,66.421,331.524,60.146,329.028z"/>
					</g>
					<g>
						<polygon fill="#2D3756" points="71.66,326.506 62.026,322.595 80.672,270.78 95.699,276.881 						"/>
					</g>
				</g>
				<path fill="#434D72" d="M89.228,248.757l9.645,34.528l-26.354,5.231c0,0-2.821-32.206,0.153-42.996L89.228,248.757z"/>
				<path fill="#2D3756" d="M73.406,248.06c0.139-0.304,0.313-0.58,0.518-0.835c0.016-0.021,0.038-0.035,0.054-0.056l15.748,3.078
					l0.81,2.898c-4.063,2.105-8.48,4.396-8.48,4.396c-2.315,0.526-5.389-1.933-7.247-3.584
					C73.272,252.593,72.496,250.045,73.406,248.06z"/>
				<g>
					<path fill="#D9B087" d="M121.441,212.383c0.17-0.497-0.164-1.062-0.747-1.261l0,0c-0.582-0.2-1.192,0.04-1.362,0.537
						l-1.415,4.121c-0.169,0.496,0.164,1.062,0.746,1.262l0,0c0.583,0.199,1.194-0.041,1.364-0.538L121.441,212.383z"/>
					<path fill="#F6C89A" d="M124.8,220.912c2.481-2.089,2.346-4.656,0.717-6.592c-1.629-1.935-4.138-2.503-6.618-0.413
						c-2.481,2.089-3.994,6.044-2.365,7.979C118.165,223.82,122.32,223.001,124.8,220.912z"/>
					<path fill="#F6C89A" d="M125.928,214.224c0.401-0.338,0.405-0.994,0.008-1.465l0,0c-0.397-0.472-1.043-0.578-1.445-0.24
						l-3.332,2.807c-0.402,0.339-0.407,0.994-0.01,1.465l0,0c0.396,0.472,1.044,0.579,1.446,0.24L125.928,214.224z"/>
					<path fill="#F6C89A" d="M124.166,212.793c0.401-0.338,0.405-0.994,0.009-1.465l0,0c-0.397-0.472-1.044-0.579-1.446-0.241
						l-3.332,2.808c-0.401,0.338-0.405,0.994-0.009,1.465l0,0c0.396,0.472,1.043,0.578,1.446,0.24L124.166,212.793z"/>
					<path fill="#F6C89A" d="M126.993,216.15c0.401-0.338,0.405-0.995,0.009-1.465l0,0c-0.396-0.472-1.044-0.579-1.445-0.241
						l-3.332,2.808c-0.402,0.338-0.406,0.994-0.01,1.465l0,0c0.397,0.471,1.044,0.579,1.447,0.24L126.993,216.15z"/>
					<path fill="#F6C89A" d="M128.193,218.054c0.402-0.338,0.406-0.994,0.009-1.465l0,0c-0.397-0.471-1.043-0.578-1.445-0.24
						l-3.333,2.808c-0.402,0.338-0.405,0.993-0.009,1.465l0,0c0.396,0.471,1.043,0.579,1.445,0.24L128.193,218.054z"/>
				</g>
				<path fill="#434D72" d="M72.672,245.521c1.299-1.721,3.901-2.466,5.821-3.019c3.009-0.866,5.886-1.924,8.825-3.03
					c3.652-1.375,7.305-2.751,10.957-4.126l18.544-19.071l4.916,6.515l-19.662,21.116L81.11,255.588
					c-2.299,0.596-5.444-1.771-7.352-3.365c-1.576-1.317-2.429-3.842-1.579-5.852C72.31,246.063,72.476,245.78,72.672,245.521z"/>
			</g>
			<g>
				<g>
					<path fill="#5C2517" d="M204.677,326.537l-2.613,8.917l-18.857-5.86c0,0-1.06-2.416,2.224-4.685
						c3.285-2.269,8.006,1.739,13.032-2.646L204.677,326.537z"/>
					<path fill="#3D1911" d="M202.726,333.193l-0.662,2.26l-18.857-5.858c0,0-0.459-1.102,0.23-2.511
						C189.845,329.187,196.267,331.25,202.726,333.193z"/>
				</g>
				<g>
					<g>
						<g>
							<path fill="#3C2518" d="M238.271,230.558c0.567-1.764-0.402-3.653-2.166-4.22c-1.675-0.539-3.462,0.311-4.123,1.908
								c-1.225,0.181-2.303,1.031-2.708,2.289c-0.567,1.764,0.402,3.652,2.167,4.22c1.674,0.539,3.461-0.311,4.122-1.909
								C236.789,232.666,237.867,231.815,238.271,230.558z"/>
						</g>
						<g>
							<path fill="#3C515A" d="M222.387,235.416c-1.611-0.357-4.832-0.452-6.987,3.58c0,0,4.428-0.939,5.611,2.099
								c-0.1-0.593-0.064-1.217,0.133-1.829L222.387,235.416z"/>
						</g>
						<g>
							<path fill="#F7BC91" d="M217.508,242.183L217.508,242.183c-2.042-0.659-3.164-2.85-2.504-4.891l3.03-9.386l7.395,2.387
								l-3.03,9.386C221.739,241.721,219.55,242.842,217.508,242.183z"/>
							<path fill="#D8996F" d="M215.438,235.949c1.037,0.817,2.198,1.455,3.48,1.869c1.28,0.413,2.596,0.575,3.915,0.519
								l2.107-6.526l-7.395-2.388L215.438,235.949z"/>
						</g>
						<g>
							<path fill="#F7BC91" d="M240.683,217.055c3.321,1.266,3.525,4.154,2.42,7.576c-1.091,3.379-3.926,5.52-6.473,4.978
								L240.683,217.055z"/>
							<path fill="#FDCFAF" d="M240,219.17c0.062-0.183,1.478,1.054,1.615,1.213c0.589,0.681,0.812,1.625,0.718,2.507
								c-0.198,1.852-1.628,3.55-3.318,4.258c-0.525,0.22-1.095,0.352-1.667,0.343c-0.003,0.001-0.034-0.003-0.035,0.003
								c0.001-0.004,1.616-5.006,2.342-7.253C239.86,219.601,239.995,219.184,240,219.17z"/>
							<g>
								<path fill="#EAAE86" d="M239.753,219.938c0.136,0.021,0.996,0.656,1.069,0.719c0.889,0.755,1.388,1.829,1.264,3.001
									c-0.019,0.171-0.051,0.34-0.089,0.507c0.171-0.409,0.289-0.837,0.336-1.274c0.071-0.676-0.066-1.362-0.391-1.959
									c-0.352-0.646-0.872-1.149-1.485-1.532C240.4,219.362,240,219.17,240,219.17"/>
							</g>
						</g>
						<path fill="#F7BC91" d="M237.61,227.324c-2.383,7.381-10.529,11.359-18.194,8.885c-7.666-2.475-11.948-10.465-9.564-17.846
							c2.382-7.382,9.921-19.83,20.612-16.38C241.71,205.614,239.993,219.942,237.61,227.324z"/>
						<path fill="#EAAE86" d="M211.054,219.083c1.326-3.855,2.768-7.506,4.64-9.625l-1.755,1.967
							c-1.865,1.687-3.167,4.092-4.086,6.938c-2.384,7.381,1.898,15.371,9.564,17.846
							C212.469,233.966,208.589,226.253,211.054,219.083z"/>
						<path fill="#EAAE86" d="M238.177,218.778c0.044,1.965-1.245,6.2-1.963,8.427c-2.33,7.216-9.851,11.246-16.798,9.004
							c7.665,2.475,15.811-1.504,18.194-8.885c0.676-2.096,1.087-4.104,1.074-5.989L238.177,218.778z"/>
						<path fill="#EAAE86" d="M230.464,201.983c-9.672-3.122-16.763,6.77-19.792,14.148c0.111,0.035,0.242,0.01,0.324-0.11
							l2.816-4.241c1.083-0.274,2.006-1.079,2.373-2.222c0.113-0.354,0.162-0.712,0.158-1.064c0.83-0.175,1.576-0.658,2.069-1.367
							c0.26,0.178,0.549,0.323,0.865,0.425c1.763,0.566,3.653-0.403,4.219-2.167c0.029-0.089,0.051-0.18,0.073-0.27
							c0.405,0.599,1.004,1.072,1.746,1.312c0.329,0.105,0.662,0.157,0.99,0.161c0.198,1.202,1.042,2.254,2.281,2.652
							c1.279,0.411,2.622,0.011,3.481-0.912c-0.077,1.482,0.84,2.889,2.319,3.364c0.771,0.248,1.564,0.202,2.263-0.075
							c0,0.008,0,0.015,0,0.023c0.095,1.142,0.79,2.062,1.437,2.686l-0.017,0.658c-0.028,0.071-0.058,0.142-0.081,0.215
							c-0.23,0.716-0.204,1.45,0.022,2.109l-0.199,7.815c-0.005,0.21,0.184,0.321,0.352,0.288
							C240.184,217.702,240.805,205.321,230.464,201.983z"/>
						<path fill="#3C2518" d="M244.718,216.188c0.45-1.4-0.07-2.877-1.186-3.711c0.475-0.395,0.849-0.921,1.052-1.552
							c0.35-1.088,0.113-2.224-0.533-3.067c0.119-0.206,0.221-0.427,0.296-0.662c0.437-1.358-0.042-2.79-1.088-3.636
							c0.068-0.141,0.131-0.286,0.181-0.44c0.567-1.764-0.403-3.653-2.167-4.22c-0.806-0.259-1.635-0.194-2.355,0.117
							c-0.307-1.021-1.093-1.879-2.185-2.229c-1.288-0.414-2.641-0.006-3.499,0.93c0.182-1.56-0.754-3.08-2.305-3.579
							c-0.194-0.062-0.39-0.103-0.585-0.129c-0.345-0.314-0.758-0.563-1.231-0.716c-1.512-0.486-3.115,0.16-3.899,1.467
							c-0.076-0.03-0.151-0.062-0.23-0.087c-1.406-0.452-2.889,0.074-3.721,1.199c-0.154-0.078-0.313-0.147-0.482-0.202
							c-1.763-0.566-3.653,0.403-4.219,2.167c-0.059,0.18-0.096,0.361-0.122,0.542c-1.577-0.208-3.125,0.729-3.629,2.297
							c-0.246,0.766-0.202,1.555,0.071,2.249c-0.025,0.065-0.053,0.129-0.074,0.196c-0.114,0.354-0.163,0.712-0.16,1.064
							c-1.141,0.239-2.125,1.065-2.506,2.254c-0.53,1.649,0.284,3.409,1.834,4.094c-0.448,1.217-0.87,2.629-1.164,4.203
							c-0.059,0.31,0.349,0.48,0.527,0.22l2.816-4.241c1.083-0.274,2.005-1.08,2.373-2.222c0.114-0.354,0.163-0.712,0.158-1.064
							c0.83-0.174,1.576-0.658,2.068-1.367c0.261,0.178,0.55,0.323,0.865,0.425c1.764,0.566,3.653-0.403,4.22-2.167
							c0.029-0.089,0.051-0.18,0.072-0.27c0.406,0.599,1.005,1.072,1.746,1.312c0.329,0.105,0.662,0.157,0.99,0.161
							c0.198,1.202,1.042,2.254,2.282,2.652c1.279,0.411,2.622,0.011,3.481-0.912c-0.076,1.482,0.84,2.889,2.32,3.364
							c0.771,0.248,1.565,0.202,2.262-0.075c0.001,0.008,0.001,0.015,0.001,0.023c0.095,1.142,0.79,2.062,1.437,2.686l-0.017,0.658
							c-0.028,0.071-0.058,0.142-0.082,0.215c-0.23,0.716-0.204,1.45,0.022,2.109l-0.197,7.814c-0.008,0.315,0.421,0.415,0.555,0.13
							c1.012-2.152,1.593-4.182,1.93-5.796C242.363,218.865,244.166,217.904,244.718,216.188z"/>
					</g>
					<g>
						
							<ellipse transform="matrix(-0.9395 -0.3426 0.3426 -0.9395 365.7029 507.195)" fill="#D8996F" cx="227.655" cy="221.293" rx="2.428" ry="2.689"/>
						
							<ellipse transform="matrix(-0.9395 -0.3426 0.3426 -0.9395 366.3221 506.1228)" fill="#010101" cx="227.87" cy="220.702" rx="2.428" ry="2.69"/>
						<circle fill="#FFFFFF" cx="227.536" cy="219.805" r="0.973"/>
					</g>
					<g>
						
							<ellipse transform="matrix(-0.9396 -0.3424 0.3424 -0.9396 345.0845 494.8685)" fill="#D8996F" cx="216.217" cy="216.979" rx="2.427" ry="2.69"/>
						
							<ellipse transform="matrix(-0.9395 -0.3426 0.3426 -0.9395 345.6193 493.8383)" fill="#010101" cx="216.433" cy="216.389" rx="2.428" ry="2.69"/>
						<circle fill="#FFFFFF" cx="216.099" cy="215.492" r="0.974"/>
					</g>
					<path fill="#F58670" d="M221.976,217.553c0,0-0.626,3.225-1.99,2.52c-2.64-1.363-4.538,4.729,0.386,3.767
						c1.858-0.363,2.974-5.815,2.974-5.815L221.976,217.553z"/>
					<g>
						<path fill="#3C2518" d="M233.882,217.155c-0.002-0.005-0.04-0.118-0.141-0.3l-0.037-0.062
							c-0.889-1.495-2.649-2.242-4.327-2.336c-0.146-0.008-0.288-0.001-0.413,0.004c-0.042,0.002-0.082,0.004-0.124,0.006
							l-0.02,0.001c-0.157,0.009-0.304,0.017-0.433,0.043c-0.112,0.019-0.212,0.039-0.297,0.058l-0.042,0.009
							c-0.187,0.039-0.294,0.07-0.298,0.072c0,0-0.448,0.134-0.455,0.137c0.132-0.04,1.253,0.306,1.574,0.386
							c0.619,0.155,1.228,0.35,1.822,0.583c1.188,0.466,2.317,1.084,3.348,1.838C233.964,217.532,233.915,217.257,233.882,217.155z"
							/>
						<path fill="#3C2518" d="M215.683,211.161c0.005-0.003,0.107-0.064,0.301-0.138l0.067-0.022
							c1.645-0.565,3.47,0.003,4.811,1.017c0.117,0.088,0.221,0.185,0.313,0.27c0.03,0.028,0.059,0.056,0.092,0.085l0.014,0.014
							c0.114,0.107,0.22,0.209,0.302,0.313c0.074,0.087,0.136,0.167,0.189,0.235l0.026,0.034c0.118,0.151,0.179,0.244,0.181,0.248
							c0,0,0.254,0.393,0.258,0.399c-0.075-0.116-1.154-0.578-1.45-0.724c-0.573-0.283-1.163-0.528-1.767-0.735
							c-1.208-0.413-2.469-0.672-3.743-0.763C215.376,211.396,215.593,211.217,215.683,211.161z"/>
					</g>
					<g>
						<path fill="#992220" d="M216.587,226.224c0,0,5.125,2.589,8.671,0.23c0,0,0.334,6.56-5.706,5.518
							C215.737,231.313,216.587,226.224,216.587,226.224z"/>
						<path fill="#F15737" d="M217.274,230.507c0.456,0.706,1.168,1.273,2.278,1.465c1.37,0.236,2.412,0.081,3.204-0.3
							c0.229-0.117,0.445-0.25,0.647-0.397c0.004-0.004,0.009-0.007,0.014-0.011c0.001-0.002,0.004-0.003,0.006-0.005
							c0.639-0.5,1.057-1.172,1.33-1.854C221.76,227.526,218.617,229.399,217.274,230.507z"/>
						<path fill="#FFFFFF" d="M216.587,226.224L216.587,226.224c0,0-0.007,0.043-0.018,0.122c0.492,0.272,1.105,1.739,2.432,2.099
							c0.839,0.228,1.724,0.247,2.582,0.12c0.533-0.078,1.077-0.144,1.58-0.347c0.384-0.154,0.835-0.826,1.106-1.243
							C220.832,228.367,216.588,226.224,216.587,226.224z"/>
						<g>
							<path fill="#DD6C5E" d="M218.913,232.132c-3.398-1.094-2.638-5.908-2.629-5.959c0.016-0.097,0.077-0.18,0.165-0.224
								c0.087-0.045,0.19-0.046,0.277-0.001c0.049,0.025,5.009,2.479,8.363,0.25c0.092-0.062,0.21-0.069,0.309-0.019
								c0.098,0.049,0.164,0.148,0.169,0.259c0.006,0.13,0.141,3.217-1.763,4.905c-1.048,0.93-2.496,1.243-4.303,0.931
								C219.292,232.238,219.096,232.19,218.913,232.132z M216.841,226.68c-0.107,1.175-0.142,4.486,2.764,4.988
								c1.611,0.278,2.886,0.015,3.787-0.782c1.245-1.102,1.501-2.974,1.551-3.886C221.894,228.628,218.071,227.216,216.841,226.68z
								"/>
						</g>
					</g>
				</g>
				<path fill="#2D3756" d="M206.785,239.517l-10.507,33.357l16.12,7.824c0,0,10.594-32.578,9.367-43.689L206.785,239.517z"/>
				<path fill="#2D3756" d="M204.38,328.314l-9.701-4.431c0.194-0.647,0.387-1.294,0.58-1.941
					c2.038-6.829,8.847-32.481,11.429-41.134c0.833-2.794,1.667-5.587,2.501-8.381c0.115-0.387,0.211-0.787,0.348-1.166
					c0.46-1.281,1.329-1.351,2.669-1.68c3.852-0.947,7.954-0.879,11.765,0.227c0.74,0.215,1.494,0.48,2.056,1.008
					c3.563,3.335-0.767,9.351-2.302,12.706C219.017,293.816,207.168,321.99,204.38,328.314z"/>
				<g>
					<path fill="#D9B087" d="M180.021,205.781c-0.177-0.516,0.17-1.103,0.775-1.31l0,0c0.606-0.208,1.239,0.042,1.417,0.558
						l1.47,4.284c0.177,0.516-0.169,1.104-0.774,1.312l0,0c-0.605,0.207-1.24-0.044-1.417-0.56L180.021,205.781z"/>
					<path fill="#F6C89A" d="M176.531,214.647c-2.579-2.171-2.439-4.84-0.746-6.852c1.695-2.011,4.301-2.602,6.879-0.431
						c2.578,2.172,4.15,6.283,2.457,8.294C183.428,217.671,179.108,216.819,176.531,214.647z"/>
					<path fill="#F6C89A" d="M175.358,207.695c-0.417-0.352-0.421-1.033-0.009-1.522l0,0c0.413-0.49,1.084-0.602,1.502-0.25
						l3.463,2.917c0.418,0.352,0.422,1.034,0.01,1.523l0,0c-0.412,0.489-1.085,0.601-1.503,0.249L175.358,207.695z"/>
					<path fill="#F6C89A" d="M177.19,206.208c-0.417-0.352-0.422-1.033-0.01-1.522l0,0c0.413-0.489,1.085-0.602,1.502-0.25
						l3.464,2.917c0.417,0.352,0.421,1.034,0.009,1.523l0,0c-0.412,0.49-1.084,0.602-1.501,0.25L177.19,206.208z"/>
					<path fill="#F6C89A" d="M174.251,209.698c-0.417-0.352-0.421-1.034-0.01-1.523l0,0c0.413-0.489,1.086-0.601,1.503-0.25
						l3.463,2.918c0.417,0.352,0.421,1.033,0.009,1.522l0,0c-0.413,0.489-1.085,0.602-1.502,0.25L174.251,209.698z"/>
					<path fill="#F6C89A" d="M173.003,211.677c-0.417-0.352-0.421-1.033-0.009-1.522l0,0c0.412-0.489,1.084-0.602,1.501-0.25
						l3.464,2.918c0.417,0.352,0.422,1.032,0.009,1.522l0,0c-0.412,0.489-1.084,0.602-1.502,0.25L173.003,211.677z"/>
				</g>
				<path fill="#D6D6D6" d="M210.465,238.348c0,0-7.782,22.059-8.136,28.9c-0.051,1.003,6.872,3.858,7.613,4.193
					c3.59,1.622,13.838,6.664,16.868,2.551c1.265-1.718,0.557-4.641,0.634-6.71c0.087-2.324,0.191-4.648,0.307-6.972
					c0.098-1.971,1.037-20.328,1.29-20.322C229.039,239.987,210.465,238.348,210.465,238.348z"/>
				<path fill="#434D72" d="M212.014,242.371l-9.633,34.485l24.347,7.052c0,0,4.791-33.992,1.821-44.77L212.014,242.371z"/>
				<path fill="#2D3756" d="M227.889,241.603c-0.139-0.304-0.313-0.58-0.518-0.834c-0.016-0.021-0.038-0.036-0.054-0.056
					l-15.728,3.074l-0.809,2.895c4.058,2.103,8.469,4.391,8.469,4.391c2.313,0.526,5.382-1.93,7.239-3.579
					C228.023,246.13,228.798,243.584,227.889,241.603z"/>
				<path fill="#222B4A" d="M212.73,239.892l2.857,4.299l-4.632,10.022l1.297,3.176l-6.185,10.96c0,0-1.998,2.729-2.035,2.595
					L212.73,239.892z"/>
				<path fill="#434D72" d="M228.549,239.139c-1.297-1.718-3.896-2.463-5.813-3.015c-3.004-0.865-5.879-1.921-8.813-3.026
					c-3.648-1.374-7.295-2.747-10.943-4.121l-18.522-19.047l-4.91,6.506l19.638,21.091l20.937,11.667
					c2.295,0.595,5.437-1.768,7.342-3.36c1.574-1.316,2.426-3.837,1.577-5.845C228.912,239.681,228.746,239.398,228.549,239.139z"/>
			</g>
			<g>
				<g>
					<path fill="#1C1C1C" d="M204.732,219.396c-7.791-4.886-11.931-2.41-13.675-0.557c-4.769,2.129-8.669,6.584-10.167,12.37
						c-2.48,9.582,2.561,19.175,11.259,21.426c8.698,2.251,18.953-3.057,21.433-12.638
						C215.697,231.832,211.153,223.027,204.732,219.396z"/>
					<g>
						<g>
							<path fill="#F7BC91" d="M210.758,237.797c3.466,1.096,3.846,4.034,2.92,7.594c-0.915,3.516-3.683,5.87-6.317,5.467
								L210.758,237.797z"/>
							<path fill="#FDCFAF" d="M210.186,239.997c0.053-0.19,1.571,0.989,1.722,1.144c0.642,0.66,0.925,1.611,0.881,2.518
								c-0.092,1.903-1.453,3.722-3.137,4.545c-0.524,0.256-1.099,0.425-1.683,0.449c-0.004,0-0.035-0.001-0.036,0.005
								c0-0.004,1.354-5.209,1.962-7.546C210.068,240.444,210.181,240.012,210.186,239.997z"/>
							<g>
								<path fill="#EAAE86" d="M209.979,240.795c0.14,0.014,1.056,0.612,1.136,0.672c0.952,0.718,1.525,1.785,1.467,2.99
									c-0.009,0.175-0.031,0.35-0.061,0.522c0.15-0.428,0.246-0.872,0.267-1.321c0.034-0.694-0.147-1.388-0.515-1.978
									c-0.397-0.639-0.958-1.122-1.607-1.478c-0.06-0.033-0.48-0.206-0.48-0.206"/>
							</g>
						</g>
					</g>
					<g>
						<path fill="#3C515A" d="M194.062,256.428c-1.667-0.27-4.962-0.176-6.925,4.069c0,0,4.466-1.221,5.855,1.813
							c-0.136-0.6-0.138-1.239,0.028-1.876L194.062,256.428z"/>
					</g>
					<g>
						<path fill="#F7BC91" d="M189.479,263.628L189.479,263.628c-2.125-0.553-3.399-2.724-2.848-4.848l2.541-9.766l7.693,2.001
							l-2.54,9.766C193.772,262.905,191.602,264.18,189.479,263.628z"/>
						<path fill="#D8996F" d="M186.994,257.384c1.107,0.773,2.332,1.356,3.665,1.703c1.333,0.346,2.686,0.434,4.029,0.298
							l1.766-6.791l-7.693-2.001L186.994,257.384z"/>
					</g>
					<g>
						<path fill="#F7BC91" d="M209.137,247.264c-1.997,7.681-10.082,12.225-18.057,10.151c-7.976-2.074-12.822-9.982-10.825-17.662
							c1.997-7.681,8.961-20.842,20.086-17.949C212.041,224.847,211.134,239.584,209.137,247.264z"/>
					</g>
					<path fill="#EAAE86" d="M181.525,240.417c1.126-4.017,2.383-7.83,4.17-10.105l-1.677,2.113
						c-1.805,1.833-2.994,4.366-3.764,7.328c-1.998,7.68,2.849,15.588,10.825,17.662
						C183.85,255.534,179.431,247.886,181.525,240.417z"/>
					<path fill="#EAAE86" d="M209.211,238.502c0.161,2.004-0.905,6.406-1.507,8.723c-1.953,7.508-9.395,12.07-16.624,10.19
						c7.976,2.073,16.06-2.471,18.057-10.151c0.567-2.18,0.868-4.255,0.744-6.18L209.211,238.502z"/>
					<g>
						<path fill="#EAAE86" d="M191.792,224.853c0,0-8.51,9.039-8.36,15.056c0,0-1.343-2.167-0.878-5.23
							C183.018,231.613,185.617,221.825,191.792,224.853z"/>
						<path fill="#EAAE86" d="M207.652,225.838c-7.099-6.808-17.877-6.251-18.148,0.502c0,0,8.111-2.807,9.633,1.583
							c1.522,4.391-0.701,12.978,5.027,13.29c0,0-1.479-1.13-1.403-4.847c0,0,1.751,4.417,4.898,5.543
							c-0.188,1.503-0.555,2.881-1.19,3.961c0,0,2.006-1.125,3.133-3.728c0.002-0.001,0.003-0.001,0.005-0.001
							C209.607,242.142,214.752,232.646,207.652,225.838z"/>
						<path fill="#1C1C1C" d="M203.696,238.855c-0.002-0.004-0.028-0.115-0.108-0.297l-0.03-0.062
							c-0.717-1.499-2.328-2.361-3.916-2.596c-0.139-0.021-0.275-0.026-0.394-0.031c-0.039-0.002-0.078-0.003-0.119-0.006
							l-0.019-0.001c-0.149-0.005-0.29-0.01-0.415,0.004c-0.109,0.009-0.206,0.02-0.287,0.029l-0.042,0.004
							c-0.181,0.022-0.285,0.043-0.29,0.044c0,0-0.438,0.089-0.445,0.09c0.128-0.026,1.166,0.4,1.464,0.504
							c0.576,0.2,1.138,0.438,1.684,0.711c1.091,0.546,2.112,1.231,3.027,2.038C203.741,239.222,203.718,238.955,203.696,238.855z"
							/>
					</g>
					<path fill="#1C1C1C" d="M192.097,223.673c0,0-8.537,9.146-8.403,15.22c0,0-1.338-2.184-0.865-5.278
						C183.301,230.521,185.926,220.632,192.097,223.673z"/>
					<g>
						<g>
							
								<ellipse transform="matrix(-0.9047 -0.426 0.426 -0.9047 272.83 545.5249)" fill="#D8996F" cx="197.413" cy="242.256" rx="2.32" ry="2.571"/>
							
								<ellipse transform="matrix(-0.9047 -0.426 0.426 -0.9047 273.5214 544.6065)" fill="#010101" cx="197.669" cy="241.713" rx="2.32" ry="2.57"/>
							<circle fill="#FFFFFF" cx="197.429" cy="240.831" r="0.931"/>
						</g>
						<g>
							
								<ellipse transform="matrix(-0.9047 -0.426 0.426 -0.9047 254.9778 531.353)" fill="#D8996F" cx="186.902" cy="237.166" rx="2.32" ry="2.57"/>
							
								<ellipse transform="matrix(-0.9047 -0.426 0.426 -0.9047 255.6964 530.4277)" fill="#010101" cx="187.158" cy="236.623" rx="2.32" ry="2.57"/>
							<circle fill="#FFFFFF" cx="186.918" cy="235.74" r="0.931"/>
						</g>
						<path fill="#F58670" d="M192.332,238.208c0,0-0.875,3.015-2.111,2.227c-2.395-1.525-4.725,4.107,0.043,3.616
							c1.799-0.185,3.331-5.277,3.331-5.277L192.332,238.208z"/>
						<g>
							<path fill="#1C1C1C" d="M186.895,231.584c0.005-0.002,0.108-0.053,0.298-0.105l0.066-0.016
								c1.614-0.396,3.302,0.302,4.49,1.382c0.104,0.094,0.195,0.195,0.274,0.284c0.026,0.029,0.053,0.059,0.08,0.089l0.013,0.014
								c0.098,0.112,0.192,0.218,0.26,0.324c0.063,0.089,0.116,0.17,0.16,0.24l0.022,0.034c0.098,0.154,0.148,0.248,0.15,0.252
								c0,0,0.208,0.395,0.212,0.401c-0.062-0.116-1.049-0.649-1.317-0.813c-0.52-0.317-1.061-0.603-1.618-0.851
								c-1.114-0.498-2.292-0.853-3.495-1.049C186.584,231.78,186.804,231.63,186.895,231.584z"/>
						</g>
						<g>
							<path fill="#992220" d="M186.457,245.994c0,0,4.654,2.905,8.233,0.967c0,0-0.248,6.271-5.906,4.759
								C185.209,250.764,186.457,245.994,186.457,245.994z"/>
							<path fill="#F15737" d="M186.741,250.129c0.374,0.712,1.003,1.313,2.042,1.591c1.284,0.343,2.288,0.284,3.074-0.009
								c0.23-0.092,0.446-0.2,0.651-0.323c0.004-0.003,0.009-0.006,0.013-0.009c0.002-0.001,0.005-0.003,0.007-0.004
								c0.651-0.421,1.106-1.023,1.425-1.649C191.268,247.681,188.114,249.191,186.741,250.129z"/>
							<path fill="#FFFFFF" d="M186.457,245.994L186.457,245.994c0,0-0.01,0.041-0.026,0.114c0.445,0.303,0.902,1.75,2.133,2.207
								c0.779,0.289,1.619,0.384,2.446,0.337c0.514-0.028,1.037-0.044,1.533-0.193c0.379-0.113,0.867-0.714,1.16-1.088
								C190.312,248.399,186.458,245.994,186.457,245.994z"/>
							<g>
								<path fill="#DD6C5E" d="M188.162,251.816c-3.14-1.333-2.002-5.849-1.989-5.896c0.023-0.091,0.089-0.164,0.176-0.199
									c0.087-0.034,0.184-0.026,0.264,0.023c0.044,0.028,4.553,2.792,7.936,0.959c0.093-0.051,0.206-0.048,0.296,0.009
									c0.089,0.056,0.142,0.155,0.138,0.261c-0.005,0.125-0.143,3.073-2.101,4.516c-1.077,0.794-2.481,0.968-4.174,0.515
									C188.513,251.951,188.33,251.888,188.162,251.816z M186.66,246.45c-0.203,1.109-0.522,4.257,2.199,4.985
									c1.511,0.403,2.746,0.263,3.672-0.419c1.279-0.941,1.686-2.699,1.811-3.563C191.299,248.739,187.784,247.066,186.66,246.45z
									"/>
							</g>
						</g>
					</g>
				</g>
				<path fill="#1C1C1C" d="M207.965,224.629c-7.087-6.856-17.874-6.268-18.161,0.551c0,0,8.122-2.853,9.635,1.575
					c1.512,4.429-0.733,13.103,4.998,13.405c0,0-1.478-1.138-1.393-4.891c0,0,1.081,2.751,3.072,4.478
					c-0.701,3.378-0.63,6.822-1.833,7.981c0,0,5.84-1.914,6.647-9.301C211.952,235.092,212.733,229.241,207.965,224.629z"/>
				<g>
					<path fill="#D9B087" d="M149.829,225.928c-0.17-0.496,0.163-1.061,0.746-1.261l0,0c0.583-0.2,1.192,0.041,1.363,0.538
						l1.414,4.121c0.17,0.496-0.163,1.061-0.745,1.261l0,0c-0.583,0.2-1.194-0.041-1.364-0.538L149.829,225.928z"/>
					<path fill="#F6C89A" d="M146.47,234.458c-2.481-2.09-2.346-4.657-0.717-6.592s4.137-2.504,6.618-0.415
						c2.48,2.09,3.994,6.045,2.364,7.979C153.105,237.366,148.95,236.547,146.47,234.458z"/>
					<path fill="#F6C89A" d="M145.342,227.769c-0.402-0.338-0.405-0.994-0.008-1.465l0,0c0.396-0.471,1.043-0.578,1.444-0.24
						l3.333,2.807c0.402,0.339,0.407,0.994,0.01,1.466l0,0c-0.397,0.471-1.044,0.578-1.445,0.239L145.342,227.769z"/>
					<path fill="#F6C89A" d="M147.104,226.338c-0.401-0.338-0.405-0.994-0.009-1.465l0,0c0.396-0.471,1.044-0.578,1.445-0.24
						l3.333,2.807c0.401,0.338,0.405,0.994,0.009,1.466l0,0c-0.397,0.471-1.044,0.578-1.446,0.239L147.104,226.338z"/>
					<path fill="#F6C89A" d="M144.276,229.695c-0.401-0.338-0.405-0.994-0.009-1.465l0,0c0.397-0.471,1.044-0.578,1.445-0.24
						l3.333,2.807c0.401,0.339,0.406,0.994,0.009,1.465l0,0c-0.396,0.471-1.043,0.579-1.445,0.241L144.276,229.695z"/>
					<path fill="#F6C89A" d="M143.077,231.6c-0.402-0.339-0.406-0.994-0.01-1.465l0,0c0.397-0.472,1.044-0.579,1.446-0.24
						l3.332,2.807c0.402,0.339,0.406,0.994,0.009,1.465l0,0c-0.396,0.471-1.043,0.579-1.445,0.241L143.077,231.6z"/>
				</g>
				<g>
					<g>
						<path fill="#5C2517" d="M192.619,340.829l-0.221,9.3l19.77,0.15c0,0,1.748-1.982-0.695-5.146s-8.166-0.777-11.625-6.49
							L192.619,340.829z"/>
						<path fill="#3D1911" d="M192.455,347.771l-0.056,2.357l19.77,0.15c0,0,0.774-0.91,0.544-2.465
							C205.96,347.87,199.206,347.884,192.455,347.771z"/>
					</g>
					<polygon fill="#2D3756" points="177.434,295.902 190.562,318.674 191.773,340.899 202.091,340.3 202.197,312.68 
						192.921,289.374 					"/>
				</g>
				<path fill="#434D72" d="M182.536,262.129l-9.645,34.528l26.354,5.231c0,0,2.821-32.206-0.153-42.996L182.536,262.129z"/>
				<path fill="#2D3756" d="M198.406,261.603c-0.139-0.304-0.313-0.581-0.518-0.835c-0.017-0.021-0.038-0.036-0.055-0.056
					l-15.748,3.078l-0.81,2.897c4.064,2.106,8.479,4.397,8.479,4.397c2.316,0.525,5.39-1.934,7.248-3.585
					C198.541,266.136,199.316,263.587,198.406,261.603z"/>
				<path fill="#434D72" d="M199.092,258.893c-1.299-1.721-3.901-2.466-5.822-3.019c-3.008-0.866-5.885-1.924-8.823-3.03
					c-3.653-1.375-7.306-2.751-10.958-4.126l-18.544-19.071l-4.916,6.515l19.662,21.116l20.962,11.683
					c2.298,0.596,5.444-1.771,7.352-3.365c1.576-1.317,2.429-3.841,1.579-5.853C199.454,259.436,199.288,259.152,199.092,258.893z"
					/>
			</g>
		</g>
	</g>
</g>
<g id="Designed_By_Freepik">
</g>
</svg>
