<?xml version="1.0" encoding="utf-8"?>
<!-- Generator: Adobe Illustrator 16.0.0, SVG Export Plug-In . SVG Version: 6.00 Build 0)  -->
<!DOCTYPE svg PUBLIC "-//W3C//DTD SVG 1.1//EN" "http://www.w3.org/Graphics/SVG/1.1/DTD/svg11.dtd">
<svg version="1.1" xmlns="http://www.w3.org/2000/svg" xmlns:xlink="http://www.w3.org/1999/xlink" x="0px" y="0px" width="1200px"
	 height="800px" viewBox="0 0 1200 800" enable-background="new 0 0 1200 800" xml:space="preserve">
<g id="_x31_200_x__x_800">
	<g>
		<rect id="XMLID_263_" fill="#E1901F" width="1200" height="800"/>
		<g>
			<defs>
				<rect id="XMLID_2_" width="1200" height="800"/>
			</defs>
			<clipPath id="XMLID_38_">
				<use xlink:href="#XMLID_2_"  overflow="visible"/>
			</clipPath>
			<g id="XMLID_3_" clip-path="url(#XMLID_38_)">
				<g>
					<path id="XMLID_37_" opacity="0.5" fill="#A8A8A8" d="M1146.771,421.452l-3.479,12.456l-28.671-7.072l0.146-0.527
						c0,0-4.861-60.883-29.726-81.881c-10.823-9.139-47.638-31.992-68.656-45.052c-52.295-32.493-82.088-73.209-82.088-73.209
						s-21.021,4.207-14.014,33.867c11.478,48.587,40.209,40.782,66.051,80.684c10.859,16.768-20.595,13.286-20.595,13.286
						l-223.661-63.916c0,0-23.892-10.543-30.927,9.825c-6.961,20.154,15.438,29.009,15.438,29.009l125.661,39.663
						c0,0,2.656,3.357,1.438,6.061c-1.234,2.743-4.742,3.463-4.742,3.463L675.81,331.687c0,0-19.086-0.887-23.278,16.42
						c-4.416,18.232,12.341,25.323,12.341,25.323l167.26,47.127c0,0,5.352,2.95,4.161,9.004c-0.77,3.916-7.244,4.863-7.244,4.863
						l-153.596-36.374c0,0-19.033-2.219-23.278,16.42c-4.345,19.076,12.483,27.013,12.483,27.013l159.304,43.546
						c0,0,7.04,2.808,5.076,9.777c-1.144,4.06-7.873,4.218-7.873,4.218l-114.184-29.644c0,0-15.811-3.824-19.972,15.291
						c-2.452,11.263,11.109,16.63,11.109,16.63s55.678,19.662,140.348,45.316c76.594,23.206,156.591,45.611,167.088,48.154
						c22.103,5.353,62.232,1.969,62.232,1.969l27.918,7.578l-3.688,13.21l131.071,33.586l-17.881-212.032L1146.771,421.452z"/>
					<g id="XMLID_19_">
						<polygon id="XMLID_35_" fill="#FFFFFF" points="1215.608,563.167 1024.928,511.407 1070.207,341.118 1199.574,373.027 						
							"/>
						<polygon id="XMLID_34_" opacity="0.25" fill="#A8A8A8" points="1049.477,419.083 1024.928,511.407 1215.609,563.167 
							1207.91,471.878 						"/>
						<polygon id="XMLID_33_" fill="#424E59" points="1216.615,575.105 1198.879,364.772 1103.912,336.117 1049.158,532.195 						
							"/>
						<polygon id="XMLID_32_" opacity="0.3" fill="#386FA1" points="1082.88,411.436 1049.158,532.195 1216.615,575.105 
							1205.646,445.019 						"/>
						<polygon id="XMLID_31_" opacity="0.15" fill="#FFFFFF" points="1196.601,361.909 1101.634,333.254 1092.614,365.556 
							1199.683,398.465 						"/>
						<path id="XMLID_30_" fill="#E9BDB5" d="M1024.928,511.407c0,0-40.129,3.385-62.23-1.969
							c-10.498-2.542-90.495-24.947-167.088-48.154c-84.67-25.653-140.349-45.315-140.349-45.315s-13.562-5.368-11.109-16.63
							c4.161-19.115,19.972-15.292,19.972-15.292l114.184,29.644c0,0,6.729-0.157,7.873-4.218c1.964-6.969-5.076-9.777-5.076-9.777
							L621.8,356.149c0,0-16.828-7.936-12.483-27.012c4.245-18.64,23.278-16.421,23.278-16.421l153.597,36.374
							c0,0,6.474-0.948,7.243-4.863c1.19-6.054-4.161-9.004-4.161-9.004l-167.26-47.127c0,0-16.756-7.091-12.341-25.323
							c4.192-17.308,23.278-16.42,23.278-16.42l173.137,46.422c0,0,3.508-0.721,4.742-3.463c1.218-2.704-1.438-6.061-1.438-6.061
							L683.73,243.587c0,0-22.398-8.855-15.438-29.009c7.035-20.368,30.927-9.825,30.927-9.825l223.661,63.916
							c0,0,31.454,3.482,20.595-13.286c-25.842-39.902-54.572-32.097-66.051-80.684c-7.007-29.661,14.015-33.867,14.015-33.867
							s29.792,40.717,82.087,73.209c21.019,13.059,57.833,35.913,68.655,45.052c24.865,20.998,29.727,81.881,29.727,81.881
							L1024.928,511.407z"/>
						<path id="XMLID_29_" fill="#F0D9D8" d="M902.456,169.283c3.795,2.735,9.99,3.741,12.683-0.56
							c0.156-0.249,0.247-0.553,0.292-0.895c-15.091-15.034-23.401-26.196-23.959-26.951c0.088,0.164,0.255,0.898-0.754,3.936
							c-1.219,3.667-2.985,6.872-2.985,6.872S898.661,166.548,902.456,169.283z"/>
						<g id="XMLID_25_">
							
								<ellipse id="XMLID_28_" transform="matrix(0.9811 0.1938 -0.1938 0.9811 119.5415 -209.475)" fill="#E9E9E9" cx="1130.678" cy="506.399" rx="22.326" ry="20.296"/>
							
								<ellipse id="XMLID_27_" transform="matrix(0.981 0.1938 -0.1938 0.981 120.3138 -209.001)" fill="#A8A8A8" cx="1128.571" cy="510.544" rx="22.723" ry="20.296"/>
							<path id="XMLID_26_" opacity="0.25" fill="#A8A8A8" d="M1106.717,504.437c-0.167,0.559-0.322,1.123-0.438,1.705
								c-2.172,10.997,6.048,21.883,18.359,24.314c10.878,2.148,21.299-3.029,25.079-11.849L1106.717,504.437z"/>
						</g>
						<path id="XMLID_24_" opacity="0.15" fill="#DEA79E" d="M972.095,386.746c-31.112-18.263-41.415-40.827-40.347-64.014
							c1.376-29.867,9.087-39.135,17.45-47.622c6.043-6.133,14.136-16.509,12.123-21.246c-4.362-10.271-12.093-18.901-20.396-26.594
							c-14.867-13.774-35.467-21.096-46.967-38.399c-7.999-12.034-17.727-28.813-11.866-42.521c-4.51,4.7-8.246,13.199-4.667,28.35
							c11.479,48.587,40.209,40.782,66.051,80.684c2.524,3.898,2.749,6.694,1.626,8.701c-0.061,0.109-0.12,0.219-0.189,0.323
							c-0.09,0.137-0.191,0.266-0.295,0.395c-0.079,0.099-0.154,0.2-0.241,0.295c-0.161,0.176-0.333,0.345-0.517,0.506
							c-0.098,0.084-0.203,0.162-0.307,0.243c-0.125,0.098-0.251,0.195-0.385,0.287c-0.115,0.08-0.234,0.156-0.355,0.23
							c-0.138,0.085-0.279,0.167-0.424,0.248c-0.125,0.069-0.25,0.139-0.38,0.204c-0.164,0.083-0.335,0.159-0.507,0.236
							c-0.12,0.053-0.236,0.11-0.36,0.161c-0.282,0.116-0.573,0.224-0.872,0.326c-0.137,0.047-0.279,0.088-0.419,0.132
							c-0.188,0.059-0.375,0.117-0.568,0.171c-0.153,0.043-0.31,0.083-0.466,0.124c-0.189,0.048-0.382,0.095-0.575,0.14
							c-6.667,1.525-15.36,0.567-15.36,0.567l-25.238-7.212c1.465,2.717,2.834,5.465,4.112,8.199
							c9.04,22.661-1.752,48.598,2.316,72.696c5.507,29.069,23.511,52.427,51.752,61.248c15.502,5.316,60.035,5.249,68.621-5.067
							C1006.64,401.063,983.911,393.682,972.095,386.746z"/>
						<path id="XMLID_23_" opacity="0.15" fill="#DEA79E" d="M683.73,243.587l125.662,39.663c0,0,2.655,3.357,1.438,6.061
							c0,0,10.41-24.299-3.145-28.438c-30.965-9.456-112.735-36.419-139.688-45.329C662.076,235.009,683.73,243.587,683.73,243.587z
							"/>
						<path id="XMLID_22_" opacity="0.15" fill="#DEA79E" d="M622.014,288.096l167.26,47.127c0,0,2.022,1.121,3.304,3.39
							c3.404-7.896,8.104-23.369-5.006-27.578c-15.248-4.896-141.407-39.568-177.559-49.488c-0.119,0.401-0.237,0.803-0.34,1.226
							C605.258,281.004,622.014,288.096,622.014,288.096z"/>
						<path id="XMLID_21_" opacity="0.15" fill="#DEA79E" d="M777.769,374.727c-9.898-2.397-141.071-37.354-168.628-44.7
							c-3.625,18.428,12.659,26.123,12.659,26.123l159.304,43.546c0,0,4.448,1.789,5.278,6.03
							C786.688,397.188,786.487,376.838,777.769,374.727z"/>
						<path id="XMLID_20_" opacity="0.15" fill="#DEA79E" d="M1049.477,419.083c-12.725-3.916-17.409,6.458-17.409,6.458
							s-7.685,28.828-12.933,43.723c-5.247,14.895-27.238,28.311-39.799,25.034c-12.56-3.276-155.624-37.458-171.054-40.492
							c-15.431-3.034-22.501-18.335-33.565-21.015c-9.386-2.273-102.293-27.135-130.276-34.628c-0.1,0.386-0.2,0.769-0.289,1.176
							c-2.452,11.262,11.109,16.63,11.109,16.63s55.679,19.662,140.348,45.315c76.595,23.207,156.591,45.612,167.088,48.154
							c22.103,5.354,62.231,1.969,62.231,1.969l25.327-91.881C1050.014,419.332,1049.76,419.17,1049.477,419.083z"/>
					</g>
				</g>
				<g>
					<path id="XMLID_36_" opacity="0.5" fill="#A8A8A8" d="M98.206,369.231c0,0,21.708,42.734,45.698,62.993
						c10.442,8.818,35.637,26.24,56.162,38.436c20.525,12.196,72.771,53.747,72.771,53.747s22.881-1.36,9.181-38.399
						c-8.986-24.295-38.767-26.327-52.263-59.63c-9.583-23.646,12.429-17.76,12.429-17.76l224.098,64.66
						c0,0,23.051,10.173,29.839-9.479c6.716-19.446-14.895-27.99-14.895-27.99L363.33,394.604c0,0-3.232-1.958-2.059-4.568
						c1.191-2.646,4.533-2.474,4.533-2.474l161.971,38.751c0,0,17.248,4.205,22.046-12.293c5.639-19.384-9.983-26.325-9.983-26.325
						l-156.911-48.297c0,0-5.464-1.006-4.294-4.527c1.215-3.654,5.663-2.434,5.663-2.434l146.763,33.716
						c0,0,19.719,4.148,24.721-13.605c5.767-20.465-11.509-27.896-11.509-27.896l-156.264-47.331c0,0-5.582-0.802-4.395-6.841
						c0.785-3.993,7.896-1.938,7.896-1.938l108.362,25.038c0,0,20.422,4.019,23.841-14.544
						c2.866-15.561-12.337-23.026-12.337-23.026s-53.721-18.971-135.414-43.723c-73.9-22.391-151.085-44.008-161.214-46.462
						c-21.325-5.165-60.044-1.899-60.044-1.899l-173.27-47.062L0.324,340.88L98.206,369.231z"/>
					<g id="XMLID_5_">
						<polygon id="XMLID_18_" fill="#E34C53" points="-25.23,56.43 128.405,99.13 72.8,296.417 -5.449,272.427 						"/>
						<polygon id="XMLID_17_" opacity="0.25" fill="#48B5A0" points="-14.541,164.603 -5.449,272.427 72.8,296.417 98.604,202.646 
													"/>
						<path id="XMLID_16_" fill="#E9BDB5" d="M128.405,99.13c0,0,43.434,1.92,70.349,6.629
							c10.266,1.796,77.899,11.323,151.801,33.714c81.693,24.752,135.414,43.723,135.414,43.723s15.202,7.465,12.337,23.026
							c-3.419,18.563-23.842,14.544-23.842,14.544l-108.362-25.038c0,0-7.11-2.055-7.896,1.938
							c-1.188,6.039,4.396,6.841,4.396,6.841l156.263,47.331c0,0,17.275,7.431,11.51,27.896
							c-5.002,17.753-24.722,13.605-24.722,13.605l-146.763-33.716c0,0-4.448-1.22-5.662,2.434c-1.17,3.521,4.294,4.528,4.294,4.528
							l156.911,48.297c0,0,15.621,6.941,9.983,26.325c-4.799,16.499-22.046,12.293-22.046,12.293l-161.972-38.751
							c0,0-3.341-0.172-4.532,2.474c-1.175,2.609,2.059,4.568,2.059,4.568l117.896,41.206c0,0,21.61,8.544,14.894,27.989
							c-6.788,19.652-29.839,9.479-29.839,9.479l-224.098-64.661c0,0-22.011-5.885-12.429,17.76
							c13.497,33.303,43.277,35.335,52.264,59.63c13.7,37.039-9.181,38.399-9.181,38.399s-52.246-41.551-72.771-53.747
							s-45.72-29.618-56.162-38.436C94.508,339.151,72.8,296.417,72.8,296.417L128.405,99.13z"/>
						<path id="XMLID_15_" fill="#F0D9D8" d="M490.013,190.845c0,0,5.778,6.034,3.009,15.964
							c-2.47,8.855-12.937,10.048-12.937,10.048l-11.993-4.57c0,0-4.52-5.77-1.274-15.118c4.2-12.1,10.429-10.45,10.429-10.45
							L490.013,190.845z"/>
						<path id="XMLID_14_" fill="#F0D9D8" d="M462.25,371.134c0,0,6.561,7.826,3.791,17.755
							c-2.47,8.855-12.816,10.595-12.816,10.595l-11.774-4.24c0,0-6.488-6.551-3.243-15.899c4.2-12.1,9.515-11.267,9.515-11.267
							L462.25,371.134z"/>
						<path id="XMLID_13_" fill="#F0D9D8" d="M522.719,259.008c0,0,6.738,6.567,3.682,17.657
							c-3.318,12.04-13.767,12.921-13.767,12.921l-15.397-5.597c0,0-3.432-6.846-0.409-16.139
							c3.932-12.092,9.907-12.251,9.907-12.251L522.719,259.008z"/>
						<path id="XMLID_12_" fill="#F0D9D8" d="M514.04,319.675c0,0,8.508,4.991,6.63,16.565
							c-1.889,11.642-13.134,13.475-13.134,13.475l-14.096-3.568c0,0-4.71-4.528-2.259-15.507
							c2.615-11.719,10.771-13.276,10.771-13.276L514.04,319.675z"/>
						<path id="XMLID_11_" fill="#F0D9D8" d="M246.065,450.511c2.849-3.175,4.402-5.656,4.543-10.956l-14.938-9.905
							c0,0-6.664-2.376-12.351-0.134c-0.926,0.365-1.791,0.808-2.604,1.285C232.512,439.818,242.532,447.715,246.065,450.511z"/>
						<path id="XMLID_10_" opacity="0.15" fill="#DEA79E" d="M358.85,196.362c1.949-2.16,7.252-0.634,7.252-0.634l108.362,25.039
							c0,0,17.559,3.443,22.835-10.865c-25.25-7.291-102.128-28.198-111.252-31.306C373.808,174.427,361.487,191.203,358.85,196.362
							z"/>
						<path id="XMLID_9_" opacity="0.15" fill="#DEA79E" d="M379.766,239.833c-20.294-6.031-26.539,22.223-26.539,22.223
							c1.214-3.654,5.662-2.434,5.662-2.434l146.763,33.716c0,0,19.72,4.148,24.722-13.605c0.082-0.291,0.143-0.57,0.216-0.855
							C502.116,270.956,397.34,245.056,379.766,239.833z"/>
						<path id="XMLID_8_" opacity="0.15" fill="#DEA79E" d="M340.398,314.748L502.369,353.5c0,0,17.247,4.205,22.046-12.293
							c0.15-0.517,0.278-1.021,0.399-1.521c-35.68-10.317-146.26-42.292-161.753-46.745c-18.514-5.32-27.196,24.281-27.196,24.281
							C337.056,314.576,340.398,314.748,340.398,314.748z"/>
						<path id="XMLID_7_" opacity="0.15" fill="#DEA79E" d="M219.426,313.656c-10.137,0.311-18.234,0.45-25.276,8.303
							c-2.715,3.027-11.501,19.982,11.197,50.609c9.493,12.809,23.358,24.636,38.029,37.025
							c10.192,8.606,14.384,24.053,16.904,30.17c1.407-5.691,0.94-14.11-3.668-26.57c-7.852-21.227-31.575-25.462-46.444-48.404
							c-1.048-1.617-2.051-3.331-3.002-5.146c-0.025-0.047-0.051-0.09-0.076-0.138c-0.432-0.828-0.848-1.687-1.257-2.56
							c-0.053-0.111-0.109-0.215-0.161-0.327c-0.449-0.975-0.885-1.979-1.304-3.012c-0.007-0.015-0.013-0.029-0.02-0.044v-0.002
							c-0.267-0.658-0.5-1.284-0.719-1.896c-0.058-0.16-0.112-0.318-0.166-0.475c-0.189-0.55-0.363-1.086-0.515-1.6
							c-0.016-0.05-0.033-0.103-0.048-0.152c-0.161-0.558-0.296-1.088-0.415-1.604c-0.029-0.129-0.056-0.254-0.083-0.381
							c-0.096-0.443-0.177-0.873-0.242-1.285c-0.011-0.067-0.025-0.138-0.034-0.204c-0.069-0.465-0.115-0.909-0.147-1.336
							c-0.007-0.1-0.011-0.197-0.017-0.295c-0.02-0.359-0.027-0.706-0.022-1.038c0.001-0.068,0-0.14,0.002-0.208
							c0.012-0.382,0.042-0.745,0.086-1.093c0.01-0.074,0.022-0.145,0.033-0.217c0.044-0.29,0.097-0.567,0.161-0.833
							c0.016-0.063,0.029-0.129,0.045-0.191c0.082-0.305,0.177-0.596,0.285-0.871c0.021-0.053,0.044-0.102,0.066-0.154
							c0.096-0.229,0.201-0.446,0.314-0.654c0.03-0.056,0.06-0.113,0.092-0.167c0.138-0.236,0.285-0.459,0.444-0.668
							c0.028-0.036,0.059-0.069,0.087-0.105c0.139-0.175,0.285-0.339,0.438-0.495c0.046-0.047,0.092-0.095,0.14-0.141
							c0.182-0.173,0.368-0.338,0.564-0.488c0.033-0.024,0.067-0.046,0.1-0.07c0.171-0.126,0.348-0.243,0.528-0.353
							c0.064-0.039,0.128-0.078,0.193-0.115c0.203-0.115,0.409-0.224,0.622-0.321c0.044-0.02,0.089-0.038,0.133-0.057
							c0.189-0.083,0.382-0.159,0.577-0.229c0.084-0.03,0.167-0.059,0.252-0.086c0.178-0.059,0.358-0.112,0.539-0.161
							c0.093-0.025,0.186-0.05,0.279-0.072c0.188-0.046,0.378-0.087,0.568-0.124c0.106-0.021,0.212-0.039,0.319-0.057
							c0.145-0.024,0.29-0.045,0.436-0.065c0.15-0.02,0.302-0.039,0.453-0.054c0.156-0.016,0.313-0.031,0.469-0.042
							c0.131-0.009,0.261-0.017,0.391-0.023c0.102-0.005,0.201-0.008,0.302-0.012c0.313-0.01,0.624-0.013,0.928-0.008
							c2.743,0.047,4.989,0.645,4.989,0.645l224.098,64.661c0,0,22.096,9.736,29.387-8.315
							C413.23,372.906,243.066,312.933,219.426,313.656z"/>
						<path id="XMLID_6_" opacity="0.15" fill="#DEA79E" d="M208.279,416.106c-8.059-13.945-30.71-27.52-30.71-27.52
							s-31.491-26.593-49.81-49.996s-19.833-44.115-18.863-70.671c1.04-28.476,10.056-54.184,6.278-58.167
							c-3.776-3.983-16.57-7.107-16.57-7.107L72.8,296.417c0,0,21.708,42.734,45.698,62.993
							c10.442,8.818,35.637,26.24,56.162,38.436c8.937,5.31,23.886,16.184,37.918,26.771
							C211.388,421.904,209.97,419.033,208.279,416.106z"/>
					</g>
				</g>
			</g>
		</g>
	</g>
</g>
<g id="_x38_00_x__x_800">
</g>
<g id="Designed_by_Freepik">
</g>
</svg>
