<?xml version="1.0" encoding="utf-8"?>
<!-- Generator: Adobe Illustrator 16.0.0, SVG Export Plug-In . SVG Version: 6.00 Build 0)  -->
<!DOCTYPE svg PUBLIC "-//W3C//DTD SVG 1.1//EN" "http://www.w3.org/Graphics/SVG/1.1/DTD/svg11.dtd">
<svg version="1.1" xmlns="http://www.w3.org/2000/svg" xmlns:xlink="http://www.w3.org/1999/xlink" x="0px" y="0px" width="800px"
	 height="800px" viewBox="0 0 800 800" enable-background="new 0 0 800 800" xml:space="preserve">
<g id="_x31_200_x__x_800">
</g>
<g id="_x38_00_x__x_800">
	<g>
		<rect id="XMLID_366_" fill="#E1901F" width="800" height="800"/>
		<g>
			<defs>
				<rect id="XMLID_1_" width="800" height="800"/>
			</defs>
			<clipPath id="XMLID_3_">
				<use xlink:href="#XMLID_1_"  overflow="visible"/>
			</clipPath>
			<g id="XMLID_439_" clip-path="url(#XMLID_3_)">
				<path id="XMLID_312_" opacity="0.5" fill="#A8A8A8" d="M798.641,448.862l-3.455,9.279l-21.421-7.24l0.145-0.393
					c0,0,0.209-46.766-17.411-64.386c-7.67-7.669-34.288-27.475-49.484-38.791c-37.809-28.156-57.92-61.138-57.92-61.138
					s-16.309,1.857-12.871,24.938c5.631,37.809,28.054,33.703,45.203,65.81c7.207,13.491-16.568,8.811-16.568,8.811l-166.535-63.157
					c0,0-17.55-9.581-24.228,5.506c-6.608,14.929,9.911,23.126,9.911,23.126l93.324,38.347c0,0,1.811,2.732,0.708,4.717
					c-1.118,2.013-3.841,2.337-3.841,2.337l-129.112-46.559c0,0-14.505-1.905-18.817,11.031
					c-4.542,13.626,7.787,20.115,7.787,20.115l124.582,46.719c0,0,3.894,2.595,2.596,7.137c-0.84,2.938-5.84,3.245-5.84,3.245
					l-114.85-37.635c0,0-14.379-2.917-18.817,11.03c-4.542,14.275,7.787,21.413,7.787,21.413l118.742,43.475
					c0,0,5.191,2.595,3.245,7.786c-1.135,3.024-6.279,2.711-6.279,2.711l-85.212-29.964c0,0-11.816-3.935-16.222,10.382
					c-2.596,8.436,7.406,13.403,7.406,13.403s41.216,18.584,104.166,43.605c56.946,22.634,116.54,44.875,124.386,47.49
					c16.52,5.507,47.354,5.507,47.354,5.507l20.813,7.578l-3.664,9.841L842.092,629V466.075L798.641,448.862z"/>
				<path id="XMLID_311_" opacity="0.5" fill="#A8A8A8" d="M41.962,319.632c0,0,13.813,34.001,30.814,51.002
					c7.4,7.399,25.501,22.313,40.377,32.939c14.875,10.625,52.065,45.689,52.065,45.689s17.545,0.435,9.475-28.707
					c-5.293-19.115-27.884-22.582-36.039-48.859c-5.79-18.657,10.625-12.75,10.625-12.75l166.821,63.753
					c0,0,16.933,9.244,23.376-5.313c6.375-14.404-9.563-22.314-9.563-22.314l-87.301-39.024c0,0-2.341-1.702-1.277-3.618
					c1.079-1.942,3.618-1.596,3.618-1.596l121.086,39.988c0,0,12.889,4.318,17.611-7.961c5.549-14.427-5.923-20.728-5.923-20.728
					l-116.611-46.945c0,0-4.104-1.119-2.985-3.73c1.161-2.71,4.477-1.493,4.477-1.493l109.807,35.167c0,0,14.778,4.434,19.737-8.79
					c5.716-15.243-6.986-22.024-6.986-22.024l-116.18-46.166c0,0-4.208-0.971-2.913-5.502c0.856-2.997,6.149-0.971,6.149-0.971
					l81.067,26.076c0,0,15.323,4.38,19.126-9.563c3.188-11.688-7.931-18.362-7.931-18.362S324.718,241.9,263.98,217.759
					c-54.944-21.839-112.443-43.298-120.013-45.821c-15.938-5.313-45.689-5.313-45.689-5.313L-30.895,119.57v172.133L41.962,319.632
					z"/>
				<g id="XMLID_294_">
					<polygon id="XMLID_310_" fill="#FFFFFF" points="842.044,561.416 699.891,509.656 745.394,382.643 842.044,415.313 					"/>
					<polygon id="XMLID_309_" opacity="0.25" fill="#A8A8A8" points="724.561,440.795 699.891,509.656 842.044,561.416 
						842.044,491.27 					"/>
					<polygon id="XMLID_308_" fill="#424E59" points="842.044,570.59 842.044,408.97 771.431,380.997 717.04,527.076 					"/>
					<polygon id="XMLID_307_" opacity="0.3" fill="#386FA1" points="750.538,437.109 717.04,527.076 842.044,570.59 
						842.044,470.631 					"/>
					<polygon id="XMLID_306_" opacity="0.15" fill="#FFFFFF" points="840.49,406.639 769.877,378.666 760.917,402.73 
						840.49,434.729 					"/>
					<path id="XMLID_305_" fill="#E9BDB5" d="M699.891,509.656c0,0-30.836,0-47.354-5.506
						c-7.846-2.615-67.439-24.856-124.386-47.491c-62.95-25.021-104.166-43.604-104.166-43.604s-10.002-4.968-7.406-13.403
						c4.405-14.316,16.222-10.382,16.222-10.382l85.212,29.964c0,0,5.145,0.313,6.278-2.711c1.946-5.191-3.244-7.787-3.244-7.787
						l-118.743-43.474c0,0-12.328-7.138-7.786-21.413c4.438-13.948,18.817-11.031,18.817-11.031l114.85,37.635
						c0,0,5-0.307,5.84-3.245c1.298-4.542-2.596-7.137-2.596-7.137l-124.583-46.719c0,0-12.328-6.489-7.786-20.115
						c4.312-12.936,18.817-11.031,18.817-11.031l129.111,46.559c0,0,2.724-0.324,3.842-2.337c1.103-1.985-0.708-4.717-0.708-4.717
						l-93.324-38.347c0,0-16.52-8.198-9.912-23.126c6.679-15.087,24.229-5.506,24.229-5.506l166.535,63.157
						c0,0,23.774,4.68,16.568-8.812c-17.149-32.107-39.572-28-45.204-65.81c-3.438-23.081,12.871-24.938,12.871-24.938
						s20.111,32.982,57.921,61.138c15.196,11.316,41.814,31.121,49.483,38.791c17.62,17.621,17.412,64.386,17.412,64.386
						L699.891,509.656z"/>
					<path id="XMLID_304_" fill="#F0D9D8" d="M628.459,240.745c2.72,2.331,7.382,3.497,9.713,0.388
						c0.136-0.18,0.225-0.406,0.28-0.664c-10.547-12.441-16.169-21.492-16.546-22.104c0.057,0.13,0.137,0.702-0.828,2.954
						c-1.166,2.72-2.72,5.051-2.72,5.051S625.74,238.414,628.459,240.745z"/>
					<g id="XMLID_300_">
						
							<ellipse id="XMLID_303_" transform="matrix(0.9613 0.2755 -0.2755 0.9613 171.4479 -195.295)" fill="#E9E9E9" cx="780.897" cy="512.639" rx="17.095" ry="15.54"/>
						
							<ellipse id="XMLID_302_" transform="matrix(0.9613 0.2755 -0.2755 0.9613 172.2267 -194.6763)" fill="#A8A8A8" cx="779.022" cy="515.667" rx="17.398" ry="15.54"/>
						<path id="XMLID_301_" opacity="0.25" fill="#A8A8A8" d="M762.742,509.6c-0.164,0.416-0.319,0.837-0.444,1.273
							c-2.364,8.251,3.206,17.085,12.443,19.732c8.161,2.339,16.446-0.94,19.897-7.427L762.742,509.6z"/>
					</g>
					<path id="XMLID_299_" opacity="0.15" fill="#DEA79E" d="M667.601,411.144c-22.563-15.936-28.973-33.814-26.665-51.436
						c2.972-22.699,9.451-29.275,16.378-35.212c5.005-4.29,11.848-11.687,10.617-15.43c-2.668-8.117-8.011-15.199-13.852-21.603
						c-10.457-11.466-25.703-18.377-33.364-32.319c-5.328-9.697-11.671-23.124-6.317-33.207c-3.743,3.296-7.141,9.541-5.385,21.33
						c5.632,37.809,28.055,33.703,45.204,65.81c1.676,3.137,1.666,5.284,0.681,6.743c-0.054,0.079-0.106,0.159-0.165,0.234
						c-0.077,0.098-0.164,0.19-0.251,0.282c-0.066,0.07-0.131,0.143-0.203,0.209c-0.134,0.124-0.275,0.242-0.427,0.353
						c-0.079,0.058-0.166,0.111-0.249,0.166c-0.102,0.066-0.204,0.132-0.312,0.194c-0.094,0.053-0.189,0.104-0.287,0.153
						c-0.11,0.056-0.224,0.11-0.339,0.162c-0.1,0.045-0.199,0.09-0.304,0.131c-0.13,0.052-0.266,0.1-0.401,0.147
						c-0.095,0.033-0.188,0.069-0.285,0.1c-0.223,0.07-0.452,0.134-0.687,0.192c-0.106,0.027-0.218,0.049-0.328,0.074
						c-0.146,0.033-0.294,0.065-0.444,0.094c-0.12,0.023-0.241,0.044-0.363,0.064c-0.148,0.025-0.298,0.048-0.448,0.069
						c-5.186,0.735-11.756-0.555-11.756-0.555l-18.792-7.127c0.943,2.167,1.812,4.352,2.61,6.52
						c5.438,17.872-4.464,36.966-2.91,55.615c2.331,22.534,14.565,41.513,35.545,50.061c11.485,5.054,45.468,7.867,52.682,0.549
						C693.036,424.29,676.17,417.196,667.601,411.144z"/>
					<path id="XMLID_298_" opacity="0.15" fill="#DEA79E" d="M456.797,283.364l93.324,38.347c0,0,1.811,2.732,0.708,4.717
						c0,0,9.506-17.87-0.57-21.9c-23.017-9.207-83.671-35.04-103.661-43.572C440.827,275.426,456.797,283.364,456.797,283.364z"/>
					<path id="XMLID_297_" opacity="0.15" fill="#DEA79E" d="M406.845,313.352l124.583,46.719c0,0,1.471,0.985,2.303,2.798
						c3.105-5.806,7.687-17.308-2.045-21.363c-11.319-4.716-105.345-39.288-132.289-49.183c-0.117,0.298-0.233,0.598-0.338,0.914
						C394.517,306.863,406.845,313.352,406.845,313.352z"/>
					<path id="XMLID_296_" opacity="0.15" fill="#DEA79E" d="M520.107,389.471c-7.397-2.466-105.229-37.577-125.782-44.955
						c-3.952,13.827,7.978,20.746,7.978,20.746l118.743,43.474c0,0,3.279,1.651,3.639,4.94
						C525.468,407.182,526.624,391.643,520.107,389.471z"/>
					<path id="XMLID_295_" opacity="0.15" fill="#DEA79E" d="M724.561,440.795c-9.457-3.807-13.699,3.807-13.699,3.807
						s-7.718,21.502-12.68,32.527c-4.962,11.026-22.604,19.848-31.977,16.54c-9.372-3.309-116.326-38.592-127.904-41.9
						c-11.577-3.308-15.988-15.437-24.258-18.193c-7.015-2.338-76.301-27.284-97.169-34.802c-0.101,0.289-0.202,0.574-0.296,0.878
						c-2.596,8.436,7.406,13.403,7.406,13.403s41.216,18.584,104.166,43.604c56.946,22.635,116.54,44.876,124.386,47.491
						c16.519,5.506,47.354,5.506,47.354,5.506l25.235-68.473C724.954,441.02,724.771,440.88,724.561,440.795z"/>
				</g>
				<g id="XMLID_255_">
					<polygon id="XMLID_293_" fill="#E34C53" points="-32.091,73.03 82.382,115.495 27.263,262.441 -30.895,239.103 					"/>
					<polygon id="XMLID_292_" opacity="0.25" fill="#48B5A0" points="-30.895,156.251 -30.895,239.103 27.263,262.441 
						52.984,192.557 					"/>
					<path id="XMLID_291_" fill="#E9BDB5" d="M82.382,115.495c0,0,33.015,4.26,53.248,9.584c7.717,2.031,58.707,13.651,113.65,35.49
						c60.738,24.141,100.504,42.072,100.504,42.072s11.119,6.674,7.931,18.362c-3.803,13.943-19.126,9.563-19.126,9.563
						l-81.067-26.075c0,0-5.293-2.025-6.149,0.971c-1.295,4.531,2.913,5.502,2.913,5.502l116.18,46.166
						c0,0,12.703,6.781,6.986,22.024c-4.958,13.223-19.737,8.79-19.737,8.79l-109.807-35.167c0,0-3.316-1.217-4.477,1.492
						c-1.119,2.612,2.985,3.731,2.985,3.731l116.611,46.945c0,0,11.473,6.301,5.924,20.728c-4.723,12.279-17.612,7.961-17.612,7.961
						l-121.086-39.987c0,0-2.539-0.346-3.618,1.596c-1.064,1.916,1.277,3.618,1.277,3.618l87.301,39.024
						c0,0,15.938,7.909,9.563,22.313c-6.443,14.557-23.376,5.313-23.376,5.313l-166.82-63.753c0,0-16.415-5.906-10.625,12.751
						c8.155,26.277,30.746,29.744,36.039,48.858c8.07,29.142-9.475,28.708-9.475,28.708s-37.189-35.064-52.065-45.689
						s-32.977-25.54-40.377-32.939c-17.001-17-30.814-51.002-30.814-51.002L82.382,115.495z"/>
					<path id="XMLID_290_" fill="#F0D9D8" d="M352.378,208.736c0,0,4.02,4.976,1.268,12.373c-2.454,6.598-10.517,6.835-10.517,6.835
						l-8.856-4.259c0,0-3.078-4.692,0-11.617c3.983-8.961,8.629-7.302,8.629-7.302L352.378,208.736z"/>
					<path id="XMLID_289_" fill="#F0D9D8" d="M319.596,344.506c0,0,4.501,6.393,1.75,13.791c-2.454,6.598-10.46,7.259-10.46,7.259
						l-8.71-3.992c0,0-4.529-5.416-1.452-12.34c3.983-8.961,7.984-7.984,7.984-7.984L319.596,344.506z"/>
					<path id="XMLID_288_" fill="#F0D9D8" d="M372.947,262.847c0,0,4.718,5.444,1.672,13.708
						c-3.307,8.973-11.334,8.973-11.334,8.973l-11.388-5.261c0,0-2.177-5.444,0.726-12.339c3.778-8.973,8.348-8.71,8.348-8.71
						L372.947,262.847z"/>
					<path id="XMLID_286_" fill="#F0D9D8" d="M362.422,308.576c0,0,6.169,4.355,3.992,13.065c-2.19,8.761-10.888,9.436-10.888,9.436
						l-10.525-3.629c0,0-3.302-3.757-0.726-11.977c2.75-8.773,9.073-9.436,9.073-9.436L362.422,308.576z"/>
					<path id="XMLID_284_" fill="#F0D9D8" d="M149.546,391.159c2.378-2.239,3.723-4.032,4.171-8.067l-10.76-8.518
						c0,0-4.932-2.242-9.415-0.896c-0.729,0.219-1.418,0.5-2.068,0.813C139.893,382.129,147.03,388.799,149.546,391.159z"/>
					<path id="XMLID_283_" opacity="0.15" fill="#DEA79E" d="M251.949,204.507c1.626-1.523,5.574-0.017,5.574-0.017l81.067,26.075
						c0,0,13.175,3.757,18.121-6.82c-18.796-7.187-76.107-28.085-82.868-31.043C264.772,188.733,254.293,200.74,251.949,204.507z"/>
					<path id="XMLID_280_" opacity="0.15" fill="#DEA79E" d="M265.111,239.02c-15.096-5.907-21.679,15.248-21.679,15.248
						c1.161-2.709,4.477-1.492,4.477-1.492l109.807,35.167c0,0,14.778,4.434,19.737-8.79c0.082-0.217,0.146-0.426,0.22-0.639
						C356.458,270.637,278.184,244.135,265.111,239.02z"/>
					<path id="XMLID_277_" opacity="0.15" fill="#DEA79E" d="M230.254,293.645l121.086,39.987c0,0,12.889,4.318,17.612-7.961
						c0.148-0.385,0.278-0.761,0.402-1.134c-26.559-10.168-108.872-41.678-120.405-46.072c-13.784-5.25-22.313,16.776-22.313,16.776
						C227.715,293.299,230.254,293.645,230.254,293.645z"/>
					<path id="XMLID_272_" opacity="0.15" fill="#DEA79E" d="M138.025,285.028c-7.754-0.415-13.941-0.83-19.819,4.709
						c-2.266,2.135-10.061,14.506,5.287,39.334c6.419,10.383,16.237,20.299,26.633,30.696c7.223,7.223,9.427,19.277,10.956,24.106
						c1.44-4.252,1.626-10.705-1.089-20.508c-4.625-16.7-22.453-21.458-32.321-39.919c-0.696-1.301-1.35-2.673-1.959-4.119
						c-0.016-0.037-0.033-0.072-0.049-0.11c-0.276-0.66-0.539-1.341-0.795-2.034c-0.033-0.088-0.069-0.171-0.102-0.26
						c-0.28-0.772-0.547-1.566-0.801-2.381c-0.003-0.012-0.008-0.023-0.012-0.035l0-0.001c-0.161-0.519-0.298-1.012-0.426-1.493
						c-0.033-0.125-0.065-0.25-0.096-0.373c-0.109-0.432-0.208-0.852-0.29-1.254c-0.008-0.039-0.018-0.081-0.026-0.119
						c-0.087-0.436-0.156-0.85-0.213-1.251c-0.015-0.1-0.027-0.198-0.04-0.296c-0.044-0.344-0.079-0.677-0.102-0.996
						c-0.003-0.052-0.01-0.106-0.013-0.158c-0.022-0.359-0.029-0.701-0.026-1.029c0.001-0.077,0.004-0.151,0.006-0.227
						c0.008-0.275,0.024-0.54,0.05-0.793c0.005-0.052,0.008-0.107,0.014-0.158c0.034-0.291,0.08-0.566,0.136-0.829
						c0.012-0.056,0.026-0.109,0.039-0.164c0.052-0.218,0.111-0.427,0.177-0.625c0.016-0.047,0.03-0.097,0.046-0.143
						c0.082-0.228,0.173-0.443,0.273-0.646c0.02-0.039,0.041-0.075,0.061-0.113c0.088-0.168,0.183-0.328,0.282-0.479
						c0.027-0.041,0.053-0.083,0.081-0.122c0.121-0.171,0.248-0.333,0.382-0.481c0.023-0.026,0.049-0.05,0.073-0.075
						c0.117-0.124,0.24-0.24,0.366-0.349c0.039-0.033,0.077-0.067,0.116-0.099c0.149-0.121,0.303-0.234,0.462-0.336
						c0.026-0.017,0.054-0.031,0.08-0.047c0.139-0.085,0.281-0.164,0.426-0.236c0.052-0.025,0.103-0.051,0.155-0.075
						c0.162-0.075,0.327-0.145,0.495-0.206c0.035-0.012,0.07-0.023,0.105-0.035c0.15-0.051,0.302-0.097,0.455-0.138
						c0.066-0.017,0.131-0.034,0.198-0.05c0.14-0.033,0.28-0.063,0.422-0.088c0.072-0.013,0.145-0.026,0.218-0.038
						c0.146-0.023,0.293-0.042,0.441-0.058c0.082-0.009,0.165-0.016,0.247-0.022c0.112-0.009,0.225-0.016,0.337-0.021
						c0.117-0.006,0.233-0.01,0.35-0.012c0.12-0.002,0.24-0.003,0.36-0.002c0.1,0.001,0.2,0.004,0.3,0.008
						c0.077,0.002,0.154,0.006,0.23,0.01c0.24,0.013,0.477,0.03,0.708,0.054c2.09,0.212,3.766,0.813,3.766,0.813l166.82,63.753
						c0,0,16.232,8.85,22.956-4.454C282.081,342.704,156.109,285.997,138.025,285.028z"/>
					<path id="XMLID_266_" opacity="0.15" fill="#DEA79E" d="M122.929,362.478c-5.251-11.158-21.66-22.972-21.66-22.972
						s-22.316-22.316-34.787-41.35c-12.471-19.035-12.294-34.935-9.846-55.134c2.625-21.66,11.158-40.694,8.533-43.976
						c-2.625-3.282-12.186-6.489-12.186-6.489l-25.722,69.884c0,0,13.813,34.002,30.814,51.002c7.4,7.4,25.501,22.314,40.377,32.939
						c6.477,4.626,17.183,13.885,27.208,22.865C124.928,367.102,124.031,364.82,122.929,362.478z"/>
				</g>
			</g>
		</g>
	</g>
</g>
<g id="Designed_by_Freepik">
</g>
</svg>
