<?xml version="1.0" encoding="utf-8"?>
<!-- Generator: Adobe Illustrator 19.0.0, SVG Export Plug-In . SVG Version: 6.00 Build 0)  -->
<svg version="1.1" id="Layer_1" xmlns="http://www.w3.org/2000/svg" xmlns:xlink="http://www.w3.org/1999/xlink" x="0px" y="0px"
	 viewBox="350 -181.6 1723 1130.6" style="enable-background:new 350 -181.6 1723 1130.6;" xml:space="preserve">
<style type="text/css">
	.st0{opacity:5.000000e-002;}
	.st1{fill:#3A3A3A;}
	.st2{fill:url(#SVGID_1_);}
	.st3{fill:url(#SVGID_2_);}
	.st4{fill:url(#SVGID_3_);}
	.st5{fill:url(#SVGID_4_);}
	.st6{fill:url(#SVGID_5_);}
	.st7{fill:url(#SVGID_6_);}
	.st8{fill:url(#SVGID_7_);}
	.st9{fill:url(#SVGID_8_);}
	.st10{fill:url(#SVGID_9_);}
	.st11{fill:url(#SVGID_10_);}
	.st12{fill:url(#SVGID_11_);}
	.st13{fill:url(#SVGID_12_);}
	.st14{fill:url(#SVGID_13_);}
	.st15{fill:url(#SVGID_14_);}
	.st16{fill:url(#SVGID_15_);}
	.st17{fill:url(#SVGID_16_);}
	.st18{fill:url(#SVGID_17_);}
	.st19{fill:url(#SVGID_18_);}
	.st20{fill:url(#SVGID_19_);}
	.st21{fill:url(#SVGID_20_);}
	.st22{fill:url(#SVGID_21_);}
	.st23{fill:url(#SVGID_22_);}
	.st24{fill:url(#SVGID_23_);}
	.st25{fill:url(#SVGID_24_);}
	.st26{fill:url(#SVGID_25_);}
	.st27{fill:url(#SVGID_26_);}
	.st28{fill:url(#SVGID_27_);}
	.st29{fill:url(#SVGID_28_);}
	.st30{fill:url(#SVGID_29_);}
	.st31{fill:url(#SVGID_30_);}
	.st32{fill:url(#SVGID_31_);}
	.st33{fill:#FFFFFF;}
</style>
<g class="st0">
	<rect x="1325" y="22.3" class="st1" width="64.2" height="28.8"/>
	<path class="st1" d="M1186.3-159.5c0,8.8,5.1,16.3,12.5,19.9c-19.7,19.6-68,61.8-116.7,56.7c0,0-38.2-3.3-54.8-31.6
		c0,0-13.3,68.1,96.3,68.1h83.1v-135.1C1195.3-180.7,1186.3-171.2,1186.3-159.5z"/>
	<path class="st1" d="M1333.9-82.9c-48.4,5.1-96.6-36.7-116.4-56.4c7.7-3.5,13-11.2,13-20.1c0-12.2-9.9-22.1-22.1-22.1
		c-0.5,0-1.1,0-1.6,0.1v135.1h1.2h84.3c109.6,0,96.3-68.1,96.3-68.1C1372.1-86.2,1333.9-82.9,1333.9-82.9z"/>
	<path class="st1" d="M1767.8,156.9c0-12.2-9.9-22.1-22.1-22.1s-22.1,9.9-22.1,22.1c0,8.8,5.1,16.2,12.6,19.8
		c-19.7,19.6-68,61.8-116.7,56.7c0,0-38.2-3.3-54.8-31.6c0,0-13.3,68.1,96.3,68.1h84.3h31.9V197c-9.3-7.4-17-14.6-22.5-20.1
		C1762.5,173.5,1767.8,165.9,1767.8,156.9z"/>
	<path class="st1" d="M1871.2,233.5c-35,3.7-69.8-17.1-93.9-36.4V270h52.4c109.6,0,96.3-68.1,96.3-68.1
		C1909.4,230.1,1871.2,233.5,1871.2,233.5z"/>
	<path class="st1" d="M786.5,233.5c-48.4,5.1-96.6-36.7-116.4-56.5c7.7-3.5,13-11.2,13-20.1c0-12.2-9.9-22.1-22.1-22.1
		s-22.1,9.9-22.1,22.1c0,8.8,5.2,16.2,12.5,19.8c-3.9,3.9-9.1,8.8-15.1,14v79.2h24.3l0,0h84.3c109.6,0,96.3-68.1,96.3-68.1
		C824.7,230.1,786.5,233.5,786.5,233.5z"/>
	<path class="st1" d="M534.7,233.5c0,0-38.2-3.3-54.8-31.6c0,0-13.3,68.1,96.3,68.1h60v-79.2C612.3,211.4,573.6,237.6,534.7,233.5z"
		/>
	<rect x="1026.8" y="22.3" class="st1" width="64.2" height="28.8"/>
	<polygon class="st1" points="1091,69.4 1026.8,69.4 1026.8,91.5 1026.8,148 1091,148 1206.8,148 1206.8,91.5 1091,91.5 	"/>
	<polygon class="st1" points="1389.2,69.4 1325,69.4 1325,91.5 1206.8,91.5 1206.8,148 1325,148 1389.2,148 1389.2,148 1389.2,91.5 
		1389.2,91.5 	"/>
	<polygon class="st1" points="1108.7,66.5 1144,66.5 1144,17.4 1183.9,17.4 1183.9,66.5 1206.8,66.5 1206.8,-22.4 1108.7,-22.4 	"/>
	<polygon class="st1" points="1206.8,66.5 1231.2,66.5 1231.2,17.4 1271.1,17.4 1271.1,66.5 1311.4,66.5 1311.4,-22.4 1206.8,-22.4 
			"/>
	<rect x="891.8" y="139" class="st1" width="29.7" height="29.4"/>
	<rect x="921.5" y="139" class="st1" width="27.3" height="29.4"/>
	<rect x="994.5" y="139" class="st1" width="17.4" height="29.4"/>
	<rect x="1461.5" y="139" class="st1" width="30.5" height="29.4"/>
	<rect x="1492" y="139" class="st1" width="26.5" height="29.4"/>
	<rect x="1538" y="292.7" class="st1" width="56.8" height="29.3"/>
	<rect x="1627.8" y="292.7" class="st1" width="56.8" height="29.3"/>
	<rect x="1717.6" y="292.7" class="st1" width="56.8" height="29.3"/>
	<rect x="1807.4" y="292.7" class="st1" width="56.8" height="29.3"/>
	<rect x="1897.3" y="292.7" class="st1" width="56.8" height="29.3"/>
	<rect x="1398.4" y="139" class="st1" width="17.4" height="29.4"/>
	<rect x="891.8" y="188.4" class="st1" width="29.7" height="280.1"/>
	<path class="st1" d="M1023,188.4h-28.5v38.2h-45.7v-38.2h-27.3v280.1h27.3h45.7h11.2h17.3v37.1h183.8v-97.5h-40.9V247h40.9v-76.9
		H1023V188.4z M1065.9,268.6h78v139.5h-78V268.6z"/>
	<rect x="1492" y="188.4" class="st1" width="26.5" height="280.1"/>
	<path class="st1" d="M1461.5,226.6h-45.7v-38.2h-30.4v-18.3h-178.6V247h37.1v161.1h-37.1v97.5h178.6v-37.1h19.2h11.2h45.7h30.5
		V188.4h-30.5L1461.5,226.6L1461.5,226.6z M1346.6,408.1h-78.1V268.6h78.1V408.1z"/>
	<rect x="1407.9" y="487.3" class="st1" width="84.2" height="27.7"/>
	<rect x="1777.3" y="487.3" class="st1" width="176.7" height="27.7"/>
	<rect x="1492" y="487.3" class="st1" width="285.3" height="27.7"/>
	<rect x="811.8" y="292.7" class="st1" width="56.8" height="29.3"/>
	<rect x="722" y="292.7" class="st1" width="56.8" height="29.3"/>
	<rect x="632.2" y="292.7" class="st1" width="4.1" height="29.3"/>
	<rect x="636.3" y="292.7" class="st1" width="52.7" height="29.3"/>
	<rect x="542.4" y="292.7" class="st1" width="56.8" height="29.3"/>
	<rect x="452.6" y="292.7" class="st1" width="56.8" height="29.3"/>
	<rect x="452.6" y="487.3" class="st1" width="183.7" height="27.7"/>
	<rect x="636.3" y="487.3" class="st1" width="285.3" height="27.7"/>
	<rect x="921.5" y="487.3" class="st1" width="77.2" height="27.7"/>
	<polygon class="st1" points="452.6,467.6 636.3,467.6 636.3,429.1 632.2,429.1 632.2,380.4 636.3,380.4 636.3,342 452.6,342 	"/>
	<polygon class="st1" points="636.3,380.4 689.1,380.4 689.1,429.1 636.3,429.1 636.3,467.6 869.9,467.6 869.9,342 636.3,342 	"/>
	<path class="st1" d="M1536.7,467.6h240.6V342h-240.6V467.6z M1717.5,380.4h56.9v48.7h-56.9V380.4z"/>
	<rect x="1777.3" y="342" class="st1" width="176.7" height="125.6"/>
	<rect x="452.6" y="536" class="st1" width="183.7" height="29.5"/>
	<rect x="636.3" y="536" class="st1" width="285.3" height="29.5"/>
	<rect x="921.5" y="536" class="st1" width="36.1" height="29.5"/>
	<rect x="985.4" y="536" class="st1" width="221.4" height="29.5"/>
	<rect x="1206.8" y="536" class="st1" width="217.1" height="29.5"/>
	<rect x="1451.6" y="536" class="st1" width="40.4" height="29.5"/>
	<rect x="1777.3" y="536" class="st1" width="176.7" height="29.5"/>
	<rect x="1492" y="536" class="st1" width="285.3" height="29.5"/>
	<rect x="452.6" y="590.9" class="st1" width="183.7" height="26.6"/>
	<rect x="636.3" y="590.9" class="st1" width="265.4" height="26.6"/>
	<rect x="929.5" y="590.9" class="st1" width="277.3" height="26.6"/>
	<rect x="1206.8" y="590.9" class="st1" width="264.9" height="26.6"/>
	<rect x="1499.5" y="590.9" class="st1" width="277.8" height="26.6"/>
	<rect x="1777.3" y="590.9" class="st1" width="176.7" height="26.6"/>
</g>
<g>
	
		<linearGradient id="SVGID_1_" gradientUnits="userSpaceOnUse" x1="1886.5116" y1="262.2286" x2="1899.4069" y2="-830.8525" gradientTransform="matrix(1 0 0 -1 0 766.8)">
		<stop  offset="0" style="stop-color:#DFFCE3"/>
		<stop  offset="0.1217" style="stop-color:#E0FCE4"/>
		<stop  offset="0.3519" style="stop-color:#D0FAD6"/>
		<stop  offset="0.6661" style="stop-color:#A3F6AE"/>
		<stop  offset="1" style="stop-color:#BDF8C5"/>
	</linearGradient>
	<rect x="1880.4" y="403.4" class="st2" width="10.4" height="47.8"/>
	
		<linearGradient id="SVGID_2_" gradientUnits="userSpaceOnUse" x1="1885.8923" y1="262.2227" x2="1898.7872" y2="-830.8188" gradientTransform="matrix(1 0 0 -1 0 766.8)">
		<stop  offset="0" style="stop-color:#DFFCE3"/>
		<stop  offset="0.1217" style="stop-color:#E0FCE4"/>
		<stop  offset="0.3519" style="stop-color:#D0FAD6"/>
		<stop  offset="0.6661" style="stop-color:#A3F6AE"/>
		<stop  offset="1" style="stop-color:#BDF8C5"/>
	</linearGradient>
	<rect x="1880.4" y="460.6" class="st3" width="10.4" height="38.4"/>
	
		<linearGradient id="SVGID_3_" gradientUnits="userSpaceOnUse" x1="1885.2825" y1="262.2136" x2="1898.1777" y2="-830.8484" gradientTransform="matrix(1 0 0 -1 0 766.8)">
		<stop  offset="0" style="stop-color:#DFFCE3"/>
		<stop  offset="0.1217" style="stop-color:#E0FCE4"/>
		<stop  offset="0.3519" style="stop-color:#D0FAD6"/>
		<stop  offset="0.6661" style="stop-color:#A3F6AE"/>
		<stop  offset="1" style="stop-color:#BDF8C5"/>
	</linearGradient>
	<rect x="1880.4" y="508.5" class="st4" width="10.4" height="46"/>
	
		<linearGradient id="SVGID_4_" gradientUnits="userSpaceOnUse" x1="1900.4097" y1="262.3912" x2="1913.3052" y2="-830.7095" gradientTransform="matrix(1 0 0 -1 0 766.8)">
		<stop  offset="0" style="stop-color:#DFFCE3"/>
		<stop  offset="0.1217" style="stop-color:#E0FCE4"/>
		<stop  offset="0.3519" style="stop-color:#D0FAD6"/>
		<stop  offset="0.6661" style="stop-color:#A3F6AE"/>
		<stop  offset="1" style="stop-color:#BDF8C5"/>
	</linearGradient>
	<rect x="1894.8" y="403.4" class="st5" width="9.4" height="47.8"/>
	
		<linearGradient id="SVGID_5_" gradientUnits="userSpaceOnUse" x1="1899.7904" y1="262.3864" x2="1912.6857" y2="-830.6808" gradientTransform="matrix(1 0 0 -1 0 766.8)">
		<stop  offset="0" style="stop-color:#DFFCE3"/>
		<stop  offset="0.1217" style="stop-color:#E0FCE4"/>
		<stop  offset="0.3519" style="stop-color:#D0FAD6"/>
		<stop  offset="0.6661" style="stop-color:#A3F6AE"/>
		<stop  offset="1" style="stop-color:#BDF8C5"/>
	</linearGradient>
	<rect x="1894.8" y="460.6" class="st6" width="9.4" height="38.4"/>
	
		<linearGradient id="SVGID_6_" gradientUnits="userSpaceOnUse" x1="1894.6279" y1="262.3237" x2="1907.5232" y2="-830.7529" gradientTransform="matrix(1 0 0 -1 0 766.8)">
		<stop  offset="0" style="stop-color:#DFFCE3"/>
		<stop  offset="0.1217" style="stop-color:#E0FCE4"/>
		<stop  offset="0.3519" style="stop-color:#D0FAD6"/>
		<stop  offset="0.6661" style="stop-color:#A3F6AE"/>
		<stop  offset="1" style="stop-color:#BDF8C5"/>
	</linearGradient>
	<path class="st7" d="M1930,282.9h-74.6v116.3h74.6V282.9z M1876.4,385.6h-9.9V369h9.9V385.6z M1876.4,349.4h-9.9v-16.6h9.9V349.4z
		 M1876.4,312.7h-9.9v-16.6h9.9V312.7z M1899.7,385.6h-9.9V369h9.9V385.6z M1899.7,349.4h-9.9v-16.6h9.9V349.4z M1899.7,312.7h-9.9
		v-16.6h9.9V312.7z M1921.1,385.6h-9.9V369h9.9V385.6z M1921.1,349.4h-9.9v-16.6h9.9V349.4z M1921.1,312.7h-9.9v-16.6h9.9V312.7z"/>
	
		<linearGradient id="SVGID_7_" gradientUnits="userSpaceOnUse" x1="1895.3835" y1="262.3312" x2="1908.2788" y2="-830.7506" gradientTransform="matrix(1 0 0 -1 0 766.8)">
		<stop  offset="0" style="stop-color:#DFFCE3"/>
		<stop  offset="0.1217" style="stop-color:#E0FCE4"/>
		<stop  offset="0.3519" style="stop-color:#D0FAD6"/>
		<stop  offset="0.6661" style="stop-color:#A3F6AE"/>
		<stop  offset="1" style="stop-color:#BDF8C5"/>
	</linearGradient>
	<path class="st8" d="M1891.4,278.5h2.7h38.4c0,0,1.4-22.3-14.8-29.7v-6.7h-23.6h-2.7h-23.6v6.7c-16.2,7.4-14.9,29.7-14.9,29.7
		H1891.4z M1887.7,251.2h10.1v18.2h-10.1V251.2z"/>
	
		<linearGradient id="SVGID_8_" gradientUnits="userSpaceOnUse" x1="1896.0551" y1="262.3401" x2="1908.9503" y2="-830.737" gradientTransform="matrix(1 0 0 -1 0 766.8)">
		<stop  offset="0" style="stop-color:#DFFCE3"/>
		<stop  offset="0.1217" style="stop-color:#E0FCE4"/>
		<stop  offset="0.3519" style="stop-color:#D0FAD6"/>
		<stop  offset="0.6661" style="stop-color:#A3F6AE"/>
		<stop  offset="1" style="stop-color:#BDF8C5"/>
	</linearGradient>
	<polygon class="st9" points="1915.8,210.4 1912.7,210.4 1912.7,187 1908.9,187 1908.9,210.4 1904.4,210.4 1904.4,180 1900,180 
		1900,159.9 1903.4,159.9 1903.4,156.3 1900,156.3 1900,149.7 1895.9,149.7 1895.9,121.2 1889.9,121.2 1889.9,149.7 1885.2,149.7 
		1885.2,156.3 1881.7,156.3 1881.7,159.9 1885.2,159.9 1885.2,180 1881.7,180 1881.7,210.4 1877.3,210.4 1877.3,187 1873.5,187 
		1873.5,210.4 1869.7,210.4 1869.7,238.2 1915.8,238.2 	"/>
	
		<linearGradient id="SVGID_9_" gradientUnits="userSpaceOnUse" x1="1997.6866" y1="263.5401" x2="2010.5822" y2="-829.5444" gradientTransform="matrix(1 0 0 -1 0 766.8)">
		<stop  offset="0" style="stop-color:#DFFCE3"/>
		<stop  offset="0.1217" style="stop-color:#E0FCE4"/>
		<stop  offset="0.3519" style="stop-color:#D0FAD6"/>
		<stop  offset="0.6661" style="stop-color:#A3F6AE"/>
		<stop  offset="1" style="stop-color:#BDF8C5"/>
	</linearGradient>
	<path class="st10" d="M1929.3,493.9c-16.3,18.5,13.8,26.5,12,30.9c0,0,8.1-19.5,50.6-20.1V492h13.2v12.7c41.1,1,49,20,49,20
		c-1.8-4.4,28.3-12.3,12-30.9c-12.6-14.3-36.3-15.6-53.3-20.5c0,0-8.5-15.6-12.7-23.3c4-1,6.9-4.6,6.9-8.9c0-5.1-4.1-9.2-9.2-9.2
		s-9.2,4.1-9.2,9.2c0,4.3,2.9,7.9,6.9,8.9c-4.2,7.7-12.7,23.3-12.7,23.3C1965.5,478.3,1941.9,479.6,1929.3,493.9z"/>
	
		<linearGradient id="SVGID_10_" gradientUnits="userSpaceOnUse" x1="1207.4897" y1="254.2169" x2="1220.3849" y2="-838.8546" gradientTransform="matrix(1 0 0 -1 0 766.8)">
		<stop  offset="0" style="stop-color:#D3FBD8"/>
		<stop  offset="0.1217" style="stop-color:#D7FBDB"/>
		<stop  offset="0.3519" style="stop-color:#DAFCDE"/>
		<stop  offset="0.6661" style="stop-color:#D7FBDB"/>
		<stop  offset="1" style="stop-color:#D7FBDC"/>
	</linearGradient>
	<path class="st11" d="M1997.6,549.7c0,0,43.6-2.6,75.4,13.7V532c-7-2.1-15.4-3.6-25-3.4c0,0-4.2-17.4-43.9-17.9v12.7H1991v-12.7
		c-39.7,0.5-43.9,17.9-43.9,17.9c-9.9-0.2-18.5,1.5-25.6,3.6V403.4h-13.4v134.2c-1.6,0.8-2.9,1.6-4,2.2v-31.3h-9.4v46h2
		c0.2,3.9,2,7.1,4.2,9.5h-6.2v18.2c-1.4,0.4-2.7,0.8-4,1.2V564h-7.3c-1.1-2.8-2.6-5.6-4.6-8.4c-0.8-1.1-1.6-2.1-2.4-3V403.4h-12.6
		v138.3h-6.3v0.3c-7.6-1.6-15.7-1.2-23.3-0.6c-4-3.8-6.5-7.4-10-9.1c-3.8-1.9-8.4-2.1-12.9-3.1c-0.1-0.6-0.2-1.4-0.2-2.2
		c-0.2-24.8-0.6-49.5-0.4-74.3c0.1-16.4-2.5-31.8-13-44.8c-5.8-7.2-12.6-12.7-20.3-16.9c-6.2-3.4-12.9-6-20.1-7.9
		c-7.4-1.9-14.9-3.2-21.5-4.6c-1.8-5.7-3.6-10.7-5-15.8c-0.3-1.2,0.2-3.8,0.9-4c5.7-1.5,4.9-5.8,4.6-9.9c-0.8-8.5-0.5-16.8,3.6-24.6
		c0.7-1.4,1.4-2.9,1.5-4.4c0.6-7.3,0.6-14.4-1.1-21.8c-1.2-5.1-6.4-6.6-6.7-11.4c-6,0.1-4.4-8.4-10.3-9.2c-1.4-0.2-3.1-3.9-6.2-3.7
		c0-0.4,0.1-0.8,0.1-1.3c0-11.2-9.1-20.3-20.3-20.3c-9.9,0-18.1,7.1-19.9,16.5c-4.2,2.3-8.8,4.1-11.9,7.4c-2.7,2.8-8.3,3.6-7.8,9.2
		c0,0.2-1.5,0.3-2.2,0.7c-0.9,0.4-2.2,0.9-2.3,1.5c-0.7,4.8-5.8,6.7-6.5,12.2c-0.8,6-1.3,11.8-0.7,17.6c0.4,4.3,3.5,8.4,4,12.8
		c0.9,7.2,1,14.6,1.1,21.9c0.1,4.1,1.4,6.5,5.8,6.4v-0.1l0.1,0.1l0,0c-0.6-7.6-1.5-15.2-1.8-22.8c-0.1-3.2,1.4-6.5,1.6-9.8
		c0.4-6.3,0.2-12.7,0.4-19c0.2-10,11.9-18,21.1-14.1c2.3,1,5.1,4,5.1,6.1s-2.7,4.8-5,6.2c-2.8,1.7-6.2,2.2-9.3,3.6
		c15.5,1.9,15.6,1.9,17.2,8.9c-5.9,4-12.7,2.4-19.4,3.8c3.9,1.1,7.8,2.2,12.8,3.7c-3.8,0.4-6.5,0.8-9.2,1c-3.5,0.2-3.9,1.7-2.2,4.3
		c0.4,0.7,0.9,1.4,1.4,2c5.2,6.4,6.9,13.6,5,21.6c-1.7,6.9-1.1,13.3,4.6,19.4c-9-0.4-14.9-4.4-19.4-10.8c-1-1.4-2-2.7-3-4h-0.1
		c-0.2,1.8-0.3,3.7-0.8,5.5c-1,3.8-2.7,7.4-3.3,11.2c-0.5,3.1-1.6,3.8-4.6,4.3c-7,1.2-13.8,3-20.4,5.3v-28.5h-59.8V351h59.8l7.3-7.3
		v-9.5h-67.2v-4.7h59l-4.7-13.6h-54.4v-4.2h56.7l7.8-5.2v-6.1h-64.5v-4.2h4.4h6.7h14.4h6.7h14.4h6.7v-7v-5.6h-6.7v5.6h-14.4v-5.6
		h-6.7v5.6h-14.4v-5.6h-6.7v5.6h-4.4v-94.4h55.5v-26.4h-44v-7.7h-11.5v-30.2h56.1l6.9-11.5h34.6l27.7-59.9
		c-35.8,26-141.5,37.1-200.6,41.4c-21.4,1.6-36.8,2.2-40.4,2.4c-13.8-0.6-192.3-8.3-241.1-43.7l27.6,59.9h34.6l6.9,11.5h55.2v31.3
		h-12.3v6.6h-44.1v26.4h56.4V220c-1.2-3-3.6-5.4-7-6.3c-5.5-1.5-11.2,1.8-12.7,7.3s1.8,11.2,7.3,12.7c5.2,1.4,10.5-1.4,12.3-6.3
		v10.7c-15.7-5.4-32.3-8.2-49.3-8.2c-28.2,0-55.3,7.7-78.8,22c-10.2,6.2-19.7,13.7-28.4,22.3c-28.6,28.6-44.4,66.7-44.4,107.2
		c0,16.3,2.6,32.1,7.5,47.2h-3.1c0.8-2,1-4.3,0.4-6.5c-0.8-3-2.9-5.3-5.5-6.6v-1.9h-12.9c-3.8-5.2-5.3-14.8-5.7-24.4
		c1.9,2.4,4.8,4,8.1,4c5.7,0,10.4-4.6,10.4-10.4c0-5.7-4.6-10.4-10.4-10.4c-3.3,0-6.2,1.6-8.1,4c0.3-7.9,0.9-13.8,0.9-13.8
		c1.8-5.6,2.3-12.5,2.2-19.5c0.9,3.6,3.6,6.6,7.4,7.6c5.5,1.5,11.2-1.8,12.7-7.3s-1.8-11.2-7.3-12.7s-11.2,1.8-12.7,7.3
		c-0.1,0.3-0.1,0.6-0.2,1c-0.7-14.5-3.7-27.9-3.7-27.9c10.8,2.5,13.6-17.5,13.6-17.5l-0.3-18h1.7l0.8-18l2.5-2.5v-4.7l-5.5-0.3
		c-5,2.2-5.8,14.7-5.8,14.7h-4.4v-3c-2.8-18.8-12.7-26-12.7-26l2.5-3.3l-3-3l3.6-2.5c-3.3-1.9-3.3-5.5-3.3-5.5l0.6-8l12.5-6.6
		l-14.1,1.9l-2.2-3l10.2-12.5l-13.8,8.9l-1.9-1.7l1.9-15.8l-5.3,15l-3-0.3l-8.3-14.4l4.2,14.7l-2.2,2.2l-14.1-9.4l11.9,12.7l-1.4,5
		l1.4,3.6v3l-6.9-0.6l-3.6-6.9c1.4-7.8-2.2-12.7-2.2-12.7l-5-17.7l-0.6-11.1l-1.9-4.7l6.3-4.7v-8.9l-4.1-1.1v-3.9
		c8-6.1,1.8-21.1,1.8-21.1c-2.1,6.9-9.3,11.6-9.3,11.6c-5,4.4-0.6,9.4-0.6,9.4l-0.3,3.9h-4.2l-1.7,8.3l3.6,3.9v2.5v1.4l1.9,1.9
		l-1.9,3v1.9l1.4,11.4l3.3,4.2c-1.4,9.4-0.6,16.3-0.6,16.3c4.2,8.6,2.7,19.9,2.7,19.9c-5.6,16.1,0,21.6,0,21.6l-2.7,8.3
		c8.3,10.5-2.8,31-2.8,31l6.9,5l-4.1,3.9v26l4.1,5.5l0.3,31.6c10.5,30.5-4.4,57.6-4.4,57.6h-6.6v7.8h6.6v7.2h-19.9v12.7
		c2.2,9.4,9.4,10,9.4,10v20.5c-7.8,3.3-9.4,8.3-9.4,8.3v13.8h-17.7v13.9h-9.8c-3-5.7-6.2-11.7-9.3-17.6h-30.5v-1.8H926
		c0-0.3,0-0.6,0-0.9h76.6v-1.6v-1.9v-1.6h-1.7V478v-1.4V475h-23.2h-2.4v-2.1h-49.6c0-1.5-0.1-3.1-0.1-4.6h7.8
		c-0.5,1.5-1,2.9-1.4,4.2h16.6c0,0,0.3-1.6,0.9-4.2h22.4c0,0,1.1-20.9-14.6-32.4h5.5h7.4c1.3,11.4,6.7,36.6,6.7,36.6h16.6
		c-6.4-17.4-12.7-49.8-12.7-49.8h-18.1h-18.1c0,0-0.5,2.8-1.4,7.1c-0.4-0.1-0.7-0.2-1.1-0.2v-10.3h-3.4v-10.8h8c0,0,0.6-7.4-6.3-9.1
		l-1.1-7.4H936v-10.3h-4V392h-3.1l-1.1,7.4c-1.6,0.4-2.7,1.1-3.6,1.9c-0.8-42-1.7-83.9-2.6-125.9c-0.4-20.3-0.9-40.6-1.4-60.9
		c-0.3-10.9-0.2-21.6,1.4-32c1.6-10.7,4.7-21,10.5-30.9c3.3-5.5,3.5-14,12.2-11.7c-1-13.8,10.7-21.6,14.3-35.1
		c-8.8,5.8-15.7,10.6-22.8,15.1c-1.7,1.1-3.7,1.7-5.6,2.1c-3.1,0.6-5.9,0.5-8.6-0.1c-5-1.2-9.3-4.4-13.4-8.3
		c-5.8,5.7-11.8,11.5-19.5,8.1c-6.6-2.9-12.1-8.5-18.1-13c-14.7,16.7-19.1,17.4-36.5,5.1c-2,1.6-4,3.2-6,4.8
		c-6.4,5.1-16.6,4.4-23-0.4c-6.1-4.6-13.1-8-19.7-12c2.8,8.1,6.9,14.5,10.3,21.2c1.8,3.5,2.4,7.6,3.8,12c1.7,0.9,6.2,1.8,7.5,4.3
		c9.5,19.5,16.6,39,15.9,62.1c-1,34.4-1.8,68.7-2.6,103.1h-1.6v-10.8h-2.6v-10.6h-3.4h-3.4v10.6h-2.6v10.8h-5.4v7.4h5.4V330h-8.3
		v7.1h5.1v6.8c-26.8,2.6-38.7,29.3-42.9,42.1h58c0,1.5-0.1,3-0.1,4.5h-59.2h-6.5v6.6c-5.9-7.7-14-13.5-23.5-16.3v-99.5
		c7.2-0.7,14.3-1.8,21.3-3.5c3.8-0.9,7.2-3.8,10.5-6.2c2.6-1.9,1.9-4.4-0.8-5.6c-1.7-0.8-4-0.8-5.9-0.6c-2.5,0.3-5,1.3-6.8-1.6
		c-0.4-0.6-1.9-1-2.8-0.8c-5.2,1.2-10.3,2.6-15.5,4v-70.1c11.9-5.3,20.2-17.1,20.2-31c0-16.1-11.2-29.5-26.2-33V77.1
		c3.6-2.5,6-6.6,6-11.3c0-6.9-5.1-12.6-11.8-13.5V-92.9h-7.7V53.7c-4.7,2.2-7.9,6.9-7.9,12.4c0,4.7,2.4,8.8,6,11.3v55.8
		c-15,3.5-26.1,16.9-26.1,33c0,12.1,6.4,22.7,15.9,28.7v77.3c-4.3,0.3-8.7,0.7-13,1c-5.9,0.4-12.1,1-17.8,0
		c-10.2-1.7-20.3-4.1-30.5-6.1c-3.8-0.8-7.5-1.5-11.3-2.1c-5.4-0.9-7.5-2.5-7.2-8.3c0.3-8.9-0.3-17.9-1.1-26.8
		c-0.6-7.1-4.8-11-11.1-11.5c-7.6-0.7-12.9,2.1-14.5,9.1c-2.2,10-3.7,20.2-5.1,30.4c-0.5,4.1-2,6.2-6.2,6.7
		c-8.4,0.9-16.8,1.8-25,3.4c-10.4,1.9-20.6,4.9-31,6.7c-7.9,1.4-16.1,2.5-24.1,2.4c-8.4-0.1-16.7-0.1-25-3.3
		c-6.2-2.5-14.1-5.4-20.3,1.8c-0.4,0.5-1.6,0.3-2.5,0.4c-1.2,0.1-2.5-0.1-3.6,0.4c-2,1-3.9,2.3-5.8,3.5c1.4,1.6,2.5,4,4.2,4.7
		c4.1,1.6,8.5,2.8,12.8,3.2c6.5,0.6,13.1-0.1,19.6,0.5c2.5,0.2,5.4,1.9,7,3.8c3.6,4.4,6.7,9.2,9.4,14.1c4,7.1,9.6,10.1,17.5,8.5
		c14-2.8,27.2,0.1,40.2,5.4c3.3,1.4,5,2.7,4.7,6.6c-0.8,13.2-1.4,26.4-2,39.6c-0.1,1.9,0.2,4.5,1.4,5.6c4.8,4.1,5.7,9.3,5.9,15.1
		c0.2,7.3,0.3,14.7,0.8,22c0.3,4.9,1.8,9.7,2,14.6c0.2,4.4-0.7,8.9-0.9,13.4c-1.1,27.6-2.1,55.3-3.2,82.9c-0.4,9.5-0.5,9.5-10,11.7
		c-3.5,0.8-5.5,2.3-5.4,6.2c0,1.4-1,4-1.8,4.1c-5.1,0.8-5.1,4.6-5.2,8.2c-0.7,15.4-1.2,30.9-1.8,46.3c-0.3,7.7-0.7,15.5-1.1,23.4
		c-1,0.3-1.9,0.6-2.9,0.9v-28.4h-53v34.5h18.9v-18.5h14.9v18.5h0.8c-7.7,2.6-15.3,5.3-22.9,8H459v9h9.2c-5.9,2.2-11.8,4.5-17.7,6.8
		h-27.4v9.5h3.7c-6.5,2.7-13,5.4-19.4,8.2h-47.6v8.6H388c-9.6,4.3-18.9,8.7-28.2,13.2c-2.3,1.1-4.7,2.3-7.1,3.4v708.4h7.1h276.5
		h285.3h285.3H2073V697.5c-0.1,0-0.1-0.1-0.2-0.1c0.1,0,0.1,0,0.2,0v-35.6h-77.9c-15.5-6.5-31.3-12.7-47.5-18.8v-0.8h-2l0,0v-28.8
		c0,0,3.4-10.1,12.7-10.7c0,0,8.7-1.3,12.7,11.4v36.2h14.8v-47.9c0,0,4.1-12.2,15.4-13c0,0,10.6-1.6,15.4,13.8v47.1h13.4v-36.9
		c0,0,3.4-10.1,12.7-10.7c0,0,8.7-1.3,12.7,11.4v36.2h17.4v-79.2c-11.5-6.2-35.5-15.8-74.3-16.1c-35.5,0.3-58.6,8.4-71.1,14.4v-8.5
		C1958.7,547.4,1997.6,549.7,1997.6,549.7z M1648.3,322.4c-0.7-0.8-1.4-1.7-2-2.5c2-1.4,4-2.9,6-4.2c0.1-0.1,1.1,1.2,1.7,1.9
		C1652,319.2,1650.1,320.8,1648.3,322.4z M1647.3,316.3c-0.3-0.4-0.6-0.8-0.9-1.2c1.2-3.3,3.5-5.4,7.2-5.7c0.4,0.5,0.7,1.1,1.1,1.6
		C1652.2,312.8,1649.8,314.5,1647.3,316.3z M1647.5,310.4c0.6-4.5,2.9-6.3,6.7-5.8c0.3,0.5,0.6,0.9,0.9,1.4
		C1652.6,307.5,1650,309,1647.5,310.4z M1605.7,319.2h6.1v7h-6.1V319.2z M1587.6,319.2h6.1v7h-6.1V319.2z M1569.6,319.2h6.1v7h-6.1
		V319.2z M969.9,482.3h5.2v-4.1h2.4v4.3h-7.6L969.9,482.3L969.9,482.3z M958.4,482.3h7.6v0.2h-7.6V482.3z M947.4,482.3h7.6v0.2h-7.6
		V482.3z M737.4,467.2v1.5h2.2l1.7,4.6h-21.5v-0.9C726.2,471.9,732.1,470,737.4,467.2z M706.9,198.8c2.8,0.7,5.7,1.2,8.7,1.2
		c1.5,0,3-0.1,4.5-0.3V221h-13.2V198.8z M706.9,228.2h13.2v22.6h-13.2V228.2z M706.9,258h13.2v12.2c-4.4,0.4-8.8,0.8-13.2,1.2V258z
		 M706.9,307.2c4.1-3,6.9-7.5,9.1-12.9c0.9-2.1,2-4.1,2.4-6.2c0-0.1,0.1-0.2,0.1-0.3h1.6v22.6h-13.2V307.2z M706.9,317.7h13.2v22.6
		h-13.2V317.7z M664.9,488.6h-9.4v24.6l-2.5,6.7c-0.5-4.9-2.5-10.9-9.2-11.5c-0.1-2.2-0.2-4.4-0.3-6.5v-3h-0.1
		c-0.5-12.3-1.1-24.6-1.6-36.9c0-0.9,0.3-2.6,0.7-2.7c4.5-1.4,3.3-5.1,3.3-8.2c0-8.9-1.4-18.1,0.3-26.7c2-10,1.7-19.8,1.2-29.7
		c-1.2-23.3-2.9-46.6-4.2-69.9c-0.1-1.7,1.5-4.6,2.8-5c10.2-2.7,20.6-5.1,31-7.1c5.7-1.1,11.6-1.9,17.4-1.8c1.2,0,2.3-0.1,3.3-0.2
		v71.9c-0.5,0.2-0.9,0.4-1.4,0.6V382h-4v3.3c-14,8.1-23.5,23.2-23.5,40.5c0,3.9,0.5,7.7,1.4,11.4c-14.6,11.7-13.5,31.6-13.5,31.6
		h15.7l-1.7,4.6h-20.2v9.1h16.8L664.9,488.6z M674.2,500.3l0.9-2.3c0.2,0,0.5-0.1,0.8-0.1c4.3,0,4.3,2.2,4.3,2.2v7.1L674.2,500.3z
		 M679.2,528.8h-3.4h-4.3v-9.1L679.2,528.8z M696.8,575.9c-5.2,1.2-10.4,2.4-15.6,3.6c-6.4-2-11-8-11-15.1c0-8.7,7.1-15.8,15.8-15.8
		c8.7,0,15.8,7.1,15.8,15.8C701.8,568.9,699.9,573,696.8,575.9z M685.9,500.2c0,0,0-2.2,4.3-2.2c4.3,0,4.3,2.2,4.3,2.2v24.2
		l-8.6-10.2L685.9,500.2z M707,488.6h-28.3l2.3-6.1h26V488.6z M707,473.4h-22.6l1.7-4.6h8.1h2.7c3.2,1.4,6.5,2.4,10,3.1L707,473.4
		L707,473.4z M706.9,379.9v-32.3h13.2v31.7c-1.5-0.1-3-0.2-4.5-0.2C712.6,379.1,709.7,379.4,706.9,379.9z M730,512.2v-16h5.1v16H730
		z M719.9,488.6v-6.1h24.9l2.3,6.1H719.9z M758.9,562.9V534c0,0,0-2.3,4.5-2.6l6.6,17.4v12C766.3,561.5,762.6,562.2,758.9,562.9z
		 M815.5,552.8c-3.7,0.6-7.3,1.2-11,1.8v-43.9c0,0,0-3.4,7.3-3.4c2.1,0,3.5,0.3,4.6,0.7C816.1,522.9,815.8,537.9,815.5,552.8z
		 M816.7,488.5H761l-2.3-6.1h58.1C816.8,484.4,816.7,486.5,816.7,488.5z M817,473.3h-61.8l-1.7-4.6h34.1V428h9.7v40.7h5V427
		c0,0,3.1-5.7,10.4-6.3l0,0c2.1,0.2,3.8,0.7,5.2,1.5C817.6,439.3,817.3,456.3,817,473.3z M819.7,330.4h-1.1v-13.7h1.4
		C819.9,321.2,819.8,325.8,819.7,330.4z M831.6,141c26.6,0,52.9,0,79.6,0c0,7.3,0,14.3,0,22.1c-26.7,0-52.9,0-79.6,0
		C831.6,155.7,831.6,148.6,831.6,141z M860.1,545.9v-12c0,0,0-2.6,5.6-2.6c5.6,0,5.6,2.6,5.6,2.6v10.5
		C867.5,544.8,863.8,545.4,860.1,545.9z M889.2,512.1v-16h5.1v16H889.2z M911.9,488.4l-80.9,0.1c0-2,0-4,0-6.1l80.9-0.1
		C911.9,484.4,911.9,486.4,911.9,488.4z M911.9,473.2l-80.9,0.1c0-15.1,0-30.2,0-45.3h6.2v40.7h45.5h8.3v-4.8v-15h8.6v19.8h8.8h3.5
		C911.9,470.2,911.9,471.7,911.9,473.2z M911.9,435.6c-2.6,1.8-4.8,3.8-6.6,6c-2.7-7.7-6.4-10.4-8.1-11.2V418h-3.4v12.4
		c-2.7,1.4-11.1,7.8-11.2,33.4h-5.4V433H874v-42.2h-8h-35c0-1.5,0-3,0-4.5h33.7c-3.7-11.2-13.3-33.1-33.7-40c0-59,0-118,0-177.1
		c27.1,0,53.3,0,80.9,0C911.9,258.3,911.9,347,911.9,435.6z M924.3,408.7h5.2v10.8H926v10.3c-0.5,0.1-0.9,0.2-1.3,0.3
		C924.6,423,924.4,415.9,924.3,408.7z M934.1,529.1h-4.3v-6.4c2.5-2.8,5.4-5.3,8.6-7.4v13.8L934.1,529.1z M948,529h-4.3v-16.8
		c2.7-1.3,5.6-2.2,8.6-2.9V529H948z M967.9,533v-24.4c14,1.8,25.7,10.1,31.9,21.5C989.1,531,978.5,531.9,967.9,533z M1284.5,233.7v2
		h-0.8v128.7c-0.5,0-0.9,0.1-1.4,0.2l-33.8-126.2C1260,235.5,1272,233.8,1284.5,233.7z M1270.7,391.3l1.3-0.2
		c0.3,0.4,0.7,0.9,1.1,1.3l-15.7,15.7V399L1270.7,391.3z M1257.3,396.4v-3.3l7.5-1L1257.3,396.4z M1274.6,393.9
		c0.5,0.5,1.1,0.9,1.7,1.3l-19.1,33v-16.9L1274.6,393.9z M1278.3,396.2c0.6,0.3,1.3,0.6,2,0.8l-23,85.7v-50.1L1278.3,396.2z
		 M1246.3,239.1l33.8,126.1c-0.7,0.2-1.4,0.5-2.1,0.8l-65.3-113.1C1223.2,247,1234.4,242.3,1246.3,239.1z M1206.8,256.6
		c1.3-0.8,2.6-1.7,4-2.5l65.3,113.1c-0.6,0.4-1.2,0.9-1.8,1.4l-67.5-67.5l-24.8-24.9C1189.5,268.8,1197.9,262.3,1206.8,256.6z
		 M1180.4,277.8l26.4,26.4l65.9,65.9c-0.5,0.6-0.9,1.2-1.4,1.8l-64.6-37.3l-48.5-28C1164.5,296.1,1171.9,286.4,1180.4,277.8z
		 M1215.9,521.5c-0.3-3.3-2.1-6.4-5.1-8.2c-1.3-0.7-2.6-1.2-4-1.3c-4-0.5-8,1.4-10.2,5.1c-0.8,1.4-1.2,2.9-1.3,4.4
		c-6.4,0-12.9,0.1-19.3,0.2v-14h-13.3V502c0.5,0.8,1,1.6,1.7,2.2c4,4,10.6,4,14.7,0c4-4,4-10.6,0-14.7c-4.1-4-10.6-4-14.7,0
		c-1.2,1.2-2,2.7-2.5,4.3H1145V480c0,0-1.7-5-9.4-8.3v-5.3c0.2,0.8,0.5,1.6,1,2.4c2.9,5,9.2,6.7,14.2,3.8s6.7-9.2,3.8-14.2
		s-9.2-6.7-14.2-3.8c-2.4,1.4-4.1,3.6-4.8,6.1v-9.6c0,0,7.2-0.6,9.4-10V438c7.5,18.6,18.8,35.8,33.4,50.4
		c8.7,8.7,18.2,16.1,28.4,22.3c6.8,4.1,13.8,7.7,21.1,10.7C1223.9,521.5,1219.9,521.5,1215.9,521.5z M1246,521.8
		c-2.1,0-4.2-0.1-6.3-0.1c-9.4-3.1-18.5-7.1-27-11.9l33.2-57.6L1246,521.8L1246,521.8z M1246,447.7l-35.2,60.9
		c-1.4-0.8-2.7-1.7-4-2.5c-8.9-5.7-17.3-12.2-24.8-19.6l24.8-24.8l39.2-39.2V447.7z M1246,419.4l-39.2,39.2l-26.3,26.3
		c-8.5-8.6-16-18.3-22.1-28.8l48.5-28l39.2-22.6v13.9H1246z M1246,389.1v1.7l-39.2,10.5l-64.1,17.2l0.6,2.2l63.5-17l39.2-10.5v9.8
		l-39.2,22.6l-49.6,28.6c-12.3-21.5-19.3-46.4-19.3-72.9s7-51.3,19.3-72.8l49.6,28.6l63.5,36.6c-0.3,0.7-0.6,1.4-0.8,2.1l-62.6-16.8
		l-63.5-17l-0.6,2.2l64.1,17.2L1269,378c-0.1,0.7-0.2,1.5-0.3,2.2h-61.8h-68.8v2.2h68.8h46.2l-7.7,1.1L1246,389.1z M1284.5,522.6
		c-9-0.3-18.1-0.5-27.2-0.7v-30.6l25.1-93.8c0.7,0.1,1.4,0.2,2.1,0.2V522.6L1284.5,522.6z M1286.7,233.7c12.4,0.1,24.5,1.7,36,4.7
		l-33.8,126.3c-0.4-0.1-0.9-0.2-1.3-0.2V235.7h-0.8v-2H1286.7z M1309.2,523.5c-7.5-0.3-15-0.6-22.5-0.8v-125c0.7-0.1,1.4-0.2,2-0.3
		l20.5,76.5V523.5z M1309.2,465.3l-18.3-68.5c0.6-0.2,1.3-0.5,1.9-0.8l16.5,28.5v40.8H1309.2z M1309.2,420.1l-14.5-25.2
		c0.6-0.4,1.1-0.8,1.6-1.3l12.9,12.9V420.1z M1309.2,403.4l-11.4-11.4c0.4-0.5,0.9-1,1.2-1.6l10.1,5.8L1309.2,403.4L1309.2,403.4z
		 M1309.2,393.7l-9-5.2c0.2-0.5,0.5-1,0.6-1.5l1.2-0.2l7.2,1.9V393.7z M1309.2,386.5l-1.5-0.4l1.5-0.2V386.5z M1320.5,523.9v-8
		l2.2,8.1C1322,524,1321.2,524,1320.5,523.9z M1334.9,520.5c-3.3,1.2-6.6,2.2-10,3.2l-4.4-16.3v-63.3l14.4,24.9V520.5z
		 M1334.9,464.5l-14.4-24.9v-21.8l14.4,14.4V464.5z M1334.9,429.1l-14.4-14.4v-11.9l14.4,8.3V429.1z M1334.9,408.5l-14.4-8.3v-8.4
		l14.4,3.8V408.5z M1334.9,393.4l-14.4-3.9v-5.2l0.8-0.1l-0.2-1.8h13.8L1334.9,393.4L1334.9,393.4z M1334.9,380.2h-14.2l-1-6.9
		l15.1-4.1L1334.9,380.2L1334.9,380.2z M1334.9,367l-31.9,8.5l-1.8,0.3c-0.2-0.6-0.4-1.2-0.7-1.7l34.4-19.9V367z M1334.9,351.6
		l-35.5,20.5c-0.4-0.6-0.8-1.2-1.3-1.7l36.8-36.8V351.6z M1334.9,330.4l-38.3,38.3c-0.5-0.5-1.1-0.9-1.7-1.4l40-69.3V330.4z
		 M1334.9,293.7l-41.9,72.5c-0.6-0.3-1.3-0.6-2-0.9l33.9-126.3c3.4,0.9,6.7,2,10,3.2V293.7z M1815,538.9c2-3.4,5.1-4.1,9.5-2.7
		c-2.5,2.3-4.3,4.1-6.4,5.6c-0.7,0.6-2,0.4-3.1,0.5C1815,541.2,1814.5,539.8,1815,538.9z M1812.5,533.7c-1.5,2.2-3.5,5.3-5.6,8.3
		C1804.9,535.7,1808.3,532.9,1812.5,533.7z M1777.3,510.4c-0.4,0.2-0.7,0.3-1,0.5c0.3-0.6,0.7-1.2,1-1.8c3.1-5.3,6.3-10.4,8.7-15.9
		c2.7-6,4.3-12.5,6.3-18.8C1796.5,490.2,1788.8,505.2,1777.3,510.4z M1777.3,482c3.1-8.4,6.3-16.7,9.4-25
		c-0.2,13.5-2.9,26.2-9.4,37.6c-2.6,4.5-5.7,8.8-9.5,12.8C1771,498.9,1774.1,490.4,1777.3,482z M1750.5,400c0.7,0,1.3,0.1,2,0.1
		c3.4,13.6,0.8,26.8-2.3,40.1c-0.8-0.1-1.5-0.2-2.3-0.4C1748.8,426.5,1749.7,413.2,1750.5,400z M1734.3,451.4
		c0.9-14.7,0.7-29.4,1.1-44.1c0.2-7.5,0.2-7.5,8.6-7.4c0,33.8,0.8,67.5-17.8,97.9C1732.2,482.9,1733.4,467.1,1734.3,451.4z
		 M1721.9,530.7c10.1-5.3,16.5-12.5,20.8-22.4C1744.1,518.9,1734.2,529.7,1721.9,530.7z M1722.8,377.2c0-2.5,0-4.9,0-7.2
		c0.3-0.1,0.6-0.2,0.9-0.2c1.2,2.4,2.4,4.8,3.8,7.7C1725.7,377.5,1724.4,377.4,1722.8,377.2z M1727.1,315.4
		c-4.5,6-15.6,7.8-23.1,3.7C1707.1,308.8,1718.1,307.1,1727.1,315.4z M1709.1,520.9c-5.9,5.2-19.9,6-29.9,1.9
		c-10.5-4.3-17.5-13.6-18.4-24.7c14,16.4,31.7,18.2,50.8,15.4c-4.8,4.7-16.7,6.4-30.7,3.7C1690.5,522.8,1699.6,522.6,1709.1,520.9z
		 M1710.6,525.7c-7.4,7.5-25.6,7-33.8-0.7C1688,528.8,1699,529.4,1710.6,525.7z M1677.7,502.1c15.9,5.2,30.1,4.8,42.7-6.4
		C1716.6,511.7,1689.5,513.7,1677.7,502.1z M1672,384.2c8.3,1.5,17,3.2,25.4,4.7C1690.4,393.6,1677.7,391.2,1672,384.2z
		 M1708.6,400.3c0,16.2,0,32.1,0,48.8c-11.8-15-11.6-31.8-9.5-49.7C1702.6,399.7,1705.5,400,1708.6,400.3z M1679.5,348.3
		c2.7-7,4.8-14.4,8.5-20.8c6.5-11.1,5.9-17.5-10.2-20.8c11.9-1,18.3,3.4,20,13.8c0.8,5,0.6,10.4-0.2,15.5c-0.8,5-3.8,6-8.7,4.6
		c-1.2-0.4-2.7,0.4-4.1,0.6c0.8,1.3,1.3,2.7,2.3,3.8s2.5,1.7,4,2.7c-2.9,1.5-5.1,2.8-7.4,3.8c-1.2,0.5-2.6,0.4-4,0.6
		C1679.7,350.8,1679.1,349.4,1679.5,348.3z M1679.3,365.3c1-2.6,3-4.7,5.1-7.8c1.9,0.3,4.1,0.7,5.9,1c3,5.5,4.6,10.8-0.8,15.2
		C1685.8,376.7,1677.5,370,1679.3,365.3z M1690.3,383.8c-3.9,2.6-13.3,0.2-18.4-5C1678.1,380.5,1684.3,382.2,1690.3,383.8z
		 M1674.2,395c10.6-0.8,16.1,3.8,16.8,14.3c0.2,2.4,0,4.9,0,7.4c0.7,10.3-2.7,19.6-7.4,28.6c-0.5,1-1.1,2.1-2,2.8
		c-2.2,1.8-4.6,3.3-6.9,4.9c-0.5-2.5-1-4.9-1.5-7.4c-2.6-12.6-4.8-25.3-7.8-37.9C1663.5,399.4,1665.7,395.6,1674.2,395z
		 M1646.7,388.7c1.5-1.9,3-3.7,4.5-5.5c1.4,1.7,4,3.3,4.1,5.1c0.7,11,1,21.9,1.1,32.9c0.2,20.5,1.1,40.9,6.1,60.9
		c0.7,3,1.9,5.8,2.9,8.7c-8.4-9-12.2-20.1-13.4-31.7c-2.3-23.1-3.6-46.3-5.3-69.5C1646.7,389.3,1646.6,388.9,1646.7,388.7z
		 M1646.1,487c9.3,27.1,10.4,28.8,28.6,42.4C1657,528.6,1643.5,508.6,1646.1,487z M1627.3,425.5V392c1.9-0.8,3.8-1.6,5.7-2.3
		c5.1-2,9.5,1.2,9.7,6.5c0.3,10.9,0.1,21.9,0.1,33.5c-5.9-0.7-11.3-0.7-13.5,4.4v-4.3h-6.1c-0.5-1.4-1-2.8-1.6-4.2h5.7V425.5z
		 M1628.8,435.6c-0.3,1.1-0.4,2.4-0.5,4c-0.6-0.2-1.1-0.4-1.7-0.6c-0.4-1.1-0.8-2.2-1.2-3.3h3.4V435.6z M1612.2,440.5h-2.3
		c-0.6-1.6-1.2-3.2-1.8-4.8h3.3C1611.8,437.2,1612,438.9,1612.2,440.5z M1614.3,519.6c2.1,1.7,4.4,3.3,6.9,4.7h-11.1
		c-1.4-1.5-2.6-3.1-3.8-4.7H1614.3z M1567.5,377.7h38.9v16.7c-1.4,0.8-2.8,1.7-4.2,2.6v-16.5h-34.7L1567.5,377.7L1567.5,377.7z
		 M1597.8,408.1c2.6-2.3,5.4-4.3,8.6-6.1v6.1H1597.8z M1598.1,429.7H1585c0.3-1.4,0.7-2.9,1.2-4.2h11.6
		C1597.9,426.9,1598,428.3,1598.1,429.7z M1567.5,404.4h25.1c-1.3,1.2-2.5,2.5-3.6,3.7h-21.5V404.4z M1567.5,425.5h12
		c-0.4,1.4-0.7,2.8-1,4.2h-11V425.5z M1567.5,435.6h10.1c-0.1,1.6-0.2,3.2-0.2,4.8h-9.9V435.6z M1567.5,519.6h18.8
		c0.1,1.6,0.2,3.2,0.3,4.7h-19.1L1567.5,519.6L1567.5,519.6z M1361.3,130.5h76.2v37.9h-65.6v-6.6h-10.6V130.5L1361.3,130.5z
		 M1361.3,254.7c10.1,6.1,19.4,13.3,27.8,21.5l-7.3,7.3h-0.4v0.4l-5.3,5.3h-9.2v-5.6h-5.6L1361.3,254.7L1361.3,254.7z M1414.6,300.4
		h-0.9c-0.9-1.4-1.8-2.8-2.8-4.2h3.5C1414.2,297.6,1414.3,299,1414.6,300.4z M1415.7,311.7c0.7,1.4,1.5,2.8,2.2,4.2h-16.7l7.3-4.2
		H1415.7z M1371.6,429.7l-7.3-4.2h62.2c-0.4,1.4-0.9,2.8-1.4,4.2H1371.6z M1422.8,435.6c-0.6,1.6-1.3,3.2-2,4.8h-30.6l-8.4-4.8
		H1422.8z M1373.1,408.1v-2.2l8.2,2.2H1373.1z M1389.9,408.1l-16.8-4.5v-21.2h4.2v22h52.5v-21.9h3.4c-0.1,8.8-0.9,17.3-2.4,25.7
		L1389.9,408.1L1389.9,408.1z M1430.5,425.5h2.4c0.8,1.7,2.1,3.2,3.7,4.2h-7.4C1429.7,428.3,1430.1,426.9,1430.5,425.5z
		 M1373.1,380.2v-2.5h60c0,0.8,0.1,1.7,0.1,2.5H1373.1z M1383.8,356.2l19.2-5.2h27c0.4,1.7,0.7,3.4,1,5.2H1383.8z M1431.4,334.1
		h-1.8c-0.5-1.6-1.1-3.1-1.6-4.7h6.3C1432.9,330.7,1431.9,332.4,1431.4,334.1z M1431.4,326.2h-4.7c-0.5-1.2-0.9-2.3-1.4-3.5v-3.5
		h6.1V326.2z M1425.4,334.1h-55.9l8.1-4.7h46.1C1424.4,331,1424.9,332.6,1425.4,334.1z M1377.3,326.2h-6.1v-7h6.1V326.2z
		 M1395.4,319.2v6.9h-6.1v-3.4L1395.4,319.2z M1389.3,320.2v-1h1.8L1389.3,320.2z M1407.3,326.2v-7h6.1v7H1407.3z M1368.1,300.4
		l4.2-4.2h9.1h6.7h14.4h3.5c1,1.4,2,2.8,2.9,4.2H1368.1z M1379.3,289.2l2.1-2.1v2.1H1379.3z M1388.1,289.2v-5.6h-3.2l5.8-5.8
		c3.6,3.6,6.9,7.4,10,11.4H1388.1z M1361.3,296.2h0.6h5.1h2.1l-4.2,4.2h-3.6L1361.3,296.2L1361.3,296.2z M1361.3,311.7h42.7
		l-7.3,4.2h-34.4l-1,3L1361.3,311.7L1361.3,311.7z M1361.3,329.5h11.9l-8.1,4.7h-3.8V329.5L1361.3,329.5z M1361.3,351h33.1
		l-19.2,5.2h-13.9V351L1361.3,351z M1361.3,426.4l5.8,3.3h-5.8V426.4z M1361.3,435.6h16.1l8.4,4.8h-24.4L1361.3,435.6L1361.3,435.6z
		 M1541,429.7h-12.7v5.9h12.7v4.8h-9.4v79.2h9.4v4.7h-12.7v5.9h12.7v3.6h-9.4v8.6c-13.1-1.7-26.3-3.3-39.5-4.8
		c-24.1-2.8-48.4-5.2-73-7.3h30.9v-5.9h-72.5c0.6-1.5,0.9-3.1,0.7-4.7h67.7v-79.2h-20.7c0.7-1.6,1.3-3.2,2-4.8h22.8v-5.9h-2
		c2.1-1.3,3.7-3.4,4.4-6c1.1-3.9-0.3-7.9-3.2-10.4c4.5-9.9,15.2-22.3,40.6-23.4c0.8,0,1.5,0.1,2.3,0.2c40.3,3,41.6,35.4,41.6,35.4
		h7.4v4.1H1541z M1541,356.2h-49h-2.3H1435c-0.3-1.7-0.6-3.4-0.9-5.2h55.7h2.3h49L1541,356.2L1541,356.2z M1541,334.1h-49h-2.3
		h-38.5c-0.5-1.9-1.6-3.4-2.9-4.7h43.7l0,0h49L1541,334.1L1541,334.1z M1443.4,326.2v-7h6.1v7H1443.4z M1461.4,326.2v-7h6.1v7
		H1461.4z M1479.4,326.2v-7h6.1v7H1479.4z M1497.5,326.2v-7h6.1v7H1497.5z M1515.5,326.2v-7h6.1v7H1515.5z M1533.5,326.2v-7h6.1v7
		H1533.5z M1541,300.4h-48.9v11.2h48.9v4.2h-49l0,0h-69.8c-0.7-1.4-1.4-2.8-2.1-4.2h71.9l0,0v-11.2l0,0h-57.3
		c0.3-1.4,0.3-2.8,0.1-4.2h10.1h6.7h14.4h6.7h14.4h4.9h1.9h14.4h6.7h14.4h6.7h4.8v4.2H1541z M1541,289.2h-4.8v-5.6h-6.7v5.6h-14.4
		v-5.6h-6.7v5.6H1494v-5.6h-1.9h-4.9v5.6h-14.4v-5.6h-6.7v5.6h-14.4v-5.6h-6.7v5.6h-14.4v-5.6h-6.7v4.2c-1.5,0.1-2.9,0.5-4.2,1.3
		c0,0-0.1,0-0.1,0.1h-10.1v-5.6h-6.7v1.4c-3.1-3.7-6.4-7.3-9.8-10.8c-9.5-9.5-20.1-17.6-31.4-24.1v-0.8c4.6,1.5,9.7-0.3,12.2-4.7
		c2.9-5,1.2-11.3-3.8-14.2c-2.7-1.5-5.7-1.7-8.4-0.8v-34.8H1492h49V289.2z M1541,160.7h-11.4v7.7H1492h-28v-37.9h28.1h49L1541,160.7
		L1541,160.7z M1584.6,533.8h-17.2v-3.6h19.5c0.1,0.8,0.1,1.7,0.2,2.5C1586.3,533.1,1585.4,533.5,1584.6,533.8z M1593,440.5
		c-0.4-1.2-0.8-2.4-1.2-3.7c-0.7,0-1.4,0.1-2.1,0.1c-0.1,1.2-0.3,2.4-0.4,3.5h-5.6c0.1-1.6,0.1-3.1,0.3-4.7v-0.1h14.6
		c0.1,1.6,0.3,3.2,0.4,4.8h-6V440.5z M1600.7,524.3c-0.3-0.7-0.5-1.5-0.7-2.3c1.4,0.8,2.7,1.5,4.1,2.3H1600.7z M1610,425.5
		c0.2,1.4,0.4,2.8,0.6,4.2h-4.7c-0.5-1.4-1.1-2.8-1.6-4.2H1610z M1625.3,556.8v-3.3l0,0c3.6-2,4.7-0.4,4.9,3.4c0,0.3,0,0.5,0.1,0.8
		C1628.6,557.4,1626.9,557.1,1625.3,556.8z M1632.7,544.6c-2.5,0.2-5,0.3-7.5,0.5v-11.3h-14c-0.7-0.9-1.9-1.7-3.6-2.4
		c-0.8-0.3-1.5-0.7-2.1-1.2h23.8v-5.9h-4.9c-1.2-1.5-2.3-3.1-3.2-4.7h4.1v-5.3c5.4,7.9,12.8,13.9,24.1,16
		c-4.9,4.4-9.7,8.8-14.6,13.1C1634.2,543.9,1633.4,544.6,1632.7,544.6z M1662.3,558.2c18.4,6.9,36.1,5.2,54.3,1.3
		C1702.4,570.1,1671.9,569.6,1662.3,558.2z M1713.7,574.4c-3-0.7-6.1-1.3-9.2-2c5.7-0.9,11.4-2.4,17.1-4.7
		C1720.1,570.5,1717.3,572.7,1713.7,574.4z M1739.9,545.4c-0.2,1.3-3,2.7-4.9,3.1c-7.4,1.5-14.8,2.6-22.2,4
		c-3.8,0.7-7.6,2.1-11.5,2.6c-2,0.3-4.8-0.1-6.2-1.4c-1.1-1.1-1.5-4.6-0.6-5.7c1.3-1.6,4-2.6,6.2-2.8c3.2-0.3,6.5,0.4,9.8,0.4
		c1.6,0,3.3-0.7,5.3-1.2c-7.4-6.4-40.4-6.4-47.4,0.8c4.7,0,9.4-0.3,14,0.1c2.5,0.2,5.4,1.1,7.2,2.7c0.9,0.8,0.5,4.6-0.6,5.7
		c-1.3,1.3-4.2,1.8-6.1,1.5c-8.2-1.4-16.3-3.3-24.5-5c-3.4-0.7-6.9-0.7-10.2-1.6c-2-0.5-5.1-2-5.3-3.2c-0.2-2,1.3-5.2,2.9-6
		c5.9-2.6,12-5,18.3-6.2c4.3-0.9,9.2-0.3,13.6,0.6c10,1.9,19.8,1.6,29.7-0.3c8.2-1.5,16.3-0.9,24.1,2.6c2.1,0.9,4.3,2,5.7,3.6
		C1738.9,541.1,1740.2,543.6,1739.9,545.4z M1760.5,576.7c-2.1,2.6-4.3,5-6.8,7c-3.9-1-7.8-1.9-11.8-2.8c1.3-4.1,2.5-8,3.7-12
		c0.4-1.4,0.4-2.9,0.5-4.4c0.3-6.3,1.3-7.1,7.4-5.9C1764.4,560.6,1767.4,568,1760.5,576.7z M1747.1,547c-1.9-4.6-3.3-7.9-5.3-12.7
		c1.7-1.7,3.9-5.4,7.2-6.9c7.9-3.7,16.2-6.8,24.6-9.3c1.3-0.4,2.5-0.7,3.8-1.1c6.9-2,13.6-4,18.9-9.6c-3.1,9.3-10.7,13.1-18.9,16.2
		c-1,0.4-2,0.7-3,1.1c0.1,0.5,0.1,0.9,0.1,1.4c0.9,0,1.9,0.1,2.8,0.1c5.4,0.3,10.9,0.5,17.5,0.9c-5.5,2.1-10.1,3.8-15.3,5.7
		c0,3-0.9,5.3-2.3,7c-2.5,3-6.7,4.3-11.6,4.9C1759.2,545.4,1752.8,546.3,1747.1,547z M1773.9,586.5c1.1-0.5,2.3-1,3.4-1.5
		c14-6.7,24.3-17.1,29.7-33.6c2.4,18.1-9.9,31.8-29.7,34.7C1776.2,586.3,1775.1,586.4,1773.9,586.5z M1790.5,593
		c-1.8-0.5-3.7-1-5.5-1.5c2.3-0.8,4.5-1.7,6.7-2.8c6.5-3.3,13-7,18.5-11.6c7-5.8,8.6-11.1,9.2-22.8c4,2.8,5.2,9.2,3,15.7
		c-2.6,7.6-8,12.6-14.7,16.4C1802.2,589.6,1796.4,591.7,1790.5,593z M1811,593.5c15.8-9.2,25-21.9,22.9-41.1
		c5.3,6.2,6.9,13.3,4,20.9C1833.3,585.5,1822.7,590.3,1811,593.5z M1857.4,582.5c-4.1,6.9-12.9,12.6-24.8,14.8
		c13.3-7.3,23.6-16.7,23.7-33.5c0.4,0.5,0.8,1.1,1.1,1.6L1857.4,582.5L1857.4,582.5z M1880.4,604.3c-0.3,0-0.7-0.1-1-0.1
		c0.3-0.9,0.7-1.9,1-2.8l0,0V604.3z M1908.1,578.8c-1.3,0.3-2.6,0.6-4,1v-13.1c1.4,1,2.8,1.8,4,2.4V578.8z"/>
	
		<linearGradient id="SVGID_11_" gradientUnits="userSpaceOnUse" x1="1286.6569" y1="255.1697" x2="1299.5515" y2="-837.8408" gradientTransform="matrix(1 0 0 -1 0 766.8)">
		<stop  offset="0" style="stop-color:#DFFCE3"/>
		<stop  offset="0.1217" style="stop-color:#E0FCE4"/>
		<stop  offset="0.3519" style="stop-color:#D0FAD6"/>
		<stop  offset="0.6661" style="stop-color:#A3F6AE"/>
		<stop  offset="1" style="stop-color:#BDF8C5"/>
	</linearGradient>
	<path class="st12" d="M1293.6,218.6c0-5.7-4.7-10.4-10.4-10.4s-10.4,4.6-10.4,10.4c0,5.7,4.6,10.4,10.4,10.4
		C1288.9,229,1293.6,224.3,1293.6,218.6z"/>
	
		<linearGradient id="SVGID_12_" gradientUnits="userSpaceOnUse" x1="1244.5909" y1="254.6654" x2="1257.4858" y2="-838.3702" gradientTransform="matrix(1 0 0 -1 0 766.8)">
		<stop  offset="0" style="stop-color:#DFFCE3"/>
		<stop  offset="0.1217" style="stop-color:#E0FCE4"/>
		<stop  offset="0.3519" style="stop-color:#D0FAD6"/>
		<stop  offset="0.6661" style="stop-color:#A3F6AE"/>
		<stop  offset="1" style="stop-color:#BDF8C5"/>
	</linearGradient>
	<path class="st13" d="M1243.9,234.7c5.5-1.5,8.8-7.2,7.3-12.7s-7.2-8.8-12.7-7.3s-8.8,7.2-7.3,12.7S1238.4,236.1,1243.9,234.7z"/>
	
		<linearGradient id="SVGID_13_" gradientUnits="userSpaceOnUse" x1="1401.3081" y1="256.5003" x2="1414.2035" y2="-836.5842" gradientTransform="matrix(1 0 0 -1 0 766.8)">
		<stop  offset="0" style="stop-color:#DFFCE3"/>
		<stop  offset="0.1217" style="stop-color:#E0FCE4"/>
		<stop  offset="0.3519" style="stop-color:#D0FAD6"/>
		<stop  offset="0.6661" style="stop-color:#A3F6AE"/>
		<stop  offset="1" style="stop-color:#BDF8C5"/>
	</linearGradient>
	<path class="st14" d="M1391.1,257.5c-4.1,4-4.1,10.6,0,14.7c4,4.1,10.6,4.1,14.7,0c4-4,4-10.6,0-14.7
		C1401.8,253.4,1395.2,253.4,1391.1,257.5z"/>
	
		<linearGradient id="SVGID_14_" gradientUnits="userSpaceOnUse" x1="1205.5006" y1="254.1913" x2="1218.396" y2="-838.8928" gradientTransform="matrix(1 0 0 -1 0 766.8)">
		<stop  offset="0" style="stop-color:#DFFCE3"/>
		<stop  offset="0.1217" style="stop-color:#E0FCE4"/>
		<stop  offset="0.3519" style="stop-color:#D0FAD6"/>
		<stop  offset="0.6661" style="stop-color:#A3F6AE"/>
		<stop  offset="1" style="stop-color:#BDF8C5"/>
	</linearGradient>
	<path class="st15" d="M1206.8,250.6c0.2-0.1,0.5-0.2,0.7-0.3c5-2.9,6.7-9.2,3.8-14.2c-1.1-1.9-2.7-3.3-4.5-4.2
		c-3-1.4-6.6-1.4-9.7,0.4c-5,2.9-6.7,9.2-3.8,14.2C1196.1,251.2,1202,252.9,1206.8,250.6z"/>
	
		<linearGradient id="SVGID_15_" gradientUnits="userSpaceOnUse" x1="1171.947" y1="253.8001" x2="1184.842" y2="-839.2639" gradientTransform="matrix(1 0 0 -1 0 766.8)">
		<stop  offset="0" style="stop-color:#DFFCE3"/>
		<stop  offset="0.1217" style="stop-color:#E0FCE4"/>
		<stop  offset="0.3519" style="stop-color:#D0FAD6"/>
		<stop  offset="0.6661" style="stop-color:#A3F6AE"/>
		<stop  offset="1" style="stop-color:#BDF8C5"/>
	</linearGradient>
	<path class="st16" d="M1176.4,274.8c4-4.1,4-10.6,0-14.7c-4.1-4-10.6-4-14.7,0c-4,4-4,10.6,0,14.7S1172.3,278.9,1176.4,274.8z"/>
	
		<linearGradient id="SVGID_16_" gradientUnits="userSpaceOnUse" x1="1146.1334" y1="253.4969" x2="1159.0286" y2="-839.555" gradientTransform="matrix(1 0 0 -1 0 766.8)">
		<stop  offset="0" style="stop-color:#DFFCE3"/>
		<stop  offset="0.1217" style="stop-color:#E0FCE4"/>
		<stop  offset="0.3519" style="stop-color:#D0FAD6"/>
		<stop  offset="0.6661" style="stop-color:#A3F6AE"/>
		<stop  offset="1" style="stop-color:#BDF8C5"/>
	</linearGradient>
	<path class="st17" d="M1138.4,310.4c5,2.9,11.3,1.2,14.2-3.8c2.9-5,1.2-11.3-3.8-14.2c-5-2.9-11.3-1.2-14.2,3.8
		C1131.8,301.2,1133.5,307.5,1138.4,310.4z"/>
	
		<linearGradient id="SVGID_17_" gradientUnits="userSpaceOnUse" x1="963.4214" y1="251.3386" x2="976.3167" y2="-841.7292" gradientTransform="matrix(1 0 0 -1 0 766.8)">
		<stop  offset="0" style="stop-color:#DFFCE3"/>
		<stop  offset="0.1217" style="stop-color:#E0FCE4"/>
		<stop  offset="0.3519" style="stop-color:#D0FAD6"/>
		<stop  offset="0.6661" style="stop-color:#A3F6AE"/>
		<stop  offset="1" style="stop-color:#BDF8C5"/>
	</linearGradient>
	<path class="st18" d="M953.9,224v6.5h2.3v5.4h-2.6v2.6h2.1c0,0,0.5,108-9.9,181.9h11.9c0,0,3.4-41.9,4.6-67.9
		c1.3,26,4.6,67.9,4.6,67.9h11.9c-10.4-73.9-9.9-181.9-9.9-181.9h2.1v-2.6h-2.6v-5.4h2.3V224c0,0-1.3-4.6-7.4-6.2v-31.9h-2v31.9
		C955.3,219.4,953.9,224,953.9,224z"/>
	
		<linearGradient id="SVGID_18_" gradientUnits="userSpaceOnUse" x1="528.304" y1="246.1883" x2="541.196" y2="-846.6107" gradientTransform="matrix(1 0 0 -1 0 766.8)">
		<stop  offset="0" style="stop-color:#DFFCE3"/>
		<stop  offset="0.1217" style="stop-color:#E0FCE4"/>
		<stop  offset="0.3519" style="stop-color:#D0FAD6"/>
		<stop  offset="0.6661" style="stop-color:#A3F6AE"/>
		<stop  offset="1" style="stop-color:#BDF8C5"/>
	</linearGradient>
	<rect x="525.6" y="582.1" class="st19" width="6.9" height="3.5"/>
	
		<linearGradient id="SVGID_19_" gradientUnits="userSpaceOnUse" x1="517.4055" y1="246.0586" x2="530.2973" y2="-846.7181" gradientTransform="matrix(1 0 0 -1 0 766.8)">
		<stop  offset="0" style="stop-color:#DFFCE3"/>
		<stop  offset="0.1217" style="stop-color:#E0FCE4"/>
		<stop  offset="0.3519" style="stop-color:#D0FAD6"/>
		<stop  offset="0.6661" style="stop-color:#A3F6AE"/>
		<stop  offset="1" style="stop-color:#BDF8C5"/>
	</linearGradient>
	<rect x="514.7" y="582.1" class="st20" width="6.9" height="3.5"/>
	
		<linearGradient id="SVGID_20_" gradientUnits="userSpaceOnUse" x1="506.507" y1="245.9302" x2="519.3987" y2="-846.8459" gradientTransform="matrix(1 0 0 -1 0 766.8)">
		<stop  offset="0" style="stop-color:#DFFCE3"/>
		<stop  offset="0.1217" style="stop-color:#E0FCE4"/>
		<stop  offset="0.3519" style="stop-color:#D0FAD6"/>
		<stop  offset="0.6661" style="stop-color:#A3F6AE"/>
		<stop  offset="1" style="stop-color:#BDF8C5"/>
	</linearGradient>
	<rect x="503.8" y="582.1" class="st21" width="6.9" height="3.5"/>
	
		<linearGradient id="SVGID_21_" gradientUnits="userSpaceOnUse" x1="495.6085" y1="245.8022" x2="508.5002" y2="-846.9747" gradientTransform="matrix(1 0 0 -1 0 766.8)">
		<stop  offset="0" style="stop-color:#DFFCE3"/>
		<stop  offset="0.1217" style="stop-color:#E0FCE4"/>
		<stop  offset="0.3519" style="stop-color:#D0FAD6"/>
		<stop  offset="0.6661" style="stop-color:#A3F6AE"/>
		<stop  offset="1" style="stop-color:#BDF8C5"/>
	</linearGradient>
	<rect x="492.9" y="582.1" class="st22" width="6.9" height="3.5"/>
	
		<linearGradient id="SVGID_22_" gradientUnits="userSpaceOnUse" x1="484.81" y1="245.6756" x2="497.7019" y2="-847.1119" gradientTransform="matrix(1 0 0 -1 0 766.8)">
		<stop  offset="0" style="stop-color:#DFFCE3"/>
		<stop  offset="0.1217" style="stop-color:#E0FCE4"/>
		<stop  offset="0.3519" style="stop-color:#D0FAD6"/>
		<stop  offset="0.6661" style="stop-color:#A3F6AE"/>
		<stop  offset="1" style="stop-color:#BDF8C5"/>
	</linearGradient>
	<rect x="482.1" y="582.1" class="st23" width="6.9" height="3.5"/>
	
		<linearGradient id="SVGID_23_" gradientUnits="userSpaceOnUse" x1="399.1215" y1="244.7006" x2="412.021" y2="-848.7266" gradientTransform="matrix(1 0 0 -1 0 766.8)">
		<stop  offset="0" style="stop-color:#DFFCE3"/>
		<stop  offset="0.1217" style="stop-color:#E0FCE4"/>
		<stop  offset="0.3519" style="stop-color:#D0FAD6"/>
		<stop  offset="0.6661" style="stop-color:#A3F6AE"/>
		<stop  offset="1" style="stop-color:#BDF8C5"/>
	</linearGradient>
	<rect x="396.4" y="582.1" class="st24" width="6.9" height="3.5"/>
	
		<linearGradient id="SVGID_24_" gradientUnits="userSpaceOnUse" x1="388.2235" y1="244.5347" x2="401.1153" y2="-848.2452" gradientTransform="matrix(1 0 0 -1 0 766.8)">
		<stop  offset="0" style="stop-color:#DFFCE3"/>
		<stop  offset="0.1217" style="stop-color:#E0FCE4"/>
		<stop  offset="0.3519" style="stop-color:#D0FAD6"/>
		<stop  offset="0.6661" style="stop-color:#A3F6AE"/>
		<stop  offset="1" style="stop-color:#BDF8C5"/>
	</linearGradient>
	<rect x="385.5" y="582.1" class="st25" width="6.9" height="3.5"/>
	
		<linearGradient id="SVGID_25_" gradientUnits="userSpaceOnUse" x1="377.425" y1="244.4079" x2="390.3169" y2="-848.3795" gradientTransform="matrix(1 0 0 -1 0 766.8)">
		<stop  offset="0" style="stop-color:#DFFCE3"/>
		<stop  offset="0.1217" style="stop-color:#E0FCE4"/>
		<stop  offset="0.3519" style="stop-color:#D0FAD6"/>
		<stop  offset="0.6661" style="stop-color:#A3F6AE"/>
		<stop  offset="1" style="stop-color:#BDF8C5"/>
	</linearGradient>
	<rect x="374.7" y="582.1" class="st26" width="6.9" height="3.5"/>
	
		<linearGradient id="SVGID_26_" gradientUnits="userSpaceOnUse" x1="366.5265" y1="244.2792" x2="379.4183" y2="-848.4969" gradientTransform="matrix(1 0 0 -1 0 766.8)">
		<stop  offset="0" style="stop-color:#DFFCE3"/>
		<stop  offset="0.1217" style="stop-color:#E0FCE4"/>
		<stop  offset="0.3519" style="stop-color:#D0FAD6"/>
		<stop  offset="0.6661" style="stop-color:#A3F6AE"/>
		<stop  offset="1" style="stop-color:#BDF8C5"/>
	</linearGradient>
	<rect x="363.8" y="582.1" class="st27" width="6.9" height="3.5"/>
	
		<linearGradient id="SVGID_27_" gradientUnits="userSpaceOnUse" x1="355.628" y1="244.1514" x2="368.5199" y2="-848.6323" gradientTransform="matrix(1 0 0 -1 0 766.8)">
		<stop  offset="0" style="stop-color:#DFFCE3"/>
		<stop  offset="0.1217" style="stop-color:#E0FCE4"/>
		<stop  offset="0.3519" style="stop-color:#D0FAD6"/>
		<stop  offset="0.6661" style="stop-color:#A3F6AE"/>
		<stop  offset="1" style="stop-color:#BDF8C5"/>
	</linearGradient>
	<rect x="352.9" y="582.1" class="st28" width="6.9" height="3.5"/>
	
		<linearGradient id="SVGID_28_" gradientUnits="userSpaceOnUse" x1="390.6723" y1="244.5842" x2="403.5679" y2="-848.5206" gradientTransform="matrix(1 0 0 -1 0 766.8)">
		<stop  offset="0" style="stop-color:#DFFCE3"/>
		<stop  offset="0.1217" style="stop-color:#E0FCE4"/>
		<stop  offset="0.3519" style="stop-color:#D0FAD6"/>
		<stop  offset="0.6661" style="stop-color:#A3F6AE"/>
		<stop  offset="1" style="stop-color:#BDF8C5"/>
	</linearGradient>
	<rect x="359.8" y="634.5" class="st29" width="64.5" height="9"/>
	
		<linearGradient id="SVGID_29_" gradientUnits="userSpaceOnUse" x1="387.5346" y1="244.5431" x2="400.4296" y2="-848.5171" gradientTransform="matrix(1 0 0 -1 0 766.8)">
		<stop  offset="0" style="stop-color:#DFFCE3"/>
		<stop  offset="0.1217" style="stop-color:#E0FCE4"/>
		<stop  offset="0.3519" style="stop-color:#D0FAD6"/>
		<stop  offset="0.6661" style="stop-color:#A3F6AE"/>
		<stop  offset="1" style="stop-color:#BDF8C5"/>
	</linearGradient>
	<rect x="359.8" y="650.2" class="st30" width="58.6" height="9.5"/>
	
		<linearGradient id="SVGID_30_" gradientUnits="userSpaceOnUse" x1="443.5453" y1="245.205" x2="456.4406" y2="-847.8652" gradientTransform="matrix(1 0 0 -1 0 766.8)">
		<stop  offset="0" style="stop-color:#DFFCE3"/>
		<stop  offset="0.1217" style="stop-color:#E0FCE4"/>
		<stop  offset="0.3519" style="stop-color:#D0FAD6"/>
		<stop  offset="0.6661" style="stop-color:#A3F6AE"/>
		<stop  offset="1" style="stop-color:#BDF8C5"/>
	</linearGradient>
	<path class="st31" d="M359.8,564.9c7.2,6.1,19.4,10.9,40.3,10.9h11.7v51.4h16.7v16.2h25.2v-16.2h20.5v-51.4h13.3
		c56.8,0,49.9-35.2,49.9-35.2c-8.6,14.6-28.4,16.3-28.4,16.3c-12.2,1.3-24.3-3.2-34.8-9.3v-52.8h7.6c49.4,0,43.4-30.7,43.4-30.7
		c-7.5,12.7-24.7,14.2-24.7,14.2c-9.1,0.9-18.2-1.8-26.3-5.9v-56.2h4.1c43.2,0,38-26.9,38-26.9c-6.5,11.1-21.6,12.5-21.6,12.5
		c-19.1,2-38.1-14.5-45.9-22.3c3-1.4,5.1-4.4,5.1-7.9c0-4.8-3.9-8.7-8.7-8.7s-8.7,3.9-8.7,8.7c0,3.5,2,6.4,4.9,7.8
		c-7.7,7.7-26.8,24.4-46,22.4c0,0-15.1-1.3-21.6-12.5c0,0-5.2,26.9,38,26.9v57c-7.7,3.7-16.2,6-24.7,5.1c0,0-17.2-1.5-24.7-14.2
		c0,0-6,30.7,43.4,30.7h6v53.8c-10.1,5.6-21.6,9.6-33.2,8.3c0,0-10-0.9-18.8-6.7c-2.5-1.6-5-3.7-7.1-6.2c-0.9-1.1-1.7-2.2-2.5-3.5
		c0,0-1.4,7.4,2.5,15.4C354.2,559,356.4,562.1,359.8,564.9z M454.9,529.6h-20.5v-32.4h20.5V529.6z M433.9,426.6h20.5V459h-20.5
		V426.6z M433.7,567.1h20.5v51.4h-0.5V608h-20V567.1z"/>
	
		<linearGradient id="SVGID_31_" gradientUnits="userSpaceOnUse" x1="377.0752" y1="244.4201" x2="389.9702" y2="-848.6322" gradientTransform="matrix(1 0 0 -1 0 766.8)">
		<stop  offset="0" style="stop-color:#DFFCE3"/>
		<stop  offset="0.1217" style="stop-color:#E0FCE4"/>
		<stop  offset="0.3519" style="stop-color:#D0FAD6"/>
		<stop  offset="0.6661" style="stop-color:#A3F6AE"/>
		<stop  offset="1" style="stop-color:#BDF8C5"/>
	</linearGradient>
	<polygon class="st32" points="359.8,626.5 370.7,626.5 370.7,608 385.5,608 385.5,626.5 404.6,626.5 404.6,592 359.8,592 
		352.7,592 351.6,592 351.6,626.5 352.7,626.5 	"/>
</g>
<path class="st33" d="M1766.5,797.3l-22.3-10.7l-13.2-59.4l-10.8-4.9l0.1,56.1l-33.4-15.2l-2.9-16.5l-8.2-3.8l-2.3,19.9l-13.5,14.8
	l8.2,3.8l14.4-8.6L1716,788l-42.4,36.7l10.8,4.9l53.5-29l22.7,9.9c0,0,6.7,2.5,10.3-3.1C1772.8,800.7,1766.5,797.3,1766.5,797.3z"/>
<g>
	<path class="st33" d="M353,907.5l1.1,1.8c0,0,1.9-1.2,5.7-3.4v-2.5C355.3,906,353,907.5,353,907.5z"/>
	<path class="st33" d="M360.4,903.1c-0.2,0.1-0.4,0.2-0.6,0.4v2.5c0.5-0.3,1.1-0.6,1.7-1L360.4,903.1z"/>
	<path class="st33" d="M761.3,743.2l0.6,2.1c5.5-1.5,11.1-2.9,16.7-4.4l-0.5-2.1C772.4,740.3,766.9,741.7,761.3,743.2z"/>
	<path class="st33" d="M794.8,734.6l0.5,2.1c5.6-1.4,11.2-2.7,16.8-4.1l-0.5-2.1C806,731.9,800.4,733.2,794.8,734.6z"/>
	<path class="st33" d="M694.8,762.3l0.6,2.1c5.5-1.7,11-3.3,16.5-5l-0.6-2.1C705.8,758.9,700.3,760.6,694.8,762.3z"/>
	<path class="st33" d="M728,752.4l0.6,2.1c5.5-1.6,11-3.1,16.6-4.7l-0.6-2.1C739,749.3,733.5,750.9,728,752.4z"/>
	<path class="st33" d="M828.5,726.6l0.5,2.1c5.6-1.3,11.2-2.5,16.9-3.7l-0.5-2.1C839.7,724.1,834.1,725.4,828.5,726.6z"/>
	<path class="st33" d="M896.3,712.6l0.4,2.1c5.6-1.1,11.3-2.1,17-3.1l-0.4-2.1C907.6,710.6,901.9,711.6,896.3,712.6z"/>
	<path class="st33" d="M930.4,706.6l0.4,2.1c5.7-0.9,11.3-1.9,17.1-2.7l-0.3-2.1C941.7,704.8,936,705.7,930.4,706.6z"/>
	<path class="st33" d="M862.3,719.3l0.4,2.1c5.6-1.2,11.3-2.3,16.9-3.4l-0.4-2.1C873.6,717,867.9,718.1,862.3,719.3z"/>
	<path class="st33" d="M661.8,772.7l0.7,2c5.4-1.8,10.9-3.5,16.5-5.3l-0.7-2.1C672.7,769.2,667.2,771,661.8,772.7z"/>
	<path class="st33" d="M964.5,701.3l0.3,2.1c5.7-0.8,11.4-1.6,17.1-2.4l-0.3-2.1C975.9,699.7,970.2,700.5,964.5,701.3z"/>
	<path class="st33" d="M629,783.8l0.7,2c5.4-1.9,10.8-3.7,16.4-5.6l-0.7-2C639.9,780.1,634.4,781.9,629,783.8z"/>
	<path class="st33" d="M406.1,878.3l1,1.9c4.8-2.5,10-5.1,15.4-7.8l-1-1.9C416.1,873.3,410.9,875.9,406.1,878.3z"/>
	<path class="st33" d="M468.4,848.2l0.9,2c5.1-2.3,10.4-4.7,15.8-7.1l-0.9-2C478.8,843.4,473.5,845.8,468.4,848.2z"/>
	<path class="st33" d="M375.5,894.6l1,1.9c4.4-2.4,9.5-5.2,15.2-8.2l-1-1.9C385,889.4,379.9,892.1,375.5,894.6z"/>
	<path class="st33" d="M437.1,862.9l0.9,1.9c5-2.4,10.2-4.9,15.6-7.4l-0.9-1.9C447.3,858,442.1,860.5,437.1,862.9z"/>
	<path class="st33" d="M500.1,834.1l0.9,2c5.2-2.2,10.5-4.5,15.9-6.8l-0.8-2C510.5,829.5,505.2,831.8,500.1,834.1z"/>
	<path class="st33" d="M564.1,807.7l0.8,2c5.3-2.1,10.7-4.1,16.1-6.2l-0.8-2C574.8,803.6,569.4,805.7,564.1,807.7z"/>
	<path class="st33" d="M596.4,795.5l0.7,2c5.3-2,10.8-3.9,16.2-5.9l-0.7-2C607.2,791.5,601.8,793.5,596.4,795.5z"/>
	<path class="st33" d="M531.9,820.6l0.8,2c5.2-2.2,10.6-4.3,16-6.5l-0.8-2C542.5,816.3,537.2,818.4,531.9,820.6z"/>
	<path class="st33" d="M1480,712.2c5.6,1.1,11.3,2.2,16.9,3.3l0.4-2.1c-5.7-1.2-11.3-2.3-16.9-3.3L1480,712.2z"/>
	<path class="st33" d="M1412,700.9c5.7,0.8,11.4,1.7,17.1,2.5l0.3-2.1c-5.7-0.9-11.4-1.7-17.1-2.5L1412,700.9z"/>
	<path class="st33" d="M1377.8,696.5c5.7,0.7,11.4,1.4,17.1,2.1l0.3-2.1c-5.7-0.7-11.4-1.5-17.1-2.1L1377.8,696.5z"/>
	<path class="st33" d="M1446.1,706.2c5.7,0.9,11.3,1.9,17,2.9l0.4-2.1c-5.7-1-11.4-2-17-2.9L1446.1,706.2z"/>
	<path class="st33" d="M1343.5,692.8c5.7,0.5,11.4,1.1,17.2,1.7l0.2-2.1c-5.7-0.6-11.5-1.2-17.2-1.7L1343.5,692.8z"/>
	<path class="st33" d="M1581,735.3c5.5,1.5,11.1,3,16.7,4.6l0.6-2.1c-5.6-1.6-11.1-3.1-16.7-4.6L1581,735.3z"/>
	<path class="st33" d="M1614.2,744.7c5.5,1.6,11,3.3,16.5,5l0.6-2.1c-5.5-1.7-11-3.3-16.5-5L1614.2,744.7z"/>
	<path class="st33" d="M1309.2,690c5.7,0.4,11.4,0.9,17.2,1.3l0.2-2.1c-5.8-0.5-11.5-0.9-17.2-1.3L1309.2,690z"/>
	<path class="st33" d="M1547.5,726.8c5.6,1.3,11.2,2.7,16.8,4.2l0.5-2.1c-5.6-1.4-11.2-2.8-16.8-4.2L1547.5,726.8z"/>
	<path class="st33" d="M1513.8,719.1c5.6,1.2,11.2,2.5,16.9,3.7l0.5-2.1c-5.6-1.3-11.3-2.5-16.9-3.8L1513.8,719.1z"/>
	<path class="st33" d="M1274.8,687.9c5.7,0.3,11.5,0.6,17.2,0.9l0.1-2.1c-5.8-0.3-11.5-0.7-17.2-0.9L1274.8,687.9z"/>
	<path class="st33" d="M1067.7,689.5l0.2,2.1c5.7-0.5,11.5-0.9,17.2-1.3l-0.2-2.1C1079.1,688.6,1073.4,689,1067.7,689.5z"/>
	<path class="st33" d="M1102.2,687l0.1,2.1c5.7-0.4,11.5-0.7,17.3-1l-0.1-2.1C1113.7,686.3,1107.9,686.6,1102.2,687z"/>
	<path class="st33" d="M1148.9,684.8c-4.1,0.1-8.1,0.3-12.2,0.4l0.1,2.1c4-0.2,8.1-0.3,12.1-0.4l5.1-0.2l-0.1-2.1L1148.9,684.8z"/>
	<path class="st33" d="M1033.2,692.7l0.2,2.1c5.7-0.6,11.4-1.2,17.2-1.7l-0.2-2.1C1044.7,691.6,1038.9,692.1,1033.2,692.7z"/>
	<path class="st33" d="M1171.3,684.2v2.1c5.7-0.1,11.5-0.2,17.2-0.2V684C1182.8,684,1177,684.1,1171.3,684.2z"/>
	<path class="st33" d="M1240.3,686.6c5.7,0.1,11.5,0.3,17.2,0.5l0.1-2.1c-5.8-0.2-11.5-0.4-17.3-0.5V686.6z"/>
	<path class="st33" d="M998.8,696.7l0.3,2.1c5.7-0.7,11.4-1.4,17.2-2.1l-0.2-2.1C1010.3,695.3,1004.5,695.9,998.8,696.7z"/>
	<path class="st33" d="M1205.8,686.1c5.7,0,11.5,0.1,17.2,0.2v-2.1c-5.8-0.1-11.5-0.1-17.3-0.2L1205.8,686.1z"/>
	<path class="st33" d="M1647.8,755c2.7,0.9,5.5,1.8,8.2,2.6l0.7-2c-2.7-0.9-5.5-1.8-8.2-2.7L1647.8,755z"/>
</g>
</svg>
