
<svg version="1.1" id="Layer_1" xmlns="http://www.w3.org/2000/svg" x="0px" y="0px"
	 viewBox="0 0 57.4 2.8" style="enable-background:new 0 0 57.4 2.8;" xml:space="preserve">

<path style="fill:#44edbc;" class="st0" id="hline" d="M56.6,1.4c0,0.6-0.8,1.2-1.8,1.2l-3.4,0.1c-1,0-2.6,0.1-3.5,0L31.6,2.6c-1,0-2.3,0-2.9,0c-0.6,0-1.9,0-2.9,0
	L9.5,2.8c-1,0-2.6,0-3.5,0L2.6,2.6c-1,0-1.8-0.6-1.8-1.2c0-0.6,0.8-1.2,1.8-1.2L6,0C7,0,8.6,0,9.5,0l16.2,0.2c1,0,2.3,0,2.9,0
	c0.6,0,1.9,0,2.9,0L47.9,0c1,0,2.6,0,3.5,0l3.4,0.1C55.8,0.2,56.6,0.8,56.6,1.4z"/>

</svg>


