<?xml version="1.0" encoding="utf-8"?>
<!-- Generator: Adobe Illustrator 19.0.0, SVG Export Plug-In . SVG Version: 6.00 Build 0)  -->
<svg version="1.1" id="Layer_1" xmlns="http://www.w3.org/2000/svg" xmlns:xlink="http://www.w3.org/1999/xlink" x="0px" y="0px"
	 viewBox="0 0 468 392.3" style="enable-background:new 0 0 468 392.3;" xml:space="preserve">
<style type="text/css">
	.st0{fill:#DAF3F5;}
	.st1{opacity:0.29;}
	.st2{clip-path:url(#XMLID_58_);}
	.st3{fill:none;stroke:#071C1F;stroke-width:0.75;stroke-miterlimit:10;}
	.st4{fill:url(#XMLID_115_);}
	.st5{fill:#28DBDE;}
	.st6{fill:url(#XMLID_117_);}
	.st7{opacity:0.8;}
	.st8{clip-path:url(#XMLID_118_);}
	.st9{fill:none;stroke:#6FE8FF;stroke-width:0.75;stroke-miterlimit:10;}
	.st10{fill:url(#XMLID_119_);}
	.st11{fill:none;stroke:#AECFDB;stroke-width:0.2043;stroke-miterlimit:10;}
	.st12{fill:none;stroke:#FFFFFF;stroke-width:0.5;stroke-miterlimit:10;}
</style>
<g id="XMLID_116_">
	<path id="XMLID_60_" class="st0" d="M296.9,264c-0.1,66.9-58.6,155-131.6,105.1c-36-24.6-41.6-49.4-87.9-56.6
		c-39.8-6.2-74.2-19.2-72.5-66c2.7-75.2,100.5-122.3,165.7-119.3C250.9,130.8,293.5,187.8,296.9,264z"/>
	<path id="XMLID_59_" class="st0" d="M414.5,235.3c-37.4,35.4-113.5,32.9-151.6-0.1c-27.7-24-14-50.9-26-79.8
		c-14.9-35.9-31.3-58.4-9.6-98c14.8-27.1,43.8-48.6,74.9-51.9c37.4-4,55.3,17.5,70,47.7c8.8,17.9,14.6,33.7,30.7,46.3
		c14.7,11.5,35.7,15.3,45.4,32.5C467,165.1,436.1,211.3,414.5,235.3z"/>
	<g id="XMLID_152_" class="st1">
		<defs>
			<path id="XMLID_54_" class="st1" d="M67.5,197.6c-20.8,51.1-88.8-51-16.1-86.8c23.6-11.6,60.5,3,65.9,28.8
				C126.1,180.6,80.6,165.5,67.5,197.6z"/>
		</defs>
		<clipPath id="XMLID_58_">
			<use xlink:href="#XMLID_54_"  style="overflow:visible;"/>
		</clipPath>
		<g id="XMLID_154_" class="st2">
			<line id="XMLID_24_" class="st3" x1="9.5" y1="93.1" x2="136.7" y2="93.1"/>
			<line id="XMLID_44_" class="st3" x1="9.5" y1="99.2" x2="136.7" y2="99.2"/>
			<line id="XMLID_43_" class="st3" x1="9.5" y1="105.2" x2="136.7" y2="105.2"/>
			<line id="XMLID_42_" class="st3" x1="9.5" y1="111.2" x2="136.7" y2="111.2"/>
			<line id="XMLID_41_" class="st3" x1="9.5" y1="117.3" x2="136.7" y2="117.3"/>
			<line id="XMLID_40_" class="st3" x1="9.5" y1="123.3" x2="136.7" y2="123.3"/>
			<line id="XMLID_39_" class="st3" x1="9.5" y1="129.3" x2="136.7" y2="129.3"/>
			<line id="XMLID_38_" class="st3" x1="9.5" y1="135.4" x2="136.7" y2="135.4"/>
			<line id="XMLID_37_" class="st3" x1="9.5" y1="141.4" x2="136.7" y2="141.4"/>
			<line id="XMLID_36_" class="st3" x1="9.5" y1="147.4" x2="136.7" y2="147.4"/>
			<line id="XMLID_35_" class="st3" x1="9.5" y1="153.5" x2="136.7" y2="153.5"/>
			<line id="XMLID_34_" class="st3" x1="9.5" y1="159.5" x2="136.7" y2="159.5"/>
			<line id="XMLID_33_" class="st3" x1="9.5" y1="165.5" x2="136.7" y2="165.5"/>
			<line id="XMLID_32_" class="st3" x1="9.5" y1="171.6" x2="136.7" y2="171.6"/>
			<line id="XMLID_31_" class="st3" x1="9.5" y1="177.6" x2="136.7" y2="177.6"/>
			<line id="XMLID_30_" class="st3" x1="9.5" y1="183.6" x2="136.7" y2="183.6"/>
			<line id="XMLID_29_" class="st3" x1="9.5" y1="189.6" x2="136.7" y2="189.6"/>
			<line id="XMLID_28_" class="st3" x1="9.5" y1="195.7" x2="136.7" y2="195.7"/>
			<line id="XMLID_27_" class="st3" x1="9.5" y1="201.7" x2="136.7" y2="201.7"/>
			<line id="XMLID_26_" class="st3" x1="9.5" y1="207.7" x2="136.7" y2="207.7"/>
			<line id="XMLID_25_" class="st3" x1="9.5" y1="213.8" x2="136.7" y2="213.8"/>
			<line id="XMLID_23_" class="st3" x1="9.5" y1="219.8" x2="136.7" y2="219.8"/>
		</g>
	</g>
	
		<radialGradient id="XMLID_115_" cx="-25339.8203" cy="-833.4965" r="7542.251" gradientTransform="matrix(3.530000e-002 0 0 3.530000e-002 1098.0226 132.8263)" gradientUnits="userSpaceOnUse">
		<stop  offset="2.976190e-003" style="stop-color:#28DBDE"/>
		<stop  offset="1" style="stop-color:#64CAFE"/>
	</radialGradient>
	<path id="XMLID_53_" class="st4" d="M400.7,201.5c2.5,60.1-82.5,191.8-158.5,158.2c-44.3-19.6-23.7-79.8-81.9-73.1
		c-22.5,2.6-38.1,14.9-58.8-0.6c-14.9-11.2-23.1-35.2-26.6-52.5C57.9,149.1,130.6,46,220.4,49.9c40.7,1.8,84.1,21.6,117.5,44
		C381.8,123.4,398.5,151.5,400.7,201.5z"/>
	<circle id="XMLID_52_" class="st5" cx="123.8" cy="86.3" r="14.9"/>
	
		<radialGradient id="XMLID_117_" cx="-18038.3223" cy="-700.9569" r="3214.3418" gradientTransform="matrix(3.530000e-002 0 0 3.530000e-002 1098.0226 132.8263)" gradientUnits="userSpaceOnUse">
		<stop  offset="2.976190e-003" style="stop-color:#28DBDE"/>
		<stop  offset="1" style="stop-color:#64CAFE"/>
	</radialGradient>
	<path id="XMLID_51_" class="st6" d="M465.7,145.1c2.4,15.2-8.2,37.9-24.5,41.3c-27,5.7-10.3-22.8-10.9-41.5
		c-0.4-12.5-12.5-38.9,9.9-34.2C450.8,113,464,135.4,465.7,145.1z"/>
	<g id="XMLID_120_" class="st7">
		<defs>
			<path id="XMLID_48_" class="st7" d="M67.5,197.6c-20.8,51.1-88.8-51-16.1-86.8c23.6-11.6,60.5,3,65.9,28.8
				C126.1,180.6,80.6,165.5,67.5,197.6z"/>
		</defs>
		<clipPath id="XMLID_118_">
			<use xlink:href="#XMLID_48_"  style="overflow:visible;"/>
		</clipPath>
		<g id="XMLID_122_" class="st8">
			<line id="XMLID_2_" class="st9" x1="9.5" y1="93.1" x2="136.7" y2="93.1"/>
			<line id="XMLID_22_" class="st9" x1="9.5" y1="99.2" x2="136.7" y2="99.2"/>
			<line id="XMLID_21_" class="st9" x1="9.5" y1="105.2" x2="136.7" y2="105.2"/>
			<line id="XMLID_20_" class="st9" x1="9.5" y1="111.2" x2="136.7" y2="111.2"/>
			<line id="XMLID_19_" class="st9" x1="9.5" y1="117.3" x2="136.7" y2="117.3"/>
			<line id="XMLID_18_" class="st9" x1="9.5" y1="123.3" x2="136.7" y2="123.3"/>
			<line id="XMLID_17_" class="st9" x1="9.5" y1="129.3" x2="136.7" y2="129.3"/>
			<line id="XMLID_16_" class="st9" x1="9.5" y1="135.4" x2="136.7" y2="135.4"/>
			<line id="XMLID_15_" class="st9" x1="9.5" y1="141.4" x2="136.7" y2="141.4"/>
			<line id="XMLID_14_" class="st9" x1="9.5" y1="147.4" x2="136.7" y2="147.4"/>
			<line id="XMLID_13_" class="st9" x1="9.5" y1="153.5" x2="136.7" y2="153.5"/>
			<line id="XMLID_12_" class="st9" x1="9.5" y1="159.5" x2="136.7" y2="159.5"/>
			<line id="XMLID_11_" class="st9" x1="9.5" y1="165.5" x2="136.7" y2="165.5"/>
			<line id="XMLID_10_" class="st9" x1="9.5" y1="171.6" x2="136.7" y2="171.6"/>
			<line id="XMLID_9_" class="st9" x1="9.5" y1="177.6" x2="136.7" y2="177.6"/>
			<line id="XMLID_8_" class="st9" x1="9.5" y1="183.6" x2="136.7" y2="183.6"/>
			<line id="XMLID_7_" class="st9" x1="9.5" y1="189.6" x2="136.7" y2="189.6"/>
			<line id="XMLID_6_" class="st9" x1="9.5" y1="195.7" x2="136.7" y2="195.7"/>
			<line id="XMLID_5_" class="st9" x1="9.5" y1="201.7" x2="136.7" y2="201.7"/>
			<line id="XMLID_4_" class="st9" x1="9.5" y1="207.7" x2="136.7" y2="207.7"/>
			<line id="XMLID_3_" class="st9" x1="9.5" y1="213.8" x2="136.7" y2="213.8"/>
			<line id="XMLID_1_" class="st9" x1="9.5" y1="219.8" x2="136.7" y2="219.8"/>
		</g>
	</g>
	
		<radialGradient id="XMLID_119_" cx="-28216.7676" cy="3761.5222" r="3146.4634" gradientTransform="matrix(3.530000e-002 0 0 3.530000e-002 1098.0226 132.8263)" gradientUnits="userSpaceOnUse">
		<stop  offset="2.976190e-003" style="stop-color:#28DBDE"/>
		<stop  offset="1" style="stop-color:#64CAFE"/>
	</radialGradient>
	<path id="XMLID_47_" class="st10" d="M96.6,304.1c18.8,2.1,13.9,31.8-0.5,37.4c-20.6,7.9-42.7-20.3-45.7-37.8
		c-1.7-9.8,1-43.3,18.3-34.5c4.2,2.1,3.9,19.7,7.4,24.2C83,302.1,86.8,300.8,96.6,304.1z"/>
	<circle id="XMLID_46_" class="st11" cx="409.1" cy="275.2" r="12.1"/>
	<circle id="XMLID_45_" class="st12" cx="274.9" cy="59.2" r="12.1"/>
</g>
</svg>
