<svg xmlns="http://www.w3.org/2000/svg" width="63.766" height="7.8" viewBox="0 0 63.766 7.8">
  <g id="rating" transform="translate(-3.8 -2.7)">
    <g id="XMLID_3_" transform="translate(3.8 2.7)">
      <path id="Path_177" data-name="Path 177" d="M10.378,10.5,7.862,8.7,5.346,10.464,6.28,7.517,3.8,5.647H6.927L7.934,2.7,8.9,5.647,12,5.719,9.479,7.553Z" transform="translate(-3.8 -2.7)" fill="#ffc100"/>
      <path id="Path_178" data-name="Path 178" d="M49.078,10.5,46.562,8.7,44.01,10.464l.971-2.947L42.5,5.647h3.091L46.6,2.7l.971,2.947,3.091.072-2.48,1.833Z" transform="translate(-28.589 -2.7)" fill="#ffc100"/>
      <path id="Path_179" data-name="Path 179" d="M87.678,10.5,85.162,8.7l-2.516,1.761.935-2.947L81.1,5.647h3.091L85.234,2.7,86.2,5.647l3.091.072L86.779,7.553Z" transform="translate(-53.315 -2.7)" fill="#ffc100"/>
      <path id="Path_180" data-name="Path 180" d="M126.378,10.5l-2.516-1.8-2.552,1.761.971-2.947L119.8,5.647h3.091L123.9,2.7l.971,2.947,3.091.072-2.48,1.833Z" transform="translate(-78.104 -2.7)" fill="#ffc100"/>
      <path id="Path_181" data-name="Path 181" d="M164.978,10.5l-2.516-1.8-2.516,1.761.935-2.947L158.4,5.647h3.091L162.534,2.7l.971,2.947,3.091.072-2.516,1.833Z" transform="translate(-102.83 -2.7)" fill="#758891"/>
    </g>
  </g>
</svg>
