<?xml version="1.0" encoding="utf-8"?>
<!-- Generator: Adobe Illustrator 19.0.0, SVG Export Plug-In . SVG Version: 6.00 Build 0)  -->
<svg version="1.1" id="Layer_1" xmlns="http://www.w3.org/2000/svg" xmlns:xlink="http://www.w3.org/1999/xlink" x="0px" y="0px"
	 viewBox="-461 322 100 103" style="enable-background:new -461 322 100 103;" xml:space="preserve">
<title>Artboard 24</title>
<path d="M-394.1,392.5v-2.9c9-0.4,17.4-4.2,23.7-10.6c0.9-1,1.3-2.3,1.3-3.6c-0.1-1.3-0.7-2.6-1.8-3.4c-9.5-7.8-11.6-19.7-12-22
	c-0.1-1-0.3-2-0.6-3c-4.5-19.3-17.4-23.5-27.4-23.6l0,0c-10,0.1-22.9,4.3-27.5,23.6c-0.3,1.1-0.4,2.1-0.5,3c-0.4,2.3-2.5,14.2-12,22
	c-1,0.8-1.7,2.1-1.8,3.4c-0.1,1.3,0.4,2.6,1.3,3.6c6.2,6.4,14.7,10.2,23.7,10.6v2.9c-8.8,2.1-28.4,8.5-28.4,24.4
	c0,2.1,1.7,3.7,3.7,3.7h83c2.1,0,3.7-1.7,3.7-3.7C-365.8,401-385.3,394.6-394.1,392.5z M-402.8,389.1c0.4,0.1,0.8,0.1,1.2,0.2v3.5
	c0,1.8,0.7,3.6,2,4.9c-4.6,6.3-13.4,7.7-19.8,3.1c-1.2-0.9-2.3-1.9-3.1-3.1c1.3-1.3,2-3.1,2-4.9v-3.6c0.4,0,0.8-0.1,1.2-0.2
	c1.3-0.2,2.3-1.4,2.3-2.7c0-1.1-0.7-2.1-1.6-2.5c-3.9-1.8-7-4.9-8.8-8.8c3.9,2.1,8.3,3.5,12.7,4.1c0.6,0.9,1.6,1.4,2.7,1.4h1.3
	c1.9,0,3.4-1.5,3.4-3.4s-1.5-3.4-3.4-3.4l0,0h-1.2c-1,0-2,0.5-2.6,1.3c-5.2-0.8-10.1-2.8-14.4-5.8c0-0.2,0-0.4-0.1-0.6l-0.5-10.8
	c6.9-0.7,15.9-3.3,21.3-11c3,6.4,8.6,11.2,15.4,13.1l-0.4,8.8c-0.5,6.5-4.4,12.3-10.4,15c-1,0.5-1.6,1.4-1.7,2.5
	C-405.1,387.8-404.2,388.9-402.8,389.1z"/>
</svg>
