<?xml version="1.0" encoding="utf-8"?>
<!-- Generator: Adobe Illustrator 19.0.0, SVG Export Plug-In . SVG Version: 6.00 Build 0)  -->
<svg version="1.1" id="Layer_1" xmlns="http://www.w3.org/2000/svg" xmlns:xlink="http://www.w3.org/1999/xlink" x="0px" y="0px"
	 viewBox="0 0 468 392.3" style="enable-background:new 0 0 468 392.3;" xml:space="preserve">
<style type="text/css">
	.st0{fill:#E7E5FF;}
	.st1{fill:url(#XMLID_9_);}
	.st2{fill:url(#XMLID_12_);}
	.st3{fill:none;stroke:#FF79D3;stroke-width:0.5;stroke-miterlimit:10;}
	.st4{fill:url(#XMLID_14_);}
	.st5{fill:url(#XMLID_15_);}
	.st6{fill:none;stroke:#AEC7DB;stroke-width:0.2043;stroke-miterlimit:10;}
	.st7{fill:none;stroke:#FFFFFF;stroke-width:0.2043;stroke-miterlimit:10;}
</style>
<g id="XMLID_13_">
	<path id="XMLID_11_" class="st0" d="M343.8,300.6c3.5,24.2-12.3,50-35.6,56.9c-6,1.7-12,2.6-17.9,3c-37.5,2-73.5-5.6-111.3-10
		c-26.5-3.2-50.4,6.9-74.4,16.4c-5.4,1.7-10.9,3.3-16.4,4.4c-16.7,3.3-34,2.9-49.1-7.5C12,344.9,11.4,311.5,9.7,283.3
		c0-5.8,0.2-11.6,0.8-17.3c2.9-28.6,14.4-55.1,43.2-65.4c28.4-10.1,58.6-8.2,85.6-22c4-1.5,8-2.8,12-4c20-6.1,40.1-9.2,59.3-8.4
		c41.2,1.7,75.6,18.4,98.7,45.3c4.6,5.4,8.8,11.1,12.5,17.3c2.2,3.7,4.2,7.5,6,11.4c1.8,3.9,3.5,7.8,5,11.8
		c4,11.8,8.4,23.8,10.1,36.5C343.3,292.5,343.6,296.5,343.8,300.6z"/>
	<path id="XMLID_10_" class="st0" d="M394.7,173.4c-9,2-15.3,8.9-20.5,16.1c-2.4,3.8-4.3,7.9-6.1,12.1c-5.2,12.9-8.1,27.4-12.9,39.4
		c-3.5,6.8-9.5,10.7-16.2,12.3c-6.7,1.7-14.1,1.2-20.8-1c-6.6-1.3-13-3.1-19.1-5.3c-12.2-4.4-23.4-10.6-32.4-18.5
		c-29.7-25.7-11.1-52-25.4-81.7c-15.1-31.3-57.1-48-42.8-90.5c15-44.3,95.4-47.2,163.6-21.1c6.8,2.6,13.5,5.5,20,8.7
		c33.2,17.4,67.3,42.6,75.5,82.9c3.2,12.6-4.4,22.7-14.5,29c-13.2,7.6-28.4,6.3-41.2,14.7C399.7,171.6,397.2,172.5,394.7,173.4z"/>
	
		<radialGradient id="XMLID_9_" cx="-26605.125" cy="-2400.4294" r="9070.6895" gradientTransform="matrix(3.530000e-002 0 0 3.530000e-002 1098.0226 132.8263)" gradientUnits="userSpaceOnUse">
		<stop  offset="5.952370e-003" style="stop-color:#FF14C4"/>
		<stop  offset="1" style="stop-color:#8702A1"/>
	</radialGradient>
	<path id="XMLID_7_" class="st1" d="M84.7,263.6c-4.2-4.1-8.2-8.3-12.2-12.6c-27.6-30.1-48.7-65.2-42-108.3
		c6.1-39,31.8-78.5,74.4-80.7c35.1-1.8,66.8,15.6,100.4,25c8.4,2.3,16.9,4.2,25.7,5.1c8.7,0.9,17.7,0.9,26.9-0.5
		c53.9-8,90.8-48.7,129.6,12.4c20.3,32,27.2,73.2,22,113c-0.9,6.6-2,13.3-3.6,19.8c-2.3,21-10,38.5-21.4,52.6c-3.8,4.7-8,9-12.5,13
		c-51.7,44.3-126.1,41.2-186.4,19c-4.3-1.4-8.5-2.9-12.6-4.4c-4.1-1.6-8.2-3.2-12.3-4.9c-5.9-2.6-11.7-5.3-17.5-8.3
		c-17.2-8.8-33.4-19.3-48.2-31.2C91.3,269.8,87.9,266.7,84.7,263.6z"/>
	<radialGradient id="XMLID_12_" cx="24.0654" cy="106.8787" r="34.062" gradientUnits="userSpaceOnUse">
		<stop  offset="5.952370e-003" style="stop-color:#FF14C4"/>
		<stop  offset="1" style="stop-color:#8702A1"/>
	</radialGradient>
	<circle id="XMLID_6_" class="st2" cx="34.3" cy="124.7" r="14.5"/>
	<circle id="XMLID_5_" class="st3" cx="342" cy="314.3" r="26"/>
	
		<radialGradient id="XMLID_14_" cx="-22976.1797" cy="-2152.2969" r="2202.8157" gradientTransform="matrix(3.530000e-002 0 0 3.530000e-002 1098.0226 132.8263)" gradientUnits="userSpaceOnUse">
		<stop  offset="5.952370e-003" style="stop-color:#FF14C4"/>
		<stop  offset="1" style="stop-color:#8702A1"/>
	</radialGradient>
	<path id="XMLID_4_" class="st4" d="M285.4,15.2c10.5-12,35.7-18.4,49.2-7.6c22.4,17.9-11.5,23.3-26,36.1
		c-9.7,8.6-22.9,35.7-33.9,14.6C269.6,48.3,278.8,22.9,285.4,15.2z"/>
	
		<radialGradient id="XMLID_15_" cx="-27691.7129" cy="5194.0122" r="1346.725" gradientTransform="matrix(3.530000e-002 0 0 3.530000e-002 1098.0226 132.8263)" gradientUnits="userSpaceOnUse">
		<stop  offset="5.952370e-003" style="stop-color:#FF14C4"/>
		<stop  offset="1" style="stop-color:#8702A1"/>
	</radialGradient>
	<path id="XMLID_3_" class="st5" d="M130.4,329.2c8.7,3.6,17,16.5,13.5,26.1c-5.8,15.9-15.2-2-25.1-7.7c-6.6-3.8-24.3-6.1-14.6-16.2
		C108.9,326.6,124.9,326.9,130.4,329.2z"/>
	<circle id="XMLID_2_" class="st6" cx="439.5" cy="219.2" r="11.8"/>
	<circle id="XMLID_1_" class="st7" cx="385.4" cy="112.7" r="12.6"/>
</g>
</svg>
