<?xml version="1.0" encoding="utf-8"?>
<!-- Generator: Adobe Illustrator 19.0.0, SVG Export Plug-In . SVG Version: 6.00 Build 0)  -->
<svg version="1.1" id="Layer_1" xmlns="http://www.w3.org/2000/svg" xmlns:xlink="http://www.w3.org/1999/xlink" x="0px" y="0px"
	 viewBox="0 0 468 392.3" style="enable-background:new 0 0 468 392.3;" xml:space="preserve">
<style type="text/css">
	.st0{fill:#F7E1EA;}
	.st1{opacity:0.23;}
	.st2{clip-path:url(#XMLID_2_);}
	.st3{fill:none;stroke:#FF0000;stroke-width:0.8988;stroke-miterlimit:10;}
	.st4{opacity:0.18;}
	.st5{clip-path:url(#XMLID_3_);}
	.st6{fill:url(#XMLID_4_);}
	.st7{fill:#B20102;}
	.st8{fill:#FF4700;}
	.st9{fill:none;stroke:#FF4700;stroke-width:0.2043;stroke-miterlimit:10;}
	.st10{fill:#FFFFFF;}
	.st11{fill:#FFCBB8;}
	.st12{opacity:0.8;clip-path:url(#XMLID_5_);}
	.st13{opacity:0.8;}
	.st14{clip-path:url(#XMLID_6_);}
	.st15{fill:none;stroke:#FAFF6F;stroke-width:0.8988;stroke-miterlimit:10;}
	.st16{clip-path:url(#XMLID_7_);}
	.st17{clip-path:url(#XMLID_8_);}
	.st18{fill:none;stroke:#FFFFFF;stroke-width:0.8988;stroke-miterlimit:10;}
</style>
<g id="XMLID_241_">
	<path id="XMLID_235_" class="st0" d="M283.7,195.5c-4.3,37.2-21.7,101.3-59.1,119c-45.3,21.5-43-29-76.7-41.4
		c-15.7-5.8-35.6,6.9-53.3-3.1c-17.4-9.9-22.6-25.4-29-43.3c-8.6-23.9-12.5-46.3-2.4-70.5C107.1,51,288.1,72.9,283.7,195.5z"/>
	<path id="XMLID_234_" class="st0" d="M316.7,322.5c-47.4,18.3-61.7-17.9-71.4-55.4c-10.1-39.1-30.4-95.6-30.6-136
		C214,24.3,302.9,31,382,48.2c29.6,6.5,57.8,18.3,61.9,51.9c5.3,43.9-33.1,64.1-20.6,114.8c8.5,34.3,29.4,68.8-7.7,95.8
		C389.5,329.6,346.4,320,316.7,322.5z"/>
	<g id="XMLID_344_" class="st1">
		<defs>
			<path id="XMLID_229_" class="st1" d="M96.3,212.8c-47,52.2-146.2-84.2-22.6-97.2c27.3-2.9,83.2,1,86.7,36.8
				C164.2,190.6,111.5,186.2,96.3,212.8z"/>
		</defs>
		<clipPath id="XMLID_2_">
			<use xlink:href="#XMLID_229_"  style="overflow:visible;"/>
		</clipPath>
		<g id="XMLID_346_" class="st2">
			<path id="XMLID_187_" class="st3" d="M4.4,100.8c61.7-1.6,123.1,3.5,184.8,2.1"/>
			<path id="XMLID_207_" class="st3" d="M4.2,107c61.7-1.6,123.3,3.4,185,1.9"/>
			<path id="XMLID_206_" class="st3" d="M4,113.2c61.8-1.5,123.4,3.3,185.2,1.7"/>
			<path id="XMLID_205_" class="st3" d="M3.8,119.5c61.9-1.5,123.6,3.2,185.4,1.5"/>
			<path id="XMLID_204_" class="st3" d="M3.6,125.7c61.9-1.4,123.7,3.1,185.6,1.4"/>
			<path id="XMLID_203_" class="st3" d="M3.3,131.9c62-1.4,123.8,3,185.8,1.2"/>
			<path id="XMLID_202_" class="st3" d="M3.1,138.1c62.1-1.3,124,2.9,186,1"/>
			<path id="XMLID_201_" class="st3" d="M2.9,144.3c62.1-1.3,124.1,2.8,186.2,0.9"/>
			<path id="XMLID_200_" class="st3" d="M2.7,150.5c62.2-1.2,124.3,2.7,186.4,0.7"/>
			<path id="XMLID_199_" class="st3" d="M2.5,156.8c62.2-1.2,124.4,2.6,186.6,0.5"/>
			<path id="XMLID_198_" class="st3" d="M2.3,163c62.3-1.1,124.5,2.5,186.8,0.3"/>
			<path id="XMLID_197_" class="st3" d="M2.1,169.2c62.4-1,124.7,2.4,187,0.2"/>
			<path id="XMLID_196_" class="st3" d="M1.9,175.4c62.4-1,124.8,2.3,187.2,0"/>
			<path id="XMLID_195_" class="st3" d="M1.7,181.6c62.5-0.9,125,2.3,187.4-0.2"/>
			<path id="XMLID_194_" class="st3" d="M1.5,187.8c62.6-0.9,125.1,2.2,187.7-0.4"/>
			<path id="XMLID_193_" class="st3" d="M1.3,194.1c62.6-0.8,125.3,2.1,187.9-0.5"/>
			<path id="XMLID_192_" class="st3" d="M1,200.3c62.7-0.8,125.4,2,188.1-0.7"/>
			<path id="XMLID_191_" class="st3" d="M0.8,206.5c62.8-0.7,125.5,1.9,188.3-0.9"/>
			<path id="XMLID_190_" class="st3" d="M0.6,212.7c62.8-0.7,125.7,1.8,188.5-1.1"/>
			<path id="XMLID_189_" class="st3" d="M0.4,218.9c62.9-0.6,125.8,1.7,188.7-1.2"/>
			<path id="XMLID_188_" class="st3" d="M0.2,225.1c63-0.5,126,1.6,188.9-1.4"/>
			<path id="XMLID_186_" class="st3" d="M0,231.4c63-0.5,126.1,1.5,189.1-1.6"/>
		</g>
	</g>
	<g id="XMLID_315_" class="st4">
		<defs>
			<path id="XMLID_226_" class="st4" d="M391,143.6c-29.6,32-38.5-12.6-59.7-25.9c-14.4-9.1-36.9,1.9-41.1-18.3
				c-4.6-21.9,15.1-31,33.4-35.7c25.4-6.6,77.4-0.9,92.8,21.1C443,123,402.9,119.1,391,143.6z"/>
		</defs>
		<clipPath id="XMLID_3_">
			<use xlink:href="#XMLID_226_"  style="overflow:visible;"/>
		</clipPath>
		<g id="XMLID_317_" class="st5">
			<path id="XMLID_165_" class="st3" d="M304.6,32.5c61.7-1.6,123.1,3.5,184.8,2.1"/>
			<path id="XMLID_185_" class="st3" d="M304.4,38.7c61.7-1.6,123.3,3.4,185,1.9"/>
			<path id="XMLID_184_" class="st3" d="M304.1,44.9c61.8-1.5,123.4,3.3,185.2,1.7"/>
			<path id="XMLID_183_" class="st3" d="M303.9,51.1c61.9-1.5,123.6,3.2,185.4,1.5"/>
			<path id="XMLID_182_" class="st3" d="M303.7,57.3c61.9-1.4,123.7,3.1,185.6,1.4"/>
			<path id="XMLID_181_" class="st3" d="M303.5,63.6c62-1.4,123.8,3,185.8,1.2"/>
			<path id="XMLID_180_" class="st3" d="M303.3,69.8c62.1-1.3,124,2.9,186,1"/>
			<path id="XMLID_179_" class="st3" d="M303.1,76c62.1-1.3,124.1,2.8,186.2,0.9"/>
			<path id="XMLID_178_" class="st3" d="M302.9,82.2c62.2-1.2,124.3,2.7,186.4,0.7"/>
			<path id="XMLID_177_" class="st3" d="M302.7,88.4c62.2-1.2,124.4,2.6,186.6,0.5"/>
			<path id="XMLID_176_" class="st3" d="M302.5,94.6c62.3-1.1,124.5,2.5,186.8,0.3"/>
			<path id="XMLID_175_" class="st3" d="M302.3,100.8c62.4-1,124.7,2.4,187,0.2"/>
			<path id="XMLID_174_" class="st3" d="M302.1,107.1c62.4-1,124.8,2.3,187.2,0"/>
			<path id="XMLID_173_" class="st3" d="M301.8,113.3c62.5-0.9,125,2.3,187.4-0.2"/>
			<path id="XMLID_172_" class="st3" d="M301.6,119.5c62.6-0.9,125.1,2.2,187.7-0.4"/>
			<path id="XMLID_171_" class="st3" d="M301.4,125.7c62.6-0.8,125.3,2.1,187.9-0.5"/>
			<path id="XMLID_170_" class="st3" d="M301.2,131.9c62.7-0.8,125.4,2,188.1-0.7"/>
			<path id="XMLID_169_" class="st3" d="M301,138.1c62.8-0.7,125.5,1.9,188.3-0.9"/>
			<path id="XMLID_168_" class="st3" d="M300.8,144.4c62.8-0.7,125.7,1.8,188.5-1.1"/>
			<path id="XMLID_167_" class="st3" d="M300.6,150.6c62.9-0.6,125.8,1.7,188.7-1.2"/>
			<path id="XMLID_166_" class="st3" d="M300.4,156.8c63-0.5,126,1.6,188.9-1.4"/>
			<path id="XMLID_164_" class="st3" d="M300.2,163c63-0.5,126.1,1.5,189.1-1.6"/>
		</g>
	</g>
	
		<radialGradient id="XMLID_4_" cx="-736.8493" cy="22698.9531" r="6754.2085" gradientTransform="matrix(1.300000e-003 3.530000e-002 -3.530000e-002 1.300000e-003 1139.4158 99.9476)" gradientUnits="userSpaceOnUse">
		<stop  offset="0" style="stop-color:#F86A23"/>
		<stop  offset="0.5714" style="stop-color:#E50000"/>
		<stop  offset="1" style="stop-color:#C7002E"/>
	</radialGradient>
	<path id="XMLID_225_" class="st6" d="M275,349.4c-49.5-7.5-43.3-45.5-76.1-75.3c-16.6-15-88-50.4-97-71.1
		c-24.3-56.3,47.6-138,98.8-164.1c84.5-42.9,181,57.8,199.2,156C413.4,267.7,383.2,365.8,275,349.4z"/>
	<circle id="XMLID_224_" class="st7" cx="119.7" cy="73.6" r="14.9"/>
	<path id="XMLID_223_" class="st8" d="M114.4,329.1C98,338.5,82.7,314.8,89.7,301c10-19.7,45.4-13.6,59.3-2.6
		c7.8,6.1,28.4,32.8,9.6,37.9c-4.5,1.2-16.1-12-21.8-13C125.8,321.4,123.4,323.9,114.4,329.1z"/>
	<circle id="XMLID_222_" class="st9" cx="77.1" cy="255.2" r="12.2"/>
	<circle id="XMLID_221_" class="st10" cx="272.6" cy="48.1" r="4.4"/>
	<g id="XMLID_305_">
		<rect id="XMLID_220_" x="355.3" y="253.8" class="st11" width="2.9" height="2.9"/>
		<rect id="XMLID_219_" x="355.3" y="248.7" class="st11" width="2.9" height="2.9"/>
		<rect id="XMLID_218_" x="355.3" y="243.6" class="st11" width="2.9" height="2.9"/>
		<rect id="XMLID_217_" x="355.3" y="238.5" class="st11" width="2.9" height="2.9"/>
	</g>
	<path id="XMLID_216_" class="st8" d="M395.3,40.1c2.4,15.2-8.2,37.9-24.6,41.3c-27,5.7-10.3-22.9-10.9-41.5
		c-0.4-12.5-12.5-39,9.9-34.2C380.4,8,393.7,30.5,395.3,40.1z"/>
	<g id="XMLID_273_">
		<defs>
			<path id="XMLID_212_" d="M275,349.4c-49.5-7.5-43.3-45.5-76.1-75.3c-16.6-15-88-50.4-97-71.1c-24.3-56.3,47.6-138,98.8-164.1
				c84.5-42.9,181,57.8,199.2,156C413.4,267.7,383.2,365.8,275,349.4z"/>
		</defs>
		<clipPath id="XMLID_5_">
			<use xlink:href="#XMLID_212_"  style="overflow:visible;"/>
		</clipPath>
		<g id="XMLID_275_" class="st12">
			<defs>
				<path id="XMLID_213_" class="st13" d="M96.3,212.8c-47,52.2-146.2-84.2-22.6-97.2c27.3-2.9,83.2,1,86.7,36.8
					C164.2,190.6,111.5,186.2,96.3,212.8z"/>
			</defs>
			<clipPath id="XMLID_6_">
				<use xlink:href="#XMLID_213_"  style="overflow:visible;"/>
			</clipPath>
			<g id="XMLID_277_" class="st14">
				<path id="XMLID_140_" class="st15" d="M4.4,100.8c61.7-1.6,122.5,3.5,184.8,2.1"/>
				<path id="XMLID_163_" class="st15" d="M4.2,107c61.7-1.6,122.7,3.4,185,1.9"/>
				<path id="XMLID_162_" class="st15" d="M4,113.2c61.8-1.5,122.9,3.3,185.2,1.7"/>
				<path id="XMLID_161_" class="st15" d="M3.8,119.5c61.8-1.5,123.1,3.2,185.4,1.5"/>
				<path id="XMLID_160_" class="st15" d="M3.6,125.7c61.9-1.4,123.2,3.1,185.6,1.4"/>
				<path id="XMLID_159_" class="st15" d="M3.3,131.9c61.9-1.4,123.4,3,185.8,1.2"/>
				<path id="XMLID_157_" class="st15" d="M3.1,138.1c62-1.3,123.6,2.9,186,1"/>
				<path id="XMLID_156_" class="st15" d="M2.9,144.3c62-1.3,123.8,2.8,186.2,0.9"/>
				<path id="XMLID_155_" class="st15" d="M2.7,150.5c62.1-1.2,124,2.7,186.4,0.7"/>
				<path id="XMLID_153_" class="st15" d="M2.5,156.8c62.1-1.2,124.2,2.6,186.6,0.5"/>
				<path id="XMLID_151_" class="st15" d="M2.3,163c62.2-1.1,124.4,2.5,186.8,0.3"/>
				<path id="XMLID_150_" class="st15" d="M2.1,169.2c62.2-1,124.6,2.4,187,0.2"/>
				<path id="XMLID_149_" class="st15" d="M1.9,175.4c62.3-1,124.8,2.3,187.2,0"/>
				<path id="XMLID_148_" class="st15" d="M1.7,181.6c62.3-0.9,125,2.2,187.4-0.2"/>
				<path id="XMLID_147_" class="st15" d="M1.5,187.8c62.4-0.9,125.2,2.2,187.7-0.4"/>
				<path id="XMLID_146_" class="st15" d="M1.3,194.1c62.4-0.8,125.4,2.1,187.9-0.5"/>
				<path id="XMLID_145_" class="st15" d="M1,200.3c62.5-0.8,125.6,2,188.1-0.7"/>
				<path id="XMLID_144_" class="st15" d="M0.8,206.5c62.5-0.7,125.7,1.9,188.3-0.9"/>
				<path id="XMLID_143_" class="st15" d="M0.6,212.7c62.6-0.7,125.9,1.8,188.5-1.1"/>
				<path id="XMLID_142_" class="st15" d="M0.4,218.9c62.6-0.6,126.1,1.7,188.7-1.2"/>
				<path id="XMLID_141_" class="st15" d="M0.2,225.1c62.7-0.5,126.3,1.6,188.9-1.4"/>
				<path id="XMLID_139_" class="st15" d="M0,231.4c62.7-0.5,126.5,1.5,189.1-1.6"/>
			</g>
		</g>
	</g>
	<g id="XMLID_242_">
		<defs>
			<path id="XMLID_208_" d="M275,349.4c-49.5-7.5-43.3-45.5-76.1-75.3c-16.6-15-88-50.4-97-71.1c-24.3-56.3,47.6-138,98.8-164.1
				c84.5-42.9,181,57.8,199.2,156C413.4,267.7,383.2,365.8,275,349.4z"/>
		</defs>
		<clipPath id="XMLID_7_">
			<use xlink:href="#XMLID_208_"  style="overflow:visible;"/>
		</clipPath>
		<g id="XMLID_244_" class="st16">
			<defs>
				<path id="XMLID_209_" d="M391,143.6c-29.6,32-38.5-12.6-59.7-25.9c-14.4-9.1-36.9,1.9-41.1-18.3c-4.6-21.9,15.1-31,33.4-35.7
					c25.4-6.6,77.4-0.9,92.8,21.1C443,123,402.9,119.1,391,143.6z"/>
			</defs>
			<clipPath id="XMLID_8_">
				<use xlink:href="#XMLID_209_"  style="overflow:visible;"/>
			</clipPath>
			<g id="XMLID_246_" class="st17">
				<path id="XMLID_58_" class="st18" d="M270.1,32.5c61.7-1.6,122.5,3.5,184.8,2.1"/>
				<path id="XMLID_138_" class="st18" d="M269.9,38.7c61.7-1.6,122.7,3.4,185,1.9"/>
				<path id="XMLID_137_" class="st18" d="M269.6,44.9c61.8-1.5,122.9,3.3,185.2,1.7"/>
				<path id="XMLID_136_" class="st18" d="M269.4,51.1c61.8-1.5,123.1,3.2,185.4,1.5"/>
				<path id="XMLID_135_" class="st18" d="M269.2,57.3c61.9-1.4,123.2,3.1,185.6,1.4"/>
				<path id="XMLID_134_" class="st18" d="M269,63.6c61.9-1.4,123.4,3,185.8,1.2"/>
				<path id="XMLID_133_" class="st18" d="M268.8,69.8c62-1.3,123.6,2.9,186,1"/>
				<path id="XMLID_132_" class="st18" d="M268.6,76c62-1.3,123.8,2.8,186.2,0.9"/>
				<path id="XMLID_131_" class="st18" d="M268.4,82.2c62.1-1.2,124,2.7,186.4,0.7"/>
				<path id="XMLID_130_" class="st18" d="M268.2,88.4c62.1-1.2,124.2,2.6,186.6,0.5"/>
				<path id="XMLID_129_" class="st18" d="M268,94.6c62.2-1.1,124.4,2.5,186.8,0.3"/>
				<path id="XMLID_128_" class="st18" d="M267.8,100.8c62.2-1,124.6,2.4,187,0.2"/>
				<path id="XMLID_127_" class="st18" d="M267.6,107.1c62.3-1,124.8,2.3,187.2,0"/>
				<path id="XMLID_125_" class="st18" d="M267.3,113.3c62.3-0.9,125,2.2,187.4-0.2"/>
				<path id="XMLID_124_" class="st18" d="M267.1,119.5c62.4-0.9,125.2,2.2,187.7-0.4"/>
				<path id="XMLID_123_" class="st18" d="M266.9,125.7c62.4-0.8,125.4,2.1,187.9-0.5"/>
				<path id="XMLID_121_" class="st18" d="M266.7,131.9c62.5-0.8,125.6,2,188.1-0.7"/>
				<path id="XMLID_119_" class="st18" d="M266.5,138.1c62.5-0.7,125.7,1.9,188.3-0.9"/>
				<path id="XMLID_118_" class="st18" d="M266.3,144.4c62.6-0.7,125.9,1.8,188.5-1.1"/>
				<path id="XMLID_117_" class="st18" d="M266.1,150.6c62.6-0.6,126.1,1.7,188.7-1.2"/>
				<path id="XMLID_115_" class="st18" d="M265.9,156.8c62.7-0.5,126.3,1.6,188.9-1.4"/>
				<path id="XMLID_57_" class="st18" d="M265.7,163c62.7-0.5,126.5,1.5,189.1-1.6"/>
			</g>
		</g>
	</g>
</g>
</svg>
