<?xml version="1.0" encoding="utf-8"?>
<!-- Generator: Adobe Illustrator 19.0.0, SVG Export Plug-In . SVG Version: 6.00 Build 0)  -->
<svg version="1.1" id="Layer_1" xmlns="http://www.w3.org/2000/svg" xmlns:xlink="http://www.w3.org/1999/xlink" x="0px" y="0px"
	 viewBox="0 0 474 172.4" style="enable-background:new 0 0 474 172.4;" xml:space="preserve">
<style type="text/css">
	.st0{clip-path:url(#SVGID_2_);fill:url(#SVGID_3_);}
	.st1{clip-path:url(#SVGID_5_);fill:url(#SVGID_6_);}
</style>
<g>
	<defs>
		<path id="SVGID_1_" d="M90.8,122.3l5.6-62.1c58.3-15,129.1-23.8,205.5-23.8c4.1,0,8.1,0,12.2,0.1c-4.9,1.4-9.2,2.7-14.2,4.1
			c1.4,0.5,2.7,0.9,4.1,1.4c4-0.7,8-1.3,12.1-2c6.3,2.8,10.8,4.4,17.5,5c1.8,0.1,3.1,0.8,5,1.3c-8.9,2.5-18.7,5.3-27.7,7.8
			c-2,0.6-1.6,0.8-3.1-0.6c-0.8-0.7-1.6-1.3-2.4-2c-1.1,0-1.9,0.2-2.9,0.4c3.1,3.6,3.6,4.1,5,4.9c1.7,1.1,3.2,1,6.6,0.1l1-0.2l0.2,0
			l9.1-2.2l1.9-0.4l12.9-3.1l0.5-0.1l1.2-0.3l0,0l5.6-1.3c0.8,0.4,1.7,0.7,1.9,0.9c0.7,0.7,1.9,2,3,2.1c1.9,0.2,8.4,0.6,9.2,0.5
			c0.5-0.1,0.9-0.1,1.3-0.5c1.5-1.4,1.7-5.4,0.5-6.3l0,0l0,0l0,0l0,0l0,0l0,0l0,0l0,0l0,0l0,0l0,0l0,0l0,0l0,0l0,0l0,0l0,0l0,0l0,0
			l0,0l0,0l0,0l0,0l0,0l0,0l0,0l0,0l0,0l0,0l0,0l0,0l0,0l0,0l0,0l0,0l0,0l0,0l0,0l0,0l0,0l0,0l0,0l0,0l0,0l0,0l0,0l0,0l0,0l0,0l0,0
			l0,0l0,0l0,0l0,0l0,0l0,0l0,0l0,0l0,0l0,0l0,0l0,0l0,0l0,0l0,0l0,0l0,0l0,0l0,0l0,0c6.6,0.1,13.3-0.4,19.9-0.3
			c5.7-0.1,11.3-0.8,15.2-1.8c0.9-0.2,1.7-0.5,2.4-0.8c4.7-1.9,2.2-3.8-0.3-5.8c-1.9-1.5-3.4-2.5-4.9-3.1c-2.3-1-4.3-1.3-7-1.3
			l-18.1-0.1h-0.1l2.5-7.3c0.6-1.7,0.7-2.3-0.1-3.8c-0.8-1.5-1.6-2.7-2.3-4.2c-1-0.2-2.2-0.3-3.3-0.3c0.5,1.2,1.1,2.5,1.6,3.7
			c0.9,2.1,0.7,2-0.5,3.4l-0.2,0.2l-0.2,0.2l-0.2,0.2l-0.2,0.2l-0.2,0.2l-0.2,0.2l-0.2,0.2l-0.2,0.2l-0.2,0.2l-0.2,0.2l-0.2,0.2
			l-0.2,0.2l-0.2,0.2l-0.2,0.2l-0.2,0.2l-0.2,0.2l-0.2,0.2l-0.2,0.2l-0.2,0.2l-0.2,0.2l-0.2,0.2l-0.2,0.2l-0.2,0.2l-0.2,0.2
			l-0.2,0.2l-0.2,0.2l-0.2,0.2l-0.2,0.2l-0.2,0.2l-0.2,0.2l-0.2,0.2l-0.2,0.2l-0.2,0.2l-0.2,0.2l-0.2,0.2l-0.2,0.2l-0.2,0.2
			l-0.2,0.2l-0.2,0.2l-0.2,0.2l-0.1,0.1l-0.3,0l-0.1,0l-0.4,0l-0.1,0l-0.3,0l-0.2,0l-0.2,0l-0.4,0l0,0l-0.4,0l-0.1,0l-0.3,0l-0.3,0
			l-0.1,0l-0.4,0l0,0l-0.4,0l-0.2,0l-0.2,0l-0.3,0l-0.1,0l-0.4,0l-0.1,0l-0.3,0l-0.2,0l-0.2,0l-0.4,0l0,0l-0.4,0l-0.1,0l-0.3,0
			l-0.3,0l-0.1,0l-0.4,0l0,0l-0.4,0l-0.2,0l-0.2,0l-0.3,0l-0.1,0l-0.4,0l-0.1,0l-0.3,0l-0.2,0l-0.2,0l-0.4,0l0,0l-0.4,0l-0.1,0
			l-0.3,0l-0.3,0l-0.1,0l-0.4,0l0,0l-0.4,0l-0.2,0l-0.2,0l-0.3,0l-0.1,0l-0.4,0l-0.1,0l0,0l-0.5,0l-0.2,0l-0.4,0l0,0l-0.4,0l-0.1,0
			l-0.3,0l-0.3,0l-0.1,0l-0.4,0l0,0l-0.4,0l-0.2,0l-0.3,0l-0.3,0l-0.1,0l-0.4,0l-0.1,0l-0.4,0l-0.2,0l-0.2,0l-0.4,0l0,0l-0.4,0
			l-0.1,0l-0.3,0l-0.3,0l-0.2,0l-0.4,0h0l-0.4,0H340l-0.3,0l-0.3,0l-0.1,0l-0.4,0h-0.1l-0.1,0l-0.5,0h0l-0.6,0l-0.1,0l-0.4,0l-0.1,0
			h0l-0.6,0l0,0l-0.2,0l-0.4,0c-3.5,0-6.7-0.4-10.8-1.4c0-1,0-2,0-3c-0.7-0.2-1.4-0.4-2.1-0.7c-0.2,0.6-0.4,1.2-0.5,1.8
			c-4.1-4.4-8.2-8.7-12.3-13.1c-1.9-0.2-3.9-0.2-5.8-0.1c3.1,5.7,5.7,11.5,8.6,17.2c-2.5-0.1-5-0.1-7.5-0.1
			C230.5,32.5,158,38.8,97.2,51l3.2-35.4c0-0.5,0.1-1,0.1-1.5c0-0.5,0-1.1,0-1.7c-0.2-4.2-1.8-7.4-4.7-9.4C93,1.1,90.5,0.2,85.4,0
			l0.1,0.4c0.2,1,0.4,2.2,0.4,3.4c0,0.9,0,2.2,0,3.9c-0.1,1.6-0.2,3.5-0.4,5.6l-4,41.1c-9,2-17.8,4.2-26.2,6.5L58,33.3
			c0-0.5,0-1,0-1.5c0-0.5,0-1.1-0.1-1.8c-0.2-4.2-1.8-7.3-4.6-9.3c-2.7-1.9-5.3-2.7-10.3-3c0.3,1.1,0.5,2.4,0.5,3.8
			c0,1,0,2.3-0.1,3.9L43,31l-3.5,34.5c-3.3,1-6.6,2.1-9.8,3.2C18,72.6,16.9,78.5,16.9,83.8c0,4.1,1.7,3.5,4.2,2.4
			c5.5-2.5,11.1-4.9,17.1-7.3L32.5,134c11.6-1.6,17-13.6,18.1-23.7l3.6-37.4c8.4-2.9,17.2-5.7,26.3-8.4L73,142.4
			c2-0.3,3.8-0.9,5.6-2C86.9,135.5,90.1,129,90.8,122.3 M188.2,118.7l4.3-51.6c0.1-0.8,0-1.9,0-3.2c-0.2-4.1-1.4-7.2-4.3-9.3
			c-2.7-1.9-5.1-2.7-10.1-2.9l0.1,0.4c0.2,1,0.4,2.1,0.4,3.3c0,0.9,0,2.2-0.1,3.8c-0.1,1.6-0.2,3.4-0.4,5.5l-3.4,35.9
			c-0.3,3.2-1.1,9.1-1.2,13.8c-0.3,10.5,3,19.5,14.5,19.5c1.2,0,2.1-0.1,2.9-0.3l0.1,0C187.8,129.3,187.6,123.7,188.2,118.7z
			 M217.2,133.8l4.1-41.9l0,0c0-0.4,0.1-0.9,0.1-1.4c0-0.5,0-1,0-1.6c-0.2-4.1-1.8-7.2-4.7-9.2c-2.7-1.9-5.2-2.7-10.2-2.9l0.1,0.2
			c0.2,1,0.4,2.1,0.4,3.2c0,0.9,0,2.1-0.1,3.7c-0.1,1.5-0.2,3.4-0.4,5.5l-2.3,23.4c-0.1,1.3-0.2,2.6-0.1,3.8
			C204.4,124.1,206.5,132.6,217.2,133.8z M211.4,70.3c0.9,0.3,1.8,0.5,2.9,0.5c1.4,0,2.7-0.3,3.8-0.8c1.2-0.6,2.4-1.5,3.4-2.7
			c1.1-1.2,1.9-2.5,2.3-3.9c0.5-1.4,0.7-2.8,0.6-4.4c-0.1-1.2-0.3-2.3-0.7-3.3c-0.4-0.9-0.9-1.8-1.6-2.5c-0.7-0.7-1.4-1.2-2.2-1.5
			c-0.8-0.3-1.8-0.5-2.8-0.5c-1.5,0-2.8,0.3-4,0.8c-1.3,0.6-2.4,1.5-3.5,2.6c-1.1,1.2-1.9,2.5-2.4,3.9c-0.5,1.4-0.7,2.9-0.6,4.6
			c0.1,1.2,0.3,2.3,0.7,3.3c0.4,0.9,1,1.7,1.7,2.4C209.7,69.5,210.5,70,211.4,70.3z M268.8,83.1l-1.7,17.6
			c-0.3,3.2-1.1,9.1-1.2,13.8c-0.1,3.2,0.2,6.2,0.8,8.8c-0.2,0.1-0.3,0.1-0.5,0.2c-4.8,1.5-8.5,1.4-13-0.8
			c-4.9-2.4-8.5-7.1-9.4-13.3c-0.5-3.6-0.5-9.1,0.3-12.7c1.8-9.1,8.6-16.7,17.3-16.9C264.5,79.6,267.3,81,268.8,83.1z M280.7,118.7
			l4.3-51.6c0.1-0.8,0-1.9,0-3.2c-0.2-4.1-1.4-7.2-4.3-9.3c-2.7-1.9-5.1-2.7-10.1-2.9l0.1,0.4c0.2,1,0.4,2.1,0.4,3.3
			c0,0.9,0,2.2-0.1,3.8c-0.1,1.6-0.2,3.4-0.4,5.5l-0.7,6.8c-0.2-0.1-0.4-0.1-0.6-0.2c-14.7-3.3-30.2,5.2-35.8,17.5
			c-1.8,3.9-3.1,7.6-3.7,12.5c-0.2,1.6-0.3,3.1-0.4,4.5c-0.1,1.4-0.1,2.7,0,3.9c0.2,3.7,0.9,7,2.2,9.9c1.3,2.9,3,5.5,5.4,7.7
			c2.2,2.1,4.7,3.6,7.4,4.6c2.7,1,5.7,1.6,9,1.6c5.6,0,11.7-1.4,16.8-3.8c2.3,2.5,5.6,4,10.3,4c1.2,0,2.1-0.1,2.9-0.3l0.1,0
			C280.3,129.3,280.1,123.7,280.7,118.7z M331,129.9c2.3,2.5,5.6,4,10.3,4c1.2,0,2.1-0.1,2.9-0.3l0.1,0c-3.2-4.3-3.4-9.8-2.8-14.8
			l2.4-32.2c0.1-0.8,0-1.9,0-3.2c-0.2-4.1-1.5-7.2-4.3-9.2c-1.9-1.3-3.7-2.2-6.3-2.7c-3.9-0.6-9.6-1.1-13.7-0.6
			c-11,1.4-21,8.6-25.3,18c-1.8,3.9-3.1,7.6-3.7,12.5c-0.2,1.6-0.3,3.1-0.4,4.5c-0.1,1.4-0.1,2.7,0,3.9c0.2,3.7,0.9,7,2.2,9.9
			c1.3,2.9,3,5.5,5.4,7.7c2.2,2.1,4.7,3.6,7.4,4.6c2.7,1,5.7,1.6,9,1.6C319.9,133.7,325.9,132.3,331,129.9z M327.7,123.3
			c-0.2,0.1-0.3,0.1-0.5,0.2c-4.8,1.5-8.5,1.4-13-0.8c-4.9-2.4-8.5-7.1-9.4-13.3c-0.5-3.6-0.5-9.1,0.3-12.7
			c1.8-9.1,8.6-16.7,17.3-16.9c3-0.1,5.9,1.3,7.4,3.4c0,0.4-0.1,0.7-0.1,1.1l-1.5,16.5c-0.3,3.2-1.1,9.1-1.2,13.8
			C326.8,117.6,327,120.6,327.7,123.3z M397.1,134.2l3.8-46.8h0c0-0.5,0.1-0.9,0.1-1.4c0-0.5,0-1-0.1-1.7c-0.2-4-1.7-6.9-4.3-8.9
			c-2.4-1.8-5.8-2.8-10.2-3c0,0.1,0,0.2,0.1,0.3c0.3,1.1,0.5,2.3,0.5,3.6c0,0.7,0,1.8-0.1,3.2c-0.1,1.3-0.2,3-0.4,5l0,0l-2.9,33.6h0
			c-0.2,2.7-1,4.8-2.4,6.3c-1.4,1.4-3.3,2.2-5.7,2.2c-2.2,0-3.9-0.8-5.2-2.3c-1.2-1.5-1.9-3.6-2-6.3c0-0.7,0-1.7,0-2.8
			c0-1.1,0.1-2.4,0.3-4v0l1.9-23.6h0c0-0.4,0-0.9,0-1.4c0-0.5,0-1-0.1-1.7c-0.2-4-1.4-6.9-4.1-8.9c-2.5-1.8-6-2.8-10.6-3.1l0,0.1
			c0.2,0.9,0.4,2,0.4,3.1v0c0,0.9,0,2.1,0,3.6c-0.1,1.5-0.2,3.3-0.3,5.2l0,0l-2.5,29.6v0c-0.1,1.1-0.2,2.1-0.2,3c0,0.9,0,1.7,0,2.5
			h0c0.3,4.8,1.6,8.4,4.1,10.8c2.5,2.4,6.1,3.6,11,3.6c2.3,0,4.5-0.1,6.6-0.3c2.1-0.2,4.1-0.5,5.9-0.9l1.9-0.4l-0.2,2.2l-0.5,4.9
			c-0.4,3.6-1,6.4-3,9.7c-2.6,4.4-5,7.5-10.2,7.6c-5.2,0.1-10-1.5-11.8-4.3c-2.6,3.3-1.1,8,3.6,9.9c2.3,0.9,6.5,1.2,10.3,0.9
			c10.1-0.6,18.7-6.8,23-15.9C395.6,143.5,396.7,139.2,397.1,134.2z M450.8,75.9c-5.7-6-17.6-6.1-25.6-4.5
			c-5.3,1.1-9.3,2.9-12.1,5.5c-2.2,2.1-3.6,4.2-4.3,7c-0.2,0.9-0.4,1.8-0.4,2.9c0,0.8,0,1.6,0,2.4c0.3,6.8,4.4,10.5,10.7,13.8
			c5.4,2.9,11.8,5.5,15.5,8.6c7,6.2,3.9,15.4-5.6,16c-2.6,0.2-5.5-0.2-7.7-0.6c-3.9-0.8-9.9-3-12.6-5.6c-0.5,1.2-0.7,2.7-0.5,4.4
			c0.3,3.1,2.2,5.1,4.7,6.3c6.6,3.2,22.2,2,28.9-0.6c3.3-1.3,6-3.3,8-6.3c2.8-3.9,3.7-9.2,3-14c-0.1-0.3-0.1-0.6-0.2-0.9
			c-2.4-9-15.2-12.6-22.9-17.2c-12-7.2-7.5-19.9,6.7-17c6.8,1.4,12.9,6,13.5,10.2C453.7,84.4,454.3,79.5,450.8,75.9z"/>
	</defs>
	<clipPath id="SVGID_2_">
		<use xlink:href="#SVGID_1_"  style="overflow:visible;"/>
	</clipPath>
	<linearGradient id="SVGID_3_" gradientUnits="userSpaceOnUse" x1="225.681" y1="166.0883" x2="245.4711" y2="-2.6817">
		<stop  offset="0" style="stop-color:#92FFDD"/>
		<stop  offset="0.3" style="stop-color:#1EE09F"/>
		<stop  offset="1" style="stop-color:#92FFDD"/>
	</linearGradient>
	<rect x="16.9" y="0" class="st0" width="437.4" height="163.4"/>
</g>
<g>
	<defs>
		<path id="SVGID_4_" d="M155.3,135.8c-10,8.4-24.6,10.1-36.5,3.2c-1.5-0.9-2.9-1.9-4.2-2.9C126.4,131.6,141.8,138.9,155.3,135.8
			 M163,126.2c-0.2,0.4-0.5,0.8-0.7,1.3c-0.5,0.8-0.9,1.5-1.4,2.2c-17.5,10.6-35.4-1.9-50.7,2c-1.3-1.6-2.5-3.4-3.5-5.2
			C128.4,117.9,146.3,129.4,163,126.2z M166.5,113.5c-0.1,1.5-0.3,2.9-0.6,4.4c-20.6,12.6-44.6-2.9-61.5,3.1
			c-0.5-1.7-0.9-3.4-1.2-5.1C123.5,103.8,150.5,120,166.5,113.5z M165.2,102.1c0.5,1.5,0.8,3,1,4.5c-21,13.7-46.2-4-63.3,2.5
			c0.1-1.9,0.4-3.7,0.9-5.6C127.7,93,147.1,107.6,165.2,102.1z M159.3,91c1.3,1.6,2.5,3.3,3.4,5c-19.4,10.2-38.8-3.7-56.7,1.6
			c0.4-0.8,0.8-1.5,1.2-2.3c0.8-1.3,1.6-2.5,2.5-3.7C127.4,83.3,144.2,94.2,159.3,91z M150.8,83.9c1.6,0.9,3.1,2,4.4,3.1
			c-12.9,4.5-29.2-3.4-41.2,0.3C124,78.6,138.7,76.8,150.8,83.9z"/>
	</defs>
	<clipPath id="SVGID_5_">
		<use xlink:href="#SVGID_4_"  style="overflow:visible;"/>
	</clipPath>
	<linearGradient id="SVGID_6_" gradientUnits="userSpaceOnUse" x1="150.7695" y1="83.8634" x2="118.7095" y2="138.9033">
		<stop  offset="0" style="stop-color:#92FFDD"/>
		<stop  offset="1" style="stop-color:#1EE09F"/>
	</linearGradient>
	<rect x="103" y="76.8" class="st1" width="63.6" height="69"/>
</g>
</svg>
