<?xml version="1.0" encoding="utf-8"?>
<!-- Generator: Adobe Illustrator 19.0.0, SVG Export Plug-In . SVG Version: 6.00 Build 0)  -->
<svg version="1.1" id="Layer_1" xmlns="http://www.w3.org/2000/svg" xmlns:xlink="http://www.w3.org/1999/xlink" x="0px" y="0px"
	 viewBox="0 0 629 700" style="enable-background:new 0 0 629 700;" xml:space="preserve">
<style type="text/css">
	.st0{opacity:0.5;}
	.st1{fill:#EBE2D0;}
	.st2{fill:#AAAAAA;}
	.st3{fill:#5B5B5B;}
	.st4{fill:#D1D1D1;}
	.st5{fill:none;stroke:#3CAF7B;stroke-width:0.5;stroke-miterlimit:10;}
	.st6{fill:#5AE0A6;}
	.st7{fill:url(#SVGID_1_);}
	.st8{fill:#AD4F53;}
	.st9{fill:#F8CAA2;}
	.st10{fill:#1D2C3F;}
	.st11{fill:#292B6A;}
	.st12{fill:#2B328C;}
	.st13{fill:#EFBFBF;}
	.st14{fill:url(#SVGID_2_);}
	.st15{fill:url(#SVGID_3_);}
	.st16{fill:#594A42;}
	.st17{fill:url(#SVGID_4_);}
	.st18{opacity:0.75;fill:#FFFFFF;}
	.st19{fill:#FFFFFF;}
	.st20{fill:url(#SVGID_5_);}
	.st21{fill:url(#SVGID_6_);}
	.st22{fill:url(#SVGID_7_);}
	.st23{opacity:0.75;fill:none;stroke:url(#SVGID_8_);stroke-miterlimit:10;}
	.st24{opacity:0.75;fill:none;stroke:url(#SVGID_9_);stroke-miterlimit:10;}
	.st25{fill:none;stroke:url(#SVGID_10_);stroke-miterlimit:10;}
	.st26{fill:none;stroke:url(#SVGID_11_);stroke-miterlimit:10;}
	.st27{fill:none;stroke:url(#SVGID_12_);stroke-miterlimit:10;}
	.st28{opacity:0.3;}
	.st29{fill:url(#SVGID_13_);}
	.st30{fill:url(#SVGID_14_);}
	.st31{opacity:0.7;}
	.st32{opacity:0;}
	.st33{opacity:1.408451e-002;}
	.st34{opacity:2.816901e-002;}
	.st35{opacity:4.225352e-002;}
	.st36{opacity:5.633803e-002;}
	.st37{opacity:7.042254e-002;}
	.st38{opacity:8.450704e-002;}
	.st39{opacity:9.859155e-002;}
	.st40{opacity:0.1127;}
	.st41{opacity:0.1268;}
	.st42{opacity:0.1408;}
	.st43{opacity:0.1549;}
	.st44{opacity:0.169;}
	.st45{opacity:0.1831;}
	.st46{opacity:0.1972;}
	.st47{opacity:0.2113;}
	.st48{opacity:0.2254;}
	.st49{opacity:0.2394;}
	.st50{opacity:0.2535;}
	.st51{opacity:0.2676;}
	.st52{opacity:0.2817;}
	.st53{opacity:0.2958;}
	.st54{opacity:0.3099;}
	.st55{opacity:0.3239;}
	.st56{opacity:0.338;}
	.st57{opacity:0.3521;}
	.st58{opacity:0.3662;}
	.st59{opacity:0.3803;}
	.st60{opacity:0.3944;}
	.st61{opacity:0.4085;}
	.st62{opacity:0.4225;}
	.st63{opacity:0.4366;}
	.st64{opacity:0.4507;}
	.st65{opacity:0.4648;}
	.st66{opacity:0.4789;}
	.st67{opacity:0.493;}
	.st68{opacity:0.507;}
	.st69{opacity:0.5211;}
	.st70{opacity:0.5352;}
	.st71{opacity:0.5493;}
	.st72{opacity:0.5634;}
	.st73{opacity:0.5775;}
	.st74{opacity:0.5915;}
	.st75{opacity:0.6056;}
	.st76{opacity:0.6197;}
	.st77{opacity:0.6338;}
	.st78{opacity:0.6479;}
	.st79{opacity:0.662;}
	.st80{opacity:0.6761;}
	.st81{opacity:0.6901;}
	.st82{opacity:0.7042;}
	.st83{opacity:0.7183;}
	.st84{opacity:0.7324;}
	.st85{opacity:0.7465;}
	.st86{opacity:0.7606;}
	.st87{opacity:0.7746;}
	.st88{opacity:0.7887;}
	.st89{opacity:0.8028;}
	.st90{opacity:0.8169;}
	.st91{opacity:0.831;}
	.st92{opacity:0.8451;}
	.st93{opacity:0.8592;}
	.st94{opacity:0.8732;}
	.st95{opacity:0.8873;}
	.st96{opacity:0.9014;}
	.st97{opacity:0.9155;}
	.st98{opacity:0.9296;}
	.st99{opacity:0.9437;}
	.st100{opacity:0.9577;}
	.st101{opacity:0.9718;}
	.st102{opacity:0.9859;}
	.st103{fill:url(#SVGID_15_);stroke:#FFFFFF;stroke-width:0.7398;stroke-miterlimit:10;}
	.st104{fill-rule:evenodd;clip-rule:evenodd;fill:url(#SVGID_16_);}
	.st105{fill:url(#SVGID_17_);}
	.st106{fill:url(#SVGID_18_);}
	.st107{fill:url(#SVGID_19_);stroke:#FFFFFF;stroke-width:0.7398;stroke-miterlimit:10;}
	.st108{fill:url(#SVGID_20_);}
	.st109{fill:url(#SVGID_21_);}
	.st110{fill:url(#SVGID_22_);}
	.st111{fill:url(#SVGID_23_);stroke:#FFFFFF;stroke-width:0.7398;stroke-miterlimit:10;}
	.st112{fill:url(#SVGID_24_);}
	.st113{opacity:0.75;}
	.st114{fill:url(#SVGID_25_);}
	.st115{fill:url(#SVGID_26_);}
	.st116{fill:url(#SVGID_27_);}
	.st117{fill:url(#SVGID_28_);}
	.st118{fill:url(#SVGID_29_);}
	.st119{fill:url(#SVGID_30_);}
	.st120{fill:url(#SVGID_31_);}
	.st121{fill:url(#SVGID_32_);}
	.st122{fill:url(#SVGID_33_);}
	.st123{fill:url(#SVGID_34_);}
	.st124{fill:url(#SVGID_35_);}
	.st125{fill:url(#SVGID_36_);}
	.st126{fill:url(#SVGID_37_);}
	.st127{fill:url(#SVGID_38_);}
	.st128{fill:url(#SVGID_39_);}
	.st129{fill:url(#SVGID_40_);}
	.st130{fill:url(#SVGID_41_);}
	.st131{fill:url(#SVGID_42_);}
	.st132{fill:#8E1C1C;}
	.st133{fill:#E5E5E5;}
	.st134{fill:url(#SVGID_43_);}
	.st135{fill:#353535;}
	.st136{fill:#230D0D;}
	.st137{fill:url(#SVGID_44_);}
	.st138{fill:#2EA32B;}
	.st139{fill:none;stroke:#2EA32B;stroke-width:0.25;stroke-linecap:round;stroke-miterlimit:10;}
	.st140{fill:url(#SVGID_45_);}
	.st141{fill:url(#SVGID_46_);}
	.st142{fill:url(#SVGID_47_);}
	.st143{opacity:0.75;fill:none;stroke:url(#SVGID_48_);stroke-miterlimit:10;}
	.st144{fill:none;stroke:url(#SVGID_49_);stroke-miterlimit:10;}
	.st145{fill:url(#SVGID_50_);}
	.st146{fill:url(#SVGID_51_);}
	.st147{fill:url(#SVGID_52_);}
	.st148{fill:url(#SVGID_53_);}
	.st149{fill:url(#SVGID_54_);}
	.st150{fill:url(#SVGID_55_);}
	.st151{fill:url(#SVGID_56_);}
	.st152{fill:url(#SVGID_57_);}
	.st153{fill:url(#SVGID_58_);}
	.st154{fill:url(#SVGID_59_);}
	.st155{fill:url(#SVGID_60_);}
	.st156{fill:url(#SVGID_61_);}
	.st157{opacity:0.75;fill:none;stroke:url(#SVGID_62_);stroke-miterlimit:10;}
	.st158{opacity:0.75;fill:none;stroke:url(#SVGID_63_);stroke-miterlimit:10;}
	.st159{fill:none;stroke:url(#SVGID_64_);stroke-miterlimit:10;}
	.st160{fill:none;stroke:url(#SVGID_65_);stroke-miterlimit:10;}
	.st161{fill:#7AC196;}
	.st162{fill:#8CD4A8;}
	.st163{fill:url(#SVGID_66_);}
	.st164{fill:url(#SVGID_67_);}
	.st165{fill:url(#SVGID_68_);}
	.st166{fill:#2F634C;}
	.st167{fill:#4F5051;}
	.st168{fill:url(#SVGID_69_);}
	.st169{fill:url(#SVGID_70_);}
	.st170{fill:url(#SVGID_71_);}
	.st171{fill:url(#SVGID_72_);}
	.st172{fill:url(#SVGID_73_);}
	.st173{fill:url(#SVGID_74_);}
	.st174{fill:url(#SVGID_75_);}
	.st175{fill:url(#SVGID_76_);}
	.st176{fill:url(#SVGID_77_);}
	.st177{fill:url(#SVGID_78_);}
	.st178{fill:#A05D22;}
	.st179{fill:#769324;}
	.st180{fill:#C1772D;}
</style>
<g>
	<g class="st0">
		<path class="st1" d="M516.4,379.6H447c-3.9-3.9-2.8-7.2-1.5-9h6.2c2.6,0,4.9-1.8,4.9-4.4v-1.8c0-2.3-2.1-4.4-4.9-4.4h-45.8
			c-2.6,0-4.9,2.1-4.9,4.4v1.8c0,2.3,2.1,4.4,4.9,4.4h5.9c1.3,1.8,2.3,5.1-1.5,9H393v17.7h48.1c3.9,3.9,2.8,7.2,1.5,9h-6.2
			c-2.6,0-4.9,1.8-4.9,4.4v1.8c0,2.3,2.1,4.4,4.9,4.4h45.8c2.6,0,4.9-1.8,4.9-4.4v-1.8c0-2.3-2.1-4.4-4.9-4.4h-3.6
			c-1.3-1.8-2.3-5.1,1.5-9h36.3c4.1,0,7.5-3.3,7.5-7.5v-2.8C523.9,383,520.6,379.6,516.4,379.6z"/>
	</g>
	<g>
		<path class="st2" d="M592.1,467.4c0,1.5-4.4,2.9-9.9,2.9s-9.9-1.4-9.9-2.9s4.4-2.7,9.9-2.7S592.1,465.9,592.1,467.4z"/>
		<path class="st3" d="M589.8,468.5c0,0.8-3.5,1.9-7.8,1.9s-7.8-1.2-7.8-1.9c0-0.8,3.5-1.4,7.8-1.4S589.8,467.7,589.8,468.5z"/>
		<path class="st4" d="M572.2,467.2c0,0,8.6,6.5,19.9,0c0,0-1,16.2-5.1,17.1c-2.5,0.5-5.2,0.4-7.7,0.3c-1.5-0.1-3.9,0.3-5-0.9
			c-0.7-0.7-0.9-2.2-1.1-3.1C572.3,476.2,572.2,471.7,572.2,467.2z"/>
		<g>
			<path class="st5" d="M577.4,450.1c0.5,2.4,1,4.9,1.4,7.5c0.6,3.9,1,7.7,1.3,11.1"/>
			<path class="st6" d="M577.7,451.8c0,0-4.2-7.7-5.2-11.5c-1-3.8-4.3-3.8-4.3-15.1s2.8,4.2,5.3,9.1S579.2,444.1,577.7,451.8z"/>
		</g>
		<g>
			<path class="st5" d="M582.3,453.7c-0.4,1.9-0.8,3.9-1.1,6c-0.5,3.2-0.8,6.2-1.1,9"/>
			<path class="st6" d="M582.1,455.1c0,0,3.4-6.3,4.2-9.3c0.8-3.1,3.5-3.1,3.5-12.2c0-9.2-2.2,3.4-4.3,7.4S580.9,448.8,582.1,455.1z
				"/>
		</g>
		<g>
			<path class="st5" d="M589.9,458.5c-1,0.8-2.1,1.9-3.2,3.4c-1.8,2.5-2.5,4.9-2.9,6.5"/>
			<path class="st6" d="M589,459.3c3.6-1.7,5.4-3.6,6.1-5.1c0.6-1.4,0.2-1.8,1-3c1.5-2.2,3.6-2,5.1-4.5c0.4-0.7,1.1-2.1,0.7-2.4
				c-0.7-0.6-4.3,2-6.9,4.8c-2.6,2.8-3.9,5.7-4.4,6.9C590,457.4,589.3,458.5,589,459.3z"/>
		</g>
	</g>
	<g>
		<g id="Layer_12">
			<linearGradient id="SVGID_1_" gradientUnits="userSpaceOnUse" x1="354.4335" y1="480.0028" x2="538.0687" y2="480.0028">
				<stop  offset="1.037099e-002" style="stop-color:#E77474"/>
				<stop  offset="1" style="stop-color:#AD4F53"/>
			</linearGradient>
			<path class="st7" d="M536.8,477.6c0.2-1.9,0.4-3.8,0.4-5.7c0-31.6-32.4-57.1-72.3-57.1c-7.8,0-15.3,1-22.3,2.8
				c-6.3-1.8-12.9-2.8-19.8-2.8c-37.7,0-68.2,29.2-68.2,65.3s30.6,65.3,68.2,65.3c9.4,0,18.4-1.8,26.6-5.1
				c5.7,1.1,11.6,1.7,17.8,1.7c39.2,0,71-24.1,71-53.9C538.1,484.4,537.6,480.9,536.8,477.6z"/>
			<path class="st8" d="M481.1,495.3c27.7,0.8,50.4-9,50.8-21.9c0.4-12.9-21.8-24.1-49.4-24.9c-27.7-0.8-50.4,9-50.8,21.9
				C431.3,483.3,453.4,494.5,481.1,495.3z"/>
		</g>
		<g id="Layer_6">
			<g>
				<path class="st9" d="M550.6,496.7c2.7,0.6,6,9.1,6,9.1l-6.4,4.2l-6-9.1C544.3,500.9,548.8,496.3,550.6,496.7z"/>
				<path class="st10" d="M558.1,519.5c0,0,24.1-15.8,23.8-15.6c-2.5-3.9-7.1-2.4-9.3-1.4c-5.8,5-15.2,0.5-15.2,0.5l-9,5.9
					C550.9,524.2,558.1,519.5,558.1,519.5z"/>
			</g>
		</g>
		<g id="Layer_4">
			<g>
				<path class="st9" d="M540,510.8c2.4,1.3,3.3,10.4,3.3,10.4l-7.3,2.3l-3.3-10.4C532.8,513.1,538.3,509.9,540,510.8z"/>
				<path class="st10" d="M541,534.8c0,0,27.4-8.6,27.1-8.5c-1.4-4.4-6.2-4.3-8.5-3.9c-7,3.2-14.8-3.7-14.8-3.7l-10.3,3.2
					C532.8,537.3,541,534.8,541,534.8z"/>
			</g>
			<path class="st11" d="M499.4,470.1c2.7,15.2,18.4,22.7,18.4,22.7l15.1,27.5l10.3-4.4c0,0-21.2-47.5-22.7-49.2
				c-7.9-23-15.7-17.6-15.7-17.6s-33.5-4.3-47.1-2.4c-11,1.6-12.6,25-5.7,27.1C483,482.9,499.7,466.5,499.4,470.1z"/>
			<path class="st12" d="M501.8,462.3c4.7,13.7,21.1,18.7,21.1,18.7l23.5,24.5l9.3-5.8c0,0-31.9-41.7-33.7-43.1
				c-10.8-20.3-17.7-14.3-17.7-14.3s-33.4,0-46.5,3.4c-10.5,2.7-18.2,32-4.4,35C484.6,487.5,501.5,458.9,501.8,462.3z"/>
			<g id="Layer_8">
				<path class="st13" d="M544.1,395.5l-6.9-3.4l0.9-2.7l0.5-5.6c0,0,2.4-5.6,3-5.6c3.8-0.6,1.6,4.9,1.6,4.9s7.8-7.8,8.8-6.3
					c7.1,6.6-3.3,12.9-3.9,13.6L544.1,395.5z"/>
			</g>
		</g>
		<g id="Layer_3">
			<g id="Layer_10">
				<path class="st13" d="M450,456.4l5.8-5.1l2.2,1.9l4.9,2.7c0,0,4.2,4.4,4,4.9c-1,3.7-5.1-0.4-5.1-0.4s4.1,10.2,2.4,10.6
					c-8.9,4-10.6-8-11-8.9L450,456.4z"/>
			</g>
			<g id="Layer_7">
				<linearGradient id="SVGID_2_" gradientUnits="userSpaceOnUse" x1="447.4639" y1="416.5162" x2="544.7918" y2="416.5162">
					<stop  offset="0" style="stop-color:#E00300"/>
					<stop  offset="0.9896" style="stop-color:#FFD297"/>
				</linearGradient>
				<path class="st14" d="M449.6,453.5l35.6-6.5c0,0-2.7-26.1-2-26.6c9.3-6.7,9.2-12.8,7.5-16.7c5.8,8.1,17.9,24.6,19.7,25
					c3.2,1,11.1-8.1,11.1-8.1l23.3-25.8c0,0-6.4-6.3-8.3-4.8c-19.1,15.3-20.6,19.8-23.4,23.7c-8.9-17.9-34.2-43.4-45.4-30.5
					C438.3,416.6,449.6,453.5,449.6,453.5z"/>
			</g>
			<g id="Layer_9">
				<linearGradient id="SVGID_3_" gradientUnits="userSpaceOnUse" x1="431.6731" y1="424.5683" x2="461.6032" y2="424.5683">
					<stop  offset="0" style="stop-color:#E00300"/>
					<stop  offset="0.9896" style="stop-color:#FFD297"/>
				</linearGradient>
				<path class="st15" d="M456.1,393.8c-1.2-2.2-2.5-8.4-10-3.2c-5.2,3.6-14.2,38.8-14.3,40.2c-0.5,2.5,6.6,10.8,6.6,10.8l12.7,18.8
					c0,0,11.2-4.4,10.5-5.9c-7.5-15.4-17.4-22.9-19.4-25.1C448.2,424.9,460.7,402.2,456.1,393.8z"/>
			</g>
			<g id="Layer_11">
			</g>
			<g id="Layer_5">
				<g>
					<path class="st13" d="M499,349.8c-4.3-1.1-9.7,5.2-12,14.2c-2.4,9-0.9,17.1,3.4,18.3c4.3,1.1,9.7-5.2,12.1-14.2
						C504.8,359.1,503.2,351,499,349.8z"/>
					<path class="st16" d="M490,378.2c0.4,3.6,0.1,8-1.2,12.5c-2.3,8.2-6.8,14.5-11.2,15.8c0.1,1.7,0,3.5-0.5,5.3
						c-1.8,6.5-7.3,10.7-12.2,9.4c-1.5-0.4-2.7-1.3-3.7-2.5c-55.2-8.1-3.7-35-5.1-36.1c-4.6-15.7,5.4-23.2,6.4-23.3
						c3.9-5.5,6.8-4.3,7.2-6.1c3.8-17.9,16.2-8.9,18.5-8.4c36,8.3,1.6,27.6,1.6,27.6C490.3,373.6,490.3,375.7,490,378.2z"/>
					
						<ellipse transform="matrix(-0.9637 -0.2671 0.2671 -0.9637 865.6664 859.2202)" class="st13" cx="491.3" cy="370.7" rx="3.7" ry="3.9"/>
				</g>
			</g>
		</g>
	</g>
	<g>
		
			<linearGradient id="SVGID_4_" gradientUnits="userSpaceOnUse" x1="502.8826" y1="406.6613" x2="535.8257" y2="406.6613" gradientTransform="matrix(0.9349 -0.1939 0.1398 1.0125 6.533 69.215)">
			<stop  offset="0" style="stop-color:#004794"/>
			<stop  offset="1" style="stop-color:#001355"/>
		</linearGradient>
		<path class="st17" d="M534.6,385.8c4.5-4.3,15.6-15,18.4-17.8c0.4-0.4,1-0.5,1.5-0.3l8.3,3.6c1,0.4,1.2,2,0.4,2.9l-18.6,18.2
			c-0.4,0.4-1,0.5-1.5,0.3l-8.2-4C533.9,388.2,533.8,386.7,534.6,385.8z"/>
		<path class="st18" d="M536.7,385.4c0.1-0.1,16.1-15.5,16.1-15.5l8.8,3.7l-16.3,15.9L536.7,385.4z"/>
		<path class="st19" d="M540,388.6c-0.1,0.5-0.4,0.8-0.8,0.7c-0.4,0-0.6-0.5-0.6-0.9c0.1-0.5,0.4-0.8,0.8-0.7
			C539.8,387.7,540.1,388.1,540,388.6z"/>
		<path class="st19" d="M559.9,371.7l-2-0.9c-0.1,0-0.1-0.1-0.1-0.2l0,0c0-0.1,0.1-0.1,0.2-0.1l2,0.9c0.1,0,0.1,0.1,0.1,0.2l0,0
			C560,371.7,559.9,371.7,559.9,371.7z"/>
		<path class="st19" d="M556.8,370c0,0.1-0.1,0.3-0.2,0.3c-0.1,0-0.2-0.1-0.2-0.2c0-0.1,0.1-0.3,0.2-0.3
			C556.7,369.8,556.8,369.9,556.8,370z"/>
	</g>
	<linearGradient id="SVGID_5_" gradientUnits="userSpaceOnUse" x1="343.696" y1="404.5604" x2="347.8453" y2="404.5604">
		<stop  offset="0" style="stop-color:#F89D89"/>
		<stop  offset="0.9896" style="stop-color:#FFD297"/>
	</linearGradient>
	<circle class="st20" cx="345.8" cy="404.6" r="2.1"/>
	<linearGradient id="SVGID_6_" gradientUnits="userSpaceOnUse" x1="445.7463" y1="307.0104" x2="449.8956" y2="307.0104">
		<stop  offset="0" style="stop-color:#F89D89"/>
		<stop  offset="0.9896" style="stop-color:#FFD297"/>
	</linearGradient>
	<circle class="st21" cx="447.8" cy="307" r="2.1"/>
	<linearGradient id="SVGID_7_" gradientUnits="userSpaceOnUse" x1="578.0586" y1="404.5604" x2="582.2079" y2="404.5604">
		<stop  offset="0" style="stop-color:#F89D89"/>
		<stop  offset="0.9896" style="stop-color:#FFD297"/>
	</linearGradient>
	<circle class="st22" cx="580.1" cy="404.6" r="2.1"/>
	<linearGradient id="SVGID_8_" gradientUnits="userSpaceOnUse" x1="392.4753" y1="266.0104" x2="397.1198" y2="266.0104">
		<stop  offset="0" style="stop-color:#004794"/>
		<stop  offset="1" style="stop-color:#001355"/>
	</linearGradient>
	<circle class="st23" cx="394.8" cy="266" r="1.8"/>
	<linearGradient id="SVGID_9_" gradientUnits="userSpaceOnUse" x1="619.3675" y1="357.4279" x2="624.012" y2="357.4279">
		<stop  offset="0" style="stop-color:#004794"/>
		<stop  offset="1" style="stop-color:#001355"/>
	</linearGradient>
	<circle class="st24" cx="621.7" cy="357.4" r="1.8"/>
	<linearGradient id="SVGID_10_" gradientUnits="userSpaceOnUse" x1="351.56" y1="340.6127" x2="357.307" y2="340.6127">
		<stop  offset="1.037099e-002" style="stop-color:#E77474"/>
		<stop  offset="1" style="stop-color:#AD4F53"/>
	</linearGradient>
	<path class="st25" d="M354.8,338.5l0.6,1.1c0,0.1,0.1,0.1,0.2,0.2l1.1,0.6c0.3,0.2,0.3,0.6,0,0.7l-1.1,0.6c-0.1,0-0.1,0.1-0.2,0.2
		l-0.6,1.1c-0.2,0.3-0.6,0.3-0.7,0l-0.6-1.1c0-0.1-0.1-0.1-0.2-0.2l-1.1-0.6c-0.3-0.2-0.3-0.6,0-0.7l1.1-0.6c0.1,0,0.1-0.1,0.2-0.2
		l0.6-1.1C354.2,338.2,354.6,338.2,354.8,338.5z"/>
	<linearGradient id="SVGID_11_" gradientUnits="userSpaceOnUse" x1="529.065" y1="285.8722" x2="534.812" y2="285.8722">
		<stop  offset="1.037099e-002" style="stop-color:#E77474"/>
		<stop  offset="1" style="stop-color:#AD4F53"/>
	</linearGradient>
	<path class="st26" d="M532.3,283.7l0.6,1.1c0,0.1,0.1,0.1,0.2,0.2l1.1,0.6c0.3,0.2,0.3,0.6,0,0.7l-1.1,0.6c-0.1,0-0.1,0.1-0.2,0.2
		l-0.6,1.1c-0.2,0.3-0.6,0.3-0.7,0L531,287c0-0.1-0.1-0.1-0.2-0.2l-1.1-0.6c-0.3-0.2-0.3-0.6,0-0.7l1.1-0.6c0.1,0,0.1-0.1,0.2-0.2
		l0.6-1.1C531.7,283.4,532.1,283.4,532.3,283.7z"/>
	<linearGradient id="SVGID_12_" gradientUnits="userSpaceOnUse" x1="599.107" y1="497.1857" x2="604.854" y2="497.1857">
		<stop  offset="1.037099e-002" style="stop-color:#E77474"/>
		<stop  offset="1" style="stop-color:#AD4F53"/>
	</linearGradient>
	<path class="st27" d="M602.3,495l0.6,1.1c0,0.1,0.1,0.1,0.2,0.2l1.1,0.6c0.3,0.2,0.3,0.6,0,0.7l-1.1,0.6c-0.1,0-0.1,0.1-0.2,0.2
		l-0.6,1.1c-0.2,0.3-0.6,0.3-0.7,0l-0.6-1.1c0-0.1-0.1-0.1-0.2-0.2l-1.1-0.6c-0.3-0.2-0.3-0.6,0-0.7l1.1-0.6c0.1,0,0.1-0.1,0.2-0.2
		l0.6-1.1C601.8,494.7,602.2,494.7,602.3,495z"/>
	<g>
		<g class="st28">
			
				<radialGradient id="SVGID_13_" cx="-204.5457" cy="8583.293" r="0.6309" gradientTransform="matrix(-0.3541 -0.8844 2.639538e-002 -1.056833e-002 286.5966 309.2099)" gradientUnits="userSpaceOnUse">
				<stop  offset="0" style="stop-color:#000000"/>
				<stop  offset="1" style="stop-color:#000000"/>
			</radialGradient>
			<path class="st29" d="M585.4,398.9c0,0,0.1,0.2,0.2,0.5c0.1,0.3,0.2,0.5,0.2,0.5c0,0-0.1-0.2-0.2-0.5
				C585.5,399.2,585.4,398.9,585.4,398.9z"/>
		</g>
		
			<linearGradient id="SVGID_14_" gradientUnits="userSpaceOnUse" x1="787.6248" y1="54.0205" x2="820.9469" y2="54.0205" gradientTransform="matrix(0.3717 0.9284 -0.9284 0.3717 352.7293 -374.7271)">
			<stop  offset="0" style="stop-color:#009444"/>
			<stop  offset="1" style="stop-color:#004726"/>
		</linearGradient>
		<path class="st30" d="M616.9,385.9c-3.4-8.5-13.1-12.7-21.7-9.3l-15.2,6.1c5.1,3.5,5.5,9.6,5.9,13.7c0.3,2.4,1.2,4.6,2.7,6.4
			c4.5,5.3,12.1,7.5,18.9,4.7C616.2,404.1,620.3,394.4,616.9,385.9z"/>
		<g class="st31">
			<path class="st32" d="M587.9,398.9c-2.9-7.3,0.6-15.7,8-18.6c7.3-2.9,15.7,0.6,18.6,8c2.9,7.3-0.6,15.7-8,18.6
				C599.1,409.8,590.8,406.2,587.9,398.9z"/>
			<path class="st33" d="M587.9,398.9c-2.9-7.3,0.6-15.7,8-18.6c7.3-2.9,15.7,0.6,18.6,8c2.9,7.3-0.6,15.7-8,18.6
				C599.1,409.8,590.8,406.2,587.9,398.9z"/>
			<path class="st34" d="M587.9,398.9c-2.9-7.3,0.6-15.6,8-18.6c7.3-2.9,15.6,0.6,18.6,8c2.9,7.3-0.6,15.6-8,18.6
				C599.1,409.7,590.8,406.2,587.9,398.9z"/>
			<path class="st35" d="M587.9,398.8c-2.9-7.3,0.6-15.6,7.9-18.6c7.3-2.9,15.6,0.6,18.6,8c2.9,7.3-0.6,15.6-7.9,18.6
				C599.1,409.7,590.8,406.1,587.9,398.8z"/>
			<path class="st36" d="M587.9,398.8c-2.9-7.3,0.6-15.6,7.9-18.6c7.3-2.9,15.6,0.6,18.6,7.9c2.9,7.3-0.6,15.6-7.9,18.6
				C599.1,409.7,590.8,406.1,587.9,398.8z"/>
			<path class="st37" d="M587.9,398.8c-2.9-7.3,0.6-15.6,7.9-18.5c7.3-2.9,15.6,0.6,18.5,7.9c2.9,7.3-0.6,15.6-7.9,18.5
				C599.1,409.7,590.8,406.1,587.9,398.8z"/>
			<path class="st38" d="M587.9,398.8c-2.9-7.3,0.6-15.6,7.9-18.5c7.3-2.9,15.6,0.6,18.5,7.9c2.9,7.3-0.6,15.6-7.9,18.5
				C599.1,409.6,590.8,406.1,587.9,398.8z"/>
			<path class="st39" d="M587.9,398.7c-2.9-7.3,0.6-15.6,7.9-18.5c7.3-2.9,15.6,0.6,18.5,7.9c2.9,7.3-0.6,15.6-7.9,18.5
				C599.1,409.6,590.8,406,587.9,398.7z"/>
			<path class="st40" d="M587.9,398.7c-2.9-7.3,0.6-15.6,7.9-18.5c7.3-2.9,15.6,0.6,18.5,7.9c2.9,7.3-0.6,15.6-7.9,18.5
				C599.1,409.6,590.8,406,587.9,398.7z"/>
			<path class="st41" d="M587.9,398.7c-2.9-7.3,0.6-15.6,7.9-18.5c7.3-2.9,15.6,0.6,18.5,7.9c2.9,7.3-0.6,15.6-7.9,18.5
				C599.1,409.5,590.8,406,587.9,398.7z"/>
			<path class="st42" d="M587.9,398.7c-2.9-7.3,0.6-15.6,7.9-18.5c7.3-2.9,15.6,0.6,18.5,7.9c2.9,7.3-0.6,15.6-7.9,18.5
				C599.1,409.5,590.9,405.9,587.9,398.7z"/>
			<path class="st43" d="M587.9,398.6c-2.9-7.3,0.6-15.6,7.9-18.5c7.3-2.9,15.6,0.6,18.5,7.9c2.9,7.3-0.6,15.6-7.9,18.5
				C599.2,409.5,590.9,405.9,587.9,398.6z"/>
			<path class="st44" d="M588,398.6c-2.9-7.3,0.6-15.6,7.9-18.5c7.3-2.9,15.6,0.6,18.5,7.9c2.9,7.3-0.6,15.6-7.9,18.5
				C599.2,409.4,590.9,405.9,588,398.6z"/>
			<path class="st45" d="M588,398.6c-2.9-7.3,0.6-15.6,7.9-18.5c7.3-2.9,15.6,0.6,18.5,7.9c2.9,7.3-0.6,15.5-7.9,18.5
				C599.2,409.4,590.9,405.9,588,398.6z"/>
			<path class="st46" d="M588,398.6c-2.9-7.3,0.6-15.5,7.9-18.5c7.3-2.9,15.5,0.6,18.5,7.9c2.9,7.3-0.6,15.5-7.9,18.4
				C599.2,409.4,590.9,405.8,588,398.6z"/>
			<path class="st47" d="M588,398.5c-2.9-7.3,0.6-15.5,7.9-18.4c7.3-2.9,15.5,0.6,18.4,7.9c2.9,7.3-0.6,15.5-7.9,18.4
				C599.2,409.3,590.9,405.8,588,398.5z"/>
			<path class="st48" d="M588,398.5c-2.9-7.3,0.6-15.5,7.9-18.4c7.3-2.9,15.5,0.6,18.4,7.9c2.9,7.3-0.6,15.5-7.9,18.4
				C599.2,409.3,590.9,405.8,588,398.5z"/>
			<path class="st49" d="M588,398.5c-2.9-7.3,0.6-15.5,7.9-18.4c7.3-2.9,15.5,0.6,18.4,7.9c2.9,7.3-0.6,15.5-7.9,18.4
				C599.2,409.3,590.9,405.7,588,398.5z"/>
			<path class="st50" d="M588,398.5c-2.9-7.2,0.6-15.5,7.9-18.4c7.2-2.9,15.5,0.6,18.4,7.9c2.9,7.2-0.6,15.5-7.9,18.4
				C599.2,409.3,590.9,405.7,588,398.5z"/>
			<path class="st51" d="M588,398.4c-2.9-7.2,0.6-15.5,7.9-18.4c7.2-2.9,15.5,0.6,18.4,7.9c2.9,7.2-0.6,15.5-7.9,18.4
				C599.2,409.2,590.9,405.7,588,398.4z"/>
			<path class="st52" d="M588,398.4c-2.9-7.2,0.6-15.5,7.9-18.4c7.2-2.9,15.5,0.6,18.4,7.9c2.9,7.2-0.6,15.5-7.9,18.4
				C599.2,409.2,590.9,405.7,588,398.4z"/>
			<path class="st53" d="M588,398.4c-2.9-7.2,0.6-15.5,7.9-18.4c7.2-2.9,15.5,0.6,18.4,7.9c2.9,7.2-0.6,15.5-7.9,18.4
				C599.2,409.2,590.9,405.6,588,398.4z"/>
			<path class="st54" d="M588,398.4c-2.9-7.2,0.6-15.5,7.9-18.4c7.2-2.9,15.5,0.6,18.4,7.9c2.9,7.2-0.6,15.5-7.9,18.4
				C599.2,409.1,590.9,405.6,588,398.4z"/>
			<path class="st55" d="M588.1,398.3c-2.9-7.2,0.6-15.5,7.9-18.4c7.2-2.9,15.5,0.6,18.4,7.9c2.9,7.2-0.6,15.5-7.9,18.4
				C599.2,409.1,590.9,405.6,588.1,398.3z"/>
			<path class="st56" d="M588.1,398.3c-2.9-7.2,0.6-15.5,7.9-18.3c7.2-2.9,15.5,0.6,18.3,7.9c2.9,7.2-0.6,15.5-7.9,18.3
				C599.2,409.1,591,405.5,588.1,398.3z"/>
			<path class="st57" d="M588.1,398.3c-2.9-7.2,0.6-15.4,7.8-18.3c7.2-2.9,15.4,0.6,18.3,7.9c2.9,7.2-0.6,15.4-7.9,18.3
				C599.2,409,591,405.5,588.1,398.3z"/>
			<path class="st58" d="M588.1,398.3c-2.9-7.2,0.6-15.4,7.8-18.3c7.2-2.9,15.4,0.6,18.3,7.8c2.9,7.2-0.6,15.4-7.8,18.3
				C599.2,409,591,405.5,588.1,398.3z"/>
			<path class="st59" d="M588.1,398.2c-2.9-7.2,0.6-15.4,7.8-18.3c7.2-2.9,15.4,0.6,18.3,7.8c2.9,7.2-0.6,15.4-7.8,18.3
				C599.2,409,591,405.5,588.1,398.2z"/>
			<path class="st60" d="M588.1,398.2c-2.9-7.2,0.6-15.4,7.8-18.3c7.2-2.9,15.4,0.6,18.3,7.8c2.9,7.2-0.6,15.4-7.8,18.3
				C599.2,408.9,591,405.4,588.1,398.2z"/>
			<path class="st61" d="M588.1,398.2c-2.9-7.2,0.6-15.4,7.8-18.3c7.2-2.9,15.4,0.6,18.3,7.8c2.9,7.2-0.6,15.4-7.8,18.3
				C599.2,408.9,591,405.4,588.1,398.2z"/>
			<path class="st62" d="M588.1,398.2c-2.9-7.2,0.6-15.4,7.8-18.3c7.2-2.9,15.4,0.6,18.3,7.8c2.9,7.2-0.6,15.4-7.8,18.3
				C599.2,408.9,591,405.4,588.1,398.2z"/>
			<path class="st63" d="M588.1,398.2c-2.9-7.2,0.6-15.4,7.8-18.3c7.2-2.9,15.4,0.6,18.3,7.8c2.9,7.2-0.6,15.4-7.8,18.3
				C599.2,408.9,591,405.3,588.1,398.2z"/>
			<path class="st64" d="M588.1,398.1c-2.9-7.2,0.6-15.4,7.8-18.3c7.2-2.9,15.4,0.6,18.3,7.8c2.9,7.2-0.6,15.4-7.8,18.3
				C599.2,408.8,591,405.3,588.1,398.1z"/>
			<path class="st65" d="M588.1,398.1c-2.9-7.2,0.6-15.4,7.8-18.2c7.2-2.9,15.4,0.6,18.2,7.8c2.9,7.2-0.6,15.4-7.8,18.2
				C599.2,408.8,591,405.3,588.1,398.1z"/>
			<path class="st66" d="M588.1,398.1c-2.9-7.2,0.6-15.4,7.8-18.2c7.2-2.9,15.4,0.6,18.2,7.8c2.9,7.2-0.6,15.4-7.8,18.2
				C599.2,408.8,591,405.3,588.1,398.1z"/>
			<path class="st67" d="M588.2,398.1c-2.9-7.2,0.6-15.4,7.8-18.2c7.2-2.9,15.4,0.6,18.2,7.8c2.9,7.2-0.6,15.4-7.8,18.2
				C599.2,408.7,591,405.2,588.2,398.1z"/>
			<path class="st68" d="M588.2,398c-2.9-7.2,0.6-15.3,7.8-18.2c7.2-2.9,15.3,0.6,18.2,7.8c2.9,7.2-0.6,15.3-7.8,18.2
				C599.2,408.7,591,405.2,588.2,398z"/>
			<path class="st69" d="M588.2,398c-2.9-7.2,0.6-15.3,7.8-18.2c7.2-2.9,15.3,0.6,18.2,7.8c2.9,7.2-0.6,15.3-7.8,18.2
				C599.2,408.7,591,405.2,588.2,398z"/>
			<path class="st70" d="M588.2,398c-2.9-7.2,0.6-15.3,7.8-18.2c7.2-2.9,15.3,0.6,18.2,7.8c2.9,7.2-0.6,15.3-7.8,18.2
				C599.2,408.6,591.1,405.1,588.2,398z"/>
			<path class="st71" d="M588.2,398c-2.9-7.2,0.6-15.3,7.8-18.2c7.2-2.9,15.3,0.6,18.2,7.8c2.9,7.2-0.6,15.3-7.8,18.2
				C599.2,408.6,591.1,405.1,588.2,398z"/>
			<path class="st72" d="M588.2,397.9c-2.9-7.2,0.6-15.3,7.8-18.2c7.2-2.9,15.3,0.6,18.2,7.8c2.9,7.2-0.6,15.3-7.8,18.2
				C599.2,408.6,591.1,405.1,588.2,397.9z"/>
			<path class="st73" d="M588.2,397.9c-2.9-7.2,0.6-15.3,7.8-18.2c7.2-2.9,15.3,0.6,18.2,7.8s-0.6,15.3-7.8,18.2
				C599.2,408.5,591.1,405.1,588.2,397.9z"/>
			<path class="st74" d="M588.2,397.9c-2.9-7.1,0.6-15.3,7.8-18.2c7.1-2.9,15.3,0.6,18.2,7.8c2.9,7.1-0.6,15.3-7.8,18.2
				C599.2,408.5,591.1,405,588.2,397.9z"/>
			<path class="st75" d="M588.2,397.9c-2.9-7.1,0.6-15.3,7.8-18.1c7.1-2.9,15.3,0.6,18.1,7.8c2.9,7.1-0.6,15.3-7.8,18.1
				C599.2,408.5,591.1,405,588.2,397.9z"/>
			<path class="st76" d="M588.2,397.8c-2.9-7.1,0.6-15.3,7.8-18.1c7.1-2.9,15.3,0.6,18.1,7.8c2.9,7.1-0.6,15.3-7.8,18.1
				C599.2,408.5,591.1,405,588.2,397.8z"/>
			<path class="st77" d="M588.2,397.8c-2.9-7.1,0.6-15.3,7.8-18.1c7.1-2.9,15.3,0.6,18.1,7.8c2.9,7.1-0.6,15.3-7.8,18.1
				C599.2,408.4,591.1,404.9,588.2,397.8z"/>
			<path class="st78" d="M588.3,397.8c-2.9-7.1,0.6-15.3,7.8-18.1c7.1-2.9,15.3,0.6,18.1,7.8c2.9,7.1-0.6,15.3-7.8,18.1
				C599.2,408.4,591.1,404.9,588.3,397.8z"/>
			<path class="st79" d="M588.3,397.8c-2.9-7.1,0.6-15.2,7.8-18.1c7.1-2.9,15.2,0.6,18.1,7.8c2.9,7.1-0.6,15.2-7.8,18.1
				C599.2,408.4,591.1,404.9,588.3,397.8z"/>
			<path class="st80" d="M588.3,397.7c-2.9-7.1,0.6-15.2,7.7-18.1c7.1-2.9,15.2,0.6,18.1,7.7c2.9,7.1-0.6,15.2-7.7,18.1
				C599.2,408.3,591.1,404.9,588.3,397.7z"/>
			<path class="st81" d="M588.3,397.7c-2.9-7.1,0.6-15.2,7.7-18.1c7.1-2.9,15.2,0.6,18.1,7.7c2.9,7.1-0.6,15.2-7.7,18.1
				C599.2,408.3,591.1,404.8,588.3,397.7z"/>
			<path class="st82" d="M588.3,397.7c-2.8-7.1,0.6-15.2,7.7-18.1c7.1-2.8,15.2,0.6,18.1,7.7c2.8,7.1-0.6,15.2-7.7,18.1
				C599.2,408.3,591.1,404.8,588.3,397.7z"/>
			<path class="st83" d="M588.3,397.7c-2.8-7.1,0.6-15.2,7.7-18.1c7.1-2.8,15.2,0.6,18.1,7.7c2.8,7.1-0.6,15.2-7.7,18.1
				C599.2,408.2,591.1,404.8,588.3,397.7z"/>
			<path class="st84" d="M588.3,397.6c-2.8-7.1,0.6-15.2,7.7-18c7.1-2.8,15.2,0.6,18,7.7c2.8,7.1-0.6,15.2-7.7,18
				C599.2,408.2,591.1,404.7,588.3,397.6z"/>
			<path class="st85" d="M588.3,397.6c-2.8-7.1,0.6-15.2,7.7-18c7.1-2.8,15.2,0.6,18,7.7c2.8,7.1-0.6,15.2-7.7,18
				C599.2,408.2,591.2,404.7,588.3,397.6z"/>
			<path class="st86" d="M588.3,397.6c-2.8-7.1,0.6-15.2,7.7-18c7.1-2.8,15.2,0.6,18,7.7c2.8,7.1-0.6,15.2-7.7,18
				C599.3,408.2,591.2,404.7,588.3,397.6z"/>
			<path class="st87" d="M588.3,397.6c-2.8-7.1,0.6-15.2,7.7-18c7.1-2.8,15.2,0.6,18,7.7c2.8,7.1-0.6,15.2-7.7,18
				C599.3,408.1,591.2,404.7,588.3,397.6z"/>
			<path class="st88" d="M588.3,397.5c-2.8-7.1,0.6-15.2,7.7-18c7.1-2.8,15.2,0.6,18,7.7c2.8,7.1-0.6,15.2-7.7,18
				C599.3,408.1,591.2,404.6,588.3,397.5z"/>
			<path class="st89" d="M588.3,397.5c-2.8-7.1,0.6-15.2,7.7-18c7.1-2.8,15.2,0.6,18,7.7c2.8,7.1-0.6,15.2-7.7,18
				C599.3,408.1,591.2,404.6,588.3,397.5z"/>
			<path class="st90" d="M588.4,397.5c-2.8-7.1,0.6-15.1,7.7-18c7.1-2.8,15.1,0.6,18,7.7c2.8,7.1-0.6,15.1-7.7,18
				C599.3,408,591.2,404.6,588.4,397.5z"/>
			<path class="st91" d="M588.4,397.5c-2.8-7.1,0.6-15.1,7.7-18c7.1-2.8,15.1,0.6,18,7.7c2.8,7.1-0.6,15.1-7.7,18
				C599.3,408,591.2,404.5,588.4,397.5z"/>
			<path class="st92" d="M588.4,397.4c-2.8-7.1,0.6-15.1,7.7-18c7.1-2.8,15.1,0.6,18,7.7c2.8,7.1-0.6,15.1-7.7,18
				C599.3,408,591.2,404.5,588.4,397.4z"/>
			<path class="st93" d="M588.4,397.4c-2.8-7.1,0.6-15.1,7.7-18c7.1-2.8,15.1,0.6,18,7.7c2.8,7.1-0.6,15.1-7.7,18
				C599.3,407.9,591.2,404.5,588.4,397.4z"/>
			<path class="st94" d="M588.4,397.4c-2.8-7.1,0.6-15.1,7.7-17.9c7.1-2.8,15.1,0.6,17.9,7.7c2.8,7.1-0.6,15.1-7.7,17.9
				C599.3,407.9,591.2,404.5,588.4,397.4z"/>
			<path class="st95" d="M588.4,397.4c-2.8-7.1,0.6-15.1,7.7-17.9c7.1-2.8,15.1,0.6,17.9,7.7c2.8,7.1-0.6,15.1-7.7,17.9
				C599.3,407.9,591.2,404.4,588.4,397.4z"/>
			<path class="st96" d="M588.4,397.3c-2.8-7.1,0.6-15.1,7.7-17.9c7.1-2.8,15.1,0.6,17.9,7.7c2.8,7.1-0.6,15.1-7.7,17.9
				C599.3,407.8,591.2,404.4,588.4,397.3z"/>
			<path class="st97" d="M588.4,397.3c-2.8-7.1,0.6-15.1,7.7-17.9c7.1-2.8,15.1,0.6,17.9,7.7c2.8,7.1-0.6,15.1-7.7,17.9
				C599.3,407.8,591.2,404.4,588.4,397.3z"/>
			<path class="st98" d="M588.4,397.3c-2.8-7,0.6-15.1,7.7-17.9c7-2.8,15.1,0.6,17.9,7.7c2.8,7-0.6,15.1-7.7,17.9
				C599.3,407.8,591.2,404.3,588.4,397.3z"/>
			<path class="st99" d="M588.4,397.3c-2.8-7,0.6-15.1,7.7-17.9c7-2.8,15.1,0.6,17.9,7.7c2.8,7-0.6,15.1-7.7,17.9
				C599.3,407.8,591.3,404.3,588.4,397.3z"/>
			<path class="st100" d="M588.4,397.2c-2.8-7,0.6-15.1,7.7-17.9c7-2.8,15.1,0.6,17.9,7.7c2.8,7-0.6,15.1-7.7,17.9
				C599.3,407.7,591.3,404.3,588.4,397.2z"/>
			<path class="st101" d="M588.5,397.2c-2.8-7,0.6-15.1,7.7-17.9c7-2.8,15.1,0.6,17.9,7.7c2.8,7-0.6,15.1-7.7,17.9
				C599.3,407.7,591.3,404.3,588.5,397.2z"/>
			<path class="st102" d="M588.5,397.2c-2.8-7,0.6-15,7.6-17.9c7-2.8,15,0.6,17.9,7.6c2.8,7-0.6,15-7.6,17.9
				C599.3,407.7,591.3,404.2,588.5,397.2z"/>
			<path d="M588.5,397.2c-2.8-7,0.6-15,7.6-17.8c7-2.8,15,0.6,17.8,7.6c2.8,7-0.6,15-7.6,17.8C599.3,407.6,591.3,404.2,588.5,397.2z
				"/>
		</g>
		
			<linearGradient id="SVGID_15_" gradientUnits="userSpaceOnUse" x1="794.6" y1="44.7157" x2="814.0042" y2="64.1199" gradientTransform="matrix(0.3717 0.9284 -0.9284 0.3717 352.7293 -374.7271)">
			<stop  offset="0" style="stop-color:#C3C4C3"/>
			<stop  offset="0.2166" style="stop-color:#DADADA"/>
			<stop  offset="0.4838" style="stop-color:#EEEFEE"/>
			<stop  offset="0.7471" style="stop-color:#FBFBFB"/>
			<stop  offset="1" style="stop-color:#FFFFFF"/>
		</linearGradient>
		<path class="st103" d="M588.5,397.2c-2.8-7,0.6-15,7.6-17.8c7-2.8,15,0.6,17.8,7.6c2.8,7-0.6,15-7.6,17.8
			C599.3,407.6,591.3,404.2,588.5,397.2z"/>
		
			<linearGradient id="SVGID_16_" gradientUnits="userSpaceOnUse" x1="796.8649" y1="53.9795" x2="811.5893" y2="53.9795" gradientTransform="matrix(0.3717 0.9284 -0.9284 0.3717 352.7293 -374.7271)">
			<stop  offset="0" style="stop-color:#004726"/>
			<stop  offset="1" style="stop-color:#009444"/>
		</linearGradient>
		<path class="st104" d="M601.5,395.8c0-0.2,0.1-1.2,0.1-1.4c0-0.2,0-0.3-0.2-0.4c-0.2-0.1-0.7-0.2-0.9-0.3
			c-0.2-0.1-0.2-0.2-0.2-0.4c0-0.2,0-0.8,0.4-1.7c0.3-0.7,0.7-1.2,0.9-1.4c0.1-0.2,0.3-0.1,0.4-0.1c0.1,0,0.3,0.1,0.4,0.2
			c0.1,0.1,0.2,0.1,0.4,0.1c0.1,0,0.2,0,0.3-0.1c0.1-0.1,0.8-0.7,1.1-1c0.3-0.3,0.2-0.4,0.1-0.5c0-0.1-0.1-0.2-0.1-0.3
			c0-0.1-0.2-0.3-0.4-0.4c-0.2-0.1-0.8-0.4-1.7-0.1c-0.9,0.3-1.5,1.2-1.5,1.4c-0.1,0.1-1.5,1.9-1.6,3.9c-0.1,2,0.2,1.9,0.3,2.2
			c0.1,0.3,0.8,0.9,1.2,0.9c0.5,0,0.8-0.1,0.9-0.2C601.5,396.1,601.5,396,601.5,395.8L601.5,395.8z M596.2,394.2
			c-0.5-1.1-0.5-2.3-0.3-3.4l-1.5-1.9l2.4-0.1c0.7-1,1.6-1.9,2.8-2.4c3.1-1.2,6.6,0.3,7.8,3.3c1.2,3.1-0.3,6.6-3.3,7.8
			C600.9,398.8,597.4,397.3,596.2,394.2L596.2,394.2z M608.5,389.3c-1.5-3.7-5.7-5.5-9.4-4c-1.3,0.5-2.3,1.3-3.1,2.4l-4.1,0.2
			l2.7,3.2c-0.1,1.2,0,2.4,0.5,3.6c1.5,3.7,5.7,5.5,9.4,4C608.2,397.2,610,393,608.5,389.3L608.5,389.3z"/>
	</g>
	<g>
		<g class="st28">
			
				<radialGradient id="SVGID_17_" cx="32.3769" cy="-967.8989" r="0.5752" gradientTransform="matrix(-1.0041 0 0 -2.996699e-002 609.9278 322.1775)" gradientUnits="userSpaceOnUse">
				<stop  offset="0" style="stop-color:#000000"/>
				<stop  offset="1" style="stop-color:#000000"/>
			</radialGradient>
			<ellipse class="st105" cx="577.4" cy="351.2" rx="0.5" ry="0"/>
		</g>
		
			<linearGradient id="SVGID_18_" gradientUnits="userSpaceOnUse" x1="79.9224" y1="64.162" x2="111.6779" y2="64.162" gradientTransform="matrix(-0.4483 -0.8939 0.8939 -0.4483 562.1091 448.7316)">
			<stop  offset="0" style="stop-color:#005983"/>
			<stop  offset="1" style="stop-color:#003954"/>
		</linearGradient>
		<path class="st106" d="M569.4,320.1c-7.9,4-11.1,13.6-7.1,21.5l7,14c2.9-5.2,8.8-6,12.7-6.8c2.2-0.4,4.3-1.5,5.9-3.1
			c4.7-4.7,6.2-12.2,3-18.5C586.9,319.4,577.3,316.2,569.4,320.1z"/>
		<g class="st31">
			<path class="st32" d="M577.8,349c-7.6,0-13.7-6.2-13.7-13.7c0-7.6,6.2-13.7,13.7-13.7c7.6,0,13.7,6.2,13.7,13.7
				C591.5,342.8,585.4,349,577.8,349z"/>
			<path class="st33" d="M577.8,349c-7.6,0-13.7-6.2-13.7-13.7c0-7.6,6.2-13.7,13.7-13.7c7.6,0,13.7,6.2,13.7,13.7
				C591.5,342.8,585.3,349,577.8,349z"/>
			<path class="st34" d="M577.7,349c-7.6,0-13.7-6.2-13.7-13.7c0-7.6,6.2-13.7,13.7-13.7c7.6,0,13.7,6.2,13.7,13.7
				C591.5,342.8,585.3,349,577.7,349z"/>
			<path class="st35" d="M577.7,348.9c-7.6,0-13.7-6.2-13.7-13.7c0-7.6,6.2-13.7,13.7-13.7c7.6,0,13.7,6.2,13.7,13.7
				C591.4,342.8,585.3,348.9,577.7,348.9z"/>
			<path class="st36" d="M577.7,348.9c-7.6,0-13.7-6.1-13.7-13.7c0-7.6,6.1-13.7,13.7-13.7c7.6,0,13.7,6.1,13.7,13.7
				C591.4,342.8,585.3,348.9,577.7,348.9z"/>
			<path class="st37" d="M577.7,348.9c-7.6,0-13.7-6.1-13.7-13.7c0-7.6,6.1-13.7,13.7-13.7c7.6,0,13.7,6.1,13.7,13.7
				C591.4,342.8,585.2,348.9,577.7,348.9z"/>
			<path class="st38" d="M577.7,348.9c-7.5,0-13.7-6.1-13.7-13.7c0-7.5,6.1-13.7,13.7-13.7c7.5,0,13.7,6.1,13.7,13.7
				C591.4,342.7,585.2,348.9,577.7,348.9z"/>
			<path class="st39" d="M577.6,348.9c-7.5,0-13.7-6.1-13.7-13.7c0-7.5,6.1-13.7,13.7-13.7c7.5,0,13.7,6.1,13.7,13.7
				C591.3,342.7,585.2,348.9,577.6,348.9z"/>
			<path class="st40" d="M577.6,348.9c-7.5,0-13.7-6.1-13.7-13.7c0-7.5,6.1-13.7,13.7-13.7c7.5,0,13.7,6.1,13.7,13.7
				C591.3,342.7,585.2,348.9,577.6,348.9z"/>
			<path class="st41" d="M577.6,348.8c-7.5,0-13.7-6.1-13.7-13.7c0-7.5,6.1-13.7,13.7-13.7c7.5,0,13.7,6.1,13.7,13.7
				C591.3,342.7,585.1,348.8,577.6,348.8z"/>
			<path class="st42" d="M577.6,348.8c-7.5,0-13.7-6.1-13.7-13.7c0-7.5,6.1-13.7,13.7-13.7c7.5,0,13.7,6.1,13.7,13.7
				C591.2,342.7,585.1,348.8,577.6,348.8z"/>
			<path class="st43" d="M577.6,348.8c-7.5,0-13.6-6.1-13.6-13.6s6.1-13.6,13.6-13.6c7.5,0,13.6,6.1,13.6,13.6
				S585.1,348.8,577.6,348.8z"/>
			<path class="st44" d="M577.6,348.8c-7.5,0-13.6-6.1-13.6-13.6c0-7.5,6.1-13.6,13.6-13.6c7.5,0,13.6,6.1,13.6,13.6
				C591.2,342.7,585.1,348.8,577.6,348.8z"/>
			<path class="st45" d="M577.5,348.8c-7.5,0-13.6-6.1-13.6-13.6c0-7.5,6.1-13.6,13.6-13.6c7.5,0,13.6,6.1,13.6,13.6
				C591.2,342.7,585.1,348.8,577.5,348.8z"/>
			<path class="st46" d="M577.5,348.8c-7.5,0-13.6-6.1-13.6-13.6c0-7.5,6.1-13.6,13.6-13.6c7.5,0,13.6,6.1,13.6,13.6
				C591.1,342.6,585,348.8,577.5,348.8z"/>
			<path class="st47" d="M577.5,348.7c-7.5,0-13.6-6.1-13.6-13.6s6.1-13.6,13.6-13.6c7.5,0,13.6,6.1,13.6,13.6
				S585,348.7,577.5,348.7z"/>
			<path class="st48" d="M577.5,348.7c-7.5,0-13.6-6.1-13.6-13.6c0-7.5,6.1-13.6,13.6-13.6c7.5,0,13.6,6.1,13.6,13.6
				C591.1,342.6,585,348.7,577.5,348.7z"/>
			<path class="st49" d="M577.5,348.7c-7.5,0-13.6-6.1-13.6-13.6s6.1-13.6,13.6-13.6c7.5,0,13.6,6.1,13.6,13.6
				S585,348.7,577.5,348.7z"/>
			<path class="st50" d="M577.4,348.7c-7.5,0-13.6-6.1-13.6-13.6c0-7.5,6.1-13.6,13.6-13.6c7.5,0,13.6,6.1,13.6,13.6
				C591,342.6,584.9,348.7,577.4,348.7z"/>
			<path class="st51" d="M577.4,348.7c-7.5,0-13.6-6.1-13.6-13.6c0-7.5,6.1-13.6,13.6-13.6c7.5,0,13.6,6.1,13.6,13.6
				C591,342.6,584.9,348.7,577.4,348.7z"/>
			<path class="st52" d="M577.4,348.7c-7.5,0-13.6-6.1-13.6-13.6s6.1-13.6,13.6-13.6c7.5,0,13.6,6.1,13.6,13.6
				S584.9,348.7,577.4,348.7z"/>
			<path class="st53" d="M577.4,348.6c-7.5,0-13.6-6.1-13.6-13.6c0-7.5,6.1-13.6,13.6-13.6c7.5,0,13.6,6.1,13.6,13.6
				C591,342.6,584.9,348.6,577.4,348.6z"/>
			<path class="st54" d="M577.4,348.6c-7.5,0-13.6-6.1-13.6-13.6s6.1-13.6,13.6-13.6c7.5,0,13.6,6.1,13.6,13.6
				S584.8,348.6,577.4,348.6z"/>
			<path class="st55" d="M577.3,348.6c-7.5,0-13.6-6.1-13.6-13.6c0-7.5,6.1-13.6,13.6-13.6c7.5,0,13.6,6.1,13.6,13.6
				C590.9,342.5,584.8,348.6,577.3,348.6z"/>
			<path class="st56" d="M577.3,348.6c-7.5,0-13.5-6.1-13.5-13.5s6.1-13.5,13.5-13.5c7.5,0,13.5,6.1,13.5,13.5
				S584.8,348.6,577.3,348.6z"/>
			<path class="st57" d="M577.3,348.6c-7.5,0-13.5-6.1-13.5-13.5c0-7.5,6.1-13.5,13.5-13.5c7.5,0,13.5,6.1,13.5,13.5
				C590.9,342.5,584.8,348.6,577.3,348.6z"/>
			<path class="st58" d="M577.3,348.6c-7.5,0-13.5-6.1-13.5-13.5s6.1-13.5,13.5-13.5c7.5,0,13.5,6.1,13.5,13.5
				S584.8,348.6,577.3,348.6z"/>
			<path class="st59" d="M577.3,348.5c-7.5,0-13.5-6.1-13.5-13.5c0-7.5,6.1-13.5,13.5-13.5c7.5,0,13.5,6.1,13.5,13.5
				C590.8,342.5,584.7,348.5,577.3,348.5z"/>
			<path class="st60" d="M577.3,348.5c-7.5,0-13.5-6.1-13.5-13.5s6.1-13.5,13.5-13.5c7.5,0,13.5,6.1,13.5,13.5
				S584.7,348.5,577.3,348.5z"/>
			<path class="st61" d="M577.2,348.5c-7.4,0-13.5-6.1-13.5-13.5s6.1-13.5,13.5-13.5c7.4,0,13.5,6.1,13.5,13.5
				S584.7,348.5,577.2,348.5z"/>
			<path class="st62" d="M577.2,348.5c-7.4,0-13.5-6.1-13.5-13.5c0-7.4,6.1-13.5,13.5-13.5c7.4,0,13.5,6.1,13.5,13.5
				C590.7,342.4,584.7,348.5,577.2,348.5z"/>
			<path class="st63" d="M577.2,348.5c-7.4,0-13.5-6.1-13.5-13.5c0-7.4,6.1-13.5,13.5-13.5c7.4,0,13.5,6.1,13.5,13.5
				C590.7,342.4,584.6,348.5,577.2,348.5z"/>
			<path class="st64" d="M577.2,348.5c-7.4,0-13.5-6-13.5-13.5s6-13.5,13.5-13.5c7.4,0,13.5,6,13.5,13.5S584.6,348.5,577.2,348.5z"
				/>
			<path class="st65" d="M577.2,348.4c-7.4,0-13.5-6-13.5-13.5c0-7.4,6-13.5,13.5-13.5c7.4,0,13.5,6,13.5,13.5
				C590.6,342.4,584.6,348.4,577.2,348.4z"/>
			<path class="st66" d="M577.1,348.4c-7.4,0-13.5-6-13.5-13.5c0-7.4,6-13.5,13.5-13.5c7.4,0,13.5,6,13.5,13.5
				C590.6,342.4,584.6,348.4,577.1,348.4z"/>
			<path class="st67" d="M577.1,348.4c-7.4,0-13.5-6-13.5-13.5s6-13.5,13.5-13.5c7.4,0,13.5,6,13.5,13.5S584.5,348.4,577.1,348.4z"
				/>
			<path class="st68" d="M577.1,348.4c-7.4,0-13.5-6-13.5-13.5c0-7.4,6-13.5,13.5-13.5c7.4,0,13.5,6,13.5,13.5
				C590.6,342.4,584.5,348.4,577.1,348.4z"/>
			<path class="st69" d="M577.1,348.4c-7.4,0-13.4-6-13.4-13.4s6-13.4,13.4-13.4c7.4,0,13.4,6,13.4,13.4S584.5,348.4,577.1,348.4z"
				/>
			<path class="st70" d="M577.1,348.4c-7.4,0-13.4-6-13.4-13.4c0-7.4,6-13.4,13.4-13.4c7.4,0,13.4,6,13.4,13.4
				C590.5,342.3,584.5,348.4,577.1,348.4z"/>
			<path class="st71" d="M577.1,348.3c-7.4,0-13.4-6-13.4-13.4s6-13.4,13.4-13.4c7.4,0,13.4,6,13.4,13.4S584.5,348.3,577.1,348.3z"
				/>
			<path class="st72" d="M577,348.3c-7.4,0-13.4-6-13.4-13.4c0-7.4,6-13.4,13.4-13.4s13.4,6,13.4,13.4
				C590.5,342.3,584.4,348.3,577,348.3z"/>
			<path class="st73" d="M577,348.3c-7.4,0-13.4-6-13.4-13.4s6-13.4,13.4-13.4c7.4,0,13.4,6,13.4,13.4S584.4,348.3,577,348.3z"/>
			<path class="st74" d="M577,348.3c-7.4,0-13.4-6-13.4-13.4c0-7.4,6-13.4,13.4-13.4c7.4,0,13.4,6,13.4,13.4
				C590.4,342.3,584.4,348.3,577,348.3z"/>
			<path class="st75" d="M577,348.3c-7.4,0-13.4-6-13.4-13.4s6-13.4,13.4-13.4s13.4,6,13.4,13.4S584.4,348.3,577,348.3z"/>
			<path class="st76" d="M577,348.3c-7.4,0-13.4-6-13.4-13.4c0-7.4,6-13.4,13.4-13.4c7.4,0,13.4,6,13.4,13.4
				C590.3,342.3,584.3,348.3,577,348.3z"/>
			<path class="st77" d="M576.9,348.2c-7.4,0-13.4-6-13.4-13.4c0-7.4,6-13.4,13.4-13.4c7.4,0,13.4,6,13.4,13.4
				C590.3,342.2,584.3,348.2,576.9,348.2z"/>
			<path class="st78" d="M576.9,348.2c-7.4,0-13.4-6-13.4-13.4s6-13.4,13.4-13.4c7.4,0,13.4,6,13.4,13.4S584.3,348.2,576.9,348.2z"
				/>
			<path class="st79" d="M576.9,348.2c-7.4,0-13.4-6-13.4-13.4s6-13.4,13.4-13.4c7.4,0,13.4,6,13.4,13.4S584.3,348.2,576.9,348.2z"
				/>
			<path class="st80" d="M576.9,348.2c-7.4,0-13.4-6-13.4-13.4c0-7.4,6-13.4,13.4-13.4c7.4,0,13.4,6,13.4,13.4
				C590.2,342.2,584.2,348.2,576.9,348.2z"/>
			<path class="st81" d="M576.9,348.2c-7.4,0-13.4-6-13.4-13.4c0-7.4,6-13.4,13.4-13.4c7.4,0,13.4,6,13.4,13.4
				C590.2,342.2,584.2,348.2,576.9,348.2z"/>
			<path class="st82" d="M576.8,348.2c-7.4,0-13.3-6-13.3-13.3s6-13.3,13.3-13.3c7.4,0,13.3,6,13.3,13.3S584.2,348.2,576.8,348.2z"
				/>
			<path class="st83" d="M576.8,348.1c-7.4,0-13.3-6-13.3-13.3c0-7.4,6-13.3,13.3-13.3c7.4,0,13.3,6,13.3,13.3
				C590.2,342.2,584.2,348.1,576.8,348.1z"/>
			<path class="st84" d="M576.8,348.1c-7.3,0-13.3-6-13.3-13.3s6-13.3,13.3-13.3c7.3,0,13.3,6,13.3,13.3S584.2,348.1,576.8,348.1z"
				/>
			<path class="st85" d="M576.8,348.1c-7.3,0-13.3-6-13.3-13.3c0-7.3,6-13.3,13.3-13.3c7.3,0,13.3,6,13.3,13.3
				C590.1,342.1,584.1,348.1,576.8,348.1z"/>
			<path class="st86" d="M576.8,348.1c-7.3,0-13.3-6-13.3-13.3s6-13.3,13.3-13.3c7.3,0,13.3,6,13.3,13.3S584.1,348.1,576.8,348.1z"
				/>
			<path class="st87" d="M576.8,348.1c-7.3,0-13.3-6-13.3-13.3c0-7.3,6-13.3,13.3-13.3c7.3,0,13.3,6,13.3,13.3
				C590.1,342.1,584.1,348.1,576.8,348.1z"/>
			<path class="st88" d="M576.7,348.1c-7.3,0-13.3-6-13.3-13.3s6-13.3,13.3-13.3c7.3,0,13.3,6,13.3,13.3S584.1,348.1,576.7,348.1z"
				/>
			<path class="st89" d="M576.7,348c-7.3,0-13.3-6-13.3-13.3c0-7.3,6-13.3,13.3-13.3c7.3,0,13.3,6,13.3,13.3
				C590,342.1,584,348,576.7,348z"/>
			<path class="st90" d="M576.7,348c-7.3,0-13.3-6-13.3-13.3c0-7.3,6-13.3,13.3-13.3c7.3,0,13.3,6,13.3,13.3
				C590,342.1,584,348,576.7,348z"/>
			<path class="st91" d="M576.7,348c-7.3,0-13.3-6-13.3-13.3c0-7.3,6-13.3,13.3-13.3c7.3,0,13.3,6,13.3,13.3
				C590,342.1,584,348,576.7,348z"/>
			<path class="st92" d="M576.7,348c-7.3,0-13.3-6-13.3-13.3c0-7.3,6-13.3,13.3-13.3c7.3,0,13.3,6,13.3,13.3
				C589.9,342,584,348,576.7,348z"/>
			<path class="st93" d="M576.6,348c-7.3,0-13.3-5.9-13.3-13.3s5.9-13.3,13.3-13.3c7.3,0,13.3,5.9,13.3,13.3S584,348,576.6,348z"/>
			<path class="st94" d="M576.6,348c-7.3,0-13.3-5.9-13.3-13.3c0-7.3,5.9-13.3,13.3-13.3c7.3,0,13.3,5.9,13.3,13.3
				C589.9,342,583.9,348,576.6,348z"/>
			<path class="st95" d="M576.6,348c-7.3,0-13.2-5.9-13.2-13.2c0-7.3,5.9-13.2,13.2-13.2c7.3,0,13.2,5.9,13.2,13.2
				C589.8,342,583.9,348,576.6,348z"/>
			<path class="st96" d="M576.6,347.9c-7.3,0-13.2-5.9-13.2-13.2c0-7.3,5.9-13.2,13.2-13.2c7.3,0,13.2,5.9,13.2,13.2
				C589.8,342,583.9,347.9,576.6,347.9z"/>
			<path class="st97" d="M576.6,347.9c-7.3,0-13.2-5.9-13.2-13.2c0-7.3,5.9-13.2,13.2-13.2c7.3,0,13.2,5.9,13.2,13.2
				C589.8,342,583.9,347.9,576.6,347.9z"/>
			<path class="st98" d="M576.5,347.9c-7.3,0-13.2-5.9-13.2-13.2c0-7.3,5.9-13.2,13.2-13.2c7.3,0,13.2,5.9,13.2,13.2
				C589.8,342,583.8,347.9,576.5,347.9z"/>
			<path class="st99" d="M576.5,347.9c-7.3,0-13.2-5.9-13.2-13.2c0-7.3,5.9-13.2,13.2-13.2c7.3,0,13.2,5.9,13.2,13.2
				C589.7,342,583.8,347.9,576.5,347.9z"/>
			<path class="st100" d="M576.5,347.9c-7.3,0-13.2-5.9-13.2-13.2c0-7.3,5.9-13.2,13.2-13.2c7.3,0,13.2,5.9,13.2,13.2
				C589.7,341.9,583.8,347.9,576.5,347.9z"/>
			<path class="st101" d="M576.5,347.9c-7.3,0-13.2-5.9-13.2-13.2c0-7.3,5.9-13.2,13.2-13.2c7.3,0,13.2,5.9,13.2,13.2
				C589.7,341.9,583.8,347.9,576.5,347.9z"/>
			<path class="st102" d="M576.5,347.8c-7.3,0-13.2-5.9-13.2-13.2c0-7.3,5.9-13.2,13.2-13.2c7.3,0,13.2,5.9,13.2,13.2
				C589.7,341.9,583.7,347.8,576.5,347.8z"/>
			<path d="M576.5,347.8c-7.3,0-13.2-5.9-13.2-13.2c0-7.3,5.9-13.2,13.2-13.2c7.3,0,13.2,5.9,13.2,13.2
				C589.6,341.9,583.7,347.8,576.5,347.8z"/>
		</g>
		<linearGradient id="SVGID_19_" gradientUnits="userSpaceOnUse" x1="567.215" y1="325.3993" x2="585.8457" y2="344.0301">
			<stop  offset="0" style="stop-color:#C3C4C3"/>
			<stop  offset="0.2166" style="stop-color:#DADADA"/>
			<stop  offset="0.4838" style="stop-color:#EEEFEE"/>
			<stop  offset="0.7471" style="stop-color:#FBFBFB"/>
			<stop  offset="1" style="stop-color:#FFFFFF"/>
		</linearGradient>
		<path class="st107" d="M576.5,347.8c-7.3,0-13.2-5.9-13.2-13.2c0-7.3,5.9-13.2,13.2-13.2c7.3,0,13.2,5.9,13.2,13.2
			C589.6,341.9,583.7,347.8,576.5,347.8z"/>
		<linearGradient id="SVGID_20_" gradientUnits="userSpaceOnUse" x1="572.9489" y1="334.3325" x2="579.9415" y2="334.3325">
			<stop  offset="0" style="stop-color:#003954"/>
			<stop  offset="1" style="stop-color:#005983"/>
		</linearGradient>
		<path class="st108" d="M579.7,334.3h-2.1v7.5h-3.1v-7.5h-1.5v-2.7h1.5V330c0-1.2,0.6-3.2,3.2-3.2l2.3,0v2.6h-1.7
			c-0.3,0-0.7,0.1-0.7,0.7v1.6h2.4L579.7,334.3z M579.7,334.3"/>
	</g>
	<g>
		<g class="st28">
			
				<radialGradient id="SVGID_21_" cx="99.3576" cy="-17.5668" r="0.5333" gradientTransform="matrix(-1.0823 0 0 -3.230000e-002 625.1914 342.5981)" gradientUnits="userSpaceOnUse">
				<stop  offset="0" style="stop-color:#000000"/>
				<stop  offset="1" style="stop-color:#000000"/>
			</radialGradient>
			<ellipse class="st109" cx="517.7" cy="343.2" rx="0.5" ry="0"/>
		</g>
		<linearGradient id="SVGID_22_" gradientUnits="userSpaceOnUse" x1="500.7537" y1="326.313" x2="532.7537" y2="326.313">
			<stop  offset="0" style="stop-color:#F7941E"/>
			<stop  offset="1" style="stop-color:#4C216B"/>
		</linearGradient>
		<path class="st110" d="M516.8,310.4c8.8,0,16,7.2,16,16v15.7c-4.9-3.3-10.5-1.4-14.4-0.4c-2.2,0.6-4.5,0.6-6.7-0.1
			c-6.4-2.1-11-8.1-11-15.2C500.8,317.6,507.9,310.4,516.8,310.4z"/>
		<g class="st31">
			<path class="st32" d="M518,341c-7.6,0-13.7-6.2-13.7-13.7c0-7.6,6.2-13.7,13.7-13.7s13.7,6.2,13.7,13.7
				C531.8,334.8,525.6,341,518,341z"/>
			<path class="st33" d="M518,341c-7.6,0-13.7-6.2-13.7-13.7c0-7.6,6.2-13.7,13.7-13.7s13.7,6.2,13.7,13.7
				C531.7,334.8,525.6,341,518,341z"/>
			<path class="st34" d="M518,340.9c-7.6,0-13.7-6.2-13.7-13.7c0-7.6,6.2-13.7,13.7-13.7c7.6,0,13.7,6.2,13.7,13.7
				C531.7,334.8,525.5,340.9,518,340.9z"/>
			<path class="st35" d="M518,340.9c-7.6,0-13.7-6.2-13.7-13.7c0-7.6,6.2-13.7,13.7-13.7s13.7,6.2,13.7,13.7
				C531.7,334.8,525.5,340.9,518,340.9z"/>
			<path class="st36" d="M517.9,340.9c-7.6,0-13.7-6.1-13.7-13.7c0-7.6,6.1-13.7,13.7-13.7s13.7,6.1,13.7,13.7
				C531.7,334.8,525.5,340.9,517.9,340.9z"/>
			<path class="st37" d="M517.9,340.9c-7.6,0-13.7-6.1-13.7-13.7c0-7.6,6.1-13.7,13.7-13.7c7.6,0,13.7,6.1,13.7,13.7
				C531.6,334.7,525.5,340.9,517.9,340.9z"/>
			<path class="st38" d="M517.9,340.9c-7.5,0-13.7-6.1-13.7-13.7c0-7.5,6.1-13.7,13.7-13.7c7.5,0,13.7,6.1,13.7,13.7
				C531.6,334.7,525.5,340.9,517.9,340.9z"/>
			<path class="st39" d="M517.9,340.9c-7.5,0-13.7-6.1-13.7-13.7c0-7.5,6.1-13.7,13.7-13.7c7.5,0,13.7,6.1,13.7,13.7
				C531.6,334.7,525.4,340.9,517.9,340.9z"/>
			<path class="st40" d="M517.9,340.8c-7.5,0-13.7-6.1-13.7-13.7c0-7.5,6.1-13.7,13.7-13.7c7.5,0,13.7,6.1,13.7,13.7
				C531.5,334.7,525.4,340.8,517.9,340.8z"/>
			<path class="st41" d="M517.8,340.8c-7.5,0-13.7-6.1-13.7-13.7c0-7.5,6.1-13.7,13.7-13.7c7.5,0,13.7,6.1,13.7,13.7
				C531.5,334.7,525.4,340.8,517.8,340.8z"/>
			<path class="st42" d="M517.8,340.8c-7.5,0-13.7-6.1-13.7-13.7c0-7.5,6.1-13.7,13.7-13.7c7.5,0,13.7,6.1,13.7,13.7
				C531.5,334.7,525.4,340.8,517.8,340.8z"/>
			<path class="st43" d="M517.8,340.8c-7.5,0-13.7-6.1-13.7-13.7c0-7.5,6.1-13.7,13.7-13.7c7.5,0,13.7,6.1,13.7,13.7
				C531.5,334.7,525.3,340.8,517.8,340.8z"/>
			<path class="st44" d="M517.8,340.8c-7.5,0-13.6-6.1-13.6-13.6c0-7.5,6.1-13.6,13.6-13.6c7.5,0,13.6,6.1,13.6,13.6
				C531.4,334.7,525.3,340.8,517.8,340.8z"/>
			<path class="st45" d="M517.8,340.8c-7.5,0-13.6-6.1-13.6-13.6c0-7.5,6.1-13.6,13.6-13.6c7.5,0,13.6,6.1,13.6,13.6
				C531.4,334.6,525.3,340.8,517.8,340.8z"/>
			<path class="st46" d="M517.8,340.7c-7.5,0-13.6-6.1-13.6-13.6c0-7.5,6.1-13.6,13.6-13.6c7.5,0,13.6,6.1,13.6,13.6
				C531.4,334.6,525.3,340.7,517.8,340.7z"/>
			<path class="st47" d="M517.7,340.7c-7.5,0-13.6-6.1-13.6-13.6c0-7.5,6.1-13.6,13.6-13.6c7.5,0,13.6,6.1,13.6,13.6
				C531.4,334.6,525.2,340.7,517.7,340.7z"/>
			<path class="st48" d="M517.7,340.7c-7.5,0-13.6-6.1-13.6-13.6c0-7.5,6.1-13.6,13.6-13.6c7.5,0,13.6,6.1,13.6,13.6
				C531.3,334.6,525.2,340.7,517.7,340.7z"/>
			<path class="st49" d="M517.7,340.7c-7.5,0-13.6-6.1-13.6-13.6c0-7.5,6.1-13.6,13.6-13.6c7.5,0,13.6,6.1,13.6,13.6
				C531.3,334.6,525.2,340.7,517.7,340.7z"/>
			<path class="st50" d="M517.7,340.7c-7.5,0-13.6-6.1-13.6-13.6c0-7.5,6.1-13.6,13.6-13.6c7.5,0,13.6,6.1,13.6,13.6
				C531.3,334.6,525.2,340.7,517.7,340.7z"/>
			<path class="st51" d="M517.7,340.7c-7.5,0-13.6-6.1-13.6-13.6c0-7.5,6.1-13.6,13.6-13.6c7.5,0,13.6,6.1,13.6,13.6
				C531.3,334.6,525.2,340.7,517.7,340.7z"/>
			<path class="st52" d="M517.6,340.6c-7.5,0-13.6-6.1-13.6-13.6c0-7.5,6.1-13.6,13.6-13.6c7.5,0,13.6,6.1,13.6,13.6
				C531.2,334.5,525.1,340.6,517.6,340.6z"/>
			<path class="st53" d="M517.6,340.6c-7.5,0-13.6-6.1-13.6-13.6c0-7.5,6.1-13.6,13.6-13.6c7.5,0,13.6,6.1,13.6,13.6
				C531.2,334.5,525.1,340.6,517.6,340.6z"/>
			<path class="st54" d="M517.6,340.6c-7.5,0-13.6-6.1-13.6-13.6c0-7.5,6.1-13.6,13.6-13.6s13.6,6.1,13.6,13.6
				C531.2,334.5,525.1,340.6,517.6,340.6z"/>
			<path class="st55" d="M517.6,340.6c-7.5,0-13.6-6.1-13.6-13.6c0-7.5,6.1-13.6,13.6-13.6s13.6,6.1,13.6,13.6
				C531.1,334.5,525.1,340.6,517.6,340.6z"/>
			<path class="st56" d="M517.6,340.6c-7.5,0-13.6-6.1-13.6-13.6c0-7.5,6.1-13.6,13.6-13.6c7.5,0,13.6,6.1,13.6,13.6
				C531.1,334.5,525,340.6,517.6,340.6z"/>
			<path class="st57" d="M517.6,340.6c-7.5,0-13.5-6.1-13.5-13.5c0-7.5,6.1-13.5,13.5-13.5s13.5,6.1,13.5,13.5
				C531.1,334.5,525,340.6,517.6,340.6z"/>
			<path class="st58" d="M517.5,340.5c-7.5,0-13.5-6.1-13.5-13.5c0-7.5,6.1-13.5,13.5-13.5s13.5,6.1,13.5,13.5
				C531.1,334.5,525,340.5,517.5,340.5z"/>
			<path class="st59" d="M517.5,340.5c-7.5,0-13.5-6.1-13.5-13.5c0-7.5,6.1-13.5,13.5-13.5c7.5,0,13.5,6.1,13.5,13.5
				C531,334.5,525,340.5,517.5,340.5z"/>
			<path class="st60" d="M517.5,340.5c-7.5,0-13.5-6.1-13.5-13.5c0-7.5,6.1-13.5,13.5-13.5S531,319.5,531,327
				C531,334.4,524.9,340.5,517.5,340.5z"/>
			<path class="st61" d="M517.5,340.5c-7.5,0-13.5-6.1-13.5-13.5c0-7.5,6.1-13.5,13.5-13.5S531,319.5,531,327
				C531,334.4,524.9,340.5,517.5,340.5z"/>
			<path class="st62" d="M517.5,340.5c-7.4,0-13.5-6.1-13.5-13.5c0-7.4,6.1-13.5,13.5-13.5c7.4,0,13.5,6.1,13.5,13.5
				C531,334.4,524.9,340.5,517.5,340.5z"/>
			<path class="st63" d="M517.4,340.5c-7.4,0-13.5-6.1-13.5-13.5c0-7.4,6.1-13.5,13.5-13.5s13.5,6.1,13.5,13.5
				C530.9,334.4,524.9,340.5,517.4,340.5z"/>
			<path class="st64" d="M517.4,340.4c-7.4,0-13.5-6.1-13.5-13.5c0-7.4,6.1-13.5,13.5-13.5s13.5,6.1,13.5,13.5
				C530.9,334.4,524.9,340.4,517.4,340.4z"/>
			<path class="st65" d="M517.4,340.4c-7.4,0-13.5-6-13.5-13.5c0-7.4,6-13.5,13.5-13.5c7.4,0,13.5,6,13.5,13.5
				C530.9,334.4,524.8,340.4,517.4,340.4z"/>
			<path class="st66" d="M517.4,340.4c-7.4,0-13.5-6-13.5-13.5c0-7.4,6-13.5,13.5-13.5s13.5,6,13.5,13.5
				C530.9,334.4,524.8,340.4,517.4,340.4z"/>
			<path class="st67" d="M517.4,340.4c-7.4,0-13.5-6-13.5-13.5c0-7.4,6-13.5,13.5-13.5s13.5,6,13.5,13.5
				C530.8,334.4,524.8,340.4,517.4,340.4z"/>
			<path class="st68" d="M517.3,340.4c-7.4,0-13.5-6-13.5-13.5c0-7.4,6-13.5,13.5-13.5c7.4,0,13.5,6,13.5,13.5
				C530.8,334.3,524.8,340.4,517.3,340.4z"/>
			<path class="st69" d="M517.3,340.4c-7.4,0-13.4-6-13.4-13.4c0-7.4,6-13.4,13.4-13.4c7.4,0,13.4,6,13.4,13.4
				C530.8,334.3,524.7,340.4,517.3,340.4z"/>
			<path class="st70" d="M517.3,340.3c-7.4,0-13.4-6-13.4-13.4c0-7.4,6-13.4,13.4-13.4c7.4,0,13.4,6,13.4,13.4
				C530.7,334.3,524.7,340.3,517.3,340.3z"/>
			<path class="st71" d="M517.3,340.3c-7.4,0-13.4-6-13.4-13.4c0-7.4,6-13.4,13.4-13.4c7.4,0,13.4,6,13.4,13.4
				C530.7,334.3,524.7,340.3,517.3,340.3z"/>
			<path class="st72" d="M517.3,340.3c-7.4,0-13.4-6-13.4-13.4c0-7.4,6-13.4,13.4-13.4c7.4,0,13.4,6,13.4,13.4
				C530.7,334.3,524.7,340.3,517.3,340.3z"/>
			<path class="st73" d="M517.3,340.3c-7.4,0-13.4-6-13.4-13.4c0-7.4,6-13.4,13.4-13.4c7.4,0,13.4,6,13.4,13.4
				C530.7,334.3,524.7,340.3,517.3,340.3z"/>
			<path class="st74" d="M517.2,340.3c-7.4,0-13.4-6-13.4-13.4c0-7.4,6-13.4,13.4-13.4c7.4,0,13.4,6,13.4,13.4
				C530.6,334.3,524.6,340.3,517.2,340.3z"/>
			<path class="st75" d="M517.2,340.3c-7.4,0-13.4-6-13.4-13.4c0-7.4,6-13.4,13.4-13.4c7.4,0,13.4,6,13.4,13.4
				C530.6,334.3,524.6,340.3,517.2,340.3z"/>
			<path class="st76" d="M517.2,340.2c-7.4,0-13.4-6-13.4-13.4c0-7.4,6-13.4,13.4-13.4c7.4,0,13.4,6,13.4,13.4
				C530.6,334.2,524.6,340.2,517.2,340.2z"/>
			<path class="st77" d="M517.2,340.2c-7.4,0-13.4-6-13.4-13.4c0-7.4,6-13.4,13.4-13.4c7.4,0,13.4,6,13.4,13.4
				C530.6,334.2,524.6,340.2,517.2,340.2z"/>
			<path class="st78" d="M517.2,340.2c-7.4,0-13.4-6-13.4-13.4c0-7.4,6-13.4,13.4-13.4c7.4,0,13.4,6,13.4,13.4
				C530.5,334.2,524.5,340.2,517.2,340.2z"/>
			<path class="st79" d="M517.1,340.2c-7.4,0-13.4-6-13.4-13.4c0-7.4,6-13.4,13.4-13.4c7.4,0,13.4,6,13.4,13.4
				C530.5,334.2,524.5,340.2,517.1,340.2z"/>
			<path class="st80" d="M517.1,340.2c-7.4,0-13.4-6-13.4-13.4c0-7.4,6-13.4,13.4-13.4c7.4,0,13.4,6,13.4,13.4
				C530.5,334.2,524.5,340.2,517.1,340.2z"/>
			<path class="st81" d="M517.1,340.2c-7.4,0-13.4-6-13.4-13.4c0-7.4,6-13.4,13.4-13.4c7.4,0,13.4,6,13.4,13.4
				C530.5,334.2,524.5,340.2,517.1,340.2z"/>
			<path class="st82" d="M517.1,340.1c-7.4,0-13.3-6-13.3-13.3c0-7.4,6-13.3,13.3-13.3c7.4,0,13.3,6,13.3,13.3
				C530.4,334.2,524.4,340.1,517.1,340.1z"/>
			<path class="st83" d="M517.1,340.1c-7.4,0-13.3-6-13.3-13.3c0-7.4,6-13.3,13.3-13.3c7.4,0,13.3,6,13.3,13.3
				C530.4,334.1,524.4,340.1,517.1,340.1z"/>
			<path class="st84" d="M517,340.1c-7.4,0-13.3-6-13.3-13.3c0-7.4,6-13.3,13.3-13.3c7.4,0,13.3,6,13.3,13.3
				C530.4,334.1,524.4,340.1,517,340.1z"/>
			<path class="st85" d="M517,340.1c-7.3,0-13.3-6-13.3-13.3c0-7.3,6-13.3,13.3-13.3c7.3,0,13.3,6,13.3,13.3
				C530.4,334.1,524.4,340.1,517,340.1z"/>
			<path class="st86" d="M517,340.1c-7.3,0-13.3-6-13.3-13.3c0-7.3,6-13.3,13.3-13.3s13.3,6,13.3,13.3
				C530.3,334.1,524.4,340.1,517,340.1z"/>
			<path class="st87" d="M517,340.1c-7.3,0-13.3-6-13.3-13.3c0-7.3,6-13.3,13.3-13.3c7.3,0,13.3,6,13.3,13.3
				C530.3,334.1,524.3,340.1,517,340.1z"/>
			<path class="st88" d="M517,340c-7.3,0-13.3-6-13.3-13.3c0-7.3,6-13.3,13.3-13.3c7.3,0,13.3,6,13.3,13.3
				C530.3,334.1,524.3,340,517,340z"/>
			<path class="st89" d="M517,340c-7.3,0-13.3-6-13.3-13.3c0-7.3,6-13.3,13.3-13.3s13.3,6,13.3,13.3C530.2,334.1,524.3,340,517,340z
				"/>
			<path class="st90" d="M516.9,340c-7.3,0-13.3-6-13.3-13.3c0-7.3,6-13.3,13.3-13.3c7.3,0,13.3,6,13.3,13.3
				C530.2,334.1,524.3,340,516.9,340z"/>
			<path class="st91" d="M516.9,340c-7.3,0-13.3-6-13.3-13.3c0-7.3,6-13.3,13.3-13.3c7.3,0,13.3,6,13.3,13.3
				C530.2,334,524.2,340,516.9,340z"/>
			<path class="st92" d="M516.9,340c-7.3,0-13.3-6-13.3-13.3c0-7.3,6-13.3,13.3-13.3s13.3,6,13.3,13.3
				C530.2,334,524.2,340,516.9,340z"/>
			<path class="st93" d="M516.9,340c-7.3,0-13.3-5.9-13.3-13.3c0-7.3,5.9-13.3,13.3-13.3c7.3,0,13.3,5.9,13.3,13.3
				C530.1,334,524.2,340,516.9,340z"/>
			<path class="st94" d="M516.9,339.9c-7.3,0-13.3-5.9-13.3-13.3c0-7.3,5.9-13.3,13.3-13.3c7.3,0,13.3,5.9,13.3,13.3
				C530.1,334,524.2,339.9,516.9,339.9z"/>
			<path class="st95" d="M516.8,339.9c-7.3,0-13.2-5.9-13.2-13.2c0-7.3,5.9-13.2,13.2-13.2s13.2,5.9,13.2,13.2
				C530.1,334,524.1,339.9,516.8,339.9z"/>
			<path class="st96" d="M516.8,339.9c-7.3,0-13.2-5.9-13.2-13.2c0-7.3,5.9-13.2,13.2-13.2c7.3,0,13.2,5.9,13.2,13.2
				C530.1,334,524.1,339.9,516.8,339.9z"/>
			<path class="st97" d="M516.8,339.9c-7.3,0-13.2-5.9-13.2-13.2c0-7.3,5.9-13.2,13.2-13.2c7.3,0,13.2,5.9,13.2,13.2
				C530,334,524.1,339.9,516.8,339.9z"/>
			<path class="st98" d="M516.8,339.9c-7.3,0-13.2-5.9-13.2-13.2c0-7.3,5.9-13.2,13.2-13.2c7.3,0,13.2,5.9,13.2,13.2
				C530,334,524.1,339.9,516.8,339.9z"/>
			<path class="st99" d="M516.8,339.9c-7.3,0-13.2-5.9-13.2-13.2c0-7.3,5.9-13.2,13.2-13.2c7.3,0,13.2,5.9,13.2,13.2
				C530,333.9,524.1,339.9,516.8,339.9z"/>
			<path class="st100" d="M516.7,339.9c-7.3,0-13.2-5.9-13.2-13.2c0-7.3,5.9-13.2,13.2-13.2c7.3,0,13.2,5.9,13.2,13.2
				C530,333.9,524,339.9,516.7,339.9z"/>
			<path class="st101" d="M516.7,339.8c-7.3,0-13.2-5.9-13.2-13.2c0-7.3,5.9-13.2,13.2-13.2c7.3,0,13.2,5.9,13.2,13.2
				C529.9,333.9,524,339.8,516.7,339.8z"/>
			<path class="st102" d="M516.7,339.8c-7.3,0-13.2-5.9-13.2-13.2c0-7.3,5.9-13.2,13.2-13.2c7.3,0,13.2,5.9,13.2,13.2
				C529.9,333.9,524,339.8,516.7,339.8z"/>
			<path d="M516.7,339.8c-7.3,0-13.2-5.9-13.2-13.2c0-7.3,5.9-13.2,13.2-13.2c7.3,0,13.2,5.9,13.2,13.2
				C529.9,333.9,524,339.8,516.7,339.8z"/>
		</g>
		<linearGradient id="SVGID_23_" gradientUnits="userSpaceOnUse" x1="507.4523" y1="317.3774" x2="526.0865" y2="336.0116">
			<stop  offset="0" style="stop-color:#C3C4C3"/>
			<stop  offset="0.2166" style="stop-color:#DADADA"/>
			<stop  offset="0.4838" style="stop-color:#EEEFEE"/>
			<stop  offset="0.7471" style="stop-color:#FBFBFB"/>
			<stop  offset="1" style="stop-color:#FFFFFF"/>
		</linearGradient>
		<path class="st111" d="M516.7,339.8c-7.3,0-13.2-5.9-13.2-13.2c0-7.3,5.9-13.2,13.2-13.2c7.3,0,13.2,5.9,13.2,13.2
			C529.9,333.9,524,339.8,516.7,339.8z"/>
		<linearGradient id="SVGID_24_" gradientUnits="userSpaceOnUse" x1="509.6655" y1="326.6184" x2="521.8114" y2="326.6184">
			<stop  offset="0" style="stop-color:#4C216B"/>
			<stop  offset="1" style="stop-color:#F7941E"/>
		</linearGradient>
		<path class="st112" d="M519.1,332.7h-6.6c-1.5,0-2.7-1.2-2.7-2.8v-6.6c0-1.5,1.2-2.8,2.7-2.8h6.6c1.5,0,2.8,1.2,2.8,2.8v6.6
			C521.8,331.5,520.6,332.7,519.1,332.7z M512.4,321.8c-0.8,0-1.5,0.7-1.5,1.5v6.6c0,0.9,0.7,1.5,1.5,1.5h6.6c0.8,0,1.5-0.7,1.5-1.5
			v-6.6c0-0.8-0.7-1.5-1.5-1.5H512.4z M515.7,329.8c-1.7,0-3.1-1.4-3.1-3.1c0-1.7,1.4-3.1,3.1-3.1c1.7,0,3.1,1.4,3.1,3.1
			C518.9,328.4,517.5,329.8,515.7,329.8z M515.7,324.7c-1.1,0-1.9,0.9-1.9,1.9c0,1.1,0.9,1.9,1.9,1.9s1.9-0.9,1.9-1.9
			C517.7,325.6,516.8,324.7,515.7,324.7z M519,322.7c-0.4,0-0.8,0.4-0.8,0.8c0,0.4,0.4,0.8,0.8,0.8c0.4,0,0.8-0.4,0.8-0.8
			C519.8,323.1,519.4,322.7,519,322.7z"/>
	</g>
	<g class="st113">
		
			<linearGradient id="SVGID_25_" gradientUnits="userSpaceOnUse" x1="439.1047" y1="-360.0309" x2="453.1307" y2="-360.0309" gradientTransform="matrix(1 0 0 -1 0 204.15)">
			<stop  offset="0" style="stop-color:#004794"/>
			<stop  offset="1" style="stop-color:#001355"/>
		</linearGradient>
		<path class="st114" d="M452.6,564.8h-12.8c-0.4,0-0.6-0.3-0.6-0.6c0-0.4,0.3-0.6,0.6-0.6h12.7c0.4,0,0.6,0.3,0.6,0.6
			C453.2,564.6,452.9,564.8,452.6,564.8z"/>
		
			<linearGradient id="SVGID_26_" gradientUnits="userSpaceOnUse" x1="449.1947" y1="-355.5309" x2="458.9147" y2="-355.5309" gradientTransform="matrix(1 0 0 -1 0 204.15)">
			<stop  offset="0" style="stop-color:#004794"/>
			<stop  offset="1" style="stop-color:#001355"/>
		</linearGradient>
		<path class="st115" d="M458.4,560.3h-8.5c-0.4,0-0.6-0.3-0.6-0.6c0-0.4,0.3-0.6,0.6-0.6h8.5c0.4,0,0.6,0.3,0.6,0.6
			C459,559.9,458.7,560.3,458.4,560.3z"/>
		
			<linearGradient id="SVGID_27_" gradientUnits="userSpaceOnUse" x1="480.8647" y1="-355.4309" x2="484.0237" y2="-355.4309" gradientTransform="matrix(1 0 0 -1 0 204.15)">
			<stop  offset="0" style="stop-color:#004794"/>
			<stop  offset="1" style="stop-color:#001355"/>
		</linearGradient>
		<path class="st116" d="M483.5,560.2h-1.9c-0.4,0-0.6-0.3-0.6-0.6c0-0.4,0.3-0.6,0.6-0.6h1.9c0.4,0,0.6,0.3,0.6,0.6
			S483.8,560.2,483.5,560.2z"/>
		
			<linearGradient id="SVGID_28_" gradientUnits="userSpaceOnUse" x1="475.6147" y1="-355.4309" x2="478.7737" y2="-355.4309" gradientTransform="matrix(1 0 0 -1 0 204.15)">
			<stop  offset="0" style="stop-color:#004794"/>
			<stop  offset="1" style="stop-color:#001355"/>
		</linearGradient>
		<path class="st117" d="M478.2,560.2h-1.9c-0.4,0-0.6-0.3-0.6-0.6c0-0.4,0.3-0.6,0.6-0.6h1.9c0.4,0,0.6,0.3,0.6,0.6
			S478.6,560.2,478.2,560.2z"/>
		
			<linearGradient id="SVGID_29_" gradientUnits="userSpaceOnUse" x1="461.6867" y1="-355.4309" x2="464.8457" y2="-355.4309" gradientTransform="matrix(1 0 0 -1 0 204.15)">
			<stop  offset="0" style="stop-color:#004794"/>
			<stop  offset="1" style="stop-color:#001355"/>
		</linearGradient>
		<path class="st118" d="M464.3,560.2h-1.9c-0.4,0-0.6-0.3-0.6-0.6c0-0.4,0.3-0.6,0.6-0.6h1.9c0.4,0,0.6,0.3,0.6,0.6
			S464.6,560.2,464.3,560.2z"/>
	</g>
	<g class="st113">
		
			<linearGradient id="SVGID_30_" gradientUnits="userSpaceOnUse" x1="588.7203" y1="-282.193" x2="598.4667" y2="-282.193" gradientTransform="matrix(1 0 0 -1 0 204.15)">
			<stop  offset="0" style="stop-color:#004794"/>
			<stop  offset="1" style="stop-color:#001355"/>
		</linearGradient>
		<path class="st119" d="M598.1,486.8h-8.9c-0.3,0-0.4-0.2-0.4-0.4c0-0.3,0.2-0.4,0.4-0.4h8.8c0.3,0,0.4,0.2,0.4,0.4
			C598.5,486.6,598.3,486.8,598.1,486.8z"/>
		
			<linearGradient id="SVGID_31_" gradientUnits="userSpaceOnUse" x1="595.7316" y1="-279.066" x2="602.4858" y2="-279.066" gradientTransform="matrix(1 0 0 -1 0 204.15)">
			<stop  offset="0" style="stop-color:#004794"/>
			<stop  offset="1" style="stop-color:#001355"/>
		</linearGradient>
		<path class="st120" d="M602.1,483.6h-5.9c-0.3,0-0.4-0.2-0.4-0.4c0-0.3,0.2-0.4,0.4-0.4h5.9c0.3,0,0.4,0.2,0.4,0.4
			C602.5,483.4,602.3,483.6,602.1,483.6z"/>
		
			<linearGradient id="SVGID_32_" gradientUnits="userSpaceOnUse" x1="617.7384" y1="-278.9966" x2="619.9335" y2="-278.9966" gradientTransform="matrix(1 0 0 -1 0 204.15)">
			<stop  offset="0" style="stop-color:#004794"/>
			<stop  offset="1" style="stop-color:#001355"/>
		</linearGradient>
		<path class="st121" d="M619.5,483.6h-1.3c-0.3,0-0.4-0.2-0.4-0.4c0-0.3,0.2-0.4,0.4-0.4h1.3c0.3,0,0.4,0.2,0.4,0.4
			C620,483.4,619.7,483.6,619.5,483.6z"/>
		
			<linearGradient id="SVGID_33_" gradientUnits="userSpaceOnUse" x1="614.0903" y1="-278.9966" x2="616.2855" y2="-278.9966" gradientTransform="matrix(1 0 0 -1 0 204.15)">
			<stop  offset="0" style="stop-color:#004794"/>
			<stop  offset="1" style="stop-color:#001355"/>
		</linearGradient>
		<path class="st122" d="M615.9,483.6h-1.3c-0.3,0-0.4-0.2-0.4-0.4c0-0.3,0.2-0.4,0.4-0.4h1.3c0.3,0,0.4,0.2,0.4,0.4
			C616.3,483.4,616.1,483.6,615.9,483.6z"/>
		
			<linearGradient id="SVGID_34_" gradientUnits="userSpaceOnUse" x1="604.412" y1="-278.9966" x2="606.6072" y2="-278.9966" gradientTransform="matrix(1 0 0 -1 0 204.15)">
			<stop  offset="0" style="stop-color:#004794"/>
			<stop  offset="1" style="stop-color:#001355"/>
		</linearGradient>
		<path class="st123" d="M606.2,483.6h-1.3c-0.3,0-0.4-0.2-0.4-0.4c0-0.3,0.2-0.4,0.4-0.4h1.3c0.3,0,0.4,0.2,0.4,0.4
			C606.6,483.4,606.4,483.6,606.2,483.6z"/>
	</g>
	<g class="st113">
		
			<linearGradient id="SVGID_35_" gradientUnits="userSpaceOnUse" x1="310.1311" y1="-296.974" x2="319.8775" y2="-296.974" gradientTransform="matrix(1 0 0 -1 0 204.15)">
			<stop  offset="0" style="stop-color:#004794"/>
			<stop  offset="1" style="stop-color:#001355"/>
		</linearGradient>
		<path class="st124" d="M319.5,501.5h-8.9c-0.3,0-0.4-0.2-0.4-0.4c0-0.3,0.2-0.4,0.4-0.4h8.8c0.3,0,0.4,0.2,0.4,0.4
			C319.9,501.4,319.7,501.5,319.5,501.5z"/>
		
			<linearGradient id="SVGID_36_" gradientUnits="userSpaceOnUse" x1="317.1424" y1="-293.8471" x2="323.8966" y2="-293.8471" gradientTransform="matrix(1 0 0 -1 0 204.15)">
			<stop  offset="0" style="stop-color:#004794"/>
			<stop  offset="1" style="stop-color:#001355"/>
		</linearGradient>
		<path class="st125" d="M323.5,498.4h-5.9c-0.3,0-0.4-0.2-0.4-0.4c0-0.3,0.2-0.4,0.4-0.4h5.9c0.3,0,0.4,0.2,0.4,0.4
			C323.9,498.1,323.7,498.4,323.5,498.4z"/>
		
			<linearGradient id="SVGID_37_" gradientUnits="userSpaceOnUse" x1="339.1492" y1="-293.7776" x2="341.3443" y2="-293.7776" gradientTransform="matrix(1 0 0 -1 0 204.15)">
			<stop  offset="0" style="stop-color:#004794"/>
			<stop  offset="1" style="stop-color:#001355"/>
		</linearGradient>
		<path class="st126" d="M340.9,498.3h-1.3c-0.3,0-0.4-0.2-0.4-0.4c0-0.3,0.2-0.4,0.4-0.4h1.3c0.3,0,0.4,0.2,0.4,0.4
			S341.2,498.3,340.9,498.3z"/>
		
			<linearGradient id="SVGID_38_" gradientUnits="userSpaceOnUse" x1="335.5011" y1="-293.7776" x2="337.6962" y2="-293.7776" gradientTransform="matrix(1 0 0 -1 0 204.15)">
			<stop  offset="0" style="stop-color:#004794"/>
			<stop  offset="1" style="stop-color:#001355"/>
		</linearGradient>
		<path class="st127" d="M337.3,498.3h-1.3c-0.3,0-0.4-0.2-0.4-0.4c0-0.3,0.2-0.4,0.4-0.4h1.3c0.3,0,0.4,0.2,0.4,0.4
			S337.5,498.3,337.3,498.3z"/>
		
			<linearGradient id="SVGID_39_" gradientUnits="userSpaceOnUse" x1="325.8228" y1="-293.7776" x2="328.0179" y2="-293.7776" gradientTransform="matrix(1 0 0 -1 0 204.15)">
			<stop  offset="0" style="stop-color:#004794"/>
			<stop  offset="1" style="stop-color:#001355"/>
		</linearGradient>
		<path class="st128" d="M327.6,498.3h-1.3c-0.3,0-0.4-0.2-0.4-0.4c0-0.3,0.2-0.4,0.4-0.4h1.3c0.3,0,0.4,0.2,0.4,0.4
			S327.8,498.3,327.6,498.3z"/>
	</g>
</g>
<g>
	<g class="st0">
		<path class="st1" d="M405.8,106.5h-69.5c-3.9-3.9-2.8-7.2-1.5-9h6.2c2.6,0,4.9-1.8,4.9-4.4v-1.8c0-2.3-2.1-4.4-4.9-4.4h-45.8
			c-2.6,0-4.9,2.1-4.9,4.4v1.8c0,2.3,2.1,4.4,4.9,4.4h5.9c1.3,1.8,2.3,5.1-1.5,9h-17.2v17.7h48.1c3.9,3.9,2.8,7.2,1.5,9h-6.2
			c-2.6,0-4.9,1.8-4.9,4.4v1.8c0,2.3,2.1,4.4,4.9,4.4h45.8c2.6,0,4.9-1.8,4.9-4.4v-1.8c0-2.3-2.1-4.4-4.9-4.4H368
			c-1.3-1.8-2.3-5.1,1.5-9h36.3c4.1,0,7.5-3.3,7.5-7.5V114C413.2,109.9,409.9,106.5,405.8,106.5z"/>
	</g>
	<g>
		<linearGradient id="SVGID_40_" gradientUnits="userSpaceOnUse" x1="203.1935" y1="38.2349" x2="309.7798" y2="38.2349">
			<stop  offset="0" style="stop-color:#E00300"/>
			<stop  offset="0.9896" style="stop-color:#FFD297"/>
		</linearGradient>
		<path class="st129" d="M306.5,28l-95,34.2c-2.6,0.9-5.5-0.4-6.4-3l-1.6-4.3c-0.9-2.6,0.4-5.5,3-6.4l95-34.2c2.6-0.9,5.5,0.4,6.4,3
			l1.6,4.3C310.4,24.2,309.1,27.1,306.5,28z"/>
		<linearGradient id="SVGID_41_" gradientUnits="userSpaceOnUse" x1="256.4866" y1="43.7778" x2="272.8982" y2="43.7778">
			<stop  offset="1.037099e-002" style="stop-color:#E77474"/>
			<stop  offset="1" style="stop-color:#AD4F53"/>
		</linearGradient>
		<path class="st130" d="M267.5,57.7l-1-13.2c1.8-0.4,3.5-1.4,4.7-3c2.8-3.6,2.1-8.8-1.5-11.5c-3.6-2.8-8.8-2.1-11.5,1.5
			c-2.8,3.6-2.1,8.8,1.5,11.5c1.1,0.9,2.4,1.4,3.8,1.6l1,13.3c0.1,0.8,0.8,1.5,1.6,1.4C266.9,59.2,267.6,58.5,267.5,57.7z M260,32.9
			c2-2.6,5.7-3.1,8.3-1.1c2.6,2,3.1,5.7,1.1,8.3c-2,2.6-5.7,3.1-8.3,1.1C258.5,39.2,258,35.5,260,32.9z"/>
		<path class="st13" d="M260.8,65.7l0.9-15.2c0,0,1.6-1.8,2.2-2c0.7-0.2,2.3-0.1,3,0.1c0.7,0.2,2,0.6,2.6,1c0.6,0.3,1.7,1.5,1.8,2.2
			c0.6,4.4-8.6,15.4-8.6,15.4L260.8,65.7z"/>
		<linearGradient id="SVGID_42_" gradientUnits="userSpaceOnUse" x1="256.4866" y1="87.4918" x2="300.5111" y2="87.4918">
			<stop  offset="0" style="stop-color:#E00300"/>
			<stop  offset="0.9896" style="stop-color:#FFD297"/>
		</linearGradient>
		<path class="st131" d="M296.9,70.6c-4.3,2.1-9.9,5.5-15,11.1c-9.2,10.2-11.5,21.9-14.3,21.4c-0.6-0.1-2.4-0.8-2.4-7.6
			c0.1-27.1,2-33.4,2-33.4s-3.1-5.8-6.8-1.2c-4.6,9.3-3.8,44.7-3.8,44.7s5.3,18.8,21.1,5.6c15.9-13.2,22.8-26.8,22.8-26.8
			L296.9,70.6z"/>
		<path class="st13" d="M366.1,151.8c2.8,1.1,7.4,5.6,8.6,8.4c0.2,0.4,0.2,1.5,0,1.9c-0.2,0.5-1.2,0.9-1.7,1.2
			c-0.5,0.3-1.3,1.3-1.8,1.6c-0.5,0.2-1.6,0.7-2.1,0.4c-3.1-1.5-6.4-10-4.8-13.1C364.5,151.8,365.7,151.6,366.1,151.8z"/>
		<path class="st132" d="M321.4,152.7l-39.1,4.8L304.7,288h5.4l-1.5-67.7c0,0,22.9,58.3,23.5,64.9h7c0,0-6-49.1-14.2-64.9
			C316.8,204.5,321.4,152.7,321.4,152.7z"/>
		<path class="st133" d="M312.2,77.9c0,0-13.7-8.7-15.5-7.3c-1.8,1.4-18.2,17.7-18.8,32.1s-0.2,50.6,7.3,60.3
			c7.5,9.7,37.3-1,34.7-14.7c-2.6-13.7-8.1-54.4-8.1-54.4L312.2,77.9z"/>
		<linearGradient id="SVGID_43_" gradientUnits="userSpaceOnUse" x1="294.7796" y1="124.8848" x2="367.6986" y2="124.8848">
			<stop  offset="0" style="stop-color:#E00300"/>
			<stop  offset="0.9896" style="stop-color:#FFD297"/>
		</linearGradient>
		<path class="st134" d="M367.6,152.7c2.2-3.2-36.6-56.2-39.3-59.5c-2.7-3.3-5.4-13.3-14.8-18.5c-9.4-5.1-32,37.9-8,80.5
			c0,0,3.5,8.9,11.7,18c8.2,9.1,14.8-12.3,12.7-17.8c-2.1-5.4-5.4-9.8-4.8-27.9l1.5-14.1l37.2,41.4
			C363.7,154.9,365.8,155.3,367.6,152.7z"/>
		<path class="st13" d="M313.6,73.1c0.3-0.3,2.1-2.6,2.1-2.6l1.4-4l3-12.1l-2.4-8.3l-3.4-0.4c0,0-7.9-2.2-15.3,12.6
			C293.5,69.4,307.7,80.9,313.6,73.1z"/>
		<path class="st135" d="M315.7,67.3c-1-2.1,0.4-7-0.7-9.1c-0.5-1.1-2-1.8-5.1-0.4c-3.1,1.4,11.9-5.7,8-9.9c-0.9-1-4.5-0.7-5.5-1.6
			c-1.1-1.1-0.8-6.5,4.5-4.2c5.2,2.3,10.4,9.2,6.5,18.8C319.5,70.4,316.7,69.4,315.7,67.3z"/>
		<path class="st13" d="M305.9,76.9l3.1-7c0.2-0.5,0-1-0.5-1.2l-6.2-2.8c-0.5-0.2-1,0-1.2,0.5l-3.1,7c-0.2,0.5,0,1,0.5,1.2l6.2,2.8
			C305.1,77.6,305.7,77.4,305.9,76.9z"/>
		<polygon class="st136" points="332,281.1 319.9,285.9 339.2,285.9 338.6,280.5 		"/>
		<polygon class="st136" points="303.8,284.5 291.7,289.4 311,289.4 310.4,284 		"/>
	</g>
	<g>
		<linearGradient id="SVGID_44_" gradientUnits="userSpaceOnUse" x1="416.056" y1="240.6148" x2="416.056" y2="247.505">
			<stop  offset="1.037099e-002" style="stop-color:#E77474"/>
			<stop  offset="0.3577" style="stop-color:#E47273"/>
			<stop  offset="0.5787" style="stop-color:#DC6D6E"/>
			<stop  offset="0.7644" style="stop-color:#CD6365"/>
			<stop  offset="0.9297" style="stop-color:#B85659"/>
			<stop  offset="1" style="stop-color:#AD4F53"/>
		</linearGradient>
		<path class="st137" d="M426.1,244.7c-10-7.7-20,0-20,0C415.5,248.8,426.1,244.7,426.1,244.7z"/>
		<g>
			<path class="st138" d="M421,227c-0.8,0.4-2.2,1.1-3.3,2.5c-1.2,1.5-2.9,4.7-1.5,6.5c0.4,0.5,1,0.8,1.7,1c0.1-0.6,0.2-1.2,0.3-1.8
				c0.4-1.8,0.9-3.5,1.5-5.2c-0.4,1.8-0.8,3.5-1.2,5.2c-0.1,0.6-0.2,1.2-0.4,1.8c0.7,0.1,1.5,0,2.1-0.3
				C422.3,235.7,422.8,231.7,421,227z"/>
			<path class="st139" d="M418.1,237c0,0-2.3,6.8-0.8,10.3"/>
		</g>
		<g>
			<path class="st138" d="M405.2,225.9c1.1,0.3,3,0.9,4.7,2.4c1.9,1.6,4.7,5.3,3.4,7.7c-0.4,0.7-1.1,1.3-1.9,1.6
				c-0.3-0.7-0.5-1.5-0.8-2.2c-0.9-2.1-1.9-4.2-3.1-6.1c0.9,2.1,1.8,4.2,2.7,6.3c0.3,0.7,0.6,1.5,0.9,2.2c-0.9,0.3-1.9,0.4-2.7,0.1
				C405.6,237,404,232.2,405.2,225.9z"/>
			<path class="st139" d="M411.2,237.7c0,0,4.4,8,3.4,12.7"/>
		</g>
		<g>
			<path class="st138" d="M435.7,226.4c-1.2-0.1-3.1-0.1-5.3,0.8c-2.3,1-6.2,3.5-5.7,6.3c0.1,0.8,0.6,1.6,1.3,2.2
				c0.5-0.6,1-1.2,1.5-1.8c1.5-1.7,3.1-3.4,4.9-4.8c-1.5,1.7-3.1,3.4-4.5,5.1c-0.5,0.6-1,1.2-1.5,1.8c0.8,0.6,1.7,0.9,2.5,0.9
				C431.8,236.8,434.8,232.7,435.7,226.4z"/>
			<path class="st139" d="M426.3,235.7c-1,0.7-2.2,1.9-3.3,3.6c-2.2,3.4-2.2,6.9-2.1,8.4"/>
		</g>
		<linearGradient id="SVGID_45_" gradientUnits="userSpaceOnUse" x1="406.0368" y1="253.75" x2="426.0753" y2="253.75">
			<stop  offset="0" style="stop-color:#AD4F53"/>
			<stop  offset="7.032015e-002" style="stop-color:#B85659"/>
			<stop  offset="0.2356" style="stop-color:#CD6365"/>
			<stop  offset="0.4213" style="stop-color:#DC6D6E"/>
			<stop  offset="0.6423" style="stop-color:#E47273"/>
			<stop  offset="0.9896" style="stop-color:#E77474"/>
		</linearGradient>
		<path class="st140" d="M406,244.7v10.6c0,4.1,3.3,7.4,7.4,7.4h5.2c4.1,0,7.4-3.3,7.4-7.4v-10.6c-2.3,0.8-5.7,1.6-9.9,1.6
			C411.9,246.4,408.3,245.5,406,244.7z M426.1,250h-10v-1.5h10V250z"/>
	</g>
	<linearGradient id="SVGID_46_" gradientUnits="userSpaceOnUse" x1="359.7419" y1="48.3178" x2="363.8912" y2="48.3178">
		<stop  offset="0" style="stop-color:#F89D89"/>
		<stop  offset="0.9896" style="stop-color:#FFD297"/>
	</linearGradient>
	<circle class="st141" cx="361.8" cy="48.3" r="2.1"/>
	<linearGradient id="SVGID_47_" gradientUnits="userSpaceOnUse" x1="226.1418" y1="225.2642" x2="230.2911" y2="225.2642">
		<stop  offset="0" style="stop-color:#F89D89"/>
		<stop  offset="0.9896" style="stop-color:#FFD297"/>
	</linearGradient>
	<circle class="st142" cx="228.2" cy="225.3" r="2.1"/>
	<linearGradient id="SVGID_48_" gradientUnits="userSpaceOnUse" x1="314.7545" y1="-14.4392" x2="319.399" y2="-14.4392">
		<stop  offset="0" style="stop-color:#004794"/>
		<stop  offset="1" style="stop-color:#001355"/>
	</linearGradient>
	<circle class="st143" cx="317.1" cy="-14.4" r="1.8"/>
	<linearGradient id="SVGID_49_" gradientUnits="userSpaceOnUse" x1="246.9811" y1="175.4698" x2="252.7281" y2="175.4698">
		<stop  offset="1.037099e-002" style="stop-color:#E77474"/>
		<stop  offset="1" style="stop-color:#AD4F53"/>
	</linearGradient>
	<path class="st144" d="M250.2,173.3l0.6,1.1c0,0.1,0.1,0.1,0.2,0.2l1.1,0.6c0.3,0.2,0.3,0.6,0,0.7l-1.1,0.6c-0.1,0-0.1,0.1-0.2,0.2
		l-0.6,1.1c-0.2,0.3-0.6,0.3-0.7,0l-0.6-1.1c0-0.1-0.1-0.1-0.2-0.2l-1.1-0.6c-0.3-0.2-0.3-0.6,0-0.7l1.1-0.6c0.1,0,0.1-0.1,0.2-0.2
		l0.6-1.1C249.6,173,250.1,173,250.2,173.3z"/>
	<g class="st113">
		
			<linearGradient id="SVGID_50_" gradientUnits="userSpaceOnUse" x1="372.7416" y1="-60.9842" x2="382.488" y2="-60.9842" gradientTransform="matrix(1 0 0 -1 0 204.15)">
			<stop  offset="0" style="stop-color:#004794"/>
			<stop  offset="1" style="stop-color:#001355"/>
		</linearGradient>
		<path class="st145" d="M382.1,265.6h-8.9c-0.3,0-0.4-0.2-0.4-0.4c0-0.3,0.2-0.4,0.4-0.4h8.8c0.3,0,0.4,0.2,0.4,0.4
			C382.5,265.4,382.3,265.6,382.1,265.6z"/>
		
			<linearGradient id="SVGID_51_" gradientUnits="userSpaceOnUse" x1="379.7529" y1="-57.8572" x2="386.5071" y2="-57.8572" gradientTransform="matrix(1 0 0 -1 0 204.15)">
			<stop  offset="0" style="stop-color:#004794"/>
			<stop  offset="1" style="stop-color:#001355"/>
		</linearGradient>
		<path class="st146" d="M386.1,262.4h-5.9c-0.3,0-0.4-0.2-0.4-0.4c0-0.3,0.2-0.4,0.4-0.4h5.9c0.3,0,0.4,0.2,0.4,0.4
			C386.5,262.1,386.3,262.4,386.1,262.4z"/>
		
			<linearGradient id="SVGID_52_" gradientUnits="userSpaceOnUse" x1="401.7597" y1="-57.7877" x2="403.9548" y2="-57.7877" gradientTransform="matrix(1 0 0 -1 0 204.15)">
			<stop  offset="0" style="stop-color:#004794"/>
			<stop  offset="1" style="stop-color:#001355"/>
		</linearGradient>
		<path class="st147" d="M403.6,262.4h-1.3c-0.3,0-0.4-0.2-0.4-0.4c0-0.3,0.2-0.4,0.4-0.4h1.3c0.3,0,0.4,0.2,0.4,0.4
			C404,262.1,403.8,262.4,403.6,262.4z"/>
		
			<linearGradient id="SVGID_53_" gradientUnits="userSpaceOnUse" x1="398.1116" y1="-57.7877" x2="400.3067" y2="-57.7877" gradientTransform="matrix(1 0 0 -1 0 204.15)">
			<stop  offset="0" style="stop-color:#004794"/>
			<stop  offset="1" style="stop-color:#001355"/>
		</linearGradient>
		<path class="st148" d="M399.9,262.4h-1.3c-0.3,0-0.4-0.2-0.4-0.4c0-0.3,0.2-0.4,0.4-0.4h1.3c0.3,0,0.4,0.2,0.4,0.4
			C400.3,262.1,400.2,262.4,399.9,262.4z"/>
		
			<linearGradient id="SVGID_54_" gradientUnits="userSpaceOnUse" x1="388.4333" y1="-57.7877" x2="390.6284" y2="-57.7877" gradientTransform="matrix(1 0 0 -1 0 204.15)">
			<stop  offset="0" style="stop-color:#004794"/>
			<stop  offset="1" style="stop-color:#001355"/>
		</linearGradient>
		<path class="st149" d="M390.2,262.4h-1.3c-0.3,0-0.4-0.2-0.4-0.4c0-0.3,0.2-0.4,0.4-0.4h1.3c0.3,0,0.4,0.2,0.4,0.4
			C390.6,262.1,390.4,262.4,390.2,262.4z"/>
	</g>
	<g class="st113">
		
			<linearGradient id="SVGID_55_" gradientUnits="userSpaceOnUse" x1="269.2137" y1="-98.7665" x2="283.2397" y2="-98.7665" gradientTransform="matrix(1 0 0 -1 0 204.15)">
			<stop  offset="0" style="stop-color:#004794"/>
			<stop  offset="1" style="stop-color:#001355"/>
		</linearGradient>
		<path class="st150" d="M282.7,303.5h-12.8c-0.4,0-0.6-0.3-0.6-0.6c0-0.4,0.3-0.6,0.6-0.6h12.7c0.4,0,0.6,0.3,0.6,0.6
			C283.3,303.3,283,303.5,282.7,303.5z"/>
		
			<linearGradient id="SVGID_56_" gradientUnits="userSpaceOnUse" x1="279.3037" y1="-94.2665" x2="289.0237" y2="-94.2665" gradientTransform="matrix(1 0 0 -1 0 204.15)">
			<stop  offset="0" style="stop-color:#004794"/>
			<stop  offset="1" style="stop-color:#001355"/>
		</linearGradient>
		<path class="st151" d="M288.5,299H280c-0.4,0-0.6-0.3-0.6-0.6c0-0.4,0.3-0.6,0.6-0.6h8.5c0.4,0,0.6,0.3,0.6,0.6
			C289.1,298.6,288.8,299,288.5,299z"/>
		
			<linearGradient id="SVGID_57_" gradientUnits="userSpaceOnUse" x1="310.9737" y1="-94.1665" x2="314.1327" y2="-94.1665" gradientTransform="matrix(1 0 0 -1 0 204.15)">
			<stop  offset="0" style="stop-color:#004794"/>
			<stop  offset="1" style="stop-color:#001355"/>
		</linearGradient>
		<path class="st152" d="M313.6,298.9h-1.9c-0.4,0-0.6-0.3-0.6-0.6c0-0.4,0.3-0.6,0.6-0.6h1.9c0.4,0,0.6,0.3,0.6,0.6
			C314.2,298.6,313.9,298.9,313.6,298.9z"/>
		
			<linearGradient id="SVGID_58_" gradientUnits="userSpaceOnUse" x1="305.7237" y1="-94.1665" x2="308.8827" y2="-94.1665" gradientTransform="matrix(1 0 0 -1 0 204.15)">
			<stop  offset="0" style="stop-color:#004794"/>
			<stop  offset="1" style="stop-color:#001355"/>
		</linearGradient>
		<path class="st153" d="M308.3,298.9h-1.9c-0.4,0-0.6-0.3-0.6-0.6c0-0.4,0.3-0.6,0.6-0.6h1.9c0.4,0,0.6,0.3,0.6,0.6
			C308.9,298.6,308.7,298.9,308.3,298.9z"/>
		
			<linearGradient id="SVGID_59_" gradientUnits="userSpaceOnUse" x1="291.7957" y1="-94.1665" x2="294.9547" y2="-94.1665" gradientTransform="matrix(1 0 0 -1 0 204.15)">
			<stop  offset="0" style="stop-color:#004794"/>
			<stop  offset="1" style="stop-color:#001355"/>
		</linearGradient>
		<path class="st154" d="M294.4,298.9h-1.9c-0.4,0-0.6-0.3-0.6-0.6c0-0.4,0.3-0.6,0.6-0.6h1.9c0.4,0,0.6,0.3,0.6,0.6
			C295,298.6,294.7,298.9,294.4,298.9z"/>
	</g>
</g>
<g>
	<g class="st0">
		<path class="st1" d="M284.5,506H215c-3.9-3.9-2.8-7.2-1.5-9h6.2c2.6,0,4.9-1.8,4.9-4.4v-1.8c0-2.3-2.1-4.4-4.9-4.4h-45.8
			c-2.6,0-4.9,2.1-4.9,4.4v1.8c0,2.3,2.1,4.4,4.9,4.4h5.9c1.3,1.8,2.3,5.1-1.5,9H161v17.7h48.1c3.9,3.9,2.8,7.2,1.5,9h-6.2
			c-2.6,0-4.9,1.8-4.9,4.4v1.8c0,2.3,2.1,4.4,4.9,4.4h45.8c2.6,0,4.9-1.8,4.9-4.4v-1.8c0-2.3-2.1-4.4-4.9-4.4h-3.6
			c-1.3-1.8-2.3-5.1,1.5-9h36.3c4.1,0,7.5-3.3,7.5-7.5v-2.8C291.9,509.3,288.6,506,284.5,506z"/>
	</g>
	<linearGradient id="SVGID_60_" gradientUnits="userSpaceOnUse" x1="137.9664" y1="384.8114" x2="142.1156" y2="384.8114">
		<stop  offset="0" style="stop-color:#F89D89"/>
		<stop  offset="0.9896" style="stop-color:#FFD297"/>
	</linearGradient>
	<circle class="st155" cx="140" cy="384.8" r="2.1"/>
	<linearGradient id="SVGID_61_" gradientUnits="userSpaceOnUse" x1="227.7001" y1="585.2413" x2="231.8494" y2="585.2413">
		<stop  offset="0" style="stop-color:#F89D89"/>
		<stop  offset="0.9896" style="stop-color:#FFD297"/>
	</linearGradient>
	<circle class="st156" cx="229.8" cy="585.2" r="2.1"/>
	<linearGradient id="SVGID_62_" gradientUnits="userSpaceOnUse" x1="215.5604" y1="444.7533" x2="220.2048" y2="444.7533">
		<stop  offset="0" style="stop-color:#004794"/>
		<stop  offset="1" style="stop-color:#001355"/>
	</linearGradient>
	<circle class="st157" cx="217.9" cy="444.8" r="1.8"/>
	<linearGradient id="SVGID_63_" gradientUnits="userSpaceOnUse" x1="66.6916" y1="516.4075" x2="71.336" y2="516.4075">
		<stop  offset="0" style="stop-color:#004794"/>
		<stop  offset="1" style="stop-color:#001355"/>
	</linearGradient>
	<circle class="st158" cx="69" cy="516.4" r="1.8"/>
	<linearGradient id="SVGID_64_" gradientUnits="userSpaceOnUse" x1="112.3331" y1="602.0555" x2="118.0801" y2="602.0555">
		<stop  offset="1.037099e-002" style="stop-color:#E77474"/>
		<stop  offset="1" style="stop-color:#AD4F53"/>
	</linearGradient>
	<path class="st159" d="M115.6,599.9l0.6,1.1c0,0.1,0.1,0.1,0.2,0.2l1.1,0.6c0.3,0.2,0.3,0.6,0,0.7l-1.1,0.6c-0.1,0-0.1,0.1-0.2,0.2
		l-0.6,1.1c-0.2,0.3-0.6,0.3-0.7,0l-0.6-1.1c0-0.1-0.1-0.1-0.2-0.2l-1.1-0.6c-0.3-0.2-0.3-0.6,0-0.7l1.1-0.6c0.1,0,0.1-0.1,0.2-0.2
		l0.6-1.1C115,599.6,115.4,599.6,115.6,599.9z"/>
	<linearGradient id="SVGID_65_" gradientUnits="userSpaceOnUse" x1="93.808" y1="442.931" x2="99.555" y2="442.931">
		<stop  offset="1.037099e-002" style="stop-color:#E77474"/>
		<stop  offset="1" style="stop-color:#AD4F53"/>
	</linearGradient>
	<path class="st160" d="M97,440.8l0.6,1.1c0,0.1,0.1,0.1,0.2,0.2l1.1,0.6c0.3,0.2,0.3,0.6,0,0.7l-1.1,0.6c-0.1,0-0.1,0.1-0.2,0.2
		l-0.6,1.1c-0.2,0.3-0.6,0.3-0.7,0l-0.6-1.1c0-0.1-0.1-0.1-0.2-0.2l-1.1-0.6c-0.3-0.2-0.3-0.6,0-0.7l1.1-0.6c0.1,0,0.1-0.1,0.2-0.2
		l0.6-1.1C96.5,440.5,96.9,440.5,97,440.8z"/>
	<g>
		<g>
			<path class="st161" d="M62.9,469.8c0,0,10.8,9,12.3,15.3l9.3-2.4c0,0-5.4-15.8-15.8-19.4L62.9,469.8z"/>
			<circle class="st162" cx="74.8" cy="475.1" r="3.2"/>
		</g>
		<g>
			<path class="st161" d="M69.1,623.4c0,0,9-0.3,12.3,2.1l3.4-5.1c0,0-9.3-5.2-15.8-2.5L69.1,623.4z"/>
			<circle class="st162" cx="77" cy="620.8" r="2.1"/>
		</g>
		<g>
			<path class="st161" d="M89.1,429.8c0,0,12.5-7.7,19.2-7.1l0.7-10c0,0-17.5,0.1-24.5,9.3L89.1,429.8z"/>
			<circle class="st162" cx="98.3" cy="419.8" r="3.4"/>
		</g>
		<g>
			<path class="st161" d="M19.5,431.9c0,0-5.3,13.8-11.1,17.4l5.5,8.4c0,0,14-10.7,14-22.3L19.5,431.9z"/>
			<circle class="st162" cx="18.2" cy="445.5" r="3.4"/>
		</g>
		<g>
			<path class="st161" d="M57.9,564.6c0,0-3.7-11.6-1.8-16.9l-7.9-2.6c0,0-3.5,14.1,2.5,21.7L57.9,564.6z"/>
			<circle class="st162" cx="51.7" cy="555.1" r="2.8"/>
		</g>
		<g>
			<path class="st161" d="M101.2,572.7c0,0,5.4-10.4,10.7-12.8l-4.3-6.8c0,0-12.8,7.6-13.5,16.5L101.2,572.7z"/>
			<path class="st162" d="M104.2,559.8c1.5,0.5,2.3,2,1.7,3.4c-0.6,1.3-2.3,2-3.8,1.5c-1.5-0.5-2.3-2-1.7-3.4
				C101,559.9,102.7,559.2,104.2,559.8z"/>
		</g>
		<g>
			<path class="st161" d="M13.5,513.1c0,0,11.5-1.1,16.4,1.8l3.2-7.3c0,0-13.2-6.4-21-2.1L13.5,513.1z"/>
			<path class="st162" d="M25.8,508.5c0.4,1.5-0.5,3-1.9,3.2c-1.4,0.2-2.9-0.8-3.3-2.4c-0.4-1.5,0.5-3,1.9-3.2
				C23.9,505.9,25.4,507,25.8,508.5z"/>
		</g>
		<path class="st13" d="M117,479.4l-1.8-12.8c0,0,1-1.8,1.5-2c0.5-0.3,1.9-0.5,2.5-0.4c0.6,0,1.7,0.2,2.3,0.4c0.5,0.2,1.7,1,1.8,1.5
			c1.2,3.5-4.6,14.1-4.6,14.1L117,479.4z"/>
		<path class="st13" d="M168.9,424.6c0,0-10,19.7,0.9,29.9c0,0-1.4,16.9,0,18.4c1.4,1.6,12,0,12,0V455l4.2-4.2l3-7.6
			c0,0,0.7-3.3,0.8-5.3c0.1-2,1.6-6.6,0-8C188.3,428.4,168.9,424.6,168.9,424.6z"/>
		<path class="st16" d="M185.1,430.6c0,0-30.2-1.8-18.3-12.3c11.9-10.5,29.8,0.4,28.1,12.3c-1.8,11.9-9.5,23.9-10.4,22.6
			c-0.9-1.3,5.8-11.8,2.5-15.1C183.7,434.7,183.3,433.1,185.1,430.6z"/>
		<linearGradient id="SVGID_66_" gradientUnits="userSpaceOnUse" x1="115.2066" y1="504.6802" x2="201.6904" y2="504.6802">
			<stop  offset="0" style="stop-color:#F89D89"/>
			<stop  offset="0.9896" style="stop-color:#FFD297"/>
		</linearGradient>
		<path class="st163" d="M201.7,503.9c-0.2-13.5,0-31.7-3.5-35.8c-0.4-0.5-0.9-0.9-1.5-1.3c-3.8-2.9-10.6-4-27.6-4.4
			c-11.5-0.3-17.9,6.9-21.2,12.8c-2.3,4.1-3.1,7.6-3.1,7.6c-4.2,32.6-12.1,26.5-14.6,23.5c-2.4-3-5.4-29.3-5.4-29.3
			c-7.2-7.4-9.6,0.4-9.6,0.4s1.4,34.4,12.6,45.3c7.6,7.4,15.7-2.7,20.1-9.9c2.1-3.5,3.4-6.3,3.4-6.3l-2.5,36.7l49.3,4
			C199.1,535.4,201.9,520.5,201.7,503.9z"/>
		<linearGradient id="SVGID_67_" gradientUnits="userSpaceOnUse" x1="117.4781" y1="472.1715" x2="158.4546" y2="472.1715">
			<stop  offset="0" style="stop-color:#004794"/>
			<stop  offset="1" style="stop-color:#001355"/>
		</linearGradient>
		<path class="st164" d="M118.4,458.1c0.9-4.5,37.6,0,37.6,0s2.5,8.2,2.5,29.5c-7.2,0.5-14.9,0.7-23,0.6c-5.9-0.1-11.6-0.3-17-0.6
			C116.9,467.3,117.5,462.9,118.4,458.1z"/>
		<path class="st13" d="M167.1,491.3l-12.4-3.4c0,0-1.2-1.6-1.3-2.2c0-0.6,0.3-1.9,0.6-2.4c0.3-0.5,0.9-1.5,1.3-1.9
			c0.4-0.4,1.6-1.1,2.1-1.1c3.7,0.3,11.2,9.8,11.2,9.8L167.1,491.3z"/>
		
			<linearGradient id="SVGID_68_" gradientUnits="userSpaceOnUse" x1="86.2311" y1="503.7791" x2="123.4332" y2="503.7791" gradientTransform="matrix(0.9364 -0.3509 0.3509 0.9364 -94.3735 55.6392)">
			<stop  offset="0" style="stop-color:#F89D89"/>
			<stop  offset="0.9896" style="stop-color:#FFD297"/>
		</linearGradient>
		<path class="st165" d="M201.1,492.2c-1.6,8.3-5.7,20.6-15.4,16.3c-9.5-4.1-17.5-10.8-24.8-18c-1.3-1.2-0.3-3.8,0.9-4.8
			c2.1-1.8,5.3-0.6,7.4,0.4c0,0,11.8,9.3,15.1,11.3c3.3,1.9,10.9-0.1,3.4-32.1"/>
		<polygon class="st166" points="199.1,552.8 190.3,670 183.6,670.5 177.1,553.8 169.9,554.1 165.7,671 159.5,670.6 150,555.1 
			148.7,540.7 198.7,541.3 		"/>
		<polygon class="st167" points="165.7,670.9 165.7,676.4 141.5,677.5 141.5,672.5 159.5,670.3 		"/>
		<polygon class="st167" points="189.9,669.9 207.9,672.1 207.9,677.1 183.6,676 183.6,670.5 		"/>
	</g>
	<g class="st113">
		
			<linearGradient id="SVGID_69_" gradientUnits="userSpaceOnUse" x1="262.804" y1="-444.7633" x2="272.5503" y2="-444.7633" gradientTransform="matrix(1 0 0 -1 0 204.15)">
			<stop  offset="0" style="stop-color:#004794"/>
			<stop  offset="1" style="stop-color:#001355"/>
		</linearGradient>
		<path class="st168" d="M272.1,649.3h-8.9c-0.3,0-0.4-0.2-0.4-0.4c0-0.3,0.2-0.4,0.4-0.4h8.8c0.3,0,0.4,0.2,0.4,0.4
			C272.6,649.2,272.4,649.3,272.1,649.3z"/>
		
			<linearGradient id="SVGID_70_" gradientUnits="userSpaceOnUse" x1="269.8153" y1="-441.6364" x2="276.5695" y2="-441.6364" gradientTransform="matrix(1 0 0 -1 0 204.15)">
			<stop  offset="0" style="stop-color:#004794"/>
			<stop  offset="1" style="stop-color:#001355"/>
		</linearGradient>
		<path class="st169" d="M276.2,646.2h-5.9c-0.3,0-0.4-0.2-0.4-0.4c0-0.3,0.2-0.4,0.4-0.4h5.9c0.3,0,0.4,0.2,0.4,0.4
			C276.6,645.9,276.4,646.2,276.2,646.2z"/>
		
			<linearGradient id="SVGID_71_" gradientUnits="userSpaceOnUse" x1="291.8221" y1="-441.5669" x2="294.0172" y2="-441.5669" gradientTransform="matrix(1 0 0 -1 0 204.15)">
			<stop  offset="0" style="stop-color:#004794"/>
			<stop  offset="1" style="stop-color:#001355"/>
		</linearGradient>
		<path class="st170" d="M293.6,646.1h-1.3c-0.3,0-0.4-0.2-0.4-0.4c0-0.3,0.2-0.4,0.4-0.4h1.3c0.3,0,0.4,0.2,0.4,0.4
			C294,645.9,293.8,646.1,293.6,646.1z"/>
		
			<linearGradient id="SVGID_72_" gradientUnits="userSpaceOnUse" x1="288.1739" y1="-441.5669" x2="290.3691" y2="-441.5669" gradientTransform="matrix(1 0 0 -1 0 204.15)">
			<stop  offset="0" style="stop-color:#004794"/>
			<stop  offset="1" style="stop-color:#001355"/>
		</linearGradient>
		<path class="st171" d="M289.9,646.1h-1.3c-0.3,0-0.4-0.2-0.4-0.4c0-0.3,0.2-0.4,0.4-0.4h1.3c0.3,0,0.4,0.2,0.4,0.4
			C290.4,645.9,290.2,646.1,289.9,646.1z"/>
		
			<linearGradient id="SVGID_73_" gradientUnits="userSpaceOnUse" x1="278.4957" y1="-441.5669" x2="280.6908" y2="-441.5669" gradientTransform="matrix(1 0 0 -1 0 204.15)">
			<stop  offset="0" style="stop-color:#004794"/>
			<stop  offset="1" style="stop-color:#001355"/>
		</linearGradient>
		<path class="st172" d="M280.3,646.1H279c-0.3,0-0.4-0.2-0.4-0.4c0-0.3,0.2-0.4,0.4-0.4h1.3c0.3,0,0.4,0.2,0.4,0.4
			C280.7,645.9,280.5,646.1,280.3,646.1z"/>
	</g>
	<g class="st113">
		
			<linearGradient id="SVGID_74_" gradientUnits="userSpaceOnUse" x1="118.954" y1="-485.4073" x2="132.9799" y2="-485.4073" gradientTransform="matrix(1 0 0 -1 0 204.15)">
			<stop  offset="0" style="stop-color:#004794"/>
			<stop  offset="1" style="stop-color:#001355"/>
		</linearGradient>
		<path class="st173" d="M132.4,690.2h-12.8c-0.4,0-0.6-0.3-0.6-0.6c0-0.4,0.3-0.6,0.6-0.6h12.7c0.4,0,0.6,0.3,0.6,0.6
			C133,690,132.7,690.2,132.4,690.2z"/>
		
			<linearGradient id="SVGID_75_" gradientUnits="userSpaceOnUse" x1="129.0439" y1="-480.9073" x2="138.7639" y2="-480.9073" gradientTransform="matrix(1 0 0 -1 0 204.15)">
			<stop  offset="0" style="stop-color:#004794"/>
			<stop  offset="1" style="stop-color:#001355"/>
		</linearGradient>
		<path class="st174" d="M138.2,685.7h-8.5c-0.4,0-0.6-0.3-0.6-0.6c0-0.4,0.3-0.6,0.6-0.6h8.5c0.4,0,0.6,0.3,0.6,0.6
			C138.8,685.3,138.5,685.7,138.2,685.7z"/>
		
			<linearGradient id="SVGID_76_" gradientUnits="userSpaceOnUse" x1="160.7139" y1="-480.8073" x2="163.873" y2="-480.8073" gradientTransform="matrix(1 0 0 -1 0 204.15)">
			<stop  offset="0" style="stop-color:#004794"/>
			<stop  offset="1" style="stop-color:#001355"/>
		</linearGradient>
		<path class="st175" d="M163.3,685.6h-1.9c-0.4,0-0.6-0.3-0.6-0.6c0-0.4,0.3-0.6,0.6-0.6h1.9c0.4,0,0.6,0.3,0.6,0.6
			S163.6,685.6,163.3,685.6z"/>
		
			<linearGradient id="SVGID_77_" gradientUnits="userSpaceOnUse" x1="155.4639" y1="-480.8073" x2="158.623" y2="-480.8073" gradientTransform="matrix(1 0 0 -1 0 204.15)">
			<stop  offset="0" style="stop-color:#004794"/>
			<stop  offset="1" style="stop-color:#001355"/>
		</linearGradient>
		<path class="st176" d="M158,685.6h-1.9c-0.4,0-0.6-0.3-0.6-0.6c0-0.4,0.3-0.6,0.6-0.6h1.9c0.4,0,0.6,0.3,0.6,0.6
			S158.4,685.6,158,685.6z"/>
		
			<linearGradient id="SVGID_78_" gradientUnits="userSpaceOnUse" x1="141.5359" y1="-480.8073" x2="144.6949" y2="-480.8073" gradientTransform="matrix(1 0 0 -1 0 204.15)">
			<stop  offset="0" style="stop-color:#004794"/>
			<stop  offset="1" style="stop-color:#001355"/>
		</linearGradient>
		<path class="st177" d="M144.1,685.6h-1.9c-0.4,0-0.6-0.3-0.6-0.6c0-0.4,0.3-0.6,0.6-0.6h1.9c0.4,0,0.6,0.3,0.6,0.6
			S144.4,685.6,144.1,685.6z"/>
	</g>
	<g>
		<path class="st178" d="M267.9,630.1c-9.6-7.3-19.1,0-19.1,0C257.7,634,267.9,630.1,267.9,630.1z"/>
		<path class="st179" d="M273.7,619c0-0.2-0.2-2.7-0.8-2.1c-0.7,0.6-3.1,1.4-4.4,2.1c-1.3,0.6-2.1,1.5-2.4,2.9
			c-0.4,1.7-1.7,1.5-3.2,2.3c-1.6,0.7-1.8,1.9-2.3,4.1c0,0,0,2.1,0.5,2.5c0.2,0.2,0.6,0.5,1,0.8c0.5-1,1.1-2,1.7-3
			c0.7-1.1,1.5-2.2,2.4-3.3c0.9-1,1.8-2.1,2.7-3c-1.6,2.2-3.2,4.3-4.7,6.6c-0.6,1-1.2,2-1.8,3c0.5,0.3,1,0.5,1.6,0.7
			c1.4,0.3,3.3-1.6,3.9-2.7c0.8-1.5,0.7-3.4,1.6-4.9c0.6-0.9,2-0.5,2.8-1.4C273.4,622.2,273.7,620.5,273.7,619z"/>
		<path class="st179" d="M241.7,616.4c0-0.3,0.1-3.3,0.9-2.6c0.9,0.7,3.7,1.9,5.3,2.7c1.5,0.8,2.5,1.9,3,3.7c0.5,2.1,2,2,3.9,2.9
			c1.9,0.9,2.2,2.5,2.8,5.1c0,0,0.1,2.6-0.5,3.1c-0.3,0.2-0.7,0.6-1.2,0.9c-0.6-1.3-1.4-2.6-2.1-3.8c-0.9-1.4-1.9-2.8-3-4.1
			c-1.1-1.3-2.2-2.6-3.4-3.8c2,2.7,4,5.5,5.8,8.3c0.8,1.2,1.5,2.5,2.2,3.7c-0.5,0.3-1.2,0.6-1.9,0.7c-1.7,0.3-4-2.1-4.8-3.5
			c-1-1.9-1-4.3-2.1-6.1c-0.7-1.2-2.4-0.8-3.4-1.9C242.2,620.4,241.7,618.3,241.7,616.4z"/>
		<path class="st180" d="M248.7,630.1v10.2c0,3.9,3.2,7.1,7.1,7.1h5c3.9,0,7.1-3.2,7.1-7.1v-10.2c-2.2,0.7-5.4,1.5-9.4,1.5
			C254.3,631.6,250.9,630.8,248.7,630.1z"/>
		<path class="st179" d="M265.2,600.7c-0.2-0.4-2.8-4.2-3.3-2.7c-0.7,1.6-3.8,5.2-5.4,7.4c-1.5,2.2-2.1,4.3-1.3,6.9
			c0.9,3.1-1.3,4-3.2,6.7s-1.2,4.8,0,8.7c0,0,1.9,3.5,3.1,3.7c0.5,0.1,2.3-4,2.4-6.2c0.2-2.5,0.5-5.1,1-7.6c0.5-2.5,1-5,1.8-7.4
			c-0.7,5-1.3,10-1.7,15.1c-0.1,2.2-0.2,4.3-0.2,6.5c1,0,2.1,0,3.3-0.4c2.6-0.9,4-5.6,3.9-8.1c0-3.2-2-6.2-1.9-9.4
			c0.1-2.1,2.8-2.7,3.3-4.9C267.6,606.2,266.6,603.1,265.2,600.7z"/>
	</g>
</g>
</svg>
