<?xml version="1.0" encoding="utf-8"?>
<!-- Generator: Adobe Illustrator 21.0.2, SVG Export Plug-In . SVG Version: 6.00 Build 0)  -->
<svg version="1.1" id="Layer_1" xmlns="http://www.w3.org/2000/svg" xmlns:xlink="http://www.w3.org/1999/xlink" x="0px" y="0px"
	 viewBox="0 0 1400 300" style="enable-background:new 0 0 1400 300;" xml:space="preserve">
<style type="text/css">
	.st0{fill:#808080;}
</style>
<g>
	<path class="st0" d="M682.6,247.4l8.9,1.9c0.1,0,0.1,0,0.2,0c0.2,0,0.5-0.1,0.7-0.2c0.2-0.2,0.4-0.5,0.4-0.8v-27.4
		c0-0.5-0.3-0.9-0.8-1l-8.9-1.9c-0.3-0.1-0.6,0-0.9,0.2c-0.2,0.2-0.4,0.5-0.4,0.8v27.4C681.8,246.9,682.2,247.3,682.6,247.4z
		 M683.9,220.2l6.8,1.5V247l-6.8-1.5V220.2z M529.9,249.3c0.1,0,0.1,0,0.2,0l8.9-1.9c0.5-0.1,0.8-0.5,0.8-1v-27.4
		c0-0.3-0.1-0.6-0.4-0.8c-0.2-0.2-0.6-0.3-0.9-0.2l-8.9,1.9c-0.5,0.1-0.8,0.5-0.8,1v27.4c0,0.3,0.1,0.6,0.4,0.8
		C529.5,249.3,529.7,249.3,529.9,249.3z M531,221.7l6.8-1.5v25.3L531,247V221.7z M787.5,243v-5.2c0-0.6-0.5-1-1-1h-2.1l-1-31.4h1.3
		c0.6,0,1-0.5,1-1v-5.2c0-0.6-0.5-1-1-1h-1.5l-1-32.1h2.5c0.6,0,1-0.5,1-1v-5.2c0-0.6-0.5-1-1-1H782v-9.2h2.6c0.6,0,1-0.5,1-1
		s-0.5-1-1-1h-2c1.2-3.2,0.2-6.8-2.6-9l-5-4v-9.3c0-0.6-0.5-1-1-1c-0.6,0-1,0.5-1,1v9.3l-5,4c-2.7,2.2-3.7,5.8-2.6,9h-2
		c-0.6,0-1,0.5-1,1s0.5,1,1,1h2.6v9.2h-2.6c-0.6,0-1,0.5-1,1v5.2c0,0.6,0.5,1,1,1h2.5l-1,32.1h-1.5c-0.6,0-1,0.5-1,1v5.2
		c0,0.6,0.5,1,1,1h1.3l-1,31.4h-2.1c-0.6,0-1,0.5-1,1v5.2c0,0.6,0.5,1,1,1h1.9l-1,32.1h-44.9l-0.6-17.7h0.6c0.6,0,1-0.5,1-1v-3
		c0-0.6-0.5-1-1-1h-0.8l-0.6-17.3h0.3c0.6,0,1-0.5,1-1v-3c0-0.6-0.5-1-1-1h-0.4l-0.6-17.7h1c0.6,0,1-0.5,1-1v-3c0-0.6-0.5-1-1-1
		h-1.1v-4.5h1.1c0.6,0,1-0.5,1-1c0-0.6-0.5-1-1-1h-0.6c0.4-1.9-0.2-3.9-1.8-5.1l-2.7-2.2v-5.2c0-0.6-0.5-1-1-1c-0.6,0-1,0.5-1,1v5.2
		l-2.7,2.2c-1.6,1.2-2.2,3.2-1.8,5.1h-0.6c-0.6,0-1,0.5-1,1c0,0.6,0.5,1,1,1h1.1v4.5h-1.1c-0.6,0-1,0.5-1,1v3c0,0.6,0.5,1,1,1h1
		l-0.6,17.7h-0.4c-0.6,0-1,0.5-1,1v3c0,0.6,0.5,1,1,1h0.3l-0.6,17.3h-0.8c-0.6,0-1,0.5-1,1v3c0,0.6,0.5,1,1,1h0.6l-0.6,17.7H698
		v-63.5c0-0.5-0.3-0.9-0.8-1l-4.6-1v-7.5c0-0.6-0.5-1-1-1h-5.3c-0.3,0-0.6,0.1-0.8,0.3l-5.1,5.5l-2.5-0.5c0,0,0,0,0,0
		c-0.1,0-0.1,0-0.2,0h-4.2v-10.2l0.7-1.4c2.7-6,1-13-4.1-17l-9.7-7.7v-10.8c0-0.6-0.5-1-1-1c-0.6,0-1,0.5-1,1v10.8l-5.9,4.7
		c0.6-11.4-4.3-22.7-13.7-30.2l-26.7-21.2V109c0-0.6-0.5-1-1-1c-0.6,0-1,0.5-1,1v15.2l-26.7,21.2c-9.4,7.5-14.2,18.8-13.7,30.2
		l-5.9-4.7v-10.8c0-0.6-0.5-1-1-1c-0.6,0-1,0.5-1,1v10.8l-9.7,7.7c-5.1,4.1-6.8,11.1-4.1,17l0.7,1.4v10.2h-4.2c-0.1,0-0.1,0-0.2,0
		c0,0,0,0,0,0l-2.5,0.5l-5.1-5.5c-0.2-0.2-0.5-0.3-0.8-0.3h-5.3c-0.6,0-1,0.5-1,1v7.5l-4.6,1c-0.5,0.1-0.8,0.5-0.8,1v63.5h-5.2
		l-0.6-17.7h0.6c0.6,0,1-0.5,1-1v-3c0-0.6-0.5-1-1-1h-0.8l-0.6-17.3h0.3c0.6,0,1-0.5,1-1v-3c0-0.6-0.5-1-1-1H517l-0.6-17.7h1
		c0.6,0,1-0.5,1-1v-3c0-0.6-0.5-1-1-1h-1.1v-4.5h1.1c0.6,0,1-0.5,1-1c0-0.6-0.5-1-1-1h-0.6c0.4-1.9-0.2-3.9-1.8-5.1l-2.7-2.2v-5.2
		c0-0.6-0.5-1-1-1c-0.6,0-1,0.5-1,1v5.2l-2.7,2.2c-1.6,1.2-2.2,3.2-1.8,5.1h-0.6c-0.6,0-1,0.5-1,1c0,0.6,0.5,1,1,1h1.1v4.5h-1.1
		c-0.6,0-1,0.5-1,1v3c0,0.6,0.5,1,1,1h1l-0.6,17.7h-0.4c-0.6,0-1,0.5-1,1v3c0,0.6,0.5,1,1,1h0.3l-0.6,17.3h-0.8c-0.6,0-1,0.5-1,1v3
		c0,0.6,0.5,1,1,1h0.6l-0.6,17.7h-44.9l-1-32.1h1.9c0.6,0,1-0.5,1-1v-5.2c0-0.6-0.5-1-1-1H458l-1-31.4h1.3c0.6,0,1-0.5,1-1v-5.2
		c0-0.6-0.5-1-1-1h-1.5l-1-32.1h2.5c0.6,0,1-0.5,1-1v-5.2c0-0.6-0.5-1-1-1h-2.6v-9.2h2.6c0.6,0,1-0.5,1-1s-0.5-1-1-1h-2
		c1.2-3.2,0.2-6.8-2.6-9l-5-4v-9.3c0-0.6-0.5-1-1-1s-1,0.5-1,1v9.3l-5,4c-2.7,2.2-3.7,5.8-2.6,9h-2c-0.6,0-1,0.5-1,1s0.5,1,1,1h2.6
		v9.2h-2.6c-0.6,0-1,0.5-1,1v5.2c0,0.6,0.5,1,1,1h2.5l-1,32.1h-1.5c-0.6,0-1,0.5-1,1v5.2c0,0.6,0.5,1,1,1h1.3l-1,31.4h-2.1
		c-0.6,0-1,0.5-1,1v5.2c0,0.6,0.5,1,1,1h1.9l-1,32.1h-0.9c-0.6,0-1,0.5-1,1v22.3c0,0.6,0.5,1,1,1h351.3c0.6,0,1-0.5,1-1v-22.3
		c0-0.6-0.5-1-1-1h-0.9l-1-32.1h1.9C787.1,244,787.5,243.5,787.5,243z M769.3,140l4.7-3.7l4.7,3.7c2.1,1.7,2.8,4.6,1.7,7.1l-0.1,0.3
		h-12.6l-0.1-0.3C766.5,144.6,767.2,141.7,769.3,140z M779.9,149.5v9.2h-11.8v-9.2H779.9z M764.5,163.9v-3.1h19.1v3.1H764.5z
		 M781,198.1h-14l1-32.1H780L781,198.1z M764.5,203.2v-3.1h19.1v3.1H764.5z M782.3,236.7h-16.5l1-31.4h14.5L782.3,236.7z
		 M707.9,198.1l2.5-2l2.5,2c1,0.8,1.4,2.2,0.9,3.5H707C706.5,200.3,706.9,198.9,707.9,198.1z M713.4,203.6v4.5h-6v-4.5H713.4z
		 M705.3,210.2h10.2v0.9h-10.2V210.2z M714,230.9h-7.2l0.6-17.7h6L714,230.9z M705.3,233h10.2v0.9h-10.2V233z M714.7,253.3h-8.6
		l0.6-17.3h7.5L714.7,253.3z M704.2,255.4h12.4v0.9h-12.4V255.4z M715.4,276.1h-10.1l0.6-17.7h9L715.4,276.1z M682.7,208.5l4-4.3
		h3.8v6L682.7,208.5L682.7,208.5z M678.7,209.7l1.8,0.4l0,0l10.8,2.3l0,0l4.6,1v1.9l-17.3-3.7V209.7z M678.7,213.7l17.3,3.7v58.6
		h-3.1v-23.5c0-0.5-0.3-0.9-0.8-1l-8.9-1.9c-0.3-0.1-0.6,0-0.9,0.2c-0.2,0.2-0.4,0.5-0.4,0.8v25.4h-3.1V213.7z M690.7,253.5v22.6
		h-6.8V252L690.7,253.5z M676.6,209.5v1.9h-29.5v-1.9H676.6z M672.4,216.6h-21.1c-0.6,0-1,0.5-1,1v11c0,0,0,0,0,0v20.8c0,0,0,0,0,0
		v11c0,0,0,0,0,0v15.5h-3.1v-62.6h29.5v62.6h-3.1v-58.4C673.4,217.1,673,216.6,672.4,216.6z M656.6,253.5l5.2-2.7l5.2,2.7
		c2.7,1.4,4.3,4.1,4.3,7.1v15.5h-19v-15.5c0,0,0,0,0,0C652.4,257.6,654,254.9,656.6,253.5z M652.3,254.5v-3.8h5.3l-1.9,1
		C654.3,252.4,653.2,253.3,652.3,254.5z M668,251.7l-1.9-1h5.3v3.8C670.5,253.3,669.4,252.4,668,251.7z M652.3,248.5v-2.2h19v2.2
		H652.3z M652.3,244.2v-15.5c0,0,0,0,0,0c0-3,1.7-5.7,4.3-7.1l5.2-2.7l5.2,2.7c2.7,1.4,4.3,4.1,4.3,7.1v15.5H652.3z M652.3,222.6
		v-3.8h5.3l-1.9,1C654.3,220.4,653.2,221.4,652.3,222.6z M668,219.8l-1.9-1h5.3v3.8C670.5,221.4,669.4,220.4,668,219.8z
		 M647.1,207.4V198h24.2v9.4H647.1z M659.2,172.8l9.5,7.5c4.4,3.5,5.8,9.4,3.5,14.5l-0.5,1h-24.6v-2.7l1.9-4.2
		c1.5-3.4,2.5-6.9,3-10.4L659.2,172.8z M584.4,147.1l26.4-21l26.4,21c9.3,7.4,13.9,18.9,12.7,30.3c-0.1,0.5-0.1,1-0.2,1.5
		c-0.1,0.5-0.2,1-0.3,1.6c-0.5,2.6-1.3,5.1-2.4,7.6l-1.7,3.8h-69.1l-1.7-3.8c-1.1-2.5-1.9-5-2.4-7.6c-0.1-0.5-0.2-1-0.3-1.6
		c-0.1-0.5-0.1-1-0.2-1.5C570.5,166.1,575.1,154.6,584.4,147.1z M640.8,201.1h-60c-0.6,0-1,0.5-1,1v73.9h-3.1V198H645v78.1h-3.1
		v-73.9C641.9,201.6,641.4,201.1,640.8,201.1z M635.6,206.3h-49.5c-0.6,0-1,0.5-1,1v68.7h-3.1v-72.9h57.9v72.9h-3.1v-68.7
		C636.7,206.8,636.2,206.3,635.6,206.3z M624.7,218.6l-13.4-7c-0.3-0.2-0.7-0.2-1,0l-13.4,7c-4.4,2.3-7.8,6-9.9,10.4v-20.5h47.4
		v20.5C632.5,224.6,629.1,220.9,624.7,218.6z M634.6,238.4v37.7h-47.4v-37.7c0-7.6,4.2-14.5,10.8-18l12.9-6.8l12.9,6.8
		C630.4,223.9,634.6,230.8,634.6,238.4z M576.7,195.9V194H645v1.9H576.7z M553,180.3l9.5-7.5l7.2,5.8c0.5,3.5,1.4,7,3,10.4l1.9,4.2
		v2.7H550l-0.5-1C547.2,189.8,548.6,183.8,553,180.3z M574.6,198v9.4h-24.2V198H574.6z M545.1,209.5h29.5v1.9h-29.5V209.5z
		 M545.1,213.5h29.5v62.6h-3.1v-58.4c0-0.6-0.5-1-1-1h-21.1c-0.6,0-1,0.5-1,1v58.4h-3.1V213.5z M554.6,253.5l5.2-2.7l5.2,2.7
		c2.7,1.4,4.3,4.1,4.3,7.1v15.5h-19v-15.5C550.3,257.6,552,254.9,554.6,253.5z M550.3,254.5v-3.8h5.3l-1.9,1
		C552.3,252.4,551.2,253.3,550.3,254.5z M566,251.7l-1.9-1h5.3v3.8C568.5,253.3,567.3,252.4,566,251.7z M550.3,248.5v-2.2h19v2.2
		H550.3z M550.3,244.2v-15.5c0-3,1.6-5.7,4.3-7.1l5.2-2.7l5.2,2.7c2.7,1.4,4.3,4.1,4.3,7.1v15.5H550.3z M550.3,222.6v-3.8h5.3
		l-1.9,1C552.3,220.4,551.2,221.4,550.3,222.6z M566,219.8l-1.9-1h5.3v3.8C568.5,221.4,567.3,220.4,566,219.8z M531.2,204.2h3.8
		l4,4.3l0,0l-7.8,1.7V204.2z M525.8,213.5l4.6-1h0l5.7-1.2l6.9-1.5v1.9l-17.3,3.7V213.5z M525.8,217.5l17.3-3.7v62.3h-3.1v-25.4
		c0-0.3-0.1-0.6-0.4-0.8c-0.2-0.2-0.6-0.3-0.9-0.2l-8.9,1.9c-0.5,0.1-0.8,0.5-0.8,1v23.5h-3.1V217.5z M537.8,252v24.1H531v-22.6
		L537.8,252z M508.9,198.1l2.5-2l2.5,2c1,0.8,1.4,2.2,0.9,3.5h-6.7C507.4,200.3,507.8,198.9,508.9,198.1z M514.3,203.6v4.5h-6v-4.5
		H514.3z M506.2,210.2h10.2v0.9h-10.2V210.2z M514.9,230.9h-7.2l0.6-17.7h6L514.9,230.9z M506.2,233h10.2v0.9h-10.2V233z
		 M515.6,253.3H507l0.6-17.3h7.5L515.6,253.3z M505.1,255.4h12.4v0.9h-12.4V255.4z M516.4,276.1h-10.1l0.6-17.7h9L516.4,276.1z
		 M443,140l4.7-3.7l4.7,3.7c2.1,1.7,2.8,4.6,1.7,7.1l-0.1,0.3h-12.6l-0.1-0.3C440.1,144.6,440.8,141.7,443,140z M453.6,149.5v9.2
		h-11.8v-9.2H453.6z M438.1,163.9v-3.1h19.1v3.1H438.1z M454.7,198.1h-14l1-32.1h11.9L454.7,198.1z M438.1,203.2v-3.1h19.1v3.1
		H438.1z M455.9,236.7h-16.5l1-31.4h14.5L455.9,236.7z M436.3,241.9v-3.1h22.8v3.1H436.3z M457.2,276.1h-19l1-32.1h17L457.2,276.1z
		 M785.4,278.2v20.2H436.3v-20.2H785.4z M764.5,276.1l1-32.1h17l1,32.1H764.5z M785.4,241.9h-22.8v-3.1h22.8V241.9z"/>
</g>
<g>
	<path class="st0" d="M419.4,201.9c0-0.1,0.1-0.1,0.1-0.2c0,0,0,0,0,0c0-0.1,0-0.1,0.1-0.2c0,0,0,0,0-0.1c0,0,0-0.1,0-0.1v-9.6
		c0-0.5-0.4-0.9-0.8-0.9h-5.6l-3-51l4-5.7c0,0,0,0,0,0c0-0.1,0.1-0.1,0.1-0.2c0,0,0,0,0,0c0-0.1,0-0.1,0.1-0.2c0,0,0,0,0-0.1
		c0,0,0-0.1,0-0.1v-7.7c0-0.5-0.4-0.9-0.8-0.9h-4.2l-2.2-36.8l3.1-4.5c0,0,0,0,0,0c0-0.1,0.1-0.1,0.1-0.2c0,0,0,0,0,0
		c0-0.1,0-0.1,0-0.2c0,0,0,0,0-0.1c0,0,0,0,0-0.1v-6.2c0-0.5-0.4-0.9-0.8-0.9h-3.2L405,50.4l2.2-3.8c0,0,0,0,0,0
		c0-0.1,0.1-0.1,0.1-0.2c0,0,0,0,0-0.1c0-0.1,0-0.1,0-0.2c0,0,0,0,0-0.1c0,0,0,0,0,0V41c0-0.5-0.4-0.9-0.8-0.9h-2.2l-1.7-28.7h0.8
		c0.4,0,0.8-0.4,0.8-0.9V3.9c0-0.5-0.4-0.9-0.8-0.9h-21.3c-0.4,0-0.8,0.4-0.8,0.9v6.4c0,0.5,0.4,0.9,0.8,0.9h0.8L381.3,40h-2.2
		c-0.4,0-0.8,0.4-0.8,0.9v5.1c0,0,0,0,0,0c0,0,0,0,0,0.1c0,0.1,0,0.1,0,0.2c0,0,0,0,0,0.1c0,0.1,0.1,0.1,0.1,0.2c0,0,0,0,0,0
		l2.2,3.8l-1.5,25.5H376c-0.4,0-0.8,0.4-0.8,0.9V83c0,0,0,0,0,0.1c0,0,0,0,0,0.1c0,0.1,0,0.1,0,0.2c0,0,0,0,0,0
		c0,0.1,0.1,0.1,0.1,0.2c0,0,0,0,0,0l3.1,4.5l-2.2,36.8H372c-0.4,0-0.8,0.4-0.8,0.9v7.7c0,0,0,0.1,0,0.1c0,0,0,0,0,0.1
		c0,0.1,0,0.2,0.1,0.2c0,0,0,0,0,0c0,0.1,0.1,0.1,0.1,0.2c0,0,0,0,0,0l4,5.7l-3,51h-5.6c-0.4,0-0.8,0.4-0.8,0.9v9.6c0,0,0,0.1,0,0.1
		c0,0,0,0,0,0.1c0,0.1,0,0.2,0.1,0.2c0,0,0,0,0,0c0,0.1,0.1,0.1,0.1,0.2c0,0,0,0,0,0l5.1,7.1l-5.3,90c0,0.3,0.1,0.5,0.2,0.7
		c0.1,0.2,0.4,0.3,0.6,0.3h51.9c0.2,0,0.4-0.1,0.6-0.3c0.1-0.2,0.2-0.4,0.2-0.7l-5.3-89.9L419.4,201.9
		C419.4,201.9,419.4,201.9,419.4,201.9z M411.7,190.8h-4.8l-2-50.4h3.9L411.7,190.8z M405.3,190.8h-7l-0.7-50.4h5.7L405.3,190.8z
		 M407.8,124.9h-3.6l-1.4-36.2h2.9L407.8,124.9z M402.8,40h-1.9l-1.1-28.7h1.4L402.8,40z M382.9,4.9h19.8v4.6h-19.8V4.9z M399.3,40
		h-3.1l-0.4-28.7h2.4L399.3,40z M394.6,40h-3.5l0.4-28.7h2.7L394.6,40z M389.9,11.3L389.5,40h-3.1l1.1-28.7H389.9z M384.5,11.3h1.4
		L384.8,40h-1.9L384.5,11.3z M379.8,41.9h26v3.2h-26V41.9z M380.6,47h24.5l-0.3,0.4l-0.7,1.2l-0.3,0.6h-21.9l-0.3-0.6l-0.7-1.2
		L380.6,47z M404.9,75.8h-2.6l-1-24.8h2.1L404.9,75.8z M400.7,75.8h-4.1l-0.3-24.8h3.4L400.7,75.8z M395.1,75.8h-4.5l0.3-24.8h3.9
		L395.1,75.8z M389.3,51.1L389,75.8h-4.1l1-24.8H389.3z M384.3,51.1l-1,24.8h-2.6l1.5-24.8H384.3z M376.8,77.7h32.1v4.4h-32.1V77.7z
		 M377.6,83.9H408l-1,1.4l-0.7,1.1l-0.3,0.4h-26.4l-0.3-0.4l-0.7-1.1L377.6,83.9z M402.7,124.9h-5.3l-0.5-36.2h4.4L402.7,124.9z
		 M395.8,124.9h-5.9l0.5-36.2h4.9L395.8,124.9z M388.8,88.7l-0.5,36.2H383l1.4-36.2H388.8z M380,88.7h2.9l-1.4,36.2h-3.6L380,88.7z
		 M372.8,126.8h40v5.8h-40V126.8z M373.7,134.5H412l-1.8,2.6l-0.7,1l-0.3,0.4h-32.5l-0.3-0.4l-0.7-1L373.7,134.5z M396.7,190.8H389
		l0.7-50.4h6.3L396.7,190.8z M388.1,140.4l-0.7,50.4h-7l2-50.4H388.1z M376.9,140.4h3.9l-2,50.4H374L376.9,140.4z M374.6,298.1h-6.9
		l5.2-88.5h5.2L374.6,298.1z M385.9,298.1h-9.7l3.5-88.5h7.5L385.9,298.1z M387.5,298.1l1.2-88.5h8.3l1.2,88.5H387.5z M399.8,298.1
		l-1.2-88.5h7.5l3.5,88.5H399.8z M418,298.1h-6.9l-3.5-88.5h5.2L418,298.1z M414.2,206.4l-0.7,1l-0.3,0.4h-40.7l-0.3-0.4l-0.7-1
		l-2.9-4.1h48.5L414.2,206.4z M418,200.4h-50.4v-7.7H418V200.4z"/>
</g>
<g>
	<path class="st0" d="M824,205.2h32.9c0.6,0,1-0.5,1-1v-18.8c0-0.6-0.5-1-1-1H824c-0.6,0-1,0.5-1,1v18.8
		C822.9,204.7,823.4,205.2,824,205.2z M825,186.4h30.9v16.7H825V186.4z M1015.5,99.6c-0.2-0.3-0.5-0.5-0.9-0.5h-11.8V80
		c0-0.6-0.5-1-1-1h-4.3V68.1c0-0.6-0.5-1-1-1h-16.6V48c0-0.6-0.5-1-1-1h-1.6V36.1c0-0.6-0.5-1-1-1h-26.4V29c0-0.6-0.5-1-1-1h-2.8v-3
		c0-0.6-0.5-1-1-1h-2.6c-5.6-4.6-11.7-7.5-18.5-8.9V12c0-0.6-0.5-1-1-1h-30.6c-0.6,0-1,0.5-1,1v3.1c-6.9,1.4-12.9,4.3-18.5,8.9h-2.6
		c-0.6,0-1,0.5-1,1v3h-2.8c-0.6,0-1,0.5-1,1v6.1h-26.4c-0.6,0-1,0.5-1,1V47h-1.6c-0.6,0-1,0.5-1,1v19.1h-16.6c-0.6,0-1,0.5-1,1V79
		h-4.3c-0.6,0-1,0.5-1,1v19.1h-11.8c-0.4,0-0.7,0.2-0.9,0.5c-0.2,0.3-0.2,0.7,0,1l4.8,7.3c0.2,0.3,0.5,0.5,0.8,0.5h7.1v8.1h-3.8
		c-0.4,0-0.7,0.2-0.9,0.5c-0.2,0.3-0.2,0.7,0,1l4.6,7.1v48.2h-3.8c-0.4,0-0.7,0.2-0.9,0.5c-0.2,0.3-0.2,0.7,0,1l4.6,7.1v25h-3.8
		c-0.4,0-0.7,0.2-0.9,0.5c-0.2,0.3-0.2,0.7,0,1l4.6,7.1v82.8c0,0.6,0.5,1,1,1h60.3c0.6,0,1-0.5,1-1V174.6l4.6-7.1
		c0.2-0.3,0.2-0.7,0-1c-0.2-0.3-0.5-0.5-0.9-0.5h-3.8c0.5-17.6,15-31.8,32.8-31.8c17.8,0,32.2,14.2,32.8,31.8h-3.8
		c-0.4,0-0.7,0.2-0.9,0.5c-0.2,0.3-0.2,0.7,0,1l4.6,7.1v123.8c0,0.6,0.5,1,1,1h60.3c0.6,0,1-0.5,1-1v-82.8l4.6-7.1
		c0.2-0.3,0.2-0.7,0-1c-0.2-0.3-0.5-0.5-0.9-0.5h-3.8v-25l4.6-7.1c0.2-0.3,0.2-0.7,0-1c-0.2-0.3-0.5-0.5-0.9-0.5h-3.8v-48.2l4.6-7.1
		c0.2-0.3,0.2-0.7,0-1c-0.2-0.3-0.5-0.5-0.9-0.5h-3.8v-8.1h7.1c0.3,0,0.7-0.2,0.8-0.5l4.8-7.3C1015.6,100.4,1015.7,100,1015.5,99.6z
		 M893.4,13H922V15h-28.6V13z M892.4,17h30.4c6,1.1,11.4,3.4,16.4,7.1h-63.1C881.1,20.4,886.4,18.1,892.4,17z M871.3,26.1h72.8V28
		h-72.8V26.1z M867.5,30h80.4v5.1h-80.4V30z M840.1,37.1h135.2V47H840.1V37.1z M837.4,49h140.4v18.1H837.4V49z M819.9,69.1h175.6V79
		H819.9V69.1z M814.6,81h186.2v18.1H814.6V81z M810.6,175.3h4.2l3.5,5.3h-4.2l-0.5-0.8l-1-1.5L810.6,175.3z M863.5,175.3l-1.9,2.9
		l-1,1.5l-0.5,0.8h-39.3l-0.5-0.8l-1-1.5l-1.9-2.9H863.5z M821.2,173.3v-47.5h38.4v47.5H821.2z M862.5,180.6l3.5-5.3h4.2l-1.9,2.9
		l-1,1.5l-0.5,0.8H862.5z M866.2,182.6v24.3h-4.6v-24.3H866.2z M866.2,173.3h-4.6v-47.5h4.6V173.3z M859.6,182.6v24.3h-38.4v-24.3
		H859.6z M819.2,173.3h-4.6v-47.5h4.6V173.3z M819.2,182.6v24.3h-4.6v-24.3H819.2z M813.6,213.4l-1-1.5l-1.9-2.9h4.2l3.5,5.3h-4.2
		L813.6,213.4z M819.2,297.4h-4.6v-5.3h4.6V297.4z M819.2,290.1h-4.6v-15.4h4.6V290.1z M819.2,272.7h-4.6v-56.4h4.6V272.7z
		 M859.6,297.4h-38.4v-5.3h38.4V297.4z M859.6,290.1h-38.4v-15.4h38.4V290.1z M859.6,272.7h-38.4v-56.4h38.4V272.7z M860.1,214.2
		h-39.3l-0.5-0.8l-1-1.5l-1.9-2.9h46.3l-1.9,2.9l-1,1.5L860.1,214.2z M866.2,297.4h-4.6v-5.3h4.6V297.4z M866.2,290.1h-4.6v-15.4
		h4.6V290.1z M866.2,272.7h-4.6v-56.4h4.6V272.7z M866.7,214.2h-4.2l3.5-5.3h4.2l-1.9,2.9l-1,1.5L866.7,214.2z M872.8,297.4h-4.6
		v-81.8l4.6-7V297.4z M872.8,207.4c-0.2-0.3-0.5-0.4-0.8-0.4h-3.8v-25l4.3-6.6h0.3V207.4z M876.8,168l-1.9,2.9l-1,1.5l-0.5,0.8h-5.1
		V168H876.8z M868.2,166v-40.2h4.6V166H868.2z M907.7,132.2c-15.1,0-28,9.7-32.8,23.1v-29.5h65.6v29.5
		C935.7,141.8,922.8,132.2,907.7,132.2z M941.5,172.5l-1-1.5l-1.9-2.9h8.5v5.3H942L941.5,172.5z M998.1,175.3l-1.9,2.9l-1,1.5
		l-0.5,0.8h-39.3l-0.5-0.8l-1-1.5l-1.9-2.9H998.1z M955.7,173.3v-47.5h38.4v47.5H955.7z M996.1,173.3v-47.5h4.6v47.5H996.1z
		 M1000.7,182.6v24.3h-4.6v-24.3H1000.7z M994.1,182.6v24.3h-38.4v-24.3H994.1z M953.7,173.3h-4.6v-47.5h4.6V173.3z M949.4,175.3
		l3.5,5.3h-4.2l-0.5-0.8l-1-1.5l-1.9-2.9H949.4z M953.7,182.6v24.3h-4.6v-24.3H953.7z M947.1,181.9v25h-3.8c-0.3,0-0.6,0.2-0.8,0.4
		v-32h0.3L947.1,181.9z M947.1,166h-4.6v-40.2h4.6V166z M947.1,297.4h-4.6v-88.8l4.6,7V297.4z M948.1,213.4l-1-1.5l-1.9-2.9h4.2
		l3.5,5.3h-4.2L948.1,213.4z M953.7,297.4h-4.6v-5.3h4.6V297.4z M953.7,290.1h-4.6v-15.4h4.6V290.1z M953.7,272.7h-4.6v-56.4h4.6
		V272.7z M994.1,297.4h-38.4v-5.3h38.4V297.4z M994.1,290.1h-38.4v-15.4h38.4V290.1z M994.1,272.7h-38.4v-56.4h38.4V272.7z
		 M994.6,214.2h-39.3l-0.5-0.8l-1-1.5l-1.9-2.9h46.3l-1.9,2.9l-1,1.5L994.6,214.2z M1000.7,297.4h-4.6v-5.3h4.6V297.4z
		 M1000.7,290.1h-4.6v-15.4h4.6V290.1z M1000.7,272.7h-4.6v-56.4h4.6V272.7z M1004.7,208.9l-1.9,2.9l-1,1.5l-0.5,0.8H997l3.5-5.3
		H1004.7z M1004.7,175.3l-1.9,2.9l-1,1.5l-0.5,0.8H997l3.5-5.3H1004.7z M1004.7,118.5l-3.5,5.3H814.1l-3.5-5.3H1004.7z M814.6,116.5
		v-8.1h186.2v8.1H814.6z M1009.3,106.4H806.1l-3.5-5.3h210.1L1009.3,106.4z M840.4,134c-7,0-12.6,5.7-12.6,12.6
		c0,7,5.7,12.6,12.6,12.6c7,0,12.6-5.7,12.6-12.6C853,139.6,847.3,134,840.4,134z M840.4,157.2c-5.8,0-10.6-4.8-10.6-10.6
		c0-5.8,4.8-10.6,10.6-10.6s10.6,4.8,10.6,10.6C851,152.4,846.2,157.2,840.4,157.2z M958.5,205.2h32.9c0.6,0,1-0.5,1-1v-18.8
		c0-0.6-0.5-1-1-1h-32.9c-0.6,0-1,0.5-1,1v18.8C957.5,204.7,957.9,205.2,958.5,205.2z M959.5,186.4h30.9v16.7h-30.9V186.4z
		 M974.9,134c-7,0-12.6,5.7-12.6,12.6c0,7,5.7,12.6,12.6,12.6c7,0,12.6-5.7,12.6-12.6C987.5,139.6,981.9,134,974.9,134z
		 M974.9,157.2c-5.8,0-10.6-4.8-10.6-10.6c0-5.8,4.8-10.6,10.6-10.6c5.8,0,10.6,4.8,10.6,10.6C985.5,152.4,980.8,157.2,974.9,157.2z
		"/>
</g>
<g>
	<path class="st0" d="M363.3,239.7C363.3,239.7,363.3,239.6,363.3,239.7c0-0.1,0-0.1,0-0.1c0,0,0,0,0,0c0,0,0-0.1-0.1-0.1
		c0,0,0-0.1-0.1-0.1c0,0-0.1-0.1-0.1-0.1c0,0-0.1-0.1-0.1-0.1c-0.1,0-0.1-0.1-0.2-0.1c0,0-0.1,0-0.1,0c-0.1,0-0.2,0-0.3-0.1
		c-0.4,0-0.7,0-1.1,0c-11.6,0-27.1,3.3-31,4.1c-4.6-16.3-12.6-31.3-23.8-44.5c-11.4-13.4-26.3-25.5-44.4-35.7
		c-0.1,0-0.1-0.1-0.2-0.1c0,0,0,0,0,0c-0.1,0-0.1,0-0.2,0c0,0,0,0-0.1,0c-0.1,0-0.1,0-0.2,0c0,0,0,0,0,0c-0.1,0-0.1,0-0.2,0.1
		c0,0,0,0,0,0c0,0,0,0,0,0c-0.1,0-0.1,0.1-0.1,0.1c0,0,0,0,0,0c-0.1,0.1-0.1,0.1-0.1,0.2c0,0,0,0,0,0c0,0,0,0,0,0
		c0,0.1-0.1,0.1-0.1,0.2c0,0,0,0,0,0.1c0,0.1,0,0.1,0,0.2c0,0,0,0,0,0v16c-1.9-3.7-5.3-9.8-10.9-17.7c-8.6-12.2-24.3-31.1-50-52.3
		c-0.4-0.3-0.9-0.3-1.2,0c-0.4,0.3-0.4,0.8-0.2,1.2c0.1,0.1,3.9,6.7,8.6,16.5c-4.5-6.3-9.9-12.7-16.2-18.8c-0.2-0.2-0.5-0.3-0.8-0.3
		c-0.3,0-0.6,0.2-0.7,0.5c-0.2,0.4-3.7,7-5.4,23.9c-1.7-16.9-5.2-23.5-5.4-23.9c-0.1-0.3-0.4-0.4-0.7-0.5c-0.3,0-0.6,0-0.8,0.3
		c-6.4,6.1-11.7,12.5-16.2,18.8c4.7-9.8,8.5-16.4,8.6-16.5c0.2-0.4,0.1-0.9-0.2-1.2c-0.4-0.3-0.9-0.3-1.2,0
		c-39.4,32.3-55.8,60.1-60.9,70v-16.1c0,0,0,0,0,0c0-0.1,0-0.1,0-0.2c0,0,0,0,0-0.1c0-0.1,0-0.1-0.1-0.2c0,0,0,0,0,0c0,0,0,0,0,0
		c0-0.1-0.1-0.1-0.1-0.2c0,0,0,0,0,0c0,0-0.1-0.1-0.1-0.1c0,0,0,0,0,0c0,0,0,0,0,0c-0.1,0-0.1-0.1-0.2-0.1c0,0,0,0,0,0
		c-0.1,0-0.1,0-0.2,0c0,0,0,0-0.1,0c-0.1,0-0.1,0-0.2,0c0,0,0,0,0,0c-0.1,0-0.1,0-0.2,0.1c-18.1,10.2-33.1,22.2-44.4,35.7
		c-11.2,13.2-19.2,28.2-23.8,44.5c-3.8-0.9-19.3-4.1-31-4.1c-0.4,0-0.7,0-1.1,0c-0.1,0-0.2,0-0.3,0.1c0,0-0.1,0-0.1,0
		c-0.1,0-0.1,0.1-0.2,0.1c0,0-0.1,0.1-0.1,0.1c0,0-0.1,0.1-0.1,0.1c0,0,0,0.1-0.1,0.1c0,0,0,0.1-0.1,0.1c0,0,0,0,0,0c0,0,0,0,0,0
		c0,0,0,0.1,0,0.1c0,0.1,0,0.1,0,0.2c0,0,0,0.1,0,0.1c0,0.1,0,0.1,0,0.2c0,0,0,0.1,0,0.1c0,0,0,0.1,0.1,0.1c0,0,0,0.1,0.1,0.1
		c0,0,0,0,0,0.1c0.1,0.1,13.2,13.8,19.1,33.7v24.1c0,0.5,0.4,1,1,1h318.3c0.5,0,1-0.4,1-1v-24.1c5.9-19.9,19-33.5,19.1-33.7
		c0,0,0,0,0-0.1c0,0,0.1-0.1,0.1-0.1c0,0,0-0.1,0.1-0.1c0,0,0-0.1,0-0.1c0,0,0-0.1,0-0.2c0,0,0-0.1,0-0.1
		C363.3,239.8,363.3,239.8,363.3,239.7z M305,199.8c11.1,13.2,19.1,28.1,23.6,44.4c0,0,0,0,0,0c-0.1,0.3-0.2,0.6-0.3,0.8
		c0,0,0,0,0,0.1c-0.1,0.3-0.2,0.6-0.3,0.9c0,0,0,0,0,0.1c-0.1,0.3-0.2,0.6-0.3,1c0,0,0,0,0,0.1c-0.1,0.3-0.2,0.7-0.3,1
		c0,0,0,0,0,0.1c-0.1,0.3-0.2,0.7-0.3,1.1c0,0,0,0,0,0.1c-0.1,0.4-0.2,0.7-0.2,1.1c0,0,0,0,0,0.1c-0.1,0.4-0.2,0.7-0.2,1.1
		c0,0,0,0,0,0.1c-0.1,0.4-0.1,0.8-0.2,1.1c0,0,0,0,0,0.1c-0.1,0.4-0.1,0.8-0.2,1.2c0,0,0,0,0,0.1c-0.1,0.4-0.1,0.8-0.2,1.2
		c0,0,0,0,0,0.1c-0.1,0.4-0.1,0.8-0.2,1.2c0,0,0,0,0,0.1c-0.1,0.4-0.1,0.8-0.2,1.2c0,0,0,0,0,0.1c-0.1,0.4-0.1,0.8-0.2,1.2
		c0,0,0,0.1,0,0.1c0,0.4-0.1,0.8-0.1,1.1c0,0,0,0.1,0,0.1c0,0.4-0.1,0.7-0.1,1.1c0,0,0,0.1,0,0.1c0,0.4-0.1,0.7-0.1,1.1
		c0,0,0,0.1,0,0.1c-0.1-0.5-0.1-1-0.2-1.5c-0.1-0.5-0.1-1.1-0.2-1.6c-0.1-1-0.3-1.9-0.4-2.9c-0.1-0.4-0.1-0.9-0.2-1.3
		c-0.2-1.4-0.5-2.7-0.7-4.1c0-0.2-0.1-0.4-0.1-0.6c-0.2-1.2-0.5-2.3-0.7-3.5c-0.1-0.5-0.2-0.9-0.3-1.4c-0.2-0.9-0.4-1.7-0.6-2.6
		c-0.1-0.5-0.3-1-0.4-1.5c-0.2-0.8-0.4-1.6-0.7-2.4c-0.1-0.5-0.3-1-0.4-1.5c-0.2-0.8-0.5-1.6-0.7-2.5c-0.1-0.5-0.3-0.9-0.4-1.4
		c-0.3-1-0.6-1.9-1-2.9c-0.1-0.3-0.2-0.6-0.3-0.9c-0.4-1.2-0.9-2.4-1.3-3.7c-0.1-0.3-0.3-0.6-0.4-1c-0.3-0.9-0.7-1.8-1.1-2.6
		c-0.2-0.4-0.4-0.9-0.6-1.3c-0.3-0.8-0.7-1.5-1-2.3c-0.2-0.5-0.4-0.9-0.6-1.3c-0.3-0.7-0.7-1.5-1-2.2c-0.2-0.4-0.4-0.9-0.6-1.3
		c-0.4-0.8-0.8-1.5-1.2-2.3c-0.2-0.4-0.4-0.7-0.6-1.1c-0.6-1.1-1.2-2.2-1.8-3.3c-0.7-1.1-1.3-2.3-2-3.4c-0.2-0.4-0.5-0.8-0.8-1.2
		c-0.5-0.7-0.9-1.4-1.4-2.1c-0.3-0.5-0.6-0.9-0.9-1.4c-0.4-0.6-0.9-1.3-1.3-1.9c-0.3-0.5-0.7-1-1.1-1.4c-0.4-0.6-0.8-1.2-1.3-1.7
		c-0.4-0.5-0.8-1-1.2-1.4c-0.4-0.5-0.9-1.1-1.3-1.6c-0.4-0.5-0.8-1-1.2-1.4c-0.4-0.5-0.9-1-1.3-1.6c-0.4-0.5-0.8-0.9-1.3-1.4
		c-0.5-0.5-0.9-1-1.4-1.5c-0.4-0.4-0.9-0.9-1.3-1.3c-0.5-0.5-1-1-1.4-1.5C294.4,188.3,300.1,193.9,305,199.8z M262.5,165.4
		c0.4,0.2,0.7,0.4,1.1,0.7c0.6,0.4,1.1,0.7,1.7,1.1c0.6,0.4,1.2,0.8,1.8,1.2c0.5,0.4,1.1,0.7,1.6,1.1c0.6,0.4,1.1,0.8,1.7,1.2
		c0.5,0.4,1.1,0.8,1.6,1.1c0.6,0.4,1.1,0.8,1.7,1.2c0.5,0.4,1,0.8,1.5,1.2c0.5,0.4,1.1,0.9,1.6,1.3c0.5,0.4,1,0.8,1.5,1.2
		c0.5,0.4,1.1,0.9,1.6,1.3c0.5,0.4,0.9,0.8,1.4,1.2c0.5,0.5,1,0.9,1.5,1.4c0.5,0.4,0.9,0.8,1.3,1.2c0.5,0.5,1,1,1.5,1.4
		c0.4,0.4,0.9,0.8,1.3,1.3c0.5,0.5,1,1,1.5,1.5c0.4,0.4,0.8,0.8,1.2,1.3c0.5,0.5,1,1,1.4,1.6c0.4,0.4,0.8,0.9,1.2,1.3
		c0.5,0.5,0.9,1.1,1.4,1.6c0.4,0.4,0.7,0.9,1.1,1.3c0.5,0.6,0.9,1.1,1.4,1.7c0.3,0.4,0.7,0.9,1,1.3c0.5,0.6,0.9,1.2,1.3,1.8
		c0.3,0.4,0.6,0.8,0.9,1.3c0.5,0.6,0.9,1.3,1.4,1.9c0.3,0.4,0.6,0.8,0.8,1.2c0.5,0.7,1,1.5,1.4,2.2c0.2,0.3,0.4,0.7,0.7,1
		c0.7,1.1,1.3,2.2,2,3.3c0.7,1.1,1.3,2.3,1.9,3.5c0.2,0.4,0.4,0.8,0.6,1.2c0.4,0.8,0.8,1.6,1.2,2.4c0.2,0.5,0.4,0.9,0.7,1.4
		c0.4,0.7,0.7,1.5,1.1,2.2c0.2,0.5,0.5,1,0.7,1.6c0.3,0.7,0.6,1.4,0.9,2.2c0.2,0.5,0.4,1.1,0.7,1.6c0.3,0.7,0.6,1.4,0.9,2.1
		c0.2,0.6,0.4,1.1,0.6,1.7c0.3,0.7,0.5,1.4,0.8,2.2c0.2,0.6,0.4,1.2,0.6,1.8c0.2,0.7,0.5,1.4,0.7,2.2c0.2,0.6,0.4,1.2,0.6,1.8
		c0.2,0.7,0.4,1.4,0.7,2.2c0.2,0.6,0.3,1.3,0.5,1.9c0.2,0.7,0.4,1.5,0.6,2.2c0.2,0.6,0.3,1.3,0.5,2c0.2,0.7,0.4,1.5,0.5,2.2
		c0.2,0.7,0.3,1.3,0.4,2c0.2,0.7,0.3,1.5,0.5,2.2c0.1,0.7,0.3,1.4,0.4,2.1c0.1,0.8,0.3,1.5,0.4,2.3c0.1,0.7,0.2,1.4,0.3,2.1
		c0.1,0.8,0.2,1.5,0.4,2.3c0.1,0.7,0.2,1.4,0.3,2.2c0.1,0.8,0.2,1.5,0.3,2.3c0.1,0.7,0.2,1.5,0.2,2.2c0.1,0.8,0.2,1.6,0.2,2.4
		c0.1,0.7,0.1,1.5,0.2,2.2c0.1,0.6,0.1,1.2,0.2,1.9h0l-0.8,0c-0.1-0.3-0.1-0.5-0.2-0.8c0,0,0-0.1,0-0.1c-0.1-0.4-0.2-0.7-0.3-1.1
		c0,0,0,0,0,0c-0.1-0.4-0.2-0.7-0.3-1.1c0-0.1,0-0.1,0-0.2c-0.1-0.3-0.2-0.7-0.3-1c0,0,0-0.1,0-0.1c-0.1-0.3-0.2-0.7-0.3-1
		c0-0.1,0-0.1-0.1-0.2c-0.1-0.3-0.2-0.6-0.3-0.9c0,0,0-0.1,0-0.1c-0.1-0.3-0.2-0.7-0.3-1c0-0.1,0-0.1-0.1-0.2
		c-0.1-0.3-0.2-0.5-0.2-0.8c0-0.1,0-0.1-0.1-0.2c-0.1-0.3-0.2-0.7-0.3-1c0,0,0-0.1,0-0.1c-0.1-0.2-0.1-0.5-0.2-0.7
		c0-0.1-0.1-0.2-0.1-0.3c-0.1-0.3-0.2-0.7-0.3-1c0,0,0,0,0,0c-0.1-0.2-0.1-0.3-0.2-0.5c-0.1-0.1-0.1-0.3-0.2-0.4
		c-0.1-0.3-0.2-0.6-0.3-1c0-0.1-0.1-0.2-0.1-0.2c0,0,0-0.1,0-0.1c-0.1-0.2-0.1-0.4-0.2-0.6c-0.1-0.3-0.2-0.6-0.3-0.9
		c-0.1-0.3-0.2-0.6-0.3-0.9c-0.1-0.3-0.2-0.6-0.3-0.8c-0.1-0.3-0.2-0.6-0.3-0.9c-0.1-0.3-0.2-0.5-0.3-0.8c-0.1-0.3-0.2-0.6-0.4-0.9
		c-0.1-0.2-0.2-0.5-0.3-0.7c-0.1-0.3-0.2-0.6-0.4-0.9c-0.1-0.2-0.2-0.4-0.3-0.6c-0.1-0.3-0.2-0.6-0.4-0.9c-0.1-0.2-0.2-0.4-0.2-0.6
		c-0.1-0.3-0.2-0.6-0.4-0.8c-0.1-0.2-0.2-0.3-0.2-0.5c-0.1-0.3-0.2-0.5-0.4-0.8c-0.1-0.2-0.1-0.3-0.2-0.5c-0.1-0.3-0.2-0.5-0.4-0.8
		c-0.1-0.2-0.2-0.3-0.2-0.5c-0.1-0.2-0.2-0.4-0.3-0.6c0,0,0,0,0,0c-0.2-0.4-0.4-0.8-0.6-1.2c0,0,0-0.1,0-0.1c-1.4-2.8-2.6-5-3.4-6.4
		c-0.6-1.1-1.1-1.7-1.2-2c0-0.1-0.1-0.1-0.1-0.1c-0.1-0.1-0.1-0.2-0.2-0.2c-0.2-0.1-0.4-0.2-0.6-0.2c0,0,0,0-0.1,0c0,0,0,0,0,0
		c0,0,0,0,0,0c0,0,0,0,0,0c0,0,0,0-0.1,0c0,0,0,0,0,0c0,0-0.1,0-0.1,0c0,0-0.1,0-0.1,0c0,0,0,0-0.1,0c0,0-0.1,0-0.1,0
		c0,0-0.1,0-0.1,0c0,0-0.1,0-0.1,0c0,0-0.1,0-0.1,0c0,0-0.1,0-0.1,0c0,0-0.1,0-0.1,0c0,0-0.1,0-0.1,0c-0.1,0-0.1,0-0.2,0
		c0,0-0.1,0-0.1,0c-0.1,0-0.1,0-0.2,0c0,0-0.1,0-0.1,0c-0.1,0-0.1,0-0.2,0c0,0-0.1,0-0.1,0c-0.1,0-0.1,0-0.2,0c-0.1,0-0.1,0-0.2,0
		c-0.1,0-0.1,0-0.2,0c-0.1,0-0.1,0-0.2,0c-0.1,0-0.1,0-0.2,0c-0.1,0-0.1,0-0.2,0c-0.1,0-0.2,0-0.2,0c-0.1,0-0.1,0-0.2,0
		c-0.1,0-0.2,0-0.3,0c-0.1,0-0.1,0-0.2,0c-0.1,0-0.2,0-0.3,0c-0.1,0-0.1,0-0.2,0c-0.1,0-0.2,0-0.3,0c-0.1,0-0.1,0-0.2,0
		c-0.1,0-0.2,0-0.3,0.1c-0.1,0-0.2,0-0.2,0c-0.1,0-0.2,0-0.3,0.1c-0.1,0-0.2,0-0.3,0c-0.1,0-0.2,0-0.3,0.1c-0.1,0-0.2,0-0.3,0
		c-0.1,0-0.2,0-0.3,0.1c-0.1,0-0.2,0-0.3,0.1c-0.1,0-0.2,0-0.3,0.1c-0.1,0-0.2,0-0.3,0.1c-0.1,0-0.2,0-0.4,0.1c-0.1,0-0.2,0-0.3,0.1
		c-0.1,0-0.3,0.1-0.4,0.1c-0.1,0-0.2,0-0.3,0.1c-0.1,0-0.3,0.1-0.4,0.1c-0.1,0-0.2,0-0.3,0.1c-0.1,0-0.3,0.1-0.4,0.1
		c-0.1,0-0.2,0-0.3,0.1c-0.1,0-0.3,0.1-0.4,0.1c-0.1,0-0.2,0.1-0.3,0.1c-0.1,0-0.3,0.1-0.4,0.1c-0.1,0-0.2,0.1-0.3,0.1
		c-0.1,0-0.3,0.1-0.4,0.1c-0.1,0-0.2,0.1-0.3,0.1c-0.1,0-0.3,0.1-0.4,0.1c-0.1,0-0.2,0.1-0.3,0.1c-0.2,0-0.3,0.1-0.5,0.1
		c-0.1,0-0.2,0.1-0.3,0.1c-0.2,0-0.3,0.1-0.5,0.1c-0.1,0-0.2,0.1-0.3,0.1c-0.2,0-0.3,0.1-0.5,0.1c-0.1,0-0.2,0.1-0.3,0.1
		c-0.2,0-0.3,0.1-0.5,0.2c-0.1,0-0.2,0.1-0.3,0.1c-0.2,0.1-0.3,0.1-0.5,0.2c-0.1,0-0.2,0.1-0.3,0.1c-0.2,0.1-0.4,0.1-0.5,0.2
		c-0.1,0-0.2,0.1-0.3,0.1c-0.2,0.1-0.4,0.1-0.6,0.2c-0.1,0-0.2,0.1-0.3,0.1c-0.2,0.1-0.4,0.1-0.6,0.2c-0.1,0-0.2,0.1-0.3,0.1
		c-0.2,0.1-0.4,0.1-0.6,0.2c-0.1,0-0.2,0.1-0.3,0.1c-0.2,0.1-0.4,0.2-0.7,0.2c-0.1,0-0.2,0.1-0.3,0.1c-0.2,0.1-0.5,0.2-0.7,0.3
		c-0.1,0-0.1,0.1-0.2,0.1c-0.3,0.1-0.6,0.2-0.9,0.4c0,0,0,0-0.1,0c-0.6,0.3-1.3,0.5-1.9,0.8c-0.1,0-0.1,0.1-0.2,0.1
		c-0.3,0.1-0.5,0.2-0.8,0.3c-0.1,0-0.2,0.1-0.3,0.1c-0.2,0.1-0.5,0.2-0.7,0.3c-0.1,0.1-0.2,0.1-0.4,0.2c-0.2,0.1-0.4,0.2-0.6,0.3
		c-0.1,0.1-0.3,0.1-0.4,0.2c-0.2,0.1-0.4,0.2-0.6,0.3c-0.1,0.1-0.3,0.1-0.4,0.2c-0.2,0.1-0.4,0.2-0.6,0.3c-0.1,0.1-0.3,0.2-0.4,0.2
		c-0.2,0.1-0.4,0.2-0.6,0.3c-0.2,0.1-0.3,0.2-0.5,0.2c-0.2,0.1-0.4,0.2-0.6,0.3c-0.2,0.1-0.3,0.2-0.5,0.2c-0.2,0.1-0.4,0.2-0.6,0.3
		c-0.2,0.1-0.3,0.2-0.5,0.3c-0.2,0.1-0.4,0.2-0.6,0.3c-0.2,0.1-0.3,0.2-0.5,0.3c-0.2,0.1-0.4,0.2-0.6,0.3c-0.2,0.1-0.3,0.2-0.5,0.3
		c-0.2,0.1-0.4,0.2-0.5,0.3c-0.2,0.1-0.3,0.2-0.5,0.3c-0.2,0.1-0.4,0.2-0.5,0.3c-0.2,0.1-0.3,0.2-0.5,0.3c-0.2,0.1-0.4,0.2-0.5,0.3
		c-0.2,0.1-0.3,0.2-0.5,0.3c-0.2,0.1-0.4,0.2-0.5,0.3c-0.2,0.1-0.3,0.2-0.5,0.3c-0.2,0.1-0.4,0.2-0.5,0.4c-0.2,0.1-0.4,0.2-0.5,0.4
		c-0.2,0.1-0.4,0.2-0.5,0.4c-0.2,0.1-0.4,0.2-0.5,0.4c-0.2,0.1-0.4,0.2-0.5,0.4c-0.2,0.1-0.4,0.3-0.5,0.4c-0.1,0.1-0.2,0.1-0.3,0.2
		V165.4z M321.4,273.1l-66.5,0l0,0c20.7-21.8,47.1-33.9,51.9-36c0,0,0,0,0,0c0,0,0,0,0,0.1c0,0,0,0,0,0c0.1,0.1,0.1,0.2,0.2,0.3
		c0,0,0,0.1,0,0.1c0.1,0.1,0.1,0.2,0.2,0.3c0,0,0.1,0.1,0.1,0.1c0.1,0.1,0.1,0.2,0.2,0.3c0,0.1,0.1,0.1,0.1,0.2
		c0.1,0.1,0.1,0.2,0.2,0.3c0,0.1,0.1,0.1,0.1,0.2c0.1,0.1,0.1,0.2,0.2,0.3c0,0.1,0.1,0.2,0.1,0.2c0.1,0.1,0.1,0.2,0.2,0.3
		c0,0.1,0.1,0.2,0.2,0.3c0.1,0.1,0.1,0.2,0.2,0.4c0.1,0.1,0.1,0.2,0.2,0.3c0.1,0.1,0.1,0.3,0.2,0.4c0.1,0.1,0.1,0.2,0.2,0.3
		c0.1,0.1,0.1,0.3,0.2,0.4c0.1,0.1,0.1,0.2,0.2,0.4c0.1,0.1,0.2,0.3,0.2,0.4c0.1,0.1,0.1,0.3,0.2,0.4c0.1,0.2,0.2,0.3,0.2,0.5
		c0.1,0.1,0.1,0.3,0.2,0.4c0.1,0.2,0.2,0.3,0.2,0.5c0.1,0.2,0.1,0.3,0.2,0.5c0.1,0.2,0.2,0.3,0.3,0.5c0.1,0.2,0.2,0.3,0.2,0.5
		c0.1,0.2,0.2,0.4,0.3,0.5c0.1,0.2,0.2,0.3,0.2,0.5c0.1,0.2,0.2,0.4,0.3,0.6c0.1,0.2,0.2,0.4,0.3,0.5c0.1,0.2,0.2,0.4,0.3,0.6
		c0.1,0.2,0.2,0.4,0.3,0.6c0.1,0.2,0.2,0.4,0.3,0.6c0.1,0.2,0.2,0.4,0.3,0.6c0.1,0.2,0.2,0.4,0.3,0.6c0.1,0.2,0.2,0.4,0.3,0.6
		c0.1,0.2,0.2,0.4,0.3,0.7c0.1,0.2,0.2,0.4,0.3,0.7c0.1,0.2,0.2,0.5,0.3,0.7c0.1,0.2,0.2,0.4,0.3,0.7c0.1,0.2,0.2,0.5,0.3,0.7
		c0.1,0.2,0.2,0.5,0.3,0.7c0,0.1,0,0.1,0.1,0.2c0.1,0.2,0.2,0.4,0.2,0.6c0.1,0.2,0.2,0.5,0.3,0.7c0.1,0.3,0.2,0.5,0.3,0.8
		c0.1,0.2,0.2,0.5,0.3,0.7c0,0,0,0,0,0.1c0,0,0,0.1,0,0.1c0.1,0.2,0.2,0.4,0.2,0.6c0.1,0.2,0.2,0.4,0.2,0.7c0,0.1,0,0.1,0.1,0.2
		c0,0.1,0,0.1,0.1,0.2c0.1,0.2,0.1,0.4,0.2,0.6c0.1,0.2,0.1,0.4,0.2,0.6c0,0.1,0.1,0.2,0.1,0.4c0,0.1,0,0.1,0.1,0.2
		c0.1,0.2,0.1,0.4,0.2,0.6c0.1,0.2,0.1,0.3,0.2,0.5c0.1,0.2,0.1,0.3,0.2,0.5c0,0,0,0.1,0,0.1c0.1,0.2,0.1,0.4,0.2,0.6
		c0,0.1,0.1,0.3,0.1,0.4c0.1,0.2,0.1,0.4,0.2,0.7c0,0,0,0.1,0,0.1c0.1,0.2,0.1,0.4,0.2,0.6c0,0.1,0.1,0.3,0.1,0.4
		c0.1,0.3,0.2,0.5,0.2,0.8c0,0,0,0.1,0,0.1c0.1,0.2,0.1,0.4,0.2,0.6c0,0.1,0.1,0.2,0.1,0.3c0.1,0.3,0.2,0.6,0.3,0.9c0,0,0,0,0,0.1
		c0.1,0.2,0.1,0.5,0.2,0.7c0,0.1,0,0.1,0.1,0.2c0.1,0.3,0.2,0.7,0.3,1c0,0,0,0,0,0c0.1,0.3,0.2,0.6,0.3,0.9c0,0,0,0,0,0
		C321.3,272.9,321.3,273,321.4,273.1z M260.7,256.2c0,0,0.1-0.1,0.1-0.1c0.1-0.1,0.1-0.1,0.2-0.2c0,0,0.1-0.1,0.1-0.1
		c0.1-0.1,0.1-0.1,0.2-0.2c0,0,0.1-0.1,0.1-0.1c0.1-0.1,0.1-0.1,0.2-0.1c0,0,0,0,0.1-0.1c0.1,0,0.1-0.1,0.1-0.1c0,0,0,0,0,0
		c0,0,0.1-0.1,0.1-0.1c0,0,0,0,0,0c0.1-0.1,0.2-0.2,0.2-0.2c0.3-0.2,0.7-0.5,1-0.7c0.3-0.2,0.6-0.4,0.9-0.7c0.3-0.2,0.6-0.4,0.9-0.6
		c0.3-0.2,0.7-0.5,1-0.7c0.2-0.2,0.5-0.3,0.7-0.5c0.4-0.3,0.8-0.5,1.2-0.8c0.2-0.1,0.4-0.2,0.6-0.3c0.4-0.3,0.9-0.6,1.3-0.8
		c0.1-0.1,0.3-0.2,0.4-0.3c0.5-0.3,1-0.6,1.5-0.9c0.1,0,0.2-0.1,0.2-0.1c0.5-0.3,1.1-0.6,1.6-0.9c0,0,0,0,0,0
		c11.1-6.1,21.3-8.7,27.5-9.8c-10.1,5-31.8,17-48.8,35.5h-3.8c0.1-0.2,0.2-0.3,0.3-0.5c0.1-0.2,0.2-0.3,0.2-0.5
		c0.1-0.2,0.2-0.4,0.4-0.7c0.1-0.1,0.1-0.3,0.2-0.4c0.2-0.3,0.3-0.6,0.5-0.9c0-0.1,0.1-0.1,0.1-0.2c0.2-0.3,0.4-0.7,0.6-1
		c0.1-0.1,0.1-0.2,0.2-0.3c0.1-0.2,0.3-0.4,0.4-0.6c0.1-0.1,0.2-0.2,0.2-0.4c0.1-0.2,0.2-0.4,0.4-0.6c0.1-0.1,0.2-0.2,0.2-0.4
		c0.1-0.2,0.2-0.4,0.4-0.5c0.1-0.1,0.2-0.2,0.2-0.4c0.1-0.2,0.2-0.3,0.3-0.5c0.1-0.1,0.2-0.2,0.3-0.4c0.1-0.2,0.2-0.3,0.3-0.5
		c0.1-0.1,0.2-0.2,0.3-0.4c0.1-0.2,0.2-0.3,0.3-0.5c0.1-0.1,0.2-0.2,0.3-0.3c0.1-0.1,0.2-0.3,0.3-0.4c0.1-0.1,0.2-0.2,0.2-0.3
		c0.1-0.1,0.2-0.3,0.3-0.4c0.1-0.1,0.2-0.2,0.2-0.3c0.1-0.1,0.2-0.3,0.3-0.4c0.1-0.1,0.2-0.2,0.2-0.3c0.1-0.1,0.2-0.3,0.3-0.4
		c0.1-0.1,0.1-0.2,0.2-0.3c0.1-0.1,0.2-0.3,0.3-0.4c0.1-0.1,0.1-0.2,0.2-0.2c0.1-0.1,0.2-0.3,0.3-0.4c0.1-0.1,0.1-0.1,0.2-0.2
		c0.1-0.1,0.2-0.3,0.3-0.4c0-0.1,0.1-0.1,0.1-0.2c0.1-0.1,0.3-0.3,0.4-0.4c0,0,0.1-0.1,0.1-0.1c0.3-0.3,0.6-0.7,0.9-0.9
		c0,0,0,0,0.1-0.1c0.1-0.1,0.2-0.2,0.3-0.4c0,0,0.1-0.1,0.1-0.1c0.1-0.1,0.2-0.2,0.3-0.3c0,0,0.1-0.1,0.1-0.1
		C260.6,256.3,260.7,256.2,260.7,256.2z M240.4,236.4c-0.1-0.6-0.1-1.3-0.2-1.9c-0.1-0.7-0.2-1.5-0.3-2.2c-0.1-0.6-0.2-1.2-0.2-1.8
		c-0.1-0.7-0.2-1.5-0.3-2.2c-0.1-0.6-0.2-1.2-0.3-1.7c-0.1-0.7-0.2-1.5-0.4-2.2c-0.1-0.6-0.2-1.1-0.3-1.7c-0.1-0.8-0.3-1.5-0.4-2.3
		c-0.1-0.5-0.2-1-0.3-1.5c-0.1-0.8-0.3-1.6-0.5-2.3c-0.1-0.5-0.2-0.9-0.3-1.4c-0.2-0.8-0.4-1.7-0.5-2.5c-0.1-0.4-0.2-0.8-0.2-1.2
		c-0.3-1.2-0.5-2.4-0.8-3.6c-0.3-1.1-0.5-2.1-0.8-3.2c-0.1-0.3-0.2-0.7-0.3-1c-0.2-0.7-0.4-1.4-0.6-2.2c-0.1-0.4-0.2-0.7-0.3-1.1
		c-0.2-0.7-0.4-1.4-0.6-2.1c-0.1-0.3-0.2-0.7-0.3-1c-0.2-0.8-0.5-1.6-0.7-2.3c-0.1-0.2-0.1-0.5-0.2-0.7c-0.3-1-0.6-2-1-3
		c-0.1-0.2-0.2-0.5-0.2-0.7c-0.3-0.8-0.5-1.5-0.8-2.2c-0.1-0.3-0.2-0.7-0.4-1c-0.2-0.6-0.5-1.3-0.7-1.9c-0.1-0.3-0.3-0.7-0.4-1
		c-0.3-0.7-0.5-1.3-0.8-2c-0.1-0.3-0.2-0.6-0.3-0.8c-0.8-1.8-1.6-3.7-2.4-5.4c-0.1-0.3-0.3-0.5-0.4-0.8c-0.3-0.6-0.6-1.2-0.9-1.8
		c-0.2-0.3-0.3-0.6-0.5-0.9c-0.3-0.6-0.6-1.2-0.9-1.7c-0.2-0.3-0.3-0.6-0.5-0.9c-0.3-0.7-0.7-1.3-1-1.9c-0.1-0.2-0.2-0.4-0.3-0.6
		c0,0,0-0.1-0.1-0.1c2.3,2.6,5,5.8,8,9.7c0,0,0.1,0.1,0.1,0.1c1,1.3,2,2.6,3,4c0,0,0,0,0,0c0.3,0.5,0.7,1,1,1.4c0,0,0,0,0,0
		c0.5,0.7,1,1.4,1.5,2.2c0,0.1,0.1,0.1,0.1,0.2c0.5,0.8,1,1.5,1.6,2.3c9,13.6,20,34.3,23.9,58.5c0,0.1,0,0.2,0,0.3
		c0.1,0.7,0.2,1.5,0.3,2.2c0.1,0.5,0.1,1,0.2,1.6c0.1,0.5,0.1,1,0.2,1.5c0.1,0.7,0.2,1.4,0.2,2.1c0,0,0,0,0,0c0,0,0,0-0.1,0.1
		c0,0,0,0-0.1,0.1c0,0-0.1,0.1-0.1,0.1c0,0,0,0-0.1,0.1c-0.1,0.1-0.1,0.1-0.2,0.2c0,0,0,0-0.1,0.1c-0.2,0.2-0.4,0.4-0.6,0.6
		c0,0-0.1,0.1-0.1,0.1c-0.1,0.1-0.2,0.2-0.3,0.2c0,0-0.1,0.1-0.1,0.1c-0.1,0.1-0.2,0.2-0.3,0.3c0,0-0.1,0.1-0.1,0.1
		c-0.1,0.1-0.2,0.2-0.3,0.3c0,0-0.1,0.1-0.1,0.1c-0.1,0.1-0.2,0.2-0.3,0.3c0,0-0.1,0.1-0.1,0.1c-0.1,0.1-0.2,0.2-0.4,0.4
		c0,0-0.1,0.1-0.1,0.1c-0.3,0.3-0.6,0.7-1,1.1c0,0-0.1,0.1-0.1,0.1c-0.1,0.2-0.3,0.3-0.4,0.5c-0.1,0.1-0.1,0.1-0.2,0.2
		c-0.1,0.1-0.2,0.3-0.4,0.4c-0.1,0.1-0.1,0.1-0.2,0.2c-0.1,0.1-0.2,0.3-0.4,0.4c-0.1,0.1-0.1,0.2-0.2,0.2c-0.1,0.2-0.3,0.3-0.4,0.5
		c-0.1,0.1-0.1,0.1-0.2,0.2c-0.1,0.2-0.3,0.4-0.4,0.6c0,0.1-0.1,0.1-0.1,0.2c-0.4,0.5-0.8,1-1.2,1.6c0,0.1-0.1,0.1-0.1,0.2
		c-0.2,0.2-0.3,0.4-0.5,0.7c-0.1,0.1-0.1,0.2-0.2,0.3c-0.1,0.2-0.3,0.4-0.4,0.6c-0.1,0.1-0.1,0.2-0.2,0.3c-0.1,0.2-0.3,0.4-0.4,0.6
		c-0.1,0.1-0.1,0.2-0.2,0.3c-0.1,0.2-0.3,0.4-0.4,0.6c-0.1,0.1-0.1,0.2-0.2,0.3c-0.1,0.2-0.3,0.5-0.4,0.7c-0.1,0.1-0.1,0.2-0.2,0.3
		c-0.2,0.3-0.4,0.6-0.6,0.9c0,0,0,0,0,0.1c-0.2,0.3-0.4,0.7-0.6,1.1c0,0.1-0.1,0.1-0.1,0.2c-0.2,0.3-0.3,0.6-0.5,0.9
		c-0.1,0.1-0.1,0.2-0.2,0.3c-0.1,0.3-0.3,0.5-0.4,0.8c-0.1,0.1-0.1,0.3-0.2,0.4c-0.1,0.1-0.1,0.3-0.2,0.4h-3.8c0-0.7,0-1.3,0-2
		c0-0.7,0-1.4,0-2.1c0-0.8,0-1.6,0-2.4c0-0.7,0-1.4,0-2.1c0-0.8-0.1-1.6-0.1-2.4c0-0.7,0-1.4-0.1-2.1c0-0.8-0.1-1.6-0.1-2.3
		c0-0.7-0.1-1.4-0.1-2.1c0-0.8-0.1-1.5-0.1-2.3c0-0.7-0.1-1.4-0.1-2c0-0.8-0.1-1.5-0.2-2.3c0-0.7-0.1-1.3-0.1-2
		c-0.1-0.8-0.1-1.5-0.2-2.3c-0.1-0.7-0.1-1.3-0.2-2c-0.1-0.7-0.1-1.5-0.2-2.2c-0.1-0.6-0.1-1.3-0.2-1.9
		C240.6,237.9,240.5,237.1,240.4,236.4z M240.6,273.1h-6.2c0-0.1-0.1-0.1-0.1-0.2c-0.5-0.6-0.9-1.1-1.4-1.7
		c-0.1-0.1-0.1-0.1-0.2-0.2c-0.5-0.6-1-1.1-1.5-1.7c-0.1-0.1-0.2-0.2-0.3-0.3c-0.5-0.6-1-1.1-1.5-1.7c0,0-0.1-0.1-0.1-0.1
		c-0.5-0.5-1-1-1.5-1.6c-0.1-0.1-0.2-0.2-0.2-0.3c-0.5-0.5-1-1-1.5-1.6c-0.1-0.1-0.2-0.2-0.3-0.3c-0.5-0.5-1-1-1.5-1.5c0,0,0,0,0,0
		c-0.5-0.5-1-1-1.5-1.5c-0.1-0.1-0.2-0.2-0.4-0.4c-0.5-0.5-1-0.9-1.4-1.4c-0.1-0.1-0.3-0.3-0.4-0.4c-0.4-0.4-0.8-0.7-1.2-1.1
		c-0.1-0.1-0.3-0.2-0.4-0.4c-0.4-0.4-0.9-0.8-1.3-1.2c-0.2-0.2-0.4-0.4-0.6-0.5c-0.3-0.3-0.7-0.6-1-0.8c-0.3-0.3-0.7-0.6-1-0.8
		c-0.2-0.2-0.4-0.3-0.6-0.5c-11.7-9.7-22.4-15.9-27.1-18.4c0,0,0,0,0-0.1c0,0,0,0,0-0.1c0-0.1,0-0.1,0-0.2c0,0,0-0.1,0-0.1
		c0-0.1,0-0.1,0-0.2c0-0.1,0-0.1,0-0.2c0-0.1,0-0.1,0-0.2c0-0.1,0-0.1,0-0.2c0-0.1,0-0.1,0-0.2c0-0.1,0-0.2,0-0.2c0-0.1,0-0.1,0-0.2
		c0-0.1,0-0.2,0.1-0.3c0-0.1,0-0.1,0-0.2c0-0.1,0-0.2,0.1-0.4c0-0.1,0-0.1,0-0.2c0-0.1,0.1-0.3,0.1-0.4c0-0.1,0-0.1,0-0.2
		c0-0.1,0.1-0.3,0.1-0.5c0,0,0-0.1,0-0.1c0-0.2,0.1-0.3,0.1-0.5c0,0,0-0.1,0-0.1c0-0.2,0.1-0.4,0.1-0.6c0,0,0,0,0-0.1
		c0.3-1.3,0.6-2.8,1-4.5c0.4-1.6,0.8-3.4,1.3-5.3c0,0,0,0,0,0c0.1-0.3,0.2-0.7,0.3-1c0,0,0-0.1,0-0.1c0.1-0.3,0.2-0.7,0.3-1
		c0,0,0-0.1,0-0.1c0.1-0.3,0.2-0.7,0.3-1c0,0,0-0.1,0-0.1c0.1-0.3,0.2-0.7,0.3-1c0,0,0-0.1,0-0.1c0.1-0.3,0.2-0.7,0.3-1
		c0-0.1,0-0.1,0-0.2c0.1-0.3,0.2-0.7,0.3-1c0-0.1,0-0.1,0-0.2c0.1-0.3,0.2-0.7,0.3-1.1c0-0.1,0-0.1,0.1-0.2c0.1-0.4,0.2-0.7,0.3-1.1
		c0-0.1,0-0.1,0-0.2c0.1-0.4,0.2-0.7,0.3-1.1c0,0,0-0.1,0-0.1c0.1-0.4,0.2-0.8,0.4-1.2c0,0,0-0.1,0-0.1c0.1-0.4,0.3-0.8,0.4-1.2
		c0,0,0,0,0,0c1.2-3.9,2.7-8,4.3-12.2c0,0,0-0.1,0-0.1c0.2-0.4,0.3-0.8,0.5-1.2c0-0.1,0.1-0.2,0.1-0.2c0.1-0.4,0.3-0.8,0.5-1.1
		c0-0.1,0.1-0.2,0.1-0.3c0.1-0.4,0.3-0.7,0.4-1.1c0.1-0.1,0.1-0.3,0.2-0.4c0.1-0.3,0.3-0.7,0.4-1c0.1-0.1,0.1-0.3,0.2-0.4
		c0.1-0.3,0.3-0.7,0.4-1c0.1-0.2,0.1-0.3,0.2-0.5c0.1-0.3,0.3-0.7,0.4-1c0.1-0.2,0.2-0.3,0.2-0.5c0.1-0.3,0.3-0.6,0.4-1
		c0.1-0.2,0.2-0.4,0.2-0.5c0.1-0.3,0.3-0.6,0.4-0.9c0.1-0.2,0.2-0.4,0.3-0.6c0.1-0.3,0.3-0.6,0.4-0.9c0.1-0.2,0.2-0.4,0.3-0.6
		c0.1-0.3,0.3-0.6,0.4-0.9c0.1-0.2,0.2-0.4,0.3-0.6c0.1-0.3,0.3-0.6,0.4-0.9c0.1-0.2,0.2-0.4,0.3-0.6c0.1-0.3,0.3-0.6,0.4-0.9
		c0.1-0.2,0.2-0.4,0.3-0.6c0.1-0.3,0.3-0.6,0.4-0.9c0.1-0.2,0.2-0.4,0.3-0.6c0.2-0.3,0.3-0.6,0.5-0.9c0.1-0.2,0.2-0.4,0.4-0.7
		c0.2-0.3,0.3-0.6,0.5-0.8c0.1-0.2,0.3-0.5,0.4-0.7c0.1-0.3,0.3-0.5,0.4-0.8c0.1-0.2,0.3-0.5,0.4-0.7c0.1-0.2,0.3-0.5,0.4-0.7
		c0.2-0.3,0.4-0.6,0.6-1c0.1-0.2,0.2-0.4,0.4-0.6c0.3-0.5,0.6-0.9,0.8-1.4c0.1-0.2,0.2-0.3,0.3-0.5c0.2-0.3,0.4-0.7,0.6-1
		c0.1-0.2,0.2-0.4,0.3-0.5c0.2-0.3,0.4-0.6,0.6-0.9c0.1-0.2,0.2-0.4,0.4-0.6c0.2-0.2,0.3-0.5,0.5-0.7c0,0,0,0,0,0
		c0.1,0.2,0.3,0.4,0.4,0.6c0.3,0.4,0.5,0.8,0.8,1.2c0.3,0.4,0.5,0.9,0.8,1.3c0.2,0.4,0.5,0.8,0.7,1.3c0.2,0.4,0.5,0.9,0.7,1.3
		c0.2,0.4,0.5,0.9,0.7,1.3c0.2,0.4,0.5,0.9,0.7,1.3c0.2,0.4,0.5,0.9,0.7,1.3c0.2,0.5,0.5,0.9,0.7,1.4c0.2,0.4,0.4,0.9,0.7,1.3
		c0.2,0.5,0.4,0.9,0.7,1.4c0.2,0.5,0.4,0.9,0.6,1.4c0.2,0.5,0.4,1,0.6,1.4c0.2,0.5,0.4,0.9,0.6,1.4c0.2,0.5,0.4,1,0.6,1.5
		c0.2,0.5,0.4,0.9,0.6,1.4c0.2,0.5,0.4,1,0.6,1.5c0.2,0.5,0.4,1,0.6,1.5c0.2,0.5,0.4,1,0.6,1.5c0.2,0.5,0.4,1,0.5,1.5
		c0.2,0.5,0.4,1.1,0.6,1.6c0.2,0.5,0.3,1,0.5,1.5c0.2,0.5,0.4,1.1,0.5,1.7c0.2,0.5,0.3,1,0.5,1.5c0.2,0.6,0.4,1.2,0.5,1.7
		c0.1,0.5,0.3,1,0.4,1.5c0.2,0.6,0.4,1.2,0.5,1.8c0.1,0.5,0.3,0.9,0.4,1.4c0.2,0.7,0.4,1.4,0.6,2.1c0.1,0.4,0.2,0.8,0.3,1.2
		c0.3,1.1,0.6,2.2,0.8,3.3c0.3,1.2,0.6,2.4,0.8,3.6c0.1,0.4,0.2,0.9,0.3,1.3c0.2,0.8,0.3,1.5,0.5,2.3c0.1,0.5,0.2,1.1,0.3,1.6
		c0.1,0.7,0.3,1.4,0.4,2.1c0.1,0.6,0.2,1.2,0.3,1.7c0.1,0.7,0.2,1.4,0.4,2.1c0.1,0.6,0.2,1.2,0.3,1.8c0.1,0.7,0.2,1.3,0.3,2
		c0.1,0.6,0.2,1.3,0.3,1.9c0.1,0.7,0.2,1.3,0.3,2c0.1,0.6,0.2,1.3,0.3,1.9c0.1,0.7,0.2,1.4,0.3,2c0.1,0.7,0.2,1.3,0.2,2
		c0.1,0.7,0.2,1.4,0.2,2.1c0.1,0.7,0.1,1.4,0.2,2c0.1,0.7,0.1,1.4,0.2,2.1c0.1,0.7,0.1,1.4,0.2,2.1c0.1,0.7,0.1,1.4,0.2,2.1
		c0.1,0.7,0.1,1.4,0.2,2.1c0.1,0.7,0.1,1.4,0.2,2.2c0,0.7,0.1,1.4,0.1,2.1c0,0.7,0.1,1.5,0.1,2.2c0,0.7,0.1,1.4,0.1,2.1
		c0,0.8,0.1,1.5,0.1,2.3c0,0.7,0,1.4,0.1,2.1c0,0.8,0.1,1.5,0.1,2.3c0,0.7,0,1.4,0,2.2c0,0.8,0,1.6,0,2.3c0,0.7,0,1.5,0,2.2
		C240.6,271.9,240.6,272.5,240.6,273.1z M202.5,114.5c43.9,37.1,57.1,67.3,58.2,69.7v56.5c-5.5-27.3-19.4-50-31-65.1
		c-0.5-2.1-4.4-18.7-16-38C209.4,127.7,205.1,119.4,202.5,114.5z M184.7,153.3c0-16.6,1.7-27.5,3.1-33.8c1-4.3,1.9-7.1,2.5-8.5
		c23.8,23.4,33.4,50.6,36.3,60.9c-4.5-5.6-8.2-9.4-9.9-11.2c0,0,0,0,0,0c-0.3-0.3-0.5-0.5-0.7-0.7c0,0-0.1-0.1-0.1-0.1
		c0,0,0,0-0.1-0.1c-0.1-0.1-0.2-0.2-0.2-0.2c0,0,0,0,0,0c0,0,0,0,0,0c0,0-0.1-0.1-0.1-0.1c0,0,0,0,0,0c0,0,0,0,0,0c0,0,0,0,0,0
		c0,0-0.1,0-0.1,0c0,0,0,0-0.1,0c0,0,0,0,0,0c0,0,0,0-0.1,0c0,0,0,0,0,0c0,0-0.1,0-0.1,0c0,0,0,0,0,0c0,0-0.1,0-0.1,0c0,0,0,0,0,0
		c0,0,0,0,0,0c0,0,0,0,0,0c-0.1,0-0.3,0.1-0.4,0.1c0,0,0,0,0,0c0,0-0.1,0-0.1,0.1c0,0,0,0,0,0c0,0,0,0,0,0c0,0,0,0-0.1,0.1
		c0,0-0.1,0.1-0.1,0.1c0,0,0,0,0,0c-0.3,0.5-0.7,1-1,1.5c-0.1,0.2-0.3,0.4-0.4,0.6c-0.2,0.3-0.4,0.6-0.6,0.9
		c-0.2,0.3-0.4,0.6-0.5,0.8c-0.1,0.2-0.3,0.4-0.4,0.6c-0.2,0.3-0.4,0.7-0.6,1c-0.1,0.1-0.2,0.3-0.2,0.4c-0.3,0.4-0.5,0.8-0.7,1.2
		c0,0,0,0.1-0.1,0.1c-16.8,28.2-22.9,60-24.1,66.9l0,0c-0.3-0.2-0.6-0.3-0.8-0.4V153.3z M184.7,235.6c3.9,2,15.7,8.4,28.5,19.1
		c0,0,0,0,0.1,0.1c0.4,0.3,0.8,0.7,1.2,1c0,0,0.1,0,0.1,0.1c0.4,0.4,0.9,0.7,1.3,1.1c0.1,0.1,0.3,0.2,0.4,0.3
		c0.5,0.4,0.9,0.8,1.4,1.2c0.2,0.2,0.4,0.4,0.6,0.6c0.4,0.3,0.8,0.7,1.2,1.1c0.3,0.2,0.5,0.5,0.8,0.7c0.3,0.3,0.7,0.6,1,1
		c0.3,0.3,0.5,0.5,0.8,0.8c0.3,0.3,0.6,0.6,1,0.9c0.3,0.3,0.6,0.6,0.9,0.9c0.3,0.3,0.6,0.6,0.9,0.9c0.3,0.3,0.6,0.6,0.9,0.9
		c0.3,0.3,0.6,0.6,0.9,0.9c0.3,0.3,0.6,0.6,0.9,0.9c0.3,0.3,0.6,0.6,0.9,1c0.3,0.3,0.6,0.6,0.8,0.9c0.3,0.3,0.6,0.7,0.9,1
		c0.3,0.3,0.5,0.6,0.8,1c0.3,0.3,0.6,0.7,0.9,1.1c0.1,0.1,0.1,0.2,0.2,0.2h-47.2V235.6z M194.3,275.1v3.7h-21.1v-3.7H194.3z
		 M25.6,278.7v-3.7h145.7v3.7H25.6z M171.3,280.6v1.8H25.6v-1.8H171.3z M46.2,273.1c0-0.1,0.1-0.3,0.1-0.4c0,0,0,0,0,0
		c0.1-0.3,0.2-0.6,0.3-0.9c0,0,0,0,0-0.1c0.1-0.3,0.2-0.7,0.3-1c0,0,0,0,0,0c0.1-0.3,0.2-0.6,0.2-0.9c0,0,0-0.1,0-0.1
		c0.1-0.3,0.2-0.6,0.3-1c0,0,0,0,0,0c0.1-0.3,0.2-0.5,0.2-0.8c0-0.1,0-0.1,0-0.2c0.1-0.3,0.2-0.6,0.3-0.9c0,0,0,0,0-0.1
		c0.1-0.2,0.1-0.5,0.2-0.7c0.1-0.4,0.3-0.8,0.4-1.2c0.1-0.2,0.1-0.4,0.2-0.5c0.1-0.4,0.3-0.9,0.4-1.3c0-0.1,0.1-0.3,0.1-0.4
		c0-0.1,0.1-0.2,0.1-0.3c0.1-0.3,0.2-0.5,0.3-0.8c0-0.1,0.1-0.2,0.1-0.3c0-0.1,0-0.1,0.1-0.2c0-0.1,0.1-0.2,0.1-0.4
		c0.1-0.3,0.2-0.5,0.3-0.7c0.1-0.3,0.2-0.6,0.3-0.9c0.1-0.2,0.2-0.5,0.3-0.7c0.1-0.3,0.2-0.6,0.3-0.9c0.1-0.2,0.2-0.5,0.3-0.7
		c0.1-0.3,0.2-0.6,0.3-0.8c0.1-0.2,0.2-0.4,0.3-0.7c0.1-0.3,0.2-0.5,0.3-0.8c0.1-0.2,0.2-0.4,0.2-0.6c0.1-0.3,0.2-0.5,0.3-0.8
		c0.1-0.2,0.2-0.4,0.2-0.6c0.1-0.3,0.2-0.5,0.3-0.8c0.1-0.2,0.2-0.4,0.2-0.5c0.1-0.3,0.2-0.5,0.3-0.7c0.1-0.2,0.2-0.3,0.2-0.5
		c0.1-0.2,0.2-0.5,0.3-0.7c0.1-0.2,0.1-0.3,0.2-0.5c0.1-0.2,0.2-0.5,0.3-0.7c0.1-0.2,0.1-0.3,0.2-0.5c0.1-0.2,0.2-0.4,0.3-0.7
		c0.1-0.2,0.1-0.3,0.2-0.4c0.1-0.2,0.2-0.4,0.3-0.6c0.1-0.1,0.1-0.3,0.2-0.4c0.1-0.2,0.2-0.4,0.3-0.6c0.1-0.1,0.1-0.3,0.2-0.4
		c0.1-0.2,0.2-0.4,0.3-0.6c0.1-0.1,0.1-0.2,0.2-0.4c0.1-0.2,0.2-0.4,0.3-0.5c0.1-0.1,0.1-0.2,0.2-0.3c0.1-0.2,0.2-0.3,0.3-0.5
		c0.1-0.1,0.1-0.2,0.2-0.3c0.1-0.2,0.2-0.3,0.2-0.5c0.1-0.1,0.1-0.2,0.2-0.3c0.1-0.1,0.2-0.3,0.2-0.4c0.1-0.1,0.1-0.2,0.2-0.3
		c0.1-0.1,0.1-0.3,0.2-0.4c0.1-0.1,0.1-0.2,0.2-0.3c0.1-0.1,0.1-0.2,0.2-0.3c0-0.1,0.1-0.2,0.1-0.2c0.1-0.1,0.1-0.2,0.2-0.3
		c0-0.1,0.1-0.1,0.1-0.2c0.1-0.1,0.1-0.2,0.2-0.3c0-0.1,0.1-0.2,0.1-0.2c0-0.1,0.1-0.1,0.1-0.2c0-0.1,0.1-0.1,0.1-0.2
		c0-0.1,0.1-0.1,0.1-0.2c0-0.1,0.1-0.1,0.1-0.2c0,0,0.1-0.1,0.1-0.1c0,0,0,0,0-0.1c4.7,2.1,31.3,14.3,51.9,36l0,0L46.2,273.1z
		 M147.2,167.5c-0.1,0.2-0.2,0.4-0.3,0.6c-0.3,0.6-0.7,1.3-1,1.9c-0.2,0.3-0.3,0.6-0.5,0.9c-0.3,0.6-0.6,1.1-0.9,1.7
		c-0.2,0.3-0.3,0.6-0.5,0.9c-0.3,0.6-0.6,1.2-0.9,1.8c-0.1,0.3-0.3,0.6-0.4,0.8c-0.4,0.9-0.8,1.7-1.2,2.6c0,0,0,0,0,0.1
		c-0.4,0.9-0.8,1.8-1.2,2.7c-0.1,0.3-0.2,0.6-0.4,0.9c-0.3,0.6-0.5,1.3-0.8,1.9c-0.1,0.3-0.3,0.7-0.4,1c-0.2,0.6-0.5,1.3-0.7,1.9
		c-0.1,0.3-0.2,0.7-0.4,1c-0.3,0.7-0.5,1.5-0.8,2.2c-0.1,0.2-0.2,0.5-0.3,0.7c-0.3,1-0.7,2-1,2.9c-0.1,0.2-0.2,0.5-0.2,0.7
		c-0.2,0.8-0.5,1.5-0.7,2.3c-0.1,0.4-0.2,0.7-0.3,1.1c-0.2,0.7-0.4,1.4-0.6,2c-0.1,0.4-0.2,0.7-0.3,1.1c-0.2,0.7-0.4,1.4-0.6,2.1
		c-0.1,0.3-0.2,0.7-0.3,1c-0.3,1-0.5,2.1-0.8,3.2c-0.3,1.2-0.6,2.4-0.8,3.6c-0.1,0.4-0.2,0.7-0.2,1.1c-0.2,0.9-0.4,1.7-0.5,2.6
		c-0.1,0.5-0.2,0.9-0.3,1.4c-0.2,0.8-0.3,1.6-0.5,2.3c-0.1,0.5-0.2,1-0.3,1.5c-0.1,0.8-0.3,1.5-0.4,2.3c-0.1,0.5-0.2,1.1-0.3,1.6
		c-0.1,0.7-0.2,1.5-0.4,2.3c-0.1,0.6-0.2,1.2-0.2,1.7c-0.1,0.7-0.2,1.5-0.3,2.2c-0.1,0.6-0.2,1.2-0.2,1.8c-0.1,0.7-0.2,1.5-0.3,2.2
		c-0.1,0.6-0.1,1.2-0.2,1.9c-0.1,0.7-0.2,1.5-0.3,2.2c-0.1,0.6-0.1,1.3-0.2,1.9c-0.1,0.8-0.2,1.5-0.2,2.3c-0.1,0.6-0.1,1.3-0.2,1.9
		c-0.1,0.8-0.1,1.5-0.2,2.3c-0.1,0.7-0.1,1.3-0.1,2c-0.1,0.8-0.1,1.5-0.2,2.3c0,0.7-0.1,1.4-0.1,2c0,0.8-0.1,1.5-0.1,2.3
		c0,0.7-0.1,1.4-0.1,2.1c0,0.8-0.1,1.6-0.1,2.3c0,0.7,0,1.4-0.1,2.1c0,0.8-0.1,1.6-0.1,2.4c0,0.7,0,1.4,0,2.2c0,0.8,0,1.6,0,2.4
		c0,0.7,0,1.5,0,2.2c0,0.6,0,1.3,0,1.9h-3.8c-0.1-0.1-0.1-0.3-0.2-0.4c-0.1-0.1-0.1-0.3-0.2-0.4c-0.1-0.3-0.3-0.5-0.4-0.8
		c-0.1-0.1-0.1-0.2-0.2-0.3c-0.2-0.3-0.3-0.6-0.5-0.9c0-0.1-0.1-0.1-0.1-0.2c-0.2-0.4-0.4-0.7-0.6-1.1c0,0,0,0,0-0.1
		c-0.2-0.3-0.4-0.6-0.6-0.9c-0.1-0.1-0.1-0.2-0.2-0.3c-0.1-0.2-0.3-0.5-0.4-0.7c-0.1-0.1-0.1-0.2-0.2-0.3c-0.1-0.2-0.3-0.4-0.4-0.6
		c-0.1-0.1-0.1-0.2-0.2-0.3c-0.1-0.2-0.3-0.4-0.4-0.6c-0.1-0.1-0.1-0.2-0.2-0.3c-0.1-0.2-0.3-0.4-0.4-0.6c-0.1-0.1-0.1-0.2-0.2-0.3
		c-0.2-0.2-0.3-0.4-0.5-0.7c0-0.1-0.1-0.1-0.1-0.2c-0.4-0.6-0.8-1.1-1.2-1.6c0-0.1-0.1-0.1-0.1-0.2c-0.1-0.2-0.3-0.4-0.4-0.6
		c-0.1-0.1-0.1-0.1-0.2-0.2c-0.1-0.2-0.3-0.3-0.4-0.5c-0.1-0.1-0.1-0.2-0.2-0.2c-0.1-0.2-0.2-0.3-0.4-0.4c-0.1-0.1-0.1-0.1-0.2-0.2
		c-0.1-0.1-0.2-0.3-0.4-0.4c-0.1-0.1-0.1-0.1-0.2-0.2c-0.1-0.2-0.3-0.3-0.4-0.5c0,0-0.1-0.1-0.1-0.1c-0.3-0.4-0.7-0.8-1-1.1
		c0,0-0.1-0.1-0.1-0.1c-0.1-0.1-0.2-0.3-0.4-0.4c0,0-0.1-0.1-0.1-0.1c-0.1-0.1-0.2-0.2-0.3-0.3c0-0.1-0.1-0.1-0.1-0.1
		c-0.1-0.1-0.2-0.2-0.3-0.3c0,0-0.1-0.1-0.1-0.1c-0.1-0.1-0.2-0.2-0.3-0.3c0,0-0.1-0.1-0.1-0.1c-0.1-0.1-0.2-0.2-0.3-0.2
		c0,0-0.1-0.1-0.1-0.1c-0.2-0.2-0.4-0.4-0.6-0.6c0,0,0,0-0.1-0.1c-0.1-0.1-0.1-0.1-0.2-0.2c0,0,0,0-0.1-0.1c-0.1,0-0.1-0.1-0.1-0.1
		c0,0,0,0-0.1-0.1c0,0,0,0-0.1-0.1c0,0,0,0,0,0c0.1-0.7,0.1-1.4,0.2-2.1c0.1-0.5,0.1-1,0.2-1.5c0.1-0.5,0.1-1.1,0.2-1.6
		c0.1-0.7,0.2-1.5,0.3-2.2c0-0.1,0-0.2,0-0.3c0.1-0.8,0.3-1.5,0.4-2.3c4.2-23.2,14.8-43,23.5-56.2c5.7-8.7,11.4-15.5,15.4-20.1
		C147.3,167.4,147.2,167.5,147.2,167.5z M147.8,170.5c0.2-0.4,0.5-0.9,0.7-1.3c0.2-0.4,0.5-0.9,0.7-1.3c0.2-0.4,0.5-0.9,0.7-1.3
		c0.2-0.4,0.5-0.8,0.7-1.3c0.3-0.4,0.5-0.9,0.8-1.3c0.2-0.4,0.5-0.8,0.8-1.2c0.1-0.2,0.3-0.4,0.4-0.6c0,0,0,0,0,0
		c0.2,0.2,0.3,0.5,0.5,0.7c0.1,0.2,0.2,0.4,0.4,0.6c0.2,0.3,0.4,0.6,0.6,0.9c0.1,0.2,0.2,0.4,0.4,0.6c0.2,0.3,0.4,0.6,0.6,0.9
		c0.1,0.2,0.2,0.4,0.3,0.5c0.2,0.3,0.4,0.7,0.6,1c0.1,0.2,0.2,0.4,0.4,0.6c0.3,0.4,0.5,0.9,0.8,1.3c0.1,0.3,0.3,0.5,0.4,0.8
		c0.1,0.2,0.3,0.5,0.4,0.7c0.2,0.3,0.3,0.6,0.5,0.8c0.1,0.2,0.2,0.4,0.4,0.6c0.2,0.3,0.3,0.6,0.5,0.9c0.1,0.2,0.2,0.4,0.3,0.6
		c0.2,0.3,0.3,0.6,0.5,0.9c0.1,0.2,0.2,0.4,0.3,0.6c0.2,0.3,0.3,0.6,0.5,0.9c0.1,0.2,0.2,0.4,0.3,0.6c0.2,0.3,0.3,0.6,0.5,0.9
		c0.1,0.2,0.2,0.4,0.3,0.6c0.2,0.3,0.3,0.6,0.5,0.9c0.1,0.2,0.2,0.4,0.3,0.6c0.2,0.3,0.3,0.6,0.4,0.9c0.1,0.2,0.2,0.4,0.3,0.6
		c0.1,0.3,0.3,0.6,0.4,0.9c0.1,0.2,0.2,0.4,0.3,0.5c0.1,0.3,0.3,0.6,0.4,1c0.1,0.2,0.2,0.4,0.2,0.5c0.1,0.3,0.3,0.7,0.4,1
		c0.1,0.2,0.1,0.3,0.2,0.5c0.1,0.3,0.3,0.7,0.4,1c0.1,0.2,0.1,0.3,0.2,0.5c0.1,0.3,0.3,0.7,0.4,1c0.1,0.1,0.1,0.3,0.2,0.4
		c0.1,0.3,0.3,0.7,0.4,1c0.1,0.1,0.1,0.3,0.2,0.4c0.1,0.4,0.3,0.7,0.4,1.1c0.1,0.1,0.1,0.3,0.2,0.4c0.1,0.4,0.3,0.7,0.4,1.1
		c0,0.1,0.1,0.2,0.1,0.3c0.1,0.4,0.3,0.8,0.4,1.1c0,0.1,0.1,0.2,0.1,0.2c0.2,0.4,0.3,0.8,0.5,1.2c0,0.1,0,0.1,0.1,0.2
		c0.2,0.4,0.3,0.8,0.5,1.3c0,0,0,0,0,0c0.5,1.3,1,2.6,1.4,3.9c1.3,3.7,2.4,7.3,3.4,10.6c0,0,0,0,0,0c0.1,0.4,0.2,0.8,0.3,1.2
		c0,0,0,0,0,0c0.1,0.4,0.2,0.8,0.3,1.1c0,0,0,0,0,0.1c0.1,0.4,0.2,0.7,0.3,1.1c0,0,0,0.1,0,0.1c0.1,0.4,0.2,0.7,0.3,1
		c0,0,0,0.1,0,0.1c0.1,0.3,0.2,0.7,0.3,1c0,0,0,0.1,0,0.1c0.1,0.3,0.2,0.7,0.3,1c0,0,0,0.1,0,0.1c0.1,0.3,0.2,0.6,0.2,1
		c0,0,0,0.1,0,0.1c0.1,0.3,0.2,0.6,0.2,0.9c0,0,0,0.1,0,0.1c0.1,0.3,0.2,0.6,0.2,0.9c0,0,0,0,0,0.1c0.1,0.3,0.2,0.6,0.2,0.9
		c0,0,0,0,0,0c0.5,2.1,0.9,4,1.3,5.6c0.3,1.4,0.5,2.6,0.7,3.6c0,0,0,0.1,0,0.1c0,0.1,0.1,0.3,0.1,0.4c0,0,0,0.1,0,0.1
		c0,0.1,0,0.2,0.1,0.4c0,0.1,0,0.1,0,0.2c0,0.1,0,0.2,0.1,0.3c0,0.1,0,0.1,0,0.2c0,0.1,0,0.2,0,0.2c0,0.1,0,0.1,0,0.2
		c0,0.1,0,0.1,0,0.2c0,0.1,0,0.1,0,0.2c0,0.1,0,0.1,0,0.1c0,0.1,0,0.1,0,0.2c0,0,0,0.1,0,0.1c0,0,0,0.1,0,0.1
		c-4.7,2.5-15.6,8.8-27.3,18.5c-0.1,0.1-0.2,0.2-0.3,0.3c-0.5,0.4-0.9,0.8-1.4,1.2c-0.2,0.2-0.4,0.4-0.6,0.6
		c-0.3,0.2-0.5,0.4-0.8,0.7c-0.3,0.3-0.6,0.5-0.9,0.8c-0.3,0.3-0.6,0.5-0.8,0.8c-0.3,0.3-0.7,0.6-1,0.9c-0.2,0.2-0.4,0.3-0.6,0.5
		c-0.5,0.4-0.9,0.8-1.4,1.3c-0.2,0.1-0.3,0.3-0.5,0.4c-0.4,0.4-0.8,0.8-1.2,1.2c-0.1,0.1-0.2,0.2-0.3,0.3c-0.5,0.5-1,1-1.5,1.5
		c-0.1,0.1-0.3,0.3-0.4,0.4c-0.5,0.5-1,1-1.5,1.5c-0.1,0.1-0.2,0.2-0.3,0.3c-0.4,0.5-0.9,1-1.3,1.4c-0.1,0.1-0.2,0.2-0.3,0.3
		c-0.5,0.5-1,1.1-1.5,1.6c-0.1,0.1-0.2,0.3-0.3,0.4c-0.5,0.6-1,1.1-1.5,1.7c0,0.1-0.1,0.1-0.1,0.2c-0.5,0.5-0.9,1.1-1.4,1.7
		c-0.1,0.1-0.1,0.1-0.2,0.2H127c0-0.6,0-1.3,0-1.9c0-0.7,0-1.5,0-2.2c0-0.8,0-1.6,0-2.3c0-0.7,0-1.4,0-2.2c0-0.8,0-1.5,0.1-2.3
		c0-0.7,0-1.4,0.1-2.1c0-0.8,0.1-1.5,0.1-2.3c0-0.7,0.1-1.4,0.1-2.1c0-0.7,0.1-1.5,0.1-2.2c0-0.7,0.1-1.4,0.1-2.1
		c0-0.7,0.1-1.4,0.2-2.2c0.1-0.7,0.1-1.4,0.2-2.1c0.1-0.7,0.1-1.4,0.2-2.1c0.1-0.7,0.1-1.4,0.2-2.1c0.1-0.7,0.1-1.4,0.2-2.1
		c0.1-0.7,0.1-1.4,0.2-2c0.1-0.7,0.2-1.4,0.2-2.1c0.1-0.7,0.1-1.3,0.2-2c0.1-0.7,0.2-1.4,0.3-2c0.1-0.6,0.2-1.3,0.3-1.9
		c0.1-0.7,0.2-1.4,0.3-2c0.1-0.6,0.2-1.3,0.3-1.9c0.1-0.7,0.2-1.3,0.3-2c0.1-0.6,0.2-1.2,0.3-1.8c0.1-0.7,0.2-1.4,0.4-2.1
		c0.1-0.6,0.2-1.2,0.3-1.7c0.1-0.7,0.3-1.4,0.4-2.1c0.1-0.5,0.2-1.1,0.3-1.6c0.2-0.8,0.3-1.5,0.5-2.3c0.1-0.4,0.2-0.9,0.3-1.3
		c0.3-1.2,0.5-2.4,0.8-3.6c0.3-1.1,0.5-2.2,0.8-3.3c0.1-0.4,0.2-0.8,0.3-1.2c0.2-0.7,0.4-1.4,0.6-2.1c0.1-0.5,0.3-0.9,0.4-1.4
		c0.2-0.6,0.3-1.2,0.5-1.8c0.1-0.5,0.3-1,0.4-1.5c0.2-0.6,0.4-1.2,0.5-1.7c0.2-0.5,0.3-1,0.5-1.5c0.2-0.6,0.4-1.1,0.5-1.7
		c0.2-0.5,0.3-1,0.5-1.5c0.2-0.5,0.4-1.1,0.6-1.6c0.2-0.5,0.4-1,0.5-1.5c0.2-0.5,0.4-1,0.6-1.5c0.2-0.5,0.4-1,0.6-1.5
		c0.2-0.5,0.4-1,0.6-1.5c0.2-0.5,0.4-1,0.6-1.4c0.2-0.5,0.4-1,0.6-1.5c0.2-0.5,0.4-0.9,0.6-1.4c0.2-0.5,0.4-1,0.6-1.4
		c0.2-0.5,0.4-0.9,0.6-1.4c0.2-0.5,0.4-0.9,0.7-1.4c0.2-0.5,0.4-0.9,0.7-1.4c0.2-0.5,0.5-0.9,0.7-1.4
		C147.3,171.3,147.6,170.9,147.8,170.5z M135.6,273.1c0.1-0.1,0.1-0.2,0.2-0.2c0.3-0.4,0.6-0.7,0.9-1.1c0.3-0.3,0.5-0.6,0.8-1
		c0.3-0.3,0.6-0.7,0.9-1c0.3-0.3,0.6-0.6,0.8-0.9c0.3-0.3,0.6-0.7,0.9-1c0.3-0.3,0.6-0.6,0.9-0.9c0.3-0.3,0.6-0.6,0.9-0.9
		c0.3-0.3,0.6-0.6,0.9-0.9c0.3-0.3,0.6-0.6,0.9-0.9c0.3-0.3,0.6-0.6,0.9-0.9c0.3-0.3,0.6-0.6,1-0.9c0.3-0.3,0.5-0.5,0.8-0.8
		c0.3-0.3,0.7-0.6,1-1c0.3-0.2,0.5-0.5,0.8-0.7c0.4-0.4,0.8-0.7,1.2-1.1c0.2-0.2,0.4-0.4,0.6-0.6c0.5-0.4,0.9-0.8,1.4-1.2
		c0.1-0.1,0.3-0.2,0.4-0.3c0.4-0.4,0.9-0.7,1.3-1.1c0,0,0.1,0,0.1-0.1c0.4-0.3,0.8-0.7,1.2-1c0,0,0,0,0.1-0.1
		c12.8-10.6,24.6-17.1,28.5-19.1v37.6H135.6z M173.2,284.4h21.1v3.7h-21.1V284.4z M173.2,282.5v-1.8h21.1v1.8H173.2z M177.2,111
		c0.6,1.4,1.6,4.2,2.5,8.5c1.4,6.3,3.1,17.2,3.1,33.8v80.1c-0.2,0.1-0.5,0.2-0.8,0.4c0-0.2-0.1-0.3-0.1-0.5
		c-1.1-6.3-5.4-27.8-15.7-50.4c0,0,0,0,0,0c-0.2-0.4-0.4-0.9-0.6-1.3c0-0.1-0.1-0.1-0.1-0.2c-0.2-0.4-0.4-0.8-0.6-1.2
		c0-0.1-0.1-0.2-0.1-0.3c-0.2-0.4-0.4-0.8-0.6-1.2c-0.1-0.1-0.1-0.2-0.2-0.4c-0.2-0.4-0.4-0.8-0.6-1.1c-0.1-0.1-0.1-0.3-0.2-0.4
		c-0.2-0.4-0.4-0.8-0.6-1.1c0-0.1-0.1-0.2-0.1-0.3c-0.4-0.8-0.8-1.6-1.2-2.3c-0.1-0.1-0.1-0.2-0.2-0.3c-0.1-0.3-0.3-0.5-0.4-0.8
		c-0.1-0.2-0.3-0.5-0.4-0.7c-0.1-0.3-0.3-0.5-0.4-0.8c-0.1-0.3-0.3-0.5-0.4-0.8c-0.1-0.2-0.3-0.5-0.4-0.7c-0.2-0.3-0.3-0.6-0.5-0.8
		c-0.1-0.2-0.3-0.5-0.4-0.7c-0.2-0.3-0.3-0.6-0.5-0.8c-0.1-0.2-0.3-0.4-0.4-0.7c-0.2-0.3-0.4-0.6-0.5-0.9c-0.1-0.2-0.3-0.4-0.4-0.6
		c-0.2-0.3-0.4-0.6-0.6-0.9c-0.1-0.2-0.3-0.4-0.4-0.6c-0.2-0.3-0.4-0.7-0.7-1c-0.1-0.2-0.2-0.3-0.3-0.5c-0.3-0.5-0.7-1-1-1.5
		c0,0,0,0,0,0c0,0-0.1-0.1-0.1-0.1c0,0,0,0-0.1-0.1c0,0,0,0,0,0c0,0,0,0,0,0c0,0-0.1-0.1-0.1-0.1c0,0,0,0,0,0
		c-0.1-0.1-0.2-0.1-0.4-0.1c0,0,0,0,0,0c0,0-0.1,0-0.1,0c0,0,0,0,0,0c0,0,0,0,0,0c0,0,0,0,0,0c0,0-0.1,0-0.1,0c0,0,0,0-0.1,0
		c0,0,0,0,0,0c0,0,0,0-0.1,0c0,0,0,0,0,0c0,0,0,0-0.1,0c0,0,0,0-0.1,0c0,0,0,0-0.1,0c0,0,0,0,0,0c0,0,0,0,0,0c0,0-0.1,0.1-0.1,0.1
		c0,0,0,0,0,0c0,0,0,0,0,0c0,0-0.1,0.1-0.2,0.2c0,0,0,0-0.1,0.1c0,0-0.1,0.1-0.1,0.1c-0.2,0.2-0.4,0.4-0.7,0.7c0,0,0,0,0,0
		c-1.7,1.8-5.4,5.6-9.9,11.2C143.9,161.6,153.5,134.4,177.2,111z M106.9,184.3c1-2.5,14.2-32.6,58.2-69.7
		c-2.6,4.9-6.9,13.2-11.2,23.1c-1.7,2.9-3.3,5.7-4.7,8.4c-0.2,0.3-0.3,0.7-0.5,1c-0.1,0.1-0.1,0.3-0.2,0.4c-1.1,2.2-2.1,4.3-2.9,6.2
		c-1.3,3-2.4,5.7-3.4,8.2c-0.1,0.2-0.1,0.3-0.2,0.5c-0.1,0.2-0.1,0.4-0.2,0.6c-0.1,0.2-0.2,0.5-0.3,0.7c0,0.1-0.1,0.2-0.1,0.3
		c-0.1,0.2-0.1,0.3-0.2,0.5c0,0.1,0,0.1-0.1,0.2c-0.1,0.3-0.2,0.7-0.3,1c-0.1,0.2-0.1,0.3-0.1,0.4c-0.1,0.3-0.2,0.5-0.3,0.8
		c0,0.1-0.1,0.2-0.1,0.3c-0.3,0.9-0.5,1.7-0.8,2.4c-0.9,2.8-1.3,4.5-1.5,5.4c-0.1,0.2-0.1,0.4-0.1,0.6c-11.6,15.1-25.6,37.8-31,65.1
		V184.3z M115.1,266.3C115.1,266.3,115.1,266.4,115.1,266.3c0.2,0.3,0.4,0.6,0.6,0.9c0,0,0,0,0,0c0.4,0.7,0.8,1.3,1.3,2.1
		c0.3,0.5,0.6,1,0.9,1.5c0,0.1,0.1,0.1,0.1,0.2c0.1,0.2,0.2,0.4,0.3,0.6c0.1,0.2,0.2,0.3,0.3,0.5c0.1,0.2,0.2,0.4,0.3,0.5
		c0.1,0.2,0.2,0.3,0.2,0.5h-3.8c-17.1-18.6-38.6-30.5-48.7-35.5c6.5,1.2,17.4,4,29.1,10.7c0.1,0,0.1,0.1,0.2,0.1
		c0.5,0.3,1,0.6,1.5,0.9c0.1,0.1,0.2,0.1,0.4,0.2c0.4,0.3,0.9,0.6,1.4,0.8c0.2,0.1,0.4,0.2,0.5,0.3c0.4,0.3,0.8,0.5,1.2,0.8
		c0.2,0.2,0.5,0.3,0.7,0.5c0.3,0.2,0.7,0.5,1,0.7c0.3,0.2,0.6,0.4,0.9,0.6c0.3,0.2,0.6,0.4,0.9,0.7c0.3,0.2,0.7,0.5,1,0.7
		C105.7,255.1,110.3,259.1,115.1,266.3z M82,183.2c0.5-0.5,1-1,1.5-1.4c0.4-0.4,0.9-0.8,1.4-1.3c0.5-0.5,1-0.9,1.5-1.4
		c0.5-0.4,0.9-0.8,1.4-1.2c0.5-0.4,1-0.9,1.6-1.3c0.5-0.4,1-0.8,1.5-1.2c0.5-0.4,1.1-0.9,1.6-1.3c0.5-0.4,1-0.8,1.5-1.2
		c0.6-0.4,1.1-0.8,1.7-1.2c0.5-0.4,1-0.8,1.6-1.1c0.6-0.4,1.1-0.8,1.7-1.2c0.5-0.4,1.1-0.7,1.6-1.1c0.6-0.4,1.2-0.8,1.8-1.2
		c0.6-0.4,1.1-0.7,1.7-1.1c0.4-0.2,0.7-0.5,1.1-0.7v86.8c-0.1-0.1-0.2-0.1-0.3-0.2c-0.2-0.1-0.4-0.3-0.5-0.4
		c-0.2-0.1-0.4-0.2-0.5-0.4s-0.4-0.2-0.5-0.4c-0.2-0.1-0.4-0.2-0.5-0.4c-0.2-0.1-0.4-0.2-0.5-0.4c-0.2-0.1-0.4-0.2-0.5-0.4
		c-0.2-0.1-0.3-0.2-0.5-0.3c-0.2-0.1-0.4-0.2-0.5-0.3c-0.2-0.1-0.3-0.2-0.5-0.3c-0.2-0.1-0.4-0.2-0.5-0.3c-0.2-0.1-0.3-0.2-0.5-0.3
		c-0.2-0.1-0.4-0.2-0.5-0.3c-0.2-0.1-0.3-0.2-0.5-0.3c-0.2-0.1-0.4-0.2-0.5-0.3c-0.2-0.1-0.3-0.2-0.5-0.3c-0.2-0.1-0.4-0.2-0.6-0.3
		c-0.2-0.1-0.3-0.2-0.5-0.3c-0.2-0.1-0.4-0.2-0.6-0.3c-0.2-0.1-0.3-0.2-0.5-0.3c-0.2-0.1-0.4-0.2-0.6-0.3c-0.2-0.1-0.3-0.2-0.5-0.2
		c-0.2-0.1-0.4-0.2-0.6-0.3c-0.2-0.1-0.3-0.2-0.5-0.2c-0.2-0.1-0.4-0.2-0.6-0.3c-0.1-0.1-0.3-0.2-0.4-0.2c-0.2-0.1-0.4-0.2-0.6-0.3
		c-0.1-0.1-0.3-0.1-0.4-0.2c-0.2-0.1-0.4-0.2-0.6-0.3c-0.1-0.1-0.3-0.1-0.4-0.2c-0.2-0.1-0.4-0.2-0.6-0.3c-0.1-0.1-0.2-0.1-0.4-0.2
		c-0.2-0.1-0.5-0.2-0.7-0.3c-0.1,0-0.2-0.1-0.3-0.1c-0.3-0.1-0.5-0.2-0.8-0.3c-0.1,0-0.1-0.1-0.2-0.1c-0.7-0.3-1.3-0.5-1.9-0.8
		c0,0,0,0-0.1,0c-0.3-0.1-0.6-0.2-0.9-0.4c-0.1,0-0.1-0.1-0.2-0.1c-0.2-0.1-0.5-0.2-0.7-0.3c-0.1,0-0.2-0.1-0.3-0.1
		c-0.2-0.1-0.4-0.2-0.7-0.2c-0.1,0-0.2-0.1-0.3-0.1c-0.2-0.1-0.4-0.1-0.6-0.2c-0.1,0-0.2-0.1-0.3-0.1c-0.2-0.1-0.4-0.1-0.6-0.2
		c-0.1,0-0.2-0.1-0.3-0.1c-0.2-0.1-0.4-0.1-0.6-0.2c-0.1,0-0.2-0.1-0.3-0.1c-0.2-0.1-0.4-0.1-0.5-0.2c-0.1,0-0.2-0.1-0.3-0.1
		c-0.2-0.1-0.3-0.1-0.5-0.2c-0.1,0-0.2-0.1-0.3-0.1c-0.2-0.1-0.3-0.1-0.5-0.2c-0.1,0-0.2-0.1-0.3-0.1c-0.2,0-0.3-0.1-0.5-0.1
		c-0.1,0-0.2-0.1-0.3-0.1c-0.2,0-0.3-0.1-0.5-0.1c-0.1,0-0.2-0.1-0.3-0.1c-0.2,0-0.3-0.1-0.5-0.1c-0.1,0-0.2-0.1-0.3-0.1
		c-0.1,0-0.3-0.1-0.4-0.1c-0.1,0-0.2-0.1-0.3-0.1c-0.1,0-0.3-0.1-0.4-0.1c-0.1,0-0.2-0.1-0.3-0.1c-0.1,0-0.3-0.1-0.4-0.1
		c-0.1,0-0.2-0.1-0.3-0.1c-0.1,0-0.3-0.1-0.4-0.1c-0.1,0-0.2,0-0.3-0.1c-0.1,0-0.3-0.1-0.4-0.1c-0.1,0-0.2,0-0.3-0.1
		c-0.1,0-0.3-0.1-0.4-0.1c-0.1,0-0.2,0-0.3-0.1c-0.1,0-0.3-0.1-0.4-0.1c-0.1,0-0.2,0-0.3-0.1c-0.1,0-0.2,0-0.4-0.1
		c-0.1,0-0.2,0-0.3-0.1c-0.1,0-0.2,0-0.3-0.1c-0.1,0-0.2,0-0.3-0.1c-0.1,0-0.2,0-0.3-0.1c-0.1,0-0.2,0-0.3,0c-0.1,0-0.2,0-0.3-0.1
		c-0.1,0-0.2,0-0.3,0c-0.1,0-0.2,0-0.3-0.1c-0.1,0-0.2,0-0.2,0c-0.1,0-0.2,0-0.3-0.1c-0.1,0-0.1,0-0.2,0c-0.1,0-0.2,0-0.3,0
		c-0.1,0-0.1,0-0.2,0c-0.1,0-0.2,0-0.3,0c-0.1,0-0.1,0-0.2,0c-0.1,0-0.2,0-0.3,0c-0.1,0-0.1,0-0.2,0c-0.1,0-0.2,0-0.2,0
		c-0.1,0-0.1,0-0.2,0c-0.1,0-0.2,0-0.2,0c-0.1,0-0.1,0-0.2,0c-0.1,0-0.1,0-0.2,0c-0.1,0-0.1,0-0.2,0c-0.1,0-0.1,0-0.2,0
		c0,0-0.1,0-0.1,0c-0.1,0-0.1,0-0.2,0c-0.1,0-0.1,0-0.1,0c-0.1,0-0.1,0-0.2,0c0,0-0.1,0-0.1,0c-0.1,0-0.1,0-0.2,0c0,0-0.1,0-0.1,0
		c-0.1,0-0.1,0-0.1,0c0,0-0.1,0-0.1,0c0,0-0.1,0-0.1,0c0,0-0.1,0-0.1,0c0,0-0.1,0-0.1,0c0,0-0.1,0-0.1,0c0,0-0.1,0-0.1,0
		c0,0-0.1,0-0.1,0c0,0-0.1,0-0.1,0c0,0,0,0,0,0c0,0-0.1,0-0.1,0c0,0,0,0,0,0c0,0,0,0,0,0c0,0,0,0-0.1,0c0,0,0,0,0,0c0,0,0,0,0,0
		c-0.1,0-0.1,0-0.2,0c0,0,0,0,0,0c0,0-0.1,0-0.1,0h0c-0.1,0-0.1,0.1-0.2,0.1c0,0,0,0,0,0c0,0,0,0-0.1,0l0,0c0,0,0,0,0,0
		c-0.1,0.1-0.1,0.1-0.2,0.2c-0.1,0.1-2.3,3.4-5.4,9.8c-1.6,3.4-3.7,8.1-5.7,13.9c0,0,0,0.1,0,0.1c-0.2,0.5-0.4,1.1-0.6,1.6
		c-0.1,0.2-0.1,0.3-0.2,0.5c-0.2,0.4-0.3,0.9-0.5,1.4c-0.1,0.3-0.2,0.5-0.3,0.8c-0.1,0.4-0.3,0.8-0.4,1.2c-0.1,0.3-0.2,0.7-0.3,1
		c-0.1,0.4-0.2,0.7-0.3,1.1c-0.1,0.4-0.2,0.7-0.3,1.1c-0.1,0.4-0.2,0.7-0.3,1.1c-0.1,0.4-0.2,0.8-0.3,1.2c-0.1,0.4-0.2,0.7-0.3,1.1
		c-0.1,0.4-0.2,0.8-0.3,1.2c-0.1,0.3-0.1,0.5-0.2,0.8l-0.8,0h0c0-0.6,0.1-1.3,0.2-1.9c0.1-0.7,0.1-1.5,0.2-2.2
		c0.1-0.8,0.2-1.6,0.2-2.4c0.1-0.7,0.2-1.5,0.2-2.2c0.1-0.8,0.2-1.6,0.3-2.4c0.1-0.7,0.2-1.4,0.3-2.1c0.1-0.8,0.2-1.5,0.4-2.3
		c0.1-0.7,0.2-1.4,0.3-2.1c0.1-0.8,0.3-1.5,0.4-2.3c0.1-0.7,0.2-1.4,0.4-2c0.2-0.8,0.3-1.5,0.5-2.3c0.1-0.7,0.3-1.3,0.4-2
		c0.2-0.7,0.4-1.5,0.5-2.2c0.2-0.7,0.3-1.3,0.5-2c0.2-0.7,0.4-1.5,0.6-2.2c0.2-0.6,0.3-1.3,0.5-1.9c0.2-0.7,0.4-1.4,0.6-2.2
		c0.2-0.6,0.4-1.3,0.6-1.9c0.2-0.7,0.5-1.4,0.7-2.1c0.2-0.6,0.4-1.2,0.6-1.8c0.2-0.7,0.5-1.4,0.8-2.1c0.2-0.6,0.4-1.2,0.7-1.8
		c0.3-0.7,0.6-1.4,0.8-2.1c0.2-0.6,0.5-1.1,0.7-1.7c0.3-0.7,0.6-1.4,0.9-2.1c0.2-0.5,0.5-1.1,0.7-1.6c0.3-0.7,0.7-1.4,1-2.1
		c0.2-0.5,0.5-1,0.7-1.5c0.4-0.8,0.8-1.5,1.2-2.3c0.2-0.4,0.4-0.8,0.6-1.3c0.6-1.2,1.3-2.3,1.9-3.4c0.6-1.1,1.3-2.2,2-3.3
		c0.2-0.4,0.5-0.7,0.7-1.1c0.5-0.7,0.9-1.4,1.4-2.1c0.3-0.4,0.6-0.8,0.9-1.3c0.4-0.6,0.9-1.3,1.3-1.9c0.3-0.4,0.7-0.9,1-1.3
		c0.4-0.6,0.9-1.2,1.3-1.8c0.3-0.4,0.7-0.9,1.1-1.3c0.4-0.6,0.9-1.1,1.3-1.7c0.4-0.4,0.8-0.9,1.1-1.3c0.5-0.5,0.9-1.1,1.4-1.6
		c0.4-0.4,0.8-0.9,1.2-1.3c0.5-0.5,0.9-1,1.4-1.5c0.4-0.4,0.8-0.9,1.2-1.3c0.5-0.5,1-1,1.4-1.5C81.1,184.1,81.6,183.7,82,183.2z
		 M62.5,199.8c5-5.9,10.7-11.5,17-16.8c-0.5,0.5-1,1-1.4,1.5c-0.4,0.4-0.9,0.9-1.3,1.3c-0.5,0.5-1,1-1.4,1.6
		c-0.4,0.5-0.8,0.9-1.2,1.4c-0.5,0.5-0.9,1.1-1.4,1.6c-0.4,0.5-0.8,0.9-1.2,1.4c-0.5,0.6-0.9,1.1-1.4,1.7c-0.4,0.5-0.7,0.9-1.1,1.4
		c-0.5,0.6-0.9,1.2-1.3,1.8c-0.3,0.5-0.7,0.9-1,1.4c-0.5,0.6-0.9,1.3-1.3,1.9c-0.3,0.4-0.6,0.9-0.9,1.3c-0.5,0.7-0.9,1.4-1.4,2.2
		c-0.2,0.4-0.5,0.7-0.7,1.1c-0.7,1.1-1.4,2.2-2,3.4c-0.5,0.9-1,1.8-1.5,2.7c-0.1,0.2-0.2,0.3-0.3,0.5c-0.5,0.9-0.9,1.7-1.4,2.6
		c-0.1,0.2-0.2,0.3-0.3,0.5c-0.5,0.9-0.9,1.8-1.4,2.8c0,0.1-0.1,0.1-0.1,0.2c-0.4,0.9-0.8,1.8-1.3,2.7c-0.1,0.1-0.1,0.3-0.2,0.4
		c-0.4,0.9-0.8,1.9-1.2,2.8c-0.1,0.2-0.2,0.4-0.2,0.6c-0.4,1-0.8,1.9-1.1,2.9c0,0.1-0.1,0.2-0.1,0.4c-0.4,0.9-0.7,1.9-1,2.8
		c0,0.1-0.1,0.2-0.1,0.4c-0.3,1-0.7,2-1,3c-0.1,0.2-0.1,0.4-0.2,0.6c-0.3,1-0.6,2-0.9,3c0,0.2-0.1,0.3-0.1,0.5c-0.3,1-0.6,2-0.9,3
		c0,0.1,0,0.1-0.1,0.2c-0.3,1-0.6,2.1-0.8,3.2c0,0.2-0.1,0.4-0.1,0.6c-0.3,1-0.5,2.1-0.7,3.1c0,0.2-0.1,0.4-0.1,0.6
		c-0.2,1.1-0.5,2.2-0.7,3.3c0,0,0,0,0,0c-0.2,1.1-0.4,2.2-0.6,3.4c0,0.2-0.1,0.4-0.1,0.6c-0.2,1.1-0.4,2.2-0.5,3.3
		c0,0.2-0.1,0.4-0.1,0.6c-0.2,1.1-0.3,2.3-0.5,3.4c0,0,0,0,0,0.1c0,0,0-0.1,0-0.1c0-0.3-0.1-0.7-0.1-1c0,0,0-0.1,0-0.1
		c0-0.4-0.1-0.7-0.1-1.1c0,0,0-0.1,0-0.1c0-0.4-0.1-0.7-0.1-1.1c0,0,0-0.1,0-0.1c0-0.4-0.1-0.8-0.1-1.1c0,0,0-0.1,0-0.1
		c-0.1-0.4-0.1-0.8-0.2-1.2c0,0,0-0.1,0-0.1c-0.1-0.4-0.1-0.8-0.2-1.2c0,0,0,0,0-0.1c-0.1-0.4-0.1-0.8-0.2-1.2c0,0,0,0,0-0.1
		c-0.1-0.4-0.1-0.8-0.2-1.1c0,0,0,0,0-0.1c-0.1-0.4-0.1-0.8-0.2-1.1c0,0,0,0,0-0.1c-0.1-0.4-0.2-0.7-0.2-1.1c0,0,0,0,0-0.1
		c-0.1-0.4-0.2-0.7-0.2-1.1c0,0,0,0,0-0.1c-0.1-0.4-0.2-0.7-0.3-1c0,0,0,0,0-0.1c-0.1-0.3-0.2-0.7-0.3-1c0,0,0,0,0-0.1
		c-0.1-0.3-0.2-0.6-0.3-1c0,0,0,0,0-0.1c-0.1-0.3-0.2-0.6-0.3-0.9c0,0,0,0,0-0.1c-0.1-0.3-0.2-0.6-0.3-0.8c0,0,0,0,0,0
		C43.4,227.9,51.4,213,62.5,199.8z M12.7,247.7c-1.1-1.6-2.2-3-3.1-4.2c-0.8-1.1-1.6-2-2.2-2.6c0.2,0,0.4,0,0.6,0c0.1,0,0.2,0,0.3,0
		c0.2,0,0.4,0,0.6,0c0.2,0,0.4,0,0.5,0c0.2,0,0.4,0,0.6,0c0.2,0,0.4,0,0.6,0c0.2,0,0.4,0,0.6,0c0.2,0,0.4,0,0.6,0c0.2,0,0.4,0,0.6,0
		c0.2,0,0.4,0,0.6,0c0.2,0,0.4,0,0.6,0c0.2,0,0.4,0,0.6,0.1c0.2,0,0.4,0,0.5,0.1c0.2,0,0.4,0,0.6,0.1c0.2,0,0.4,0,0.5,0.1
		c0.2,0,0.4,0,0.6,0.1c0.2,0,0.3,0,0.5,0.1c0.2,0,0.4,0.1,0.7,0.1c0.2,0,0.3,0,0.5,0.1c0.2,0,0.4,0.1,0.7,0.1c0.2,0,0.3,0,0.5,0.1
		c0.2,0,0.4,0.1,0.7,0.1c0.2,0,0.3,0,0.5,0.1c0.2,0,0.4,0.1,0.7,0.1c0.2,0,0.3,0,0.5,0.1c0.2,0,0.4,0.1,0.7,0.1c0.2,0,0.3,0,0.5,0.1
		c0.2,0,0.4,0.1,0.7,0.1c0.1,0,0.3,0,0.4,0.1c0.2,0,0.4,0.1,0.7,0.1c0.1,0,0.3,0,0.4,0.1c0.2,0,0.4,0.1,0.6,0.1c0.1,0,0.3,0,0.4,0.1
		c0.2,0,0.4,0.1,0.6,0.1c0.1,0,0.3,0,0.4,0.1c0.2,0,0.4,0.1,0.6,0.1c0.1,0,0.2,0,0.4,0.1c0.2,0,0.4,0.1,0.6,0.1c0.1,0,0.2,0,0.4,0.1
		c0.2,0,0.4,0.1,0.6,0.1c0.1,0,0.2,0,0.3,0.1c0.2,0,0.4,0.1,0.6,0.1c0.1,0,0.2,0,0.3,0.1c0.2,0,0.3,0.1,0.5,0.1c0.1,0,0.2,0,0.4,0.1
		c0.2,0,0.3,0.1,0.5,0.1c0.1,0,0.2,0,0.4,0.1c0.1,0,0.3,0.1,0.4,0.1c0.1,0,0.2,0,0.4,0.1c0.1,0,0.2,0,0.4,0.1c0.1,0,0.2,0.1,0.4,0.1
		c0.1,0,0.2,0,0.3,0.1c0.1,0,0.2,0,0.4,0.1c0.1,0,0.2,0,0.3,0.1c0.1,0,0.2,0,0.3,0.1c0.1,0,0.2,0,0.2,0c0.1,0,0.2,0,0.3,0.1
		c0.1,0,0.2,0,0.2,0c0.1,0,0.2,0,0.3,0.1c0.1,0,0.1,0,0.2,0c0.1,0,0.2,0,0.3,0.1c0,0,0,0,0,0c0.3,0.1,0.5,0.1,0.6,0.1c0,0,0,0,0,0
		c0,0,0,0,0,0.1c0.1,0.2,0.2,0.4,0.2,0.6c0,0,0,0.1,0,0.1c0.1,0.2,0.2,0.4,0.2,0.7c0,0.1,0,0.1,0.1,0.2c0.1,0.2,0.1,0.5,0.2,0.7
		c0,0,0,0.1,0,0.1c0.1,0.2,0.1,0.5,0.2,0.7c0,0,0,0.1,0,0.1c0.1,0.3,0.1,0.5,0.2,0.8c0,0.1,0,0.1,0,0.2c0.1,0.3,0.1,0.5,0.2,0.8
		c0,0.1,0,0.1,0,0.2c0.1,0.3,0.1,0.6,0.2,0.8c0,0,0,0.1,0,0.1c0.1,0.3,0.1,0.6,0.2,0.8c0,0,0,0.1,0,0.1c0.1,0.3,0.1,0.6,0.2,0.9
		c0,0.1,0,0.1,0,0.2c0.1,0.3,0.1,0.6,0.2,0.9c0,0,0,0.1,0,0.1c0.1,0.3,0.1,0.6,0.1,0.9c0,0,0,0,0,0.1c0,0.3,0.1,0.6,0.1,0.9
		c0,0.1,0,0.1,0,0.2c0,0.3,0.1,0.6,0.1,0.9c0,0.1,0,0.1,0,0.2c0,0.3,0.1,0.6,0.1,0.9c0,0,0,0,0,0c0,0.3,0.1,0.6,0.1,1
		c0,0,0,0.1,0,0.1c0,0.3,0.1,0.6,0.1,0.9c0,0,0,0.1,0,0.1c0,0.3,0.1,0.6,0.1,0.9c0,0,0,0.1,0,0.1c0,0.3,0.1,0.6,0.1,1l0,0
		c0,0.3,0.1,0.6,0.1,0.9c0,0,0,0.1,0,0.1c0,0.3,0.1,0.6,0.1,0.9c0,0,0,0.1,0,0.1c0.1,0.6,0.1,1.2,0.2,1.8c0,0,0,0.1,0,0.1
		c0,0.3,0,0.5,0.1,0.8c0,0,0,0.1,0,0.1c0,0.3,0,0.5,0.1,0.8c0,0,0,0,0,0c0,0.3,0,0.5,0.1,0.8c0,0,0,0,0,0c0,0.2,0,0.5,0,0.7
		c0,0,0,0,0,0.1c0,0.2,0,0.5,0,0.7c0,0,0,0,0,0.1c0,0.2,0,0.4,0,0.6c0,0,0,0,0,0c0,0.2,0,0.4,0,0.6c0,0,0,0.1,0,0.1
		c0,0.2,0,0.3,0,0.5c0,0,0,0.1,0,0.1c0,0.1,0,0.3,0,0.4c0,0,0,0.1,0,0.1c0,0.1,0,0.2,0,0.3c0,0,0,0,0,0h-16
		C22.1,262.5,16.9,253.7,12.7,247.7z M157.7,297.3H25.6v-3.7h132.1V297.3z M157.7,291.8H25.6V290h132.1V291.8z M25.6,288v-3.7h145.7
		v3.7H25.6z M207.9,297.3h-48.3v-3.7h48.3V297.3z M207.9,291.8h-48.3V290h48.3V291.8z M342,297.3H209.8v-3.7H342V297.3z M342,291.8
		H209.8V290H342V291.8z M342,288H196.2v-3.7H342V288z M342,282.5H196.2v-1.8H342V282.5z M342,278.7H196.2v-3.7h37.7c0,0,0,0,0,0h108
		V278.7z M358,243.5c-0.9,1.2-2,2.6-3.1,4.2c-4.2,6-9.4,14.8-12.7,25.4h-16c0,0,0,0,0,0c0-0.1,0-0.3,0-0.4c0,0,0,0,0,0
		c0-0.2,0-0.3,0-0.5v0c0.1-2.3,0.4-6.4,0.9-10.9c0-0.3,0.1-0.6,0.1-0.9c0,0,0,0,0,0c0.1-1,0.2-2.1,0.4-3.1c0,0,0,0,0-0.1
		c0-0.3,0.1-0.7,0.1-1c0,0,0,0,0-0.1c0.1-0.7,0.2-1.3,0.3-2c0,0,0,0,0-0.1c0.1-0.3,0.1-0.6,0.2-0.9c0,0,0-0.1,0-0.1
		c0.1-0.3,0.1-0.6,0.2-0.9c0,0,0-0.1,0-0.1c0.1-0.3,0.1-0.6,0.2-0.9c0,0,0,0,0,0c0.1-0.3,0.1-0.6,0.2-0.9c0-0.1,0-0.1,0-0.2
		c0.1-0.3,0.1-0.5,0.2-0.8c0-0.1,0-0.1,0-0.2c0.1-0.3,0.1-0.5,0.2-0.8c0,0,0,0,0-0.1c0.1-0.2,0.1-0.5,0.2-0.7c0,0,0-0.1,0-0.1
		c0.1-0.2,0.1-0.5,0.2-0.7c0-0.1,0-0.1,0.1-0.2c0.1-0.2,0.2-0.5,0.2-0.7c0,0,0-0.1,0-0.1c0.1-0.2,0.2-0.4,0.2-0.6c0,0,0,0,0-0.1l0,0
		c0.1,0,0.2,0,0.3-0.1c0.1,0,0.1,0,0.2,0c0.1,0,0.1,0,0.2,0c0,0,0.1,0,0.1,0c0.1,0,0.2,0,0.3-0.1c0,0,0.1,0,0.1,0
		c0.1,0,0.2-0.1,0.4-0.1c0.1,0,0.1,0,0.2,0c0.1,0,0.2-0.1,0.4-0.1c0.1,0,0.2,0,0.2-0.1c0.1,0,0.2-0.1,0.4-0.1c0.1,0,0.2,0,0.3-0.1
		c0.1,0,0.3-0.1,0.4-0.1c0.1,0,0.2,0,0.3-0.1c0.1,0,0.3-0.1,0.4-0.1c0.1,0,0.2,0,0.3-0.1c0.2,0,0.3-0.1,0.5-0.1c0.1,0,0.2,0,0.3-0.1
		c0.2,0,0.3-0.1,0.5-0.1c0.1,0,0.2,0,0.3-0.1c0.2,0,0.4-0.1,0.5-0.1c0.1,0,0.2,0,0.3-0.1c0.2,0,0.4-0.1,0.6-0.1c0.1,0,0.2,0,0.3-0.1
		c0.2,0,0.4-0.1,0.6-0.1c0.1,0,0.2,0,0.3-0.1c0.2,0,0.4-0.1,0.6-0.1c0.1,0,0.2,0,0.4-0.1c0.2,0,0.4-0.1,0.6-0.1c0.1,0,0.3,0,0.4-0.1
		c0.2,0,0.4-0.1,0.6-0.1c0.1,0,0.3,0,0.4-0.1c0.2,0,0.4-0.1,0.7-0.1c0.1,0,0.3,0,0.4-0.1c0.2,0,0.4-0.1,0.7-0.1c0.1,0,0.3,0,0.4-0.1
		c0.2,0,0.4-0.1,0.7-0.1c0.2,0,0.3,0,0.5-0.1c0.2,0,0.4-0.1,0.7-0.1c0.2,0,0.3,0,0.5-0.1c0.2,0,0.4-0.1,0.7-0.1c0.2,0,0.3,0,0.5-0.1
		c0.2,0,0.4-0.1,0.7-0.1c0.2,0,0.3,0,0.5-0.1c0.2,0,0.4-0.1,0.6-0.1c0.2,0,0.3,0,0.5-0.1c0.2,0,0.4-0.1,0.6-0.1c0.2,0,0.4,0,0.5-0.1
		c0.2,0,0.4,0,0.6-0.1c0.2,0,0.4,0,0.5-0.1c0.2,0,0.4,0,0.6-0.1c0.2,0,0.4,0,0.6-0.1c0.2,0,0.4,0,0.6-0.1c0.2,0,0.4,0,0.6,0
		c0.2,0,0.4,0,0.6,0c0.2,0,0.4,0,0.6,0c0.2,0,0.4,0,0.6,0c0.2,0,0.4,0,0.6,0c0.2,0,0.4,0,0.6,0c0.2,0,0.4,0,0.6,0c0.2,0,0.4,0,0.5,0
		c0.2,0,0.4,0,0.6,0c0.1,0,0.2,0,0.3,0c0.2,0,0.4,0,0.6,0C359.6,241.5,358.9,242.4,358,243.5z"/>
</g>
<g>
	<path class="st0" d="M1397.8,206.9c-0.2-0.3-0.5-0.5-0.9-0.5h-5.3v-5.3c0-0.5-0.4-1-1-1h-3.3v-13.6h3.3c0.5,0,1-0.4,1-1v-6
		c0-0.5-0.4-1-1-1h-5.6v-8.6c0-0.5-0.4-1-1-1h-86.7v-63.4h1.4c0.5,0,1-0.4,1-1v-3.5c0-0.5-0.4-1-1-1h-1.4
		c-0.6-14.5-13.6-22.1-16.6-23.7v-9.7c0-0.5-0.4-1-1-1c-0.5,0-1,0.4-1,1v9.7c-2.9,1.5-16,9.1-16.6,23.7h-1.4c-0.5,0-1,0.4-1,1v3.5
		c0,0.5,0.4,1,1,1h1.4v22.8h-106v-22.8h1.4c0.5,0,1-0.4,1-1v-3.5c0-0.5-0.4-1-1-1h-1.4c-0.6-14.5-13.6-22.1-16.6-23.7v-9.7
		c0-0.5-0.4-1-1-1c-0.5,0-1,0.4-1,1v9.7c-2.9,1.5-16,9.1-16.6,23.7h-1.4c-0.5,0-1,0.4-1,1v3.5c0,0.5,0.4,1,1,1h1.4v63.4h-86.7
		c-0.5,0-1,0.4-1,1v8.6h-5.6c-0.5,0-1,0.4-1,1v6c0,0.5,0.4,1,1,1h3.3v13.6h-3.3c-0.5,0-1,0.4-1,1v5.3h-5.3c-0.3,0-0.7,0.2-0.9,0.5
		c-0.2,0.3-0.2,0.7,0,1l7.3,13.5c0.2,0.3,0.5,0.5,0.9,0.5h2.3v76.1c0,0.5,0.4,1,1,1h41.4c0.5,0,1-0.4,1-1v-20.3h0.3c0.5,0,1-0.4,1-1
		v-5.2c0-3.3,1.8-6.4,4.8-7.9l5.7-3l5.7,3c2.9,1.6,4.8,4.6,4.8,7.9v5.2c0,0.5,0.4,1,1,1h0.3v20.3c0,0.5,0.4,1,1,1h79.1
		c0.5,0,1-0.4,1-1v-50.9h2.1c0.5,0,1-0.4,1-1v-12.6c0-8.6,4.7-16.5,12.4-20.5l14.6-7.7l14.6,7.7c7.6,4,12.4,11.9,12.4,20.5v12.6
		c0,0.5,0.4,1,1,1h2.1v50.9c0,0.5,0.4,1,1,1h79.1c0.5,0,1-0.4,1-1v-20.3h0.3c0.5,0,1-0.4,1-1v-5.2c0-3.3,1.8-6.4,4.8-7.9l5.7-3
		l5.7,3c2.9,1.6,4.8,4.6,4.8,7.9v5.2c0,0.5,0.4,1,1,1h0.3v20.3c0,0.5,0.4,1,1,1h41.4c0.5,0,1-0.4,1-1V222h2.3c0.4,0,0.7-0.2,0.9-0.5
		l7.3-13.5C1398,207.6,1397.9,207.2,1397.8,206.9z M1389.7,202.1v4.3h-92.3v-4.3H1389.7z M1297.3,200.2v-13.6h61.9v13.6H1297.3z
		 M1361.2,200.2v-13.6h24.1v13.6H1361.2z M1389.7,180.5v4h-92.3v-4H1389.7z M1383,170.9v7.6h-85.7v-7.6H1383z M1279.7,78.1
		c2.4,1.3,15,8.3,15.6,21.9h-31.2C1264.7,86.5,1277.3,79.4,1279.7,78.1z M1261.7,103.5V102h36v1.5H1261.7z M1273.5,133.8v35.2h-9.4
		v-35.2H1273.5z M1264.1,131.8v-26.3h9.4v26.3H1264.1z M1273.5,170.9v7.6h-9.4v-7.6H1273.5z M1273.5,180.5v4h-9.4v-4H1273.5z
		 M1273.5,186.5v19.9h-9.4v-19.9H1273.5z M1273.5,208.4V220h-9.4v-11.6H1273.5z M1273.5,222v43.6h-9.4V222H1273.5z M1275.2,267.6
		h9.1l7.2,18.3H1268L1275.2,267.6z M1283.9,133.8v35.2h-8.4v-35.2H1283.9z M1275.5,131.8v-26.3h8.4v26.3H1275.5z M1283.9,170.9v7.6
		h-8.4v-7.6H1283.9z M1283.9,180.5v4h-8.4v-4H1283.9z M1283.9,186.5v19.9h-8.4v-19.9H1283.9z M1283.9,208.4V220h-8.4v-11.6H1283.9z
		 M1283.9,222v43.6h-8.4V222H1283.9z M1295.3,133.8v35.2h-9.4v-35.2H1295.3z M1285.9,131.8v-26.3h9.4v26.3H1285.9z M1295.3,170.9
		v7.6h-9.4v-7.6H1295.3z M1295.3,180.5v4h-9.4v-4H1295.3z M1295.3,186.5v19.9h-9.4v-19.9H1295.3z M1295.3,208.4V220h-9.4v-11.6
		H1295.3z M1295.3,222v43.6h-9.4V222H1295.3z M1286.4,267.6h9.2l0.7,2l1,2.8l4.8,13.6h-8.6L1286.4,267.6z M1263.1,269.5l0.7-2h9.2
		l-7.2,18.3h-8.6l4.8-13.6L1263.1,269.5z M1156.1,168.9v-28h106v28H1156.1z M1238.1,170.9v15.4h-10v-15.4H1238.1z M1226.1,170.9
		v15.4h-10v-15.4H1226.1z M1214.1,170.9v15.4h-10v-15.4H1214.1z M1202.1,170.9v15.4h-10v-15.4H1202.1z M1190.1,170.9v15.4h-10v-15.4
		H1190.1z M1178.1,170.9v15.4h-10v-15.4H1178.1z M1252.1,170.9h10v15.4h-10V170.9z M1262.1,130.3v8.7h-106v-8.7H1262.1z
		 M1138.5,78.1c2.4,1.3,15,8.3,15.6,21.9h-31.2C1123.5,86.5,1136.1,79.4,1138.5,78.1z M1120.5,103.5V102h36v1.5H1120.5z
		 M1132.3,133.8v35.2h-9.4v-35.2H1132.3z M1122.9,131.8v-26.3h9.4v26.3H1122.9z M1132.3,170.9v7.6h-9.4v-7.6H1132.3z M1132.3,180.5
		v4h-9.4v-4H1132.3z M1132.3,186.5v19.9h-9.4v-19.9H1132.3z M1132.3,208.4V220h-9.4v-11.6H1132.3z M1132.3,222v43.6h-9.4V222H1132.3
		z M1134,267.6h9.1l7.2,18.3h-23.4L1134,267.6z M1142.7,133.8v35.2h-8.4v-35.2H1142.7z M1134.3,131.8v-26.3h8.4v26.3H1134.3z
		 M1142.7,170.9v7.6h-8.4v-7.6H1142.7z M1142.7,180.5v4h-8.4v-4H1142.7z M1142.7,186.5v19.9h-8.4v-19.9H1142.7z M1142.7,208.4V220
		h-8.4v-11.6H1142.7z M1142.7,222v43.6h-8.4V222H1142.7z M1154.1,133.8v35.2h-9.4v-35.2H1154.1z M1144.7,131.8v-26.3h9.4v26.3
		H1144.7z M1154.1,170.9v7.6h-9.4v-7.6H1154.1z M1154.1,180.5v4h-9.4v-4H1154.1z M1154.1,186.5v19.9h-9.4v-19.9H1154.1z
		 M1154.1,208.4V220h-9.4v-11.6H1154.1z M1154.1,222v43.6h-9.4V222H1154.1z M1145.2,267.6h9.2l0.7,2l1,2.8l4.8,13.6h-8.6
		L1145.2,267.6z M1121.9,269.5l0.7-2h9.2l-7.2,18.3h-8.6l4.8-13.6L1121.9,269.5z M1120.9,200.2H1059v-13.6h61.9V200.2z
		 M1035.2,170.9h85.7v7.6h-85.7V170.9z M1028.6,184.6v-4h92.3v4H1028.6z M1057,186.5v13.6h-24.1v-13.6H1057z M1028.6,202.1h92.3v4.3
		h-92.3V202.1z M1029.2,220l-6.2-11.6h97.9V220H1029.2z M1057,297.1h-24.1V222h24.1V297.1z M1107.5,297.1h-7.6v-20.3
		c0-0.5-0.4-1-1-1h-0.3v-4.2c0-4.1-2.2-7.8-5.8-9.7l-6.2-3.3c-0.3-0.2-0.6-0.2-0.9,0l-6.2,3.3c-3.6,1.9-5.8,5.6-5.8,9.7v4.2h-0.3
		c-0.5,0-1,0.4-1,1v20.3h-7.6v-70.4h42.9V297.1z M1113.8,286.6c0,0,0,0.1,0,0.1c0,0,0,0.1,0,0.1c0,0,0,0,0,0.1v10.2h-4.2v-71.4
		c0-0.5-0.4-1-1-1h-44.8c-0.5,0-1,0.4-1,1v71.4h-3.7V222h61.9v44.4L1113.8,286.6C1113.8,286.6,1113.8,286.6,1113.8,286.6z
		 M1161.3,297.1h-45.6v-9.2h45.6V297.1z M1166.1,297.1h-2.8V287c0,0,0-0.1,0-0.1c0-0.2,0-0.3-0.1-0.5l-7.1-20v-78.1h10V297.1z
		 M1166.1,186.3h-10v-15.4h10V186.3z M1250.1,297.1h-8.9v-50.9c0-0.5-0.4-1-1-1h-2.1v-11.6c0-9.4-5.1-17.9-13.4-22.3l-15.1-8
		c-0.3-0.2-0.6-0.2-0.9,0l-15.1,8c-8.3,4.4-13.4,12.9-13.4,22.3v11.6h-2.1c-0.5,0-1,0.4-1,1v50.9h-8.9V188.3h82V297.1z
		 M1250.1,186.3h-10v-15.4h10V186.3z M1255,286.6c0,0,0,0.1,0,0.1c0,0,0,0.1,0,0.1c0,0,0,0,0,0.1v10.2h-2.8V188.3h10v78.1
		L1255,286.6C1255,286.6,1255,286.6,1255,286.6z M1302.5,297.1h-45.6v-9.2h45.6V297.1z M1353.6,297.1h-7.6v-20.3c0-0.5-0.4-1-1-1
		h-0.3v-4.2c0-4.1-2.2-7.8-5.8-9.7l-6.2-3.3c-0.3-0.2-0.6-0.2-0.9,0l-6.2,3.3c-3.6,1.9-5.8,5.6-5.8,9.7v4.2h-0.3c-0.5,0-1,0.4-1,1
		v20.3h-7.6v-70.4h42.9V297.1z M1359.3,297.1h-3.7v-71.4c0-0.5-0.4-1-1-1h-44.8c-0.5,0-1,0.4-1,1v71.4h-4.2v-10.2c0,0,0,0,0-0.1
		c0,0,0-0.1,0-0.1c0,0,0-0.1,0-0.1c0,0,0,0,0,0l-7.1-20.2V222h61.9V297.1z M1385.4,297.1h-24.1V222h24.1V297.1z M1389.1,220h-91.7
		v-11.6h97.9L1389.1,220z M1063.7,197.9h44.8c0.5,0,1-0.4,1-1v-7.2c0-0.5-0.4-1-1-1h-44.8c-0.5,0-1,0.4-1,1v7.2
		C1062.7,197.5,1063.1,197.9,1063.7,197.9z M1064.7,190.7h42.9v5.2h-42.9V190.7z M1354.6,188.8h-44.8c-0.5,0-1,0.4-1,1v7.2
		c0,0.5,0.4,1,1,1h44.8c0.5,0,1-0.4,1-1v-7.2C1355.5,189.2,1355.1,188.8,1354.6,188.8z M1353.6,196h-42.9v-5.2h42.9V196z
		 M1177.9,166h62.4v-22.1h-62.4V166z M1179.9,145.9h58.5V164h-58.5V145.9z"/>
</g>
<path class="st0" d="M1110.1,170.8h3.7v-1.8c0-1-0.8-1.8-1.8-1.8h-2.7c-1.1-27.1-25.4-41.3-30.9-44.1v-18.1c0-1-0.8-1.8-1.8-1.8
	s-1.8,0.8-1.8,1.8V123c-5.4,2.8-29.8,17-30.9,44.1h-2.7c-1,0-1.8,0.8-1.8,1.8v1.8h3.7H1110.1z M1076.5,126.2
	c4.6,2.3,28,15.6,29.1,40.9h-58.1C1048.5,141.7,1071.9,128.5,1076.5,126.2z"/>
<path class="st0" d="M1379.1,171.8h3.7v-1.8c0-1-0.8-1.8-1.8-1.8h-2.7c-1.1-27.1-25.4-41.3-30.9-44.1v-18.1c0-1-0.8-1.8-1.8-1.8
	s-1.8,0.8-1.8,1.8V124c-5.4,2.8-29.8,17-30.9,44.1h-2.7c-1,0-1.8,0.8-1.8,1.8v1.8h3.7H1379.1z M1345.5,127.2
	c4.6,2.3,28,15.6,29.1,40.9h-58.1C1317.5,142.7,1340.9,129.5,1345.5,127.2z"/>
</svg>
