<?xml version="1.0" encoding="utf-8"?>
<!-- Generator: Adobe Illustrator 19.0.0, SVG Export Plug-In . SVG Version: 6.00 Build 0)  -->
<svg version="1.1" id="Layer_1" xmlns="http://www.w3.org/2000/svg" xmlns:xlink="http://www.w3.org/1999/xlink" x="0px" y="0px"
	 viewBox="0 0 585 490.5" style="enable-background:new 0 0 585 490.5;" xml:space="preserve">
<style type="text/css">
	.st0{fill:#6F98C9;}
	.st1{fill:#46201A;}
	.st2{fill:#231010;}
	.st3{fill:#F4B990;}
	.st4{fill:#13173A;}
	.st5{fill:url(#SVGID_1_);}
	.st6{fill:none;stroke:#DBDBDB;stroke-width:7;stroke-linecap:round;stroke-miterlimit:10;}
	.st7{fill:url(#SVGID_2_);}
	.st8{fill:#BCCEC1;}
	.st9{fill:none;stroke:#E2D0C3;stroke-width:3;stroke-miterlimit:10;}
	.st10{fill:#FFE8D7;}
	.st11{fill:#7DE2D1;}
	.st12{fill:#CCCCCC;}
	.st13{fill:#EFEFEF;}
	.st14{fill:#DBDBDB;}
	.st15{fill:none;stroke:#B3C6BA;stroke-width:20;stroke-miterlimit:10;}
	.st16{opacity:0.5;fill:#E00300;}
	.st17{fill:none;stroke:#4C4C4C;stroke-linecap:round;stroke-miterlimit:10;}
	.st18{fill:url(#SVGID_3_);}
	.st19{fill:url(#SVGID_4_);}
	.st20{fill:url(#SVGID_5_);}
	.st21{fill-rule:evenodd;clip-rule:evenodd;fill:#DDDDDD;}
	.st22{opacity:0.5;fill-rule:evenodd;clip-rule:evenodd;fill:#E00300;}
	.st23{fill:#AAAAAA;}
	.st24{fill:#5B5B5B;}
	.st25{fill:#D1D1D1;}
	.st26{fill:#1BAA4E;}
	.st27{fill:#42E227;}
	.st28{fill:#00FF91;}
	.st29{opacity:0.5;}
	.st30{fill:#EBE2D0;}
	.st31{fill:url(#SVGID_6_);}
	.st32{fill:url(#SVGID_7_);}
	.st33{fill:url(#SVGID_8_);}
	.st34{opacity:0.75;fill:none;stroke:url(#SVGID_9_);stroke-miterlimit:10;}
	.st35{opacity:0.75;fill:none;stroke:url(#SVGID_10_);stroke-miterlimit:10;}
	.st36{fill:none;stroke:url(#SVGID_11_);stroke-miterlimit:10;}
	.st37{fill:none;stroke:url(#SVGID_12_);stroke-miterlimit:10;}
	.st38{fill:none;stroke:url(#SVGID_13_);stroke-miterlimit:10;}
	.st39{opacity:0.75;}
	.st40{fill:url(#SVGID_14_);}
	.st41{fill:url(#SVGID_15_);}
	.st42{fill:url(#SVGID_16_);}
	.st43{fill:url(#SVGID_17_);}
	.st44{fill:url(#SVGID_18_);}
	.st45{fill:url(#SVGID_19_);}
	.st46{fill:url(#SVGID_20_);}
	.st47{fill:url(#SVGID_21_);}
	.st48{fill:url(#SVGID_22_);}
	.st49{fill:url(#SVGID_23_);}
	.st50{fill:url(#SVGID_24_);}
	.st51{fill:url(#SVGID_25_);}
	.st52{fill:url(#SVGID_26_);}
	.st53{fill:url(#SVGID_27_);}
	.st54{fill:url(#SVGID_28_);}
	.st55{fill:url(#SVGID_29_);}
	.st56{fill:url(#SVGID_30_);}
	.st57{opacity:0.75;fill:none;stroke:url(#SVGID_31_);stroke-miterlimit:10;}
	.st58{opacity:0.75;fill:none;stroke:url(#SVGID_32_);stroke-miterlimit:10;}
	.st59{fill:none;stroke:url(#SVGID_33_);stroke-miterlimit:10;}
	.st60{fill:none;stroke:url(#SVGID_34_);stroke-miterlimit:10;}
	.st61{fill:url(#SVGID_35_);}
	.st62{fill:url(#SVGID_36_);}
	.st63{fill:url(#SVGID_37_);}
	.st64{fill:url(#SVGID_38_);}
	.st65{fill:url(#SVGID_39_);}
	.st66{fill:url(#SVGID_40_);}
	.st67{fill:url(#SVGID_41_);}
	.st68{fill:url(#SVGID_42_);}
	.st69{fill:url(#SVGID_43_);}
	.st70{fill:url(#SVGID_44_);}
	.st71{fill:#A05D22;}
	.st72{fill:#769324;}
	.st73{fill:#C1772D;}
</style>
<path class="st0" d="M339.9,388.6C339.9,388.6,339.9,388.5,339.9,388.6c4.7,0,9.4-1.2,13.5-3.6c0.7-0.4,1.3-0.8,2.1-0.9
	c1.3-0.1,2.3,0.9,3.2,1.8c5.1,5.1,10.1,10.2,15.1,15.4c2.2,2.3,4.3,4.6,5.6,7.5c0.5,1,0.7,2.4-0.1,3.1c-0.5,0.4-1.1,0.4-1.7,0.4
	c-3.1,0-6.3-0.5-9.3-1.2c-7.4-1.6-14.7-4.1-21.6-7.3c-2.9-1.3-5.8-2.8-8.1-4.9C334.4,395.3,337.5,392.2,339.9,388.6z"/>
<path class="st1" d="M158.1,154.7c0,0-15.5-67.8,20-79.6s46.1,15.5,48.6,24.1c0,0-3.1,1.8-1,5.3c2,3.5-1.4,52.9,12.9,79
	c0,0-8.4,6.9-32,9.8s-24.7-1.8-32.7-8.8C165.9,177.5,158.1,154.7,158.1,154.7z"/>
<path class="st0" d="M276,419c0.3-0.3,0.7-0.5,1.5-0.8c1.5-0.5,3.2-0.8,4.7-1.3c3.7-1,6.2-2.2,9.9-0.9c2.6,0.9,5.3,1.9,7.9,2.9
	c6.3,2.4,12.8,4.8,18.7,8.2c1.2,0.7,3.3,1.6,4.1,2.9c0.3,0.4,1,2-0.3,2c-9.7,0-19.4,0-29.1,0c-2.4,0-4.7,0-7.1,0
	c-1.8,0-4.6,0.5-6.3-0.1c-2-0.7-4.5-3.8-4.4-5.9c0.1-1.6,0.1-3.3,0.1-4.9C275.7,420,275.7,419.4,276,419z"/>
<path class="st2" d="M164.7,154.9c0,0-0.8-35.1,7.1-46.5s20.8-24.9,20.8-24.9s-14.2,13.3-14.2,26.3c0,1,0.1,1.9,0.2,2.9
	c2.4,13.9,23.8,22.7,24.8,24.9c1,2.2,6.1,15.3,2.7,26.9c-3.5,11.6-5.3,18.4-12.2,16.5c-6.9-1.8-14.9-9.4-19.6-13.7
	C169.6,163,164.7,154.9,164.7,154.9z"/>
<polygon class="st3" points="172.3,156.4 190.8,157 190.8,141.4 175.7,117.3 "/>
<path class="st3" d="M221.8,100.2c0,0-18-4.3-36.7-4.3c0,0-7.5,6.3-5.7,14.7c0,0-12.4-4.1-8.8,10.8c0,0,2.4,2.9,4.7,3.3
	c0,0-1.2,12.9,9.2,20s27.8,5.1,32-7.3S221.8,100.2,221.8,100.2z"/>
<path class="st4" d="M275.5,420.3c0,0,15.9,4.3,19.9-5.5c4-9.8,2.1-76.8,2.1-76.8s25.7,23.6,40.4,54.5c0,0,16.5,1.8,20.2-8.3
	c0,0-55.4-105.3-66.7-109s-110.5,0-110.5,0L140,303.5c0,0,4.8,13.3,51.6,10.6l81.4-6.7C273,307.3,266.6,392.1,275.5,420.3z"/>
<linearGradient id="SVGID_1_" gradientUnits="userSpaceOnUse" x1="137.6841" y1="230.2878" x2="215.8258" y2="230.2878">
	<stop  offset="0" style="stop-color:#E00300"/>
	<stop  offset="0.9896" style="stop-color:#FFD297"/>
</linearGradient>
<path class="st5" d="M164.6,155.9c1.1,0.4,21.8-1.5,29.5,1.6c1.3,0.5,2.2,1.1,2.5,1.8c2.5,5.1,18.2,29.1,19,34.7
	c0.8,5.7-1.8,13.6-10.8,14.3c0,0,1,64.1,1,65.1c0,1-9.2,7.2-9.2,7.2s-54.6,25-55.9,24.2s-7.6-20,2.4-37.1
	c10-17.1,14.7-15.1,14.7-15.1l0.6-51.8c0,0,7.7-23.7,8.9-33.1C168.7,158.3,164.6,155.9,164.6,155.9z"/>
<path class="st3" d="M194.1,157.5c0,0,11.1-1.6,13.2,7.3c2.1,9,13.1,39.2,13.1,39.2s5.7,27.8,46.5,38.4l-19,11.4
	c0,0-34.9-14.9-45.1-52.2S194.1,157.5,194.1,157.5z"/>
<path class="st6" d="M158.2,429.7c0.4-0.8,26.1-102.7,26.1-102.7l25.9,102.7"/>
<linearGradient id="SVGID_2_" gradientUnits="userSpaceOnUse" x1="146.2617" y1="323.7682" x2="222.4985" y2="323.7682">
	<stop  offset="0" style="stop-color:#E00300"/>
	<stop  offset="0.9896" style="stop-color:#FFD297"/>
</linearGradient>
<path class="st7" d="M146.3,335.5h75.1c0,0,4.8-15-5.6-23.4H154c0,0-8.3,1.6-7.7,10.8V335.5z"/>
<g>
	<path class="st8" d="M137.7,436.9c-2.2,0-4.3-1.5-4.8-3.8L97,289.1l-34,144c-0.6,2.7-3.3,4.3-6,3.7c-2.7-0.6-4.4-3.3-3.7-6
		l39.5-167.3l4,5.9l4.2-5.9l41.6,167.2c0.7,2.7-1,5.4-3.6,6.1C138.5,436.9,138.1,436.9,137.7,436.9z"/>
</g>
<g>
	<path class="st8" d="M442.9,436.9c-2.2,0-4.3-1.5-4.8-3.8l-35.8-144.1l-34,144c-0.6,2.7-3.3,4.3-6,3.7c-2.7-0.6-4.4-3.3-3.7-6
		l40.3-170.6l4.3,8l2.3-8l42.4,170.4c0.7,2.7-1,5.4-3.6,6.1C443.7,436.9,443.3,436.9,442.9,436.9z"/>
</g>
<g>
	<line class="st9" x1="72.4" y1="221.1" x2="108.5" y2="221.1"/>
	<polygon class="st10" points="74.7,222 80,261.4 101.6,261.4 106.1,222 	"/>
	<polygon class="st11" points="73.4,225.9 107.7,225.9 104.5,250.8 76.7,250.8 	"/>
	<g>
		<path class="st12" d="M81.9,212.4c1.1-0.8,2.1-1.5,3-2.4c0.9-0.8,1.8-1.7,2.4-2.6c0.3-0.4,0.5-0.9,0.6-1.3c0.1-0.4,0-0.8-0.1-1.1
			c-0.1-0.4-0.4-0.7-0.7-1.1c-0.3-0.4-0.7-0.7-1.2-1.2c-1-0.9-2-1.9-2.8-3.1c-0.2-0.3-0.4-0.6-0.6-1l-0.2-0.6
			c-0.1-0.2-0.1-0.4-0.2-0.6c-0.1-0.4-0.1-0.9-0.1-1.4c0.1-0.4,0.2-0.9,0.4-1.3c0.8-1.5,2.1-2.2,3.2-2.9c1.2-0.6,2.4-1.1,3.6-1.5
			c-0.9,1-1.9,1.8-2.8,2.7c-0.9,0.8-1.7,1.8-1.9,2.6c-0.5,1.4,1.5,3.2,3.2,4.8c0.4,0.4,1,0.9,1.5,1.5c0.5,0.6,0.9,1.3,1.2,2.2
			c0.2,0.9,0.2,1.8-0.1,2.7c-0.3,0.8-0.7,1.5-1.2,2c-1,1.1-2.2,1.8-3.4,2.4C84.5,211.8,83.2,212.2,81.9,212.4z"/>
	</g>
	<g>
		<path class="st12" d="M92.1,216.2c1.1-0.8,2.1-1.5,3-2.4c0.9-0.8,1.8-1.7,2.4-2.6c0.3-0.4,0.5-0.9,0.6-1.3c0.1-0.4,0-0.8-0.1-1.1
			c-0.1-0.4-0.4-0.7-0.7-1.1c-0.3-0.4-0.7-0.7-1.2-1.2c-1-0.9-2-1.9-2.8-3.1c-0.2-0.3-0.4-0.6-0.6-1l-0.2-0.6
			c-0.1-0.2-0.1-0.4-0.2-0.6c-0.1-0.4-0.1-0.9-0.1-1.4c0.1-0.4,0.2-0.9,0.4-1.3c0.8-1.5,2.1-2.2,3.2-2.9c1.2-0.6,2.4-1.1,3.6-1.5
			c-0.9,1-1.9,1.8-2.8,2.7c-0.9,0.8-1.7,1.8-1.9,2.6c-0.5,1.4,1.5,3.2,3.2,4.8c0.4,0.4,1,0.9,1.5,1.5c0.5,0.6,0.9,1.3,1.2,2.2
			c0.2,0.9,0.2,1.8-0.1,2.7c-0.3,0.8-0.7,1.5-1.2,2c-1,1.1-2.2,1.8-3.4,2.4C94.7,215.6,93.4,216,92.1,216.2z"/>
	</g>
</g>
<path class="st13" d="M247.5,251.4l25.9-54.3c0,0,4.9-5.1,16.5-2s10.8,13.3,10.4,22.5c-0.4,9.2-31.4,46-31.4,46l-42.4-0.1l2-12.3
	L247.5,251.4z"/>
<path class="st14" d="M284.7,194.1h74.9c0,0,3.5,2.5,0,11.5s-25.9,57.9-25.9,57.9h-81.2L284.7,194.1z"/>
<path class="st3" d="M152.6,161c0,0,3-7.6,12.8-4.8c9.8,2.8-8.4,48.3-9.2,55s-8.4,22.5,10,30.8c18.4,8.4,69,9.4,69,9.4
	s12.9,16.3-23.5,11l-41.6-1c0,0-34.7-7.3-35.5-29.2C133.8,210.4,152.6,161,152.6,161z"/>
<line class="st15" x1="36.9" y1="269.4" x2="464.7" y2="269.4"/>
<g>
	<circle class="st16" cx="56.2" cy="87.4" r="25.8"/>
	<polyline class="st17" points="70,85.5 56.2,94.4 41.3,81.3 	"/>
</g>
<g>
	<rect x="260.1" y="24.4" class="st16" width="129.5" height="95.5"/>
	<linearGradient id="SVGID_3_" gradientUnits="userSpaceOnUse" x1="259.7259" y1="55.2432" x2="305.7096" y2="55.2432">
		<stop  offset="1.037099e-002" style="stop-color:#FFFFFF;stop-opacity:0"/>
		<stop  offset="0.8662" style="stop-color:#FFFFFF;stop-opacity:0.8648"/>
		<stop  offset="1" style="stop-color:#FFFFFF"/>
	</linearGradient>
	<path class="st18" d="M259.7,71.1c0.5-2.8,33.8-46.7,33.8-46.7h12.2l-45.6,61.7L259.7,71.1z"/>
	<linearGradient id="SVGID_4_" gradientUnits="userSpaceOnUse" x1="328.7856" y1="82.2086" x2="389.618" y2="82.2086">
		<stop  offset="1.037099e-002" style="stop-color:#FFFFFF;stop-opacity:0"/>
		<stop  offset="0.8662" style="stop-color:#FFFFFF;stop-opacity:0.8648"/>
		<stop  offset="1" style="stop-color:#FFFFFF"/>
	</linearGradient>
	<path class="st19" d="M328.8,119.9c1.9-2.8,60.8-75.4,60.8-75.4v13.6L340,119.9H328.8z"/>
	<linearGradient id="SVGID_5_" gradientUnits="userSpaceOnUse" x1="284.7035" y1="72.1348" x2="347.4268" y2="72.1348">
		<stop  offset="0" style="stop-color:#FFFFFF"/>
		<stop  offset="0.1338" style="stop-color:#FFFFFF;stop-opacity:0.8648"/>
		<stop  offset="0.9896" style="stop-color:#FFFFFF;stop-opacity:0"/>
	</linearGradient>
	<polygon class="st20" points="284.7,119.9 342.2,24.4 347.4,24.4 289.6,119.9 	"/>
</g>
<g>
	<path class="st21" d="M555.9,110.5c-0.9-1.1-1.1-1.3-1.8-2.7c-1-1.9-2.5-4.4-4.5-5.3c-0.7-0.3-1.3-0.5-2.3-0.5l0-2.8
		c0-0.4,0.4-1,0.7-1.5c0.2-0.3,0.4-0.6,0.6-1c0.2-0.5,0.3-0.9,0.4-1.3c0-0.6-0.1-1.1-0.4-1.6c-0.3-0.5-0.7-0.9-1.2-1.1
		c-0.4-0.2-0.9-0.3-1.4-0.4c-0.6,0-1.1,0.1-1.5,0.4c-0.5,0.3-0.9,0.7-1.2,1.2c-0.1,0.2-0.2,0.4-0.3,0.5c-0.1,0.2-0.1,0.3-0.2,0.5
		c0,0.1,0,0.1,0,0.2c0,0,0,0.1,0,0.1c-0.1,0-0.2,0.1-0.3,0.2l0,0l0,0c0,0.1-0.1,0.2-0.1,0.3c0,0.3,0.2,0.5,0.5,0.5
		c0.3,0,0.5-0.2,0.5-0.5v0c0.1-0.1,0.1-0.2,0.1-0.3c0,0,0-0.1,0.1-0.2c0-0.1,0.1-0.3,0.1-0.4c0.1-0.1,0.1-0.3,0.3-0.4
		c0.3-0.4,0.6-0.7,0.9-0.9c0.3-0.2,0.7-0.3,1.1-0.3c0.4,0,0.8,0.1,1.1,0.3c0.4,0.2,0.7,0.5,0.9,0.8c0.2,0.3,0.3,0.7,0.3,1.2
		c0,0.3-0.1,0.7-0.3,1c-0.2,0.3-0.4,0.6-0.6,0.9c-0.4,0.7-0.9,1.3-0.9,2l0,2.2l0,0.6c-0.9,0-1.5,0.2-2.3,0.5c-2,0.9-3.5,3.3-4.5,5.3
		c-0.7,1.3-1,1.5-1.8,2.7c-0.5,0.7-1.4,1.4-2.5,2.2v0c0.5,0.7,0.9,1.3,1.4,1.9h0c4.9-3.2,9.7-6.3,10.1-6.6c0.4,0.3,5.2,3.4,10.2,6.6
		l0-0.1l1.3-1.9C557.3,111.9,556.4,111.1,555.9,110.5z"/>
	<path class="st22" d="M570,202c-1.2-16.8-1.6-26.3-8.3-42.4c0.4-3.6,0.9-7.1,1.4-10.7c1.3-8.6,2.2-12.5,4.8-17.8
		c1.1-2.2,2.4-4.6,4.2-7.8c0.5-0.9,1-1.7,1.5-2.6c-4.2-5.6-8.5-6.9-15.2-8.2l-0.1,0.2c-0.4,0.6-0.9,1.3-1.3,1.9l0,0.1l-20,0.4h0
		l-0.1-0.2l-0.2-0.3l-1.4-1.9v0l-0.1-0.2c-6.7,1.3-11,2.6-15.2,8.2c0.5,0.9,1,1.7,1.5,2.6c0.9,1.6,1.7,3.1,2.4,4.4
		c4,7.4,5,10.9,6.5,21.2c0.5,3.6,1,7.1,1.4,10.7c-6.7,16.1-7.2,25.6-8.3,42.4c-0.3,5-0.6,8.8-1.2,12.9c-0.5,3.3-1.2,6.2-1.4,9.5
		c5.9,3.2,7.5,3.9,14.1,3.1c1.4,0.8,3.7,1.7,5,0.9c3.6-2.3,4.2,0.4,7.1,0c2.9-0.4,3.3-2.3,7.1-0.2c2.6,0.9,2.6-0.9,5-0.7
		c6.4,0.5,6.6,0.5,13.3-3.2c-0.2-3.3-1-6.2-1.4-9.5C570.6,210.8,570.3,207,570,202z"/>
</g>
<g>
	<path class="st23" d="M517.2,438c0,2.7-8.1,5.2-18.2,5.2s-18.2-2.5-18.2-5.2s8.1-4.9,18.2-4.9S517.2,435.3,517.2,438z"/>
	<path class="st24" d="M512.9,440c0,1.4-6.4,3.5-14.3,3.5c-7.9,0-14.3-2.1-14.3-3.5c0-1.4,6.4-2.5,14.3-2.5
		C506.5,437.5,512.9,438.6,512.9,440z"/>
	<path class="st25" d="M480.8,437.7c0,0,15.8,11.9,36.4,0.1c0,0-1.9,29.7-9.3,31.3c-4.6,1-9.5,0.8-14.1,0.6
		c-2.7-0.1-7.1,0.6-9.1-1.6c-1.2-1.3-1.7-4-2-5.7C480.9,454.1,480.8,446,480.8,437.7z"/>
	<path class="st26" d="M493.6,440.5c0,0-20.9,0.8-12.4-25C481.2,415.4,505.8,424.7,493.6,440.5z"/>
	<path class="st27" d="M507.5,440.5c0,0-15.3-14.3,9.1-26.4C516.6,414.1,527.3,438,507.5,440.5z"/>
	<path class="st28" d="M500,442.5c0,0-19.4-7.8-1.2-27.9C498.8,414.6,517.6,433,500,442.5z"/>
</g>
<g>
	<g class="st29">
		<path class="st30" d="M454.4,159.6H385c-3.9-3.9-2.8-7.2-1.5-9h6.2c2.6,0,4.9-1.8,4.9-4.4v-1.8c0-2.3-2.1-4.4-4.9-4.4h-45.8
			c-2.6,0-4.9,2.1-4.9,4.4v1.8c0,2.3,2.1,4.4,4.9,4.4h5.9c1.3,1.8,2.3,5.1-1.5,9H331v17.7h48.1c3.9,3.9,2.8,7.2,1.5,9h-6.2
			c-2.6,0-4.9,1.8-4.9,4.4v1.8c0,2.3,2.1,4.4,4.9,4.4h45.8c2.6,0,4.9-1.8,4.9-4.4v-1.8c0-2.3-2.1-4.4-4.9-4.4h-3.6
			c-1.3-1.8-2.3-5.1,1.5-9h36.3c4.1,0,7.5-3.3,7.5-7.5v-2.8C461.9,163,458.6,159.6,454.4,159.6z"/>
	</g>
	<linearGradient id="SVGID_6_" gradientUnits="userSpaceOnUse" x1="281.696" y1="184.5604" x2="285.8453" y2="184.5604">
		<stop  offset="0" style="stop-color:#F89D89"/>
		<stop  offset="0.9896" style="stop-color:#FFD297"/>
	</linearGradient>
	<circle class="st31" cx="283.8" cy="184.6" r="2.1"/>
	<linearGradient id="SVGID_7_" gradientUnits="userSpaceOnUse" x1="383.7463" y1="87.0104" x2="387.8956" y2="87.0104">
		<stop  offset="0" style="stop-color:#F89D89"/>
		<stop  offset="0.9896" style="stop-color:#FFD297"/>
	</linearGradient>
	<circle class="st32" cx="385.8" cy="87" r="2.1"/>
	<linearGradient id="SVGID_8_" gradientUnits="userSpaceOnUse" x1="516.0586" y1="184.5604" x2="520.2079" y2="184.5604">
		<stop  offset="0" style="stop-color:#F89D89"/>
		<stop  offset="0.9896" style="stop-color:#FFD297"/>
	</linearGradient>
	<circle class="st33" cx="518.1" cy="184.6" r="2.1"/>
	<linearGradient id="SVGID_9_" gradientUnits="userSpaceOnUse" x1="330.4753" y1="46.0104" x2="335.1198" y2="46.0104">
		<stop  offset="0" style="stop-color:#004794"/>
		<stop  offset="1" style="stop-color:#001355"/>
	</linearGradient>
	<circle class="st34" cx="332.8" cy="46" r="1.8"/>
	<linearGradient id="SVGID_10_" gradientUnits="userSpaceOnUse" x1="557.3675" y1="137.4279" x2="562.012" y2="137.4279">
		<stop  offset="0" style="stop-color:#004794"/>
		<stop  offset="1" style="stop-color:#001355"/>
	</linearGradient>
	<circle class="st35" cx="559.7" cy="137.4" r="1.8"/>
	<linearGradient id="SVGID_11_" gradientUnits="userSpaceOnUse" x1="289.56" y1="120.6127" x2="295.307" y2="120.6127">
		<stop  offset="1.037099e-002" style="stop-color:#E77474"/>
		<stop  offset="1" style="stop-color:#AD4F53"/>
	</linearGradient>
	<path class="st36" d="M292.8,118.5l0.6,1.1c0,0.1,0.1,0.1,0.2,0.2l1.1,0.6c0.3,0.2,0.3,0.6,0,0.7l-1.1,0.6c-0.1,0-0.1,0.1-0.2,0.2
		l-0.6,1.1c-0.2,0.3-0.6,0.3-0.7,0l-0.6-1.1c0-0.1-0.1-0.1-0.2-0.2l-1.1-0.6c-0.3-0.2-0.3-0.6,0-0.7l1.1-0.6c0.1,0,0.1-0.1,0.2-0.2
		l0.6-1.1C292.2,118.2,292.6,118.2,292.8,118.5z"/>
	<linearGradient id="SVGID_12_" gradientUnits="userSpaceOnUse" x1="467.065" y1="65.8722" x2="472.812" y2="65.8722">
		<stop  offset="1.037099e-002" style="stop-color:#E77474"/>
		<stop  offset="1" style="stop-color:#AD4F53"/>
	</linearGradient>
	<path class="st37" d="M470.3,63.7l0.6,1.1c0,0.1,0.1,0.1,0.2,0.2l1.1,0.6c0.3,0.2,0.3,0.6,0,0.7l-1.1,0.6c-0.1,0-0.1,0.1-0.2,0.2
		l-0.6,1.1c-0.2,0.3-0.6,0.3-0.7,0L469,67c0-0.1-0.1-0.1-0.2-0.2l-1.1-0.6c-0.3-0.2-0.3-0.6,0-0.7l1.1-0.6c0.1,0,0.1-0.1,0.2-0.2
		l0.6-1.1C469.7,63.4,470.1,63.4,470.3,63.7z"/>
	<linearGradient id="SVGID_13_" gradientUnits="userSpaceOnUse" x1="537.107" y1="277.1857" x2="542.854" y2="277.1857">
		<stop  offset="1.037099e-002" style="stop-color:#E77474"/>
		<stop  offset="1" style="stop-color:#AD4F53"/>
	</linearGradient>
	<path class="st38" d="M540.3,275l0.6,1.1c0,0.1,0.1,0.1,0.2,0.2l1.1,0.6c0.3,0.2,0.3,0.6,0,0.7l-1.1,0.6c-0.1,0-0.1,0.1-0.2,0.2
		l-0.6,1.1c-0.2,0.3-0.6,0.3-0.7,0l-0.6-1.1c0-0.1-0.1-0.1-0.2-0.2l-1.1-0.6c-0.3-0.2-0.3-0.6,0-0.7l1.1-0.6c0.1,0,0.1-0.1,0.2-0.2
		l0.6-1.1C539.8,274.7,540.2,274.7,540.3,275z"/>
	<g class="st39">
		
			<linearGradient id="SVGID_14_" gradientUnits="userSpaceOnUse" x1="377.1047" y1="-338.0105" x2="391.1307" y2="-338.0105" gradientTransform="matrix(1 0 0 -1 0 6.1704)">
			<stop  offset="0" style="stop-color:#004794"/>
			<stop  offset="1" style="stop-color:#001355"/>
		</linearGradient>
		<path class="st40" d="M390.6,344.8h-12.8c-0.4,0-0.6-0.3-0.6-0.6c0-0.4,0.3-0.6,0.6-0.6h12.7c0.4,0,0.6,0.3,0.6,0.6
			C391.2,344.6,390.9,344.8,390.6,344.8z"/>
		
			<linearGradient id="SVGID_15_" gradientUnits="userSpaceOnUse" x1="387.1947" y1="-333.5105" x2="396.9147" y2="-333.5105" gradientTransform="matrix(1 0 0 -1 0 6.1704)">
			<stop  offset="0" style="stop-color:#004794"/>
			<stop  offset="1" style="stop-color:#001355"/>
		</linearGradient>
		<path class="st41" d="M396.4,340.3h-8.5c-0.4,0-0.6-0.3-0.6-0.6c0-0.4,0.3-0.6,0.6-0.6h8.5c0.4,0,0.6,0.3,0.6,0.6
			C397,339.9,396.7,340.3,396.4,340.3z"/>
		
			<linearGradient id="SVGID_16_" gradientUnits="userSpaceOnUse" x1="418.8647" y1="-333.4105" x2="422.0237" y2="-333.4105" gradientTransform="matrix(1 0 0 -1 0 6.1704)">
			<stop  offset="0" style="stop-color:#004794"/>
			<stop  offset="1" style="stop-color:#001355"/>
		</linearGradient>
		<path class="st42" d="M421.5,340.2h-1.9c-0.4,0-0.6-0.3-0.6-0.6c0-0.4,0.3-0.6,0.6-0.6h1.9c0.4,0,0.6,0.3,0.6,0.6
			C422.1,339.9,421.8,340.2,421.5,340.2z"/>
		
			<linearGradient id="SVGID_17_" gradientUnits="userSpaceOnUse" x1="413.6147" y1="-333.4105" x2="416.7737" y2="-333.4105" gradientTransform="matrix(1 0 0 -1 0 6.1704)">
			<stop  offset="0" style="stop-color:#004794"/>
			<stop  offset="1" style="stop-color:#001355"/>
		</linearGradient>
		<path class="st43" d="M416.2,340.2h-1.9c-0.4,0-0.6-0.3-0.6-0.6c0-0.4,0.3-0.6,0.6-0.6h1.9c0.4,0,0.6,0.3,0.6,0.6
			C416.8,339.9,416.6,340.2,416.2,340.2z"/>
		
			<linearGradient id="SVGID_18_" gradientUnits="userSpaceOnUse" x1="399.6867" y1="-333.4105" x2="402.8457" y2="-333.4105" gradientTransform="matrix(1 0 0 -1 0 6.1704)">
			<stop  offset="0" style="stop-color:#004794"/>
			<stop  offset="1" style="stop-color:#001355"/>
		</linearGradient>
		<path class="st44" d="M402.3,340.2h-1.9c-0.4,0-0.6-0.3-0.6-0.6c0-0.4,0.3-0.6,0.6-0.6h1.9c0.4,0,0.6,0.3,0.6,0.6
			C402.9,339.9,402.6,340.2,402.3,340.2z"/>
	</g>
	<g class="st39">
		
			<linearGradient id="SVGID_19_" gradientUnits="userSpaceOnUse" x1="526.7203" y1="-260.1726" x2="536.4667" y2="-260.1726" gradientTransform="matrix(1 0 0 -1 0 6.1704)">
			<stop  offset="0" style="stop-color:#004794"/>
			<stop  offset="1" style="stop-color:#001355"/>
		</linearGradient>
		<path class="st45" d="M536.1,266.8h-8.9c-0.3,0-0.4-0.2-0.4-0.4c0-0.3,0.2-0.4,0.4-0.4h8.8c0.3,0,0.4,0.2,0.4,0.4
			C536.5,266.6,536.3,266.8,536.1,266.8z"/>
		
			<linearGradient id="SVGID_20_" gradientUnits="userSpaceOnUse" x1="533.7316" y1="-257.0457" x2="540.4858" y2="-257.0457" gradientTransform="matrix(1 0 0 -1 0 6.1704)">
			<stop  offset="0" style="stop-color:#004794"/>
			<stop  offset="1" style="stop-color:#001355"/>
		</linearGradient>
		<path class="st46" d="M540.1,263.6h-5.9c-0.3,0-0.4-0.2-0.4-0.4c0-0.3,0.2-0.4,0.4-0.4h5.9c0.3,0,0.4,0.2,0.4,0.4
			C540.5,263.4,540.3,263.6,540.1,263.6z"/>
		
			<linearGradient id="SVGID_21_" gradientUnits="userSpaceOnUse" x1="555.7384" y1="-256.9762" x2="557.9335" y2="-256.9762" gradientTransform="matrix(1 0 0 -1 0 6.1704)">
			<stop  offset="0" style="stop-color:#004794"/>
			<stop  offset="1" style="stop-color:#001355"/>
		</linearGradient>
		<path class="st47" d="M557.5,263.6h-1.3c-0.3,0-0.4-0.2-0.4-0.4c0-0.3,0.2-0.4,0.4-0.4h1.3c0.3,0,0.4,0.2,0.4,0.4
			S557.7,263.6,557.5,263.6z"/>
		
			<linearGradient id="SVGID_22_" gradientUnits="userSpaceOnUse" x1="552.0903" y1="-256.9762" x2="554.2855" y2="-256.9762" gradientTransform="matrix(1 0 0 -1 0 6.1704)">
			<stop  offset="0" style="stop-color:#004794"/>
			<stop  offset="1" style="stop-color:#001355"/>
		</linearGradient>
		<path class="st48" d="M553.9,263.6h-1.3c-0.3,0-0.4-0.2-0.4-0.4c0-0.3,0.2-0.4,0.4-0.4h1.3c0.3,0,0.4,0.2,0.4,0.4
			S554.1,263.6,553.9,263.6z"/>
		
			<linearGradient id="SVGID_23_" gradientUnits="userSpaceOnUse" x1="542.412" y1="-256.9762" x2="544.6072" y2="-256.9762" gradientTransform="matrix(1 0 0 -1 0 6.1704)">
			<stop  offset="0" style="stop-color:#004794"/>
			<stop  offset="1" style="stop-color:#001355"/>
		</linearGradient>
		<path class="st49" d="M544.2,263.6h-1.3c-0.3,0-0.4-0.2-0.4-0.4c0-0.3,0.2-0.4,0.4-0.4h1.3c0.3,0,0.4,0.2,0.4,0.4
			S544.4,263.6,544.2,263.6z"/>
	</g>
	<g class="st39">
		
			<linearGradient id="SVGID_24_" gradientUnits="userSpaceOnUse" x1="248.1311" y1="-274.9536" x2="257.8775" y2="-274.9536" gradientTransform="matrix(1 0 0 -1 0 6.1704)">
			<stop  offset="0" style="stop-color:#004794"/>
			<stop  offset="1" style="stop-color:#001355"/>
		</linearGradient>
		<path class="st50" d="M257.5,281.5h-8.9c-0.3,0-0.4-0.2-0.4-0.4c0-0.3,0.2-0.4,0.4-0.4h8.8c0.3,0,0.4,0.2,0.4,0.4
			C257.9,281.4,257.7,281.5,257.5,281.5z"/>
		
			<linearGradient id="SVGID_25_" gradientUnits="userSpaceOnUse" x1="255.1424" y1="-271.8267" x2="261.8966" y2="-271.8267" gradientTransform="matrix(1 0 0 -1 0 6.1704)">
			<stop  offset="0" style="stop-color:#004794"/>
			<stop  offset="1" style="stop-color:#001355"/>
		</linearGradient>
		<path class="st51" d="M261.5,278.4h-5.9c-0.3,0-0.4-0.2-0.4-0.4c0-0.3,0.2-0.4,0.4-0.4h5.9c0.3,0,0.4,0.2,0.4,0.4
			C261.9,278.1,261.7,278.4,261.5,278.4z"/>
		
			<linearGradient id="SVGID_26_" gradientUnits="userSpaceOnUse" x1="277.1492" y1="-271.7572" x2="279.3443" y2="-271.7572" gradientTransform="matrix(1 0 0 -1 0 6.1704)">
			<stop  offset="0" style="stop-color:#004794"/>
			<stop  offset="1" style="stop-color:#001355"/>
		</linearGradient>
		<path class="st52" d="M278.9,278.3h-1.3c-0.3,0-0.4-0.2-0.4-0.4c0-0.3,0.2-0.4,0.4-0.4h1.3c0.3,0,0.4,0.2,0.4,0.4
			S279.2,278.3,278.9,278.3z"/>
		
			<linearGradient id="SVGID_27_" gradientUnits="userSpaceOnUse" x1="273.5011" y1="-271.7572" x2="275.6962" y2="-271.7572" gradientTransform="matrix(1 0 0 -1 0 6.1704)">
			<stop  offset="0" style="stop-color:#004794"/>
			<stop  offset="1" style="stop-color:#001355"/>
		</linearGradient>
		<path class="st53" d="M275.3,278.3h-1.3c-0.3,0-0.4-0.2-0.4-0.4c0-0.3,0.2-0.4,0.4-0.4h1.3c0.3,0,0.4,0.2,0.4,0.4
			S275.5,278.3,275.3,278.3z"/>
		
			<linearGradient id="SVGID_28_" gradientUnits="userSpaceOnUse" x1="263.8228" y1="-271.7572" x2="266.0179" y2="-271.7572" gradientTransform="matrix(1 0 0 -1 0 6.1704)">
			<stop  offset="0" style="stop-color:#004794"/>
			<stop  offset="1" style="stop-color:#001355"/>
		</linearGradient>
		<path class="st54" d="M265.6,278.3h-1.3c-0.3,0-0.4-0.2-0.4-0.4c0-0.3,0.2-0.4,0.4-0.4h1.3c0.3,0,0.4,0.2,0.4,0.4
			S265.8,278.3,265.6,278.3z"/>
	</g>
</g>
<g>
	<g class="st29">
		<path class="st30" d="M222.5,286H153c-3.9-3.9-2.8-7.2-1.5-9h6.2c2.6,0,4.9-1.8,4.9-4.4v-1.8c0-2.3-2.1-4.4-4.9-4.4h-45.8
			c-2.6,0-4.9,2.1-4.9,4.4v1.8c0,2.3,2.1,4.4,4.9,4.4h5.9c1.3,1.8,2.3,5.1-1.5,9H99v17.7h48.1c3.9,3.9,2.8,7.2,1.5,9h-6.2
			c-2.6,0-4.9,1.8-4.9,4.4v1.8c0,2.3,2.1,4.4,4.9,4.4h45.8c2.6,0,4.9-1.8,4.9-4.4v-1.8c0-2.3-2.1-4.4-4.9-4.4h-3.6
			c-1.3-1.8-2.3-5.1,1.5-9h36.3c4.1,0,7.5-3.3,7.5-7.5v-2.8C229.9,289.3,226.6,286,222.5,286z"/>
	</g>
	<linearGradient id="SVGID_29_" gradientUnits="userSpaceOnUse" x1="75.9664" y1="164.8114" x2="80.1157" y2="164.8114">
		<stop  offset="0" style="stop-color:#F89D89"/>
		<stop  offset="0.9896" style="stop-color:#FFD297"/>
	</linearGradient>
	<circle class="st55" cx="78" cy="164.8" r="2.1"/>
	<linearGradient id="SVGID_30_" gradientUnits="userSpaceOnUse" x1="165.7001" y1="365.2413" x2="169.8494" y2="365.2413">
		<stop  offset="0" style="stop-color:#F89D89"/>
		<stop  offset="0.9896" style="stop-color:#FFD297"/>
	</linearGradient>
	<circle class="st56" cx="167.8" cy="365.2" r="2.1"/>
	<linearGradient id="SVGID_31_" gradientUnits="userSpaceOnUse" x1="153.5604" y1="224.7533" x2="158.2048" y2="224.7533">
		<stop  offset="0" style="stop-color:#004794"/>
		<stop  offset="1" style="stop-color:#001355"/>
	</linearGradient>
	<circle class="st57" cx="155.9" cy="224.8" r="1.8"/>
	<linearGradient id="SVGID_32_" gradientUnits="userSpaceOnUse" x1="4.6916" y1="296.4075" x2="9.336" y2="296.4075">
		<stop  offset="0" style="stop-color:#004794"/>
		<stop  offset="1" style="stop-color:#001355"/>
	</linearGradient>
	<circle class="st58" cx="7" cy="296.4" r="1.8"/>
	<linearGradient id="SVGID_33_" gradientUnits="userSpaceOnUse" x1="50.3331" y1="382.0555" x2="56.0801" y2="382.0555">
		<stop  offset="1.037099e-002" style="stop-color:#E77474"/>
		<stop  offset="1" style="stop-color:#AD4F53"/>
	</linearGradient>
	<path class="st59" d="M53.6,379.9l0.6,1.1c0,0.1,0.1,0.1,0.2,0.2l1.1,0.6c0.3,0.2,0.3,0.6,0,0.7l-1.1,0.6c-0.1,0-0.1,0.1-0.2,0.2
		l-0.6,1.1c-0.2,0.3-0.6,0.3-0.7,0l-0.6-1.1c0-0.1-0.1-0.1-0.2-0.2l-1.1-0.6c-0.3-0.2-0.3-0.6,0-0.7l1.1-0.6c0.1,0,0.1-0.1,0.2-0.2
		l0.6-1.1C53,379.6,53.4,379.6,53.6,379.9z"/>
	<linearGradient id="SVGID_34_" gradientUnits="userSpaceOnUse" x1="31.808" y1="222.931" x2="37.555" y2="222.931">
		<stop  offset="1.037099e-002" style="stop-color:#E77474"/>
		<stop  offset="1" style="stop-color:#AD4F53"/>
	</linearGradient>
	<path class="st60" d="M35,220.8l0.6,1.1c0,0.1,0.1,0.1,0.2,0.2l1.1,0.6c0.3,0.2,0.3,0.6,0,0.7l-1.1,0.6c-0.1,0-0.1,0.1-0.2,0.2
		l-0.6,1.1c-0.2,0.3-0.6,0.3-0.7,0l-0.6-1.1c0-0.1-0.1-0.1-0.2-0.2l-1.1-0.6c-0.3-0.2-0.3-0.6,0-0.7l1.1-0.6c0.1,0,0.1-0.1,0.2-0.2
		l0.6-1.1C34.5,220.5,34.9,220.5,35,220.8z"/>
	<g class="st39">
		
			<linearGradient id="SVGID_35_" gradientUnits="userSpaceOnUse" x1="200.804" y1="-422.743" x2="210.5503" y2="-422.743" gradientTransform="matrix(1 0 0 -1 0 6.1704)">
			<stop  offset="0" style="stop-color:#004794"/>
			<stop  offset="1" style="stop-color:#001355"/>
		</linearGradient>
		<path class="st61" d="M210.1,429.3h-8.9c-0.3,0-0.4-0.2-0.4-0.4c0-0.3,0.2-0.4,0.4-0.4h8.8c0.3,0,0.4,0.2,0.4,0.4
			C210.6,429.2,210.4,429.3,210.1,429.3z"/>
		
			<linearGradient id="SVGID_36_" gradientUnits="userSpaceOnUse" x1="207.8153" y1="-419.616" x2="214.5695" y2="-419.616" gradientTransform="matrix(1 0 0 -1 0 6.1704)">
			<stop  offset="0" style="stop-color:#004794"/>
			<stop  offset="1" style="stop-color:#001355"/>
		</linearGradient>
		<path class="st62" d="M214.2,426.2h-5.9c-0.3,0-0.4-0.2-0.4-0.4c0-0.3,0.2-0.4,0.4-0.4h5.9c0.3,0,0.4,0.2,0.4,0.4
			C214.6,425.9,214.4,426.2,214.2,426.2z"/>
		
			<linearGradient id="SVGID_37_" gradientUnits="userSpaceOnUse" x1="229.8221" y1="-419.5465" x2="232.0172" y2="-419.5465" gradientTransform="matrix(1 0 0 -1 0 6.1704)">
			<stop  offset="0" style="stop-color:#004794"/>
			<stop  offset="1" style="stop-color:#001355"/>
		</linearGradient>
		<path class="st63" d="M231.6,426.1h-1.3c-0.3,0-0.4-0.2-0.4-0.4c0-0.3,0.2-0.4,0.4-0.4h1.3c0.3,0,0.4,0.2,0.4,0.4
			S231.8,426.1,231.6,426.1z"/>
		
			<linearGradient id="SVGID_38_" gradientUnits="userSpaceOnUse" x1="226.1739" y1="-419.5465" x2="228.3691" y2="-419.5465" gradientTransform="matrix(1 0 0 -1 0 6.1704)">
			<stop  offset="0" style="stop-color:#004794"/>
			<stop  offset="1" style="stop-color:#001355"/>
		</linearGradient>
		<path class="st64" d="M227.9,426.1h-1.3c-0.3,0-0.4-0.2-0.4-0.4c0-0.3,0.2-0.4,0.4-0.4h1.3c0.3,0,0.4,0.2,0.4,0.4
			S228.2,426.1,227.9,426.1z"/>
		
			<linearGradient id="SVGID_39_" gradientUnits="userSpaceOnUse" x1="216.4957" y1="-419.5465" x2="218.6908" y2="-419.5465" gradientTransform="matrix(1 0 0 -1 0 6.1704)">
			<stop  offset="0" style="stop-color:#004794"/>
			<stop  offset="1" style="stop-color:#001355"/>
		</linearGradient>
		<path class="st65" d="M218.3,426.1H217c-0.3,0-0.4-0.2-0.4-0.4c0-0.3,0.2-0.4,0.4-0.4h1.3c0.3,0,0.4,0.2,0.4,0.4
			S218.5,426.1,218.3,426.1z"/>
	</g>
	<g class="st39">
		
			<linearGradient id="SVGID_40_" gradientUnits="userSpaceOnUse" x1="56.954" y1="-463.3869" x2="70.98" y2="-463.3869" gradientTransform="matrix(1 0 0 -1 0 6.1704)">
			<stop  offset="0" style="stop-color:#004794"/>
			<stop  offset="1" style="stop-color:#001355"/>
		</linearGradient>
		<path class="st66" d="M70.4,470.2H57.6c-0.4,0-0.6-0.3-0.6-0.6c0-0.4,0.3-0.6,0.6-0.6h12.7c0.4,0,0.6,0.3,0.6,0.6
			C71,470,70.7,470.2,70.4,470.2z"/>
		
			<linearGradient id="SVGID_41_" gradientUnits="userSpaceOnUse" x1="67.044" y1="-458.8869" x2="76.764" y2="-458.8869" gradientTransform="matrix(1 0 0 -1 0 6.1704)">
			<stop  offset="0" style="stop-color:#004794"/>
			<stop  offset="1" style="stop-color:#001355"/>
		</linearGradient>
		<path class="st67" d="M76.2,465.7h-8.5c-0.4,0-0.6-0.3-0.6-0.6c0-0.4,0.3-0.6,0.6-0.6h8.5c0.4,0,0.6,0.3,0.6,0.6
			C76.8,465.3,76.5,465.7,76.2,465.7z"/>
		
			<linearGradient id="SVGID_42_" gradientUnits="userSpaceOnUse" x1="98.7139" y1="-458.7869" x2="101.873" y2="-458.7869" gradientTransform="matrix(1 0 0 -1 0 6.1704)">
			<stop  offset="0" style="stop-color:#004794"/>
			<stop  offset="1" style="stop-color:#001355"/>
		</linearGradient>
		<path class="st68" d="M101.3,465.6h-1.9c-0.4,0-0.6-0.3-0.6-0.6c0-0.4,0.3-0.6,0.6-0.6h1.9c0.4,0,0.6,0.3,0.6,0.6
			C101.9,465.3,101.6,465.6,101.3,465.6z"/>
		
			<linearGradient id="SVGID_43_" gradientUnits="userSpaceOnUse" x1="93.4639" y1="-458.7869" x2="96.623" y2="-458.7869" gradientTransform="matrix(1 0 0 -1 0 6.1704)">
			<stop  offset="0" style="stop-color:#004794"/>
			<stop  offset="1" style="stop-color:#001355"/>
		</linearGradient>
		<path class="st69" d="M96,465.6h-1.9c-0.4,0-0.6-0.3-0.6-0.6c0-0.4,0.3-0.6,0.6-0.6H96c0.4,0,0.6,0.3,0.6,0.6
			C96.6,465.3,96.4,465.6,96,465.6z"/>
		
			<linearGradient id="SVGID_44_" gradientUnits="userSpaceOnUse" x1="79.536" y1="-458.7869" x2="82.695" y2="-458.7869" gradientTransform="matrix(1 0 0 -1 0 6.1704)">
			<stop  offset="0" style="stop-color:#004794"/>
			<stop  offset="1" style="stop-color:#001355"/>
		</linearGradient>
		<path class="st70" d="M82.1,465.6h-1.9c-0.4,0-0.6-0.3-0.6-0.6c0-0.4,0.3-0.6,0.6-0.6h1.9c0.4,0,0.6,0.3,0.6,0.6
			C82.7,465.3,82.4,465.6,82.1,465.6z"/>
	</g>
	<g>
		<path class="st71" d="M205.9,410.1c-9.6-7.3-19.1,0-19.1,0C195.7,414,205.9,410.1,205.9,410.1z"/>
		<path class="st72" d="M211.7,399c0-0.2-0.2-2.7-0.8-2.1c-0.7,0.6-3.1,1.4-4.4,2.1c-1.3,0.6-2.1,1.5-2.4,2.9
			c-0.4,1.7-1.7,1.5-3.2,2.3c-1.6,0.7-1.8,1.9-2.3,4.1c0,0,0,2.1,0.5,2.5c0.2,0.2,0.6,0.5,1,0.8c0.5-1,1.1-2,1.7-3
			c0.7-1.1,1.5-2.2,2.4-3.3c0.9-1,1.8-2.1,2.7-3c-1.6,2.2-3.2,4.3-4.7,6.6c-0.6,1-1.2,2-1.8,3c0.5,0.3,1,0.5,1.6,0.7
			c1.4,0.3,3.3-1.6,3.9-2.7c0.8-1.5,0.7-3.4,1.6-4.9c0.6-0.9,2-0.5,2.8-1.4C211.4,402.2,211.7,400.5,211.7,399z"/>
		<path class="st72" d="M179.7,396.4c0-0.3,0.1-3.3,0.9-2.6c0.9,0.7,3.7,1.9,5.3,2.7c1.5,0.8,2.5,1.9,3,3.7c0.5,2.1,2,2,3.9,2.9
			c1.9,0.9,2.2,2.5,2.8,5.1c0,0,0.1,2.6-0.5,3.1c-0.3,0.2-0.7,0.6-1.2,0.9c-0.6-1.3-1.4-2.6-2.1-3.8c-0.9-1.4-1.9-2.8-3-4.1
			c-1.1-1.3-2.2-2.6-3.4-3.8c2,2.7,4,5.5,5.8,8.3c0.8,1.2,1.5,2.5,2.2,3.7c-0.5,0.3-1.2,0.6-1.9,0.7c-1.7,0.3-4-2.1-4.8-3.5
			c-1-1.9-1-4.3-2.1-6.1c-0.7-1.2-2.4-0.8-3.4-1.9C180.2,400.4,179.7,398.3,179.7,396.4z"/>
		<path class="st73" d="M186.7,410.1v10.2c0,3.9,3.2,7.1,7.1,7.1h5c3.9,0,7.1-3.2,7.1-7.1v-10.2c-2.2,0.7-5.4,1.5-9.4,1.5
			C192.3,411.6,188.9,410.8,186.7,410.1z"/>
		<path class="st72" d="M203.2,380.7c-0.2-0.4-2.8-4.2-3.3-2.7c-0.7,1.6-3.8,5.2-5.4,7.4c-1.5,2.2-2.1,4.3-1.3,6.9
			c0.9,3.1-1.3,4-3.2,6.7c-1.9,2.6-1.2,4.8,0,8.7c0,0,1.9,3.5,3.1,3.7c0.5,0.1,2.3-4,2.4-6.2c0.2-2.5,0.5-5.1,1-7.6
			c0.5-2.5,1-5,1.8-7.4c-0.7,5-1.3,10-1.7,15.1c-0.1,2.2-0.2,4.3-0.2,6.5c1,0,2.1,0,3.3-0.4c2.6-0.9,4-5.6,3.9-8.1
			c0-3.2-2-6.2-1.9-9.4c0.1-2.1,2.8-2.7,3.3-4.9C205.6,386.2,204.6,383.1,203.2,380.7z"/>
	</g>
</g>
</svg>
