<?xml version="1.0" encoding="utf-8"?>
<!-- Generator: Adobe Illustrator 19.0.0, SVG Export Plug-In . SVG Version: 6.00 Build 0)  -->
<svg version="1.1" xmlns="http://www.w3.org/2000/svg" xmlns:xlink="http://www.w3.org/1999/xlink" x="0px" y="0px"
	 viewBox="0 0 214.7 195.7" style="enable-background:new 0 0 214.7 195.7;" xml:space="preserve">
<style type="text/css">
	.st0{display:none;fill:#F9C2C2;}
	.st1{fill:#00C0CD;}
	.st2{fill:#009DB0;}
	.st3{fill:#CADFEF;}
	.st4{fill:#FFFFFF;}
	.st5{fill:#FFBDA1;}
	.st6{fill:#EDBA5F;}
	.st7{fill:#FAAAAB;}
	.st8{fill:#1E1A1E;}
	.st9{fill:#03345F;}
	.st10{fill:#F7C869;}
	.st11{clip-path:url(#SVGID_2_);fill:#0E1333;}
	.st12{fill:#0E1333;}
	.st13{fill:#FFD474;}
	.st14{fill:#84B4FE;}
	.st15{fill:#D7E8F7;}
	.st16{fill:#387FFD;}
</style>
<g id="OBJECTS">
	<g>
		<g>
			<path class="st0" d="M-53.5,230.9c0,0,62.5-9.4,36.8-84.5C-42.5,71.3,1.6,67.8,39,77.2c37.4,9.4,63.1,12.9,70.4-15.2
				c7.4-28.2,17.2-99.2,131.1-82.2v251.1H-53.5z"/>
			<g>
				<g>
					<g>
						<path class="st1" d="M184.8,97.7L184.8,97.7c2.7-2.9,1.4-6,0.9-7c0,0,0,0,0,0c-0.1-0.2-0.2-0.3-0.2-0.3l0,0
							c-0.8-1.6-1.3-3.3-1.3-5.2c0-3.2,1.3-6.1,3.4-8.2c1.9-2.5,0.5-5.9,0.5-5.9h0c-0.3-0.9-0.5-1.8-0.5-2.7c0-4.5,3.7-8.2,8.2-8.2
							c4.5,0,8.2,3.7,8.2,8.2c0,1-0.2,1.9-0.5,2.7h0c0,0-1.5,3.4,0.5,5.9c2.1,2.1,3.4,5,3.4,8.2c0,1.9-0.5,3.6-1.3,5.2l0,0
							c0,0,0,0,0,0.1c-0.1,0.1-0.1,0.3-0.2,0.4c-0.5,1.1-1.5,3.9,0.8,6.5c0.1,0.1,0.1,0.2,0.2,0.2c0,0,0,0,0.1,0.1l0,0
							c2,2.4,3.1,5.5,3.1,8.9c0,7.9-6.4,14.2-14.2,14.2c-7.9,0-14.2-6.4-14.2-14.2C181.7,103.2,182.8,100.1,184.8,97.7z"/>
						<path class="st2" d="M191.7,103.8l3.5,3.4V95.1l-4.3-4.2c-0.2-0.2-0.2-0.6,0-0.8c0.2-0.2,0.6-0.2,0.8,0l3.5,3.4V76.9
							c0-0.3,0.3-0.6,0.6-0.6s0.6,0.3,0.6,0.6v10.1l3.4-3.4c0.2-0.2,0.6-0.2,0.8,0c0.2,0.2,0.2,0.6,0,0.8l-4.2,4.2v12.2l3.7-3.8
							c0.2-0.2,0.6-0.2,0.8,0c0.2,0.2,0.2,0.6,0,0.8l-4.5,4.6v32.3c0,0.3-0.3,0.6-0.6,0.6s-0.6-0.3-0.6-0.6v-25.7l-4.3-4.2
							c-0.2-0.2-0.2-0.6,0-0.8C191.1,103.6,191.5,103.6,191.7,103.8z"/>
					</g>
				</g>
				<path class="st3" d="M201.9,135.8h-18.1c-0.3,0-0.5-0.2-0.5-0.5s0.2-0.5,0.5-0.5h18.1c0.3,0,0.5,0.2,0.5,0.5
					S202.2,135.8,201.9,135.8z"/>
				<path class="st3" d="M211.7,163.4H80.4c-0.3,0-0.5-0.2-0.5-0.5c0-0.3,0.2-0.5,0.5-0.5h131.3c0.3,0,0.5,0.2,0.5,0.5
					C212.3,163.2,212,163.4,211.7,163.4z"/>
				<g>
					<path class="st4" d="M211.9,37.9h-34.2c0,0,2.5-10.3,11.4-10.3c6.6,0,10,4.2,11.3,6.3C202.9,32.9,208.5,31.6,211.9,37.9"/>
				</g>
				<g>
					<polygon class="st5" points="15,87.4 22.7,90.6 23.2,94.5 14.6,92.1 					"/>
					<path class="st6" d="M36.2,99.8c-0.3,0-0.5,0-0.8-0.1L19,96.4l1.6-7.7L33,91.3l3.2-20.8l7.7,1.2l-3.9,24.9
						c-0.2,1.1-0.8,2-1.6,2.6C37.8,99.6,37,99.8,36.2,99.8z"/>
					<g>
						<path class="st7" d="M43.1,182.5c-0.1-0.4,0.2-11.2,0.2-11.2l-5.7,0.1l-0.3,11.2L43.1,182.5z"/>
						<path class="st8" d="M27.6,185.1l16-0.1l0-4.9l-11,0.1C29.8,180.2,27.6,182.4,27.6,185.1L27.6,185.1z"/>
					</g>
					<g>
						<path class="st7" d="M89.9,171.8c-0.3-0.3-6.6-9.1-6.6-9.1l-4.5,3.5l6.6,9.1L89.9,171.8z"/>
						<path class="st8" d="M79.2,183.3l12.6-9.8l-3-3.9l-8.7,6.8C77.9,178.1,77.5,181.2,79.2,183.3L79.2,183.3z"/>
					</g>
					<g>
						<path class="st9" d="M63.3,98.2l3.3,34.1l-0.9-2.5l22,35l-9,5.9l-23.3-34.1c-0.4-0.6-0.7-1.3-0.9-2l-0.1-0.5l-6.8-33.6
							L63.3,98.2z"/>
						<path class="st9" d="M53.3,100.1c-1.2,6.2-2.2,11-3.3,17.3c-0.5,3.1-1,6.2-1.5,9.3l-1.5,9.3l0-0.6l-0.5,9.9
							c-0.1,3.3-0.3,6.6-0.4,9.9c-0.2,6.6-0.5,13.2-0.6,19.8l-10.8-0.2C35,168.1,35,161.5,35,155c0-3.3,0-6.6-0.1-9.9l-0.1-9.9
							l0-0.2l0-0.5l0.8-9.4c0.2-3.1,0.5-6.3,0.7-9.4c0.5-6.3,0.9-11.2,1.2-17.5L53.3,100.1z"/>
						<path class="st10" d="M59.3,67.5h-20c-1.8,0-3.2,1.5-3.2,3.3l0.8,26.3c0.1,1.7,1.5,3.1,3.2,3.1h20.1c1.7,0,3.1-1.3,3.2-3
							l1.1-24.3C64.5,69.9,62.2,67.5,59.3,67.5z"/>
						<polygon class="st5" points="45.5,62.7 45.5,69.3 50.9,68.1 49.9,62.2 						"/>
						<g>
							<path class="st5" d="M39.7,55.4l1.5-0.5l0.7,1.9L40.5,57l-0.9-0.6C39.2,56.1,39.3,55.5,39.7,55.4z"/>
							<g>
								<defs>
									<circle id="SVGID_1_" cx="46.5" cy="57.3" r="6.2"/>
								</defs>
								<use xlink:href="#SVGID_1_"  style="overflow:visible;fill:#FFBDA1;"/>
								<clipPath id="SVGID_2_">
									<use xlink:href="#SVGID_1_"  style="overflow:visible;"/>
								</clipPath>
								<path class="st11" d="M47,49.6c0,0-3.4,10.2,6.1,10.2c2.7,0,1.5-5.5,1.5-5.5L47,49.6z"/>
								
									<rect x="40.4" y="50.1" transform="matrix(0.9708 0.2399 -0.2399 0.9708 13.7326 -9.0524)" class="st11" width="7.3" height="3.6"/>
							</g>
							<circle class="st5" cx="49" cy="58" r="1.7"/>
							<circle class="st12" cx="54.2" cy="49.8" r="6.1"/>
						</g>
						<path class="st5" d="M53.7,67.5l-11.2,0c0,0,0.6,4.2,5.6,4.2C53.2,71.7,53.7,67.5,53.7,67.5z"/>
					</g>
					<g>
						<g>
							<circle class="st5" cx="26.8" cy="84.1" r="3.5"/>
							<polygon class="st5" points="27.6,82.1 34.6,86.6 34.4,90.5 26.4,86.7 							"/>
						</g>
						<path class="st7" d="M20.6,80.6"/>
						<path class="st5" d="M28.2,83.6c-0.1,0-0.3,0-0.4-0.1l-4.7-1.9l-2.6-0.3c-0.6-0.1-1-0.6-0.9-1.2c0.1-0.6,0.6-1,1.2-0.9
							l2.7,0.3c0.1,0,0.2,0,0.3,0.1l4.8,1.9c0.5,0.2,0.8,0.8,0.6,1.4C29,83.3,28.6,83.6,28.2,83.6z"/>
					</g>
					<path class="st12" d="M25.3,90L12.7,77.8c-0.2-0.2-0.5-0.3-0.8-0.3L3.4,78c-0.3,0-0.5,0.4-0.2,0.6l11.9,11.6
						c0.3,0.3,0.6,0.4,1,0.4l8.9,0C25.4,90.7,25.5,90.3,25.3,90z"/>
					<circle class="st5" cx="14.8" cy="88.6" r="3.5"/>
					<path class="st13" d="M55.5,99c-0.5,0-1-0.1-1.5-0.3l-24.9-7.6l3-7.2l20.4,5.7l3.9-18.5c0.4-2.1,2.5-3.5,4.6-3.1l0,0
						c2.1,0.4,3.5,2.5,3.1,4.6l-4.8,23.2c-0.2,1.2-1,2.2-2,2.7C56.7,98.8,56.1,99,55.5,99z"/>
				</g>
				<g>
					<g>
						<g>
							<path class="st4" d="M157.1,14.8H97.8c-5.6,0-10.1,4.5-10.1,10.1v127.4c0,5.6,4.5,10.1,10.1,10.1h59.3
								c5.6,0,10.1-4.5,10.1-10.1V24.9C167.2,19.4,162.7,14.8,157.1,14.8z"/>
							<g>
								<path class="st14" d="M134.7,20.7h-14.1c-0.4,0-0.7,0.3-0.7,0.7c0,0.4,0.3,0.7,0.7,0.7h14.1c0.4,0,0.7-0.3,0.7-0.7
									C135.4,21,135.1,20.7,134.7,20.7z"/>
								<path class="st14" d="M117.4,22.3c-0.2,0-0.5-0.1-0.6-0.3c0,0-0.1-0.1-0.1-0.1c0,0-0.1-0.1-0.1-0.1c0-0.1,0-0.1,0-0.2
									c0-0.1,0-0.1,0-0.2c0-0.1,0-0.1,0-0.2c0-0.1,0-0.1,0.1-0.2c0-0.1,0-0.1,0.1-0.2c0,0,0.1-0.1,0.1-0.1c0,0,0.1-0.1,0.1-0.1
									c0,0,0.1-0.1,0.2-0.1c0.1,0,0.1,0,0.2-0.1c0.1,0,0.2,0,0.3,0c0.1,0,0.1,0,0.2,0.1c0.1,0,0.1,0,0.2,0.1c0,0,0.1,0.1,0.1,0.1
									c0,0,0.1,0.1,0.1,0.1c0,0,0.1,0.1,0.1,0.2c0,0.1,0,0.1,0,0.2c0,0.1,0,0.1,0,0.2c0,0.1,0,0.1,0,0.2c0,0.1,0,0.1-0.1,0.2
									c0,0.1,0,0.1-0.1,0.1c0,0-0.1,0.1-0.1,0.1c0,0-0.1,0.1-0.1,0.1c0,0-0.1,0.1-0.2,0.1c-0.1,0-0.1,0-0.2,0.1
									C117.5,22.3,117.5,22.3,117.4,22.3z"/>
							</g>
							<rect x="93.6" y="27.8" class="st15" width="66.9" height="111.1"/>
						</g>
					</g>
					<g>
						<circle class="st4" cx="126.7" cy="88.1" r="19.4"/>
						<g>
							<path class="st14" d="M136.7,81.4l-16.8,0.4l-0.1-0.6c0-0.2-0.2-0.4-0.4-0.5l-3.9-2.2l-0.7,1.3l3.6,2.1l2.2,11.7
								c-1.3,0.6-1.9,2.2-1.3,3.6c0.6,1.3,2.2,1.9,3.6,1.3c1.3-0.6,1.9-2.2,1.3-3.6c0,0,0,0,0-0.1h4.9c-0.7,1.3-0.1,2.9,1.2,3.6
								s2.9,0.1,3.6-1.2s0.1-2.9-1.2-3.6c-0.4-0.2-0.8-0.3-1.2-0.3H122l-0.3-1.7h12.8c0.3,0,0.6-0.2,0.7-0.6l2.3-8.6
								c0.1-0.2,0-0.5-0.1-0.6C137.1,81.5,136.9,81.4,136.7,81.4z"/>
						</g>
					</g>
					<rect x="93.6" y="27.8" class="st14" width="66.9" height="11.3"/>
					<g>
						<circle class="st16" cx="101.2" cy="32.5" r="2"/>
						<circle class="st13" cx="107.5" cy="32.5" r="2"/>
						<circle class="st16" cx="113.8" cy="32.5" r="2"/>
					</g>
				</g>
			</g>
		</g>
	</g>
	<g>
		<defs>
			<rect id="SVGID_3_" x="93.2" y="27.6" width="67" height="119"/>
		</defs>
		<clipPath id="SVGID_4_">
			<use xlink:href="#SVGID_3_"  style="overflow:visible;"/>
		</clipPath>
		<g style="clip-path:url(#SVGID_4_);">
			
				<image style="overflow:visible;" width="1080" height="3150" xlink:href="D:\layouts-psds\bigly-app\render\Artboard 5.png"  transform="matrix(6.269827e-002 0 0 6.012512e-002 92.4622 27.5833)">
			</image>
		</g>
	</g>
</g>
<g id="DESIGNED_BY_FREEPIK">
</g>
</svg>
