<?xml version="1.0" encoding="utf-8"?>
<!-- Generator: Adobe Illustrator 19.0.0, SVG Export Plug-In . SVG Version: 6.00 Build 0)  -->
<svg version="1.1" id="Layer_1" xmlns="http://www.w3.org/2000/svg" xmlns:xlink="http://www.w3.org/1999/xlink" x="0px" y="0px"
	 viewBox="648 -203 996 1033" style="enable-background:new 648 -203 996 1033;" xml:space="preserve">
<style type="text/css">
	.st0{display:none;fill:url(#SVGID_1_);}
	.st1{fill:#CCD8DE;}
	.st2{opacity:0.7;fill:url(#SVGID_2_);enable-background:new    ;}
	.st3{opacity:0.6;fill:url(#SVGID_3_);enable-background:new    ;}
	.st4{opacity:0.6;fill:url(#SVGID_4_);enable-background:new    ;}
	.st5{opacity:0.6;fill:url(#SVGID_5_);enable-background:new    ;}
	.st6{fill:#E00201;}
	.st7{fill:url(#SVGID_6_);}
	.st8{fill:url(#SVGID_7_);}
	.st9{fill:url(#SVGID_8_);}
	.st10{fill:url(#SVGID_9_);}
	.st11{fill:url(#SVGID_10_);}
	.st12{fill:url(#SVGID_11_);}
	.st13{fill:url(#SVGID_12_);}
	.st14{fill:url(#SVGID_13_);}
	.st15{fill:url(#SVGID_14_);}
	.st16{fill:url(#SVGID_15_);}
	.st17{fill:url(#SVGID_16_);}
	.st18{fill:url(#SVGID_17_);}
	.st19{fill:#BB3F26;}
	.st20{fill:#CB5F28;}
	.st21{fill:#FCC7A3;}
	.st22{opacity:5.000000e-002;enable-background:new    ;}
	.st23{fill:#FDD1B0;}
	.st24{fill:#A154A1;}
	.st25{opacity:5.000000e-002;}
	.st26{opacity:0.2;fill:url(#SVGID_18_);enable-background:new    ;}
	.st27{opacity:0.2;fill:url(#SVGID_19_);enable-background:new    ;}
	.st28{fill:#B76028;}
	.st29{fill:url(#SVGID_20_);}
	.st30{fill:#F37B82;}
	.st31{fill:#F4898C;}
	.st32{fill:#FDCCAA;}
	.st33{fill:url(#SVGID_21_);}
	.st34{fill:#F4863A;}
	.st35{fill:url(#SVGID_22_);}
	.st36{fill:#E27339;}
	.st37{fill:url(#SVGID_23_);}
	.st38{fill:#EAB67C;}
	.st39{fill:#FCD09E;}
	.st40{fill:#FFFFFF;}
	.st41{fill:#010101;}
	.st42{fill:#BD7631;}
	.st43{fill:#EF3740;}
	.st44{fill:#D3232A;}
	.st45{fill:#F6C58E;}
	.st46{fill:#EF4323;}
	.st47{fill:url(#SVGID_24_);}
	.st48{fill:url(#SVGID_25_);}
	.st49{fill:#91311F;}
	.st50{fill:url(#SVGID_26_);}
	.st51{fill:#B94826;}
	.st52{fill:#FEBE40;}
	.st53{fill:#E97424;}
	.st54{fill:#C8DA52;}
	.st55{fill:#EF9646;}
	.st56{fill:#5A6570;}
	.st57{fill:#ABBFCF;}
	.st58{fill:#404952;}
	.st59{fill:url(#SVGID_27_);}
	.st60{fill:#72808F;}
	.st61{fill:#E9686A;}
</style>
<linearGradient id="SVGID_1_" gradientUnits="userSpaceOnUse" x1="469.2409" y1="396.6737" x2="1941.8658" y2="396.6737" gradientTransform="matrix(1 0 0 -1 0 792)">
	<stop  offset="0" style="stop-color:#F7C58C"/>
	<stop  offset="1" style="stop-color:#F89F57"/>
</linearGradient>
<path class="st0" d="M628,384.4c0,0-94.1-290.7,115.7-413.1s365.8-144.5,575.9-154.7c210.1-10.2,96.5-1.2,289.8,126.5
	s517,266.9,198.3,431.2s391.5,283-178,391.4S1164.4,1076,743.7,920s-225.8-279.3-249.6-410C470.4,379.4,617.8,382.7,628,384.4z"/>
<g>
	<path class="st1" d="M1136,90H834.8c-5.2,0-9.5-4.2-9.5-9.5V-30c0-5.2,4.2-9.5,9.5-9.5H1136c5.2,0,9.5,4.2,9.5,9.5V80.6
		C1145.4,85.8,1141.2,90,1136,90z"/>
	
		<linearGradient id="SVGID_2_" gradientUnits="userSpaceOnUse" x1="727.582" y1="766.734" x2="1145.4041" y2="766.734" gradientTransform="matrix(1 0 0 -1 0 792)">
		<stop  offset="0" style="stop-color:#F26825"/>
		<stop  offset="1" style="stop-color:#F05123"/>
	</linearGradient>
	<path class="st2" d="M1136-39.5H806.2c-32.4,35.8-59.1,77-78.6,122c0.9,4.3,4.7,7.5,9.2,7.5H1136c5.2,0,9.5-4.2,9.5-9.5V-30
		C1145.4-35.2,1141.2-39.5,1136-39.5z"/>
	
		<linearGradient id="SVGID_3_" gradientUnits="userSpaceOnUse" x1="832.374" y1="763.5095" x2="985.375" y2="763.5095" gradientTransform="matrix(1 0 0 -1 0 792)">
		<stop  offset="0" style="stop-color:#F26825"/>
		<stop  offset="1" style="stop-color:#F05123"/>
	</linearGradient>
	<path class="st3" d="M973.5,85.6H844.2c-6.6,0-11.9-5.3-11.9-11.9v-90.6c0-6.6,5.3-11.9,11.9-11.9h129.3c6.6,0,11.9,5.3,11.9,11.9
		v90.6C985.4,80.3,980.1,85.6,973.5,85.6z"/>
	
		<linearGradient id="SVGID_4_" gradientUnits="userSpaceOnUse" x1="727.582" y1="763.51" x2="820.375" y2="763.51" gradientTransform="matrix(1 0 0 -1 0 792)">
		<stop  offset="0" style="stop-color:#F26825"/>
		<stop  offset="1" style="stop-color:#F05123"/>
	</linearGradient>
	<path class="st4" d="M808.5-28.7h-11.8C768.5,4.6,745.1,42,727.6,82.5c0.2,1.1,0.7,2.2,1.3,3.1h79.6c6.6,0,11.9-5.3,11.9-11.9
		v-90.6C820.4-23.4,815.1-28.7,808.5-28.7z"/>
	
		<linearGradient id="SVGID_5_" gradientUnits="userSpaceOnUse" x1="1003.707" y1="762.5165" x2="1132.707" y2="762.5165" gradientTransform="matrix(1 0 0 -1 0 792)">
		<stop  offset="0" style="stop-color:#F26825"/>
		<stop  offset="1" style="stop-color:#F05123"/>
	</linearGradient>
	<path class="st5" d="M1127.7,81.9h-119c-2.8,0-5-2.2-5-5v-94.8c0-2.8,2.2-5,5-5h119c2.8,0,5,2.2,5,5v94.8
		C1132.7,79.7,1130.5,81.9,1127.7,81.9z"/>
	<g>
		<g>
			<path class="st6" d="M886.2,81.9h-34.5c-5.2,0-9.4-4.2-9.4-9.4V21.9h53.3v50.6C895.6,77.7,891.4,81.9,886.2,81.9z"/>
			<path class="st6" d="M897.5,17.7H841c-1.2,0-2.1,0.9-2.1,2.1l0,0c0,1.1,0.9,2.1,2.1,2.1h56.5c1.2,0,2.1-0.9,2.1-2.1l0,0
				C899.5,18.7,898.6,17.7,897.5,17.7z"/>
		</g>
	</g>
	<g>
		<g>
			
				<linearGradient id="SVGID_6_" gradientUnits="userSpaceOnUse" x1="904.875" y1="715.85" x2="931.209" y2="715.85" gradientTransform="matrix(1 0 0 -1 0 792)">
				<stop  offset="0" style="stop-color:#E00201"/>
				<stop  offset="1" style="stop-color:#E00201"/>
			</linearGradient>
			<path class="st7" d="M931.2,68.7h-26.3v1.7c0,7.3,5.9,13.2,13.2,13.2l0,0c7.3,0,13.2-5.9,13.2-13.2L931.2,68.7L931.2,68.7z"/>
			
				<linearGradient id="SVGID_7_" gradientUnits="userSpaceOnUse" x1="910.541" y1="709.06" x2="925.541" y2="709.06" gradientTransform="matrix(1 0 0 -1 0 792)">
				<stop  offset="0" style="stop-color:#E00201"/>
				<stop  offset="1" style="stop-color:#E00201"/>
			</linearGradient>
			<polygon class="st8" points="923.5,80.2 912.5,80.2 910.5,85.6 925.5,85.6 			"/>
		</g>
	</g>
	<path class="st6" d="M963,45.4l-0.5-1.6l-25.2,7.6l0.5,1.6c0.7,2.2,1.9,4.1,3.4,5.6h-4.4v1.7c0,3.2,1.2,6.2,3.1,8.5h-3.1v1.7
		c0,5,2.8,9.4,7,11.6l-1.3,3.6h15l-1.3-3.6c4.2-2.2,7-6.6,7-11.6v-1.7H960c1.9-2.3,3.1-5.2,3.1-8.5v-1.7h-3.5
		C962.9,55.3,964.4,50.3,963,45.4z"/>
	
		<linearGradient id="SVGID_8_" gradientUnits="userSpaceOnUse" x1="1113.488" y1="765.6" x2="1126.4041" y2="765.6" gradientTransform="matrix(1 0 0 -1 0 792)">
		<stop  offset="0" style="stop-color:#F26825"/>
		<stop  offset="1" style="stop-color:#F05123"/>
	</linearGradient>
	<circle class="st9" cx="1119.9" cy="26.4" r="6.5"/>
	
		<linearGradient id="SVGID_9_" gradientUnits="userSpaceOnUse" x1="789.624" y1="728.393" x2="808.624" y2="728.393" gradientTransform="matrix(1 0 0 -1 0 792)">
		<stop  offset="0" style="stop-color:#E00201"/>
		<stop  offset="1" style="stop-color:#E00201"/>
	</linearGradient>
	<rect x="789.6" y="41.6" class="st10" width="19" height="44.1"/>
	
		<linearGradient id="SVGID_10_" gradientUnits="userSpaceOnUse" x1="773.9773" y1="724.6016" x2="789.6082" y2="724.6016" gradientTransform="matrix(1 0 0 -1 0 792)">
		<stop  offset="0" style="stop-color:#E00201"/>
		<stop  offset="1" style="stop-color:#E00201"/>
	</linearGradient>
	<path class="st11" d="M787.5,50.1l-1.3-0.4c-1.5-0.4-3.2,0.4-3.6,2l-8.5,29.5c-0.4,1.5,0.4,3.2,2,3.6l1.3,0.4
		c1.5,0.4,3.2-0.4,3.6-2l8.5-29.5C789.9,52.1,789.1,50.5,787.5,50.1z"/>
	
		<linearGradient id="SVGID_11_" gradientUnits="userSpaceOnUse" x1="743.652" y1="614.48" x2="807.893" y2="614.48" gradientTransform="matrix(1 0 0 -1 0 792)">
		<stop  offset="0" style="stop-color:#F26825"/>
		<stop  offset="1" style="stop-color:#F05123"/>
	</linearGradient>
	<path class="st12" d="M799.3,193.3h-47.2c-4.7,0-8.5-3.8-8.5-8.5v-14.4c0-4.7,3.8-8.5,8.5-8.5h47.2c4.7,0,8.5,3.8,8.5,8.5v14.4
		C807.9,189.5,804.1,193.3,799.3,193.3z"/>
	
		<linearGradient id="SVGID_12_" gradientUnits="userSpaceOnUse" x1="931.395" y1="546.857" x2="995.635" y2="546.857" gradientTransform="matrix(1 0 0 -1 0 792)">
		<stop  offset="0" style="stop-color:#F26825"/>
		<stop  offset="1" style="stop-color:#F05123"/>
	</linearGradient>
	<path class="st13" d="M987.1,260.9h-47.2c-4.7,0-8.5-3.8-8.5-8.5v-14.4c0-4.7,3.8-8.5,8.5-8.5h47.2c4.7,0,8.5,3.8,8.5,8.5v14.4
		C995.6,257.1,991.8,260.9,987.1,260.9z"/>
	
		<linearGradient id="SVGID_13_" gradientUnits="userSpaceOnUse" x1="1073.468" y1="918.3045" x2="1134.927" y2="918.3045" gradientTransform="matrix(1 0 0 -1 0 792)">
		<stop  offset="0" style="stop-color:#F26825"/>
		<stop  offset="1" style="stop-color:#F05123"/>
	</linearGradient>
	<path class="st14" d="M1126.4-111.2H1082c-4.7,0-8.5-3.8-8.5-8.5v-13.1c0-4.7,3.8-8.5,8.5-8.5h44.4c4.7,0,8.5,3.8,8.5,8.5v13.1
		C1134.9-115.1,1131.1-111.2,1126.4-111.2z"/>
	
		<linearGradient id="SVGID_14_" gradientUnits="userSpaceOnUse" x1="1508.6379" y1="567.1975" x2="1570.0969" y2="567.1975" gradientTransform="matrix(1 0 0 -1 0 792)">
		<stop  offset="0" style="stop-color:#F26825"/>
		<stop  offset="1" style="stop-color:#F05123"/>
	</linearGradient>
	<path class="st15" d="M1561.6,239.9h-44.4c-4.7,0-8.5-3.8-8.5-8.5v-13.1c0-4.7,3.8-8.5,8.5-8.5h44.4c4.7,0,8.5,3.8,8.5,8.5v13.1
		C1570.1,236.1,1566.3,239.9,1561.6,239.9z"/>
	
		<linearGradient id="SVGID_15_" gradientUnits="userSpaceOnUse" x1="1477.908" y1="460.8791" x2="1539.3669" y2="460.8791" gradientTransform="matrix(1 0 0 -1 0 792)">
		<stop  offset="0" style="stop-color:#F26825"/>
		<stop  offset="1" style="stop-color:#F05123"/>
	</linearGradient>
	<path class="st16" d="M1530.8,346.2h-44.4c-4.7,0-8.5-3.8-8.5-8.5v-13.1c0-4.7,3.8-8.5,8.5-8.5h44.4c4.7,0,8.5,3.8,8.5,8.5v13.1
		C1539.4,342.4,1535.5,346.2,1530.8,346.2z"/>
	
		<linearGradient id="SVGID_16_" gradientUnits="userSpaceOnUse" x1="1010.9769" y1="638.6855" x2="1072.437" y2="638.6855" gradientTransform="matrix(1 0 0 -1 0 792)">
		<stop  offset="0" style="stop-color:#F26825"/>
		<stop  offset="1" style="stop-color:#F05123"/>
	</linearGradient>
	<path class="st17" d="M1063.9,168.4h-44.4c-4.7,0-8.5-3.8-8.5-8.5v-13.1c0-4.7,3.8-8.5,8.5-8.5h44.4c4.7,0,8.5,3.8,8.5,8.5v13.1
		C1072.4,164.6,1068.6,168.4,1063.9,168.4z"/>
	
		<linearGradient id="SVGID_17_" gradientUnits="userSpaceOnUse" x1="734.311" y1="461.3535" x2="798.552" y2="461.3535" gradientTransform="matrix(1 0 0 -1 0 792)">
		<stop  offset="0" style="stop-color:#F26825"/>
		<stop  offset="1" style="stop-color:#F05123"/>
	</linearGradient>
	<path class="st18" d="M790,346.4h-47.2c-4.7,0-8.5-3.8-8.5-8.5v-14.4c0-4.7,3.8-8.5,8.5-8.5H790c4.7,0,8.5,3.8,8.5,8.5v14.4
		C798.6,342.6,794.7,346.4,790,346.4z"/>
</g>
<path class="st19" d="M1189.8,125.9c0,57.2-21.3,135-31.4,228.9c-11.3,104.8-12.4,201-42,249.6c0,0,57.4,15.7,129.8,15.7
	c72.4,0,164.1-15.7,164.1-15.7c-38.2-38.2-53.5-144.8-64.8-249.6c-10.1-93.8-8.6-171.6-8.6-228.9L1189.8,125.9L1189.8,125.9z"/>
<path class="st20" d="M1360.2,618.2c-23.4-94.7-52.6-413.3-40.5-495.3c-35.5,207.1-14.6,422.6,1,499.8L1360.2,618.2z"/>
<path class="st20" d="M1141,615.9c23.4-94.7,64-411,51.9-493.1c35.5,207.1,3.2,422.6-12.4,499.8L1141,615.9z"/>
<path class="st21" d="M1245.5,46.1c3,12.1,10,44.2-19.8,53.4c-29.8,9.1-44.5,15.7-48.9,42l23.9,11.2l5.9-7.1
	c4.4,10.6-4.1,25.4-2.7,41.9c1.5,16.5,23.6,49,19.4,77.3c-4.2,28.3-25.5,42.8-32,86.2c69.9,22.7,151.4,18.9,132.5-38.4
	c-5.9-16.8-23.4-33.9-20.4-70.2c3.1-38.2,24.2-98,24.2-98l26.9-7.4c-8.3-42.8-18.9-41.6-43.4-44.6s-29.8-32.5-29.8-46.3L1245.5,46.1
	L1245.5,46.1z"/>
<path class="st22" d="M1254.9,164.6c10.9,0,17.9-30.3,58.1-18.2c40.2,12.1-35.1,51.7-70.4,48.4c-35.3-3.3-35.6-43-24.2-47.7
	C1242.6,137,1242.6,164.6,1254.9,164.6z"/>
<ellipse class="st23" cx="1263.3" cy="46.1" rx="17.9" ry="4.5"/>
<path class="st22" d="M1234.1,95.6c11.9,7.7,24.7,3.2,12.5-16.4C1244.7,85.6,1240.9,91.4,1234.1,95.6z M1195.4,150.2l5.2,2.5
	l5.9-7.1c4.4,10.6-4.1,25.4-2.7,41.9c0.5,6.1,2.5,14.4,4.5,23.8c9.6-8.6,11.6-21.2,7.5-52.7C1212,128.2,1203.4,138.8,1195.4,150.2z
	 M1311,92.4c-24.5-3-29.8-32.5-29.8-46.3h-3.9c-6.4,27.4-6.9,63.6,42.4,47.4C1317,93.1,1314.1,92.8,1311,92.4z"/>
<path class="st22" d="M1294.4,471.5c-23.6,7.7-61.1,20.3-58.9,22.6c2,2,4.8,30.7,6.1,60.1c20.3-0.8,40.1-0.7,52.2,26.6
	c0.3-23.8,12.1-39.9,18-101.1C1305.6,477.1,1299.8,474.4,1294.4,471.5z"/>
<path class="st22" d="M1179.6,465.6c2.9,39.4,8.2,62.3,12.4,79.2c24.7-7,40-5.2,59.7-5c1.4-23.8,3.7-44,5.3-45.7
	C1260.4,490.8,1179.6,465.6,1179.6,465.6z"/>
<path class="st20" d="M1228.8,98.3c6-3.1,16.6,8.8,36.8,3.9c20.1-4.9,27.5-15.6,40.7-10.8c2.7-7.5-3-12.9-8.4-12.9
	c0-5.4-6.1-16.5-25-6.7s-24.8-2.8-30.4,2.8c-5.6,0.9-9,8.4-7.2,13.9C1230.8,88.5,1226.7,92.6,1228.8,98.3z"/>
<path class="st24" d="M1233.8,512.7c-40.1-2.9-68.7-10.7-77.8-13.5c-1.7,11.1-3.1,17.1-3.1,17.1s31.9,10.9,80.9,14.4
	c55.8,4,106.3-6.1,106.3-6.1s-1.2-5.7-2.4-17.6C1327,509,1282.4,516.2,1233.8,512.7z"/>
<g class="st25">
	<path d="M1307.6,226.7C1307.6,226.7,1307.6,226.7,1307.6,226.7C1307.7,226.7,1307.6,226.7,1307.6,226.7z"/>
	<path d="M1254.9,245.9c20.4,0,36.4,11.2,50.7,14.5c-1.9-13.6,0.1-24.3,2-33.8c-29.7,0-25.7-8.1-50.1-8.1c-18.4,0-26.7,4.8-45.3,4.8
		c1.1,8.7-0.7,22.8-5.3,38.5C1221.2,257.9,1237.9,245.9,1254.9,245.9z"/>
</g>
<path class="st22" d="M1319.6,299.7c-0.7-1.4-1.4-2.8-2.1-4.2c-14.2-27.5-13.8-46-11.3-60.9C1266.8,244.3,1275.9,279,1319.6,299.7z"
	/>
<path class="st22" d="M1214.5,528.9c-11.7-56.6-26-159.3,85.7-186.7c-93.4,12-108.4,59.7-108.4,129.6c0,20.8-2.9,38.2-6.9,52.5
	C1193.4,526,1203.3,527.6,1214.5,528.9z"/>
<path class="st22" d="M1167.6,354.3c-3.9,16.7-6,37-6,64.7c0,60.1-8.7,97.4-8.7,97.4s3.7,1.3,10.6,3.1
	c17.6-37.8,18.4-70.2,11.5-110.7C1171.4,388.1,1168.9,370.3,1167.6,354.3z M1335,446.4c-26.6,25.1-46.1,56.8-30.1,83.1
	c21.4-2.1,35.3-4.9,35.3-4.9S1335,500.3,1335,446.4z"/>
<path class="st22" d="M1182.8,146.8l19,8l4.1-6.6C1205.9,148.3,1193.6,133.4,1182.8,146.8z M1328.7,145.7l11-2.7
	C1329,118.3,1328.7,145.7,1328.7,145.7z"/>
<linearGradient id="SVGID_18_" gradientUnits="userSpaceOnUse" x1="1297.2562" y1="269.743" x2="1297.2562" y2="499.402" gradientTransform="matrix(1 0 0 -1 0 792)">
	<stop  offset="0" style="stop-color:#FFFFFF;stop-opacity:0"/>
	<stop  offset="7.320000e-002" style="stop-color:#FFFFFF;stop-opacity:0.1463"/>
	<stop  offset="0.5" style="stop-color:#FFFFFF"/>
	<stop  offset="0.9268" style="stop-color:#FFFFFF;stop-opacity:0.1463"/>
	<stop  offset="1" style="stop-color:#FFFFFF;stop-opacity:0"/>
</linearGradient>
<path class="st26" d="M1306.6,522.2c-11.4-50.2,36.2-179.3-14.2-229.6c23.6,85.2-25.3,144.5-11.6,212.5
	C1284.6,523.7,1306.6,522.2,1306.6,522.2z"/>
<linearGradient id="SVGID_19_" gradientUnits="userSpaceOnUse" x1="1209.9388" y1="391.445" x2="1209.9388" y2="558.757" gradientTransform="matrix(1 0 0 -1 0 792)">
	<stop  offset="0" style="stop-color:#FFFFFF;stop-opacity:0"/>
	<stop  offset="7.320000e-002" style="stop-color:#FFFFFF;stop-opacity:0.1463"/>
	<stop  offset="0.5" style="stop-color:#FFFFFF"/>
	<stop  offset="0.9268" style="stop-color:#FFFFFF;stop-opacity:0.1463"/>
	<stop  offset="1" style="stop-color:#FFFFFF;stop-opacity:0"/>
</linearGradient>
<path class="st27" d="M1235.5,233.2c0,40.3-46.7,107.2-46.7,167.3C1169.9,345.7,1217.6,276.6,1235.5,233.2z"/>
<g>
	<polygon class="st28" points="937.5,404.7 857.7,404.7 851.1,422 945.4,422 	"/>
	
		<linearGradient id="SVGID_20_" gradientUnits="userSpaceOnUse" x1="830.796" y1="401.7535" x2="964.383" y2="401.7535" gradientTransform="matrix(1 0 0 -1 0 792)">
		<stop  offset="0" style="stop-color:#F26825"/>
		<stop  offset="1" style="stop-color:#F05123"/>
	</linearGradient>
	<path class="st29" d="M961,365.5H834.1c-1.8,0-3.3,1.5-3.3,3.3l0,0c0,25.4,20.6,46.1,46.1,46.1h41.4c25.4,0,46.1-20.6,46.1-46.1
		l0,0C964.4,367,962.9,365.5,961,365.5z"/>
	<path class="st28" d="M859.6,360.8l-6.6,2.6l-26.1-67.2c-0.7-1.8,0.2-3.9,2-4.6l0,0c1.8-0.7,3.9,0.2,4.6,2L859.6,360.8z"/>
	<path class="st28" d="M860.4,407.1c-0.4,0-0.8-0.1-1.1-0.2c-7.3-3.4-13.2-9.1-17.7-17.1c-0.7-1.3-0.3-2.9,1-3.6
		c1.3-0.7,2.9-0.3,3.6,1c3.9,7,9.1,12,15.3,14.9c1.3,0.6,1.9,2.2,1.3,3.5C862.3,406.6,861.4,407.1,860.4,407.1z"/>
	<path class="st28" d="M840.4,383.9c-1.1,0-2.1-0.7-2.5-1.7c-1.7-4.6-2.3-7.9-2.4-8c-0.3-1.4,0.7-2.8,2.2-3.1
		c1.4-0.3,2.8,0.7,3.1,2.1l0,0c0,0,0.5,3,2.1,7.1c0.5,1.4-0.2,2.9-1.5,3.4C841.1,383.8,840.8,383.9,840.4,383.9z"/>
	<path class="st30" d="M838.2,366c0,0,7.5-28.8,22.2-18.5c14.6,10.2,24.4,8.2,24.4,8.2s23.9-9.3,27.9-2.5s23-1.1,30.1,2.8
		c7.1,4,9.3,9.5,9.3,9.5L838.2,366z"/>
	<circle class="st31" cx="853.5" cy="352.1" r="3.9"/>
	<circle class="st31" cx="904.1" cy="358.7" r="2.7"/>
	<circle class="st31" cx="867.3" cy="359.6" r="2.7"/>
	<circle class="st31" cx="936.1" cy="362.3" r="2.7"/>
</g>
<g>
	<path class="st32" d="M1174.4,143.3c0,0-33.9,47-45.4,57.8c-18.5,17.5-37.4,92.8-37.4,92.8l15,18c0,0,16.7-65,38.2-90.2
		c23.8-27.8,50.6-71.6,50.6-71.6L1174.4,143.3z"/>
</g>
<linearGradient id="SVGID_21_" gradientUnits="userSpaceOnUse" x1="1152.9509" y1="481.3013" x2="1356.8219" y2="481.3013" gradientTransform="matrix(1 0 0 -1 0 792)">
	<stop  offset="0" style="stop-color:#F28332"/>
	<stop  offset="1" style="stop-color:#FBB36B"/>
</linearGradient>
<path class="st33" d="M1340.2,524.7c0,0-6.8-32.1-4.9-104c1.9-71.9-1-92.6-17.8-125.2c-16.8-32.6-13.1-52.5-9.8-68.9
	c0,0,7.3,0.5,15.2-11.3c13.1-19.7,1.4-47.6,5.9-69.7l28.1-7c-5.9-39.6-24.4-50-45.9-49c-2.4,39.8-29.1,78.6-56.8,86.4
	c-27.7-11.6-31.5-67.4-31.5-78.6c-23.5,5.9-57.9,34.2-61.6,64.3l18.6,15.1l26.3-28.6c-2.9,21.3-23.2,56.9,6.3,75.1
	c2,16.2-6.1,51.1-23.4,80.6c-17.3,29.5-27.2,54.9-27.2,115s-8.7,97.4-8.7,97.4s31.9,10.9,80.9,14.4
	C1289.6,534.8,1340.2,524.7,1340.2,524.7z"/>
<path class="st34" d="M1406,437.8h-140.9c-2.6,0-4.7-2.1-4.7-4.7l0,0c0-2.6,2.1-4.7,4.7-4.7H1406c2.6,0,4.7,2.1,4.7,4.7l0,0
	C1410.7,435.7,1408.6,437.8,1406,437.8z"/>
<path class="st34" d="M1448.4,437.8H1432c-2.6,0-4.7-2.1-4.7-4.7l0,0c0-2.6,2.1-4.7,4.7-4.7h16.4c2.6,0,4.7,2.1,4.7,4.7l0,0
	C1453.1,435.7,1451,437.8,1448.4,437.8z"/>
<linearGradient id="SVGID_22_" gradientUnits="userSpaceOnUse" x1="810.757" y1="175.303" x2="1473.3259" y2="175.303" gradientTransform="matrix(1 0 0 -1 0 792)">
	<stop  offset="0" style="stop-color:#E00201"/>
	<stop  offset="1" style="stop-color:#FBB36B"/>
</linearGradient>
<path class="st35" d="M812.8,597.9c-5.4,32-2.5,142.3,38,165.1c58.5,33,193.9,11.6,270.5,11.6c141.4,0,285.3,11.3,341.6-24.6
	c28.5-18.2-17-91.5,10.4-124.4l-4.8-173.6H812.8V597.9z"/>
<rect x="812.8" y="452" class="st36" width="655.8" height="11.3"/>
<path class="st34" d="M1242.2,625.6H869.8c-4.4,0-8.1-4.2-8.1-9.3l0,0c0-5.1,3.6-9.3,8.1-9.3h372.4c4.4,0,8.1,4.2,8.1,9.3l0,0
	C1250.3,621.4,1246.7,625.6,1242.2,625.6z"/>
<path class="st34" d="M1348.1,653.5h-75.4c-5.1,0-9.3-4.2-9.3-9.3l0,0c0-5.1,4.2-9.3,9.3-9.3h75.4c5.1,0,9.3,4.2,9.3,9.3l0,0
	C1357.4,649.4,1353.2,653.5,1348.1,653.5z"/>
<path class="st34" d="M906.3,510.1h-21.5c-5.1,0-9.3-4.2-9.3-9.3l0,0c0-5.1,4.2-9.3,9.3-9.3h21.5c5.1,0,9.3,4.2,9.3,9.3l0,0
	C915.6,505.9,911.4,510.1,906.3,510.1z"/>
<path class="st34" d="M1023,683.3h-21.5c-5.1,0-9.3-4.2-9.3-9.3l0,0c0-5.1,4.2-9.3,9.3-9.3h21.5c5.1,0,9.3,4.2,9.3,9.3l0,0
	C1032.3,679.1,1028.2,683.3,1023,683.3z"/>
<path class="st34" d="M1378.8,605h-21.5c-5.1,0-9.3-4.2-9.3-9.3l0,0c0-5.1,4.2-9.3,9.3-9.3h21.5c5.1,0,9.3,4.2,9.3,9.3l0,0
	C1388.1,600.8,1383.9,605,1378.8,605z"/>
<path class="st34" d="M1107.9,510.1H982.2c-5.1,0-9.3-4.2-9.3-9.3l0,0c0-5.1,4.2-9.3,9.3-9.3h125.7c5.1,0,9.3,4.2,9.3,9.3l0,0
	C1117.2,505.9,1113,510.1,1107.9,510.1z"/>
<path class="st34" d="M1205.2,707.4h-125.7c-5.1,0-9.3-4.2-9.3-9.3l0,0c0-5.1,4.2-9.3,9.3-9.3h125.7c5.1,0,9.3,4.2,9.3,9.3l0,0
	C1214.5,703.2,1210.4,707.4,1205.2,707.4z"/>
<path class="st34" d="M1373.3,519.4h-75.4c-5.1,0-9.3-4.2-9.3-9.3l0,0c0-5.1,4.2-9.3,9.3-9.3h75.4c5.1,0,9.3,4.2,9.3,9.3l0,0
	C1382.6,515.2,1378.4,519.4,1373.3,519.4z"/>
<path class="st34" d="M1308.6,565.2H887.2c-5.1,0-9.3-4.2-9.3-9.3l0,0c0-5.1,4.2-9.3,9.3-9.3h421.5c5.1,0,9.3,4.2,9.3,9.3l0,0
	C1317.9,561,1313.8,565.2,1308.6,565.2z"/>
<g>
	<path class="st32" d="M1353.3,122.8c0,0,31.5,64.6,45.3,67.1c13.8,2.5,67.8-26.4,67.8-26.4l3.3,15.3c0,0-45.2,41.1-77.1,34.9
		c-31.9-6.2-58.9-69.6-58.9-69.6L1353.3,122.8z"/>
</g>
<linearGradient id="SVGID_23_" gradientUnits="userSpaceOnUse" x1="1186.843" y1="743.8416" x2="1338.1266" y2="743.8416" gradientTransform="matrix(1 0 0 -1 0 792)">
	<stop  offset="0" style="stop-color:#000000"/>
	<stop  offset="1" style="stop-color:#6D665E"/>
</linearGradient>
<path class="st37" d="M1262.8-90c-62.8,0-100.7,94.1-55.7,134.2c-12,5.1-20.2,15.8-20.2,28c0,6.7,2.5,13,6.8,18.1
	c-3.1,3.3-5,7.5-5,12.2c0,5,2.3,9.6,6,13.1c-1.5,2.3-2.3,4.9-2.3,7.7c0,4.5,2.2,8.5,5.7,11.4c-2.1,2.4-3.4,5.3-3.4,8.5
	c0,5.9,4.5,11.1,10.8,13c-0.7,0.9-1.1,1.9-1.1,3.1c0,1.9,1.2,3.6,3,4.5c-4.1,6.4-6.1,22.6,3.3,22.6c9.5,0,7.5-16.2,3.3-22.5
	c1.8-1,3-2.7,3-4.6c0-1.2-0.4-2.2-1.1-3.1c6.3-1.9,10.8-7,10.8-13c0-3.1-1.2-6-3.3-8.4c3.6-2.9,5.9-6.9,5.9-11.5
	c0-2.6-0.7-5.1-2.1-7.2c4-3.5,6.5-8.3,6.5-13.5c0-0.1,0-0.2,0-0.3c15.1-3.8,26.1-15.8,26.1-29.9c0-3.7-0.7-7.2-2.1-10.4
	c1.7,0.1,3.4,0.1,5.1,0.1C1382.1,62,1342.4-90,1262.8-90z"/>
<path class="st38" d="M1245.6,46.9c0.7-8.5,0.1-14.8,0.1-14.8c24.8-6.7,14.9-6.7,39.6,0c0,0-0.4,6.4,0.1,14.8
	c-6.9,5.9-14.2,9.3-19.9,9.3C1259.8,56.1,1252.6,52.8,1245.6,46.9L1245.6,46.9z"/>
<path class="st39" d="M1220.7-17.4c3.5,0,6.9,6.7,7.7,14.8c0.8,8.1-1.4,14.8-4.9,14.8C1211.4,12.3,1208.6-17.4,1220.7-17.4
	L1220.7-17.4z"/>
<path class="st39" d="M1310.4-17.4c-3.6,0-7,6.7-7.7,14.8c-0.8,8.1,1.3,14.8,4.9,14.8C1319.8,12.3,1322.5-17.4,1310.4-17.4
	L1310.4-17.4z"/>
<path class="st39" d="M1265.6-68.1c24.4,0,44.2,27.1,44.2,60.6c0,33.3-28.1,60.4-44.2,60.4c-16.2,0-44.3-27.1-44.3-60.4
	C1221.3-41,1241.1-68.1,1265.6-68.1L1265.6-68.1z"/>
<path d="M1240.2-33.4c0,0-16.6,12.2-15.1,36.9C1212.5-7.9,1220.1-33.9,1240.2-33.4L1240.2-33.4z"/>
<path d="M1290.8-33.4c0,0,16.7,12.2,15.1,36.9C1318.6-7.9,1310.9-33.9,1290.8-33.4L1290.8-33.4z"/>
<path class="st40" d="M1235.2-11.9c0,0-0.9,2,1.1,3.6c2,1.7,5.1,3.1,10.1,2.8c5-0.2,7.3-1.4,7.4-2.1
	C1254-8.5,1245.8-18.2,1235.2-11.9L1235.2-11.9z"/>
<path class="st41" d="M1235-9.8c0.2,0,2.7,3.3,8.5,3.8c5.8,0.3,9.7-0.8,9.7-0.8C1250.5-4.6,1236.3-2.9,1235-9.8L1235-9.8z"/>
<path class="st41" d="M1245.7-14.4c2.6,0,4.7,2.1,4.7,4.7c0,2.6-2.1,4.7-4.7,4.7s-4.7-2.1-4.7-4.7
	C1241-12.3,1243.1-14.4,1245.7-14.4L1245.7-14.4z"/>
<path class="st42" d="M1245.7-13.7c2.2,0,4,1.8,4,4c0,2.2-1.8,4-4,4s-3.9-1.8-3.9-4C1241.8-11.9,1243.5-13.7,1245.7-13.7
	L1245.7-13.7z"/>
<path class="st41" d="M1245.7-12.5c1.6,0,2.8,1.2,2.8,2.8s-1.2,2.8-2.8,2.8s-2.8-1.2-2.8-2.8C1242.9-11.2,1244.1-12.5,1245.7-12.5
	L1245.7-12.5z"/>
<path class="st40" d="M1246.9-12.9c0.8,0,1.3,0.6,1.3,1.2c0,0.8-0.6,1.3-1.3,1.3c-0.7,0-1.2-0.6-1.2-1.3
	C1245.7-12.4,1246.3-12.9,1246.9-12.9L1246.9-12.9z"/>
<path class="st40" d="M1244.9-8.6c0.2,0,0.4,0.1,0.4,0.3s-0.2,0.4-0.4,0.4s-0.4-0.2-0.4-0.4S1244.7-8.6,1244.9-8.6L1244.9-8.6z"/>
<path class="st41" d="M1234.2-11c0,0,11.2-6.7,20.1,3.3C1249.2-18.2,1236.4-15.9,1234.2-11L1234.2-11z"/>
<path class="st41" d="M1235-16.4c0.1,0.1,1.3,2.1,3.5,2l-0.9,1.3C1237.6-13,1235.3-13.8,1235-16.4L1235-16.4z"/>
<path class="st41" d="M1233.5-14.8c0,0,1.2,1.4,3.1,1.2l-0.3,1C1236.3-12.6,1234.3-12.8,1233.5-14.8L1233.5-14.8z"/>
<path class="st41" d="M1233-13.1c0,0,1.6,0.8,3,0.2C1235.6-11.7,1233.7-12,1233-13.1L1233-13.1z"/>
<path class="st40" d="M1295.8-11.9c0,0,1,2-1.1,3.6c-2,1.7-5,3.1-10,2.8c-5-0.2-7.3-1.4-7.4-2.1C1277.2-8.5,1285.2-18.2,1295.8-11.9
	L1295.8-11.9z"/>
<path class="st41" d="M1296.1-9.8c-0.2,0-2.7,3.3-8.5,3.8c-5.8,0.3-9.7-0.8-9.7-0.8C1280.5-4.6,1294.8-2.9,1296.1-9.8L1296.1-9.8z"
	/>
<path class="st41" d="M1285.4-14.4c2.6,0,4.7,2.1,4.7,4.7c0,2.6-2.1,4.7-4.7,4.7c-2.7,0-4.8-2.1-4.8-4.7
	C1280.6-12.3,1282.7-14.4,1285.4-14.4L1285.4-14.4z"/>
<path class="st42" d="M1285.4-13.7c2.1,0,3.9,1.8,3.9,4c0,2.2-1.8,4-3.9,4c-2.2,0-4-1.8-4-4C1281.4-11.9,1283.2-13.7,1285.4-13.7
	L1285.4-13.7z"/>
<path class="st41" d="M1285.4-12.5c1.4,0,2.8,1.2,2.8,2.8s-1.3,2.8-2.8,2.8c-1.6,0-2.9-1.2-2.9-2.8
	C1282.5-11.2,1283.8-12.5,1285.4-12.5L1285.4-12.5z"/>
<path class="st40" d="M1286.6-12.9c0.7,0,1.2,0.6,1.2,1.2c0,0.8-0.6,1.3-1.2,1.3c-0.8,0-1.3-0.6-1.3-1.3
	C1285.3-12.4,1285.9-12.9,1286.6-12.9L1286.6-12.9z"/>
<path class="st40" d="M1284.6-8.6c0.2,0,0.3,0.1,0.3,0.3s-0.1,0.4-0.3,0.4c-0.2,0-0.4-0.2-0.4-0.4S1284.4-8.6,1284.6-8.6L1284.6-8.6
	z"/>
<path class="st41" d="M1296.8-11c0,0-11-6.7-20.1,3.3C1281.9-18.2,1294.6-15.9,1296.8-11L1296.8-11z"/>
<path class="st41" d="M1296.1-16.4c-0.1,0.1-1.4,2.1-3.6,2l0.9,1.3C1293.4-13,1295.7-13.8,1296.1-16.4L1296.1-16.4z"/>
<path class="st41" d="M1297.6-14.8c0,0-1.3,1.4-3.2,1.2l0.3,1C1294.7-12.6,1296.8-12.8,1297.6-14.8L1297.6-14.8z"/>
<path class="st41" d="M1298-13.1c0,0-1.4,0.8-3,0.2C1295.6-11.7,1297.3-12,1298-13.1L1298-13.1z"/>
<path class="st40" d="M1254.4,27.6c0,0,1.8,3.7,6.1,5c3.2,0.9,4.5,1.1,4.9,1.1l0,0l0,0c0,0,0,0,0.1,0l0,0l0,0l0,0h0.1l0,0l0,0
	c0.4,0,1.7-0.2,4.8-1.1c4.5-1.3,6.2-5,6.2-5l-11.2,1.9L1254.4,27.6z"/>
<path class="st43" d="M1253.8,27c0.4,0.6,1.2,1,1.7,1.4c5.9,5.1,14.2,5.1,20,0c0.6-0.4,1.3-0.9,1.8-1.4
	C1274.6,40.3,1256.4,40.3,1253.8,27L1253.8,27z"/>
<path class="st44" d="M1250.8,25.8c0,0,1.8,2.1,6.2,3.1c1.7,0.4,7.9,1.4,8.5,1.4c0.6,0,6.8-1,8.5-1.4c4.3-1,6.1-3.1,6.1-3.1
	c-4.8,2.6-8.4,0.9-11.7,0.9c-1.5,0-2.5,0.8-2.9,1.6c-0.6-0.8-1.4-1.6-3-1.6C1259.2,26.7,1255.6,28.3,1250.8,25.8L1250.8,25.8z"/>
<path class="st45" d="M1265.6,15c2.8,0,5.1,1.4,5.1,2.5c0,0.9-2.3,1.7-5.1,1.7c-2.9,0-5.1-0.8-5.1-1.7
	C1260.4,16.4,1262.7,15,1265.6,15L1265.6,15z"/>
<path class="st45" d="M1236.6-23.1c24.9-0.2,30.6,19.5,27.4,34.1c-0.4,1.7-1,2.7-2,3.1C1262,14.2,1268.7-19.8,1236.6-23.1
	L1236.6-23.1z"/>
<path d="M1271.2-12c0,0,9.8-14.3,30-7C1293-26,1274.1-23.3,1271.2-12L1271.2-12z"/>
<path d="M1259.9-12c0,0-9.9-14.3-30-7C1238.1-26,1256.9-23.3,1259.9-12L1259.9-12z"/>
<path class="st46" d="M1265.4-26c1.6,0,2.8-1.2,2.8-2.8c0-1.4-1.2-2.7-2.8-2.7c-1.4,0-2.7,1.2-2.7,2.7
	C1262.8-27.2,1264-26,1265.4-26L1265.4-26z"/>
<linearGradient id="SVGID_24_" gradientUnits="userSpaceOnUse" x1="1200.5142" y1="828.063" x2="1330.5594" y2="828.063" gradientTransform="matrix(1 0 0 -1 0 792)">
	<stop  offset="0" style="stop-color:#000000"/>
	<stop  offset="1" style="stop-color:#6D665E"/>
</linearGradient>
<path class="st47" d="M1265.6-87.9c-56.4,0-85.5,68.9-48.5,103.6C1204-12.8,1260-39,1265.6-57c5.5,18,61.6,44.2,48.4,72.7
	C1351.1-18.9,1322-87.9,1265.6-87.9L1265.6-87.9z"/>
<linearGradient id="SVGID_25_" gradientUnits="userSpaceOnUse" x1="1434.771" y1="633.208" x2="1469.1119" y2="633.208" gradientTransform="matrix(1 0 0 -1 0 792)">
	<stop  offset="0" style="stop-color:#F26825"/>
	<stop  offset="1" style="stop-color:#F05123"/>
</linearGradient>
<path class="st48" d="M1434.8,133.5V184c0,2.2,1.8,3.9,3.9,3.9h26.5c2.2,0,3.9-1.8,3.9-3.9v-50.5c0-2.2-1.8-3.9-3.9-3.9h-26.5
	C1436.5,129.6,1434.8,131.4,1434.8,133.5z M1451.9,150.3c-0.4,0-0.8-0.3-0.8-0.8s0.3-0.8,0.8-0.8c0.4,0,0.8,0.3,0.8,0.8
	S1452.3,150.3,1451.9,150.3z M1451.9,145.7c-1.3,0-2.4-1.1-2.4-2.4c0-1.3,1.1-2.4,2.4-2.4c1.3,0,2.4,1.1,2.4,2.4
	C1454.2,144.6,1453.2,145.7,1451.9,145.7z M1443.3,135.5h17.1c0.5,0,1,0.4,1,1c0,0.5-0.4,1-1,1h-17.1c-0.5,0-1-0.4-1-1
	C1442.3,136,1442.8,135.5,1443.3,135.5z"/>
<g>
	<path class="st32" d="M1474.3,162.3c-0.6-3.8-4-5.8-7.6-4.5l-8.7,3.1c-3.6,1.3-7.1,4.8-7.8,7.7c-0.7,3,0.9,5.9,3.4,6.5
		c2.6,0.6,2.2,3-0.8,5.2l-0.9,0.7c-3,2.3-3.9,6.5-1.8,9.5c2,2.9,6.3,3.9,9.4,2.2c3.1-1.7,8.2-5,11.3-7.2l0.9-0.6
		c3.1-2.3,5.1-7.2,4.5-10.9L1474.3,162.3z"/>
</g>
<g>
	<path class="st49" d="M1083.7,387.7l-4.1,34.8c-0.4,3.4,1.8,6.5,5.1,7.3l0,0c1.7,0.4,3.5-0.3,4.5-1.8c5.4-8.4,22.5-35.2,21.7-34.4
		C1109.9,394.5,1083.7,387.7,1083.7,387.7z"/>
	<path class="st49" d="M1172.7,387.7l4.1,34.8c0.4,3.4-1.8,6.5-5.1,7.3l0,0c-1.7,0.4-3.5-0.3-4.5-1.8c-5.4-8.4-22.5-35.2-21.7-34.4
		C1146.5,394.5,1172.7,387.7,1172.7,387.7z"/>
	
		<linearGradient id="SVGID_26_" gradientUnits="userSpaceOnUse" x1="1064.3149" y1="421.7135" x2="1192.3569" y2="421.7135" gradientTransform="matrix(1 0 0 -1 0 792)">
		<stop  offset="0" style="stop-color:#F26825"/>
		<stop  offset="1" style="stop-color:#F05123"/>
	</linearGradient>
	<path class="st50" d="M1140.9,405.4h-25.2c-28.4,0-51.4-23-51.4-51.4v-12c0-3.8,3-6.8,6.8-6.8h114.5c3.8,0,6.8,3,6.8,6.8v12
		C1192.4,382.4,1169.3,405.4,1140.9,405.4z"/>
	<path class="st51" d="M1185.6,335.2v14.9c0,28.4-23,51.4-51.4,51.4h-25.2c-7.9,0-15.3-1.8-22-5c8.2,5.6,18.1,8.8,28.8,8.8h25.2
		c28.4,0,51.4-23,51.4-51.4v-12C1192.4,338.2,1189.3,335.2,1185.6,335.2L1185.6,335.2z"/>
	<g>
		<circle class="st51" cx="1090.2" cy="352.5" r="3.6"/>
		<circle class="st51" cx="1151.6" cy="348.5" r="2.8"/>
		<circle class="st51" cx="1117.7" cy="372.7" r="2.8"/>
		<circle class="st51" cx="1161.3" cy="363.8" r="2.8"/>
		<circle class="st51" cx="1107.2" cy="346.9" r="2.8"/>
		<circle class="st51" cx="1096.7" cy="376.8" r="3.6"/>
		<circle class="st51" cx="1137.5" cy="368.3" r="2.4"/>
		<circle class="st51" cx="1170.6" cy="350.5" r="2.4"/>
		<circle class="st51" cx="1128.6" cy="352.9" r="2.4"/>
		<circle class="st51" cx="1131" cy="390.1" r="2.4"/>
		<circle class="st51" cx="1152" cy="381.2" r="2.4"/>
	</g>
	<path class="st51" d="M1085.7,391.1c-0.8,0-1.6-0.3-2.3-0.9c-7.8-6.9-13-17.2-15-29.6c-0.3-1.8,1-3.6,2.8-3.9
		c1.8-0.3,3.6,1,3.9,2.8c1.8,11,6.1,19.7,12.8,25.6c1.4,1.2,1.5,3.4,0.3,4.8C1087.5,390.7,1086.6,391.1,1085.7,391.1z"/>
	<path class="st51" d="M1070.9,353.7c-1.8,0-3.3-1.5-3.4-3.3c-0.1-4.6,0.2-7.6,0.3-7.8c0.2-1.9,1.9-3.2,3.8-3c1.9,0.2,3.2,1.9,3,3.8
		c0,0.1-0.3,2.8-0.2,6.8C1074.3,352.1,1072.8,353.7,1070.9,353.7C1070.9,353.7,1070.9,353.7,1070.9,353.7z"/>
	<path class="st49" d="M1085.7,335.2L1075,306c-0.6-1.5,0.2-3.2,1.7-3.8l0,0c1.3-0.5,2.7-0.1,3.5,1l23.5,32.1L1085.7,335.2z"/>
	<path class="st52" d="M1185.6,335.2c0.9,0,1.7,0.2,2.5,0.5c12.3-6.2-1.2-13.7-12.2-10.1c-11.6,3.9-18.4,2.9-11.6-6.8
		c6.8-9.7-13.6-10.7-15.5,0c-1.8,9.8-20.7,15.5-24.7,16.4L1185.6,335.2L1185.6,335.2z"/>
	<path class="st53" d="M1175.3,335.2c1.4-3-4.9-5.5-10.2-3.8c-7.1,2.4-11.2,1.8-7.1-4.1c4.1-5.9-8.3-6.5-9.4,0
		c-0.6,3.5-5,6.2-8.9,7.9L1175.3,335.2L1175.3,335.2z"/>
	<path class="st54" d="M1114.8,331.4c0,0,1.9-6.8,5.8-6.8s1.9,5.8-1,6.8C1116.7,332.4,1114.8,331.4,1114.8,331.4z"/>
	<path class="st52" d="M1132.1,323.4c-0.2-2-0.6-4-1.3-5.8c-0.7-2-1.2-4.1,0.4-3.6c2.9,1,5.8,8.7,2.9,10.7
		C1132.7,325.6,1132.2,324.6,1132.1,323.4z"/>
	<path class="st53" d="M1179.7,317.8c1,0,4.8-7.8,6.8-4.8c1.9,2.9-4.9,7.8-6.8,6.8C1177.8,318.8,1179.7,317.8,1179.7,317.8z"/>
	<path class="st54" d="M1166.4,321.2c0,0,3.9-5.2,5.2-2.6C1173,321.2,1167.7,321.2,1166.4,321.2z"/>
</g>
<g>
	<path class="st32" d="M1101.9,291.2c-1.4-3.5-5.2-4.7-8.4-2.6l-7.8,5c-3.2,2.1-5.8,6.2-5.8,9.3s2.2,5.5,4.8,5.5
		c2.7,0,2.8,2.4,0.4,5.3l-0.8,0.9c-2.4,2.9-2.3,7.2,0.4,9.6c2.7,2.4,7,2.4,9.7,0c2.7-2.4,6.9-6.7,9.3-9.6l0.7-0.8
		c2.5-2.9,3.3-8.1,1.9-11.6L1101.9,291.2z"/>
</g>
<path class="st55" d="M1475.9,452H807.4c-9.2,0-15.5-9.1-12.4-17.7l0,0c3.1-8.6,11.3-14.3,20.4-14.3h652.5c9.1,0,17.3,5.7,20.4,14.3
	l0,0C1491.4,442.9,1485,452,1475.9,452z"/>
<path class="st36" d="M1426.8,444.9h-21.5c-5.1,0-9.3-4.2-9.3-9.3l0,0c0-5.1,4.2-9.3,9.3-9.3h21.5c5.1,0,9.3,4.2,9.3,9.3l0,0
	C1436.2,440.7,1432,444.9,1426.8,444.9z"/>
<path class="st36" d="M1315.8,447.1h-53c-12.6,0-22.9-4.2-22.9-9.3l0,0c0-5.1,10.2-9.3,22.9-9.3h53c12.6,0,22.9,4.2,22.9,9.3l0,0
	C1338.7,443,1328.4,447.1,1315.8,447.1z"/>
<g>
	<path class="st49" d="M1434,401h-172.7c-4,0-7.3,3.3-7.3,7.3v11.2h187.2v-11.2C1441.3,404.2,1438,401,1434,401z"/>
	<path class="st56" d="M1451.3,313.5l-25.6-17.6l-66,95.9l4.9,0.4c18.9,1.7,37.2-6.9,48-22.5L1451.3,313.5z"/>
	<path class="st57" d="M1364.7,392.3l-4.9-0.4l6.7-9.7c16.5-0.5,32-8.9,41.5-22.7l35.4-51.4l8,5.5l-38.7,56.2
		C1401.9,385.4,1383.6,394,1364.7,392.3z"/>
	<circle class="st57" cx="1425" cy="314.2" r="3.9"/>
	
		<rect x="1431.6" y="296.1" transform="matrix(-0.824 -0.5666 0.5666 -0.824 2448.8354 1358.7366)" class="st58" width="7.8" height="5.8"/>
	
		<linearGradient id="SVGID_27_" gradientUnits="userSpaceOnUse" x1="1432.259" y1="520.0365" x2="1481.9336" y2="520.0365" gradientTransform="matrix(1 0 0 -1 0 792)">
		<stop  offset="0" style="stop-color:#F26825"/>
		<stop  offset="1" style="stop-color:#F05123"/>
	</linearGradient>
	<path class="st59" d="M1444.2,301.5l-11.9-8.2l32.6-47.4c1.5-2.2,4-3.6,6.7-3.6l7.1,0c2.6,0,4.1,2.9,2.7,5L1444.2,301.5z"/>
	<path class="st60" d="M1408.4,332.3L1408.4,332.3c-1.1-0.8-2.6-0.5-3.4,0.6l-24.7,36c-0.8,1.1-0.5,2.6,0.6,3.4l0,0
		c1.1,0.8,2.6,0.5,3.4-0.6l24.7-36C1409.8,334.6,1409.5,333,1408.4,332.3z"/>
	<path class="st60" d="M1415.6,321.9L1415.6,321.9c-1.1-0.8-2.6-0.5-3.4,0.6l-2.7,4c-0.8,1.1-0.5,2.6,0.6,3.4l0,0
		c1.1,0.8,2.6,0.5,3.4-0.6l2.7-4C1416.9,324.2,1416.7,322.7,1415.6,321.9z"/>
	<path class="st61" d="M1304.8,401c0,0-12-17.5,1.6-17.5c13.6,0,28.1,16.5,58.2,6.8c30.1-9.7,67.9-12.6,68.9-1.9
		c1,10.7-5.4,12.9-5.4,12.9L1304.8,401z"/>
	<path class="st31" d="M1423.8,392.2c-0.3,0-0.6,0-0.9-0.2c-1.9-0.6-4.4-1.1-7.2-1.3c-1.6-0.1-2.8-1.5-2.7-3.1
		c0.1-1.6,1.5-2.8,3.1-2.7c3.3,0.3,6.2,0.8,8.6,1.6c1.5,0.5,2.4,2.2,1.8,3.7C1426.2,391.5,1425,392.2,1423.8,392.2z"/>
	<path class="st31" d="M1378.6,394.8c-1.3,0-2.5-0.9-2.8-2.2c-0.4-1.6,0.6-3.1,2.1-3.5c0.6-0.2,15.8-3.8,30-4.3
		c1.6-0.1,2.9,1.2,3,2.8c0.1,1.6-1.2,3-2.8,3c-13.6,0.5-28.7,4.1-28.8,4.1C1379,394.8,1378.8,394.8,1378.6,394.8z"/>
</g>
</svg>
