<?xml version="1.0" encoding="utf-8"?>
<!-- Generator: Adobe Illustrator 16.0.0, SVG Export Plug-In . SVG Version: 6.00 Build 0)  -->
<!DOCTYPE svg PUBLIC "-//W3C//DTD SVG 1.1//EN" "http://www.w3.org/Graphics/SVG/1.1/DTD/svg11.dtd">
<svg version="1.1" id="Layer_1" xmlns="http://www.w3.org/2000/svg" xmlns:xlink="http://www.w3.org/1999/xlink" x="0px" y="0px"
	 width="900px" height="623.969px" viewBox="0 0 900 623.969" enable-background="new 0 0 900 623.969" xml:space="preserve">
<line fill="none" stroke="#716F82" stroke-width="7" stroke-miterlimit="10" x1="63.673" y1="558.232" x2="843.602" y2="558.232"/>
<g>
	<rect x="176.558" y="155.142" fill="#072050" width="66.119" height="142.217"/>
	<g>
		<path fill="#747282" d="M103.118,247.453H315.14V110.551c0-4.789-3.883-8.671-8.672-8.671H111.79
			c-4.789,0-8.671,3.882-8.671,8.671V247.453z"/>
		<path fill="#747282" d="M123.453,268.719h175.352c10.111,0,18.308-8.197,18.308-18.308v-7.014H105.145v7.014
			C105.145,260.522,113.341,268.719,123.453,268.719z"/>
		<path fill="#2D2D3A" d="M322.56,110.543v136.91l-52.03-0.83l-54.461-0.87l-17.2-0.28l-55.04-0.88l-33.3-0.53v-133.52
			c0-4.78,3.88-8.66,8.669-8.66h194.68C318.68,101.884,322.56,105.764,322.56,110.543z"/>
		<path fill="#FFFFFF" d="M118.449,114.423v120.786c0,0.443,0.359,0.802,0.802,0.802h194.592c0.443,0,0.802-0.358,0.802-0.802
			V114.423c0-0.443-0.359-0.802-0.802-0.802H119.25C118.808,113.622,118.449,113.98,118.449,114.423z"/>
		<path fill="#A29FB0" d="M128.865,268.719h175.352c10.111,0,18.308-8.197,18.308-18.308v-7.014H110.557v7.014
			C110.557,260.522,118.753,268.719,128.865,268.719z"/>
	</g>
	<path fill="#A29FB0" d="M174.89,297.91h88.627c2.719,0,4.923-2.205,4.923-4.924l0,0c0-2.719-2.204-4.924-4.923-4.924H174.89
		c-2.719,0-4.924,2.205-4.924,4.924l0,0C169.966,295.705,172.171,297.91,174.89,297.91z"/>
	<g>
		<path fill="#6E89C4" d="M305.335,134.867H131.04c-1.452,0-2.628-1.177-2.628-2.628v-10.167c0-1.452,1.177-2.628,2.628-2.628
			h174.295c1.452,0,2.629,1.177,2.629,2.628v10.167C307.964,133.69,306.787,134.867,305.335,134.867z"/>
		<g>
			<g>
				<ellipse fill="#EA5444" cx="138.723" cy="126.914" rx="3.289" ry="3.37"/>
			</g>
		</g>
		<g>
			<g>
				<ellipse fill="#FFC543" cx="150.716" cy="126.914" rx="3.289" ry="3.37"/>
			</g>
		</g>
		<g>
			<g>
				<ellipse fill="#A2CC3B" cx="162.709" cy="126.914" rx="3.289" ry="3.37"/>
			</g>
		</g>
		<path fill="#313D6E" d="M187.784,161.927h-58.248c-0.874,0-1.583-0.708-1.583-1.583v-17.768c0-0.874,0.709-1.583,1.583-1.583
			h58.248c0.874,0,1.583,0.709,1.583,1.583v17.768C189.366,161.219,188.658,161.927,187.784,161.927z"/>
		<path fill="#678C6E" d="M259.279,188.368h-58.248c-0.874,0-1.582-0.708-1.582-1.583v-17.768c0-0.874,0.708-1.583,1.582-1.583
			h58.248c0.874,0,1.583,0.708,1.583,1.583v17.768C260.862,187.66,260.153,188.368,259.279,188.368z"/>
		<path fill="#678C6E" d="M306.381,161.927h-35.229c-0.875,0-1.583-0.708-1.583-1.583v-17.768c0-0.874,0.708-1.583,1.583-1.583
			h35.229c0.874,0,1.583,0.709,1.583,1.583v17.768C307.964,161.219,307.255,161.927,306.381,161.927z"/>
		<path fill="#EA5444" d="M306.381,188.782h-35.229c-0.875,0-1.583-0.708-1.583-1.583v-17.767c0-0.875,0.708-1.583,1.583-1.583
			h35.229c0.874,0,1.583,0.708,1.583,1.583v17.767C307.964,188.073,307.255,188.782,306.381,188.782z"/>
		<g>
			<rect x="199.907" y="157.755" fill="#072050" width="61.413" height="1.501"/>
			<rect x="199.907" y="152.414" fill="#072050" width="61.413" height="1.501"/>
			<rect x="199.907" y="147.072" fill="#072050" width="61.413" height="1.501"/>
			<rect x="199.907" y="141.731" fill="#072050" width="61.413" height="1.501"/>
		</g>
		<path fill="#EA5444" d="M187.784,214.396h-58.248c-0.874,0-1.583-0.708-1.583-1.583v-17.768c0-0.874,0.709-1.583,1.583-1.583
			h58.248c0.874,0,1.583,0.708,1.583,1.583v17.768C189.366,213.688,188.658,214.396,187.784,214.396z"/>
		<g>
			<rect x="199.907" y="210.225" fill="#072050" width="61.413" height="1.501"/>
			<rect x="199.907" y="204.883" fill="#072050" width="61.413" height="1.501"/>
			<rect x="199.907" y="199.542" fill="#072050" width="61.413" height="1.501"/>
			<rect x="199.907" y="194.201" fill="#072050" width="61.413" height="1.501"/>
		</g>
		<g>
			<rect x="127.724" y="183.37" fill="#072050" width="61.414" height="1.501"/>
			<rect x="127.724" y="178.029" fill="#072050" width="61.414" height="1.501"/>
			<rect x="127.724" y="172.688" fill="#072050" width="61.414" height="1.501"/>
			<rect x="127.724" y="167.346" fill="#072050" width="61.414" height="1.501"/>
		</g>
	</g>
	<polygon opacity="0.55" fill="#C5CBED" points="281.76,101.884 216.069,243.593 143.83,243.593 209,101.884 	"/>
</g>
<image overflow="visible" width="600" height="400" xlink:href="../../../bigly/public/img/cataloguing/FLIPKART.png"  transform="matrix(0.3085 0 0 0.3017 118.8271 114.5645)">
</image>
<g>
	<path fill="#7C4B39" d="M329.361,31.343l13.573,8.399c9.835,6.086,13.347,18.7,8.095,29.004c-1.044,2.049-1.697,3.369-1.566,3.218
		c0.514-0.592-20.79-40.45-20.79-40.45"/>
	<path fill="#FCBBA4" d="M294.034,161.171h-7.022c-6.443,0-11.715-5.272-11.715-11.715v-33.012c0-6.443,5.271-11.715,11.715-11.715
		h7.022c6.443,0,11.715,5.272,11.715,11.715v33.012C305.749,155.899,300.477,161.171,294.034,161.171z"/>
	<path fill="#7C4B39" d="M349.224,71.965c0.315,2.658-12.143,7.154-12.29,9.959l2.027,5.63c-15.297-5.546-1.802,2.907-1.802,2.928
		c-4.543,13.48-2.963,20.939-15.941,26.067c-6.468,2.554-13.564,3.726-20.952,3.203c-9.922-0.69-18.734,2.407-25.935-1.026
		c-1.486-0.691-2.888-1.675-4.228-2.993c-2.533-2.533-4.793-5.317-6.699-8.331c-0.732-1.193-1.444-2.387-2.093-3.643
		c-3.914-7.556-11.92-29.744-11.271-38.849c1.8-25.705,26.426-42.911,54.769-40.964c0.731,0.05,1.444,0.063,2.177,0.104
		c15.302,1.068,28.384,9.189,36.379,20.974c0.419,0.628,0.837,1.276,1.235,1.925c0,0.021,0,0.021,0,0.021
		c2.303,3.747,3.538,19.781,3.538,19.781C348.66,68.448,349.015,70.186,349.224,71.965z"/>
	<path fill="#FFC7B0" d="M348.082,80.191l-0.356,7.054l-0.607,11.701l-0.952,4.148c-0.083,1.842-1.016,11.529-1.351,13.288
		c-3.223,16.557-14.095,20.073-30.966,22.167c-0.502,0.084-1.025,0.126-1.528,0.147c-1.8,0.188-3.621,0.209-5.484,0.125
		c-1.8-0.083-3.558-0.314-5.296-0.649c-3.369-0.607-6.615-1.675-9.607-3.098c0,0-0.021,0-0.042-0.021
		c-7.452-3.517-13.585-9.273-17.562-16.327c-3.034-5.338-4.835-11.408-5.023-17.834c-0.021-0.439-0.021-0.879-0.021-1.339
		c-0.021-0.502,0-1.046,0.042-1.591v-0.272l0.042-1.276l0.189-3.329l0.564-11.492l0.022-0.104v-0.021l0.105-2.134l0.083-1.654
		l0.084-1.528l0.021-0.398c0.167-2.658,0.691-5.212,1.486-7.661c0.502-1.738,1.151-3.412,1.884-5.023
		c0.105-0.251,0.188-0.481,0.313-0.733c0.586-1.318,1.278-2.638,2.031-3.873c0-0.021,0-0.021,0-0.021
		c2.847-4.751,6.657-8.854,11.177-12.015c0.9-0.649,1.842-1.255,2.784-1.821c6.573-3.852,14.317-5.924,22.46-5.505
		c6.782,0.356,11.794,2.386,17.257,5.672c3.306,1.989,6.3,4.438,8.875,7.264c3.663,3.977,6.05,8.666,7.807,13.835
		c0.106,0.293,0.189,0.586,0.273,0.879c0.523,1.695,0.879,3.433,1.087,5.212C348.187,74.623,348.229,77.386,348.082,80.191z"/>
	<path fill="#7C4B39" d="M333.836,45.213c8.277,22.803-13.513,20.945-14.526,31.418c-0.114,1.177-0.533,2.91-0.845,11.486
		l-1.664,5.365c-0.482,1.675-2.031,2.826-3.769,2.826c-2.176,0-3.935-1.758-3.935-3.935v-0.104l0.189-8.541l-4.25,11.262
		c-3.056,8.121-7.703,15.468-13.563,21.664c-4.878,5.128-10.592,9.482-16.934,12.79c0,0-26.584-15.804-26.584-51.89
		c0-2.868,0.167-5.861,0.523-8.979c0.335-2.805,0.795-5.422,1.424-7.871c11.009-44.836,66.102-29.535,71.398-27.546
		C326.869,35.25,333.836,45.213,333.836,45.213z"/>
	<path fill="#FFC7B0" d="M352.77,104.357c0.007,0.074-0.008,0.591-0.008,0.591c-0.072,2.467-2.209,4.426-7.5,4.273l0.741-19.255
		C350.298,96.517,352.381,100.324,352.77,104.357z"/>
	<path fill="#7C4B39" d="M349.892,81.051h-11.774c-1.366,0-2.485-1.119-2.485-2.486l0,0c0-1.367,1.118-2.486,2.485-2.486h11.774
		c1.367,0,2.486,1.119,2.486,2.486l0,0C352.378,79.932,351.259,81.051,349.892,81.051z"/>
	<path fill="#081344" d="M343.276,89.916L343.276,89.916c-0.977,0-1.776-0.799-1.776-1.776v-2.615c0-0.977,0.799-1.776,1.776-1.776
		l0,0c0.977,0,1.775,0.799,1.775,1.776v2.615C345.051,89.117,344.252,89.916,343.276,89.916z"/>
	<path opacity="0.2" fill="#081344" d="M291.474,116.654c-4.878,5.128-10.592,9.482-16.934,12.79c0,0-26.584-15.804-26.584-51.89
		c0-2.868,0.167-5.861,0.523-8.979c0.335-2.805,0.795-5.422,1.424-7.871c1.172,6.866,4.27,17.269,12.182,30.121
		C274.121,110.375,287.183,115.46,291.474,116.654z"/>
	<path fill="#7C4B39" d="M345.167,115.183l-0.351,13.474c0,11.486-13.604,16.102-23.701,15.01l-16.093-1.74l1.62-13.946
		l4.392-26.688l-7.095-19.932l14.612,6.065l-0.002,0.022c-1.104,15.837,10.244,28.638,26.102,27.906L345.167,115.183z"/>
	<path fill="#FCBBA4" d="M308.131,80.864c1.626,0.009,2.937,1.336,2.926,2.963l-0.068,10.026l-0.07,8.759l-3.443-0.02
		c-0.251-0.005-0.503-0.009-0.741-0.046c-5.757-0.436-10.302-5.47-10.272-11.225c0.01-2.987,1.281-5.527,3.3-7.503
		c1.809-1.762,4.248-2.766,6.946-2.916l0.015-0.001c0.313-0.045,0.579-0.057,0.894-0.04L308.131,80.864z"/>
	<g>
		<rect x="204.75" y="374.109" fill="#081344" width="92.601" height="17.075"/>
		<line fill="#313D6E" x1="173.167" y1="533.38" x2="173.167" y2="539.929"/>
		<rect x="558.828" y="375.552" fill="#716F82" width="84.824" height="17.074"/>
		<rect x="630" y="317.485" fill="#716F82" width="19.293" height="240.462"/>
		<rect x="552.531" y="316.044" fill="#B1AEC1" width="19.294" height="241.903"/>
		<rect x="552.531" y="306.285" fill="#716F82" width="19.294" height="103.208"/>
		<rect x="96.162" y="375.552" fill="#716F82" width="84.823" height="17.074"/>
		<rect x="167.334" y="317.485" fill="#716F82" width="19.293" height="240.462"/>
		<rect x="89.865" y="316.044" fill="#716F82" width="19.293" height="241.903"/>
		<g>
			<rect x="446.811" y="155.967" fill="#585668" width="63.672" height="136.955"/>
			<g>
				<g>
					<path fill="#DDDDDD" d="M578.203,247.939H368.897V120.104c0-4.612,3.738-8.351,8.35-8.351h192.604
						c4.613,0,8.352,3.739,8.352,8.351V247.939z"/>
					<path fill="#DDDDDD" d="M558.547,268.419H384.553c-9.737,0-17.631-7.894-17.631-17.631v-6.754h209.255v6.754
						C576.178,260.525,568.283,268.419,558.547,268.419z"/>
					<path fill="#767684" d="M570.99,120.094v127.85H361.68v-127.85c0-4.61,3.74-8.34,8.351-8.34H562.64
						C567.25,111.754,570.99,115.484,570.99,120.094z"/>
					<path fill="#1F3468" d="M563.369,119.833v116.32c0,0.42-0.35,0.77-0.779,0.77H370.069c-0.419,0-0.77-0.35-0.77-0.77v-116.32
						c0-0.43,0.35-0.77,0.77-0.77H562.59C563.02,119.063,563.369,119.403,563.369,119.833z"/>
					<path fill="#ABA9C4" d="M570.969,244.034v6.75c0,7.08-4.169,13.19-10.188,15.99c-2.261,1.06-4.79,1.65-7.45,1.65H379.34
						c-9.74,0-17.63-7.9-17.63-17.64v-6.75H570.969z"/>
				</g>
				<g>
					<g>
						<rect x="380.537" y="133.429" fill="#6E89C4" width="65.027" height="2.251"/>
						<rect x="473.76" y="133.429" fill="#DDDDDD" width="30.789" height="2.251"/>
						<rect x="518.213" y="133.429" fill="#FFC543" width="30.789" height="2.251"/>
						<rect x="507.289" y="133.429" fill="#6E89C4" width="7.284" height="2.251"/>
						<rect x="448.613" y="133.429" fill="#EA5444" width="21.582" height="2.251"/>
					</g>
					<g>
						<rect x="380.537" y="191.054" fill="#6E89C4" width="65.027" height="2.251"/>
						<rect x="473.76" y="191.054" fill="#DDDDDD" width="30.789" height="2.251"/>
						<rect x="518.213" y="191.054" fill="#FFC543" width="30.789" height="2.251"/>
						<rect x="507.289" y="191.054" fill="#6E89C4" width="7.284" height="2.251"/>
						<rect x="448.613" y="191.054" fill="#A29FB0" width="21.582" height="2.251"/>
					</g>
					<g>
						<rect x="483.975" y="171.846" fill="#6E89C4" width="65.027" height="2.251"/>
						<rect x="424.989" y="171.846" fill="#DDDDDD" width="30.79" height="2.251"/>
						<rect x="380.538" y="171.846" fill="#FFC543" width="30.79" height="2.251"/>
						<rect x="414.966" y="171.846" fill="#6E89C4" width="7.283" height="2.251"/>
						<rect x="459.345" y="171.846" fill="#A29FB0" width="21.581" height="2.251"/>
					</g>
					<g>
						<rect x="380.538" y="143.033" fill="#EA5444" width="24.385" height="2.251"/>
						<rect x="453.439" y="143.033" fill="#6E89C4" width="10.468" height="2.251"/>
						<rect x="497.891" y="143.033" fill="#DDDDDD" width="51.111" height="2.251"/>
						<rect x="466.648" y="143.033" fill="#6E89C4" width="27.604" height="2.251"/>
						<rect x="407.971" y="143.033" fill="#6E89C4" width="41.902" height="2.251"/>
					</g>
					<g>
						<rect x="380.538" y="200.658" fill="#6E89C4" width="24.385" height="2.251"/>
						<rect x="453.439" y="200.658" fill="#6E89C4" width="10.468" height="2.251"/>
						<rect x="497.891" y="200.658" fill="#6E89C4" width="51.111" height="2.251"/>
						<rect x="466.648" y="200.658" fill="#6E89C4" width="27.604" height="2.251"/>
						<rect x="407.971" y="200.658" fill="#6E89C4" width="41.902" height="2.251"/>
					</g>
					<g>
						<rect x="380.538" y="181.45" fill="#EA5444" width="24.385" height="2.251"/>
						<rect x="453.439" y="181.45" fill="#6E89C4" width="10.468" height="2.251"/>
						<rect x="497.891" y="181.45" fill="#DDDDDD" width="51.111" height="2.251"/>
						<rect x="466.648" y="181.45" fill="#6E89C4" width="27.604" height="2.251"/>
						<rect x="407.971" y="181.45" fill="#6E89C4" width="41.902" height="2.251"/>
					</g>
					<g>
						<rect x="380.538" y="152.637" fill="#DDDDDD" width="24.385" height="2.251"/>
						<rect x="407.971" y="152.637" fill="#6E89C4" width="41.902" height="2.251"/>
					</g>
					<g>
						<rect x="425.488" y="162.241" fill="#DDDDDD" width="24.386" height="2.251"/>
						<rect x="380.538" y="162.241" fill="#6E89C4" width="41.902" height="2.251"/>
					</g>
				</g>
			</g>
			<path fill="#4A4960" d="M509.012,296.53h-85.348c-2.619,0-4.742-2.123-4.742-4.742l0,0c0-2.619,2.123-4.742,4.742-4.742h85.348
				c2.619,0,4.742,2.123,4.742,4.742l0,0C513.754,294.407,511.631,296.53,509.012,296.53z"/>
		</g>
		<path fill="#E79271" d="M665.785,317.3h-269.11v-13.91c0-4.21,3.414-7.624,7.624-7.624h253.862c4.21,0,7.624,3.413,7.624,7.624
			V317.3z"/>
		<g>
			<path fill="#A5483C" d="M587.34,303.394v13.91H69.23v-13.91c0-4.21,3.41-7.63,7.62-7.63h502.869
				C583.93,295.764,587.34,299.184,587.34,303.394z"/>
			<path fill="#84352F" d="M437.43,295.764c-4.11,6.7-9.01,14.689-13.2,21.54H297.469l1.73-21.54H437.43z"/>
		</g>
		<g>
			<rect x="692.711" y="391.107" fill="#7F3954" width="133.144" height="166.84"/>
			<rect x="645.529" y="391.107" fill="#6E3856" width="130.846" height="166.84"/>
			<g>
				<rect x="644.037" y="403.601" fill="#DF7D54" width="124.123" height="45.135"/>
				<rect x="644.037" y="456.564" fill="#DF7D54" width="124.123" height="45.135"/>
				<rect x="644.037" y="509.528" fill="#DF7D54" width="124.123" height="48.419"/>
			</g>
			<g>
				<path fill="#FFFFFF" d="M683.531,428.586h31.031c1.33,0,2.418-1.088,2.418-2.418l0,0c0-1.33-1.088-2.418-2.418-2.418h-31.031
					c-1.33,0-2.418,1.088-2.418,2.418l0,0C681.113,427.498,682.201,428.586,683.531,428.586z"/>
				<path fill="#FFFFFF" d="M682.322,481.177h31.03c1.33,0,2.418-1.088,2.418-2.418l0,0c0-1.33-1.088-2.418-2.418-2.418h-31.03
					c-1.33,0-2.418,1.088-2.418,2.418l0,0C679.904,480.089,680.992,481.177,682.322,481.177z"/>
				<path fill="#FFFFFF" d="M682.322,533.768h31.03c1.33,0,2.418-1.088,2.418-2.418l0,0c0-1.33-1.088-2.418-2.418-2.418h-31.03
					c-1.33,0-2.418,1.088-2.418,2.418l0,0C679.904,532.68,680.992,533.768,682.322,533.768z"/>
			</g>
		</g>
		<g>
			<g>
				<path fill="#7F3954" d="M341.948,568.149l62.191,0.661c3.709,0.039,6.748-2.935,6.787-6.644l0,0
					c0.031-2.856-1.749-5.419-4.436-6.389l-30.656-11.061l-33.642,0.462L341.948,568.149z"/>
				<path fill="#081344" d="M405.368,570.551l-62.962-0.203l0.015-4.512l67.474,0.218l0,0
					C409.886,568.546,407.859,570.56,405.368,570.551z"/>
			</g>
			<g>
				
					<line fill="none" stroke="#081344" stroke-width="1.4933" stroke-linecap="round" stroke-miterlimit="10" x1="375.044" y1="553.81" x2="382.374" y2="546.027"/>
				
					<line fill="none" stroke="#081344" stroke-width="1.4933" stroke-linecap="round" stroke-miterlimit="10" x1="380.388" y1="556.084" x2="387.717" y2="548.302"/>
				
					<line fill="none" stroke="#081344" stroke-width="1.4933" stroke-linecap="round" stroke-miterlimit="10" x1="385.502" y1="559.122" x2="393.753" y2="550.297"/>
			</g>
			<g>
				<path fill="#1C1C2D" d="M339.829,547.716c3.608-60.665,2.635-116.752-2.091-128.111c-4.847-7.054-42.628-22.34-80.389-23.988
					l17.671-38.577c49.528,2.488,84.931,21.071,97.314,42.311c5.228,8.964,9.768,27.046,7.319,88.905
					c-1.283,32.4-2.865,57.781-2.865,57.781L339.829,547.716z"/>
			</g>
			<g>
				<path fill="#A0523A" d="M397.326,569.696l62.194,0.43c3.709,0.025,6.736-2.96,6.762-6.669l0,0
					c0.02-2.856-1.77-5.412-4.459-6.372l-30.698-10.947l-33.64,0.588L397.326,569.696z"/>
				<path fill="#081344" d="M460.754,571.861l-63.963,0.031l-0.002-4.512l68.475-0.033l0,0
					C465.266,569.839,463.246,571.86,460.754,571.861z"/>
			</g>
			<g>
				
					<line fill="none" stroke="#081344" stroke-width="1.4933" stroke-linecap="round" stroke-miterlimit="10" x1="430.368" y1="555.233" x2="437.668" y2="547.424"/>
				
					<line fill="none" stroke="#081344" stroke-width="1.4933" stroke-linecap="round" stroke-miterlimit="10" x1="435.721" y1="557.488" x2="443.02" y2="549.678"/>
				
					<line fill="none" stroke="#081344" stroke-width="1.4933" stroke-linecap="round" stroke-miterlimit="10" x1="440.846" y1="560.507" x2="449.064" y2="551.65"/>
			</g>
			<g>
				<path fill="#1C1C2D" d="M395.082,547.716c3.609-60.665,2.635-116.752-2.091-128.111c-4.847-7.054-42.628-22.34-80.389-23.988
					l17.671-38.577c49.528,2.488,84.931,21.071,97.314,42.311c5.228,8.964,9.768,27.046,7.319,88.905
					c-1.283,32.4-2.865,57.781-2.865,57.781L395.082,547.716z"/>
			</g>
			<path fill="#1C1C2D" d="M341.859,368.139c0,6.794-2.419,13.021-6.436,17.874c-5.138,6.228-12.932,10.2-21.653,10.2h-47.204
				c-1.403,0-2.777-0.104-4.122-0.313c-3.464-0.493-6.72-1.644-9.646-3.301c-0.522-0.283-1.03-0.597-1.523-0.926
				c-7.69-5.002-12.782-13.679-12.782-23.534l0.866-14.979l101.68-0.881L341.859,368.139z"/>
			<g>
				<g>
					<g>
						<path fill="#FCBBA4" d="M374.288,288.141l24.331-3.889c1.777-0.284,2.999-1.97,2.714-3.747l0,0
							c-0.284-1.777-1.97-2.998-3.747-2.714l-24.331,3.889c-1.777,0.284-2.998,1.97-2.714,3.747l0,0
							C370.825,287.203,372.511,288.425,374.288,288.141z"/>
						<path fill="#FCBBA4" d="M382.035,294.719l19.536-3.123c1.776-0.284,2.998-1.97,2.714-3.747l0,0
							c-0.284-1.776-1.97-2.998-3.747-2.714l-19.536,3.123c-1.777,0.284-2.999,1.97-2.714,3.747l0,0
							C378.572,293.782,380.258,295.003,382.035,294.719z"/>
						<path fill="#FCBBA4" d="M377.518,303.25l23.124-3.696c1.777-0.284,2.998-1.97,2.714-3.747l0,0
							c-0.284-1.777-1.97-2.998-3.747-2.714l-23.124,3.696c-1.777,0.284-2.998,1.97-2.714,3.747l0,0
							C374.056,302.313,375.742,303.534,377.518,303.25z"/>
					</g>
					<path fill="#FCBBA4" d="M384.79,281.85c-0.26,0.03-3.245-0.01-6.479-0.064c-5.583-0.093-11.11,1.146-16.122,3.61l-9.596,4.72
						c0,0,5.496,16.31,6.253,16.446c18.501,3.345,24.848-5.056,24.848-5.056L384.79,281.85z"/>
				</g>
				<rect x="362.253" y="281.785" fill="#FFFFFF" width="8.213" height="26.693"/>
			</g>
			<g>
				<path fill="#1C1C2D" d="M308.432,311.375c-19.364,0-37.068-11.303-45.204-28.907l-0.401-0.869l-25.345-77.396l31.222-10.224
					l24.699,75.423c2.93,5.628,8.824,9.189,15.197,9.119l53.84-0.533l0.326,32.852l-53.84,0.532
					C308.761,311.374,308.595,311.375,308.432,311.375z"/>
			</g>
			<g>
				<g>
					<path fill="#FCBBA4" d="M484.105,279.463c-2.014-3.588-5.036-6.525-8.727-8.344c-0.029-0.014-0.058-0.028-0.086-0.042
						c-5.019-2.452-10.55-3.672-16.133-3.563l-10.693,0.208c0,0-2.709,23.199-2.57,22.442c0.276-1.506,26.141-1.119,37.993-0.862
						c2.567,0.056,4.22-2.701,2.962-4.941L484.105,279.463z"/>
				</g>
				<rect x="441.996" y="265.974" fill="#FFFFFF" width="10.204" height="27.34"/>
			</g>
			<g>
				<path fill="#25253A" d="M392.057,296.441c-19.363,0-37.067-11.302-45.203-28.906l-36.497-78.976l29.822-13.781l36.497,78.975
					c2.791,6.04,8.832,9.915,15.548,9.834l53.84-0.533l0.325,32.851l-53.84,0.533C392.386,296.441,392.221,296.441,392.057,296.441z
					"/>
			</g>
			<path fill="#25253A" d="M350.567,204.01l-0.608,68.961l-0.772,87.804c0,0-1.894,2.118-7.535,5.084
				c-4.896,2.581-12.594,5.805-24.322,8.848c-13.666,3.549-32.911,4.098-49.354,3.695c-18.141-0.446-32.86-2.041-32.86-2.041
				l0.377-172.351c0-24.253,17.558-44.425,40.662-48.489c2.778-0.48,5.632-0.729,8.556-0.729h16.64
				C328.526,154.792,350.567,176.833,350.567,204.01z"/>
			<g>
				<g>
					<rect x="273.792" y="430.296" fill="#B1AEC1" width="16.614" height="95.368"/>
					<path fill="#716F82" d="M273.792,435.672v20.875l16.614-6.06v-14.133C286.248,436.17,278.246,435.856,273.792,435.672z"/>
				</g>
				<path fill="#2D2D3A" d="M333.209,438.538h-99.474c-5.098,0-9.27-4.172-9.27-9.271l0,0c0-5.099,4.172-9.271,9.27-9.271h99.474
					c5.099,0,9.27,4.172,9.27,9.271l0,0C342.479,434.366,338.308,438.538,333.209,438.538z"/>
				<g>
					<g>
						<path fill="#2D2D3A" d="M352.511,556.457h-10.393c0-11.703-10.102-21.226-22.518-21.226h-75.72
							c-12.417,0-22.519,9.522-22.519,21.226h-10.393c0-17.105,14.764-31.021,32.911-31.021h75.72
							C337.748,525.436,352.511,539.352,352.511,556.457z"/>
					</g>
					<rect x="269.862" y="510.74" fill="#2D2D3A" width="24.25" height="14.928"/>
				</g>
				<g>
					<ellipse fill="#081344" cx="215.77" cy="565.931" rx="8.633" ry="8.138"/>
					<path fill="#072050" d="M228.219,565.212h-23.626v-2.151c0-6.091,4.938-11.029,11.029-11.029h1.567
						c6.091,0,11.029,4.938,11.029,11.029V565.212z"/>
					<ellipse fill="#081344" cx="347.802" cy="565.931" rx="8.633" ry="8.138"/>
					<path fill="#072050" d="M360.252,565.212h-23.627v-2.151c0-6.091,4.938-11.029,11.03-11.029h1.567
						c6.092,0,11.03,4.938,11.03,11.029V565.212z"/>
				</g>
				<rect x="275.598" y="528.468" fill="#2D2D3A" width="13.757" height="29.389"/>
				<g>
					<ellipse fill="#081344" cx="282.767" cy="565.931" rx="8.633" ry="8.138"/>
					<path fill="#072050" d="M295.216,565.212H271.59v-2.151c0-6.091,4.938-11.029,11.03-11.029h1.567
						c6.091,0,11.029,4.938,11.029,11.029V565.212z"/>
				</g>
			</g>
			<path fill="#9F293B" d="M149.817,250.85l22.25,160.61c1.353,9.768,9.551,17.137,19.407,17.443l81.193,0.931l-45.147-201.957
				l-57.633-0.032C157.598,227.826,148.131,238.678,149.817,250.85z"/>
			<path fill="#F14747" d="M368.549,429.834H255.677c-9.623,0-17.497-7.873-17.497-17.496v-0.001
				c0-9.623,7.874-17.496,17.497-17.496h112.873c9.623,0,17.496,7.873,17.496,17.496v0.001
				C386.045,421.961,378.172,429.834,368.549,429.834z"/>
			<path fill="#1C1C2D" d="M262.085,198.823c-2.187,31.66,3.978,145.852,5.89,179.578c-18.141-0.446-32.86-2.041-32.86-2.041
				l0.377-172.351c0-24.253,17.558-44.425,40.662-48.489C276.153,155.521,264.657,161.531,262.085,198.823z"/>
			<polygon fill="#FFFFFF" points="318.673,157.776 267.901,157.776 267.901,143.59 318.673,149.59 			"/>
			<path fill="#F14747" d="M236.717,407.732L213.132,243.02c-1.051-7.338,4.459-14.152,12.244-15.143l0,0
				c7.785-0.991,15.014,4.203,16.064,11.541l23.584,164.712c1.051,7.339-4.459,14.152-12.244,15.144l0,0
				C244.996,420.265,240.968,425.768,236.717,407.732z"/>
			<path fill="#1C1C2D" d="M349.958,272.971l-0.772,87.804c0,0-1.894,2.118-7.535,5.084l-11.694-132.332
				C329.958,233.526,340.673,260.309,349.958,272.971z"/>
		</g>
	</g>
	<path opacity="0.32" fill="#25253A" d="M570.67,211.563l-5.811,32.47l-4.079,22.74c-2.261,1.06-4.79,1.65-7.45,1.65h-55
		c5.219-5.4,13.98-14.47,23.41-24.39c14.689-15.44,31.02-32.93,38.26-41.81L570.67,211.563z"/>
</g>
<g>
	<g>
		<path fill="#FC4F42" d="M535.775,253.387v43.086h-35.993v-43.086c0-1.896,1.545-3.441,3.441-3.441h29.11
			C534.23,249.946,535.775,251.491,535.775,253.387z"/>
		<g>
			<path fill="#EA5444" d="M500.227,289.1c-0.471-0.27-11.52-6.741-12.505-18.077c-0.376-4.322,1.26-7,2.698-8.485
				c3.954-4.084,10.526-3.849,11.262-3.81l-0.287,5.26c-1.334-0.063-5.264,0.209-7.201,2.225c-0.989,1.028-1.391,2.452-1.225,4.354
				c0.75,8.625,9.791,13.913,9.881,13.966L500.227,289.1z"/>
		</g>
	</g>
	<path fill="#EA5444" d="M518.955,296.473h-19.173v-43.086c0-1.896,1.545-3.441,3.441-3.441h1.159
		c0.053,2.248,0.666,19.436,5.495,31.814C514.074,292.54,517.814,295.718,518.955,296.473z"/>
	<path opacity="0.79" fill="#CE2D29" d="M487.721,271.017c0.877,10.201,9.92,16.468,12.062,17.803v7.655h19.173
		c-1.142-0.755-4.881-3.933-9.078-14.713c-4.828-12.378-5.441-29.567-5.494-31.814h-1.159c-1.896,0-3.441,1.544-3.441,3.441v5.355
		c-2.423,0.175-6.549,0.896-9.358,3.792C488.984,264.029,487.352,266.697,487.721,271.017z M494.199,266.206
		c1.404-1.44,3.845-2.001,5.583-2.159v18.224c-2.722-2.317-6.339-6.373-6.813-11.711
		C492.813,268.664,493.198,267.242,494.199,266.206z"/>
</g>
<g>
	<g>
		
			<rect x="120.001" y="215.651" transform="matrix(0.9847 0.1743 -0.1743 0.9847 44.4404 -17.5399)" fill="#6075B0" width="4.14" height="57.136"/>
		
			<rect x="122.697" y="214.547" transform="matrix(0.9847 0.1743 -0.1743 0.9847 40.823 -18.5307)" fill="#6075B0" width="6.418" height="17.182"/>
	</g>
	<g>
		<polygon fill="#794061" points="112.333,279.894 108.208,279.548 112.982,222.611 115.478,218.969 117.108,222.958 		"/>
	</g>
	<g>
		<polygon fill="#072859" points="106.599,282.803 102.535,283.594 91.617,227.511 93.026,223.327 95.681,226.72 		"/>
	</g>
	<g>
		<polygon fill="#F3885E" points="115.736,295.849 98.04,295.849 92.238,249.002 121.538,249.002 		"/>
		<polygon fill="#FFBE62" points="122.408,295.849 104.712,295.849 102.102,249.002 128.21,249.002 		"/>
	</g>
</g>
<g>
	<g>
		<path fill="#F14747" d="M668.693,366.445v25.781h90.033c5.588,0,10.363-3.569,12.148-8.557c0.479-1.35,0.747-2.811,0.747-4.34
			c0-3.547-1.438-6.771-3.771-9.114c-2.342-2.331-5.566-3.771-9.125-3.771H668.693z"/>
		<path opacity="0.79" fill="#CE2D29" d="M688.847,383.67v8.557h69.88c5.588,0,10.363-3.569,12.148-8.557H688.847z"/>
		<path fill="#9F293B" d="M649.445,366.441v25.788h59.029c7.118,0,12.895-5.777,12.895-12.895c0-3.552-1.443-6.779-3.772-9.122
			c-2.343-2.328-5.569-3.772-9.122-3.772L649.445,366.441z"/>
		<path fill="#FFFFFF" d="M649.445,370.862v16.533h55.553c4.568,0,8.266-3.698,8.266-8.268c0-2.283-0.928-4.347-2.416-5.85
			c-1.504-1.488-3.566-2.417-5.85-2.417L649.445,370.862z"/>
	</g>
	<g>
		<path fill="#FBAF3D" d="M666.951,315.195v25.789l90.033-0.001c7.117,0,12.895-5.776,12.895-12.894
			c0-3.552-1.445-6.779-3.773-9.122c-2.342-2.328-5.57-3.772-9.121-3.772H666.951z"/>
		<path fill="#FFD72E" d="M687.359,323.804v-8.557h69.879c5.59,0,10.364,3.57,12.149,8.557H687.359z"/>
		<path fill="#F38154" d="M649.445,315.195v25.789h59.029c7.118,0,12.895-5.777,12.895-12.895c0-3.552-1.443-6.779-3.772-9.122
			c-2.343-2.328-5.569-3.772-9.122-3.772H649.445z"/>
		<path fill="#FFFFFF" d="M649.445,319.616v16.534h55.553c4.568,0,8.266-3.698,8.266-8.268c0-2.283-0.928-4.347-2.416-5.85
			c-1.504-1.488-3.566-2.417-5.85-2.417H649.445z"/>
	</g>
	<g>
		<path fill="#A2CC3B" d="M662.301,341.133v25.792h90.033c7.117,0,12.885-5.778,12.885-12.896c0-2.187-0.547-4.251-1.506-6.058
			c-0.603-1.127-1.372-2.165-2.266-3.068c-2.342-2.331-5.566-3.771-9.113-3.771H662.301z"/>
		<path fill="#709B2C" d="M664.684,341.133v6.839h99.029c-0.603-1.127-1.372-2.165-2.266-3.068
			c-2.342-2.331-5.566-3.771-9.113-3.771H664.684z"/>
		<path fill="#709B2C" d="M664.684,366.937v-6.839h99.029c-0.603,1.127-1.372,2.164-2.266,3.068
			c-2.342,2.331-5.566,3.771-9.113,3.771H664.684z"/>
		<path fill="#4C842F" d="M638.736,341.134v25.788h54.03c7.118,0,12.895-5.777,12.895-12.895c0-3.552-1.444-6.779-3.772-9.122
			c-2.344-2.328-5.57-3.772-9.122-3.772L638.736,341.134z"/>
		<path fill="#FFFFFF" d="M638.736,345.554v16.534h50.553c4.568,0,8.267-3.698,8.267-8.267c0-2.284-0.928-4.348-2.417-5.851
			c-1.502-1.488-3.565-2.417-5.85-2.417H638.736z"/>
	</g>
</g>
<g>
	<g>
		<g>
			<path fill="#081344" d="M676.189,189.725L676.189,189.725c-4.308-4.594-3.934-11.683,0.833-15.834l0.54-0.47
				c4.768-4.15,12.125-3.791,16.433,0.803l0,0c4.308,4.594,3.935,11.683-0.833,15.833l-0.54,0.47
				C687.854,194.678,680.497,194.318,676.189,189.725z"/>
			<path fill="#DF7D54" d="M685.338,212.02l-11.331,9.864l-32.173-34.313l11.33-9.864c7.852-6.834,19.112-7.743,27.852-3
				c2.208,1.194,4.25,2.745,6.041,4.656c4.438,4.733,6.47,10.756,6.166,16.672C692.903,201.95,690.25,207.743,685.338,212.02z"/>
			<path fill="#FFC543" d="M675.102,201.102l-11.332,9.864l-21.936-23.395l11.33-9.864c7.852-6.834,19.112-7.743,27.852-3
				c1.502,3.31,2.155,6.876,1.97,10.41C682.666,191.032,680.014,196.825,675.102,201.102z"/>
		</g>
		<path fill="#A29FB0" d="M674.594,221.751c-3.418,3.052-13.52-2.047-22.563-11.41c-9.042-9.364-13.613-19.431-10.189-22.493
			c2.696-2.419,9.578,0.264,16.817,6.123c1.905,1.557,3.851,3.327,5.735,5.282c2.205,2.286,4.148,4.612,5.77,6.87
			C675.199,213.112,677.178,219.44,674.594,221.751z"/>
		<path fill="#FFFFFF" d="M670.164,206.124c-2.619,2.884-7.072,3.707-10.682,1.743c-4.121-2.244-5.58-7.299-3.246-11.279
			c0.622-1.062,1.455-1.948,2.423-2.617c1.905,1.557,3.851,3.327,5.735,5.282C666.6,201.54,668.543,203.865,670.164,206.124z"/>
	</g>
	<polyline fill="none" stroke="#081344" stroke-width="4.5943" stroke-miterlimit="10" points="733.414,300.686 762.785,205.877 
		703.307,166.255 690.824,176.868 	"/>
	<g>
		<ellipse fill="#081344" cx="702.525" cy="166.819" rx="7.313" ry="7.046"/>
		<ellipse fill="#313D6E" cx="702.525" cy="166.819" rx="3.656" ry="3.523"/>
	</g>
	<path fill="#313D6E" d="M762.98,315.509h-75.667l0,0c0-8.302,6.73-15.032,15.032-15.032h45.603
		C756.25,300.477,762.98,307.207,762.98,315.509L762.98,315.509z"/>
	<rect x="702.915" y="296.719" fill="#081344" width="13.651" height="4.134"/>
	<g>
		<ellipse fill="#081344" cx="762.2" cy="206.843" rx="10.238" ry="9.865"/>
		<ellipse fill="#313D6E" cx="762.2" cy="206.843" rx="5.119" ry="4.933"/>
	</g>
</g>
<g>
	<g>
		<path fill="#517F38" d="M827.902,321.106c-11.098,15.112-33.362,17.621-33.362,17.621s-4.271-21.994,6.827-37.107
			c11.098-15.113,33.362-17.621,33.362-17.621S839,305.993,827.902,321.106z"/>
		<path fill="#3B6837" d="M781.301,312.068c10.174,10.026,9.618,27.087,9.618,27.087s-17.05,0.803-27.224-9.225
			c-10.173-10.026-9.617-27.086-9.617-27.086S771.127,302.042,781.301,312.068z"/>
		<path fill="#65B15B" d="M806.516,304.483c2.066,18.636-12.618,35.558-12.618,35.558s-18.035-13.293-20.103-31.929
			c-2.066-18.635,12.617-35.557,12.617-35.557S804.448,285.848,806.516,304.483z"/>
	</g>
	<g>
		<polygon fill="#62324A" points="805.139,391.528 766.52,391.528 753.857,335.184 817.801,335.184 		"/>
		<polygon fill="#A0523A" points="819.699,391.528 781.08,391.528 775.383,335.184 832.361,335.184 		"/>
	</g>
</g>
<image overflow="visible" width="600" height="400" xlink:href="../../../bigly/public/img/cataloguing/AMAZON.png"  transform="matrix(0.3231 0 0 0.2935 369.4985 119.5273)">
</image>
<g>
	<path fill="#DDDDDD" d="M540.438,295.527h108.86c0.605-0.87,1.084-1.854,1.375-2.914l24.355-87.923
		c1.173-4.187-1.98-8.337-6.332-8.337h-95.781c-2.951,0-5.537,1.98-6.332,4.818L540.438,295.527z"/>
	<path fill="#A29FB0" d="M669.83,201.554l-24.34,87.84c-1.131,4.09-4.851,6.92-9.101,6.92H534.25l27.24-98.28
		c0.79-2.84,3.369-4.81,6.32-4.81H663.5C667.85,193.224,670.99,197.363,669.83,201.554z"/>
	<path fill="#1F3468" d="M664.452,205.421l-19.89,71.626l-4.174,15.002h-101.33l4.16-15.002l20.807-74.885
		c0.727-2.632,3.133-4.449,5.864-4.449h88.696C662.609,197.713,665.529,201.548,664.452,205.421z"/>
	<g>
		<g>
			<polygon fill="#ECEEF0" points="604.762,207.455 573.574,207.455 574.27,205.262 605.457,205.262 			"/>
			<polygon fill="#EA5444" points="633.053,207.455 618.285,207.455 618.98,205.262 633.747,205.262 			"/>
			<polygon fill="#A29FB0" points="654.372,207.455 639.605,207.455 640.3,205.262 655.066,205.262 			"/>
			<polygon fill="#6E89C4" points="637.859,207.455 634.367,207.455 635.061,205.262 638.555,205.262 			"/>
			<polygon fill="#A29FB0" points="616.575,207.455 606.225,207.455 606.918,205.262 617.27,205.262 			"/>
		</g>
		<g>
			<polygon fill="#DDDDDD" points="583.045,244.877 597.812,244.877 598.506,242.685 583.739,242.685 			"/>
			<polygon fill="#FFC543" points="561.725,244.877 576.492,244.877 577.186,242.685 562.419,242.685 			"/>
			<polygon fill="#6E89C4" points="578.236,244.877 581.73,244.877 582.425,242.685 578.932,242.685 			"/>
		</g>
		<g>
			<polygon fill="#EA5444" points="582.308,216.811 570.611,216.811 571.307,214.618 583.002,214.618 			"/>
			<polygon fill="#6E89C4" points="610.598,216.811 605.576,216.811 606.271,214.618 611.293,214.618 			"/>
			<polygon fill="#EA5444" points="651.41,216.811 626.896,216.811 627.591,214.618 652.104,214.618 			"/>
			<polygon fill="#6E89C4" points="625.15,216.811 611.912,216.811 612.606,214.618 625.846,214.618 			"/>
			<polygon fill="#6E89C4" points="603.866,216.811 583.77,216.811 584.465,214.618 604.561,214.618 			"/>
		</g>
		<g>
			<polygon fill="#313D6E" points="564.533,272.944 552.837,272.944 553.531,270.751 565.227,270.751 			"/>
		</g>
		<g>
			<polygon fill="#DDDDDD" points="579.346,226.166 567.649,226.166 568.344,223.973 580.039,223.973 			"/>
			<polygon fill="#DDDDDD" points="598.432,226.166 586.737,226.166 587.432,223.973 599.127,223.973 			"/>
			<polygon fill="#6E89C4" points="645.201,226.166 625.104,226.166 625.799,223.973 645.896,223.973 			"/>
		</g>
		<g>
			<polygon fill="#6E89C4" points="564.688,235.522 584.783,235.522 585.479,233.329 565.381,233.329 			"/>
		</g>
	</g>
	<polygon fill="#A29FB0" points="645.887,277.047 641.608,292.049 537.734,292.049 542,277.047 	"/>
	<polygon opacity="0.55" fill="#CDD6F9" points="638.869,193.224 636.82,197.713 600.6,277.043 596.859,285.224 557.73,285.224 
		561.469,277.043 597.689,197.713 599.74,193.224 	"/>
	<g>
		<path fill="#A29FB0" d="M589.946,296.551H465.518c-2.908,0-5.289-2.38-5.289-5.289l0,0c0-2.908,2.381-5.288,5.289-5.288h124.429
			c2.909,0,5.288,2.38,5.288,5.288l0,0C595.234,294.171,592.855,296.551,589.946,296.551z"/>
	</g>
	<polygon opacity="0.55" fill="#CDD6F9" points="523.78,119.063 469.95,236.923 412.39,236.923 466.219,119.063 	"/>
	<g>
		<g>
			<path fill="#DDDDDD" d="M637.117,296.224h-72.019c-2.908,0-5.288-2.38-5.288-5.288l0,0c0-2.909,2.38-5.289,5.288-5.289h72.019
				c2.908,0,5.287,2.38,5.287,5.289l0,0C642.404,293.844,640.025,296.224,637.117,296.224z"/>
		</g>
		<g>
			<rect x="600.951" y="289.152" fill="#081344" width="10.285" height="3.086"/>
			<rect x="590.408" y="289.152" fill="#081344" width="7.457" height="3.086"/>
		</g>
	</g>
</g>
</svg>
