<?xml version="1.0" encoding="utf-8"?>
<!-- Generator: Adobe Illustrator 16.0.0, SVG Export Plug-In . SVG Version: 6.00 Build 0)  -->
<!DOCTYPE svg PUBLIC "-//W3C//DTD SVG 1.1//EN" "http://www.w3.org/Graphics/SVG/1.1/DTD/svg11.dtd">
<svg version="1.1" id="Capa_1" xmlns="http://www.w3.org/2000/svg" xmlns:xlink="http://www.w3.org/1999/xlink" x="0px" y="0px"
	 width="140.025px" height="140.025px" viewBox="180.475 217.07 140.025 140.025"
	 enable-background="new 180.475 217.07 140.025 140.025" xml:space="preserve">
<circle fill="#F39C12" cx="250.487" cy="287.083" r="70.013"/>
<g>
	<polygon fill="#FF7058" points="295.82,251.387 294.319,250.481 298.395,243.639 299.874,244.545 	"/>
	<g>
		<path fill="#FF7058" d="M299.707,265.738c2.146,8.868-3.17,17.831-11.896,20c-8.725,2.169-17.545-3.218-19.69-12.086
			c-2.146-8.868,3.171-17.831,11.895-20C288.741,251.482,297.561,256.894,299.707,265.738z"/>
		<polygon fill="#FF7058" points="305.069,265.309 304.664,263.592 312.317,261.686 312.722,263.402 		"/>
		<polygon fill="#FF7058" points="301.946,281.806 302.853,280.303 309.576,284.428 308.695,285.93 		"/>
		<path fill="#F2F2F2" d="M201.205,265.571c-2.551,0.763-4.053,3.409-3.409,6.031l4.577,18.855l4.577,18.857
			c0.644,2.623,3.171,4.243,5.77,3.719c12.968-2.67,50.466-9.321,76.808-3.338c3.625,0.834,6.842-2.432,5.96-6.079l-8.368-34.447
			l-8.391-34.423c-0.883-3.647-5.245-5.006-8.058-2.575C250.146,249.933,213.911,261.805,201.205,265.571z"/>
		<path fill="#40596B" d="M214.03,261.423c-5.292,1.836-9.75,3.243-12.849,4.148c-2.551,0.763-4.052,3.409-3.409,6.031l9.178,37.713
			c0.644,2.623,3.171,4.243,5.77,3.719c3.003-0.62,7.342-1.455,12.539-2.289L214.03,261.423z"/>
		<path fill="#40596B" d="M287.119,269.171l-8.391-34.423c-0.883-3.647-5.245-5.006-8.057-2.574c-2.146,1.859-4.458,3.623-6.89,5.34
			l16.091,70.563c3.338,0.381,6.579,0.905,9.655,1.597c3.624,0.835,6.841-2.432,5.959-6.079L287.119,269.171z"/>
		<path fill="#FFD15C" d="M206.473,307.336l-2.86,0.715c-2.67,0.667-5.388-0.978-6.031-3.694l-5.817-23.911
			c-0.667-2.717,0.978-5.459,3.648-6.126l2.86-0.715L206.473,307.336z"/>
		<path fill="#CDD6E0" d="M242.946,347.695l-6.389,1.598c-2.265,0.572-4.625-0.548-5.65-2.693l-12.014-27.034l20.834-5.244
			l6.842,27.271C247.214,344.311,245.592,347.028,242.946,347.695z"/>
		<path fill="#ACB3BA" d="M215.175,312.534l1.835,7.509l24.65-6.198l-1.264-5.172C230.05,309.815,221.015,311.389,215.175,312.534z"
			/>
	</g>
</g>
</svg>
