<?xml version="1.0" encoding="utf-8"?>
<!-- Generator: Adobe Illustrator 16.0.0, SVG Export Plug-In . SVG Version: 6.00 Build 0)  -->
<!DOCTYPE svg PUBLIC "-//W3C//DTD SVG 1.1//EN" "http://www.w3.org/Graphics/SVG/1.1/DTD/svg11.dtd">
<svg version="1.1" id="Layer_1" xmlns="http://www.w3.org/2000/svg" xmlns:xlink="http://www.w3.org/1999/xlink" x="0px" y="0px"
	 width="494px" height="494px" viewBox="59 149 494 494" enable-background="new 59 149 494 494" xml:space="preserve">
<circle fill="#005475" cx="306" cy="396" r="247"/>
<g>
	<path fill="#FFFFFF" d="M465.261,471.568l13.417-7.584c-0.875-4.959-2.04-9.918-3.791-14.876h-15.459l-8.459-14.875l7.876-13.418
		c-3.208-3.793-6.709-7.585-10.793-10.794l-13.417,7.584l-14.877-8.75v-15.458c-0.292,0-0.583-0.292-1.166-0.292
		c-4.376-1.459-9.041-2.918-13.71-3.794l-7.875,13.418h-17.21l-7.583-13.418c-4.958,0.875-9.918,2.043-14.876,3.794v15.458
		l-14.877,8.461l-13.417-7.877c-3.792,3.208-7.583,6.708-10.791,10.792l7.582,13.417l-8.749,14.877h-15.46
		c-1.75,4.958-3.208,9.625-4.083,14.584l13.418,7.876v17.209l-13.418,7.585c0.875,4.958,2.042,9.917,3.792,14.876h15.459
		l8.459,14.874l-7.875,13.419c3.207,3.791,6.708,7.584,10.792,10.792l13.417-7.583l14.877,8.748v15.461
		c0.291,0,0.583,0.292,1.165,0.292c4.376,1.459,9.043,2.915,13.709,3.791l7.877-13.416h17.21l7.583,13.416
		c4.958-0.876,9.918-2.043,14.876-3.791v-15.459l14.875-8.46l13.419,7.874c3.791-3.208,7.583-6.707,10.792-10.79l-7.585-13.418
		l8.751-14.878h15.46c1.749-4.956,3.207-9.625,4.082-14.583l-13.417-7.875V471.568z M388.256,530.488
		c-28.002,0-51.045-22.752-51.045-50.754c0-28.001,22.752-51.045,51.045-51.045c28.002,0,51.045,22.752,51.045,50.754
		C439.301,507.444,416.258,530.488,388.256,530.488z"/>
	<path fill="#26A6D1" d="M308.918,386.102c0-5.54-0.291-11.374-1.166-16.916l-16.626-3.5L285,347.602l11.375-12.834
		c-2.625-4.958-5.834-9.625-9.333-14.001l-16.334,5.542l-14.293-12.543l3.5-16.917c-4.958-2.917-9.917-5.543-15.167-7.584
		l-11.084,12.834l-18.668-3.792l-5.542-16.334c-5.542,0-11.376,0.292-16.918,1.166l-3.5,16.626l-18.084,6.125l-12.834-11.375
		c-4.958,2.625-9.625,5.833-14,9.334l5.542,16.334l-12.542,14.292l-16.918-3.5c-2.917,4.958-5.542,9.918-7.584,15.168l12.834,11.376
		l-3.792,18.667l-16.336,5.251c0,5.542,0.292,11.376,1.167,16.918l16.917,3.499l6.126,18.085l-11.376,12.833
		c2.625,4.959,5.834,9.625,9.333,14.002l16.334-5.542l14.292,12.543l-3.792,16.918c4.958,2.916,9.918,5.542,15.168,7.582
		l11.376-12.833l18.667,3.792l5.542,16.334c5.543,0,11.376-0.292,16.918-1.167l3.5-16.626l18.084-6.126l12.833,11.378
		c4.958-2.626,9.626-5.836,14.001-9.335l-5.542-16.335l12.542-14.291l16.918,3.499c2.916-4.958,5.541-9.916,7.584-15.168
		l-12.834-11.376l3.792-18.667L308.918,386.102L308.918,386.102z M207.119,440.065c-31.21,0-56.587-25.376-56.587-56.586
		s25.377-56.587,56.587-56.587c31.21,0,56.587,25.376,56.587,56.587S238.33,440.065,207.119,440.065z"/>
	<path fill="#FFFFFF" d="M443.677,300.932l12.251-4.958c-0.291-4.376-0.875-8.751-1.749-13.126l-13.127-1.75l-5.542-13.709
		l8.169-10.5c-2.335-3.792-4.959-7.293-7.877-10.501l-12.251,4.959l-11.668-9.042l1.751-13.125l-0.875-0.584
		c-3.793-1.75-7.585-3.5-11.376-4.667l-8.169,10.5l-14.583-2.042l-4.958-12.542c-4.376,0.292-8.751,0.583-13.127,1.458
		l-1.749,13.126l-14.001,5.834l-10.5-8.167c-3.793,2.333-7.293,4.958-10.501,7.875l4.959,12.251l-9.043,11.668l-13.125-1.75
		c-2.043,3.792-3.792,7.876-5.251,12.251l10.501,8.167l-2.042,14.583l-12.251,4.959c0.292,4.375,0.875,8.75,1.75,13.125l13.125,1.75
		l5.542,13.71l-8.167,10.5c2.333,3.792,4.959,7.292,7.875,10.5l12.252-4.959l11.667,9.042l-1.749,13.126l0.875,0.583
		c3.791,1.75,7.583,3.5,11.376,4.667l8.167-10.5l14.584,2.042l4.959,12.251c4.374-0.292,8.749-0.585,13.125-1.751l1.75-13.125
		l13.71-5.542l10.5,8.167c3.791-2.333,7.292-4.958,10.5-7.875l-4.958-12.251l9.041-11.667l13.127,1.75
		c2.041-3.792,3.791-7.875,5.25-12.251l-10.5-8.167L443.677,300.932z M376.88,344.1c-25.084,0-45.211-20.125-45.211-45.211
		c0-25.084,20.127-45.21,45.211-45.21c25.087,0,45.212,20.126,45.212,45.21C422.092,323.975,401.967,344.1,376.88,344.1z"/>
</g>
</svg>
